<svg xmlns="http://www.w3.org/2000/svg" xmlns:xlink="http://www.w3.org/1999/xlink" width="446.295" height="111.839" viewBox="0 0 446.295 111.839"><defs><style>.a{fill:#fff;}.b,.f{fill:#333;}.c,.h{fill:#ff414f;}.d{fill:#4d4d4d;}.e{fill:none;}.g,.h{stroke:none;}.i{filter:url(#a);}</style><filter id="a" x="0" y="0" width="446.295" height="111.839" filterUnits="userSpaceOnUse"><feOffset dy="3" input="SourceAlpha"/><feGaussianBlur stdDeviation="5" result="b"/><feFlood flood-opacity="0.349"/><feComposite operator="in" in2="b"/><feComposite in="SourceGraphic"/></filter></defs><g transform="translate(14.657 12)"><g class="i" transform="matrix(1, 0, 0, 1, -14.66, -12)"><rect class="a" width="416.295" height="81.839" transform="translate(15 12)"/></g><path class="b" d="M5.685-22.283V-27.44h5.33v-2.17H5.685v-3.514h5.838v-2.261H2.943v13.1Zm9.706.154a3.348,3.348,0,0,0,2.969-1.643h.054v1.489h2.56v-6.692c0-1.961-1.625-3.25-4.122-3.25-2.579,0-4.186,1.3-4.285,3.187h2.424a1.578,1.578,0,0,1,1.743-1.208c1,0,1.634.527,1.634,1.435v.645l-2.451.145c-2.424.145-3.786,1.171-3.786,2.942A3.01,3.01,0,0,0,15.391-22.129Zm.872-1.916c-.9,0-1.5-.454-1.5-1.18,0-.69.563-1.135,1.553-1.208l2.052-.127v.708A1.944,1.944,0,0,1,16.262-24.045Zm15.263-4.349c-.118-2.206-1.789-3.832-4.422-3.832-2.914,0-4.776,1.943-4.776,5.066,0,3.178,1.861,5.084,4.794,5.084,2.56,0,4.276-1.48,4.413-3.777h-2.47a1.831,1.831,0,0,1-1.916,1.7c-1.317,0-2.134-1.09-2.134-3.005,0-1.879.817-2.987,2.125-2.987a1.887,1.887,0,0,1,1.925,1.752Zm7.736,3.132A1.938,1.938,0,0,1,37.3-24.035a2.165,2.165,0,0,1-2.234-2.342v-.163h6.71v-.808c0-2.96-1.789-4.876-4.621-4.876-2.878,0-4.694,2.016-4.694,5.121s1.8,5.03,4.794,5.03c2.406,0,4.149-1.28,4.44-3.187Zm-2.079-5a2.02,2.02,0,0,1,2.043,2.1H35.093A2.107,2.107,0,0,1,37.181-30.264Zm11.74,8.135c2.451,0,3.95-1.889,3.95-5.021s-1.507-5.021-3.959-5.021a3.165,3.165,0,0,0-3.005,1.843h-.054v-5.057H43.2v13.1h2.615v-1.671h.054A3.209,3.209,0,0,0,48.921-22.129ZM48-30.046c1.317,0,2.152,1.126,2.152,2.9S49.329-24.262,48-24.262c-1.289,0-2.161-1.126-2.161-2.887C45.843-28.893,46.724-30.046,48-30.046Zm10.7,7.972c2.942,0,4.821-1.879,4.821-5.084,0-3.16-1.907-5.066-4.821-5.066s-4.821,1.916-4.821,5.066C53.887-23.963,55.767-22.074,58.709-22.074Zm0-2.025c-1.307,0-2.134-1.1-2.134-3.051,0-1.934.844-3.051,2.134-3.051s2.125,1.117,2.125,3.051C60.833-25.2,60.007-24.1,58.709-24.1Zm10.65,2.025c2.942,0,4.821-1.879,4.821-5.084,0-3.16-1.907-5.066-4.821-5.066s-4.821,1.916-4.821,5.066C64.538-23.963,66.417-22.074,69.359-22.074Zm0-2.025c-1.307,0-2.134-1.1-2.134-3.051,0-1.934.844-3.051,2.134-3.051s2.125,1.117,2.125,3.051C71.483-25.2,70.657-24.1,69.359-24.1Zm8.934-4.013h-.036v-7.273H75.605v13.1h2.651V-25.5l.69-.745,2.787,3.959h3.051l-3.9-5.557L84.6-32.016H81.6Zm7.972-7.273.218,8.789h2.288l.218-8.789Zm1.362,13.329a1.44,1.44,0,0,0,1.48-1.425,1.44,1.44,0,0,0-1.48-1.425,1.44,1.44,0,0,0-1.48,1.425A1.44,1.44,0,0,0,87.627-22.056Z" transform="translate(106.521 56.61)"/><rect class="c" width="81.933" height="81.839" transform="translate(0 0)"/><path class="d" d="M.393,0H.66V-2.123A1.149,1.149,0,0,1,1.818-3.37a1.021,1.021,0,0,1,1.094,1.1V0h.267V-2.3a1.22,1.22,0,0,0-1.3-1.306,1.242,1.242,0,0,0-1.23.827H.643v-.772H.393ZM5.7.055A1.616,1.616,0,0,0,7.285-1.777,1.616,1.616,0,0,0,5.7-3.609,1.613,1.613,0,0,0,4.117-1.777,1.613,1.613,0,0,0,5.7.055Zm0-.239c-.79,0-1.316-.6-1.316-1.593S4.91-3.37,5.7-3.37s1.319.6,1.319,1.593S6.489-.185,5.7-.185Zm6.854-3.37h-.28L11.364-.294h-.01l-.988-3.261h-.3L9.074-.294H9.067L8.155-3.555H7.878L8.91,0h.314l.984-3.213h.01L11.21,0h.308Z" transform="translate(382.943 25.297)"/><path class="e" d="M-3067.115-1123.792h29.4v29.4h-29.4Z" transform="translate(3092.615 1150.01)"/><path class="b" d="M-3034.667-1115.129h-20.45a1.269,1.269,0,0,0-1.269,1.269v20.45a1.269,1.269,0,0,0,1.269,1.268h11.009v-8.9h-3v-3.469h3v-2.558c0-2.969,1.813-4.586,4.462-4.586a24.585,24.585,0,0,1,2.677.137v3.1h-1.837c-1.441,0-1.72.685-1.72,1.689v2.215h3.435l-.447,3.469h-2.988v8.9h5.858a1.269,1.269,0,0,0,1.269-1.268v-20.45a1.269,1.269,0,0,0-1.269-1.269Z" transform="translate(3081.859 1144.555)"/><g transform="translate(108.514 47.441)"><path d="M-2838.669-1054.1v-4.957l-4.107-6.506h1.239l3.392,5.442h.039l3.392-5.442h1.24l-4.107,6.506v4.957Z" transform="translate(2842.776 1065.582)"/><path d="M-2820.67-1053.01c0-2.629,1.525-4.266,3.765-4.266s3.765,1.637,3.765,4.266-1.517,4.266-3.765,4.266S-2820.67-1050.389-2820.67-1053.01Zm6.466,0c0-2.1-1.081-3.337-2.7-3.337s-2.693,1.24-2.693,3.337,1.072,3.336,2.693,3.336S-2814.2-1050.913-2814.2-1053.01Z" transform="translate(2828.855 1060.366)"/><path d="M-2790.669-1048.65h-.993v-1.533h-.024a2.836,2.836,0,0,1-2.74,1.668,2.763,2.763,0,0,1-2.916-3.027v-5.37h1.056v5.187a2.007,2.007,0,0,0,2.161,2.271,2.344,2.344,0,0,0,2.406-2.558v-4.9h1.049Z" transform="translate(2814.164 1060.136)"/><path d="M-2775.085-1057.141h.993v1.469h.023a2.1,2.1,0,0,1,2.09-1.6,2.736,2.736,0,0,1,.652.087v1.033a2.13,2.13,0,0,0-.786-.119,1.982,1.982,0,0,0-1.923,2.248v5.147h-1.049Z" transform="translate(2800.148 1060.366)"/><path d="M-2755.132-1048.117h1.088a2.325,2.325,0,0,0,2.351,1.39,2.235,2.235,0,0,0,2.51-2.248v-1.66h-.024a3.021,3.021,0,0,1-2.827,1.835c-2.089,0-3.487-1.676-3.487-4.234s1.4-4.242,3.511-4.242a3.051,3.051,0,0,1,2.86,1.883h.024v-1.748h1v8.126c0,1.922-1.406,3.193-3.614,3.193C-2753.543-1045.822-2754.9-1046.815-2755.132-1048.117Zm5.949-4.917c0-1.978-1.072-3.313-2.661-3.313-1.557,0-2.6,1.311-2.6,3.321,0,1.994,1.04,3.3,2.6,3.3C-2750.255-1049.73-2749.182-1051.056-2749.182-1053.034Z" transform="translate(2787.828 1060.366)"/><path d="M-2731.312-1057.141h.993v1.469h.024a2.1,2.1,0,0,1,2.089-1.6,2.739,2.739,0,0,1,.652.087v1.033a2.128,2.128,0,0,0-.787-.119,1.982,1.982,0,0,0-1.922,2.248v5.147h-1.049Z" transform="translate(2772.583 1060.366)"/><path d="M-2721.157-1053.01c0-2.629,1.525-4.266,3.765-4.266s3.765,1.637,3.765,4.266-1.517,4.266-3.765,4.266S-2721.157-1050.389-2721.157-1053.01Zm6.466,0c0-2.1-1.08-3.337-2.7-3.337s-2.693,1.24-2.693,3.337,1.073,3.336,2.693,3.336S-2714.691-1050.913-2714.691-1053.01Z" transform="translate(2766.188 1060.366)"/><path d="M-2691.155-1048.65h-.993v-1.533h-.024a2.835,2.835,0,0,1-2.74,1.668,2.763,2.763,0,0,1-2.915-3.027v-5.37h1.056v5.187a2.007,2.007,0,0,0,2.161,2.271,2.344,2.344,0,0,0,2.407-2.558v-4.9h1.049Z" transform="translate(2751.496 1060.136)"/><path d="M-2668.184-1053.01c0,2.573-1.422,4.266-3.495,4.266a2.965,2.965,0,0,1-2.812-1.835h-.032v4.432h-1.048v-10.993h.993v1.748h.031a3.021,3.021,0,0,1,2.844-1.883C-2669.614-1057.276-2668.184-1055.577-2668.184-1053.01Zm-1.072,0c0-2.01-1.033-3.337-2.63-3.337-1.565,0-2.637,1.351-2.637,3.337s1.072,3.336,2.637,3.336C-2670.289-1049.674-2669.256-1050.993-2669.256-1053.01Z" transform="translate(2737.481 1060.366)"/><path d="M-2654.28-1035.191l.762-3.829h1.12l-1,3.829Z" transform="translate(2724.073 1048.87)"/><path d="M-2636.375-1065.558l-.771,3.821h-1.112l.993-3.821Z" transform="translate(2713.983 1065.582)"/><path d="M-2629.2-1061.523h-1.152v-.873h1.152v-1.049a1.89,1.89,0,0,1,2.113-2.177,4.713,4.713,0,0,1,.763.064v.866a3.427,3.427,0,0,0-.612-.056c-.794,0-1.215.405-1.215,1.327v1.025h1.779v.873h-1.771v7.387h-1.057Z" transform="translate(2709.007 1065.622)"/><path d="M-2616.382-1065.558h1.048v11.463h-1.048Z" transform="translate(2700.207 1065.582)"/><path d="M-2610.239-1053.01c0-2.629,1.525-4.266,3.765-4.266s3.765,1.637,3.765,4.266-1.518,4.266-3.765,4.266S-2610.239-1050.389-2610.239-1053.01Zm6.466,0c0-2.1-1.081-3.337-2.7-3.337s-2.693,1.24-2.693,3.337,1.073,3.336,2.693,3.336S-2603.773-1050.913-2603.773-1053.01Z" transform="translate(2696.338 1060.366)"/><path d="M-2580.113-1048.65h-1.112l-2.057-6.855h-.024l-2.049,6.855h-1.113l-2.351-8.261h1.064l1.851,7.086h.024l2.057-7.086h1.064l2.057,7.086h.024l1.851-7.086h1.057Z" transform="translate(2682.85 1060.136)"/><path d="M-2550.708-1051.223a3.221,3.221,0,0,1-3.408,2.479c-2.32,0-3.757-1.62-3.757-4.242,0-2.566,1.454-4.29,3.694-4.29,2.192,0,3.574,1.613,3.574,4.075v.445h-6.188v.063c0,1.867,1.057,3.026,2.7,3.026a2.236,2.236,0,0,0,2.343-1.557Zm-6.077-2.367h5.1a2.536,2.536,0,0,0-2.51-2.765A2.643,2.643,0,0,0-2556.784-1053.59Z" transform="translate(2663.362 1060.366)"/><path d="M-2535.1-1057.141h.993v1.469h.024a2.1,2.1,0,0,1,2.089-1.6,2.733,2.733,0,0,1,.652.087v1.033a2.126,2.126,0,0,0-.786-.119,1.982,1.982,0,0,0-1.923,2.248v5.147h-1.049Z" transform="translate(2649.022 1060.366)"/><path d="M-2520.61-1057.276a2.749,2.749,0,0,1,3.034,2.526h-1.009a1.858,1.858,0,0,0-2.026-1.66c-1.128,0-1.9.6-1.9,1.422,0,.675.469,1.1,1.565,1.359l1.247.294c1.652.4,2.272,1.032,2.272,2.2,0,1.4-1.311,2.391-3.114,2.391-1.867,0-3.106-.993-3.249-2.5h1.048a1.966,1.966,0,0,0,2.2,1.636c1.239,0,2.057-.58,2.057-1.446,0-.715-.4-1.112-1.517-1.382l-1.239-.294c-1.573-.365-2.312-1.056-2.312-2.2C-2523.55-1056.3-2522.334-1057.276-2520.61-1057.276Z" transform="translate(2641.897 1060.366)"/><path d="M-2504.536-1061.737l.762-3.821h1.12l-1,3.821Z" transform="translate(2629.773 1065.582)"/><path d="M-2481.939-1054.528a2.29,2.29,0,0,0-2.359-1.819c-1.613,0-2.669,1.295-2.669,3.337,0,2.073,1.064,3.336,2.677,3.336a2.24,2.24,0,0,0,2.351-1.764h1.04a3.224,3.224,0,0,1-3.4,2.693c-2.256,0-3.741-1.62-3.741-4.266,0-2.605,1.485-4.266,3.733-4.266a3.251,3.251,0,0,1,3.4,2.748Z" transform="translate(2619.385 1060.366)"/><path d="M-2465.677-1065.558h1.057v4.727h.024a2.785,2.785,0,0,1,2.725-1.66,2.814,2.814,0,0,1,2.955,3.058v5.338h-1.056v-5.163a2.061,2.061,0,0,0-2.2-2.3,2.377,2.377,0,0,0-2.446,2.6v4.861h-1.057Z" transform="translate(2605.302 1065.582)"/><path d="M-2444.106-1051.167c0-1.414,1.056-2.272,2.963-2.4l2.574-.159v-.714a1.814,1.814,0,0,0-2.042-1.907,1.974,1.974,0,0,0-2.177,1.6h-1.017c.119-1.477,1.335-2.526,3.218-2.526s3.066,1.057,3.066,2.74v5.656h-1v-1.573h-.024a3.077,3.077,0,0,1-2.82,1.708A2.464,2.464,0,0,1-2444.106-1051.167Zm5.536-.818v-.913l-2.447.167c-1.3.087-2.025.652-2.025,1.565,0,.9.771,1.517,1.891,1.517A2.442,2.442,0,0,0-2438.569-1051.986Z" transform="translate(2591.718 1060.366)"/><path d="M-2422.216-1057.141h.994v1.525h.023a2.793,2.793,0,0,1,2.725-1.66,2.765,2.765,0,0,1,2.923,3.042v5.354h-1.049v-5.187a2.025,2.025,0,0,0-2.177-2.272,2.351,2.351,0,0,0-2.391,2.566v4.893h-1.049Z" transform="translate(2577.933 1060.366)"/><path d="M-2400.813-1048.117h1.088a2.325,2.325,0,0,0,2.351,1.39,2.235,2.235,0,0,0,2.51-2.248v-1.66h-.024a3.023,3.023,0,0,1-2.828,1.835c-2.089,0-3.487-1.676-3.487-4.234s1.4-4.242,3.511-4.242a3.052,3.052,0,0,1,2.86,1.883h.024v-1.748h1v8.126c0,1.922-1.406,3.193-3.615,3.193C-2399.225-1045.822-2400.583-1046.815-2400.813-1048.117Zm5.949-4.917c0-1.978-1.072-3.313-2.661-3.313-1.557,0-2.6,1.311-2.6,3.321,0,1.994,1.041,3.3,2.6,3.3C-2395.936-1049.73-2394.864-1051.056-2394.864-1053.034Z" transform="translate(2564.701 1060.366)"/><path d="M-2370.945-1051.223a3.221,3.221,0,0,1-3.408,2.479c-2.32,0-3.757-1.62-3.757-4.242,0-2.566,1.454-4.29,3.694-4.29,2.192,0,3.574,1.613,3.574,4.075v.445h-6.188v.063c0,1.867,1.056,3.026,2.7,3.026a2.237,2.237,0,0,0,2.343-1.557Zm-6.077-2.367h5.1a2.536,2.536,0,0,0-2.51-2.765A2.643,2.643,0,0,0-2377.022-1053.59Z" transform="translate(2550.158 1060.366)"/><path d="M-2356.455-1058.226c0-2.574,1.438-4.265,3.511-4.265a2.986,2.986,0,0,1,2.828,1.835h.024v-4.9h1.057v11.463h-1v-1.747h-.023a3.044,3.044,0,0,1-2.86,1.882C-2355.01-1053.96-2356.455-1055.66-2356.455-1058.226Zm1.081,0c0,2.018,1.048,3.336,2.637,3.336,1.573,0,2.653-1.335,2.653-3.336s-1.081-3.336-2.653-3.336C-2354.326-1061.562-2355.375-1060.244-2355.375-1058.226Z" transform="translate(2536.521 1065.582)"/><path d="M-2324.124-1064.622a.7.7,0,0,1,.7-.7.7.7,0,0,1,.707.7.7.7,0,0,1-.707.7A.7.7,0,0,1-2324.124-1064.622Zm.175,2.415h1.048v8.261h-1.048Z" transform="translate(2516.161 1065.432)"/><path d="M-2316.216-1062.489v2.065h1.628v.873h-1.628v5.306c0,.85.334,1.215,1.1,1.215.111,0,.508-.016.572-.031v.9a6.55,6.55,0,0,1-.778.048c-1.383,0-1.938-.588-1.938-2.081v-5.354h-1.231v-.873h1.231v-2.065Z" transform="translate(2512.617 1063.649)"/><path d="M-2302.482-1057.276a2.75,2.75,0,0,1,3.034,2.526h-1.009a1.858,1.858,0,0,0-2.026-1.66c-1.128,0-1.9.6-1.9,1.422,0,.675.469,1.1,1.565,1.359l1.247.294c1.652.4,2.271,1.032,2.271,2.2,0,1.4-1.311,2.391-3.114,2.391-1.866,0-3.106-.993-3.249-2.5h1.049a1.966,1.966,0,0,0,2.2,1.636c1.239,0,2.057-.58,2.057-1.446,0-.715-.405-1.112-1.517-1.382l-1.239-.294c-1.573-.365-2.312-1.056-2.312-2.2C-2305.422-1056.3-2304.206-1057.276-2302.482-1057.276Z" transform="translate(2504.534 1060.366)"/><path d="M-2277.192-1057.141h.993v1.525h.023a2.793,2.793,0,0,1,2.725-1.66,2.766,2.766,0,0,1,2.923,3.042v5.354h-1.049v-5.187a2.025,2.025,0,0,0-2.176-2.272,2.351,2.351,0,0,0-2.391,2.566v4.893h-1.048Z" transform="translate(2486.606 1060.366)"/><path d="M-2255.857-1051.167c0-1.414,1.056-2.272,2.963-2.4l2.573-.159v-.714a1.814,1.814,0,0,0-2.041-1.907,1.975,1.975,0,0,0-2.177,1.6h-1.017c.119-1.477,1.335-2.526,3.218-2.526s3.066,1.057,3.066,2.74v5.656h-1v-1.573h-.024a3.076,3.076,0,0,1-2.82,1.708A2.465,2.465,0,0,1-2255.857-1051.167Zm5.536-.818v-.913l-2.447.167c-1.3.087-2.025.652-2.025,1.565,0,.9.77,1.517,1.891,1.517A2.442,2.442,0,0,0-2250.321-1051.986Z" transform="translate(2473.171 1060.366)"/><path d="M-2233.967-1057.141h.993v1.525h.023a2.471,2.471,0,0,1,2.407-1.66,2.384,2.384,0,0,1,2.391,1.74h.024a2.721,2.721,0,0,1,2.606-1.74,2.544,2.544,0,0,1,2.669,2.748v5.648h-1.049v-5.41a1.826,1.826,0,0,0-1.914-2.049,2.074,2.074,0,0,0-2.065,2.256v5.2h-1.057v-5.5a1.814,1.814,0,0,0-1.89-1.954,2.16,2.16,0,0,0-2.09,2.383v5.076h-1.049Z" transform="translate(2459.386 1060.366)"/><path d="M-2193.8-1051.223a3.221,3.221,0,0,1-3.408,2.479c-2.32,0-3.757-1.62-3.757-4.242,0-2.566,1.454-4.29,3.694-4.29,2.192,0,3.574,1.613,3.574,4.075v.445h-6.188v.063c0,1.867,1.057,3.026,2.7,3.026a2.236,2.236,0,0,0,2.343-1.557Zm-6.077-2.367h5.1a2.536,2.536,0,0,0-2.51-2.765A2.643,2.643,0,0,0-2199.872-1053.59Z" transform="translate(2438.601 1060.366)"/><path d="M-2169.868-1062.489v2.065h1.628v.873h-1.628v5.306c0,.85.333,1.215,1.1,1.215.112,0,.508-.016.572-.031v.9a6.555,6.555,0,0,1-.779.048c-1.382,0-1.938-.588-1.938-2.081v-5.354h-1.231v-.873h1.231v-2.065Z" transform="translate(2420.456 1063.649)"/><path d="M-2160.106-1053.01c0-2.629,1.525-4.266,3.765-4.266s3.765,1.637,3.765,4.266-1.517,4.266-3.765,4.266S-2160.106-1050.389-2160.106-1053.01Zm6.466,0c0-2.1-1.08-3.337-2.7-3.337s-2.693,1.24-2.693,3.337,1.072,3.336,2.693,3.336S-2153.64-1050.913-2153.64-1053.01Z" transform="translate(2412.872 1060.366)"/><path d="M-2123.54-1046.329c-.151-.675-.381-.993-.6-.993a2.342,2.342,0,0,0-1.263.564c-.445.349-.778.739-.778,1.025,0,.707,2.065.62,2.621,1.072a1.108,1.108,0,0,1,.35.89,2.44,2.44,0,0,1-.651,1.469,4.865,4.865,0,0,1-3.067,1.319,2.615,2.615,0,0,1-2.748-2.915,4.844,4.844,0,0,1,.421-1.962l.31.1a4.43,4.43,0,0,0-.246,1.39,2.182,2.182,0,0,0,2.335,2.312,4.671,4.671,0,0,0,2.145-.66c.509-.3.985-.675.985-.794,0-.238-.58-.421-1.239-.516a2.769,2.769,0,0,1-1.454-.484,1.02,1.02,0,0,1-.293-.715,2.9,2.9,0,0,1,.882-2.042,3.548,3.548,0,0,1,1.97-1.128.618.618,0,0,1,.58.421,1.815,1.815,0,0,1,.191.747,3.051,3.051,0,0,1-.325.882Zm-3.741,7.761c-.326-.31-.612-.564-.93-.826a7.253,7.253,0,0,1,.628-.755,7.415,7.415,0,0,1,.905.85A4.231,4.231,0,0,1-2127.281-1038.569Zm1.533-.1c-.326-.31-.612-.564-.93-.826a7.184,7.184,0,0,1,.628-.755,7.427,7.427,0,0,1,.906.85A4.242,4.242,0,0,1-2125.747-1038.672Z" transform="translate(2393.712 1054.774)"/><path d="M-2109.552-1041.98c.453,1.088.866,1.716,1.787,1.716h.143v1.017h-.167a1.112,1.112,0,0,1-.8-.254h-.031c.008.1.016.19.016.278a2.655,2.655,0,0,1-.317,1.231c-.628,1.1-1.311,1.581-1.9,1.581a4.625,4.625,0,0,1-1.986-.62l.119-.27a2.083,2.083,0,0,0,.914.175,3.141,3.141,0,0,0,2.637-2.383,1.681,1.681,0,0,0-.215-.357,7.722,7.722,0,0,1-.691-1.184c.159-.365.3-.659.437-.921Z" transform="translate(2383.087 1050.734)"/><path d="M-2099.243-1043.925a4.467,4.467,0,0,0,1.176-.167v-.04a1.823,1.823,0,0,1-.929-1.557,2.046,2.046,0,0,1,.342-1.041,1.964,1.964,0,0,1,1.644-1.065,2.036,2.036,0,0,1,1.763,1.295l-.151.159a2,2,0,0,0-1.422-.508c-.842,0-1.454.39-1.454.667a1.5,1.5,0,0,0,.684,1.128,2,2,0,0,0,.961.429,7.979,7.979,0,0,0,2.272-.564l.04.04-.421.985c-1.247.445-1.851.508-2.82.826a6.374,6.374,0,0,1-1.939.429h-.246a.51.51,0,0,1-.556-.532.494.494,0,0,1,.556-.485Z" transform="translate(2375.211 1054.395)"/><path d="M-2079.7-1048.529h-.088a1.75,1.75,0,0,1-1.358-.453c-.485-.492-.493-1.057-.493-2.224,0-1.51-.087-3.09-.207-4.775a7.215,7.215,0,0,1,.747-.739l.055.032c.128,1.74.128,3.8.128,5.751v.453a.829.829,0,0,0,.6.85,1.611,1.611,0,0,0,.509.087h.111Z" transform="translate(2363.587 1060.015)"/><path d="M-2070.591-1050.281a9.237,9.237,0,0,1,.127,1.414,2.7,2.7,0,0,1-.286,1.089,1.524,1.524,0,0,1-1.176.873,1.341,1.341,0,0,1-.993-.659h-.064a1.859,1.859,0,0,1-1.39.683.682.682,0,0,1-.762-.675h-.032a2.126,2.126,0,0,1-1.692.675h-.135a.511.511,0,0,1-.556-.532.5.5,0,0,1,.556-.485h.27a1.884,1.884,0,0,0,1.676-.739l.437-.628.611-.214.031.04a2.982,2.982,0,0,0-.54,1.144.38.38,0,0,0,.413.4,1.272,1.272,0,0,0,.707-.23c.278-.206.318-.437.564-1.263l.476-.278.048.032a3.491,3.491,0,0,0-.1.779.857.857,0,0,0,.826.913.373.373,0,0,0,.421-.357,7.2,7.2,0,0,0-.2-1.287,6.071,6.071,0,0,1,.715-.715Zm-2.732-.548c-.325-.31-.612-.564-.929-.826a7.142,7.142,0,0,1,.628-.755,7.5,7.5,0,0,1,.905.85A4.217,4.217,0,0,1-2073.324-1050.829Zm.429-1.692c-.325-.31-.612-.564-.929-.826a7.167,7.167,0,0,1,.627-.755,7.5,7.5,0,0,1,.905.85A4.218,4.218,0,0,1-2072.895-1052.521Zm1.1,1.589c-.326-.31-.612-.564-.93-.826a7.108,7.108,0,0,1,.628-.755,7.536,7.536,0,0,1,.905.85A4.214,4.214,0,0,1-2071.791-1050.932Z" transform="translate(2360.884 1058.368)"/></g><g transform="translate(44.848 36.626)"><g class="f" transform="translate(1627.199 797.713)"><path class="g" d="M -1610.2548828125 -780.3384399414062 L -1625.878173828125 -780.3384399414062 C -1626.734497070312 -780.3384399414062 -1627.490600585938 -780.7596435546875 -1627.900756835938 -781.4652099609375 C -1628.309692382812 -782.1688232421875 -1628.300170898438 -783.03515625 -1627.875122070312 -783.7825927734375 L -1620.056518554688 -797.5119018554688 C -1619.62841796875 -798.263916015625 -1618.884399414062 -798.7129516601562 -1618.06640625 -798.7129516601562 C -1617.249755859375 -798.7129516601562 -1616.505859375 -798.2637939453125 -1616.076538085938 -797.5114135742188 L -1608.258178710938 -783.7806396484375 C -1607.83349609375 -783.0337524414062 -1607.82373046875 -782.16845703125 -1608.23193359375 -781.465576171875 C -1608.642700195312 -780.759521484375 -1609.398803710938 -780.3384399414062 -1610.2548828125 -780.3384399414062 Z M -1618.1181640625 -792.3191528320312 C -1618.164184570312 -792.3191528320312 -1618.20166015625 -792.28173828125 -1618.20166015625 -792.2357788085938 L -1618.20166015625 -788.3350219726562 C -1618.20166015625 -788.2888793945312 -1618.164184570312 -788.2512817382812 -1618.1181640625 -788.2512817382812 C -1618.072021484375 -788.2512817382812 -1618.034423828125 -788.2888793945312 -1618.034423828125 -788.3350219726562 L -1618.034423828125 -792.2357788085938 C -1618.034423828125 -792.28173828125 -1618.072021484375 -792.3191528320312 -1618.1181640625 -792.3191528320312 Z"/><path class="h" d="M -1610.2548828125 -781.3384399414062 C -1609.7568359375 -781.3384399414062 -1609.323974609375 -781.5770874023438 -1609.0966796875 -781.9677124023438 C -1608.86962890625 -782.3587036132812 -1608.881103515625 -782.8530883789062 -1609.127197265625 -783.2858276367188 L -1616.945068359375 -797.0158081054688 C -1617.193603515625 -797.4513549804688 -1617.612548828125 -797.7129516601562 -1618.06640625 -797.7129516601562 C -1618.5205078125 -797.7129516601562 -1618.939453125 -797.4528198242188 -1619.1875 -797.0170288085938 L -1627.005859375 -783.2882690429688 C -1627.251953125 -782.8555297851562 -1627.263427734375 -782.3587036132812 -1627.0361328125 -781.9677124023438 C -1626.80908203125 -781.5770874023438 -1626.3759765625 -781.3384399414062 -1625.878173828125 -781.3384399414062 L -1610.2548828125 -781.3384399414062 M -1618.06640625 -786.0270385742188 C -1617.468017578125 -786.0270385742188 -1616.98291015625 -785.5418090820312 -1616.98291015625 -784.9432983398438 C -1616.98291015625 -784.3450317382812 -1617.468017578125 -783.8599243164062 -1618.06640625 -783.8599243164062 C -1618.6650390625 -783.8599243164062 -1619.14990234375 -784.3450317382812 -1619.14990234375 -784.9432983398438 C -1619.14990234375 -785.5418090820312 -1618.6650390625 -786.0270385742188 -1618.06640625 -786.0270385742188 M -1618.1181640625 -793.3191528320312 C -1617.51953125 -793.3191528320312 -1617.034423828125 -792.8340454101562 -1617.034423828125 -792.2357788085938 L -1617.034423828125 -788.3350219726562 C -1617.034423828125 -787.7366333007812 -1617.51953125 -787.2512817382812 -1618.1181640625 -787.2512817382812 C -1618.71630859375 -787.2512817382812 -1619.20166015625 -787.7366333007812 -1619.20166015625 -788.3350219726562 L -1619.20166015625 -792.2357788085938 C -1619.20166015625 -792.8340454101562 -1618.71630859375 -793.3191528320312 -1618.1181640625 -793.3191528320312 M -1610.2548828125 -779.3384399414062 L -1625.878173828125 -779.3384399414062 C -1627.094848632812 -779.3384399414062 -1628.174072265625 -779.9456176757812 -1628.765258789062 -780.962646484375 C -1629.346435546875 -781.9623413085938 -1629.33837890625 -783.2323608398438 -1628.744384765625 -784.2769165039062 L -1620.925415039062 -798.0067749023438 C -1620.3173828125 -799.0750122070312 -1619.24853515625 -799.7129516601562 -1618.06640625 -799.7129516601562 C -1616.886108398438 -799.7129516601562 -1615.817504882812 -799.0752563476562 -1615.2080078125 -798.0070190429688 L -1607.38916015625 -784.2754516601562 C -1606.786254882812 -783.21533203125 -1606.778198242188 -781.9774780273438 -1607.3671875 -780.96337890625 C -1607.95947265625 -779.9453125 -1609.038696289062 -779.3384399414062 -1610.2548828125 -779.3384399414062 Z"/></g></g></g></svg>