<svg xmlns="http://www.w3.org/2000/svg" xmlns:xlink="http://www.w3.org/1999/xlink" width="446.295" height="111.839" viewBox="0 0 446.295 111.839"><defs><style>.a{fill:#fff;}.b,.f,.g{fill:#333;}.c,.i{fill:#ff414f;}.d{fill:#4d4d4d;}.e{fill:none;}.f{fill-rule:evenodd;}.h,.i{stroke:none;}.j{filter:url(#a);}</style><filter id="a" x="0" y="0" width="446.295" height="111.839" filterUnits="userSpaceOnUse"><feOffset dy="3" input="SourceAlpha"/><feGaussianBlur stdDeviation="5" result="b"/><feFlood flood-opacity="0.349"/><feComposite operator="in" in2="b"/><feComposite in="SourceGraphic"/></filter></defs><g transform="translate(14.657 12)"><g class="j" transform="matrix(1, 0, 0, 1, -14.66, -12)"><rect class="a" width="416.295" height="81.839" transform="translate(15 12)"/></g><path class="b" d="M9.6-31.235H9.68l2.488,8.952h2.588l3.477-13.1H15.391L13.321-25.9h-.073L10.8-35.385H8.481L6.03-25.9H5.957L3.9-35.385H1.054l3.468,13.1H7.11Zm9.942,8.952h2.651V-27.84A1.942,1.942,0,0,1,24.18-30C25.387-30,26-29.238,26-27.985v5.7h2.651v-6.265c0-2.252-1.235-3.65-3.4-3.65a3.091,3.091,0,0,0-3.06,1.916h-.054v-5.1H19.54Zm13.692.154A3.348,3.348,0,0,0,36.2-23.772h.054v1.489h2.56v-6.692c0-1.961-1.625-3.25-4.122-3.25-2.579,0-4.186,1.3-4.285,3.187h2.424a1.578,1.578,0,0,1,1.743-1.208c1,0,1.634.527,1.634,1.435v.645l-2.451.145c-2.424.145-3.786,1.171-3.786,2.942A3.01,3.01,0,0,0,33.232-22.129Zm.872-1.916c-.9,0-1.5-.454-1.5-1.18,0-.69.563-1.135,1.553-1.208l2.052-.127v.708A1.944,1.944,0,0,1,34.1-24.045Zm7.127-10.214v2.243H39.86v2h1.371v5.112c0,1.9.89,2.66,3.178,2.66a6.1,6.1,0,0,0,1.262-.109v-1.952a4.291,4.291,0,0,1-.645.045c-.781,0-1.144-.354-1.144-1.1v-4.658h1.8v-2h-1.8v-2.243Zm5.738,5.1c0,1.462.953,2.406,2.833,2.806l1.662.345c.953.218,1.289.508,1.289,1.026,0,.636-.617,1.044-1.616,1.044a1.608,1.608,0,0,1-1.825-1.307H46.724c.173,1.916,1.725,3.169,4.413,3.169,2.506,0,4.258-1.262,4.258-3.178,0-1.425-.835-2.224-2.869-2.651l-1.662-.354c-.981-.209-1.344-.545-1.344-1.044,0-.645.608-1.062,1.525-1.062A1.485,1.485,0,0,1,52.7-29.038h2.442c-.054-1.907-1.6-3.187-4.095-3.187C48.567-32.225,46.969-31.008,46.969-29.156Zm12.62,7.027a3.348,3.348,0,0,0,2.969-1.643h.054v1.489h2.56v-6.692c0-1.961-1.625-3.25-4.122-3.25-2.579,0-4.186,1.3-4.285,3.187H59.19a1.578,1.578,0,0,1,1.743-1.208c1,0,1.634.527,1.634,1.435v.645l-2.451.145c-2.424.145-3.786,1.171-3.786,2.942A3.01,3.01,0,0,0,59.59-22.129Zm.872-1.916c-.9,0-1.5-.454-1.5-1.18,0-.69.563-1.135,1.553-1.208l2.052-.127v.708A1.944,1.944,0,0,1,60.461-24.045Zm12.1-8.126a3.173,3.173,0,0,0-3.014,1.852H69.5v-1.7H66.88v12.911h2.651v-4.812h.054a3.189,3.189,0,0,0,3.023,1.789c2.433,0,3.94-1.889,3.94-5.021S75.034-32.171,72.564-32.171Zm-.89,7.908c-1.3,0-2.152-1.126-2.152-2.887,0-1.743.853-2.9,2.152-2.9,1.326,0,2.161,1.135,2.161,2.9S73-24.262,71.674-24.262ZM83.6-32.171a3.173,3.173,0,0,0-3.014,1.852h-.054v-1.7H77.912v12.911h2.651v-4.812h.054a3.189,3.189,0,0,0,3.023,1.789c2.433,0,3.94-1.889,3.94-5.021S86.065-32.171,83.6-32.171Zm-.89,7.908c-1.3,0-2.152-1.126-2.152-2.887,0-1.743.853-2.9,2.152-2.9,1.326,0,2.161,1.135,2.161,2.9S84.031-24.262,82.706-24.262Zm6.955-11.122.218,8.789h2.288l.218-8.789Zm1.362,13.329a1.44,1.44,0,0,0,1.48-1.425,1.44,1.44,0,0,0-1.48-1.425,1.44,1.44,0,0,0-1.48,1.425A1.44,1.44,0,0,0,91.023-22.056Z" transform="translate(107.71 56.61)"/><path d="M2.9-31.272v11.464H6.615c3.44,0,5.434-2.105,5.434-5.736s-2-5.728-5.434-5.728Zm1.088.985H6.551c2.82,0,4.393,1.7,4.393,4.751s-1.573,4.743-4.393,4.743H3.985ZM15.8-19.673a3.078,3.078,0,0,0,2.82-1.708h.024v1.573h1v-5.656c0-1.684-1.184-2.741-3.067-2.741s-3.1,1.049-3.218,2.526h1.017a1.974,1.974,0,0,1,2.177-1.6A1.814,1.814,0,0,1,18.6-25.37v.715l-2.574.159c-1.907.127-2.963.985-2.963,2.4A2.465,2.465,0,0,0,15.8-19.673Zm.215-.906c-1.12,0-1.891-.62-1.891-1.517,0-.914.723-1.478,2.026-1.565l2.447-.167v.914A2.442,2.442,0,0,1,16.017-20.579Zm5.232.771H22.3V-24.7a2.352,2.352,0,0,1,2.391-2.566A2.026,2.026,0,0,1,26.866-25v5.188h1.049v-5.355a2.766,2.766,0,0,0-2.924-3.043,2.793,2.793,0,0,0-2.725,1.66h-.024v-1.525h-.993Zm11.44,0h1.049v-5.148A1.982,1.982,0,0,1,35.66-27.2a2.127,2.127,0,0,1,.787.119v-1.033a2.726,2.726,0,0,0-.651-.087,2.1,2.1,0,0,0-2.089,1.6h-.024v-1.47h-.993Zm9.967-2.344A2.237,2.237,0,0,1,40.312-20.6c-1.645,0-2.7-1.16-2.7-3.027v-.064H43.8v-.445c0-2.463-1.382-4.076-3.575-4.076-2.24,0-3.694,1.724-3.694,4.29,0,2.622,1.438,4.242,3.758,4.242A3.221,3.221,0,0,0,43.7-22.152Zm-2.447-5.132a2.536,2.536,0,0,1,2.51,2.765h-5.1A2.643,2.643,0,0,1,40.209-27.284Zm4.834,7.476h1.049v-5.077a2.16,2.16,0,0,1,2.089-2.383,1.815,1.815,0,0,1,1.891,1.954v5.506h1.057v-5.2a2.074,2.074,0,0,1,2.066-2.256,1.826,1.826,0,0,1,1.915,2.05v5.41h1.049v-5.649a2.545,2.545,0,0,0-2.669-2.749,2.72,2.72,0,0,0-2.606,1.74h-.024a2.384,2.384,0,0,0-2.391-1.74,2.471,2.471,0,0,0-2.407,1.66h-.024v-1.525h-.993Zm16.068.135c2.248,0,3.766-1.645,3.766-4.266s-1.517-4.266-3.766-4.266-3.766,1.637-3.766,4.266S58.863-19.673,61.111-19.673Zm0-.93c-1.621,0-2.693-1.239-2.693-3.337s1.073-3.337,2.693-3.337,2.7,1.239,2.7,3.337S62.732-20.6,61.111-20.6Zm11.317-7.468h-1.1l-2.518,7.158H68.79l-2.51-7.158H65.167l3.075,8.262h1.12Zm6.415,5.919A2.237,2.237,0,0,1,76.5-20.6c-1.645,0-2.7-1.16-2.7-3.027v-.064h6.189v-.445c0-2.463-1.382-4.076-3.575-4.076-2.24,0-3.694,1.724-3.694,4.29,0,2.622,1.438,4.242,3.758,4.242a3.221,3.221,0,0,0,3.408-2.479ZM76.4-27.284a2.536,2.536,0,0,1,2.51,2.765h-5.1A2.643,2.643,0,0,1,76.4-27.284Zm7.957,7.611a3.043,3.043,0,0,0,2.86-1.883h.024v1.748h1V-31.272H87.181v4.9h-.024a2.986,2.986,0,0,0-2.828-1.835c-2.074,0-3.511,1.692-3.511,4.266S82.264-19.673,84.353-19.673Zm.183-7.6c1.573,0,2.653,1.343,2.653,3.337S86.109-20.6,84.536-20.6c-1.589,0-2.638-1.319-2.638-3.337S82.947-27.276,84.536-27.276ZM93.72-16.821c1.351,0,1.946-.54,2.669-2.487l3.249-8.763H98.527l-2.51,7.214h-.024l-2.51-7.214H92.354l3.09,8.318-.215.62c-.365,1.033-.779,1.414-1.541,1.414a2.3,2.3,0,0,1-.493-.048v.9A3.286,3.286,0,0,0,93.72-16.821Zm9.982-2.852c2.248,0,3.766-1.645,3.766-4.266s-1.517-4.266-3.766-4.266-3.766,1.637-3.766,4.266S101.454-19.673,103.7-19.673Zm0-.93c-1.621,0-2.693-1.239-2.693-3.337s1.073-3.337,2.693-3.337,2.7,1.239,2.7,3.337S105.323-20.6,103.7-20.6Zm11.627-7.468h-1.049v4.9a2.344,2.344,0,0,1-2.407,2.558,2.007,2.007,0,0,1-2.161-2.272v-5.188h-1.057v5.37a2.763,2.763,0,0,0,2.916,3.027,2.837,2.837,0,0,0,2.741-1.668h.024v1.533h.993Zm5.236,8.262h1.057V-27.2h1.772v-.874h-1.78V-29.1c0-.922.421-1.327,1.216-1.327a3.421,3.421,0,0,1,.612.056v-.866a4.727,4.727,0,0,0-.763-.064,1.89,1.89,0,0,0-2.113,2.177v1.049h-1.152v.874h1.152Zm4.032,0h1.049v-5.148a1.982,1.982,0,0,1,1.923-2.248,2.127,2.127,0,0,1,.787.119v-1.033a2.726,2.726,0,0,0-.651-.087,2.1,2.1,0,0,0-2.089,1.6h-.024v-1.47H124.6Zm7.607.135c2.248,0,3.766-1.645,3.766-4.266s-1.517-4.266-3.766-4.266-3.766,1.637-3.766,4.266S129.956-19.673,132.2-19.673Zm0-.93c-1.621,0-2.693-1.239-2.693-3.337s1.073-3.337,2.693-3.337,2.7,1.239,2.7,3.337S133.825-20.6,132.2-20.6Zm5,.794h1.049v-5.077a2.16,2.16,0,0,1,2.089-2.383,1.815,1.815,0,0,1,1.891,1.954v5.506h1.057v-5.2a2.074,2.074,0,0,1,2.066-2.256,1.826,1.826,0,0,1,1.915,2.05v5.41h1.049v-5.649a2.545,2.545,0,0,0-2.669-2.749,2.72,2.72,0,0,0-2.606,1.74h-.024a2.384,2.384,0,0,0-2.391-1.74,2.471,2.471,0,0,0-2.407,1.66H138.2v-1.525h-.993ZM153.54-30.136v2.066h-1.231v.874h1.231v5.355c0,1.494.556,2.081,1.938,2.081a6.563,6.563,0,0,0,.779-.048v-.9c-.064.016-.461.032-.572.032-.763,0-1.1-.365-1.1-1.216V-27.2h1.629v-.874h-1.629v-2.066Zm4.08,10.328h1.057v-4.862a2.378,2.378,0,0,1,2.447-2.6,2.061,2.061,0,0,1,2.2,2.3v5.164h1.057v-5.339a2.814,2.814,0,0,0-2.955-3.059,2.785,2.785,0,0,0-2.725,1.66h-.024v-4.727h-1.057Zm14.074-2.344A2.237,2.237,0,0,1,169.35-20.6c-1.645,0-2.7-1.16-2.7-3.027v-.064h6.189v-.445c0-2.463-1.382-4.076-3.575-4.076-2.24,0-3.694,1.724-3.694,4.29,0,2.622,1.438,4.242,3.758,4.242a3.221,3.221,0,0,0,3.408-2.479Zm-2.447-5.132a2.536,2.536,0,0,1,2.51,2.765h-5.1A2.643,2.643,0,0,1,169.246-27.284ZM180.615-16.75c2.209,0,3.615-1.271,3.615-3.194v-8.127h-1v1.748h-.024a3.052,3.052,0,0,0-2.86-1.883c-2.113,0-3.511,1.676-3.511,4.242s1.4,4.234,3.488,4.234a3.022,3.022,0,0,0,2.828-1.835h.024v1.66a2.235,2.235,0,0,1-2.51,2.248,2.325,2.325,0,0,1-2.352-1.39h-1.088C177.453-17.743,178.812-16.75,180.615-16.75Zm-.1-3.909c-1.557,0-2.6-1.3-2.6-3.3,0-2.01,1.041-3.321,2.6-3.321,1.589,0,2.661,1.335,2.661,3.313S182.1-20.659,180.512-20.659Zm5.367.85h1.049v-5.148A1.982,1.982,0,0,1,188.85-27.2a2.127,2.127,0,0,1,.786.119v-1.033a2.726,2.726,0,0,0-.651-.087,2.1,2.1,0,0,0-2.089,1.6h-.024v-1.47h-.993Zm7.607.135c2.248,0,3.766-1.645,3.766-4.266s-1.517-4.266-3.766-4.266-3.766,1.637-3.766,4.266S191.237-19.673,193.486-19.673Zm0-.93c-1.621,0-2.693-1.239-2.693-3.337s1.073-3.337,2.693-3.337,2.7,1.239,2.7,3.337S195.106-20.6,193.486-20.6Zm11.627-7.468h-1.049v4.9a2.344,2.344,0,0,1-2.407,2.558,2.007,2.007,0,0,1-2.161-2.272v-5.188h-1.057v5.37a2.763,2.763,0,0,0,2.916,3.027,2.837,2.837,0,0,0,2.741-1.668h.024v1.533h.993Zm5.518-.135a3.021,3.021,0,0,0-2.844,1.883h-.032v-1.748h-.993v11h1.049v-4.433h.032a2.964,2.964,0,0,0,2.812,1.835c2.073,0,3.5-1.692,3.5-4.266S212.72-28.206,210.63-28.206Zm-.183,7.6c-1.565,0-2.638-1.343-2.638-3.337s1.073-3.337,2.638-3.337c1.6,0,2.63,1.327,2.63,3.337S212.044-20.6,210.448-20.6Zm9.168-10.669-.993,3.821h1.112l.771-3.821Zm6.86,11.464V-30.287h3.79v-.985h-8.66v.985h3.782v10.479Zm4.9,0h1.057v-4.862a2.378,2.378,0,0,1,2.447-2.6,2.061,2.061,0,0,1,2.2,2.3v5.164h1.057v-5.339a2.814,2.814,0,0,0-2.955-3.059,2.785,2.785,0,0,0-2.725,1.66h-.024v-4.727h-1.057Zm14.074-2.344A2.237,2.237,0,0,1,243.1-20.6c-1.645,0-2.7-1.16-2.7-3.027v-.064h6.189v-.445c0-2.463-1.382-4.076-3.575-4.076-2.24,0-3.694,1.724-3.694,4.29,0,2.622,1.438,4.242,3.758,4.242a3.221,3.221,0,0,0,3.408-2.479ZM243-27.284a2.536,2.536,0,0,1,2.51,2.765h-5.1A2.643,2.643,0,0,1,243-27.284Zm17.613,2.82v-1.1h-4.64v.953h3.559v.405a3.414,3.414,0,0,1-3.678,3.575c-2.455,0-4.036-1.946-4.036-4.973,0-2.987,1.549-4.838,4.036-4.838a3.526,3.526,0,0,1,3.559,2.622h1.128a4.529,4.529,0,0,0-4.687-3.631c-3.13,0-5.148,2.3-5.148,5.847,0,3.615,2.042,5.982,5.148,5.982C258.835-19.626,260.614-21.437,260.614-24.464Zm3.841,4.791a3.078,3.078,0,0,0,2.82-1.708h.024v1.573h1v-5.656c0-1.684-1.184-2.741-3.067-2.741s-3.1,1.049-3.218,2.526h1.017a1.974,1.974,0,0,1,2.177-1.6,1.814,1.814,0,0,1,2.042,1.907v.715l-2.574.159c-1.907.127-2.963.985-2.963,2.4A2.465,2.465,0,0,0,264.456-19.673Zm.215-.906c-1.12,0-1.891-.62-1.891-1.517,0-.914.723-1.478,2.026-1.565l2.447-.167v.914A2.442,2.442,0,0,1,264.67-20.579Zm5.232.771h1.049V-24.7a2.352,2.352,0,0,1,2.391-2.566A2.026,2.026,0,0,1,275.518-25v5.188h1.049v-5.355a2.766,2.766,0,0,0-2.924-3.043,2.793,2.793,0,0,0-2.725,1.66h-.024v-1.525H269.9Zm11.643,3.059c2.209,0,3.615-1.271,3.615-3.194v-8.127h-1v1.748h-.024a3.052,3.052,0,0,0-2.86-1.883c-2.113,0-3.511,1.676-3.511,4.242s1.4,4.234,3.488,4.234a3.022,3.022,0,0,0,2.828-1.835h.024v1.66a2.235,2.235,0,0,1-2.51,2.248,2.325,2.325,0,0,1-2.352-1.39h-1.088C278.383-17.743,279.741-16.75,281.545-16.75Zm-.1-3.909c-1.557,0-2.6-1.3-2.6-3.3,0-2.01,1.041-3.321,2.6-3.321,1.589,0,2.661,1.335,2.661,3.313S283.03-20.659,281.441-20.659Zm6.312-6.793,1-3.821h-1.12l-.763,3.821Z" transform="translate(106.55 79.051)"/><rect class="c" width="81.933" height="81.839" transform="translate(0 0)"/><path class="d" d="M.393,0H.66V-2.123A1.149,1.149,0,0,1,1.818-3.37a1.021,1.021,0,0,1,1.094,1.1V0h.267V-2.3a1.22,1.22,0,0,0-1.3-1.306,1.242,1.242,0,0,0-1.23.827H.643v-.772H.393ZM5.7.055A1.616,1.616,0,0,0,7.285-1.777,1.616,1.616,0,0,0,5.7-3.609,1.613,1.613,0,0,0,4.117-1.777,1.613,1.613,0,0,0,5.7.055Zm0-.239c-.79,0-1.316-.6-1.316-1.593S4.91-3.37,5.7-3.37s1.319.6,1.319,1.593S6.489-.185,5.7-.185Zm6.854-3.37h-.28L11.364-.294h-.01l-.988-3.261h-.3L9.074-.294H9.067L8.155-3.555H7.878L8.91,0h.314l.984-3.213h.01L11.21,0h.308Z" transform="translate(382.943 25.297)"/><path class="e" d="M-3067.115-869.261h29.4v29.4h-29.4Z" transform="translate(3092.615 895.479)"/><path class="f" d="M-3037.22-858.535a11.842,11.842,0,0,0-8.432-3.495,11.934,11.934,0,0,0-11.919,11.915,11.889,11.889,0,0,0,1.591,5.957l-1.691,6.175,6.319-1.657a11.916,11.916,0,0,0,5.7,1.451h.005a11.935,11.935,0,0,0,11.919-11.916,11.841,11.841,0,0,0-3.488-8.43m-8.431,18.333h0a9.9,9.9,0,0,1-5.042-1.38l-.362-.215-3.749.983,1-3.655-.236-.375a9.873,9.873,0,0,1-1.514-5.271,9.919,9.919,0,0,1,9.911-9.9,9.842,9.842,0,0,1,7,2.9,9.844,9.844,0,0,1,2.9,7.006,9.92,9.92,0,0,1-9.907,9.9m5.434-7.417c-.3-.149-1.762-.869-2.035-.969s-.472-.149-.67.149-.769.969-.943,1.167-.347.223-.646.074a8.15,8.15,0,0,1-2.395-1.478,8.972,8.972,0,0,1-1.657-2.063c-.173-.3-.019-.459.131-.608.134-.133.3-.348.447-.521a2.036,2.036,0,0,0,.3-.5.549.549,0,0,0-.025-.522c-.075-.149-.67-1.614-.918-2.21-.242-.581-.487-.5-.67-.511s-.373-.01-.571-.01a1.1,1.1,0,0,0-.794.372,3.34,3.34,0,0,0-1.042,2.484,5.791,5.791,0,0,0,1.216,3.08,13.277,13.277,0,0,0,5.087,4.5,17.208,17.208,0,0,0,1.7.627,4.087,4.087,0,0,0,1.875.118,3.068,3.068,0,0,0,2.011-1.416,2.489,2.489,0,0,0,.173-1.416c-.074-.124-.273-.2-.571-.348" transform="translate(3083.667 888.925)"/><g transform="translate(41.848 34.842)"><g class="g" transform="translate(1627.199 797.713)"><path class="h" d="M -1610.2548828125 -780.3384399414062 L -1625.878173828125 -780.3384399414062 C -1626.734497070312 -780.3384399414062 -1627.490600585938 -780.7596435546875 -1627.900756835938 -781.4652099609375 C -1628.309692382812 -782.1688232421875 -1628.300170898438 -783.03515625 -1627.875122070312 -783.7825927734375 L -1620.056518554688 -797.5119018554688 C -1619.62841796875 -798.263916015625 -1618.884399414062 -798.7129516601562 -1618.06640625 -798.7129516601562 C -1617.249755859375 -798.7129516601562 -1616.505859375 -798.2637939453125 -1616.076538085938 -797.5114135742188 L -1608.258178710938 -783.7806396484375 C -1607.83349609375 -783.0337524414062 -1607.82373046875 -782.16845703125 -1608.23193359375 -781.465576171875 C -1608.642700195312 -780.759521484375 -1609.398803710938 -780.3384399414062 -1610.2548828125 -780.3384399414062 Z M -1618.1181640625 -792.3191528320312 C -1618.164184570312 -792.3191528320312 -1618.20166015625 -792.28173828125 -1618.20166015625 -792.2357788085938 L -1618.20166015625 -788.3350219726562 C -1618.20166015625 -788.2888793945312 -1618.164184570312 -788.2512817382812 -1618.1181640625 -788.2512817382812 C -1618.072021484375 -788.2512817382812 -1618.034423828125 -788.2888793945312 -1618.034423828125 -788.3350219726562 L -1618.034423828125 -792.2357788085938 C -1618.034423828125 -792.28173828125 -1618.072021484375 -792.3191528320312 -1618.1181640625 -792.3191528320312 Z"/><path class="i" d="M -1610.2548828125 -781.3384399414062 C -1609.7568359375 -781.3384399414062 -1609.323974609375 -781.5770874023438 -1609.0966796875 -781.9677124023438 C -1608.86962890625 -782.3587036132812 -1608.881103515625 -782.8530883789062 -1609.127197265625 -783.2858276367188 L -1616.945068359375 -797.0158081054688 C -1617.193603515625 -797.4513549804688 -1617.612548828125 -797.7129516601562 -1618.06640625 -797.7129516601562 C -1618.5205078125 -797.7129516601562 -1618.939453125 -797.4528198242188 -1619.1875 -797.0170288085938 L -1627.005859375 -783.2882690429688 C -1627.251953125 -782.8555297851562 -1627.263427734375 -782.3587036132812 -1627.0361328125 -781.9677124023438 C -1626.80908203125 -781.5770874023438 -1626.3759765625 -781.3384399414062 -1625.878173828125 -781.3384399414062 L -1610.2548828125 -781.3384399414062 M -1618.06640625 -786.0270385742188 C -1617.468017578125 -786.0270385742188 -1616.98291015625 -785.5418090820312 -1616.98291015625 -784.9432983398438 C -1616.98291015625 -784.3450317382812 -1617.468017578125 -783.8599243164062 -1618.06640625 -783.8599243164062 C -1618.6650390625 -783.8599243164062 -1619.14990234375 -784.3450317382812 -1619.14990234375 -784.9432983398438 C -1619.14990234375 -785.5418090820312 -1618.6650390625 -786.0270385742188 -1618.06640625 -786.0270385742188 M -1618.1181640625 -793.3191528320312 C -1617.51953125 -793.3191528320312 -1617.034423828125 -792.8340454101562 -1617.034423828125 -792.2357788085938 L -1617.034423828125 -788.3350219726562 C -1617.034423828125 -787.7366333007812 -1617.51953125 -787.2512817382812 -1618.1181640625 -787.2512817382812 C -1618.71630859375 -787.2512817382812 -1619.20166015625 -787.7366333007812 -1619.20166015625 -788.3350219726562 L -1619.20166015625 -792.2357788085938 C -1619.20166015625 -792.8340454101562 -1618.71630859375 -793.3191528320312 -1618.1181640625 -793.3191528320312 M -1610.2548828125 -779.3384399414062 L -1625.878173828125 -779.3384399414062 C -1627.094848632812 -779.3384399414062 -1628.174072265625 -779.9456176757812 -1628.765258789062 -780.962646484375 C -1629.346435546875 -781.9623413085938 -1629.33837890625 -783.2323608398438 -1628.744384765625 -784.2769165039062 L -1620.925415039062 -798.0067749023438 C -1620.3173828125 -799.0750122070312 -1619.24853515625 -799.7129516601562 -1618.06640625 -799.7129516601562 C -1616.886108398438 -799.7129516601562 -1615.817504882812 -799.0752563476562 -1615.2080078125 -798.0070190429688 L -1607.38916015625 -784.2754516601562 C -1606.786254882812 -783.21533203125 -1606.778198242188 -781.9774780273438 -1607.3671875 -780.96337890625 C -1607.95947265625 -779.9453125 -1609.038696289062 -779.3384399414062 -1610.2548828125 -779.3384399414062 Z"/></g></g></g></svg>