<svg xmlns="http://www.w3.org/2000/svg" xmlns:xlink="http://www.w3.org/1999/xlink" width="453.3" height="305.2" viewBox="0 0 453.3 305.2"><defs><style>.a{fill:#fff;stroke:#ff414f;stroke-width:7px;}.b{opacity:0.074;}.c,.i{fill:#ff414f;}.d{fill:none;}.e,.g{fill:#333;}.f{fill:#4d4d4d;}.h,.i{stroke:none;}.j{filter:url(#a);}</style><filter id="a" x="0" y="0" width="453.3" height="305.2" filterUnits="userSpaceOnUse"><feOffset dy="3" input="SourceAlpha"/><feGaussianBlur stdDeviation="5" result="b"/><feFlood flood-opacity="0.161"/><feComposite operator="in" in2="b"/><feComposite in="SourceGraphic"/></filter></defs><g transform="translate(0.843 0.5)"><g transform="translate(-12.043 -9)"><g class="j" transform="matrix(1, 0, 0, 1, 11.2, 8.5)"><path class="a" d="M0,0H416.3V268.2H0Z" transform="translate(18.5 15.5)"/></g></g><g class="b" transform="translate(5.758 3)"><rect class="c" width="388.8" height="30.7" transform="translate(26.9 101.9)"/><path class="c" d="M26.9,109.791,415.7,106.3V263.147H26.9Z"/></g><path class="d" d="M-3067.115-2414.092h29.4v29.4h-29.4Z" transform="translate(3124.713 2586.291)"/><g transform="translate(-182.462 -10243.197)"><g transform="translate(337.119 10365.797)"><path class="c" d="M400.641,10365.8a63.186,63.186,0,0,0-14.548,1.684.085.085,0,0,0-.032.011.318.318,0,0,0-.1.021,63.526,63.526,0,1,0,73.106,86.729c0-.006.006-.006.006-.012a63.511,63.511,0,0,0-58.433-88.434Zm43.516,72.531c0,.006,0,.018,0,.021a44.4,44.4,0,0,1-76.528,20.668c-.357-.391-.7-.791-1.04-1.2a44.21,44.21,0,0,1-9.448-19.443.29.29,0,0,1-.006-.049,44.419,44.419,0,0,1,18.241-45.535.114.114,0,0,1,.017-.011,44.428,44.428,0,0,1,68.768,45.546Z" transform="translate(-337.119 -10365.797)"/></g><g transform="translate(358.236 10379.144)"><path class="c" d="M462.978,10401.937l-9.378,11.44-54.913,67-8.549,10.429-14.018-11.489,6.519-7.954,1.83-2.235,14.689-17.917.011-.017,40.63-49.564,9.161-11.18Z" transform="translate(-376.119 -10390.447)"/></g></g><g transform="translate(14.549 12.41)"><path class="e" d="M5.685-22.283v-13.1H2.943v13.1Zm2.138,0h2.651v-5.584A1.928,1.928,0,0,1,12.417-30c1.189,0,1.789.726,1.789,2v5.72h2.651v-6.274c0-2.279-1.217-3.641-3.378-3.641a3.075,3.075,0,0,0-3.042,1.916h-.054v-1.734H7.823Zm10.736-6.873c0,1.462.953,2.406,2.833,2.806l1.662.345c.953.218,1.289.508,1.289,1.026,0,.636-.617,1.044-1.616,1.044A1.608,1.608,0,0,1,20.9-25.243H18.314c.173,1.916,1.725,3.169,4.413,3.169,2.506,0,4.258-1.262,4.258-3.178,0-1.425-.835-2.224-2.869-2.651l-1.662-.354c-.981-.209-1.344-.545-1.344-1.044,0-.645.608-1.062,1.525-1.062a1.485,1.485,0,0,1,1.652,1.326H26.73c-.054-1.907-1.6-3.187-4.095-3.187C20.157-32.225,18.559-31.008,18.559-29.156Zm10.627-5.1v2.243H27.815v2h1.371v5.112c0,1.9.89,2.66,3.178,2.66a6.1,6.1,0,0,0,1.262-.109v-1.952a4.291,4.291,0,0,1-.645.045c-.781,0-1.144-.354-1.144-1.1v-4.658h1.8v-2h-1.8v-2.243Zm8.884,12.13a3.348,3.348,0,0,0,2.969-1.643h.054v1.489h2.56v-6.692c0-1.961-1.625-3.25-4.122-3.25-2.579,0-4.186,1.3-4.285,3.187h2.424a1.578,1.578,0,0,1,1.743-1.208c1,0,1.634.527,1.634,1.435v.645l-2.451.145c-2.424.145-3.786,1.171-3.786,2.942A3.01,3.01,0,0,0,38.07-22.129Zm.872-1.916c-.9,0-1.5-.454-1.5-1.18,0-.69.563-1.135,1.553-1.208l2.052-.127v.708A1.944,1.944,0,0,1,38.942-24.045ZM50-18.615c2.915,0,4.858-1.489,4.858-3.8v-9.6H52.239v1.7h-.045a3.193,3.193,0,0,0-3.005-1.852c-2.47,0-3.995,1.9-3.995,4.985,0,3.042,1.571,4.876,3.95,4.876a3.176,3.176,0,0,0,3.005-1.743H52.2v1.707c0,1.126-.763,1.879-2.134,1.879a1.929,1.929,0,0,1-1.979-1.126h-2.6C45.7-19.859,47.435-18.615,50-18.615Zm.045-5.738c-1.317,0-2.134-1.035-2.134-2.815s.826-2.878,2.134-2.878c1.326,0,2.17,1.126,2.17,2.878S51.367-24.353,50.041-24.353Zm6.723,2.07h2.651v-5.439a1.939,1.939,0,0,1,2.07-2.17,2.728,2.728,0,0,1,.962.154v-2.333a2.7,2.7,0,0,0-.754-.1,2.323,2.323,0,0,0-2.315,1.907h-.054v-1.752h-2.56Zm9.61.154a3.348,3.348,0,0,0,2.969-1.643H69.4v1.489h2.56v-6.692c0-1.961-1.625-3.25-4.122-3.25-2.579,0-4.186,1.3-4.285,3.187h2.424a1.578,1.578,0,0,1,1.743-1.208c1,0,1.634.527,1.634,1.435v.645l-2.451.145c-2.424.145-3.786,1.171-3.786,2.942A3.01,3.01,0,0,0,66.375-22.129Zm.872-1.916c-.9,0-1.5-.454-1.5-1.18,0-.69.563-1.135,1.553-1.208l2.052-.127v.708A1.944,1.944,0,0,1,67.246-24.045Zm6.605,1.761H76.5v-5.874a1.692,1.692,0,0,1,1.689-1.852,1.486,1.486,0,0,1,1.571,1.662v6.065h2.551v-5.911a1.653,1.653,0,0,1,1.671-1.816c1.026,0,1.589.617,1.589,1.743v5.983h2.651v-6.646A3.053,3.053,0,0,0,85.037-32.2a3.083,3.083,0,0,0-3.023,2h-.054a2.586,2.586,0,0,0-2.715-2,2.857,2.857,0,0,0-2.778,1.943h-.054v-1.761h-2.56Zm16.956-13.1.218,8.789h2.288l.218-8.789Zm1.362,13.329a1.44,1.44,0,0,0,1.48-1.425,1.44,1.44,0,0,0-1.48-1.425,1.44,1.44,0,0,0-1.48,1.425A1.44,1.44,0,0,0,92.169-22.056Z" transform="translate(106.863 56.61)"/><path d="M3.977-24.5H7.028l2.638,4.7h1.271l-2.781-4.87a3.178,3.178,0,0,0,2.455-3.241c0-2.042-1.43-3.353-3.67-3.353H2.9v11.464h1.08Zm0-5.8H6.813c1.668,0,2.677.9,2.677,2.415a2.315,2.315,0,0,1-2.638,2.423H3.977Zm11.595,10.63c2.248,0,3.766-1.645,3.766-4.266s-1.517-4.266-3.766-4.266-3.766,1.637-3.766,4.266S13.324-19.673,15.572-19.673Zm0-.93c-1.621,0-2.693-1.239-2.693-3.337s1.073-3.337,2.693-3.337,2.7,1.239,2.7,3.337S17.193-20.6,15.572-20.6Zm5.327.794h1.049V-24.7a2.352,2.352,0,0,1,2.391-2.566A2.026,2.026,0,0,1,26.515-25v5.188h1.049v-5.355a2.766,2.766,0,0,0-2.924-3.043,2.793,2.793,0,0,0-2.725,1.66h-.024v-1.525H20.9Zm11.047.135a3.078,3.078,0,0,0,2.82-1.708h.024v1.573h1v-5.656c0-1.684-1.184-2.741-3.067-2.741s-3.1,1.049-3.218,2.526h1.017a1.974,1.974,0,0,1,2.177-1.6,1.814,1.814,0,0,1,2.042,1.907v.715l-2.574.159c-1.907.127-2.963.985-2.963,2.4A2.465,2.465,0,0,0,31.945-19.673Zm.215-.906c-1.12,0-1.891-.62-1.891-1.517,0-.914.723-1.478,2.026-1.565l2.447-.167v.914A2.442,2.442,0,0,1,32.16-20.579Zm5.565-7.476h1.049A2.514,2.514,0,0,1,41.443-30.5a2.289,2.289,0,0,1,2.439,2.264c0,1.009-.405,1.692-2.05,3.408L37.78-20.571v.763h7.476v-.969H39.29v-.032l3.067-3.2c2.042-2.105,2.606-3.043,2.606-4.282a3.284,3.284,0,0,0-3.519-3.162A3.485,3.485,0,0,0,37.725-28.055ZM49.3-25.282h1.382c1.827,0,2.955.866,2.947,2.367-.008,1.359-1.16,2.336-2.82,2.336-1.645,0-2.852-.89-2.916-2.2H46.841c.071,1.835,1.676,3.154,3.964,3.154,2.232,0,3.925-1.382,3.925-3.321a2.806,2.806,0,0,0-2.86-2.828v-.032a2.757,2.757,0,0,0,2.447-2.717c0-1.637-1.366-2.932-3.551-2.932a3.4,3.4,0,0,0-3.686,3.082h1.049A2.4,2.4,0,0,1,50.765-30.5c1.549,0,2.455.874,2.455,2.113a2.306,2.306,0,0,1-2.59,2.177H49.3Zm11.376-4.5a.7.7,0,0,0,.707-.7.7.7,0,0,0-.707-.7.7.7,0,0,0-.7.7A.7.7,0,0,0,60.672-29.787Zm.532,1.716H60.156v8.8c0,.993-.381,1.382-1.366,1.382h-.215V-17c.008.008.23.008.254.008,1.637,0,2.375-.715,2.375-2.3Zm8.671,0H68.827v4.9a2.344,2.344,0,0,1-2.407,2.558,2.007,2.007,0,0,1-2.161-2.272v-5.188H63.2v5.37a2.763,2.763,0,0,0,2.916,3.027,2.837,2.837,0,0,0,2.741-1.668h.024v1.533h.993Zm1.807,2.209c0,1.144.739,1.835,2.312,2.2l1.239.294c1.112.27,1.517.667,1.517,1.382,0,.866-.818,1.446-2.058,1.446a1.966,1.966,0,0,1-2.2-1.637H71.444c.143,1.509,1.382,2.5,3.249,2.5,1.8,0,3.114-.993,3.114-2.391,0-1.168-.62-1.8-2.272-2.2l-1.247-.294c-1.1-.262-1.565-.683-1.565-1.359,0-.826.771-1.422,1.9-1.422a1.858,1.858,0,0,1,2.026,1.66h1.009a2.75,2.75,0,0,0-3.035-2.526C72.9-28.206,71.683-27.229,71.683-25.862Zm8.147-4.274v2.066H78.6v.874H79.83v5.355c0,1.494.556,2.081,1.938,2.081a6.563,6.563,0,0,0,.779-.048v-.9c-.064.016-.461.032-.572.032-.763,0-1.1-.365-1.1-1.216V-27.2h1.629v-.874H80.878v-2.066ZM91.969-19.809c2.423,0,3.877-1.192,3.877-3.146a2.821,2.821,0,0,0-2.693-2.852v-.056a2.592,2.592,0,0,0,2.1-2.582c0-1.692-1.335-2.828-3.3-2.828H87.821v11.464ZM88.9-30.311h2.812c1.525,0,2.439.739,2.439,1.986,0,1.351-1.017,2.145-2.757,2.145H88.9Zm0,9.541v-4.473h2.773c1.978,0,3.059.8,3.059,2.232s-1.041,2.24-2.916,2.24Zm15.48-.024H98.638V-31.272h-1.08v11.464h6.824Zm5.891-10.662c-3.194,0-5.2,2.288-5.2,5.919s2.01,5.911,5.2,5.911,5.212-2.28,5.212-5.911S113.466-31.455,110.272-31.455Zm0,1.009c2.51,0,4.1,1.9,4.1,4.91s-1.589,4.9-4.1,4.9-4.091-1.9-4.091-4.9S107.762-30.446,110.272-30.446Zm11.706,10.82a4.338,4.338,0,0,0,4.648-3.575h-1.088a3.365,3.365,0,0,1-3.551,2.566c-2.439,0-4-1.915-4-4.934,0-2.979,1.565-4.878,4-4.878a3.526,3.526,0,0,1,3.559,2.812h1.088a4.5,4.5,0,0,0-4.648-3.821c-3.114,0-5.108,2.3-5.108,5.887C116.87-21.938,118.856-19.626,121.978-19.626Zm7.488-.183V-23.9l1.414-1.533,4.552,5.625h1.39l-5.18-6.4,4.711-5.069h-1.374l-5.45,5.942h-.064v-5.942h-1.08v11.464Zm15.607-.985h-5.839v-4.4h5.545v-.969h-5.545v-4.123h5.839v-.985h-6.92v11.464h6.92Zm2.014-10.479v11.464H150.8c3.44,0,5.434-2.105,5.434-5.736s-2-5.728-5.434-5.728Zm1.088.985h2.566c2.82,0,4.393,1.7,4.393,4.751s-1.573,4.743-4.393,4.743h-2.566Zm13.831,13.466c1.351,0,1.946-.54,2.669-2.487l3.249-8.763h-1.112l-2.51,7.214h-.024l-2.51-7.214H160.64l3.09,8.318-.215.62c-.365,1.033-.779,1.414-1.541,1.414a2.3,2.3,0,0,1-.493-.048v.9A3.286,3.286,0,0,0,162.006-16.821Zm10.308-2.852c2.248,0,3.766-1.645,3.766-4.266s-1.517-4.266-3.766-4.266-3.766,1.637-3.766,4.266S170.066-19.673,172.314-19.673Zm0-.93c-1.621,0-2.693-1.239-2.693-3.337s1.072-3.337,2.693-3.337,2.7,1.239,2.7,3.337S173.935-20.6,172.314-20.6Zm11.952-7.468h-1.049v4.9a2.344,2.344,0,0,1-2.407,2.558,2.007,2.007,0,0,1-2.161-2.272v-5.188h-1.057v5.37a2.763,2.763,0,0,0,2.916,3.027,2.836,2.836,0,0,0,2.741-1.668h.024v1.533h.993Zm3.094,8.334a.732.732,0,0,0,.739-.739.734.734,0,0,0-.739-.747.741.741,0,0,0-.747.747A.739.739,0,0,0,187.36-19.737Z" transform="translate(106.892 79.051)"/><rect class="c" width="81.933" height="81.839" transform="translate(0 0)"/><path class="f" d="M.393,0H.66V-2.123A1.149,1.149,0,0,1,1.818-3.37a1.021,1.021,0,0,1,1.094,1.1V0h.267V-2.3a1.22,1.22,0,0,0-1.3-1.306,1.242,1.242,0,0,0-1.23.827H.643v-.772H.393ZM5.7.055A1.616,1.616,0,0,0,7.285-1.777,1.616,1.616,0,0,0,5.7-3.609,1.613,1.613,0,0,0,4.117-1.777,1.613,1.613,0,0,0,5.7.055Zm0-.239c-.79,0-1.316-.6-1.316-1.593S4.91-3.37,5.7-3.37s1.319.6,1.319,1.593S6.489-.185,5.7-.185Zm6.854-3.37h-.28L11.364-.294h-.01l-.988-3.261h-.3L9.074-.294H9.067L8.155-3.555H7.878L8.91,0h.314l.984-3.213h.01L11.21,0h.308Z" transform="translate(382.943 25.297)"/><path class="d" d="M-3067.927-1674.665h32.673v32.673h-32.673Z" transform="translate(3093.469 1697.806)"/><g transform="translate(27.23 27.183)"><path class="e" d="M-3049.632-1661.273c3.668,0,4.1.014,5.55.08a7.609,7.609,0,0,1,2.551.473,4.257,4.257,0,0,1,1.58,1.028,4.248,4.248,0,0,1,1.027,1.579,7.6,7.6,0,0,1,.474,2.551c.066,1.448.08,1.883.08,5.551s-.014,4.1-.08,5.551a7.6,7.6,0,0,1-.474,2.55,4.249,4.249,0,0,1-1.027,1.58,4.261,4.261,0,0,1-1.58,1.027,7.6,7.6,0,0,1-2.551.473c-1.448.066-1.883.08-5.55.08s-4.1-.014-5.551-.08a7.6,7.6,0,0,1-2.551-.473,4.26,4.26,0,0,1-1.579-1.027,4.25,4.25,0,0,1-1.027-1.58,7.589,7.589,0,0,1-.474-2.55c-.066-1.448-.08-1.883-.08-5.551s.014-4.1.08-5.551a7.593,7.593,0,0,1,.474-2.551,4.249,4.249,0,0,1,1.027-1.579,4.256,4.256,0,0,1,1.579-1.028,7.612,7.612,0,0,1,2.551-.473c1.448-.066,1.883-.08,5.551-.08m0-2.475c-3.731,0-4.2.016-5.664.083a10.088,10.088,0,0,0-3.334.638,6.732,6.732,0,0,0-2.432,1.584,6.733,6.733,0,0,0-1.585,2.433,10.085,10.085,0,0,0-.638,3.334c-.067,1.465-.083,1.933-.083,5.663s.016,4.2.083,5.663a10.086,10.086,0,0,0,.638,3.334,6.738,6.738,0,0,0,1.585,2.433,6.732,6.732,0,0,0,2.432,1.584,10.082,10.082,0,0,0,3.334.638c1.465.067,1.933.083,5.664.083s4.2-.016,5.663-.083a10.078,10.078,0,0,0,3.335-.638,6.738,6.738,0,0,0,2.433-1.584,6.748,6.748,0,0,0,1.585-2.433,10.087,10.087,0,0,0,.638-3.334c.067-1.465.083-1.933.083-5.663s-.015-4.2-.083-5.663a10.087,10.087,0,0,0-.638-3.334,6.742,6.742,0,0,0-1.585-2.433,6.738,6.738,0,0,0-2.433-1.584,10.084,10.084,0,0,0-3.335-.638C-3045.433-1663.732-3045.9-1663.748-3049.632-1663.748Zm0,6.683a7.054,7.054,0,0,0-7.054,7.054,7.054,7.054,0,0,0,7.054,7.054,7.054,7.054,0,0,0,7.053-7.054A7.054,7.054,0,0,0-3049.632-1657.065Zm0,11.632a4.579,4.579,0,0,1-4.579-4.579,4.578,4.578,0,0,1,4.579-4.579,4.579,4.579,0,0,1,4.579,4.579A4.579,4.579,0,0,1-3049.632-1645.433Zm8.981-11.911a1.648,1.648,0,0,1-1.648,1.648,1.648,1.648,0,0,1-1.648-1.648,1.648,1.648,0,0,1,1.648-1.648A1.648,1.648,0,0,1-3040.651-1657.344Z" transform="translate(3063.368 1663.748)"/></g><g transform="translate(45.19 37.413)"><g class="g" transform="translate(1627.199 797.713)"><path class="h" d="M -1610.2548828125 -780.3384399414062 L -1625.878173828125 -780.3384399414062 C -1626.734497070312 -780.3384399414062 -1627.490600585938 -780.7596435546875 -1627.900756835938 -781.4652099609375 C -1628.309692382812 -782.1688232421875 -1628.300170898438 -783.03515625 -1627.875122070312 -783.7825927734375 L -1620.056518554688 -797.5119018554688 C -1619.62841796875 -798.263916015625 -1618.884399414062 -798.7129516601562 -1618.06640625 -798.7129516601562 C -1617.249755859375 -798.7129516601562 -1616.505859375 -798.2637939453125 -1616.076538085938 -797.5114135742188 L -1608.258178710938 -783.7806396484375 C -1607.83349609375 -783.0337524414062 -1607.82373046875 -782.16845703125 -1608.23193359375 -781.465576171875 C -1608.642700195312 -780.759521484375 -1609.398803710938 -780.3384399414062 -1610.2548828125 -780.3384399414062 Z M -1618.1181640625 -792.3191528320312 C -1618.164184570312 -792.3191528320312 -1618.20166015625 -792.28173828125 -1618.20166015625 -792.2357788085938 L -1618.20166015625 -788.3350219726562 C -1618.20166015625 -788.2888793945312 -1618.164184570312 -788.2512817382812 -1618.1181640625 -788.2512817382812 C -1618.072021484375 -788.2512817382812 -1618.034423828125 -788.2888793945312 -1618.034423828125 -788.3350219726562 L -1618.034423828125 -792.2357788085938 C -1618.034423828125 -792.28173828125 -1618.072021484375 -792.3191528320312 -1618.1181640625 -792.3191528320312 Z"/><path class="i" d="M -1610.2548828125 -781.3384399414062 C -1609.7568359375 -781.3384399414062 -1609.323974609375 -781.5770874023438 -1609.0966796875 -781.9677124023438 C -1608.86962890625 -782.3587036132812 -1608.881103515625 -782.8530883789062 -1609.127197265625 -783.2858276367188 L -1616.945068359375 -797.0158081054688 C -1617.193603515625 -797.4513549804688 -1617.612548828125 -797.7129516601562 -1618.06640625 -797.7129516601562 C -1618.5205078125 -797.7129516601562 -1618.939453125 -797.4528198242188 -1619.1875 -797.0170288085938 L -1627.005859375 -783.2882690429688 C -1627.251953125 -782.8555297851562 -1627.263427734375 -782.3587036132812 -1627.0361328125 -781.9677124023438 C -1626.80908203125 -781.5770874023438 -1626.3759765625 -781.3384399414062 -1625.878173828125 -781.3384399414062 L -1610.2548828125 -781.3384399414062 M -1618.06640625 -786.0270385742188 C -1617.468017578125 -786.0270385742188 -1616.98291015625 -785.5418090820312 -1616.98291015625 -784.9432983398438 C -1616.98291015625 -784.3450317382812 -1617.468017578125 -783.8599243164062 -1618.06640625 -783.8599243164062 C -1618.6650390625 -783.8599243164062 -1619.14990234375 -784.3450317382812 -1619.14990234375 -784.9432983398438 C -1619.14990234375 -785.5418090820312 -1618.6650390625 -786.0270385742188 -1618.06640625 -786.0270385742188 M -1618.1181640625 -793.3191528320312 C -1617.51953125 -793.3191528320312 -1617.034423828125 -792.8340454101562 -1617.034423828125 -792.2357788085938 L -1617.034423828125 -788.3350219726562 C -1617.034423828125 -787.7366333007812 -1617.51953125 -787.2512817382812 -1618.1181640625 -787.2512817382812 C -1618.71630859375 -787.2512817382812 -1619.20166015625 -787.7366333007812 -1619.20166015625 -788.3350219726562 L -1619.20166015625 -792.2357788085938 C -1619.20166015625 -792.8340454101562 -1618.71630859375 -793.3191528320312 -1618.1181640625 -793.3191528320312 M -1610.2548828125 -779.3384399414062 L -1625.878173828125 -779.3384399414062 C -1627.094848632812 -779.3384399414062 -1628.174072265625 -779.9456176757812 -1628.765258789062 -780.962646484375 C -1629.346435546875 -781.9623413085938 -1629.33837890625 -783.2323608398438 -1628.744384765625 -784.2769165039062 L -1620.925415039062 -798.0067749023438 C -1620.3173828125 -799.0750122070312 -1619.24853515625 -799.7129516601562 -1618.06640625 -799.7129516601562 C -1616.886108398438 -799.7129516601562 -1615.817504882812 -799.0752563476562 -1615.2080078125 -798.0070190429688 L -1607.38916015625 -784.2754516601562 C -1606.786254882812 -783.21533203125 -1606.778198242188 -781.9774780273438 -1607.3671875 -780.96337890625 C -1607.95947265625 -779.9453125 -1609.038696289062 -779.3384399414062 -1610.2548828125 -779.3384399414062 Z"/></g></g></g></g></svg>