<svg xmlns="http://www.w3.org/2000/svg" xmlns:xlink="http://www.w3.org/1999/xlink" width="446.295" height="111.839" viewBox="0 0 446.295 111.839"><defs><style>.a{fill:#fff;}.b{fill:#333;}.c{fill:#ff414f;}.d{fill:#4d4d4d;}.e{fill:none;}.f{filter:url(#a);}</style><filter id="a" x="0" y="0" width="446.295" height="111.839" filterUnits="userSpaceOnUse"><feOffset dy="3" input="SourceAlpha"/><feGaussianBlur stdDeviation="5" result="b"/><feFlood flood-opacity="0.349"/><feComposite operator="in" in2="b"/><feComposite in="SourceGraphic"/></filter></defs><g transform="translate(14.657 12)"><g class="f" transform="matrix(1, 0, 0, 1, -14.66, -12)"><rect class="a" width="416.295" height="81.839" transform="translate(15 12)"/></g><path class="b" d="M5.685-22.283v-13.1H2.943v13.1Zm2.138,0h2.651v-5.584A1.928,1.928,0,0,1,12.417-30c1.189,0,1.789.726,1.789,2v5.72h2.651v-6.274c0-2.279-1.217-3.641-3.378-3.641a3.075,3.075,0,0,0-3.042,1.916h-.054v-1.734H7.823Zm10.736-6.873c0,1.462.953,2.406,2.833,2.806l1.662.345c.953.218,1.289.508,1.289,1.026,0,.636-.617,1.044-1.616,1.044A1.608,1.608,0,0,1,20.9-25.243H18.314c.173,1.916,1.725,3.169,4.413,3.169,2.506,0,4.258-1.262,4.258-3.178,0-1.425-.835-2.224-2.869-2.651l-1.662-.354c-.981-.209-1.344-.545-1.344-1.044,0-.645.608-1.062,1.525-1.062a1.485,1.485,0,0,1,1.652,1.326H26.73c-.054-1.907-1.6-3.187-4.095-3.187C20.157-32.225,18.559-31.008,18.559-29.156Zm10.627-5.1v2.243H27.815v2h1.371v5.112c0,1.9.89,2.66,3.178,2.66a6.1,6.1,0,0,0,1.262-.109v-1.952a4.291,4.291,0,0,1-.645.045c-.781,0-1.144-.354-1.144-1.1v-4.658h1.8v-2h-1.8v-2.243Zm8.884,12.13a3.348,3.348,0,0,0,2.969-1.643h.054v1.489h2.56v-6.692c0-1.961-1.625-3.25-4.122-3.25-2.579,0-4.186,1.3-4.285,3.187h2.424a1.578,1.578,0,0,1,1.743-1.208c1,0,1.634.527,1.634,1.435v.645l-2.451.145c-2.424.145-3.786,1.171-3.786,2.942A3.01,3.01,0,0,0,38.07-22.129Zm.872-1.916c-.9,0-1.5-.454-1.5-1.18,0-.69.563-1.135,1.553-1.208l2.052-.127v.708A1.944,1.944,0,0,1,38.942-24.045ZM50-18.615c2.915,0,4.858-1.489,4.858-3.8v-9.6H52.239v1.7h-.045a3.193,3.193,0,0,0-3.005-1.852c-2.47,0-3.995,1.9-3.995,4.985,0,3.042,1.571,4.876,3.95,4.876a3.176,3.176,0,0,0,3.005-1.743H52.2v1.707c0,1.126-.763,1.879-2.134,1.879a1.929,1.929,0,0,1-1.979-1.126h-2.6C45.7-19.859,47.435-18.615,50-18.615Zm.045-5.738c-1.317,0-2.134-1.035-2.134-2.815s.826-2.878,2.134-2.878c1.326,0,2.17,1.126,2.17,2.878S51.367-24.353,50.041-24.353Zm6.723,2.07h2.651v-5.439a1.939,1.939,0,0,1,2.07-2.17,2.728,2.728,0,0,1,.962.154v-2.333a2.7,2.7,0,0,0-.754-.1,2.323,2.323,0,0,0-2.315,1.907h-.054v-1.752h-2.56Zm9.61.154a3.348,3.348,0,0,0,2.969-1.643H69.4v1.489h2.56v-6.692c0-1.961-1.625-3.25-4.122-3.25-2.579,0-4.186,1.3-4.285,3.187h2.424a1.578,1.578,0,0,1,1.743-1.208c1,0,1.634.527,1.634,1.435v.645l-2.451.145c-2.424.145-3.786,1.171-3.786,2.942A3.01,3.01,0,0,0,66.375-22.129Zm.872-1.916c-.9,0-1.5-.454-1.5-1.18,0-.69.563-1.135,1.553-1.208l2.052-.127v.708A1.944,1.944,0,0,1,67.246-24.045Zm6.605,1.761H76.5v-5.874a1.692,1.692,0,0,1,1.689-1.852,1.486,1.486,0,0,1,1.571,1.662v6.065h2.551v-5.911a1.653,1.653,0,0,1,1.671-1.816c1.026,0,1.589.617,1.589,1.743v5.983h2.651v-6.646A3.053,3.053,0,0,0,85.037-32.2a3.083,3.083,0,0,0-3.023,2h-.054a2.586,2.586,0,0,0-2.715-2,2.857,2.857,0,0,0-2.778,1.943h-.054v-1.761h-2.56Z" transform="translate(106.863 56.61)"/><path d="M13.939-19.809V-31.272H12.684L8.442-21.191H8.394L4.144-31.272H2.9v11.464H3.914v-9.406h.048l3.98,9.406h.945l3.988-9.406h.048v9.406Zm5.493.135c2.248,0,3.766-1.645,3.766-4.266s-1.517-4.266-3.766-4.266-3.766,1.637-3.766,4.266S17.185-19.673,19.433-19.673Zm0-.93c-1.621,0-2.693-1.239-2.693-3.337s1.073-3.337,2.693-3.337,2.7,1.239,2.7,3.337S21.054-20.6,19.433-20.6Zm5.327.794h1.049v-5.148A1.982,1.982,0,0,1,27.731-27.2a2.127,2.127,0,0,1,.787.119v-1.033a2.726,2.726,0,0,0-.651-.087,2.1,2.1,0,0,0-2.089,1.6h-.024v-1.47H24.76Zm10.292-2.344A2.237,2.237,0,0,1,32.708-20.6c-1.645,0-2.7-1.16-2.7-3.027v-.064H36.2v-.445c0-2.463-1.382-4.076-3.575-4.076-2.24,0-3.694,1.724-3.694,4.29,0,2.622,1.438,4.242,3.758,4.242a3.221,3.221,0,0,0,3.408-2.479ZM32.6-27.284a2.536,2.536,0,0,1,2.51,2.765h-5.1A2.643,2.643,0,0,1,32.6-27.284Zm9.1-2.852v2.066H40.477v.874h1.231v5.355c0,1.494.556,2.081,1.938,2.081a6.563,6.563,0,0,0,.779-.048v-.9c-.064.016-.461.032-.572.032-.763,0-1.1-.365-1.1-1.216V-27.2h1.629v-.874H42.757v-2.066Zm4.405,10.328H47.17v-4.862a2.378,2.378,0,0,1,2.447-2.6,2.061,2.061,0,0,1,2.2,2.3v5.164h1.057v-5.339a2.814,2.814,0,0,0-2.955-3.059,2.785,2.785,0,0,0-2.725,1.66H47.17v-4.727H46.114Zm11.134.135a3.078,3.078,0,0,0,2.82-1.708h.024v1.573h1v-5.656c0-1.684-1.184-2.741-3.067-2.741s-3.1,1.049-3.218,2.526h1.017A1.974,1.974,0,0,1,58-27.276a1.814,1.814,0,0,1,2.042,1.907v.715L57.47-24.5c-1.907.127-2.963.985-2.963,2.4A2.465,2.465,0,0,0,57.248-19.673Zm.215-.906c-1.12,0-1.891-.62-1.891-1.517,0-.914.723-1.478,2.026-1.565l2.447-.167v.914A2.442,2.442,0,0,1,57.462-20.579Zm5.557.771h1.049V-24.7a2.352,2.352,0,0,1,2.391-2.566A2.026,2.026,0,0,1,68.636-25v5.188h1.049v-5.355a2.766,2.766,0,0,0-2.924-3.043,2.793,2.793,0,0,0-2.725,1.66h-.024v-1.525h-.993Zm15.039,0h1.049V-31.272H78.042c-.342.207-2.773,1.923-3.09,2.121v1.1c.334-.207,2.82-1.907,3.075-2.066h.032Zm8.139.183a3.825,3.825,0,0,0,3.98-3.9,3.7,3.7,0,0,0-3.805-3.79A3.49,3.49,0,0,0,83-25.139h-.024c0-3.4,1.2-5.355,3.3-5.355A2.548,2.548,0,0,1,88.874-28.6h1.1a3.544,3.544,0,0,0-3.694-2.852c-2.717,0-4.354,2.312-4.354,6.157C81.923-20.929,84.219-19.626,86.2-19.626Zm-.008-.969a2.905,2.905,0,0,1-2.908-2.979A2.82,2.82,0,0,1,86.2-26.355a2.785,2.785,0,0,1,2.876,2.86A2.867,2.867,0,0,1,86.189-20.6Zm7.924-4.687H95.5c1.827,0,2.955.866,2.947,2.367-.008,1.359-1.16,2.336-2.82,2.336-1.645,0-2.852-.89-2.916-2.2H91.659c.072,1.835,1.676,3.154,3.964,3.154,2.232,0,3.925-1.382,3.925-3.321a2.806,2.806,0,0,0-2.86-2.828v-.032a2.757,2.757,0,0,0,2.447-2.717c0-1.637-1.366-2.932-3.551-2.932A3.4,3.4,0,0,0,91.9-28.373h1.049A2.4,2.4,0,0,1,95.583-30.5c1.549,0,2.455.874,2.455,2.113a2.306,2.306,0,0,1-2.59,2.177H94.114Zm10.955-5.99v11.464h1.08V-24.13h2.812a3.454,3.454,0,0,0,3.686-3.575,3.437,3.437,0,0,0-3.678-3.567Zm1.08.969h2.566c1.772,0,2.82.969,2.82,2.6a2.5,2.5,0,0,1-2.82,2.606h-2.566Zm13.494,8.151A2.237,2.237,0,0,1,117.3-20.6c-1.645,0-2.7-1.16-2.7-3.027v-.064h6.189v-.445c0-2.463-1.382-4.076-3.575-4.076-2.24,0-3.694,1.724-3.694,4.29,0,2.622,1.438,4.242,3.758,4.242a3.221,3.221,0,0,0,3.408-2.479ZM117.2-27.284a2.536,2.536,0,0,1,2.51,2.765h-5.1A2.643,2.643,0,0,1,117.2-27.284Zm8.512,7.611c2.248,0,3.766-1.645,3.766-4.266s-1.517-4.266-3.766-4.266-3.766,1.637-3.766,4.266S123.46-19.673,125.708-19.673Zm0-.93c-1.621,0-2.693-1.239-2.693-3.337s1.072-3.337,2.693-3.337,2.7,1.239,2.7,3.337S127.329-20.6,125.708-20.6Zm9.2-7.6a3.021,3.021,0,0,0-2.844,1.883h-.032v-1.748h-.993v11h1.049v-4.433h.032a2.964,2.964,0,0,0,2.812,1.835c2.074,0,3.5-1.692,3.5-4.266S136.993-28.206,134.9-28.206Zm-.183,7.6c-1.565,0-2.638-1.343-2.638-3.337s1.073-3.337,2.638-3.337c1.6,0,2.63,1.327,2.63,3.337S136.318-20.6,134.721-20.6Zm5.343.794h1.049V-31.272h-1.049Zm8.806-2.344a2.237,2.237,0,0,1-2.344,1.557c-1.645,0-2.7-1.16-2.7-3.027v-.064h6.189v-.445c0-2.463-1.382-4.076-3.575-4.076-2.24,0-3.694,1.724-3.694,4.29,0,2.622,1.438,4.242,3.758,4.242a3.221,3.221,0,0,0,3.408-2.479Zm-2.447-5.132a2.536,2.536,0,0,1,2.51,2.765h-5.1A2.643,2.643,0,0,1,146.423-27.284Zm15.134-.787h-1.1l-2.518,7.158h-.024l-2.51-7.158H154.3l3.075,8.262h1.12Zm1.791-1.716a.7.7,0,0,0,.707-.7.7.7,0,0,0-.707-.7.7.7,0,0,0-.7.7A.7.7,0,0,0,163.348-29.787Zm-.524,9.978h1.049v-8.262h-1.049Zm8.806-2.344a2.237,2.237,0,0,1-2.344,1.557c-1.645,0-2.7-1.16-2.7-3.027v-.064h6.189v-.445c0-2.463-1.382-4.076-3.575-4.076-2.24,0-3.694,1.724-3.694,4.29,0,2.622,1.438,4.242,3.758,4.242a3.221,3.221,0,0,0,3.408-2.479Zm-2.447-5.132a2.536,2.536,0,0,1,2.51,2.765h-5.1A2.643,2.643,0,0,1,169.183-27.284Zm15.456-.787h-1.057l-1.851,7.086h-.024l-2.058-7.086h-1.065l-2.058,7.086H176.5l-1.851-7.086h-1.065l2.352,8.262h1.112l2.05-6.856h.024l2.058,6.856H182.3Zm6.939,5.919a2.237,2.237,0,0,1-2.344,1.557c-1.645,0-2.7-1.16-2.7-3.027v-.064h6.189v-.445c0-2.463-1.382-4.076-3.575-4.076-2.24,0-3.694,1.724-3.694,4.29,0,2.622,1.438,4.242,3.758,4.242a3.221,3.221,0,0,0,3.408-2.479Zm-2.447-5.132a2.536,2.536,0,0,1,2.51,2.765h-5.1A2.643,2.643,0,0,1,189.132-27.284Zm8.282,7.611a3.043,3.043,0,0,0,2.86-1.883h.024v1.748h1V-31.272h-1.057v4.9h-.024a2.986,2.986,0,0,0-2.828-1.835c-2.073,0-3.511,1.692-3.511,4.266S195.324-19.673,197.414-19.673Zm.183-7.6c1.573,0,2.653,1.343,2.653,3.337S199.17-20.6,197.6-20.6c-1.589,0-2.638-1.319-2.638-3.337S196.008-27.276,197.6-27.276Zm9.835,10.455c1.351,0,1.946-.54,2.669-2.487l3.249-8.763h-1.112l-2.51,7.214H209.7l-2.51-7.214h-1.128l3.09,8.318-.214.62c-.365,1.033-.779,1.414-1.541,1.414a2.3,2.3,0,0,1-.493-.048v.9A3.285,3.285,0,0,0,207.432-16.821Zm10.308-2.852c2.248,0,3.766-1.645,3.766-4.266s-1.517-4.266-3.766-4.266-3.766,1.637-3.766,4.266S215.491-19.673,217.739-19.673Zm0-.93c-1.621,0-2.693-1.239-2.693-3.337s1.072-3.337,2.693-3.337,2.7,1.239,2.7,3.337S219.36-20.6,217.739-20.6Zm11.952-7.468h-1.049v4.9a2.344,2.344,0,0,1-2.407,2.558,2.007,2.007,0,0,1-2.161-2.272v-5.188h-1.057v5.37a2.763,2.763,0,0,0,2.916,3.027,2.837,2.837,0,0,0,2.741-1.668h.024v1.533h.993Zm1.974,8.262h1.049v-5.148a1.982,1.982,0,0,1,1.923-2.248,2.126,2.126,0,0,1,.786.119v-1.033a2.726,2.726,0,0,0-.651-.087,2.1,2.1,0,0,0-2.089,1.6h-.024v-1.47h-.993Zm8.373-6.054c0,1.144.739,1.835,2.312,2.2l1.239.294c1.112.27,1.517.667,1.517,1.382,0,.866-.818,1.446-2.058,1.446a1.966,1.966,0,0,1-2.2-1.637H239.8c.143,1.509,1.382,2.5,3.249,2.5,1.8,0,3.114-.993,3.114-2.391,0-1.168-.62-1.8-2.272-2.2l-1.247-.294c-1.1-.262-1.565-.683-1.565-1.359,0-.826.771-1.422,1.9-1.422A1.858,1.858,0,0,1,245-25.68h1.009a2.75,2.75,0,0,0-3.035-2.526C241.254-28.206,240.039-27.229,240.039-25.862Zm8.147-4.274v2.066h-1.231v.874h1.231v5.355c0,1.494.556,2.081,1.938,2.081a6.563,6.563,0,0,0,.779-.048v-.9c-.064.016-.461.032-.572.032-.763,0-1.1-.365-1.1-1.216V-27.2h1.629v-.874h-1.629v-2.066Zm7.4,10.463c2.248,0,3.766-1.645,3.766-4.266s-1.517-4.266-3.766-4.266-3.766,1.637-3.766,4.266S253.338-19.673,255.586-19.673Zm0-.93c-1.621,0-2.693-1.239-2.693-3.337s1.072-3.337,2.693-3.337,2.7,1.239,2.7,3.337S257.207-20.6,255.586-20.6Zm5.327.794h1.049v-5.148a1.982,1.982,0,0,1,1.923-2.248,2.127,2.127,0,0,1,.786.119v-1.033a2.726,2.726,0,0,0-.651-.087,2.1,2.1,0,0,0-2.089,1.6h-.024v-1.47h-.993Zm5.644,2.987c1.35,0,1.946-.54,2.669-2.487l3.249-8.763h-1.112l-2.51,7.214h-.024l-2.51-7.214h-1.128l3.09,8.318-.214.62c-.365,1.033-.779,1.414-1.541,1.414a2.3,2.3,0,0,1-.493-.048v.9A3.286,3.286,0,0,0,266.557-16.821Zm6.852-2.916a.732.732,0,0,0,.739-.739.734.734,0,0,0-.739-.747.741.741,0,0,0-.747.747A.739.739,0,0,0,273.409-19.737Z" transform="translate(106.892 79.051)"/><rect class="c" width="81.933" height="81.839" transform="translate(0 0)"/><path class="d" d="M.393,0H.66V-2.123A1.149,1.149,0,0,1,1.818-3.37a1.021,1.021,0,0,1,1.094,1.1V0h.267V-2.3a1.22,1.22,0,0,0-1.3-1.306,1.242,1.242,0,0,0-1.23.827H.643v-.772H.393ZM5.7.055A1.616,1.616,0,0,0,7.285-1.777,1.616,1.616,0,0,0,5.7-3.609,1.613,1.613,0,0,0,4.117-1.777,1.613,1.613,0,0,0,5.7.055Zm0-.239c-.79,0-1.316-.6-1.316-1.593S4.91-3.37,5.7-3.37s1.319.6,1.319,1.593S6.489-.185,5.7-.185Zm6.854-3.37h-.28L11.364-.294h-.01l-.988-3.261h-.3L9.074-.294H9.067L8.155-3.555H7.878L8.91,0h.314l.984-3.213h.01L11.21,0h.308Z" transform="translate(382.943 25.297)"/><path class="e" d="M-3067.927-2172.364h32.673v32.673h-32.673Z" transform="translate(3093.469 2195.505)"/><g transform="translate(25.723 25.676)"><path class="b" d="M-3052.2-2162.771c4.071,0,4.552.015,6.159.088a8.438,8.438,0,0,1,2.831.525,4.715,4.715,0,0,1,1.752,1.14,4.714,4.714,0,0,1,1.141,1.752,8.442,8.442,0,0,1,.525,2.831c.073,1.607.089,2.089.089,6.16s-.015,4.552-.089,6.159a8.445,8.445,0,0,1-.525,2.831,4.716,4.716,0,0,1-1.141,1.752,4.715,4.715,0,0,1-1.752,1.141,8.441,8.441,0,0,1-2.831.525c-1.607.073-2.089.089-6.159.089s-4.553-.015-6.16-.089a8.439,8.439,0,0,1-2.831-.525,4.717,4.717,0,0,1-1.753-1.141,4.718,4.718,0,0,1-1.14-1.752,8.431,8.431,0,0,1-.525-2.831c-.073-1.608-.089-2.09-.089-6.16s.016-4.553.089-6.16a8.428,8.428,0,0,1,.525-2.831,4.716,4.716,0,0,1,1.14-1.752,4.717,4.717,0,0,1,1.753-1.14,8.436,8.436,0,0,1,2.831-.525c1.607-.073,2.089-.088,6.16-.088m0-2.747c-4.14,0-4.659.018-6.285.092a11.176,11.176,0,0,0-3.7.708,7.475,7.475,0,0,0-2.7,1.758,7.469,7.469,0,0,0-1.759,2.7,11.192,11.192,0,0,0-.708,3.7c-.074,1.626-.092,2.145-.092,6.285s.017,4.659.092,6.285a11.19,11.19,0,0,0,.708,3.7,7.471,7.471,0,0,0,1.759,2.7,7.47,7.47,0,0,0,2.7,1.759,11.194,11.194,0,0,0,3.7.708c1.626.074,2.145.092,6.285.092s4.659-.018,6.285-.092a11.2,11.2,0,0,0,3.7-.708,7.467,7.467,0,0,0,2.7-1.759,7.467,7.467,0,0,0,1.758-2.7,11.182,11.182,0,0,0,.709-3.7c.074-1.626.092-2.146.092-6.285s-.018-4.659-.092-6.285a11.184,11.184,0,0,0-.709-3.7,7.467,7.467,0,0,0-1.758-2.7,7.472,7.472,0,0,0-2.7-1.758,11.181,11.181,0,0,0-3.7-.708C-3047.536-2165.5-3048.055-2165.518-3052.2-2165.518Zm0,7.416a7.828,7.828,0,0,0-7.828,7.828,7.828,7.828,0,0,0,7.828,7.828,7.828,7.828,0,0,0,7.828-7.828A7.828,7.828,0,0,0-3052.2-2158.1Zm0,12.909a5.082,5.082,0,0,1-5.082-5.081,5.082,5.082,0,0,1,5.082-5.081,5.081,5.081,0,0,1,5.081,5.081A5.082,5.082,0,0,1-3052.2-2145.193Zm9.966-13.218a1.829,1.829,0,0,1-1.829,1.829,1.829,1.829,0,0,1-1.829-1.829,1.829,1.829,0,0,1,1.829-1.83A1.829,1.829,0,0,1-3042.229-2158.411Z" transform="translate(3067.439 2165.518)"/></g></g></svg>