<svg xmlns="http://www.w3.org/2000/svg" xmlns:xlink="http://www.w3.org/1999/xlink" width="453.3" height="305.2" viewBox="0 0 453.3 305.2"><defs><style>.a,.d{fill:#fff;}.a{stroke:#ff414f;stroke-width:7px;}.b{opacity:0.051;}.c{fill:#ff414f;}.e{fill:#797979;}.f{fill:#ffc917;}.g{fill:#f79c1d;}.h,.l{fill:#333;}.i{fill:#f7bb1d;}.j{fill:#4d4d4d;}.k{fill:none;}.l{fill-rule:evenodd;}.m{filter:url(#a);}</style><filter id="a" x="0" y="0" width="453.3" height="305.2" filterUnits="userSpaceOnUse"><feOffset dy="3" input="SourceAlpha"/><feGaussianBlur stdDeviation="5" result="b"/><feFlood flood-opacity="0.161"/><feComposite operator="in" in2="b"/><feComposite in="SourceGraphic"/></filter></defs><g transform="translate(0.843 0.5)"><g transform="translate(-12.043 -9)"><g class="m" transform="matrix(1, 0, 0, 1, 11.2, 8.5)"><path class="a" d="M0,0H416.3V268.2H0Z" transform="translate(18.5 15.5)"/></g></g><g class="b" transform="translate(4.758 5)"><rect class="c" width="388.8" height="30.7" transform="translate(26.9 101.9)"/><path class="c" d="M26.9,109.791,415.7,106.3V263.147H26.9Z"/></g><g transform="translate(34.657 114.201)"><rect class="d" width="168.525" height="64.257" rx="12" transform="translate(17.07)"/><path class="d" d="M6274.931-4676.449s.761,12.292-15.705,13.657c-6.076.5,9.714,5.6,16.466,7.068" transform="translate(-6257.861 4713.051)"/></g><g transform="translate(33.657 183.999)"><rect class="d" width="124.525" height="35.459" rx="12" transform="translate(17.07)"/><path class="d" d="M6274.931-4676.449s.761,12.292-15.705,13.657c-6.076.5,9.714,5.6,16.466,7.068" transform="translate(-6256.861 4684.252)"/><path d="M59.271-29.278h.064l2.82,9.6h1l3.162-11.464H65.182l-2.518,9.8h-.056l-2.765-9.8h-1.08l-2.773,9.8h-.048l-2.526-9.8H52.288l3.154,11.464h1.009Zm8.326,9.6h1.057v-4.862a2.378,2.378,0,0,1,2.447-2.6,2.061,2.061,0,0,1,2.2,2.3v5.164h1.057v-5.339A2.814,2.814,0,0,0,71.4-28.071a2.785,2.785,0,0,0-2.725,1.66h-.024v-4.727H67.6Zm10.971.135a3.078,3.078,0,0,0,2.82-1.708h.024v1.573h1V-25.33c0-1.684-1.184-2.741-3.067-2.741s-3.1,1.049-3.218,2.526h1.017a1.974,1.974,0,0,1,2.177-1.6,1.814,1.814,0,0,1,2.042,1.907v.715l-2.574.159c-1.907.127-2.963.985-2.963,2.4A2.465,2.465,0,0,0,78.568-19.538Zm.215-.906c-1.12,0-1.891-.62-1.891-1.517,0-.914.723-1.478,2.026-1.565l2.447-.167v.914A2.442,2.442,0,0,1,78.783-20.444ZM84.63-30v2.066H83.4v.874H84.63v5.355c0,1.494.556,2.081,1.938,2.081a6.562,6.562,0,0,0,.779-.048v-.9c-.064.016-.461.032-.572.032-.763,0-1.1-.365-1.1-1.216v-5.307h1.629v-.874H85.679V-30Zm5.029,2.685,1-3.821H89.54l-.763,3.821Zm1.486,1.589c0,1.144.739,1.835,2.312,2.2l1.239.294c1.112.27,1.517.667,1.517,1.382,0,.866-.818,1.446-2.058,1.446a1.966,1.966,0,0,1-2.2-1.637H90.906c.143,1.509,1.382,2.5,3.249,2.5,1.8,0,3.114-.993,3.114-2.391,0-1.168-.62-1.8-2.272-2.2l-1.247-.294c-1.1-.262-1.565-.683-1.565-1.359,0-.826.771-1.422,1.9-1.422a1.858,1.858,0,0,1,2.026,1.66h1.009a2.75,2.75,0,0,0-3.035-2.526C92.36-28.071,91.144-27.094,91.144-25.727Zm17.486-2.209h-1.049v4.9a2.344,2.344,0,0,1-2.407,2.558,2.007,2.007,0,0,1-2.161-2.272v-5.188h-1.057v5.37a2.763,2.763,0,0,0,2.916,3.027,2.837,2.837,0,0,0,2.741-1.668h.024v1.533h.993Zm5.68-.135a3.021,3.021,0,0,0-2.844,1.883h-.032v-1.748h-.993v11h1.049v-4.433h.032a2.964,2.964,0,0,0,2.812,1.835c2.074,0,3.5-1.692,3.5-4.266S116.4-28.071,114.311-28.071Zm-.183,7.6c-1.565,0-2.638-1.343-2.638-3.337s1.072-3.337,2.638-3.337c1.6,0,2.63,1.327,2.63,3.337S115.725-20.468,114.128-20.468Zm4.663-7.778h1.033a2.128,2.128,0,0,1,2.256-2.05,1.993,1.993,0,0,1,2.177,1.946c0,.858-.389,1.414-1.382,2.074a2.7,2.7,0,0,0-1.565,2.439v.747h1.057v-.6c0-.882.294-1.335,1.335-2a3.093,3.093,0,0,0,1.676-2.709,2.971,2.971,0,0,0-3.257-2.844A3.091,3.091,0,0,0,118.791-28.246ZM121.85-19.6a.734.734,0,0,0,.747-.739.736.736,0,0,0-.747-.747.734.734,0,0,0-.739.747A.732.732,0,0,0,121.85-19.6Z" transform="translate(-17.699 42.327)"/></g><g transform="translate(33.657 224.999)"><rect class="d" width="69.525" height="35.459" rx="12" transform="translate(17.07)"/><path class="d" d="M6274.931-4676.449s.761,12.292-15.705,13.657c-6.076.5,9.714,5.6,16.466,7.068" transform="translate(-6256.861 4684.252)"/><circle class="e" cx="3.897" cy="3.897" r="3.897" transform="translate(35 14.207)"/><circle class="e" cx="3.897" cy="3.897" r="3.897" transform="translate(49.171 14.207)"/><circle class="e" cx="3.897" cy="3.897" r="3.897" transform="translate(63.343 14.207)"/></g><g transform="translate(176.195 1901.589)"><g transform="translate(-58.859 -1775.489)"><circle class="f" cx="20.289" cy="20.289" r="20.289" transform="translate(0 0)"/></g><g transform="translate(-48.009 -1748.66)"><path class="g" d="M137.59-1352.336c.4.178.8.342,1.2.5s.79.3,1.182.444c.786.278,1.569.521,2.351.722a19.2,19.2,0,0,0,4.692.635c.2,0,.39,0,.586-.006l.293-.011c.1,0,.195-.013.292-.018.39-.026.78-.061,1.169-.116s.779-.115,1.167-.2c.2-.035.388-.084.584-.125l.291-.072.146-.035.146-.039.292-.078.291-.085.147-.041.145-.046.293-.09c.388-.128.781-.259,1.171-.406l.295-.108c.1-.038.195-.077.294-.114.2-.071.392-.157.593-.233.1-.037.2-.081.3-.121l.3-.121c.2-.081.4-.167.61-.243-.132.177-.271.348-.414.516s-.293.329-.45.483-.314.311-.479.457c-.082.075-.165.147-.249.22s-.171.14-.257.21a12.185,12.185,0,0,1-1.086.778,12,12,0,0,1-1.178.655c-.2.1-.411.188-.618.281l-.317.125q-.158.064-.32.118a11.526,11.526,0,0,1-1.315.38,11.718,11.718,0,0,1-1.356.227c-.114.011-.228.024-.343.032l-.344.023c-.23.008-.459.017-.689.015a12.242,12.242,0,0,1-2.723-.323,12.472,12.472,0,0,1-2.56-.9,12.368,12.368,0,0,1-2.277-1.406,10.95,10.95,0,0,1-1-.88A6.974,6.974,0,0,1,137.59-1352.336Z" transform="translate(-137.59 1352.336)"/></g><g transform="translate(-54.664 -1762.993)"><path class="h" d="M3,0h8.323a3,3,0,0,1,3,3v.145a7.162,7.162,0,0,1-7.162,7.162h0A7.162,7.162,0,0,1,0,3.146V3A3,3,0,0,1,3,0Z" transform="translate(0.507 0.507)"/><path class="h" d="M40.82-1567.082H39.749a7.142,7.142,0,0,1-7.134-7.134v-.9A3.287,3.287,0,0,1,35.9-1578.4H44.67a3.287,3.287,0,0,1,3.283,3.283v.9A7.142,7.142,0,0,1,40.82-1567.082ZM35.9-1577.39a2.272,2.272,0,0,0-2.269,2.269v.9a6.127,6.127,0,0,0,6.12,6.12H40.82a6.127,6.127,0,0,0,6.12-6.12v-.9a2.272,2.272,0,0,0-2.269-2.269Z" transform="translate(-32.615 1578.404)"/></g><g transform="translate(-37.92 -1762.993)"><path class="h" d="M3,0h8.323a3,3,0,0,1,3,3v.145a7.162,7.162,0,0,1-7.162,7.162h0A7.162,7.162,0,0,1,0,3.146V3A3,3,0,0,1,3,0Z" transform="translate(0.507 0.507)"/><path class="h" d="M304.913-1567.082h-1.071a7.142,7.142,0,0,1-7.134-7.134v-.9a3.287,3.287,0,0,1,3.283-3.283h8.772a3.287,3.287,0,0,1,3.284,3.283v.9A7.142,7.142,0,0,1,304.913-1567.082Zm-4.921-10.308a2.272,2.272,0,0,0-2.269,2.269v.9a6.127,6.127,0,0,0,6.12,6.12h1.071a6.127,6.127,0,0,0,6.12-6.12v-.9a2.272,2.272,0,0,0-2.269-2.269Z" transform="translate(-296.708 1578.404)"/></g><g transform="translate(-56.838 -1763.48)"><path class="h" d="M16.614-1581.794l-.106-.006-17.132-1.047a1.11,1.11,0,0,1-1.04-1.175,1.111,1.111,0,0,1,1.175-1.04l17.026,1.041,15.763-2.052a1.109,1.109,0,0,1,1.244.957,1.11,1.11,0,0,1-.957,1.244Z" transform="translate(1.666 1586.083)"/></g><g transform="translate(-101.82 -1774.776)"><g transform="translate(20.265)"><rect class="f" width="4.97" height="26.575" rx="2.485" transform="translate(0 0)"/></g><g transform="translate(15.2 21.008)"><path class="f" d="M302.965-794.022h0a2.492,2.492,0,0,1,.91-3.395l16.917-9.96a2.492,2.492,0,0,1,3.395.91h0a2.492,2.492,0,0,1-.91,3.395l-16.917,9.959A2.492,2.492,0,0,1,302.965-794.022Z" transform="translate(-302.634 807.707)"/></g><g transform="translate(0 5.636)"><rect class="f" width="4.97" height="17.217" rx="2.485" transform="translate(0 1.489) rotate(-17.435)"/></g><g transform="translate(3.243 18.607)"><path class="f" d="M114.555-845.581s-3.617,19.269,8.467,21.078,13.018-8.473,18.589-10.942c1.6-.709.015-5.747-2.519-4.284-2.017,1.165-3.113-.947-3.1-2.276" transform="translate(-114.048 845.581)"/></g><g transform="translate(7.918 12.431)"><rect class="i" width="5.584" height="11.795" rx="2.792" transform="matrix(0.994, -0.113, 0.113, 0.994, 0, 0.633)"/></g><g transform="translate(13.764 12.048)"><rect class="i" width="5.809" height="12.269" rx="2.904" transform="matrix(0.998, -0.065, 0.065, 0.998, 0, 0.379)"/></g></g><g transform="translate(-11.219 -1774.776)"><g transform="translate(11.847 0)"><rect class="f" width="4.97" height="26.575" rx="2.485"/></g><g transform="translate(0 21.008)"><path class="f" d="M324.186-794.022h0a2.492,2.492,0,0,0-.91-3.395l-16.917-9.96a2.492,2.492,0,0,0-3.395.91h0a2.492,2.492,0,0,0,.91,3.395l16.917,9.959A2.492,2.492,0,0,0,324.186-794.022Z" transform="translate(-302.634 807.707)"/></g><g transform="translate(27.183 5.636)"><rect class="f" width="4.97" height="17.217" rx="2.485" transform="translate(4.742 17.915) rotate(-162.565)"/></g><g transform="translate(5.632 18.607)"><path class="f" d="M141.748-845.581s3.617,19.269-8.467,21.078-13.018-8.473-18.589-10.942c-1.6-.709-.015-5.747,2.519-4.284,2.017,1.165,3.113-.947,3.1-2.276" transform="translate(-114.048 845.581)"/></g><g transform="translate(22.28 12.431)"><rect class="i" width="5.584" height="11.795" rx="2.792" transform="matrix(-0.994, -0.113, 0.113, -0.994, 5.548, 12.352)"/></g><g transform="translate(16.721 12.048)"><rect class="i" width="5.809" height="12.269" rx="2.904" transform="translate(5.796 12.622) rotate(-176.254)"/></g></g></g><g transform="translate(15.098 12.41)"><path class="h" d="M9.6-31.235H9.68l2.488,8.952h2.588l3.477-13.1H15.391L13.321-25.9h-.073L10.8-35.385H8.481L6.03-25.9H5.957L3.9-35.385H1.054l3.468,13.1H7.11Zm9.942,8.952h2.651V-27.84A1.942,1.942,0,0,1,24.18-30C25.387-30,26-29.238,26-27.985v5.7h2.651v-6.265c0-2.252-1.235-3.65-3.4-3.65a3.091,3.091,0,0,0-3.06,1.916h-.054v-5.1H19.54Zm13.692.154A3.348,3.348,0,0,0,36.2-23.772h.054v1.489h2.56v-6.692c0-1.961-1.625-3.25-4.122-3.25-2.579,0-4.186,1.3-4.285,3.187h2.424a1.578,1.578,0,0,1,1.743-1.208c1,0,1.634.527,1.634,1.435v.645l-2.451.145c-2.424.145-3.786,1.171-3.786,2.942A3.01,3.01,0,0,0,33.232-22.129Zm.872-1.916c-.9,0-1.5-.454-1.5-1.18,0-.69.563-1.135,1.553-1.208l2.052-.127v.708A1.944,1.944,0,0,1,34.1-24.045Zm7.127-10.214v2.243H39.86v2h1.371v5.112c0,1.9.89,2.66,3.178,2.66a6.1,6.1,0,0,0,1.262-.109v-1.952a4.291,4.291,0,0,1-.645.045c-.781,0-1.144-.354-1.144-1.1v-4.658h1.8v-2h-1.8v-2.243Zm5.738,5.1c0,1.462.953,2.406,2.833,2.806l1.662.345c.953.218,1.289.508,1.289,1.026,0,.636-.617,1.044-1.616,1.044a1.608,1.608,0,0,1-1.825-1.307H46.724c.173,1.916,1.725,3.169,4.413,3.169,2.506,0,4.258-1.262,4.258-3.178,0-1.425-.835-2.224-2.869-2.651l-1.662-.354c-.981-.209-1.344-.545-1.344-1.044,0-.645.608-1.062,1.525-1.062A1.485,1.485,0,0,1,52.7-29.038h2.442c-.054-1.907-1.6-3.187-4.095-3.187C48.567-32.225,46.969-31.008,46.969-29.156Zm12.62,7.027a3.348,3.348,0,0,0,2.969-1.643h.054v1.489h2.56v-6.692c0-1.961-1.625-3.25-4.122-3.25-2.579,0-4.186,1.3-4.285,3.187H59.19a1.578,1.578,0,0,1,1.743-1.208c1,0,1.634.527,1.634,1.435v.645l-2.451.145c-2.424.145-3.786,1.171-3.786,2.942A3.01,3.01,0,0,0,59.59-22.129Zm.872-1.916c-.9,0-1.5-.454-1.5-1.18,0-.69.563-1.135,1.553-1.208l2.052-.127v.708A1.944,1.944,0,0,1,60.461-24.045Zm12.1-8.126a3.173,3.173,0,0,0-3.014,1.852H69.5v-1.7H66.88v12.911h2.651v-4.812h.054a3.189,3.189,0,0,0,3.023,1.789c2.433,0,3.94-1.889,3.94-5.021S75.034-32.171,72.564-32.171Zm-.89,7.908c-1.3,0-2.152-1.126-2.152-2.887,0-1.743.853-2.9,2.152-2.9,1.326,0,2.161,1.135,2.161,2.9S73-24.262,71.674-24.262ZM83.6-32.171a3.173,3.173,0,0,0-3.014,1.852h-.054v-1.7H77.912v12.911h2.651v-4.812h.054a3.189,3.189,0,0,0,3.023,1.789c2.433,0,3.94-1.889,3.94-5.021S86.065-32.171,83.6-32.171Zm-.89,7.908c-1.3,0-2.152-1.126-2.152-2.887,0-1.743.853-2.9,2.152-2.9,1.326,0,2.161,1.135,2.161,2.9S84.031-24.262,82.706-24.262Z" transform="translate(107.71 56.61)"/><path d="M5.685-19.673V-30.152h3.79v-.985H.815v.985H4.6v10.479Zm6.324.135c2.248,0,3.766-1.645,3.766-4.266s-1.517-4.266-3.766-4.266S8.243-26.434,8.243-23.8,9.761-19.538,12.009-19.538Zm0-.93c-1.621,0-2.693-1.239-2.693-3.337s1.073-3.337,2.693-3.337,2.7,1.239,2.7,3.337S13.63-20.468,12.009-20.468Zm5.164.794h1.049V-24.75a2.16,2.16,0,0,1,2.089-2.383A1.815,1.815,0,0,1,22.2-25.179v5.506h1.057v-5.2a2.074,2.074,0,0,1,2.066-2.256,1.826,1.826,0,0,1,1.915,2.05v5.41h1.049v-5.649a2.545,2.545,0,0,0-2.669-2.749,2.72,2.72,0,0,0-2.606,1.74h-.024a2.384,2.384,0,0,0-2.391-1.74,2.471,2.471,0,0,0-2.407,1.66h-.024v-1.525h-.993Zm15.325.135a3.078,3.078,0,0,0,2.82-1.708h.024v1.573h1V-25.33c0-1.684-1.184-2.741-3.067-2.741s-3.1,1.049-3.218,2.526h1.017a1.974,1.974,0,0,1,2.177-1.6,1.814,1.814,0,0,1,2.042,1.907v.715l-2.574.159c-1.907.127-2.963.985-2.963,2.4A2.465,2.465,0,0,0,32.5-19.538Zm.215-.906c-1.12,0-1.891-.62-1.891-1.517,0-.914.723-1.478,2.026-1.565l2.447-.167v.914A2.442,2.442,0,0,1,32.713-20.444Zm5.227-5.283c0,1.144.739,1.835,2.312,2.2l1.239.294c1.112.27,1.517.667,1.517,1.382,0,.866-.818,1.446-2.058,1.446a1.966,1.966,0,0,1-2.2-1.637H37.7c.143,1.509,1.382,2.5,3.249,2.5,1.8,0,3.114-.993,3.114-2.391,0-1.168-.62-1.8-2.272-2.2l-1.247-.294c-1.1-.262-1.565-.683-1.565-1.359,0-.826.771-1.422,1.9-1.422a1.858,1.858,0,0,1,2.026,1.66h1.009a2.75,2.75,0,0,0-3.035-2.526C39.156-28.071,37.94-27.094,37.94-25.727Zm8.652-.6a.732.732,0,0,0,.739-.739.734.734,0,0,0-.739-.747.741.741,0,0,0-.747.747A.739.739,0,0,0,46.592-26.323Zm0,6.721a.732.732,0,0,0,.739-.739.734.734,0,0,0-.739-.747.741.741,0,0,0-.747.747A.739.739,0,0,0,46.592-19.6Zm12.679-9.676h.064l2.82,9.6h1l3.162-11.464H65.182l-2.518,9.8h-.056l-2.765-9.8h-1.08l-2.773,9.8h-.048l-2.526-9.8H52.288l3.154,11.464h1.009Zm8.326,9.6h1.057v-4.862a2.378,2.378,0,0,1,2.447-2.6,2.061,2.061,0,0,1,2.2,2.3v5.164h1.057v-5.339A2.814,2.814,0,0,0,71.4-28.071a2.785,2.785,0,0,0-2.725,1.66h-.024v-4.727H67.6Zm10.971.135a3.078,3.078,0,0,0,2.82-1.708h.024v1.573h1V-25.33c0-1.684-1.184-2.741-3.067-2.741s-3.1,1.049-3.218,2.526h1.017a1.974,1.974,0,0,1,2.177-1.6,1.814,1.814,0,0,1,2.042,1.907v.715l-2.574.159c-1.907.127-2.963.985-2.963,2.4A2.465,2.465,0,0,0,78.568-19.538Zm.215-.906c-1.12,0-1.891-.62-1.891-1.517,0-.914.723-1.478,2.026-1.565l2.447-.167v.914A2.442,2.442,0,0,1,78.783-20.444ZM84.63-30v2.066H83.4v.874H84.63v5.355c0,1.494.556,2.081,1.938,2.081a6.562,6.562,0,0,0,.779-.048v-.9c-.064.016-.461.032-.572.032-.763,0-1.1-.365-1.1-1.216v-5.307h1.629v-.874H85.679V-30Zm5.029,2.685,1-3.821H89.54l-.763,3.821Zm1.486,1.589c0,1.144.739,1.835,2.312,2.2l1.239.294c1.112.27,1.517.667,1.517,1.382,0,.866-.818,1.446-2.058,1.446a1.966,1.966,0,0,1-2.2-1.637H90.906c.143,1.509,1.382,2.5,3.249,2.5,1.8,0,3.114-.993,3.114-2.391,0-1.168-.62-1.8-2.272-2.2l-1.247-.294c-1.1-.262-1.565-.683-1.565-1.359,0-.826.771-1.422,1.9-1.422a1.858,1.858,0,0,1,2.026,1.66h1.009a2.75,2.75,0,0,0-3.035-2.526C92.36-28.071,91.144-27.094,91.144-25.727Zm17.486-2.209h-1.049v4.9a2.344,2.344,0,0,1-2.407,2.558,2.007,2.007,0,0,1-2.161-2.272v-5.188h-1.057v5.37a2.763,2.763,0,0,0,2.916,3.027,2.837,2.837,0,0,0,2.741-1.668h.024v1.533h.993Zm5.68-.135a3.021,3.021,0,0,0-2.844,1.883h-.032v-1.748h-.993v11h1.049v-4.433h.032a2.964,2.964,0,0,0,2.812,1.835c2.074,0,3.5-1.692,3.5-4.266S116.4-28.071,114.311-28.071Zm-.183,7.6c-1.565,0-2.638-1.343-2.638-3.337s1.072-3.337,2.638-3.337c1.6,0,2.63,1.327,2.63,3.337S115.725-20.468,114.128-20.468Zm4.663-7.778h1.033a2.128,2.128,0,0,1,2.256-2.05,1.993,1.993,0,0,1,2.177,1.946c0,.858-.389,1.414-1.382,2.074a2.7,2.7,0,0,0-1.565,2.439v.747h1.057v-.6c0-.882.294-1.335,1.335-2a3.093,3.093,0,0,0,1.676-2.709,2.971,2.971,0,0,0-3.257-2.844A3.091,3.091,0,0,0,118.791-28.246ZM121.85-19.6a.734.734,0,0,0,.747-.739.736.736,0,0,0-.747-.747.734.734,0,0,0-.739.747A.732.732,0,0,0,121.85-19.6Z" transform="translate(107.86 78.916)"/><rect class="c" width="81.933" height="81.839" transform="translate(0 0)"/><path class="j" d="M.393,0H.66V-2.123A1.149,1.149,0,0,1,1.818-3.37a1.021,1.021,0,0,1,1.094,1.1V0h.267V-2.3a1.22,1.22,0,0,0-1.3-1.306,1.242,1.242,0,0,0-1.23.827H.643v-.772H.393ZM5.7.055A1.616,1.616,0,0,0,7.285-1.777,1.616,1.616,0,0,0,5.7-3.609,1.613,1.613,0,0,0,4.117-1.777,1.613,1.613,0,0,0,5.7.055Zm0-.239c-.79,0-1.316-.6-1.316-1.593S4.91-3.37,5.7-3.37s1.319.6,1.319,1.593S6.489-.185,5.7-.185Zm6.854-3.37h-.28L11.364-.294h-.01l-.988-3.261h-.3L9.074-.294H9.067L8.155-3.555H7.878L8.91,0h.314l.984-3.213h.01L11.21,0h.308Z" transform="translate(382.943 25.297)"/><path class="k" d="M-3067.115-3360.732h29.4v29.4h-29.4Z" transform="translate(3092.615 3386.95)"/><path class="l" d="M-3037.22-3350.006a11.843,11.843,0,0,0-8.432-3.494,11.933,11.933,0,0,0-11.919,11.915,11.891,11.891,0,0,0,1.591,5.958l-1.691,6.174,6.319-1.657a11.913,11.913,0,0,0,5.7,1.45h.005a11.934,11.934,0,0,0,11.919-11.915,11.841,11.841,0,0,0-3.488-8.43m-8.431,18.333h0a9.893,9.893,0,0,1-5.042-1.38l-.362-.215-3.749.984,1-3.655-.236-.375a9.874,9.874,0,0,1-1.514-5.271,9.919,9.919,0,0,1,9.911-9.9,9.844,9.844,0,0,1,7,2.9,9.844,9.844,0,0,1,2.9,7.007,9.919,9.919,0,0,1-9.907,9.9m5.434-7.417c-.3-.149-1.762-.869-2.035-.969s-.472-.149-.67.149-.769.969-.943,1.167-.347.224-.646.075a8.159,8.159,0,0,1-2.395-1.478,8.981,8.981,0,0,1-1.657-2.063c-.173-.3-.019-.459.131-.608.134-.133.3-.347.447-.521a2.032,2.032,0,0,0,.3-.5.549.549,0,0,0-.025-.522c-.075-.149-.67-1.614-.918-2.21-.242-.581-.487-.5-.67-.511s-.373-.01-.571-.01a1.094,1.094,0,0,0-.794.373,3.337,3.337,0,0,0-1.042,2.483,5.792,5.792,0,0,0,1.216,3.08,13.277,13.277,0,0,0,5.087,4.5,17.021,17.021,0,0,0,1.7.627,4.08,4.08,0,0,0,1.875.118,3.068,3.068,0,0,0,2.011-1.416,2.489,2.489,0,0,0,.173-1.416c-.074-.125-.273-.2-.571-.348" transform="translate(3086.667 3382.396)"/></g></g></svg>