<svg xmlns="http://www.w3.org/2000/svg" xmlns:xlink="http://www.w3.org/1999/xlink" width="446.295" height="111.839" viewBox="0 0 446.295 111.839"><defs><style>.a{fill:#fff;}.b{fill:#333;}.c{fill:#ff414f;}.d{fill:#4d4d4d;}.e{fill:none;}.f{filter:url(#a);}</style><filter id="a" x="0" y="0" width="446.295" height="111.839" filterUnits="userSpaceOnUse"><feOffset dy="3" input="SourceAlpha"/><feGaussianBlur stdDeviation="5" result="b"/><feFlood flood-opacity="0.349"/><feComposite operator="in" in2="b"/><feComposite in="SourceGraphic"/></filter></defs><g transform="translate(14.657 12)"><g class="f" transform="matrix(1, 0, 0, 1, -14.66, -12)"><rect class="a" width="416.295" height="81.839" transform="translate(15 12)"/></g><path class="b" d="M5.685-22.283V-27.44h5.33v-2.17H5.685v-3.514h5.838v-2.261H2.943v13.1Zm9.706.154a3.348,3.348,0,0,0,2.969-1.643h.054v1.489h2.56v-6.692c0-1.961-1.625-3.25-4.122-3.25-2.579,0-4.186,1.3-4.285,3.187h2.424a1.578,1.578,0,0,1,1.743-1.208c1,0,1.634.527,1.634,1.435v.645l-2.451.145c-2.424.145-3.786,1.171-3.786,2.942A3.01,3.01,0,0,0,15.391-22.129Zm.872-1.916c-.9,0-1.5-.454-1.5-1.18,0-.69.563-1.135,1.553-1.208l2.052-.127v.708A1.944,1.944,0,0,1,16.262-24.045Zm15.263-4.349c-.118-2.206-1.789-3.832-4.422-3.832-2.914,0-4.776,1.943-4.776,5.066,0,3.178,1.861,5.084,4.794,5.084,2.56,0,4.276-1.48,4.413-3.777h-2.47a1.831,1.831,0,0,1-1.916,1.7c-1.317,0-2.134-1.09-2.134-3.005,0-1.879.817-2.987,2.125-2.987a1.887,1.887,0,0,1,1.925,1.752Zm7.736,3.132A1.938,1.938,0,0,1,37.3-24.035a2.165,2.165,0,0,1-2.234-2.342v-.163h6.71v-.808c0-2.96-1.789-4.876-4.621-4.876-2.878,0-4.694,2.016-4.694,5.121s1.8,5.03,4.794,5.03c2.406,0,4.149-1.28,4.44-3.187Zm-2.079-5a2.02,2.02,0,0,1,2.043,2.1H35.093A2.107,2.107,0,0,1,37.181-30.264Zm11.74,8.135c2.451,0,3.95-1.889,3.95-5.021s-1.507-5.021-3.959-5.021a3.165,3.165,0,0,0-3.005,1.843h-.054v-5.057H43.2v13.1h2.615v-1.671h.054A3.209,3.209,0,0,0,48.921-22.129ZM48-30.046c1.317,0,2.152,1.126,2.152,2.9S49.329-24.262,48-24.262c-1.289,0-2.161-1.126-2.161-2.887C45.843-28.893,46.724-30.046,48-30.046Zm10.7,7.972c2.942,0,4.821-1.879,4.821-5.084,0-3.16-1.907-5.066-4.821-5.066s-4.821,1.916-4.821,5.066C53.887-23.963,55.767-22.074,58.709-22.074Zm0-2.025c-1.307,0-2.134-1.1-2.134-3.051,0-1.934.844-3.051,2.134-3.051s2.125,1.117,2.125,3.051C60.833-25.2,60.007-24.1,58.709-24.1Zm10.65,2.025c2.942,0,4.821-1.879,4.821-5.084,0-3.16-1.907-5.066-4.821-5.066s-4.821,1.916-4.821,5.066C64.538-23.963,66.417-22.074,69.359-22.074Zm0-2.025c-1.307,0-2.134-1.1-2.134-3.051,0-1.934.844-3.051,2.134-3.051s2.125,1.117,2.125,3.051C71.483-25.2,70.657-24.1,69.359-24.1Zm8.934-4.013h-.036v-7.273H75.605v13.1h2.651V-25.5l.69-.745,2.787,3.959h3.051l-3.9-5.557L84.6-32.016H81.6Z" transform="translate(106.521 56.61)"/><path d="M13.939-19.538V-31H12.684L8.442-20.921H8.394L4.144-31H2.9v11.464H3.914v-9.406h.048l3.98,9.406h.945l3.988-9.406h.048v9.406Zm4.211.135a3.078,3.078,0,0,0,2.82-1.708h.024v1.573h1v-5.656c0-1.684-1.184-2.741-3.067-2.741s-3.1,1.049-3.218,2.526h1.017a1.974,1.974,0,0,1,2.177-1.6A1.814,1.814,0,0,1,20.947-25.1v.715l-2.574.159c-1.907.127-2.963.985-2.963,2.4A2.465,2.465,0,0,0,18.15-19.4Zm.215-.906c-1.12,0-1.891-.62-1.891-1.517,0-.914.723-1.478,2.026-1.565l2.447-.167v.914A2.442,2.442,0,0,1,18.365-20.309Zm5.99,3.758c1.351,0,1.946-.54,2.669-2.487L30.273-27.8H29.161l-2.51,7.214h-.024L24.116-27.8H22.988l3.09,8.318-.215.62c-.365,1.033-.779,1.414-1.541,1.414a2.3,2.3,0,0,1-.493-.048v.9A3.286,3.286,0,0,0,24.355-16.551ZM33.578-19.4a3.078,3.078,0,0,0,2.82-1.708h.024v1.573h1v-5.656c0-1.684-1.184-2.741-3.067-2.741s-3.1,1.049-3.218,2.526h1.017a1.974,1.974,0,0,1,2.177-1.6A1.814,1.814,0,0,1,36.375-25.1v.715l-2.574.159c-1.907.127-2.963.985-2.963,2.4A2.465,2.465,0,0,0,33.578-19.4Zm.215-.906c-1.12,0-1.891-.62-1.891-1.517,0-.914.723-1.478,2.026-1.565l2.447-.167v.914A2.442,2.442,0,0,1,33.793-20.309ZM52.812-27.8H51.755L49.9-20.714H49.88L47.823-27.8H46.758L44.7-20.714h-.024L42.826-27.8H41.761l2.352,8.262h1.112l2.05-6.856H47.3l2.058,6.856h1.112Zm3.353,8.4a3.078,3.078,0,0,0,2.82-1.708h.024v1.573h1v-5.656c0-1.684-1.184-2.741-3.067-2.741s-3.1,1.049-3.218,2.526h1.017a1.974,1.974,0,0,1,2.177-1.6A1.814,1.814,0,0,1,58.961-25.1v.715l-2.574.159c-1.907.127-2.963.985-2.963,2.4A2.465,2.465,0,0,0,56.165-19.4Zm.215-.906c-1.12,0-1.891-.62-1.891-1.517,0-.914.723-1.478,2.026-1.565l2.447-.167v.914A2.442,2.442,0,0,1,56.379-20.309Zm5.394.771h1.049v-4.894A2.352,2.352,0,0,1,65.213-27a2.026,2.026,0,0,1,2.177,2.272v5.188h1.049v-5.355a2.766,2.766,0,0,0-2.924-3.043,2.793,2.793,0,0,0-2.725,1.66h-.024V-27.8h-.993Zm8.89-10.328V-27.8H69.432v.874h1.231v5.355c0,1.494.556,2.081,1.938,2.081a6.564,6.564,0,0,0,.779-.048v-.9c-.064.016-.461.032-.572.032-.763,0-1.1-.365-1.1-1.216v-5.307h1.629V-27.8H71.712v-2.066Zm4,4.274c0,1.144.739,1.835,2.312,2.2l1.239.294c1.112.27,1.517.667,1.517,1.382,0,.866-.818,1.446-2.058,1.446a1.966,1.966,0,0,1-2.2-1.637H74.429c.143,1.509,1.382,2.5,3.249,2.5,1.8,0,3.114-.993,3.114-2.391,0-1.168-.62-1.8-2.272-2.2l-1.247-.294c-1.1-.262-1.565-.683-1.565-1.359,0-.826.771-1.422,1.9-1.422a1.858,1.858,0,0,1,2.026,1.66h1.009a2.75,2.75,0,0,0-3.035-2.526C75.883-27.936,74.667-26.958,74.667-25.592ZM85.98-29.866V-27.8H84.749v.874H85.98v5.355c0,1.494.556,2.081,1.938,2.081a6.563,6.563,0,0,0,.779-.048v-.9c-.064.016-.461.032-.572.032-.763,0-1.1-.365-1.1-1.216v-5.307h1.629V-27.8H87.029v-2.066ZM93.218-19.4c2.248,0,3.766-1.645,3.766-4.266s-1.517-4.266-3.766-4.266-3.766,1.637-3.766,4.266S90.969-19.4,93.218-19.4Zm0-.93c-1.621,0-2.693-1.239-2.693-3.337s1.073-3.337,2.693-3.337,2.7,1.239,2.7,3.337S94.838-20.333,93.218-20.333Zm12.465.93c2.081,0,3.5-1.692,3.5-4.266s-1.414-4.266-3.488-4.266a2.984,2.984,0,0,0-2.828,1.859h-.024V-31h-1.057v11.464h1.009v-1.748h.024A3.024,3.024,0,0,0,105.683-19.4Zm-.2-7.6c1.589,0,2.614,1.319,2.614,3.337s-1.025,3.337-2.614,3.337c-1.557,0-2.653-1.351-2.653-3.337S103.935-27.006,105.484-27.006ZM116.3-21.882a2.237,2.237,0,0,1-2.344,1.557c-1.645,0-2.7-1.16-2.7-3.027v-.064h6.189v-.445c0-2.463-1.382-4.076-3.575-4.076-2.24,0-3.694,1.724-3.694,4.29,0,2.622,1.438,4.242,3.758,4.242a3.221,3.221,0,0,0,3.408-2.479Zm-2.447-5.132a2.536,2.536,0,0,1,2.51,2.765h-5.1A2.643,2.643,0,0,1,113.85-27.014Zm8.922,10.463c1.351,0,1.946-.54,2.669-2.487L128.69-27.8h-1.112l-2.51,7.214h-.024l-2.51-7.214H121.4l3.09,8.318-.215.62c-.365,1.033-.779,1.414-1.541,1.414a2.3,2.3,0,0,1-.493-.048v.9A3.286,3.286,0,0,0,122.771-16.551ZM132.916-19.4c2.248,0,3.766-1.645,3.766-4.266s-1.517-4.266-3.766-4.266-3.766,1.637-3.766,4.266S130.668-19.4,132.916-19.4Zm0-.93c-1.621,0-2.693-1.239-2.693-3.337s1.073-3.337,2.693-3.337,2.7,1.239,2.7,3.337S134.537-20.333,132.916-20.333Zm11.79-7.468h-1.049v4.9a2.344,2.344,0,0,1-2.407,2.558,2.007,2.007,0,0,1-2.161-2.272V-27.8h-1.057v5.37a2.763,2.763,0,0,0,2.916,3.027,2.837,2.837,0,0,0,2.741-1.668h.024v1.533h.993Zm1.811,8.262h1.049v-5.148a1.982,1.982,0,0,1,1.923-2.248,2.127,2.127,0,0,1,.787.119v-1.033a2.726,2.726,0,0,0-.651-.087,2.1,2.1,0,0,0-2.089,1.6h-.024V-27.8h-.993Zm8.636,0h1.057v-7.388h1.772V-27.8H156.2v-1.025c0-.922.421-1.327,1.216-1.327a3.421,3.421,0,0,1,.612.056v-.866a4.728,4.728,0,0,0-.763-.064,1.89,1.89,0,0,0-2.113,2.177V-27.8H154v.874h1.152Zm4.195,0H160.4v-5.148a1.982,1.982,0,0,1,1.923-2.248,2.126,2.126,0,0,1,.786.119v-1.033a2.726,2.726,0,0,0-.651-.087,2.1,2.1,0,0,0-2.089,1.6h-.024V-27.8h-.993Zm5.482-9.978a.7.7,0,0,0,.707-.7.7.7,0,0,0-.707-.7.7.7,0,0,0-.7.7A.7.7,0,0,0,164.83-29.517Zm-.524,9.978h1.049V-27.8h-1.049Zm8.644-2.344a2.237,2.237,0,0,1-2.344,1.557c-1.645,0-2.7-1.16-2.7-3.027v-.064h6.189v-.445c0-2.463-1.382-4.076-3.575-4.076-2.24,0-3.694,1.724-3.694,4.29,0,2.622,1.438,4.242,3.758,4.242a3.221,3.221,0,0,0,3.408-2.479ZM170.5-27.014a2.536,2.536,0,0,1,2.51,2.765h-5.1A2.643,2.643,0,0,1,170.5-27.014Zm5,7.476h1.049v-4.894A2.352,2.352,0,0,1,178.939-27a2.026,2.026,0,0,1,2.177,2.272v5.188h1.049v-5.355a2.766,2.766,0,0,0-2.924-3.043,2.793,2.793,0,0,0-2.725,1.66h-.024V-27.8H175.5Zm11.559.135a3.044,3.044,0,0,0,2.86-1.883h.024v1.748h1V-31h-1.057v4.9h-.024a2.986,2.986,0,0,0-2.828-1.835c-2.074,0-3.511,1.692-3.511,4.266S184.969-19.4,187.058-19.4Zm.183-7.6c1.573,0,2.653,1.343,2.653,3.337s-1.08,3.337-2.653,3.337c-1.589,0-2.638-1.319-2.638-3.337S185.652-27.006,187.241-27.006Zm6.507,7.539a.732.732,0,0,0,.739-.739.734.734,0,0,0-.739-.747.741.741,0,0,0-.747.747A.739.739,0,0,0,193.748-19.467Z" transform="translate(106.55 78.781)"/><rect class="c" width="81.933" height="81.839" transform="translate(0 0)"/><path class="d" d="M.393,0H.66V-2.123A1.149,1.149,0,0,1,1.818-3.37a1.021,1.021,0,0,1,1.094,1.1V0h.267V-2.3a1.22,1.22,0,0,0-1.3-1.306,1.242,1.242,0,0,0-1.23.827H.643v-.772H.393ZM5.7.055A1.616,1.616,0,0,0,7.285-1.777,1.616,1.616,0,0,0,5.7-3.609,1.613,1.613,0,0,0,4.117-1.777,1.613,1.613,0,0,0,5.7.055Zm0-.239c-.79,0-1.316-.6-1.316-1.593S4.91-3.37,5.7-3.37s1.319.6,1.319,1.593S6.489-.185,5.7-.185Zm6.854-3.37h-.28L11.364-.294h-.01l-.988-3.261h-.3L9.074-.294H9.067L8.155-3.555H7.878L8.91,0h.314l.984-3.213h.01L11.21,0h.308Z" transform="translate(382.943 25.297)"/><path class="e" d="M-3067.115-3102.6h29.4v29.4h-29.4Z" transform="translate(3092.615 3128.822)"/><path class="b" d="M-3034.667-3093.941h-20.45a1.269,1.269,0,0,0-1.269,1.269v20.45a1.269,1.269,0,0,0,1.269,1.268h11.009v-8.9h-3v-3.469h3v-2.559c0-2.969,1.813-4.586,4.462-4.586a24.487,24.487,0,0,1,2.677.137v3.1h-1.837c-1.441,0-1.72.684-1.72,1.688v2.215h3.435l-.447,3.469h-2.988v8.9h5.858a1.269,1.269,0,0,0,1.269-1.268v-20.45a1.268,1.268,0,0,0-1.269-1.269Z" transform="translate(3085.859 3123.367)"/></g></svg>