<svg xmlns="http://www.w3.org/2000/svg" xmlns:xlink="http://www.w3.org/1999/xlink" width="446.295" height="111.839" viewBox="0 0 446.295 111.839"><defs><style>.a{fill:#fff;}.b{fill:#333;}.c{fill:#ff414f;}.d{fill:#4d4d4d;}.e{fill:none;}.f{filter:url(#a);}</style><filter id="a" x="0" y="0" width="446.295" height="111.839" filterUnits="userSpaceOnUse"><feOffset dy="3" input="SourceAlpha"/><feGaussianBlur stdDeviation="5" result="b"/><feFlood flood-opacity="0.349"/><feComposite operator="in" in2="b"/><feComposite in="SourceGraphic"/></filter></defs><g transform="translate(14.657 12)"><g class="f" transform="matrix(1, 0, 0, 1, -14.66, -12)"><rect class="a" width="416.295" height="81.839" transform="translate(15 12)"/></g><path class="b" d="M8.04-22.451c3.214,0,5.457-1.843,5.765-4.767H11.136a2.958,2.958,0,0,1-3.087,2.506c-2.1,0-3.414-1.725-3.414-4.522,0-2.76,1.335-4.494,3.4-4.494a3.035,3.035,0,0,1,3.087,2.66H13.8C13.588-34,11.191-36,8.04-36c-3.8,0-6.2,2.551-6.2,6.773S4.227-22.451,8.04-22.451Zm10.069-.064a3.348,3.348,0,0,0,2.969-1.643h.054v1.489h2.56v-6.692c0-1.961-1.625-3.25-4.122-3.25-2.579,0-4.186,1.3-4.285,3.187H17.71a1.578,1.578,0,0,1,1.743-1.208c1,0,1.634.527,1.634,1.435v.645l-2.451.145c-2.424.145-3.786,1.171-3.786,2.942A3.01,3.01,0,0,0,18.109-22.515Zm.872-1.916c-.9,0-1.5-.454-1.5-1.18,0-.69.563-1.135,1.553-1.208l2.052-.127v.708A1.944,1.944,0,0,1,18.981-24.431Zm6.483,1.761h2.651v-13.1H25.464ZM36.35-25.647a1.938,1.938,0,0,1-1.961,1.226,2.165,2.165,0,0,1-2.234-2.342v-.163h6.71v-.808c0-2.96-1.789-4.876-4.621-4.876-2.878,0-4.694,2.016-4.694,5.121s1.8,5.03,4.794,5.03c2.406,0,4.149-1.28,4.44-3.187Zm-2.079-5a2.02,2.02,0,0,1,2.043,2.1H32.183A2.107,2.107,0,0,1,34.271-30.65Zm5.956,7.981h2.651v-5.584a1.928,1.928,0,0,1,1.943-2.134c1.189,0,1.789.726,1.789,2v5.72h2.651v-6.274c0-2.279-1.217-3.641-3.378-3.641a3.075,3.075,0,0,0-3.042,1.916h-.054V-32.4h-2.56Zm14.327.154a3.21,3.21,0,0,0,3.033-1.825h.045v1.671h2.615v-13.1H57.6v5.039h-.054a3.129,3.129,0,0,0-2.969-1.825c-2.442,0-3.986,1.916-3.986,5C50.587-24.44,52.121-22.515,54.554-22.515Zm.9-7.917c1.317,0,2.161,1.126,2.161,2.9s-.844,2.887-2.161,2.887c-1.335,0-2.152-1.1-2.152-2.887S54.119-30.432,55.453-30.432ZM64.9-22.515a3.348,3.348,0,0,0,2.969-1.643h.054v1.489h2.56v-6.692c0-1.961-1.625-3.25-4.122-3.25-2.579,0-4.186,1.3-4.286,3.187h2.424a1.578,1.578,0,0,1,1.743-1.208c1,0,1.634.527,1.634,1.435v.645l-2.451.145c-2.424.145-3.786,1.171-3.786,2.942A3.01,3.01,0,0,0,64.9-22.515Zm.872-1.916c-.9,0-1.5-.454-1.5-1.18,0-.69.563-1.135,1.553-1.208l2.052-.127v.708A1.944,1.944,0,0,1,65.777-24.431ZM72.2-22.669h2.651v-5.439a1.939,1.939,0,0,1,2.07-2.17,2.728,2.728,0,0,1,.962.154v-2.333a2.7,2.7,0,0,0-.754-.1,2.323,2.323,0,0,0-2.315,1.907h-.054V-32.4H72.2Zm8.489-6.374A1.461,1.461,0,0,0,82.147-30.5a1.455,1.455,0,0,0-1.462-1.462A1.449,1.449,0,0,0,79.223-30.5,1.455,1.455,0,0,0,80.685-29.043Zm0,6.483a1.461,1.461,0,0,0,1.462-1.462,1.455,1.455,0,0,0-1.462-1.462,1.449,1.449,0,0,0-1.462,1.462A1.455,1.455,0,0,0,80.685-22.56ZM88.03-35.771v13.1h2.742V-26.8h2.451A4.356,4.356,0,0,0,97.9-31.286a4.28,4.28,0,0,0-4.54-4.485Zm2.742,2.17h1.861a2.186,2.186,0,0,1,2.479,2.324,2.195,2.195,0,0,1-2.488,2.333H90.772Zm12.666,11.14c2.942,0,4.821-1.879,4.821-5.084,0-3.16-1.907-5.066-4.821-5.066s-4.821,1.916-4.821,5.066C98.617-24.349,100.5-22.46,103.438-22.46Zm0-2.025c-1.307,0-2.134-1.1-2.134-3.051,0-1.934.844-3.051,2.134-3.051s2.125,1.117,2.125,3.051C105.563-25.584,104.736-24.485,103.438-24.485Zm10.65,2.025c2.942,0,4.821-1.879,4.821-5.084,0-3.16-1.907-5.066-4.821-5.066s-4.821,1.916-4.821,5.066C109.267-24.349,111.146-22.46,114.088-22.46Zm0-2.025c-1.307,0-2.134-1.1-2.134-3.051,0-1.934.844-3.051,2.134-3.051s2.125,1.117,2.125,3.051C116.213-25.584,115.387-24.485,114.088-24.485Zm6.247,1.816h2.651v-13.1h-2.651Zm8.344-13.1v13.1h2.742V-26.8h2.451a4.356,4.356,0,0,0,4.676-4.485,4.28,4.28,0,0,0-4.54-4.485Zm2.742,2.17h1.861a2.186,2.186,0,0,1,2.479,2.324,2.195,2.195,0,0,1-2.488,2.333h-1.852Zm10.768,11.086a3.348,3.348,0,0,0,2.969-1.643h.054v1.489h2.56v-6.692c0-1.961-1.625-3.25-4.122-3.25-2.579,0-4.186,1.3-4.285,3.187h2.424a1.578,1.578,0,0,1,1.743-1.208c1,0,1.634.527,1.634,1.435v.645l-2.451.145c-2.424.145-3.786,1.171-3.786,2.942A3.01,3.01,0,0,0,142.189-22.515Zm.872-1.916c-.9,0-1.5-.454-1.5-1.18,0-.69.563-1.135,1.553-1.208l2.052-.127v.708A1.944,1.944,0,0,1,143.061-24.431Zm6.419,1.761h2.651v-5.439a1.939,1.939,0,0,1,2.07-2.17,2.728,2.728,0,0,1,.962.154v-2.333a2.7,2.7,0,0,0-.754-.1,2.323,2.323,0,0,0-2.315,1.907h-.054V-32.4h-2.56Zm7.472-11.976V-32.4h-1.371v2h1.371v5.112c0,1.9.89,2.66,3.178,2.66a6.1,6.1,0,0,0,1.262-.109v-1.952a4.291,4.291,0,0,1-.645.045c-.781,0-1.144-.354-1.144-1.1V-30.4h1.8v-2h-1.8v-2.243Zm7.155,15.58c2.479,0,3.7-.9,4.531-3.4l3.35-9.942h-2.8l-2.061,7.609h-.054l-2.07-7.609H162.1l3.387,9.733c.009.045-.091.427-.091.472-.182.772-.663,1.08-1.625,1.08-.1,0-.581-.009-.672-.027v2.052C163.19-19.074,164.007-19.065,164.107-19.065Z" transform="translate(107.216 56.996)"/><path d="M3.977-19.809V-31.272H2.9v11.464Zm1.978,0H7V-24.7A2.352,2.352,0,0,1,9.4-27.268,2.026,2.026,0,0,1,11.572-25v5.188h1.049v-5.355A2.766,2.766,0,0,0,9.7-28.206a2.793,2.793,0,0,0-2.725,1.66H6.948v-1.525H5.955Zm14.92-8.262h-1.1L17.26-20.913h-.024l-2.51-7.158H13.614l3.075,8.262h1.12ZM22.5-29.787a.7.7,0,0,0,.707-.7.7.7,0,0,0-.707-.7.7.7,0,0,0-.7.7A.7.7,0,0,0,22.5-29.787Zm-.524,9.978h1.049v-8.262H21.979Zm3.384-10.328v2.066H24.132v.874h1.231v5.355c0,1.494.556,2.081,1.938,2.081a6.563,6.563,0,0,0,.779-.048v-.9c-.064.016-.461.032-.572.032-.763,0-1.1-.365-1.1-1.216V-27.2h1.629v-.874H26.412v-2.066Zm6.387,10.463a3.078,3.078,0,0,0,2.82-1.708H34.6v1.573h1v-5.656c0-1.684-1.184-2.741-3.067-2.741s-3.1,1.049-3.218,2.526h1.017a1.974,1.974,0,0,1,2.177-1.6,1.814,1.814,0,0,1,2.042,1.907v.715l-2.574.159c-1.907.127-2.963.985-2.963,2.4A2.465,2.465,0,0,0,31.751-19.673Zm.215-.906c-1.12,0-1.891-.62-1.891-1.517,0-.914.723-1.478,2.026-1.565l2.447-.167v.914A2.442,2.442,0,0,1,31.966-20.579Zm5.847-9.557v2.066H36.581v.874h1.231v5.355c0,1.494.556,2.081,1.938,2.081a6.563,6.563,0,0,0,.779-.048v-.9c-.064.016-.461.032-.572.032-.763,0-1.1-.365-1.1-1.216V-27.2H40.49v-.874H38.861v-2.066Zm4.767.35a.7.7,0,0,0,.707-.7.7.7,0,0,0-.707-.7.7.7,0,0,0-.7.7A.7.7,0,0,0,42.579-29.787Zm-.524,9.978H43.1v-8.262H42.055Zm6.284.135c2.248,0,3.766-1.645,3.766-4.266s-1.517-4.266-3.766-4.266-3.766,1.637-3.766,4.266S46.091-19.673,48.339-19.673Zm0-.93c-1.621,0-2.693-1.239-2.693-3.337s1.073-3.337,2.693-3.337,2.7,1.239,2.7,3.337S49.96-20.6,48.339-20.6Zm5.164.794h1.049V-24.7a2.352,2.352,0,0,1,2.391-2.566A2.026,2.026,0,0,1,59.12-25v5.188h1.049v-5.355a2.766,2.766,0,0,0-2.924-3.043,2.793,2.793,0,0,0-2.725,1.66H54.5v-1.525H53.5Zm12.187,0h1.057V-27.2h1.772v-.874h-1.78V-29.1c0-.922.421-1.327,1.216-1.327a3.421,3.421,0,0,1,.612.056v-.866A4.727,4.727,0,0,0,67.8-31.3a1.89,1.89,0,0,0-2.113,2.177v1.049H64.538v.874H65.69Zm4.195,0h1.049v-5.148A1.982,1.982,0,0,1,72.856-27.2a2.127,2.127,0,0,1,.787.119v-1.033a2.726,2.726,0,0,0-.651-.087A2.1,2.1,0,0,0,70.9-26.6h-.024v-1.47h-.993Zm7.77.135c2.248,0,3.766-1.645,3.766-4.266s-1.517-4.266-3.766-4.266-3.766,1.637-3.766,4.266S75.406-19.673,77.654-19.673Zm0-.93c-1.621,0-2.693-1.239-2.693-3.337s1.073-3.337,2.693-3.337,2.7,1.239,2.7,3.337S79.275-20.6,77.654-20.6Zm5.164.794h1.049v-5.077a2.16,2.16,0,0,1,2.089-2.383,1.815,1.815,0,0,1,1.891,1.954v5.506H88.9v-5.2a2.074,2.074,0,0,1,2.066-2.256,1.826,1.826,0,0,1,1.915,2.05v5.41h1.049v-5.649a2.545,2.545,0,0,0-2.669-2.749,2.72,2.72,0,0,0-2.606,1.74h-.024a2.384,2.384,0,0,0-2.391-1.74,2.471,2.471,0,0,0-2.407,1.66h-.024v-1.525h-.993Zm20.473,0V-30.287h3.79v-.985h-8.66v.985H102.2v10.479Zm6.324.135c2.248,0,3.766-1.645,3.766-4.266s-1.517-4.266-3.766-4.266-3.766,1.637-3.766,4.266S107.367-19.673,109.615-19.673Zm0-.93c-1.621,0-2.693-1.239-2.693-3.337s1.073-3.337,2.693-3.337,2.7,1.239,2.7,3.337S111.236-20.6,109.615-20.6Zm5.164.794h1.049v-5.077a2.16,2.16,0,0,1,2.089-2.383,1.815,1.815,0,0,1,1.891,1.954v5.506h1.057v-5.2a2.074,2.074,0,0,1,2.066-2.256,1.826,1.826,0,0,1,1.915,2.05v5.41h1.049v-5.649a2.545,2.545,0,0,0-2.669-2.749,2.72,2.72,0,0,0-2.606,1.74h-.024a2.384,2.384,0,0,0-2.391-1.74,2.471,2.471,0,0,0-2.407,1.66h-.024v-1.525h-.993Zm15.325.135a3.078,3.078,0,0,0,2.82-1.708h.024v1.573h1v-5.656c0-1.684-1.184-2.741-3.067-2.741s-3.1,1.049-3.218,2.526h1.017a1.974,1.974,0,0,1,2.177-1.6A1.814,1.814,0,0,1,132.9-25.37v.715l-2.574.159c-1.907.127-2.963.985-2.963,2.4A2.465,2.465,0,0,0,130.1-19.673Zm.214-.906c-1.12,0-1.891-.62-1.891-1.517,0-.914.723-1.478,2.026-1.565l2.447-.167v.914A2.442,2.442,0,0,1,130.319-20.579Zm5.227-5.283c0,1.144.739,1.835,2.312,2.2l1.239.294c1.112.27,1.517.667,1.517,1.382,0,.866-.818,1.446-2.058,1.446a1.966,1.966,0,0,1-2.2-1.637h-1.049c.143,1.509,1.382,2.5,3.249,2.5,1.8,0,3.114-.993,3.114-2.391,0-1.168-.62-1.8-2.272-2.2l-1.247-.294c-1.1-.262-1.565-.683-1.565-1.359,0-.826.771-1.422,1.9-1.422a1.858,1.858,0,0,1,2.026,1.66h1.009a2.75,2.75,0,0,0-3.035-2.526C136.762-28.206,135.546-27.229,135.546-25.862Zm8.143,8.246,1-3.829h-1.12l-.763,3.829Zm5.148-5.251c.119,1.938,1.8,3.241,4.242,3.241,2.487,0,4.123-1.311,4.123-3.345,0-1.589-.945-2.487-3.3-3.019l-1.247-.286c-1.7-.381-2.407-1.041-2.407-2.081,0-1.3,1.231-2.113,2.781-2.113,1.629,0,2.765.874,2.876,2.185h1.088c-.064-1.843-1.708-3.17-3.94-3.17-2.248,0-3.917,1.295-3.917,3.146,0,1.581.953,2.558,3.233,3.067l1.247.278c1.764.405,2.479,1.057,2.479,2.137,0,1.3-1.231,2.217-2.955,2.217-1.8,0-3.075-.882-3.21-2.256Zm15.492.715a2.237,2.237,0,0,1-2.344,1.557c-1.645,0-2.7-1.16-2.7-3.027v-.064h6.189v-.445c0-2.463-1.382-4.076-3.575-4.076-2.24,0-3.694,1.724-3.694,4.29,0,2.622,1.438,4.242,3.758,4.242a3.221,3.221,0,0,0,3.408-2.479Zm-2.447-5.132a2.536,2.536,0,0,1,2.51,2.765h-5.1A2.643,2.643,0,0,1,161.882-27.284Zm8.866-.922a3.021,3.021,0,0,0-2.844,1.883h-.032v-1.748h-.993v11h1.049v-4.433h.032a2.964,2.964,0,0,0,2.812,1.835c2.074,0,3.5-1.692,3.5-4.266S172.838-28.206,170.748-28.206Zm-.183,7.6c-1.565,0-2.638-1.343-2.638-3.337s1.073-3.337,2.638-3.337c1.6,0,2.63,1.327,2.63,3.337S172.162-20.6,170.565-20.6Zm13.943.794h1.057V-22.4h1.708v-.961h-1.708v-7.929h-1.589c-2.534,3.551-4.036,5.8-5.283,7.9v.993h5.815Zm-4.719-3.583c1.144-1.859,2.59-4.02,4.7-6.943h.016v6.975h-4.719Zm9.3-6.745v2.066h-1.231v.874h1.231v5.355c0,1.494.556,2.081,1.938,2.081a6.563,6.563,0,0,0,.779-.048v-.9c-.064.016-.461.032-.572.032-.763,0-1.1-.365-1.1-1.216V-27.2h1.629v-.874h-1.629v-2.066Zm4.242,10.328h1.057v-4.862a2.378,2.378,0,0,1,2.447-2.6,2.061,2.061,0,0,1,2.2,2.3v5.164H200.1v-5.339a2.814,2.814,0,0,0-2.955-3.059,2.785,2.785,0,0,0-2.725,1.66h-.024v-4.727h-1.057Zm9.16,2.193,1-3.829h-1.12l-.763,3.829Zm8.493-2.193h1.049V-31.272h-1.065c-.342.207-2.773,1.923-3.09,2.121v1.1c.334-.207,2.82-1.907,3.075-2.066h.032Zm7.714.183a3.809,3.809,0,0,0,4.028-3.877,3.68,3.68,0,0,0-3.79-3.8,3.317,3.317,0,0,0-2.789,1.319h-.024l.453-4.322h5.458v-.969h-6.356l-.62,6.427h.977a3.027,3.027,0,0,1,2.725-1.517,2.8,2.8,0,0,1,2.876,2.884,2.8,2.8,0,0,1-2.924,2.892,2.649,2.649,0,0,1-2.8-2.209h-1.065A3.594,3.594,0,0,0,218.7-19.626Zm6.594-8.532a.739.739,0,0,0,.739-.747.732.732,0,0,0-.739-.739.739.739,0,0,0-.747.739A.746.746,0,0,0,225.3-28.158Zm0,6.721a.739.739,0,0,0,.739-.747.732.732,0,0,0-.739-.739.739.739,0,0,0-.747.739A.746.746,0,0,0,225.3-21.437Zm6.872,1.811c2.606,0,4.147-2.3,4.147-5.927,0-3.6-1.549-5.9-4.147-5.9s-4.155,2.312-4.155,5.911C228.012-21.922,229.561-19.626,232.167-19.626Zm0-.953c-1.938,0-3.059-1.931-3.059-4.973,0-2.987,1.144-4.941,3.059-4.941s3.059,1.938,3.059,4.949C235.226-22.51,234.106-20.579,232.167-20.579Zm9.708.953c2.606,0,4.147-2.3,4.147-5.927,0-3.6-1.549-5.9-4.147-5.9s-4.155,2.312-4.155,5.911C237.72-21.922,239.27-19.626,241.875-19.626Zm0-.953c-1.938,0-3.059-1.931-3.059-4.973,0-2.987,1.144-4.941,3.059-4.941s3.059,1.938,3.059,4.949C244.934-22.51,243.814-20.579,241.875-20.579Zm6.411.842a.732.732,0,0,0,.739-.739.734.734,0,0,0-.739-.747.741.741,0,0,0-.747.747A.739.739,0,0,0,248.287-19.737Z" transform="translate(106.55 79.051)"/><rect class="c" width="81.933" height="81.839" transform="translate(0 0)"/><path class="d" d="M.393,0H.66V-2.123A1.149,1.149,0,0,1,1.818-3.37a1.021,1.021,0,0,1,1.094,1.1V0h.267V-2.3a1.22,1.22,0,0,0-1.3-1.306,1.242,1.242,0,0,0-1.23.827H.643v-.772H.393ZM5.7.055A1.616,1.616,0,0,0,7.285-1.777,1.616,1.616,0,0,0,5.7-3.609,1.613,1.613,0,0,0,4.117-1.777,1.613,1.613,0,0,0,5.7.055Zm0-.239c-.79,0-1.316-.6-1.316-1.593S4.91-3.37,5.7-3.37s1.319.6,1.319,1.593S6.489-.185,5.7-.185Zm6.854-3.37h-.28L11.364-.294h-.01l-.988-3.261h-.3L9.074-.294H9.067L8.155-3.555H7.878L8.91,0h.314l.984-3.213h.01L11.21,0h.308Z" transform="translate(382.943 25.297)"/><path class="e" d="M-3067.115-3611.663h29.4v29.4h-29.4Z" transform="translate(3092.615 3637.882)"/><path class="b" d="M-3036.126-3605.125h-1.2v-1.2a1.2,1.2,0,0,0-1.2-1.2,1.2,1.2,0,0,0-1.2,1.2v1.2h-11.97v-1.2a1.2,1.2,0,0,0-1.2-1.2,1.2,1.2,0,0,0-1.2,1.2v1.2h-1.2a2.4,2.4,0,0,0-2.394,2.394v19.151a2.4,2.4,0,0,0,2.394,2.394h19.151a2.4,2.4,0,0,0,2.394-2.394v-19.151A2.4,2.4,0,0,0-3036.126-3605.125Zm-1.2,21.545h-16.758a1.2,1.2,0,0,1-1.2-1.2v-14.364h19.151v14.364A1.2,1.2,0,0,1-3037.323-3583.58Z" transform="translate(3086.667 3635.272)"/></g></svg>