<svg xmlns="http://www.w3.org/2000/svg" xmlns:xlink="http://www.w3.org/1999/xlink" width="453.3" height="305.2" viewBox="0 0 453.3 305.2"><defs><style>.a{fill:#fff;stroke:#ff414f;stroke-width:7px;}.b{fill:#333;}.c,.g{fill:#ff414f;}.d{fill:#4d4d4d;}.e{fill:none;}.f{opacity:0.074;}.g{fill-rule:evenodd;}.h{fill:#fcc;}.i{fill:#f38380;}.j{fill:#ef9797;}.k{fill:#ff8392;}.l{fill:#ff6e86;}.m{filter:url(#a);}</style><filter id="a" x="0" y="0" width="453.3" height="305.2" filterUnits="userSpaceOnUse"><feOffset dy="3" input="SourceAlpha"/><feGaussianBlur stdDeviation="5" result="b"/><feFlood flood-opacity="0.161"/><feComposite operator="in" in2="b"/><feComposite in="SourceGraphic"/></filter></defs><g transform="translate(0.843 0.5)"><g transform="translate(-12.043 -9)"><g class="m" transform="matrix(1, 0, 0, 1, 11.2, 8.5)"><path class="a" d="M0,0H416.3V268.2H0Z" transform="translate(18.5 15.5)"/></g></g><g transform="translate(2 2)"><path class="b" d="M7.705-23.426V-34.267h3.8v-2.261H1.177v2.261H4.963v10.841Zm6.224-11.05a1.37,1.37,0,0,0,1.38-1.362,1.364,1.364,0,0,0-1.38-1.362,1.364,1.364,0,0,0-1.38,1.362A1.37,1.37,0,0,0,13.929-34.476Zm-1.317,11.05h2.651v-9.733H12.612Zm4.6,0h2.651V-29.01a1.928,1.928,0,0,1,1.943-2.134c1.189,0,1.789.726,1.789,2v5.72h2.651V-29.7c0-2.279-1.217-3.641-3.378-3.641a3.075,3.075,0,0,0-3.042,1.916h-.054v-1.734h-2.56Zm14.513.154A3.21,3.21,0,0,0,34.757-25.1H34.8v1.671h2.615v-13.1H34.766v5.039h-.054a3.129,3.129,0,0,0-2.969-1.825c-2.442,0-3.986,1.916-3.986,5C27.757-25.2,29.291-23.272,31.724-23.272Zm.9-7.917c1.317,0,2.161,1.126,2.161,2.9s-.844,2.887-2.161,2.887c-1.335,0-2.152-1.1-2.152-2.887S31.288-31.189,32.623-31.189ZM45.82-26.4a1.938,1.938,0,0,1-1.961,1.226,2.165,2.165,0,0,1-2.234-2.342v-.163h6.71v-.808c0-2.96-1.789-4.876-4.621-4.876-2.878,0-4.694,2.016-4.694,5.121s1.8,5.03,4.794,5.03c2.406,0,4.149-1.28,4.44-3.187Zm-2.079-5a2.02,2.02,0,0,1,2.043,2.1H41.652A2.107,2.107,0,0,1,43.741-31.407Zm6.142,7.981h2.651v-5.439a1.939,1.939,0,0,1,2.07-2.17,2.728,2.728,0,0,1,.962.154v-2.333a2.7,2.7,0,0,0-.754-.1A2.323,2.323,0,0,0,52.5-31.407h-.054v-1.752h-2.56Z" transform="translate(120.73 68.734)"/><path d="M5.711-19.5v-4.957l4.107-6.507H8.579L5.186-25.52h-.04L1.754-30.962H.515l4.107,6.507V-19.5Zm7.162.135c2.248,0,3.766-1.645,3.766-4.266S15.121-27.9,12.872-27.9s-3.766,1.637-3.766,4.266S10.624-19.363,12.872-19.363Zm0-.93c-1.621,0-2.693-1.239-2.693-3.337s1.073-3.337,2.693-3.337,2.7,1.239,2.7,3.337S14.493-20.292,12.872-20.292ZM24.825-27.76H23.776v4.9A2.344,2.344,0,0,1,21.369-20.3a2.007,2.007,0,0,1-2.161-2.272V-27.76H18.151v5.37a2.763,2.763,0,0,0,2.916,3.027,2.837,2.837,0,0,0,2.741-1.668h.024V-19.5h.993Zm8.834,11.321c2.209,0,3.615-1.271,3.615-3.194V-27.76h-1v1.748h-.024a3.052,3.052,0,0,0-2.86-1.883c-2.113,0-3.511,1.676-3.511,4.242s1.4,4.234,3.488,4.234a3.022,3.022,0,0,0,2.828-1.835h.024v1.66a2.235,2.235,0,0,1-2.51,2.248,2.325,2.325,0,0,1-2.352-1.39H30.267C30.5-17.432,31.855-16.439,33.659-16.439Zm-.1-3.909c-1.557,0-2.6-1.3-2.6-3.3,0-2.01,1.041-3.321,2.6-3.321,1.589,0,2.661,1.335,2.661,3.313S35.144-20.348,33.556-20.348Zm9.045.985c2.248,0,3.766-1.645,3.766-4.266S44.848-27.9,42.6-27.9s-3.766,1.637-3.766,4.266S40.352-19.363,42.6-19.363Zm0-.93c-1.621,0-2.693-1.239-2.693-3.337s1.073-3.337,2.693-3.337,2.7,1.239,2.7,3.337S44.221-20.292,42.6-20.292Zm5.779-9.533v2.066H47.148v.874H48.38v5.355c0,1.494.556,2.081,1.938,2.081A6.563,6.563,0,0,0,51.1-19.5v-.9c-.064.016-.461.032-.572.032-.763,0-1.1-.365-1.1-1.216v-5.307h1.629v-.874H49.428v-2.066ZM58.652-19.363a3.078,3.078,0,0,0,2.82-1.708H61.5V-19.5h1v-5.656c0-1.684-1.184-2.741-3.067-2.741s-3.1,1.049-3.218,2.526H57.23a1.974,1.974,0,0,1,2.177-1.6,1.814,1.814,0,0,1,2.042,1.907v.715l-2.574.159c-1.907.127-2.963.985-2.963,2.4A2.465,2.465,0,0,0,58.652-19.363Zm.214-.906c-1.12,0-1.891-.62-1.891-1.517,0-.914.723-1.478,2.026-1.565l2.447-.167v.914A2.442,2.442,0,0,1,58.866-20.268Zm9.048.771h1.049v-4.894a2.352,2.352,0,0,1,2.391-2.566,2.026,2.026,0,0,1,2.177,2.272V-19.5H74.58v-5.355A2.766,2.766,0,0,0,71.656-27.9a2.793,2.793,0,0,0-2.725,1.66h-.024V-27.76h-.993Zm14.312-2.344a2.237,2.237,0,0,1-2.344,1.557c-1.645,0-2.7-1.16-2.7-3.027v-.064H83.37v-.445c0-2.463-1.382-4.076-3.575-4.076-2.24,0-3.694,1.724-3.694,4.29,0,2.622,1.438,4.242,3.758,4.242a3.221,3.221,0,0,0,3.408-2.479ZM79.78-26.974a2.536,2.536,0,0,1,2.51,2.765h-5.1A2.643,2.643,0,0,1,79.78-26.974Zm15.456-.787H94.179l-1.851,7.086H92.3L90.246-27.76H89.182l-2.058,7.086H87.1L85.249-27.76H84.185L86.536-19.5h1.112l2.05-6.856h.024L91.78-19.5h1.112ZM99.954-19.5H101v-5.077a2.16,2.16,0,0,1,2.089-2.383A1.815,1.815,0,0,1,104.983-25V-19.5h1.057v-5.2a2.074,2.074,0,0,1,2.066-2.256,1.826,1.826,0,0,1,1.915,2.05v5.41h1.049v-5.649A2.545,2.545,0,0,0,108.4-27.9a2.72,2.72,0,0,0-2.606,1.74h-.024a2.384,2.384,0,0,0-2.391-1.74,2.471,2.471,0,0,0-2.407,1.66h-.024V-27.76h-.993Zm15.488.135a3.078,3.078,0,0,0,2.82-1.708h.024V-19.5h1v-5.656c0-1.684-1.184-2.741-3.067-2.741s-3.1,1.049-3.218,2.526h1.017a1.974,1.974,0,0,1,2.177-1.6,1.814,1.814,0,0,1,2.042,1.907v.715l-2.574.159c-1.907.127-2.963.985-2.963,2.4A2.465,2.465,0,0,0,115.442-19.363Zm.215-.906c-1.12,0-1.891-.62-1.891-1.517,0-.914.723-1.478,2.026-1.565l2.447-.167v.914A2.442,2.442,0,0,1,115.656-20.268Zm6.01-9.557v2.066h-1.231v.874h1.231v5.355c0,1.494.556,2.081,1.938,2.081a6.563,6.563,0,0,0,.779-.048v-.9c-.064.016-.461.032-.572.032-.763,0-1.1-.365-1.1-1.216v-5.307h1.629v-.874h-1.629v-2.066Zm10.769,4.679a3.251,3.251,0,0,0-3.4-2.749c-2.248,0-3.734,1.66-3.734,4.266,0,2.646,1.486,4.266,3.742,4.266a3.225,3.225,0,0,0,3.4-2.693H131.4a2.24,2.24,0,0,1-2.352,1.764c-1.613,0-2.677-1.263-2.677-3.337,0-2.042,1.057-3.337,2.669-3.337a2.289,2.289,0,0,1,2.36,1.819Zm1.553,5.649h1.057V-24.36a2.378,2.378,0,0,1,2.447-2.6,2.061,2.061,0,0,1,2.2,2.3V-19.5h1.057v-5.339a2.814,2.814,0,0,0-2.955-3.059,2.785,2.785,0,0,0-2.725,1.66h-.024v-4.727h-1.057Zm9.339-11.464.072,7.841h.961l.064-7.841Zm.548,11.535a.734.734,0,0,0,.747-.739.736.736,0,0,0-.747-.747.734.734,0,0,0-.739.747A.732.732,0,0,0,143.875-19.426Zm3.833-11.535.072,7.841h.961l.064-7.841Zm.548,11.535a.734.734,0,0,0,.747-.739.736.736,0,0,0-.747-.747.734.734,0,0,0-.739.747A.732.732,0,0,0,148.256-19.426Zm3.833-11.535.071,7.841h.961l.064-7.841Zm.548,11.535a.734.734,0,0,0,.747-.739.736.736,0,0,0-.747-.747.734.734,0,0,0-.739.747A.732.732,0,0,0,152.637-19.426Z" transform="translate(121.147 89.721)"/></g><g transform="translate(14.657 12)"><rect class="c" width="81.9" height="81.8"/><path class="d" d="M383.3,21.7h.2v.8h0a1.3,1.3,0,0,1,2.5.5v2.3h-.3V23a1,1,0,0,0-1.1-1.1,1.155,1.155,0,0,0-1.2,1.2v2.1h-.3V21.7Z"/><path class="d" d="M387.1,23.5a1.611,1.611,0,1,1,3.2,0,1.611,1.611,0,1,1-3.2,0Zm2.9,0c0-1-.5-1.6-1.3-1.6s-1.3.6-1.3,1.6.5,1.6,1.3,1.6C389.4,25.1,390,24.5,390,23.5Z"/><path class="d" d="M394.5,25.3h-.3l-1-3.2h0l-1,3.2h-.3l-1-3.6h.3L392,25h0l1-3.3h.3l1,3.3h0l.9-3.3h.3Z"/><path class="e" d="M25.5,26.2H54.9V55.6H25.5Z"/></g><g class="f" transform="translate(2.758 1)"><rect class="c" width="388.8" height="30.7" transform="translate(26.9 101.9)"/><path class="c" d="M26.9,109.791,415.7,106.3V263.147H26.9Z"/></g><path class="e" d="M-3067.115-2414.092h29.4v29.4h-29.4Z" transform="translate(3124.713 2586.291)"/><path class="b" d="M-3041.918-2422.743c.259.2.483.441.73.654a37.057,37.057,0,0,1,5.926,7.033,23.5,23.5,0,0,1,3.362,8.231,16.839,16.839,0,0,1,.225,4.888,10.058,10.058,0,0,1-.415,2.012,10.951,10.951,0,0,1-1.252,2.689,7.622,7.622,0,0,1-1.742,1.871,8.349,8.349,0,0,1-2.5,1.267,15.4,15.4,0,0,1-3.423.624,20.715,20.715,0,0,1-4.146-.053,12.768,12.768,0,0,1-4.5-1.358,7.888,7.888,0,0,1-3.141-2.986,8.419,8.419,0,0,1-.986-4.861,14.884,14.884,0,0,1,1.446-5.085,25.7,25.7,0,0,1,2.317-3.922,29.209,29.209,0,0,1,2.438-3c.015-.011.045-.038.064-.05a7.7,7.7,0,0,0,.289,2.358,6.075,6.075,0,0,0,1.145,2.142c.031.038.053.091.11.1a14.269,14.269,0,0,0,3.031-2.944,9.183,9.183,0,0,0,1.662-4.016A10.844,10.844,0,0,0-3041.918-2422.743Z" transform="translate(3097.329 2456.739)"/><g transform="translate(-14.8 -124.7)"><path class="g" d="M128.936,126.355a1.242,1.242,0,0,0-1.167,1.284c0,.514.327,1,1.167,1a1.083,1.083,0,0,0,1.1-1.12,1.058,1.058,0,0,0-1.1-1.167Zm.093-1.144a.979.979,0,0,0,.514-.117c0-1.774,1.027-9.173,1.027-9.85a7.77,7.77,0,0,0-1.774-1.587h-.163l-.047,11.157c0,.28.187.4.443.4Zm-5.509-10.27c.163,0,.233.28.233.7a11.177,11.177,0,0,1-2.1,6c.35-3.291,1.237-6.7,1.867-6.7Zm3.058,11.788a.1.1,0,0,0-.093.07c-.163.49-.7,1.331-1.284,1.331-.537,0-.607-1.027-.607-1.937a23.177,23.177,0,0,1,.327-3.851c0-.35-.373-.42-.747-.443a.57.57,0,0,0-.327-.163c-.654,0-2.007,2.614-2.241,3.221,0,.07-.023.07-.07.07,0,0-.047,0-.047-.07,0-.49.07-1.517.163-2.568a11.744,11.744,0,0,0,3.058-7.469c0-1.284-.42-2.217-1.33-2.217-1.05,0-2.5,4.855-2.8,9.243l-.07.654-.677.163c0,.023.047.07.163.07.187.047.093.163.257.233l.163.023h.07l-.49,5.7c.163.163.84.49,1.12.724l.163.047c.07,0,.117-.14.117-.327,0,0-.023-.514-.023-1.167a7.385,7.385,0,0,1,.654-2.964,11.971,11.971,0,0,1,1.12-1.984c.07,0,.07.233.07.327-.047.49-.093,1.284-.093,2.124,0,1.027.093,3.5,1.727,3.5a1.5,1.5,0,0,0,.91-.327,2.3,2.3,0,0,0,1-1.727c0-.093-.047-.28-.187-.28Zm-8.006-1.494c-.233,0-.233.07-.233.07a3.573,3.573,0,0,1,.233,1.214c0,1.19-.654,1.774-1.284,1.774-.724,0-1.494-.7-1.494-2.054,0-1.681,1.074-3.781,2.1-3.851a.35.35,0,0,1,.117.28c0,.42-.327,1.1-.49,1.12-.023,0-.047,0-.047.047,0,.07.163.233.537.233a1.028,1.028,0,0,0,1.12-1l-.07-.257c-.093-1.214-.654-1.774-1.377-1.774-1.774,0-3.128,2.614-3.128,4.855a3,3,0,0,0,2.824,3.268,2.1,2.1,0,0,0,2.124-2.311c0-.864-.4-1.611-.934-1.611Zm-11.6,2.918c-.4,0-.56-.537-.56-1.284,0-1.377.747-4.225,1.891-4.225a1.205,1.205,0,0,1,.887.56c-.163,1.4-.724,4.948-2.241,4.948Zm9.85-8.38a1.53,1.53,0,0,1,.163-.35c.07-.07.28-.07.28-.21,0-.163-.327-.163-.537-.163-.327,0-1.33.233-2.568.373.28-1.26.514-2.194.514-2.4,0-.4-.864-.35-1.284-.654h-.047a.263.263,0,0,0-.187.117c-.187,1.12-.373,2.031-.514,3.058h-.163a6.665,6.665,0,0,1-2.358-.373c-.023-.07-.07-.07-.117-.07-.093,0-.163.28-.163.443,0,.957.42,1.587,1.4,1.587a5.325,5.325,0,0,0,1.19-.093,36.6,36.6,0,0,0-.327,4.528,13.3,13.3,0,0,0,.07,1.681.819.819,0,0,1-.187.117,1.328,1.328,0,0,1-1.074.747c-.444,0-.584-.7-.584-1.611,0-1.26.257-2.894.257-3.385,0-.233-.49-.373-.794-.443a1.5,1.5,0,0,0-1.587-1.447c-1.774,0-2.894,2.731-2.894,4.948,0,1.517.56,2.824,1.844,2.824.7,0,1.424-.957,1.937-2.194.163,1.611.864,2.194,1.611,2.194a1.837,1.837,0,0,0,1.564-1.167c.21,1.26.607,2.217,1.354,2.568.233,0,.257-.257.257-.257a6.358,6.358,0,0,1-.7-3.385,31.269,31.269,0,0,1,.747-6.069,22.067,22.067,0,0,0,2.894-.91Zm-4.715,11.321h-.093a4.8,4.8,0,0,1-3.455,1.517c-3.641,0-4.668-4.108-4.668-8.31,0-3.968.91-7.983,1.471-8.753a.453.453,0,0,0,.07-.28v-.093a.578.578,0,0,0-.28-.49,5.226,5.226,0,0,1-.957-.887.418.418,0,0,0-.163-.117c-.047,0-.14.023-.163.07-1.657,2.848-4.225,14.309-5.415,14.309-.607,0-.747-2.311-.747-5.229,0-2.614.14-5.719.14-8.053,0-.42-.514-.654-1.027-.654h-.49c-8.45,0-12.021,2.708-12.021,5,0,1.634,1.891,3.058,5.182,3.058,2.918,0,4.132-1.774,4.062-1.844a5.716,5.716,0,0,1-2.848.7c-3.1,0-4.949-1.214-4.949-2.568,0-1.727,3.175-3.758,10.411-4.015-.257.07-.4.584-.4.584-.49,2.451-3.8,15.873-8.683,15.873-1.774,0-3.081-1.844-3.081-4.085a6.181,6.181,0,0,1,1.214-3.641c.047-.047.047-.07.047-.07,0-.093-.07-.14-.163-.14-.047,0-.14,0-.163.047a7.35,7.35,0,0,0-1.891,4.6,4.073,4.073,0,0,0,3.9,4.318c6.186,0,8.31-13.959,8.847-15.242l-.047,4.062c0,3.758.233,6.279.794,7.68.373.794.77,1.214,1.214,1.214.42,0,.887-.42,1.284-1.19,1.354-2.568,3.338-10.364,3.758-11.321,0-.023,0-.07.023-.07s.07.07.07.07a42.861,42.861,0,0,0-.607,7.026c0,5.065,1.05,10.551,5.509,10.551,1.167,0,2.778-.607,3.128-1.844a18.991,18.991,0,0,0,1.1-1.634v-.07c0-.047,0-.07-.023-.07Zm-37.16-2.964c-.373,0-.56-.537-.56-1.284,0-1.377.747-4.225,1.891-4.225a1.168,1.168,0,0,1,.887.56c-.163,1.377-.724,4.925-2.217,4.949Zm5.345-1.144c-.047,0-.093.257-.28.327a1.436,1.436,0,0,1-1.12.747c-.444,0-.56-.7-.56-1.611,0-1.26.257-2.894.257-3.385,0-.233-.443-.373-.794-.444a1.483,1.483,0,0,0-1.564-1.447c-1.774,0-2.894,2.731-2.894,4.949,0,1.517.537,2.824,1.821,2.824.724,0,1.447-.957,1.937-2.194.163,1.611.887,2.194,1.611,2.194a1.867,1.867,0,0,0,1.7-1.8c-.047-.047-.047-.163-.117-.163Zm-13.935-7.236.28.163a6.69,6.69,0,0,0,1.167-3.5c0-.7-.163-1.167-.654-1.167a1.839,1.839,0,0,0-1.12.654,2.766,2.766,0,0,1,.654,1.984,4.075,4.075,0,0,1-.327,1.867Zm2.358.63c0-.07-.07-.093-.163-.093-.257,0-1.027.327-1.12.724-.327,1.7-2.824,7.119-4.272,7.119-.327,0-.49-.607-.49-1.447a42.463,42.463,0,0,1,.724-5.789,9.763,9.763,0,0,0,1.821-.7c.373-.327,1-.327,1-.537,0-.07-.07-.093-.163-.093l-.42.023c-.28,0-1.074.163-2.054.257.233-1.26.4-2.147.4-2.311,0-.4-.864-.35-1.26-.607h-.07a.443.443,0,0,0-.21.07c0,.163-.28,1.33-.537,2.894a7.489,7.489,0,0,1-2.288-.42c-.023-.07-.07-.07-.117-.07-.093,0-.163.257-.163.42,0,.957.49,1.26,1.447,1.26h.957a32.9,32.9,0,0,0-.35,4.225c0,2.031.373,3.641,1.517,3.641,1.377,0,3.851-3.781,4.575-6.116,0,.4.607,3.548.607,4.762,0,.677-.233.934-.537.934a1.285,1.285,0,0,1-1.027-1.214c0-.023-.047-.023-.07-.023-.117,0-.28.443-.28.957a1.759,1.759,0,0,0,1.867,1.681,1.468,1.468,0,0,0,1.541-1.587c0-1.447-1.167-4.178-1.167-5.462a12.669,12.669,0,0,1,.3-2.5Zm-8.03,7.586-.28-.233a5.209,5.209,0,0,0-.537-.093l-.28-.187c-.327-.117-2.054-.163-2.521-.257-.093,0-.117-.163-.117-.163,0-3.595.117-7.189.117-10.9a.421.421,0,0,1,.047-.233,32.422,32.422,0,0,1,5.765-.747h.28a.046.046,0,0,0,.047-.047,11.236,11.236,0,0,0-1.167-1.214s0-.117-.724-.117c-2.964,0-6.279,1.284-9.29,1.284h-.49s-.163-.14-.233-.14h-.49a.091.091,0,0,0-.093.093c0,.514,1.4,1.12,3.221,1.12a16.148,16.148,0,0,0,2.1-.14,48.219,48.219,0,0,0-1.237,9.594,3.651,3.651,0,0,0,.35,1.7c0,.163-.28.163-.28.163a22.882,22.882,0,0,0-5.182,1.611c-.233.14-.233.163-.233.28a1.1,1.1,0,0,0,.957.584,43.626,43.626,0,0,1,9.173-1.12c.677,0,1.844.117,2.054.117.07,0,.28-.07.28-.163a.1.1,0,0,0-.047-.093,6,6,0,0,1-1.19-.7Z" transform="translate(149.248 240.098)"/><g transform="translate(112.771 238.322)"><path class="h" d="M215.448,295.494a54.557,54.557,0,0,1-5.054,23.048,59.548,59.548,0,0,1-6.47,10.614,54.387,54.387,0,0,1-6.46,7.056c-.222.2-.445.4-.677.607-.667.607-1.355,1.183-2.062,1.739a10.74,10.74,0,0,1-1.112.91c-.556.425-1.112.839-1.688,1.233a53.655,53.655,0,0,1-8.987,5.155c-.283.131-.566.263-.849.384-.829.354-1.668.7-2.507,1.011a37.9,37.9,0,0,1-3.963,1.314l-2.123.607a57.224,57.224,0,0,1-13.242,1.617,51.955,51.955,0,0,1-8.9-.708l-1.385-.334-1.951-.475a44.481,44.481,0,0,1-4.327-1.112,53.077,53.077,0,0,1-9.624-4.044c-.253-.142-.5-.273-.748-.435-1.769-1-3.528-2.153-5.216-3.306-1.516-1.092-2.982-2.254-4.377-3.477a54,54,0,0,1-9.27-10.574,55.2,55.2,0,1,1,100.987-30.832Z" transform="translate(-105.06 -240.3)"/><path class="i" d="M180.267,279.22a127.257,127.257,0,0,0-3.942-16.275,3.019,3.019,0,0,0-5.054-1.112c-.1-.1-.1-.2-.2-.3-.3-.505-.505-.91-.809-1.415-1.921-3.134-6.874-.3-4.953,2.932.505.91,1.112,1.921,1.617,2.83v.1a2.923,2.923,0,0,0-2.932,1.921c-.1.2-.1.3-.2.505a4.1,4.1,0,0,0-.91-.505c.4-1.213.809-2.426,1.314-3.639a2.458,2.458,0,0,0-2.224-3.235,2.485,2.485,0,0,0-3.336.1l-1.82,1.82a1.272,1.272,0,0,0-1.213,0c-4.347,2.022-8.592,4.246-10.614,8.9-2.123,5.054-2.426,11.12-2.83,16.578-.2,3.235,5.358,4.044,5.762.809.1-.607.2-1.112.3-1.718a2.8,2.8,0,0,0,3.639-.505c.809,1.719,3.841,2.224,4.852.3a2.79,2.79,0,0,0,3.942.708h0c-.1,2.527,2.527,3.336,4.347,2.325,0,2.527,3.134,3.033,4.751,1.617v.3a2.647,2.647,0,0,0-.91,3.841c.2.4.505.708.708,1.112,1.314,1.921,4.852,2.022,5.358-.708.3-1.617.505-3.235.708-4.953a2.7,2.7,0,0,0,3.134.1C183,289.329,180.874,282.859,180.267,279.22Z" transform="translate(-104.657 -240.099)"/><path class="i" d="M150.2,332.6c-.2-.1-.3-.3-.505-.4a27.432,27.432,0,0,0,2.932-.1,2.207,2.207,0,0,0-.505.4c-.3,0-.505-.1-.708-.1A2.189,2.189,0,0,0,150.2,332.6Zm-6.773-.505v-.3a.911.911,0,0,1,.505.1A.772.772,0,0,0,143.426,332.094Zm9.4,12.333a6.957,6.957,0,0,1,.3-.809c.1.1.3.2.4.3a2.651,2.651,0,0,0,.91.505,8.9,8.9,0,0,0,1.516.505c.1.1.1.1.2.1A17.7,17.7,0,0,1,152.827,344.426Zm-5.054,4.145a11.4,11.4,0,0,1-3.134-3.437l-.3-.607c-.91-.4-1.82-.809-2.729-1.314a6.951,6.951,0,0,1-3.437-2.729,4.977,4.977,0,0,1-.606-1.718,28.761,28.761,0,0,1-.4-4.145c-.1-1.415-.1-2.83-.1-4.246v-3.134c0-.2.1-.3.1-.505A3.208,3.208,0,0,1,141,324.411c.4.1.809.1,1.112.2,1.415.2,2.83.4,4.246.505a39.029,39.029,0,0,0,6.874,0,34.671,34.671,0,0,0,5.661-.708h.2c1.719-.3,3.538-1.011,5.257-1.011,2.527,0,4.751,2.628,6.571,5.054.607.708,1.213,1.415,1.719,2.022l.1.1,9.1,9.907a3.822,3.822,0,0,1-.1,4.953,49.356,49.356,0,0,1-6.47,2.325l-2.123.607a57.223,57.223,0,0,1-13.243,1.617,51.146,51.146,0,0,1-8.9-.708Z" transform="translate(-104.712 -239.396)"/><path class="c" d="M137.809,338.773c-.1.2-.1.4-.2.607a3.567,3.567,0,0,1-.809,1.314c-.1.1-.1.2-.2.4a5.349,5.349,0,0,1-2.628,2.325,53.244,53.244,0,0,1-5.964-3.74,54.642,54.642,0,0,1-13.647-14.051,48.261,48.261,0,0,1,14.253-2.83,33.845,33.845,0,0,1,5.56.1,3.446,3.446,0,0,1,3.134,3.74c0,.2-.1.3-.1.505a3.163,3.163,0,0,1-.505,1.011,3.366,3.366,0,0,1,.505,1.516v1.415a3.163,3.163,0,0,1,.505,1.011A12.477,12.477,0,0,1,137.809,338.773Z" transform="translate(-104.959 -239.403)"/><path class="c" d="M209.506,317.8a51.373,51.373,0,0,1-6.47,10.614,57.724,57.724,0,0,1-9.2,9.4,10.737,10.737,0,0,0-1.112.91,3.387,3.387,0,0,1-1.213-4.145c-1.011-.1-2.022-.3-3.033-.505-2.83-.809-2.83-5.054,0-5.762.1,0,.2-.1.3-.1,1.82-.4,3.538-.708,5.358-1.011-1.719-1.112-1.617-4.145.3-5.358-1.213-.1-1.617-2.022-.3-2.325,2.123-.505,4.145-.91,6.166-1.314A39.861,39.861,0,0,1,209.506,317.8Z" transform="translate(-104.176 -239.458)"/><path d="M197.263,336.136c-.222.2-.445.4-.677.607-.667.607-1.355,1.183-2.062,1.739a10.734,10.734,0,0,1-1.112.91c-.556.425-1.112.839-1.688,1.233l-8.987,5.155-.849.485v-.1l-2.638-75.513-34.056,1.314,4.579,77.706-6.278-1.587-10.372-4.478c-1.769-1-3.528-2.153-5.216-3.306-1.516-1.092-2.982-2.254-4.377-3.477-.051-15.254,1.648-90.787,39.505-89.513C202.035,248.634,198.062,324.865,197.263,336.136Z" transform="translate(-104.859 -240.224)"/><path class="b" d="M173.927,283.427c-.3-2.527,0-6.065-1.415-8.289-1.415-2.426-4.347-2.729-6.874-3.033a81.792,81.792,0,0,0-11.12-.4c-1.213.1-9.907-.1-11.726.505-2.729.809-3.235,3.336-3.235,5.863a95.039,95.039,0,0,0,.505,10.715c.3,3.942.1,7.784.3,11.625v3.235a15.227,15.227,0,0,0,.1,3.033v.3a49.8,49.8,0,0,1,.505,5.459v.4a127.932,127.932,0,0,0,1.516,13.95c.809,4.852,5.054,4.852,9.2,5.054,1.011,0,1.921.1,2.932.1a.608.608,0,0,1,.4.1,19.529,19.529,0,0,0,11.524-.505,9.155,9.155,0,0,0,5.863-5.155,2.959,2.959,0,0,0,.91-2.123v-1.415a8.7,8.7,0,0,0,.1-1.617c.1-3.437.2-6.874.1-10.311v-.3c.3-2.426.708-4.852.91-7.379C175.241,296.669,174.635,290.1,173.927,283.427Z" transform="translate(-104.685 -239.959)"/><rect class="b" width="34.693" height="61.97" rx="6.531" transform="translate(34.852 31.705)"/><path class="j" d="M180.767,306.6c.071,1.132.091,2.254.182,3.386a6.322,6.322,0,0,1-.182-3l-7.481,2.841a.581.581,0,0,0,.1-.394c.2-1.617.4-3.235.505-4.852,0-.809.1-1.516.1-2.224v-.1a6.674,6.674,0,0,0,.1-1.415c.1-1.011.1-2.123.2-3.235v-.3c-.1-.1-.1-.3-.2-.4a44.083,44.083,0,0,1-2.83-9.907c-.505-2.83-1.112-6.267,1.415-8.289.1-.1.3-.1.4-.2a1.607,1.607,0,0,1,2.224,1.314.371.371,0,0,0,.1.3,2.115,2.115,0,0,1,.4.607c1.213,2.123,1.719,5.155,2.426,7.278.3.809.708,1.617,1.112,2.527.91,1.82,1.921,3.74,2.022,5.661C181.576,299.629,180.666,303.167,180.767,306.6Z" transform="translate(-104.345 -239.886)"/><path class="e" d="M215.444,295.592a55.246,55.246,0,0,1-5.054,23.048,51.372,51.372,0,0,1-6.47,10.614,57.726,57.726,0,0,1-9.2,9.4,10.736,10.736,0,0,0-1.112.91,54.761,54.761,0,0,1-11.524,6.773,49.353,49.353,0,0,1-6.47,2.325l-2.123.607a57.223,57.223,0,0,1-13.243,1.617,51.143,51.143,0,0,1-8.9-.708c-1.112-.2-2.123-.4-3.235-.607a54.939,54.939,0,0,1-13.95-5.155,53.229,53.229,0,0,1-5.964-3.74,55.179,55.179,0,0,1-23.048-44.883,55.144,55.144,0,0,1,110.287-.2Z" transform="translate(-105.059 -240.297)"/><path d="M158.171,281.5a1.314,1.314,0,0,0,0,2.628A1.314,1.314,0,0,0,158.171,281.5Z" transform="translate(-104.496 -239.852)"/><circle cx="4.89" cy="4.89" r="4.89" transform="translate(40.735 38.583)"/><rect class="j" width="35.826" height="6.166" rx="3.05" transform="translate(37.495 67.423)"/><path class="j" d="M152.761,320.707l20.628-1.039a3.224,3.224,0,0,0,2.934-3.439h0A3.176,3.176,0,0,0,173.1,313.1l-20.628,1.04a3.222,3.222,0,0,0-2.934,3.438h0A3.176,3.176,0,0,0,152.761,320.707Z" transform="translate(-104.576 -239.508)"/><path class="j" d="M157.78,328.177l16.143-2.045a3.257,3.257,0,0,0,2.7-3.651h0A3.142,3.142,0,0,0,173.2,319.6l-16.144,2.045a3.257,3.257,0,0,0-2.7,3.652h0A3.14,3.14,0,0,0,157.78,328.177Z" transform="translate(-104.524 -239.438)"/><path class="j" d="M180.83,306.68l8.022,34.387a29.363,29.363,0,0,1-12.68,6.519s1.806-18.193-6.717-20.426c-11.827-3.1,3.589-4.387,3.589-4.387l.407-13.647" transform="translate(-104.408 -239.578)"/></g><g transform="translate(255.595 238.3)"><path class="h" d="M354.33,292.989a53.581,53.581,0,0,1-6.267,25.373c-.3.505-.505,1.011-.809,1.516-.2.3-.3.607-.505.91a3.546,3.546,0,0,1-.505.809c-.3.4-.505.809-.809,1.213-.3.505-.607.91-.91,1.415a9.161,9.161,0,0,0-1.112,1.617l-.2.2a13.6,13.6,0,0,1-1.112,1.415c-.1.1-.1.2-.2.2-.4.505-.91,1.011-1.314,1.516l-1.516,1.516a54.145,54.145,0,0,1-26.586,15.264c-.91.2-1.921.4-2.932.607-.3,0-.607.1-.91.1a2.512,2.512,0,0,1-.809.1c-.4.1-.809.1-1.213.2h-.1a4.922,4.922,0,0,1-1.213.1h-.4a8.694,8.694,0,0,1-1.617.1c-1.112.1-2.325.1-3.437.1a54.492,54.492,0,0,1-7.48-108.467,60.614,60.614,0,0,1,7.48-.505,54.921,54.921,0,0,1,26.283,6.773h0A52.515,52.515,0,0,1,340.885,257a61.126,61.126,0,0,1,5.257,7.076A55.362,55.362,0,0,1,354.33,292.989Z" transform="translate(-245.357 -238.3)"/><path class="k" d="M342.635,272.513a3.9,3.9,0,0,1-3.336,3.639c-.2.607-.4,1.314-.607,1.921a64.792,64.792,0,0,1-6.47,15.669A36.583,36.583,0,0,1,330,296.977a33.243,33.243,0,0,1-9.7,8.39c-.1,0-.2.1-.3.1a34.267,34.267,0,0,1-3.942,1.82c-4.549,1.617-9.3,1.718-13.344-.505a13.218,13.218,0,0,1-3.336-2.527c-.607-.607-1.112-1.213-1.617-1.82a40.734,40.734,0,0,1-4.145-5.863,75.749,75.749,0,0,1-4.751-9.5,64.224,64.224,0,0,1-3.437-10.816,1.282,1.282,0,0,1-.607-.1,5.312,5.312,0,0,1-2.527-1.921c-.505-.708-.607-1.516-1.112-2.224a6.414,6.414,0,0,1-1.415-5.56c.2-2.022,1.314-3.841,3.033-4.347a1.393,1.393,0,0,1,.91,0,21.29,21.29,0,0,1,2.022-8.9,4.082,4.082,0,0,1-1.82-3.437c.1-4.044,2.932-5.863,6.267-6.166,4.043-.3,8.188-.2,12.232-.1,7.683.2,15.466.4,23.149,1.82h0a52.513,52.513,0,0,1,14.759,11.928,43.867,43.867,0,0,1,.3,10.311,4.046,4.046,0,0,1,1.011,1.213A5.132,5.132,0,0,1,342.635,272.513Z" transform="translate(-244.984 -238.245)"/><path class="k" d="M347.973,317.681c-.3.505-.505,1.011-.809,1.516-.2.3-.3.607-.505.91a3.546,3.546,0,0,1-.505.809c-.3.4-.505.809-.809,1.213-.3.505-.607.91-.91,1.415a9.163,9.163,0,0,0-1.112,1.617l-.2.2a13.6,13.6,0,0,1-1.112,1.415c-.1.1-.1.2-.2.2-.4.505-.91,1.011-1.314,1.516l-1.516,1.516a54.144,54.144,0,0,1-26.586,15.264c-.91.2-1.921.4-2.932.607-.3,0-.606.1-.91.1a2.512,2.512,0,0,1-.809.1c-.4.1-.809.1-1.213.2h-.1a4.922,4.922,0,0,1-1.213.1h-.4a8.691,8.691,0,0,1-1.617.1c-1.112.1-2.325.1-3.437.1a54.359,54.359,0,0,1-46.2-25.575,38.538,38.538,0,0,1,10.614-5.257c6.267-2.022,12.838-2.932,19.106-4.953a37.373,37.373,0,0,0,8.39-3.942,12.522,12.522,0,0,0,2.224-1.82l.505-.505a20.779,20.779,0,0,1,3.336-2.729c.1-.1.2-.1.3-.2s.2-.1.3-.2a1.571,1.571,0,0,1,2.022.505,23.219,23.219,0,0,1,11.423-.607,24.92,24.92,0,0,1,5.964,2.224l.607.3c.3.1.607.3.91.4.4.2.708.3,1.112.505.1.1.3.1.4.2.1-.1.2-.1.4-.2a1.391,1.391,0,0,1,1.112.1,10.59,10.59,0,0,1,1.112.809c.91.708,1.617,1.516,2.527,2.325.505.4,1.011.809,1.617,1.213.809.607,1.718,1.112,2.527,1.617s1.617.91,2.426,1.314a44.214,44.214,0,0,0,6.874,2.729,6.468,6.468,0,0,0,.708.2C342.716,316.064,345.345,316.872,347.973,317.681Z" transform="translate(-245.268 -237.619)"/><rect class="b" width="40.132" height="74.847" rx="7.261" transform="translate(46.399 20.676)"/><path d="M298.061,264.4l-.2.2a.615.615,0,0,0,0,.809l.2.2a.838.838,0,1,0,0-1.213Z" transform="translate(-244.788 -238.019)"/><path class="e" d="M354.333,292.989a53.581,53.581,0,0,1-6.267,25.373c-.3.505-.505,1.011-.809,1.516-.2.3-.3.607-.505.91a3.546,3.546,0,0,1-.505.809c-.2.263-.354.526-.526.788-.081.142-.182.283-.283.425-.3.505-.607.91-.91,1.415a9.16,9.16,0,0,0-1.112,1.617l-.2.2a13.6,13.6,0,0,1-1.112,1.415c-.1.1-.1.2-.2.2-.4.505-.91,1.011-1.314,1.516l-1.516,1.516-.152.152c-.192.2-.394.4-.6.607a52.827,52.827,0,0,1-5.489,4.812.484.484,0,0,1-.152.111,53.912,53.912,0,0,1-12.2,7.015,52.662,52.662,0,0,1-8,2.568c-.334.071-.687.152-1.051.222-.607.131-1.243.253-1.88.384-.3,0-.606.1-.91.1a2.512,2.512,0,0,1-.809.1c-.4.1-.809.1-1.213.2h-.1a4.922,4.922,0,0,1-1.213.1h-.4a8.694,8.694,0,0,1-1.617.1c-1.112.1-2.325.1-3.437.1a54.492,54.492,0,0,1-7.48-108.467,60.613,60.613,0,0,1,7.48-.505,54.921,54.921,0,0,1,26.283,6.773,53.013,53.013,0,0,1,7.905,5.277A51.355,51.355,0,0,1,340.888,257a61.119,61.119,0,0,1,5.257,7.076A55.362,55.362,0,0,1,354.333,292.989Z" transform="translate(-245.357 -238.3)"/><circle cx="4.549" cy="4.549" r="4.549" transform="translate(60.653 33.727)"/><path d="M339.267,276.208l-3.488.364c3.144-21.774-15.952-30.013-36.341-30.579s-10.614,30-10.614,30l-3.437.313c-4.68-26.394-4.286-34.855,14.051-38.009a54.921,54.921,0,0,1,26.283,6.773,53.015,53.015,0,0,1,7.905,5.277A51.356,51.356,0,0,1,340.48,257C342.057,261.469,339.267,276.208,339.267,276.208Z" transform="translate(-244.949 -238.3)"/><path class="l" d="M345.062,321.717c-.081.142-.182.283-.283.425-.3.505-.607.91-.91,1.415a9.164,9.164,0,0,0-1.112,1.617l-.2.2a13.591,13.591,0,0,1-1.112,1.415c-.1.1-.1.2-.2.2-.4.505-.91,1.011-1.314,1.516l-1.516,1.516-.152.152a4.416,4.416,0,0,1-.556-.323c-.01,0-.01-.01-.02-.01l-12.06-8.2-17.387-11.827A5.533,5.533,0,0,1,311.36,299.7a5.489,5.489,0,0,1,3.1.95l29.457,20.015A5.415,5.415,0,0,1,345.062,321.717Z" transform="translate(-244.699 -237.632)"/><path class="l" d="M337.838,329.723a5.784,5.784,0,0,1-.04.93,52.831,52.831,0,0,1-5.489,4.812h-.03c-.142,0-.293-.01-.435-.02a5.451,5.451,0,0,1-1.516-.334l-29.942-11.362-3.346-1.264a5.546,5.546,0,1,1,3.932-10.372l24.787,9.4,8.512,3.225A5.557,5.557,0,0,1,337.838,329.723Z" transform="translate(-244.834 -237.501)"/><path class="l" d="M332.128,335.449a53.911,53.911,0,0,1-12.2,7.016l-19.3-7.844-1.122-.455a5.548,5.548,0,0,1,.849-10.543,5.9,5.9,0,0,1,1.264-.142,5.557,5.557,0,0,1,2.072.4l28.123,11.433Z" transform="translate(-244.806 -237.373)"/><path class="l" d="M326.03,339.375a51.591,51.591,0,0,1-6.146,3,52.661,52.661,0,0,1-8,2.568c-.334.071-.687.152-1.051.222l-7.4-3a5.562,5.562,0,0,1-3.043-7.228c.061-.142.121-.273.192-.4a5.566,5.566,0,0,1,4.963-3.053,5.506,5.506,0,0,1,2.062.4Z" transform="translate(-244.763 -237.286)"/></g></g></g></svg>