<svg xmlns="http://www.w3.org/2000/svg" xmlns:xlink="http://www.w3.org/1999/xlink" width="446.295" height="124.243" viewBox="0 0 446.295 124.243"><defs><style>.a{fill:#fff;}.b,.f{fill:#333;}.c,.h{fill:#ff414f;}.d{fill:#4d4d4d;}.e{fill:none;}.g,.h{stroke:none;}.i{filter:url(#a);}</style><filter id="a" x="0" y="0" width="446.295" height="124.243" filterUnits="userSpaceOnUse"><feOffset dy="3" input="SourceAlpha"/><feGaussianBlur stdDeviation="5" result="b"/><feFlood flood-opacity="0.349"/><feComposite operator="in" in2="b"/><feComposite in="SourceGraphic"/></filter></defs><g transform="translate(14.657 12)"><g class="i" transform="matrix(1, 0, 0, 1, -14.66, -12)"><path class="a" d="M0,0H416.295V94.243H0Z" transform="translate(15 12)"/></g><path class="b" d="M11.414-25.7H5.685V-36.527H2.943v13.1h8.471Zm2.76-8.78a1.37,1.37,0,0,0,1.38-1.362,1.364,1.364,0,0,0-1.38-1.362,1.364,1.364,0,0,0-1.38,1.362A1.37,1.37,0,0,0,14.174-34.476Zm-1.317,11.05h2.651v-9.733H12.857Zm4.413,0h2.651V-29.01a1.928,1.928,0,0,1,1.943-2.134c1.189,0,1.789.726,1.789,2v5.72H26.3V-29.7c0-2.279-1.217-3.641-3.378-3.641a3.075,3.075,0,0,0-3.042,1.916H19.83v-1.734H17.27Zm13.465-5.829H30.7v-7.273H28.047v13.1H30.7V-26.64l.69-.745,2.787,3.959h3.051l-3.9-5.557,3.713-4.177H34.04ZM43.982-26.4a1.938,1.938,0,0,1-1.961,1.226,2.165,2.165,0,0,1-2.234-2.343v-.163H46.5v-.808c0-2.96-1.789-4.876-4.621-4.876-2.878,0-4.694,2.016-4.694,5.121s1.8,5.03,4.794,5.03c2.406,0,4.149-1.28,4.44-3.187Zm-2.079-5a2.02,2.02,0,0,1,2.043,2.1H39.814A2.107,2.107,0,0,1,41.9-31.407Zm9.57,8.135A3.21,3.21,0,0,0,54.5-25.1h.045v1.671h2.615v-13.1H54.514v5.039h-.054a3.129,3.129,0,0,0-2.969-1.825c-2.442,0-3.986,1.916-3.986,5C47.5-25.2,49.039-23.271,51.472-23.271Zm.9-7.917c1.317,0,2.161,1.126,2.161,2.9s-.844,2.887-2.161,2.887c-1.335,0-2.152-1.1-2.152-2.887S51.036-31.189,52.371-31.189ZM60.3-34.476a1.37,1.37,0,0,0,1.38-1.362A1.364,1.364,0,0,0,60.3-37.2a1.364,1.364,0,0,0-1.38,1.362A1.37,1.37,0,0,0,60.3-34.476Zm-1.317,11.05h2.651v-9.733H58.981Zm4.413,0h2.651V-29.01a1.928,1.928,0,0,1,1.943-2.134c1.189,0,1.789.726,1.789,2v5.72h2.651V-29.7c0-2.279-1.217-3.641-3.378-3.641a3.075,3.075,0,0,0-3.042,1.916h-.054v-1.734h-2.56Zm11.431-13.1.218,8.789H77.33l.218-8.789ZM76.186-23.2a1.44,1.44,0,0,0,1.48-1.425,1.44,1.44,0,0,0-1.48-1.425,1.44,1.44,0,0,0-1.48,1.425A1.44,1.44,0,0,0,76.186-23.2Z" transform="translate(106.521 57.753)"/><path d="M3-19.5v-9.581h.056L9.8-19.5h1.049V-30.962H9.773v9.573H9.717L3-30.962H1.924V-19.5Zm13.18.135c2.248,0,3.766-1.645,3.766-4.266S18.425-27.9,16.176-27.9s-3.766,1.637-3.766,4.266S13.928-19.363,16.176-19.363Zm0-.93c-1.621,0-2.693-1.239-2.693-3.337s1.073-3.337,2.693-3.337,2.7,1.239,2.7,3.337S17.8-20.292,16.176-20.292Zm11.845.93c2.248,0,3.766-1.645,3.766-4.266S30.27-27.9,28.021-27.9s-3.766,1.637-3.766,4.266S25.773-19.363,28.021-19.363Zm0-.93c-1.621,0-2.693-1.239-2.693-3.337s1.073-3.337,2.693-3.337,2.7,1.239,2.7,3.337S29.642-20.292,28.021-20.292Zm5.164.794h1.049v-4.894a2.352,2.352,0,0,1,2.391-2.566A2.026,2.026,0,0,1,38.8-24.685V-19.5h1.049v-5.355A2.766,2.766,0,0,0,36.927-27.9a2.793,2.793,0,0,0-2.725,1.66h-.024V-27.76h-.993Zm14.149-2.344a2.237,2.237,0,0,1-2.344,1.557c-1.645,0-2.7-1.16-2.7-3.027v-.064h6.189v-.445c0-2.463-1.382-4.076-3.575-4.076-2.24,0-3.694,1.724-3.694,4.29,0,2.622,1.438,4.242,3.758,4.242a3.221,3.221,0,0,0,3.408-2.479Zm-2.447-5.132a2.536,2.536,0,0,1,2.51,2.765H42.3A2.643,2.643,0,0,1,44.888-26.974Zm5.4-.167,1-3.821h-1.12l-.763,3.821Zm1.486,1.589c0,1.144.739,1.835,2.312,2.2l1.239.294c1.112.27,1.517.667,1.517,1.382,0,.866-.818,1.446-2.058,1.446a1.966,1.966,0,0,1-2.2-1.637H51.537c.143,1.509,1.382,2.5,3.249,2.5,1.8,0,3.114-.993,3.114-2.391,0-1.168-.62-1.8-2.272-2.2l-1.247-.294c-1.1-.262-1.565-.683-1.565-1.359,0-.826.771-1.422,1.9-1.422a1.858,1.858,0,0,1,2.026,1.66H57.75A2.75,2.75,0,0,0,54.715-27.9C52.991-27.9,51.776-26.918,51.776-25.551ZM69.118-27.76h-1.1L65.5-20.6H65.48l-2.51-7.158H61.857L64.932-19.5h1.12Zm1.629-1.716a.7.7,0,0,0,.707-.7.7.7,0,0,0-.707-.7.7.7,0,0,0-.7.7A.7.7,0,0,0,70.747-29.476ZM70.223-19.5h1.049V-27.76H70.223Zm8.644-2.344a2.237,2.237,0,0,1-2.344,1.557c-1.645,0-2.7-1.16-2.7-3.027v-.064H80.01v-.445c0-2.463-1.382-4.076-3.575-4.076-2.24,0-3.694,1.724-3.694,4.29,0,2.622,1.438,4.242,3.758,4.242a3.221,3.221,0,0,0,3.408-2.479Zm-2.447-5.132a2.536,2.536,0,0,1,2.51,2.765h-5.1A2.643,2.643,0,0,1,76.419-26.974Zm15.293-.787H90.656L88.8-20.674h-.024L86.723-27.76H85.659L83.6-20.674h-.024L81.726-27.76H80.662L83.013-19.5h1.112l2.05-6.856H86.2L88.257-19.5h1.112Zm6.777,5.919a2.237,2.237,0,0,1-2.344,1.557c-1.645,0-2.7-1.16-2.7-3.027v-.064h6.189v-.445c0-2.463-1.382-4.076-3.575-4.076-2.24,0-3.694,1.724-3.694,4.29,0,2.622,1.438,4.242,3.758,4.242a3.221,3.221,0,0,0,3.408-2.479Zm-2.447-5.132a2.536,2.536,0,0,1,2.51,2.765h-5.1A2.643,2.643,0,0,1,96.042-26.974Zm8.119,7.611a3.044,3.044,0,0,0,2.86-1.883h.024V-19.5h1V-30.962H106.99v4.9h-.024a2.986,2.986,0,0,0-2.828-1.835c-2.074,0-3.511,1.692-3.511,4.266S102.072-19.363,104.162-19.363Zm.183-7.6c1.573,0,2.653,1.343,2.653,3.337s-1.08,3.337-2.653,3.337c-1.589,0-2.638-1.319-2.638-3.337S102.755-26.966,104.344-26.966Zm9.51,10.455c1.351,0,1.946-.54,2.669-2.487l3.249-8.763H118.66l-2.51,7.214h-.024l-2.51-7.214h-1.128l3.09,8.318-.215.62c-.365,1.033-.779,1.414-1.541,1.414a2.3,2.3,0,0,1-.493-.048v.9A3.286,3.286,0,0,0,113.854-16.511ZM124-19.363c2.248,0,3.766-1.645,3.766-4.266S126.247-27.9,124-27.9s-3.766,1.637-3.766,4.266S121.751-19.363,124-19.363Zm0-.93c-1.621,0-2.693-1.239-2.693-3.337s1.072-3.337,2.693-3.337,2.7,1.239,2.7,3.337S125.62-20.292,124-20.292Zm11.79-7.468H134.74v4.9a2.344,2.344,0,0,1-2.407,2.558,2.007,2.007,0,0,1-2.161-2.272V-27.76h-1.057v5.37a2.763,2.763,0,0,0,2.916,3.027,2.837,2.837,0,0,0,2.741-1.668h.024V-19.5h.993Zm5.593-2.066v2.066H140.15v.874h1.231v5.355c0,1.494.556,2.081,1.938,2.081a6.563,6.563,0,0,0,.779-.048v-.9c-.064.016-.461.032-.572.032-.763,0-1.1-.365-1.1-1.216v-5.307h1.629v-.874H142.43v-2.066Zm7.237,10.463c2.248,0,3.766-1.645,3.766-4.266s-1.517-4.266-3.766-4.266-3.766,1.637-3.766,4.266S146.371-19.363,148.619-19.363Zm0-.93c-1.621,0-2.693-1.239-2.693-3.337s1.073-3.337,2.693-3.337,2.7,1.239,2.7,3.337S150.24-20.292,148.619-20.292Zm8.286.93a3.044,3.044,0,0,0,2.86-1.883h.024V-19.5h1V-30.962h-1.057v4.9h-.024a2.986,2.986,0,0,0-2.828-1.835c-2.074,0-3.511,1.692-3.511,4.266S154.816-19.363,156.905-19.363Zm.183-7.6c1.573,0,2.653,1.343,2.653,3.337s-1.08,3.337-2.653,3.337c-1.589,0-2.638-1.319-2.638-3.337S155.5-26.966,157.088-26.966Zm8.032,7.6a3.078,3.078,0,0,0,2.82-1.708h.024V-19.5h1v-5.656c0-1.684-1.184-2.741-3.067-2.741s-3.1,1.049-3.218,2.526H163.7a1.974,1.974,0,0,1,2.177-1.6,1.814,1.814,0,0,1,2.042,1.907v.715l-2.574.159c-1.907.127-2.963.985-2.963,2.4A2.465,2.465,0,0,0,165.12-19.363Zm.215-.906c-1.12,0-1.891-.62-1.891-1.517,0-.914.723-1.478,2.026-1.565l2.447-.167v.914A2.442,2.442,0,0,1,165.334-20.268Zm5.99,3.758c1.351,0,1.946-.54,2.669-2.487l3.249-8.763h-1.112l-2.51,7.214H173.6l-2.51-7.214h-1.128l3.09,8.318-.214.62c-.365,1.033-.779,1.414-1.541,1.414a2.3,2.3,0,0,1-.493-.048v.9A3.286,3.286,0,0,0,171.324-16.511Zm7.611-14.451.071,7.841h.961l.064-7.841Zm.548,11.535a.734.734,0,0,0,.747-.739.736.736,0,0,0-.747-.747.734.734,0,0,0-.739.747A.732.732,0,0,0,179.484-19.426ZM190.1-19.5V-29.977h3.79v-.985h-8.66v.985h3.782V-19.5Zm5.315.135a3.078,3.078,0,0,0,2.82-1.708h.024V-19.5h1v-5.656c0-1.684-1.184-2.741-3.067-2.741s-3.1,1.049-3.218,2.526h1.017a1.974,1.974,0,0,1,2.177-1.6,1.814,1.814,0,0,1,2.042,1.907v.715l-2.574.159c-1.907.127-2.963.985-2.963,2.4A2.465,2.465,0,0,0,195.412-19.363Zm.215-.906c-1.12,0-1.891-.62-1.891-1.517,0-.914.723-1.478,2.026-1.565l2.447-.167v.914A2.442,2.442,0,0,1,195.627-20.268ZM204.89-27.9a3.021,3.021,0,0,0-2.844,1.883h-.032V-27.76h-.993v11h1.049V-21.2h.032a2.964,2.964,0,0,0,2.812,1.835c2.073,0,3.5-1.692,3.5-4.266S206.979-27.9,204.89-27.9Zm-.183,7.6c-1.565,0-2.638-1.343-2.638-3.337s1.073-3.337,2.638-3.337c1.6,0,2.63,1.327,2.63,3.337S206.3-20.292,204.707-20.292Zm8.509.794h1.057V-24.36a2.378,2.378,0,0,1,2.447-2.6,2.061,2.061,0,0,1,2.2,2.3V-19.5h1.057v-5.339a2.814,2.814,0,0,0-2.955-3.059,2.785,2.785,0,0,0-2.725,1.66h-.024v-4.727h-1.057Zm14.237-2.344a2.237,2.237,0,0,1-2.344,1.557c-1.645,0-2.7-1.16-2.7-3.027v-.064H228.6v-.445c0-2.463-1.382-4.076-3.575-4.076-2.24,0-3.694,1.724-3.694,4.29,0,2.622,1.438,4.242,3.758,4.242a3.221,3.221,0,0,0,3.408-2.479Zm-2.447-5.132a2.536,2.536,0,0,1,2.51,2.765h-5.1A2.643,2.643,0,0,1,225.006-26.974Zm5,7.476h1.049v-5.148a1.982,1.982,0,0,1,1.923-2.248,2.126,2.126,0,0,1,.786.119v-1.033a2.726,2.726,0,0,0-.651-.087,2.1,2.1,0,0,0-2.089,1.6H231v-1.47H230Zm10.129-2.344a2.237,2.237,0,0,1-2.344,1.557c-1.645,0-2.7-1.16-2.7-3.027v-.064h6.189v-.445c0-2.463-1.382-4.076-3.575-4.076-2.24,0-3.694,1.724-3.694,4.29,0,2.622,1.438,4.242,3.758,4.242a3.221,3.221,0,0,0,3.408-2.479Zm-2.447-5.132a2.536,2.536,0,0,1,2.51,2.765h-5.1A2.643,2.643,0,0,1,237.685-26.974Zm8.779-2.852v2.066h-1.231v.874h1.231v5.355c0,1.494.556,2.081,1.938,2.081a6.563,6.563,0,0,0,.779-.048v-.9c-.064.016-.461.032-.572.032-.763,0-1.1-.365-1.1-1.216v-5.307h1.629v-.874h-1.629v-2.066ZM253.7-19.363c2.248,0,3.766-1.645,3.766-4.266S255.949-27.9,253.7-27.9s-3.766,1.637-3.766,4.266S251.453-19.363,253.7-19.363Zm0-.93c-1.621,0-2.693-1.239-2.693-3.337s1.073-3.337,2.693-3.337,2.7,1.239,2.7,3.337S255.322-20.292,253.7-20.292ZM1.59-8.419c0,1.144.739,1.835,2.312,2.2l1.239.294c1.112.27,1.517.667,1.517,1.382C6.659-3.676,5.84-3.1,4.6-3.1A1.966,1.966,0,0,1,2.4-4.732H1.352c.143,1.509,1.382,2.5,3.249,2.5,1.8,0,3.114-.993,3.114-2.391,0-1.168-.62-1.8-2.272-2.2L4.2-7.116C3.1-7.378,2.631-7.8,2.631-8.474,2.631-9.3,3.4-9.9,4.53-9.9a1.858,1.858,0,0,1,2.026,1.66H7.564A2.75,2.75,0,0,0,4.53-10.762C2.806-10.762,1.59-9.785,1.59-8.419Zm13.243,3.71A2.237,2.237,0,0,1,12.49-3.152c-1.645,0-2.7-1.16-2.7-3.027v-.064h6.189v-.445c0-2.463-1.382-4.076-3.575-4.076-2.24,0-3.694,1.724-3.694,4.29,0,2.622,1.438,4.242,3.758,4.242a3.221,3.221,0,0,0,3.408-2.479ZM12.387-9.841A2.536,2.536,0,0,1,14.9-7.076H9.8A2.643,2.643,0,0,1,12.387-9.841ZM23.1-4.709a2.237,2.237,0,0,1-2.344,1.557c-1.645,0-2.7-1.16-2.7-3.027v-.064H24.24v-.445c0-2.463-1.382-4.076-3.575-4.076-2.24,0-3.694,1.724-3.694,4.29,0,2.622,1.438,4.242,3.758,4.242a3.221,3.221,0,0,0,3.408-2.479ZM20.649-9.841a2.536,2.536,0,0,1,2.51,2.765h-5.1A2.643,2.643,0,0,1,20.649-9.841Zm18.622-.787H38.214L36.363-3.541h-.024l-2.058-7.087H33.217L31.16-3.541h-.024l-1.851-7.087H28.22l2.352,8.262h1.112l2.05-6.856h.024l2.058,6.856h1.112Zm1.136,8.262h1.057V-7.227a2.378,2.378,0,0,1,2.447-2.6,2.061,2.061,0,0,1,2.2,2.3v5.164h1.057V-7.7a2.814,2.814,0,0,0-2.955-3.059A2.785,2.785,0,0,0,41.487-9.1h-.024v-4.727H40.407Zm11.877.135c2.248,0,3.766-1.645,3.766-4.266s-1.517-4.266-3.766-4.266S48.518-9.126,48.518-6.5,50.036-2.23,52.284-2.23Zm0-.93c-1.621,0-2.693-1.239-2.693-3.337s1.073-3.337,2.693-3.337,2.7,1.239,2.7,3.337S53.9-3.159,52.284-3.159Zm5.3-6.848,1-3.821h-1.12L56.7-10.008Zm1.486,1.589c0,1.144.739,1.835,2.312,2.2l1.239.294c1.112.27,1.517.667,1.517,1.382,0,.866-.818,1.446-2.058,1.446a1.966,1.966,0,0,1-2.2-1.637H58.83c.143,1.509,1.382,2.5,3.249,2.5,1.8,0,3.114-.993,3.114-2.391,0-1.168-.62-1.8-2.272-2.2l-1.247-.294c-1.1-.262-1.565-.683-1.565-1.359,0-.826.771-1.422,1.9-1.422a1.858,1.858,0,0,1,2.026,1.66h1.009a2.75,2.75,0,0,0-3.035-2.526C60.284-10.762,59.069-9.785,59.069-8.419Zm17.343-2.209h-1.1L72.8-3.469h-.024l-2.51-7.158H69.15l3.075,8.262h1.12Zm1.629-1.716a.7.7,0,0,0,.707-.7.7.7,0,0,0-.707-.7.7.7,0,0,0-.7.7A.7.7,0,0,0,78.04-12.343Zm-.524,9.978h1.049v-8.262H77.516Zm8.644-2.344a2.237,2.237,0,0,1-2.344,1.557c-1.645,0-2.7-1.16-2.7-3.027v-.064H87.3v-.445c0-2.463-1.382-4.076-3.575-4.076-2.24,0-3.694,1.724-3.694,4.29,0,2.622,1.438,4.242,3.758,4.242A3.221,3.221,0,0,0,87.2-4.709ZM83.712-9.841a2.536,2.536,0,0,1,2.51,2.765h-5.1A2.643,2.643,0,0,1,83.712-9.841Zm15.293-.787H97.949L96.1-3.541h-.024l-2.058-7.087H92.952L90.894-3.541H90.87l-1.851-7.087H87.955l2.352,8.262h1.112l2.05-6.856h.024L95.55-2.365h1.112Zm6.777,5.919a2.237,2.237,0,0,1-2.344,1.557c-1.645,0-2.7-1.16-2.7-3.027v-.064h6.189v-.445c0-2.463-1.382-4.076-3.575-4.076-2.24,0-3.694,1.724-3.694,4.29,0,2.622,1.438,4.242,3.758,4.242a3.221,3.221,0,0,0,3.408-2.479Zm-2.447-5.132a2.536,2.536,0,0,1,2.51,2.765h-5.1A2.643,2.643,0,0,1,103.335-9.841Zm8.119,7.611a3.044,3.044,0,0,0,2.86-1.883h.024v1.748h1V-13.829h-1.057v4.9h-.024a2.986,2.986,0,0,0-2.828-1.835c-2.074,0-3.511,1.692-3.511,4.266S109.365-2.23,111.455-2.23Zm.183-7.6c1.573,0,2.653,1.343,2.653,3.337s-1.08,3.337-2.653,3.337C110.049-3.159,109-4.478,109-6.5S110.049-9.833,111.637-9.833ZM121.147.622c1.351,0,1.946-.54,2.669-2.487l3.249-8.763h-1.112l-2.51,7.214h-.024l-2.51-7.214h-1.128l3.09,8.318-.215.62c-.365,1.033-.779,1.414-1.541,1.414a2.3,2.3,0,0,1-.493-.048v.9A3.286,3.286,0,0,0,121.147.622ZM131.292-2.23c2.248,0,3.766-1.645,3.766-4.266s-1.517-4.266-3.766-4.266-3.766,1.637-3.766,4.266S129.044-2.23,131.292-2.23Zm0-.93c-1.621,0-2.693-1.239-2.693-3.337s1.073-3.337,2.693-3.337,2.7,1.239,2.7,3.337S132.913-3.159,131.292-3.159Zm11.79-7.468h-1.049v4.9a2.344,2.344,0,0,1-2.407,2.558,2.007,2.007,0,0,1-2.161-2.272v-5.188h-1.057v5.37a2.763,2.763,0,0,0,2.916,3.027A2.837,2.837,0,0,0,142.065-3.9h.024v1.533h.993Zm5.14,8.262h1.049V-7.513a1.982,1.982,0,0,1,1.923-2.248,2.127,2.127,0,0,1,.787.119v-1.033a2.726,2.726,0,0,0-.651-.087,2.1,2.1,0,0,0-2.089,1.6h-.024v-1.47h-.993Zm10.129-2.344a2.237,2.237,0,0,1-2.344,1.557c-1.645,0-2.7-1.16-2.7-3.027v-.064H159.5v-.445c0-2.463-1.382-4.076-3.575-4.076-2.24,0-3.694,1.724-3.694,4.29,0,2.622,1.438,4.242,3.758,4.242a3.221,3.221,0,0,0,3.408-2.479ZM155.9-9.841a2.536,2.536,0,0,1,2.51,2.765h-5.1A2.643,2.643,0,0,1,155.9-9.841Zm11.718,1.827a3.251,3.251,0,0,0-3.4-2.749c-2.248,0-3.734,1.66-3.734,4.266,0,2.646,1.486,4.266,3.742,4.266a3.225,3.225,0,0,0,3.4-2.693H166.59a2.24,2.24,0,0,1-2.352,1.764c-1.613,0-2.677-1.263-2.677-3.337,0-2.042,1.057-3.337,2.669-3.337a2.289,2.289,0,0,1,2.36,1.819Zm7.031,3.3a2.237,2.237,0,0,1-2.344,1.557c-1.645,0-2.7-1.16-2.7-3.027v-.064H175.8v-.445c0-2.463-1.382-4.076-3.575-4.076-2.24,0-3.694,1.724-3.694,4.29,0,2.622,1.438,4.242,3.758,4.242a3.221,3.221,0,0,0,3.408-2.479Zm-2.447-5.132a2.536,2.536,0,0,1,2.51,2.765h-5.1A2.643,2.643,0,0,1,172.206-9.841Zm5,7.476h1.049V-7.259a2.352,2.352,0,0,1,2.391-2.566,2.026,2.026,0,0,1,2.177,2.272v5.188h1.049V-7.72a2.766,2.766,0,0,0-2.924-3.043A2.793,2.793,0,0,0,178.22-9.1H178.2v-1.525H177.2Zm8.89-10.328v2.066h-1.231v.874h1.231V-4.4c0,1.494.556,2.081,1.938,2.081a6.563,6.563,0,0,0,.779-.048v-.9c-.064.016-.461.032-.572.032-.763,0-1.1-.365-1.1-1.216V-9.753h1.629v-.874h-1.629v-2.066Zm4.242,10.328h1.049V-13.829h-1.049ZM193.863.622c1.351,0,1.946-.54,2.669-2.487l3.249-8.763h-1.112l-2.51,7.214h-.024l-2.51-7.214H192.5l3.09,8.318-.214.62c-.365,1.033-.779,1.414-1.541,1.414a2.3,2.3,0,0,1-.493-.048v.9A3.286,3.286,0,0,0,193.863.622Zm6.689-2.916a.732.732,0,0,0,.739-.739.734.734,0,0,0-.739-.747.741.741,0,0,0-.747.747A.739.739,0,0,0,200.552-2.293Z" transform="translate(107.522 78.741)"/><rect class="c" width="81.933" height="94.243" transform="translate(0 0)"/><path class="d" d="M.393,0H.66V-2.123A1.149,1.149,0,0,1,1.818-3.37a1.021,1.021,0,0,1,1.094,1.1V0h.267V-2.3a1.22,1.22,0,0,0-1.3-1.306,1.242,1.242,0,0,0-1.23.827H.643v-.772H.393ZM5.7.055A1.616,1.616,0,0,0,7.285-1.777,1.616,1.616,0,0,0,5.7-3.609,1.613,1.613,0,0,0,4.117-1.777,1.613,1.613,0,0,0,5.7.055Zm0-.239c-.79,0-1.316-.6-1.316-1.593S4.91-3.37,5.7-3.37s1.319.6,1.319,1.593S6.489-.185,5.7-.185Zm6.854-3.37h-.28L11.364-.294h-.01l-.988-3.261h-.3L9.074-.294H9.067L8.155-3.555H7.878L8.91,0h.314l.984-3.213h.01L11.21,0h.308Z" transform="translate(382.943 25.297)"/><path class="e" d="M-3067.115-1411.823h29.4v29.4h-29.4Z" transform="translate(3092.615 1438.041)"/><g transform="translate(29.877 36.014)"><path class="b" d="M-3034.708-1385.368h-18.958a1.612,1.612,0,0,0-1.629,1.592v18.994a1.62,1.62,0,0,0,1.629,1.629h18.921a1.612,1.612,0,0,0,1.629-1.592v-19.032A1.557,1.557,0,0,0-3034.708-1385.368Zm-14,18.921h-3.3v-10.59h3.3Zm-1.666-12a1.912,1.912,0,0,1-1.926-1.926,1.96,1.96,0,0,1,1.926-1.925,1.936,1.936,0,0,1,1.926,1.925A1.936,1.936,0,0,1-3050.37-1378.444Zm14,12h-3.3v-5.147c0-1.222-.037-2.814-1.7-2.814-1.7,0-1.962,1.333-1.962,2.74v5.258h-3.3v-10.627h3.147v1.444h.038a3.428,3.428,0,0,1,3.11-1.7c3.332,0,3.962,2.185,3.962,5.036Z" transform="translate(3055.295 1385.368)"/></g><g class="f" transform="translate(1672.047 839.342)"><path class="g" d="M -1610.2548828125 -780.3384399414062 L -1625.878173828125 -780.3384399414062 C -1626.734497070312 -780.3384399414062 -1627.490600585938 -780.7596435546875 -1627.900756835938 -781.4652099609375 C -1628.309692382812 -782.1688232421875 -1628.300170898438 -783.03515625 -1627.875122070312 -783.7825927734375 L -1620.056518554688 -797.5119018554688 C -1619.62841796875 -798.263916015625 -1618.884399414062 -798.7129516601562 -1618.06640625 -798.7129516601562 C -1617.249755859375 -798.7129516601562 -1616.505859375 -798.2637939453125 -1616.076538085938 -797.5114135742188 L -1608.258178710938 -783.7806396484375 C -1607.83349609375 -783.0337524414062 -1607.82373046875 -782.16845703125 -1608.23193359375 -781.465576171875 C -1608.642700195312 -780.759521484375 -1609.398803710938 -780.3384399414062 -1610.2548828125 -780.3384399414062 Z M -1618.1181640625 -792.3191528320312 C -1618.164184570312 -792.3191528320312 -1618.20166015625 -792.28173828125 -1618.20166015625 -792.2357788085938 L -1618.20166015625 -788.3350219726562 C -1618.20166015625 -788.2888793945312 -1618.164184570312 -788.2512817382812 -1618.1181640625 -788.2512817382812 C -1618.072021484375 -788.2512817382812 -1618.034423828125 -788.2888793945312 -1618.034423828125 -788.3350219726562 L -1618.034423828125 -792.2357788085938 C -1618.034423828125 -792.28173828125 -1618.072021484375 -792.3191528320312 -1618.1181640625 -792.3191528320312 Z"/><path class="h" d="M -1610.2548828125 -781.3384399414062 C -1609.7568359375 -781.3384399414062 -1609.323974609375 -781.5770874023438 -1609.0966796875 -781.9677124023438 C -1608.86962890625 -782.3587036132812 -1608.881103515625 -782.8530883789062 -1609.127197265625 -783.2858276367188 L -1616.945068359375 -797.0158081054688 C -1617.193603515625 -797.4513549804688 -1617.612548828125 -797.7129516601562 -1618.06640625 -797.7129516601562 C -1618.5205078125 -797.7129516601562 -1618.939453125 -797.4528198242188 -1619.1875 -797.0170288085938 L -1627.005859375 -783.2882690429688 C -1627.251953125 -782.8555297851562 -1627.263427734375 -782.3587036132812 -1627.0361328125 -781.9677124023438 C -1626.80908203125 -781.5770874023438 -1626.3759765625 -781.3384399414062 -1625.878173828125 -781.3384399414062 L -1610.2548828125 -781.3384399414062 M -1618.06640625 -786.0270385742188 C -1617.468017578125 -786.0270385742188 -1616.98291015625 -785.5418090820312 -1616.98291015625 -784.9432983398438 C -1616.98291015625 -784.3450317382812 -1617.468017578125 -783.8599243164062 -1618.06640625 -783.8599243164062 C -1618.6650390625 -783.8599243164062 -1619.14990234375 -784.3450317382812 -1619.14990234375 -784.9432983398438 C -1619.14990234375 -785.5418090820312 -1618.6650390625 -786.0270385742188 -1618.06640625 -786.0270385742188 M -1618.1181640625 -793.3191528320312 C -1617.51953125 -793.3191528320312 -1617.034423828125 -792.8340454101562 -1617.034423828125 -792.2357788085938 L -1617.034423828125 -788.3350219726562 C -1617.034423828125 -787.7366333007812 -1617.51953125 -787.2512817382812 -1618.1181640625 -787.2512817382812 C -1618.71630859375 -787.2512817382812 -1619.20166015625 -787.7366333007812 -1619.20166015625 -788.3350219726562 L -1619.20166015625 -792.2357788085938 C -1619.20166015625 -792.8340454101562 -1618.71630859375 -793.3191528320312 -1618.1181640625 -793.3191528320312 M -1610.2548828125 -779.3384399414062 L -1625.878173828125 -779.3384399414062 C -1627.094848632812 -779.3384399414062 -1628.174072265625 -779.9456176757812 -1628.765258789062 -780.962646484375 C -1629.346435546875 -781.9623413085938 -1629.33837890625 -783.2323608398438 -1628.744384765625 -784.2769165039062 L -1620.925415039062 -798.0067749023438 C -1620.3173828125 -799.0750122070312 -1619.24853515625 -799.7129516601562 -1618.06640625 -799.7129516601562 C -1616.886108398438 -799.7129516601562 -1615.817504882812 -799.0752563476562 -1615.2080078125 -798.0070190429688 L -1607.38916015625 -784.2754516601562 C -1606.786254882812 -783.21533203125 -1606.778198242188 -781.9774780273438 -1607.3671875 -780.96337890625 C -1607.95947265625 -779.9453125 -1609.038696289062 -779.3384399414062 -1610.2548828125 -779.3384399414062 Z"/></g></g></svg>