<svg xmlns="http://www.w3.org/2000/svg" xmlns:xlink="http://www.w3.org/1999/xlink" width="446.295" height="111.839" viewBox="0 0 446.295 111.839"><defs><style>.a{fill:#fff;}.b,.f{fill:#333;}.c,.h{fill:#ff414f;}.d{fill:#4d4d4d;}.e{fill:none;}.g,.h{stroke:none;}.i{filter:url(#a);}</style><filter id="a" x="0" y="0" width="446.295" height="111.839" filterUnits="userSpaceOnUse"><feOffset dy="3" input="SourceAlpha"/><feGaussianBlur stdDeviation="5" result="b"/><feFlood flood-opacity="0.349"/><feComposite operator="in" in2="b"/><feComposite in="SourceGraphic"/></filter></defs><g transform="translate(14.657 12)"><g class="i" transform="matrix(1, 0, 0, 1, -14.66, -12)"><rect class="a" width="416.295" height="81.839" transform="translate(15 12)"/></g><path class="b" d="M7.705-23.426V-34.267h3.8v-2.261H1.177v2.261H4.963v10.841Zm6.224-11.05a1.37,1.37,0,0,0,1.38-1.362,1.364,1.364,0,0,0-1.38-1.362,1.364,1.364,0,0,0-1.38,1.362A1.37,1.37,0,0,0,13.929-34.476Zm-1.317,11.05h2.651v-9.733H12.612Zm4.6,0h2.651V-29.01a1.928,1.928,0,0,1,1.943-2.134c1.189,0,1.789.726,1.789,2v5.72h2.651V-29.7c0-2.279-1.217-3.641-3.378-3.641a3.075,3.075,0,0,0-3.042,1.916h-.054v-1.734h-2.56Zm14.513.154A3.21,3.21,0,0,0,34.757-25.1H34.8v1.671h2.615v-13.1H34.766v5.039h-.054a3.129,3.129,0,0,0-2.969-1.825c-2.442,0-3.986,1.916-3.986,5C27.757-25.2,29.291-23.272,31.724-23.272Zm.9-7.917c1.317,0,2.161,1.126,2.161,2.9s-.844,2.887-2.161,2.887c-1.335,0-2.152-1.1-2.152-2.887S31.288-31.189,32.623-31.189ZM45.82-26.4a1.938,1.938,0,0,1-1.961,1.226,2.165,2.165,0,0,1-2.234-2.342v-.163h6.71v-.808c0-2.96-1.789-4.876-4.621-4.876-2.878,0-4.694,2.016-4.694,5.121s1.8,5.03,4.794,5.03c2.406,0,4.149-1.28,4.44-3.187Zm-2.079-5a2.02,2.02,0,0,1,2.043,2.1H41.652A2.107,2.107,0,0,1,43.741-31.407Zm6.142,7.981h2.651v-5.439a1.939,1.939,0,0,1,2.07-2.17,2.728,2.728,0,0,1,.962.154v-2.333a2.7,2.7,0,0,0-.754-.1A2.323,2.323,0,0,0,52.5-31.407h-.054v-1.752h-2.56Zm7.667-13.1.218,8.789h2.288l.218-8.789ZM58.912-23.2a1.44,1.44,0,0,0,1.48-1.425,1.44,1.44,0,0,0-1.48-1.425,1.44,1.44,0,0,0-1.48,1.425A1.44,1.44,0,0,0,58.912-23.2Z" transform="translate(107.632 57.753)"/><path d="M5.685-19.5V-29.977h3.79v-.985H.815v.985H4.6V-19.5Zm5.223,0h1.057V-24.36a2.378,2.378,0,0,1,2.447-2.6,2.061,2.061,0,0,1,2.2,2.3V-19.5h1.057v-5.339A2.814,2.814,0,0,0,14.714-27.9a2.785,2.785,0,0,0-2.725,1.66h-.024v-4.727H10.909Zm14.4-2.344a2.237,2.237,0,0,1-2.344,1.557c-1.645,0-2.7-1.16-2.7-3.027v-.064h6.189v-.445c0-2.463-1.382-4.076-3.575-4.076-2.24,0-3.694,1.724-3.694,4.29,0,2.622,1.438,4.242,3.758,4.242a3.221,3.221,0,0,0,3.408-2.479Zm-2.447-5.132a2.536,2.536,0,0,1,2.51,2.765h-5.1A2.643,2.643,0,0,1,22.861-26.974Zm5.16,7.476H29.07v-5.148a1.982,1.982,0,0,1,1.923-2.248,2.127,2.127,0,0,1,.787.119v-1.033a2.726,2.726,0,0,0-.651-.087,2.1,2.1,0,0,0-2.089,1.6h-.024v-1.47h-.993Zm10.292-2.344a2.237,2.237,0,0,1-2.344,1.557c-1.645,0-2.7-1.16-2.7-3.027v-.064h6.189v-.445c0-2.463-1.382-4.076-3.575-4.076-2.24,0-3.694,1.724-3.694,4.29,0,2.622,1.438,4.242,3.758,4.242a3.221,3.221,0,0,0,3.408-2.479Zm-2.447-5.132a2.536,2.536,0,0,1,2.51,2.765h-5.1A2.643,2.643,0,0,1,35.866-26.974Zm5.565-.167,1-3.821h-1.12l-.763,3.821Zm1.648,1.589c0,1.144.739,1.835,2.312,2.2l1.239.294c1.112.27,1.517.667,1.517,1.382,0,.866-.818,1.446-2.058,1.446a1.966,1.966,0,0,1-2.2-1.637H42.841c.143,1.509,1.382,2.5,3.249,2.5,1.8,0,3.114-.993,3.114-2.391,0-1.168-.62-1.8-2.272-2.2l-1.247-.294c-1.1-.262-1.565-.683-1.565-1.359,0-.826.771-1.422,1.9-1.422a1.858,1.858,0,0,1,2.026,1.66h1.009A2.75,2.75,0,0,0,46.019-27.9C44.295-27.9,43.079-26.918,43.079-25.551ZM54.265-19.5h1.049v-4.894A2.352,2.352,0,0,1,57.7-26.958a2.026,2.026,0,0,1,2.177,2.272V-19.5H60.93v-5.355A2.766,2.766,0,0,0,58.007-27.9a2.793,2.793,0,0,0-2.725,1.66h-.024V-27.76h-.993Zm11.952.135c2.248,0,3.766-1.645,3.766-4.266S68.465-27.9,66.217-27.9s-3.766,1.637-3.766,4.266S63.969-19.363,66.217-19.363Zm0-.93c-1.621,0-2.693-1.239-2.693-3.337s1.073-3.337,2.693-3.337,2.7,1.239,2.7,3.337S67.838-20.292,66.217-20.292Zm12.171.93c2.248,0,3.766-1.645,3.766-4.266S80.636-27.9,78.388-27.9s-3.766,1.637-3.766,4.266S76.139-19.363,78.388-19.363Zm0-.93c-1.621,0-2.693-1.239-2.693-3.337s1.073-3.337,2.693-3.337,2.7,1.239,2.7,3.337S80.008-20.292,78.388-20.292Zm5.327.794h1.049v-4.894a2.352,2.352,0,0,1,2.391-2.566,2.026,2.026,0,0,1,2.177,2.272V-19.5H90.38v-5.355A2.766,2.766,0,0,0,87.456-27.9a2.793,2.793,0,0,0-2.725,1.66h-.024V-27.76h-.993Zm14.312-2.344a2.237,2.237,0,0,1-2.344,1.557c-1.645,0-2.7-1.16-2.7-3.027v-.064H99.17v-.445c0-2.463-1.382-4.076-3.575-4.076-2.24,0-3.694,1.724-3.694,4.29,0,2.622,1.438,4.242,3.758,4.242a3.221,3.221,0,0,0,3.408-2.479Zm-2.447-5.132a2.536,2.536,0,0,1,2.51,2.765h-5.1A2.643,2.643,0,0,1,95.579-26.974Zm8.651,7.476h1.049v-4.894a2.352,2.352,0,0,1,2.391-2.566,2.026,2.026,0,0,1,2.177,2.272V-19.5H110.9v-5.355a2.766,2.766,0,0,0-2.924-3.043,2.793,2.793,0,0,0-2.725,1.66h-.024V-27.76h-.993Zm14.312-2.344a2.237,2.237,0,0,1-2.344,1.557c-1.645,0-2.7-1.16-2.7-3.027v-.064h6.189v-.445c0-2.463-1.382-4.076-3.575-4.076-2.24,0-3.694,1.724-3.694,4.29,0,2.622,1.438,4.242,3.758,4.242a3.221,3.221,0,0,0,3.408-2.479ZM116.1-26.974a2.536,2.536,0,0,1,2.51,2.765h-5.1A2.643,2.643,0,0,1,116.1-26.974Zm15.456-.787h-1.057l-1.851,7.086h-.024l-2.058-7.086H125.5l-2.058,7.086h-.024l-1.851-7.086H120.5l2.352,8.262h1.112l2.05-6.856h.024L128.1-19.5h1.112Zm7.166,8.4a3.078,3.078,0,0,0,2.82-1.708h.024V-19.5h1v-5.656c0-1.684-1.184-2.741-3.067-2.741s-3.1,1.049-3.218,2.526h1.017a1.974,1.974,0,0,1,2.177-1.6,1.814,1.814,0,0,1,2.042,1.907v.715l-2.574.159c-1.907.127-2.963.985-2.963,2.4A2.465,2.465,0,0,0,138.717-19.363Zm.214-.906c-1.12,0-1.891-.62-1.891-1.517,0-.914.723-1.478,2.026-1.565l2.447-.167v.914A2.442,2.442,0,0,1,138.932-20.268Zm5.557.771h1.049v-5.148a1.982,1.982,0,0,1,1.923-2.248,2.127,2.127,0,0,1,.787.119v-1.033a2.726,2.726,0,0,0-.651-.087,2.1,2.1,0,0,0-2.089,1.6h-.024v-1.47h-.993Zm7.932.135c2.248,0,3.766-1.645,3.766-4.266s-1.517-4.266-3.766-4.266-3.766,1.637-3.766,4.266S150.173-19.363,152.421-19.363Zm0-.93c-1.621,0-2.693-1.239-2.693-3.337s1.073-3.337,2.693-3.337,2.7,1.239,2.7,3.337S154.042-20.292,152.421-20.292Zm11.952-7.468h-1.049v4.9a2.344,2.344,0,0,1-2.407,2.558,2.007,2.007,0,0,1-2.161-2.272V-27.76H157.7v5.37a2.763,2.763,0,0,0,2.916,3.027,2.837,2.837,0,0,0,2.741-1.668h.024V-19.5h.993Zm1.974,8.262H167.4v-4.894a2.352,2.352,0,0,1,2.391-2.566,2.026,2.026,0,0,1,2.177,2.272V-19.5h1.049v-5.355a2.766,2.766,0,0,0-2.924-3.043,2.793,2.793,0,0,0-2.725,1.66h-.024V-27.76h-.993Zm11.722.135a3.043,3.043,0,0,0,2.86-1.883h.024V-19.5h1V-30.962H180.9v4.9h-.024a2.986,2.986,0,0,0-2.828-1.835c-2.074,0-3.511,1.692-3.511,4.266S175.98-19.363,178.069-19.363Zm.183-7.6c1.573,0,2.653,1.343,2.653,3.337s-1.08,3.337-2.653,3.337c-1.589,0-2.638-1.319-2.638-3.337S176.663-26.966,178.252-26.966Zm9.835,10.455c1.351,0,1.946-.54,2.669-2.487l3.249-8.763h-1.112l-2.51,7.214h-.024l-2.51-7.214h-1.128l3.09,8.318-.215.62c-.365,1.033-.779,1.414-1.541,1.414a2.3,2.3,0,0,1-.493-.048v.9A3.285,3.285,0,0,0,188.087-16.511Zm10.308-2.852c2.248,0,3.766-1.645,3.766-4.266s-1.517-4.266-3.766-4.266-3.766,1.637-3.766,4.266S196.147-19.363,198.395-19.363Zm0-.93c-1.621,0-2.693-1.239-2.693-3.337s1.072-3.337,2.693-3.337,2.7,1.239,2.7,3.337S200.016-20.292,198.395-20.292Zm11.952-7.468H209.3v4.9a2.344,2.344,0,0,1-2.407,2.558,2.007,2.007,0,0,1-2.161-2.272V-27.76h-1.057v5.37a2.763,2.763,0,0,0,2.916,3.027,2.837,2.837,0,0,0,2.741-1.668h.024V-19.5h.993Zm2.626-3.2.072,7.841h.961l.064-7.841Zm.548,11.535a.734.734,0,0,0,.747-.739.736.736,0,0,0-.747-.747.734.734,0,0,0-.739.747A.732.732,0,0,0,213.521-19.426Z" transform="translate(107.86 78.74)"/><rect class="c" width="81.933" height="81.839" transform="translate(0 0)"/><path class="d" d="M.393,0H.66V-2.123A1.149,1.149,0,0,1,1.818-3.37a1.021,1.021,0,0,1,1.094,1.1V0h.267V-2.3a1.22,1.22,0,0,0-1.3-1.306,1.242,1.242,0,0,0-1.23.827H.643v-.772H.393ZM5.7.055A1.616,1.616,0,0,0,7.285-1.777,1.616,1.616,0,0,0,5.7-3.609,1.613,1.613,0,0,0,4.117-1.777,1.613,1.613,0,0,0,5.7.055Zm0-.239c-.79,0-1.316-.6-1.316-1.593S4.91-3.37,5.7-3.37s1.319.6,1.319,1.593S6.489-.185,5.7-.185Zm6.854-3.37h-.28L11.364-.294h-.01l-.988-3.261h-.3L9.074-.294H9.067L8.155-3.555H7.878L8.91,0h.314l.984-3.213h.01L11.21,0h.308Z" transform="translate(382.943 25.297)"/><path class="e" d="M-3067.115-614.73h29.4v29.4h-29.4Z" transform="translate(3092.615 640.948)"/><path class="b" d="M-3041.918-623.382c.259.2.483.441.73.654a37.043,37.043,0,0,1,5.926,7.033,23.5,23.5,0,0,1,3.362,8.231,16.837,16.837,0,0,1,.225,4.887,10.058,10.058,0,0,1-.415,2.012,10.96,10.96,0,0,1-1.252,2.689,7.618,7.618,0,0,1-1.742,1.871,8.365,8.365,0,0,1-2.5,1.267,15.389,15.389,0,0,1-3.423.623,20.661,20.661,0,0,1-4.146-.053,12.75,12.75,0,0,1-4.5-1.358,7.885,7.885,0,0,1-3.141-2.986,8.42,8.42,0,0,1-.986-4.861,14.885,14.885,0,0,1,1.446-5.085,25.685,25.685,0,0,1,2.317-3.921,29.174,29.174,0,0,1,2.438-3c.015-.011.045-.038.064-.049a7.7,7.7,0,0,0,.289,2.358,6.076,6.076,0,0,0,1.145,2.141c.031.038.053.091.11.1a14.26,14.26,0,0,0,3.031-2.944,9.185,9.185,0,0,0,1.662-4.017A10.844,10.844,0,0,0-3041.918-623.382Z" transform="translate(3079.231 646.397)"/><rect class="c" width="5.056" height="16.337" rx="2.528" transform="translate(64.115 27.716)"/><g transform="translate(39.848 36.058)"><g class="f" transform="translate(1627.199 797.713)"><path class="g" d="M -1610.2548828125 -780.3384399414062 L -1625.878173828125 -780.3384399414062 C -1626.734497070312 -780.3384399414062 -1627.490600585938 -780.7596435546875 -1627.900756835938 -781.4652099609375 C -1628.309692382812 -782.1688232421875 -1628.300170898438 -783.03515625 -1627.875122070312 -783.7825927734375 L -1620.056518554688 -797.5119018554688 C -1619.62841796875 -798.263916015625 -1618.884399414062 -798.7129516601562 -1618.06640625 -798.7129516601562 C -1617.249755859375 -798.7129516601562 -1616.505859375 -798.2637939453125 -1616.076538085938 -797.5114135742188 L -1608.258178710938 -783.7806396484375 C -1607.83349609375 -783.0337524414062 -1607.82373046875 -782.16845703125 -1608.23193359375 -781.465576171875 C -1608.642700195312 -780.759521484375 -1609.398803710938 -780.3384399414062 -1610.2548828125 -780.3384399414062 Z M -1618.1181640625 -792.3191528320312 C -1618.164184570312 -792.3191528320312 -1618.20166015625 -792.28173828125 -1618.20166015625 -792.2357788085938 L -1618.20166015625 -788.3350219726562 C -1618.20166015625 -788.2888793945312 -1618.164184570312 -788.2512817382812 -1618.1181640625 -788.2512817382812 C -1618.072021484375 -788.2512817382812 -1618.034423828125 -788.2888793945312 -1618.034423828125 -788.3350219726562 L -1618.034423828125 -792.2357788085938 C -1618.034423828125 -792.28173828125 -1618.072021484375 -792.3191528320312 -1618.1181640625 -792.3191528320312 Z"/><path class="h" d="M -1610.2548828125 -781.3384399414062 C -1609.7568359375 -781.3384399414062 -1609.323974609375 -781.5770874023438 -1609.0966796875 -781.9677124023438 C -1608.86962890625 -782.3587036132812 -1608.881103515625 -782.8530883789062 -1609.127197265625 -783.2858276367188 L -1616.945068359375 -797.0158081054688 C -1617.193603515625 -797.4513549804688 -1617.612548828125 -797.7129516601562 -1618.06640625 -797.7129516601562 C -1618.5205078125 -797.7129516601562 -1618.939453125 -797.4528198242188 -1619.1875 -797.0170288085938 L -1627.005859375 -783.2882690429688 C -1627.251953125 -782.8555297851562 -1627.263427734375 -782.3587036132812 -1627.0361328125 -781.9677124023438 C -1626.80908203125 -781.5770874023438 -1626.3759765625 -781.3384399414062 -1625.878173828125 -781.3384399414062 L -1610.2548828125 -781.3384399414062 M -1618.06640625 -786.0270385742188 C -1617.468017578125 -786.0270385742188 -1616.98291015625 -785.5418090820312 -1616.98291015625 -784.9432983398438 C -1616.98291015625 -784.3450317382812 -1617.468017578125 -783.8599243164062 -1618.06640625 -783.8599243164062 C -1618.6650390625 -783.8599243164062 -1619.14990234375 -784.3450317382812 -1619.14990234375 -784.9432983398438 C -1619.14990234375 -785.5418090820312 -1618.6650390625 -786.0270385742188 -1618.06640625 -786.0270385742188 M -1618.1181640625 -793.3191528320312 C -1617.51953125 -793.3191528320312 -1617.034423828125 -792.8340454101562 -1617.034423828125 -792.2357788085938 L -1617.034423828125 -788.3350219726562 C -1617.034423828125 -787.7366333007812 -1617.51953125 -787.2512817382812 -1618.1181640625 -787.2512817382812 C -1618.71630859375 -787.2512817382812 -1619.20166015625 -787.7366333007812 -1619.20166015625 -788.3350219726562 L -1619.20166015625 -792.2357788085938 C -1619.20166015625 -792.8340454101562 -1618.71630859375 -793.3191528320312 -1618.1181640625 -793.3191528320312 M -1610.2548828125 -779.3384399414062 L -1625.878173828125 -779.3384399414062 C -1627.094848632812 -779.3384399414062 -1628.174072265625 -779.9456176757812 -1628.765258789062 -780.962646484375 C -1629.346435546875 -781.9623413085938 -1629.33837890625 -783.2323608398438 -1628.744384765625 -784.2769165039062 L -1620.925415039062 -798.0067749023438 C -1620.3173828125 -799.0750122070312 -1619.24853515625 -799.7129516601562 -1618.06640625 -799.7129516601562 C -1616.886108398438 -799.7129516601562 -1615.817504882812 -799.0752563476562 -1615.2080078125 -798.0070190429688 L -1607.38916015625 -784.2754516601562 C -1606.786254882812 -783.21533203125 -1606.778198242188 -781.9774780273438 -1607.3671875 -780.96337890625 C -1607.95947265625 -779.9453125 -1609.038696289062 -779.3384399414062 -1610.2548828125 -779.3384399414062 Z"/></g></g></g></svg>