<svg xmlns="http://www.w3.org/2000/svg" xmlns:xlink="http://www.w3.org/1999/xlink" width="446.295" height="124.242" viewBox="0 0 446.295 124.242"><defs><style>.a{fill:#fff;}.b{fill:#333;}.c{fill:#ff414f;}.d{fill:#4d4d4d;}.e{fill:none;}.f{filter:url(#a);}</style><filter id="a" x="0" y="0" width="446.295" height="124.242" filterUnits="userSpaceOnUse"><feOffset dy="3" input="SourceAlpha"/><feGaussianBlur stdDeviation="5" result="b"/><feFlood flood-opacity="0.349"/><feComposite operator="in" in2="b"/><feComposite in="SourceGraphic"/></filter></defs><g transform="translate(14.657 12)"><g class="f" transform="matrix(1, 0, 0, 1, -14.66, -12)"><rect class="a" width="416.295" height="94.242" transform="translate(15 12)"/></g><path class="b" d="M11.414-25.7H5.685V-36.527H2.943v13.1h8.471Zm2.76-8.78a1.37,1.37,0,0,0,1.38-1.362,1.364,1.364,0,0,0-1.38-1.362,1.364,1.364,0,0,0-1.38,1.362A1.37,1.37,0,0,0,14.174-34.476Zm-1.317,11.05h2.651v-9.733H12.857Zm4.413,0h2.651V-29.01a1.928,1.928,0,0,1,1.943-2.134c1.189,0,1.789.726,1.789,2v5.72H26.3V-29.7c0-2.279-1.217-3.641-3.378-3.641a3.075,3.075,0,0,0-3.042,1.916H19.83v-1.734H17.27Zm13.465-5.829H30.7v-7.273H28.047v13.1H30.7V-26.64l.69-.745,2.787,3.959h3.051l-3.9-5.557,3.713-4.177H34.04ZM43.982-26.4a1.938,1.938,0,0,1-1.961,1.226,2.165,2.165,0,0,1-2.234-2.342v-.163H46.5v-.808c0-2.96-1.789-4.876-4.621-4.876-2.878,0-4.694,2.016-4.694,5.121s1.8,5.03,4.794,5.03c2.406,0,4.149-1.28,4.44-3.187Zm-2.079-5a2.02,2.02,0,0,1,2.043,2.1H39.814A2.107,2.107,0,0,1,41.9-31.407Zm9.57,8.135A3.21,3.21,0,0,0,54.5-25.1h.045v1.671h2.615v-13.1H54.514v5.039h-.054a3.129,3.129,0,0,0-2.969-1.825c-2.442,0-3.986,1.916-3.986,5C47.5-25.2,49.039-23.272,51.472-23.272Zm.9-7.917c1.317,0,2.161,1.126,2.161,2.9s-.844,2.887-2.161,2.887c-1.335,0-2.152-1.1-2.152-2.887S51.036-31.189,52.371-31.189ZM60.3-34.476a1.37,1.37,0,0,0,1.38-1.362A1.364,1.364,0,0,0,60.3-37.2a1.364,1.364,0,0,0-1.38,1.362A1.37,1.37,0,0,0,60.3-34.476Zm-1.317,11.05h2.651v-9.733H58.981Zm4.413,0h2.651V-29.01a1.928,1.928,0,0,1,1.943-2.134c1.189,0,1.789.726,1.789,2v5.72h2.651V-29.7c0-2.279-1.217-3.641-3.378-3.641a3.075,3.075,0,0,0-3.042,1.916h-.054v-1.734h-2.56Z" transform="translate(106.521 57.753)"/><path d="M5.616-19.809v-4.957l4.107-6.507H8.484L5.092-25.83h-.04L1.66-31.272H.42l4.107,6.507v4.957Zm7,.135c2.248,0,3.766-1.645,3.766-4.266s-1.517-4.266-3.766-4.266S8.849-26.569,8.849-23.94,10.367-19.674,12.615-19.674Zm0-.93c-1.621,0-2.693-1.239-2.693-3.337s1.073-3.337,2.693-3.337,2.7,1.239,2.7,3.337S14.236-20.6,12.615-20.6ZM24.4-28.071H23.356v4.9a2.344,2.344,0,0,1-2.407,2.558,2.007,2.007,0,0,1-2.161-2.272v-5.188H17.731v5.37a2.763,2.763,0,0,0,2.916,3.027,2.837,2.837,0,0,0,2.741-1.668h.024v1.533H24.4Zm2.757.62,1-3.821h-1.12l-.763,3.821ZM29.6-19.809h1.049v-5.148A1.982,1.982,0,0,1,32.572-27.2a2.127,2.127,0,0,1,.787.119v-1.033a2.726,2.726,0,0,0-.651-.087,2.1,2.1,0,0,0-2.089,1.6h-.024v-1.47H29.6ZM39.73-22.152A2.237,2.237,0,0,1,37.386-20.6c-1.645,0-2.7-1.16-2.7-3.027v-.064h6.189v-.445c0-2.463-1.382-4.076-3.575-4.076-2.24,0-3.694,1.724-3.694,4.29,0,2.622,1.438,4.242,3.758,4.242a3.221,3.221,0,0,0,3.408-2.479Zm-2.447-5.132a2.536,2.536,0,0,1,2.51,2.765h-5.1A2.643,2.643,0,0,1,37.283-27.284ZM48.977-16.75c2.209,0,3.615-1.271,3.615-3.194v-8.127h-1v1.748h-.024a3.052,3.052,0,0,0-2.86-1.883c-2.113,0-3.511,1.676-3.511,4.242s1.4,4.234,3.488,4.234a3.022,3.022,0,0,0,2.828-1.835h.024v1.66a2.235,2.235,0,0,1-2.51,2.248,2.325,2.325,0,0,1-2.352-1.39H45.585C45.815-17.743,47.174-16.75,48.977-16.75Zm-.1-3.909c-1.557,0-2.6-1.3-2.6-3.3,0-2.01,1.041-3.321,2.6-3.321,1.589,0,2.661,1.335,2.661,3.313S50.463-20.659,48.874-20.659Zm11.241-1.494A2.237,2.237,0,0,1,57.772-20.6c-1.645,0-2.7-1.16-2.7-3.027v-.064h6.189v-.445c0-2.463-1.382-4.076-3.575-4.076-2.24,0-3.694,1.724-3.694,4.29,0,2.622,1.438,4.242,3.758,4.242a3.221,3.221,0,0,0,3.408-2.479Zm-2.447-5.132a2.536,2.536,0,0,1,2.51,2.765h-5.1A2.643,2.643,0,0,1,57.668-27.284Zm5.45-2.852v2.066H61.887v.874h1.231v5.355c0,1.494.556,2.081,1.938,2.081a6.563,6.563,0,0,0,.779-.048v-.9c-.064.016-.461.032-.572.032-.763,0-1.1-.365-1.1-1.216V-27.2H65.8v-.874H64.167v-2.066Zm4.624,0v2.066H66.511v.874h1.231v5.355c0,1.494.556,2.081,1.938,2.081a6.563,6.563,0,0,0,.779-.048v-.9c-.064.016-.461.032-.572.032-.763,0-1.1-.365-1.1-1.216V-27.2h1.629v-.874H68.791v-2.066Zm4.767.35a.7.7,0,0,0,.707-.7.7.7,0,0,0-.707-.7.7.7,0,0,0-.7.7A.7.7,0,0,0,72.509-29.787Zm-.524,9.978h1.049v-8.262H71.984Zm2.932,0h1.049V-24.7a2.352,2.352,0,0,1,2.391-2.566A2.026,2.026,0,0,1,80.533-25v5.188h1.049v-5.355a2.766,2.766,0,0,0-2.924-3.043,2.793,2.793,0,0,0-2.725,1.66h-.024v-1.525h-.993ZM86.722-16.75c2.209,0,3.615-1.271,3.615-3.194v-8.127h-1v1.748h-.024a3.052,3.052,0,0,0-2.86-1.883c-2.113,0-3.511,1.676-3.511,4.242s1.4,4.234,3.488,4.234a3.022,3.022,0,0,0,2.828-1.835h.024v1.66a2.235,2.235,0,0,1-2.51,2.248,2.325,2.325,0,0,1-2.352-1.39H83.329C83.56-17.743,84.918-16.75,86.722-16.75Zm-.1-3.909c-1.557,0-2.6-1.3-2.6-3.3,0-2.01,1.041-3.321,2.6-3.321,1.589,0,2.661,1.335,2.661,3.313S88.207-20.659,86.618-20.659Zm8.858.85h1.049V-24.7a2.352,2.352,0,0,1,2.391-2.566A2.026,2.026,0,0,1,101.093-25v5.188h1.049v-5.355a2.766,2.766,0,0,0-2.924-3.043,2.793,2.793,0,0,0-2.725,1.66h-.024v-1.525h-.993Zm11.79.135c2.248,0,3.766-1.645,3.766-4.266s-1.517-4.266-3.766-4.266S103.5-26.569,103.5-23.94,105.018-19.674,107.266-19.674Zm0-.93c-1.621,0-2.693-1.239-2.693-3.337s1.072-3.337,2.693-3.337,2.7,1.239,2.7,3.337S108.887-20.6,107.266-20.6Zm5.617-9.533v2.066h-1.231v.874h1.231v5.355c0,1.494.556,2.081,1.938,2.081a6.563,6.563,0,0,0,.779-.048v-.9c-.064.016-.461.032-.572.032-.763,0-1.1-.365-1.1-1.216V-27.2h1.629v-.874h-1.629v-2.066Zm4.767.35a.7.7,0,0,0,.707-.7.7.7,0,0,0-.707-.7.7.7,0,0,0-.7.7A.7.7,0,0,0,117.65-29.787Zm-.524,9.978h1.049v-8.262h-1.049Zm9.653-5.649a3.251,3.251,0,0,0-3.4-2.749c-2.248,0-3.734,1.66-3.734,4.266,0,2.646,1.486,4.266,3.742,4.266a3.225,3.225,0,0,0,3.4-2.693h-1.041a2.24,2.24,0,0,1-2.352,1.764c-1.613,0-2.677-1.263-2.677-3.337,0-2.042,1.057-3.337,2.669-3.337a2.289,2.289,0,0,1,2.36,1.819Zm7.031,3.3a2.237,2.237,0,0,1-2.344,1.557c-1.645,0-2.7-1.16-2.7-3.027v-.064h6.189v-.445c0-2.463-1.382-4.076-3.575-4.076-2.24,0-3.694,1.724-3.694,4.29,0,2.622,1.438,4.242,3.758,4.242a3.221,3.221,0,0,0,3.408-2.479Zm-2.447-5.132a2.536,2.536,0,0,1,2.51,2.765h-5.1A2.643,2.643,0,0,1,131.362-27.284Zm8.119,7.611a3.043,3.043,0,0,0,2.86-1.883h.024v1.748h1V-31.272h-1.057v4.9h-.024a2.986,2.986,0,0,0-2.828-1.835c-2.074,0-3.511,1.692-3.511,4.266S137.392-19.674,139.481-19.674Zm.183-7.6c1.573,0,2.653,1.343,2.653,3.337s-1.08,3.337-2.653,3.337c-1.589,0-2.638-1.319-2.638-3.337S138.075-27.276,139.664-27.276Zm6.507,7.539a.732.732,0,0,0,.739-.739.734.734,0,0,0-.739-.747.741.741,0,0,0-.747.747A.739.739,0,0,0,146.17-19.737Zm4.814-3.13c.119,1.938,1.8,3.241,4.242,3.241,2.487,0,4.123-1.311,4.123-3.345,0-1.589-.945-2.487-3.3-3.019l-1.247-.286c-1.7-.381-2.407-1.041-2.407-2.081,0-1.3,1.231-2.113,2.781-2.113,1.629,0,2.765.874,2.876,2.185h1.088c-.064-1.843-1.708-3.17-3.941-3.17-2.248,0-3.917,1.295-3.917,3.146,0,1.581.953,2.558,3.233,3.067l1.247.278c1.764.405,2.479,1.057,2.479,2.137,0,1.3-1.231,2.217-2.955,2.217-1.8,0-3.075-.882-3.21-2.256Zm15.492.715a2.237,2.237,0,0,1-2.344,1.557c-1.645,0-2.7-1.16-2.7-3.027v-.064h6.189v-.445c0-2.463-1.382-4.076-3.575-4.076-2.24,0-3.694,1.724-3.694,4.29,0,2.622,1.438,4.242,3.758,4.242a3.221,3.221,0,0,0,3.408-2.479Zm-2.447-5.132a2.536,2.536,0,0,1,2.51,2.765h-5.1A2.643,2.643,0,0,1,164.03-27.284Zm10.709,5.132A2.237,2.237,0,0,1,172.4-20.6c-1.645,0-2.7-1.16-2.7-3.027v-.064h6.189v-.445c0-2.463-1.382-4.076-3.575-4.076-2.24,0-3.694,1.724-3.694,4.29,0,2.622,1.438,4.242,3.758,4.242a3.221,3.221,0,0,0,3.408-2.479Zm-2.447-5.132a2.536,2.536,0,0,1,2.51,2.765h-5.1A2.643,2.643,0,0,1,172.292-27.284Zm18.622-.787h-1.057l-1.851,7.086h-.024l-2.058-7.086H184.86L182.8-20.984h-.024l-1.851-7.086h-1.065l2.352,8.262h1.112l2.05-6.856h.024l2.058,6.856h1.112Zm1.136,8.262h1.057v-4.862a2.378,2.378,0,0,1,2.447-2.6,2.061,2.061,0,0,1,2.2,2.3v5.164h1.057v-5.339a2.814,2.814,0,0,0-2.955-3.059,2.785,2.785,0,0,0-2.725,1.66h-.024v-4.727H192.05Zm11.877.135c2.248,0,3.766-1.645,3.766-4.266s-1.517-4.266-3.766-4.266-3.766,1.637-3.766,4.266S201.679-19.674,203.927-19.674Zm0-.93c-1.621,0-2.693-1.239-2.693-3.337s1.073-3.337,2.693-3.337,2.7,1.239,2.7,3.337S205.548-20.6,203.927-20.6Zm5.3-6.848,1-3.821h-1.12l-.763,3.821Zm1.486,1.589c0,1.144.739,1.835,2.312,2.2l1.239.294c1.112.27,1.517.667,1.517,1.382,0,.866-.818,1.446-2.058,1.446a1.966,1.966,0,0,1-2.2-1.637h-1.049c.143,1.509,1.382,2.5,3.249,2.5,1.8,0,3.114-.993,3.114-2.391,0-1.168-.62-1.8-2.272-2.2l-1.247-.294c-1.1-.262-1.565-.683-1.565-1.359,0-.826.771-1.422,1.9-1.422a1.858,1.858,0,0,1,2.026,1.66h1.009a2.75,2.75,0,0,0-3.035-2.526C211.927-28.206,210.711-27.229,210.711-25.862Zm17.343-2.209h-1.1l-2.518,7.158h-.024l-2.51-7.158h-1.112l3.075,8.262h1.12Zm1.629-1.716a.7.7,0,0,0,.707-.7.7.7,0,0,0-.707-.7.7.7,0,0,0-.7.7A.7.7,0,0,0,229.683-29.787Zm-.524,9.978h1.049v-8.262h-1.049Zm8.644-2.344a2.237,2.237,0,0,1-2.344,1.557c-1.645,0-2.7-1.16-2.7-3.027v-.064h6.189v-.445c0-2.463-1.382-4.076-3.575-4.076-2.24,0-3.694,1.724-3.694,4.29,0,2.622,1.438,4.242,3.758,4.242a3.221,3.221,0,0,0,3.408-2.479Zm-2.447-5.132a2.536,2.536,0,0,1,2.51,2.765h-5.1A2.643,2.643,0,0,1,235.355-27.284Zm15.293-.787h-1.057l-1.851,7.086h-.024l-2.058-7.086h-1.065l-2.058,7.086h-.024l-1.851-7.086H239.6l2.352,8.262h1.112l2.05-6.856h.024l2.058,6.856H248.3Zm1.66-1.716a.7.7,0,0,0,.707-.7.7.7,0,0,0-.707-.7.7.7,0,0,0-.7.7A.7.7,0,0,0,252.309-29.787Zm-.524,9.978h1.049v-8.262h-1.049Zm2.932,0h1.049V-24.7a2.352,2.352,0,0,1,2.391-2.566A2.026,2.026,0,0,1,260.333-25v5.188h1.049v-5.355a2.766,2.766,0,0,0-2.924-3.043,2.793,2.793,0,0,0-2.725,1.66h-.024v-1.525h-.993Zm11.806,3.059c2.209,0,3.615-1.271,3.615-3.194v-8.127h-1v1.748h-.024a3.052,3.052,0,0,0-2.86-1.883c-2.113,0-3.511,1.676-3.511,4.242s1.4,4.234,3.488,4.234a3.022,3.022,0,0,0,2.828-1.835h.024v1.66a2.235,2.235,0,0,1-2.51,2.248,2.325,2.325,0,0,1-2.352-1.39h-1.088C263.36-17.743,264.718-16.75,266.522-16.75Zm-.1-3.909c-1.557,0-2.6-1.3-2.6-3.3,0-2.01,1.041-3.321,2.6-3.321,1.589,0,2.661,1.335,2.661,3.313S268.007-20.659,266.418-20.659ZM1.731.311c1.351,0,1.946-.54,2.669-2.487L7.65-10.938H6.538L4.027-3.725H4l-2.51-7.214H.365L3.455-2.62,3.241-2C2.875-.968,2.462-.587,1.7-.587a2.3,2.3,0,0,1-.493-.048v.9A3.286,3.286,0,0,0,1.731.311ZM11.876-2.541c2.248,0,3.766-1.645,3.766-4.266s-1.517-4.266-3.766-4.266S8.111-9.437,8.111-6.807,9.628-2.541,11.876-2.541Zm0-.93c-1.621,0-2.693-1.239-2.693-3.337s1.073-3.337,2.693-3.337,2.7,1.239,2.7,3.337S13.5-3.47,11.876-3.47Zm11.79-7.468H22.617v4.9A2.344,2.344,0,0,1,20.21-3.478,2.007,2.007,0,0,1,18.049-5.75v-5.188H16.993v5.37a2.763,2.763,0,0,0,2.916,3.027,2.837,2.837,0,0,0,2.741-1.668h.024v1.533h.993Zm1.811,8.262h1.049V-7.824a1.982,1.982,0,0,1,1.923-2.248,2.127,2.127,0,0,1,.787.119v-1.033a2.726,2.726,0,0,0-.651-.087,2.1,2.1,0,0,0-2.089,1.6H26.47v-1.47h-.993Zm12.084-8.4A3.021,3.021,0,0,0,34.717-9.19h-.032v-1.748h-.993v11h1.049V-4.376h.032a2.964,2.964,0,0,0,2.812,1.835c2.074,0,3.5-1.692,3.5-4.266S39.65-11.073,37.561-11.073Zm-.183,7.6c-1.565,0-2.638-1.343-2.638-3.337s1.073-3.337,2.638-3.337c1.6,0,2.63,1.327,2.63,3.337S38.975-3.47,37.378-3.47Zm5.108.794h1.049V-7.824a1.982,1.982,0,0,1,1.923-2.248,2.127,2.127,0,0,1,.787.119v-1.033a2.726,2.726,0,0,0-.651-.087,2.1,2.1,0,0,0-2.089,1.6H43.48v-1.47h-.993Zm7.77.135c2.248,0,3.766-1.645,3.766-4.266s-1.517-4.266-3.766-4.266-3.766,1.637-3.766,4.266S48.008-2.541,50.256-2.541Zm0-.93c-1.621,0-2.693-1.239-2.693-3.337s1.073-3.337,2.693-3.337,2.7,1.239,2.7,3.337S51.877-3.47,50.256-3.47Zm5.585.794H56.9v-7.388H58.67v-.874H56.89v-1.025c0-.922.421-1.327,1.216-1.327a3.421,3.421,0,0,1,.612.056V-14.1a4.727,4.727,0,0,0-.763-.064,1.89,1.89,0,0,0-2.113,2.177v1.049H54.689v.874h1.152Zm4.791-9.978a.7.7,0,0,0,.707-.7.7.7,0,0,0-.707-.7.7.7,0,0,0-.7.7A.7.7,0,0,0,60.632-12.654Zm-.524,9.978h1.049v-8.262H60.107Zm3,0h1.049V-14.14H63.11ZM71.754-5.02A2.237,2.237,0,0,1,69.41-3.462c-1.645,0-2.7-1.16-2.7-3.027v-.064H72.9V-7c0-2.463-1.382-4.076-3.575-4.076-2.24,0-3.694,1.724-3.694,4.29,0,2.622,1.438,4.242,3.758,4.242A3.221,3.221,0,0,0,72.795-5.02Zm-2.447-5.132a2.536,2.536,0,0,1,2.51,2.765h-5.1A2.643,2.643,0,0,1,69.307-10.152ZM80.986-2.541c2.248,0,3.766-1.645,3.766-4.266s-1.517-4.266-3.766-4.266S77.22-9.437,77.22-6.807,78.737-2.541,80.986-2.541Zm0-.93c-1.621,0-2.693-1.239-2.693-3.337s1.073-3.337,2.693-3.337,2.7,1.239,2.7,3.337S82.606-3.47,80.986-3.47Zm5.164.794H87.2V-7.57a2.352,2.352,0,0,1,2.391-2.566,2.026,2.026,0,0,1,2.177,2.272v5.188h1.049V-8.031a2.766,2.766,0,0,0-2.924-3.043,2.793,2.793,0,0,0-2.725,1.66h-.024v-1.525H86.15Zm11.837,0h1.049V-14.14H97.987Zm3.527-9.978a.7.7,0,0,0,.707-.7.7.7,0,0,0-.707-.7.7.7,0,0,0-.7.7A.7.7,0,0,0,101.514-12.654Zm-.524,9.978h1.049v-8.262H100.99Zm2.932,0h1.049V-7.57a2.352,2.352,0,0,1,2.391-2.566,2.026,2.026,0,0,1,2.177,2.272v5.188h1.049V-8.031a2.766,2.766,0,0,0-2.924-3.043,2.793,2.793,0,0,0-2.725,1.66h-.024v-1.525h-.993Zm9.565-4.354v-7.11H112.43V-2.676h1.057v-3.2l.922-.85,3.3,4.052h1.231l-3.782-4.7,3.71-3.567h-1.3Zm11.766,2.01a2.237,2.237,0,0,1-2.344,1.557c-1.645,0-2.7-1.16-2.7-3.027v-.064H126.4V-7c0-2.463-1.382-4.076-3.575-4.076-2.24,0-3.694,1.724-3.694,4.29,0,2.622,1.438,4.242,3.758,4.242a3.221,3.221,0,0,0,3.408-2.479Zm-2.447-5.132a2.536,2.536,0,0,1,2.51,2.765h-5.1A2.643,2.643,0,0,1,122.806-10.152Zm8.119,7.611a3.044,3.044,0,0,0,2.86-1.883h.024v1.748h1V-14.14h-1.057v4.9h-.024a2.986,2.986,0,0,0-2.828-1.835c-2.074,0-3.511,1.692-3.511,4.266S128.835-2.541,130.925-2.541Zm.183-7.6c1.573,0,2.653,1.343,2.653,3.337s-1.08,3.337-2.653,3.337c-1.589,0-2.638-1.319-2.638-3.337S129.519-10.144,131.108-10.144Zm6.181-2.51a.7.7,0,0,0,.707-.7.7.7,0,0,0-.707-.7.7.7,0,0,0-.7.7A.7.7,0,0,0,137.288-12.654Zm-.524,9.978h1.049v-8.262h-1.049Zm2.932,0h1.049V-7.57a2.352,2.352,0,0,1,2.391-2.566,2.026,2.026,0,0,1,2.177,2.272v5.188h1.049V-8.031a2.766,2.766,0,0,0-2.924-3.043,2.793,2.793,0,0,0-2.725,1.66h-.024v-1.525H139.7ZM149.1-2.6a.732.732,0,0,0,.739-.739.734.734,0,0,0-.739-.747.741.741,0,0,0-.747.747A.739.739,0,0,0,149.1-2.6Z" transform="translate(108.144 79.051)"/><rect class="c" width="81.933" height="94.242" transform="translate(0 0)"/><path class="d" d="M.393,0H.66V-2.123A1.149,1.149,0,0,1,1.818-3.37a1.021,1.021,0,0,1,1.094,1.1V0h.267V-2.3a1.22,1.22,0,0,0-1.3-1.306,1.242,1.242,0,0,0-1.23.827H.643v-.772H.393ZM5.7.055A1.616,1.616,0,0,0,7.285-1.777,1.616,1.616,0,0,0,5.7-3.609,1.613,1.613,0,0,0,4.117-1.777,1.613,1.613,0,0,0,5.7.055Zm0-.239c-.79,0-1.316-.6-1.316-1.593S4.91-3.37,5.7-3.37s1.319.6,1.319,1.593S6.489-.185,5.7-.185Zm6.854-3.37h-.28L11.364-.294h-.01l-.988-3.261h-.3L9.074-.294H9.067L8.155-3.555H7.878L8.91,0h.314l.984-3.213h.01L11.21,0h.308Z" transform="translate(382.943 25.297)"/><path class="e" d="M-3067.115-2844.475h29.4v29.4h-29.4Z" transform="translate(3092.615 2870.694)"/><g transform="translate(29.877 36.013)"><path class="b" d="M-3034.708-2818.021h-18.958a1.612,1.612,0,0,0-1.629,1.592v18.994a1.62,1.62,0,0,0,1.629,1.629h18.921a1.612,1.612,0,0,0,1.629-1.592v-19.031A1.557,1.557,0,0,0-3034.708-2818.021Zm-14,18.921h-3.3v-10.59h3.3Zm-1.666-12a1.912,1.912,0,0,1-1.926-1.925,1.96,1.96,0,0,1,1.926-1.925,1.936,1.936,0,0,1,1.926,1.925A1.936,1.936,0,0,1-3050.37-2811.1Zm14,12h-3.3v-5.146c0-1.222-.037-2.814-1.7-2.814-1.7,0-1.962,1.333-1.962,2.74v5.258h-3.3v-10.626h3.147v1.444h.038a3.427,3.427,0,0,1,3.11-1.7c3.332,0,3.962,2.185,3.962,5.036Z" transform="translate(3055.295 2818.021)"/></g></g></svg>