<svg xmlns="http://www.w3.org/2000/svg" width="423.3" height="275.2" viewBox="0 0 423.3 275.2"><defs><style>.a{fill:#fff;stroke:#ff7ca9;stroke-width:7px;}.b{opacity:0.084;}.c{fill:#ff7ca9;}.d{fill:#333;}.e{fill:#4d4d4d;}.f{fill:none;}.g{fill:#ff89b2;}</style></defs><g transform="translate(-14.157 -11.5)"><g transform="translate(-12.043 -9)"><path class="a" d="M0,0H416.3V268.2H0Z" transform="translate(29.7 24)"/></g><g class="b" transform="translate(5.758 5)"><rect class="c" width="384.95" height="30.7" transform="translate(26.9 101.9)"/><path class="c" d="M26.9,109.923,412.2,106.3V269.087H26.9Z" transform="translate(0 -4.4)"/></g><g transform="translate(17.255 14.461)"><path class="d" d="M1-11.978V0H3.5V-3.777H5.744a3.982,3.982,0,0,0,4.275-4.1,3.913,3.913,0,0,0-4.15-4.1ZM3.5-9.994H5.2A2,2,0,0,1,7.471-7.869,2.007,2.007,0,0,1,5.2-5.736H3.5Zm9.031-.108A1.252,1.252,0,0,0,13.8-11.347a1.247,1.247,0,0,0-1.262-1.245,1.247,1.247,0,0,0-1.262,1.245A1.252,1.252,0,0,0,12.534-10.1ZM11.331,0h2.424V-8.9H11.331Zm4.034,0h2.424V-5.1a1.763,1.763,0,0,1,1.776-1.951c1.087,0,1.635.664,1.635,1.826V0h2.424V-5.736c0-2.083-1.112-3.329-3.088-3.329a2.811,2.811,0,0,0-2.781,1.751h-.05V-8.9H15.365ZM25.807-10.949V-8.9H24.554v1.826h1.253V-2.4c0,1.735.813,2.432,2.905,2.432a5.572,5.572,0,0,0,1.154-.1V-1.851a3.923,3.923,0,0,1-.589.042c-.714,0-1.046-.324-1.046-1V-7.072h1.644V-8.9H28.231v-2.05ZM36.972-2.723A1.771,1.771,0,0,1,35.179-1.6a1.979,1.979,0,0,1-2.042-2.142v-.149h6.134v-.739c0-2.706-1.635-4.458-4.225-4.458-2.631,0-4.292,1.843-4.292,4.682S32.4.191,35.137.191c2.2,0,3.793-1.17,4.059-2.914ZM35.071-7.3a1.846,1.846,0,0,1,1.868,1.917H33.162A1.927,1.927,0,0,1,35.071-7.3ZM40.516,0H42.94V-4.972a1.772,1.772,0,0,1,1.893-1.984,2.494,2.494,0,0,1,.88.141V-8.948a2.469,2.469,0,0,0-.689-.091A2.124,2.124,0,0,0,42.907-7.3h-.05V-8.9H40.516ZM52.3-2.723A1.771,1.771,0,0,1,50.51-1.6a1.979,1.979,0,0,1-2.042-2.142v-.149H54.6v-.739c0-2.706-1.635-4.458-4.225-4.458-2.631,0-4.292,1.843-4.292,4.682s1.644,4.6,4.383,4.6c2.2,0,3.793-1.17,4.059-2.914ZM50.4-7.3A1.846,1.846,0,0,1,52.27-5.379H48.493A1.927,1.927,0,0,1,50.4-7.3Zm5.3,1.013c0,1.336.872,2.2,2.59,2.565l1.519.315c.872.2,1.179.465,1.179.938,0,.581-.564.955-1.478.955a1.47,1.47,0,0,1-1.668-1.2H55.474c.158,1.751,1.577,2.9,4.034,2.9C61.8.191,63.4-.963,63.4-2.714c0-1.3-.764-2.034-2.623-2.424l-1.519-.324c-.9-.191-1.229-.5-1.229-.955,0-.589.556-.971,1.395-.971a1.358,1.358,0,0,1,1.511,1.212h2.233c-.05-1.743-1.461-2.914-3.744-2.914C57.159-9.089,55.7-7.977,55.7-6.284Zm9.546-4.665V-8.9H63.991v1.826h1.253V-2.4c0,1.735.813,2.432,2.905,2.432a5.572,5.572,0,0,0,1.154-.1V-1.851a3.923,3.923,0,0,1-.589.042c-.714,0-1.046-.324-1.046-1V-7.072h1.644V-8.9H67.668v-2.05Z" transform="translate(108.374 32.555)"/><path d="M9.051-4.006v-.95H5.059v.82H8.121v.349A2.938,2.938,0,0,1,4.956-.711c-2.112,0-3.473-1.675-3.473-4.279,0-2.57,1.333-4.163,3.473-4.163A3.034,3.034,0,0,1,8.019-6.9h.971a3.9,3.9,0,0,0-4.033-3.124c-2.693,0-4.43,1.976-4.43,5.031C.526-1.88,2.283.157,4.956.157A3.8,3.8,0,0,0,9.051-4.006Zm6.275,1.989A1.925,1.925,0,0,1,13.31-.677a2.306,2.306,0,0,1-2.324-2.6v-.055h5.325v-.383c0-2.119-1.189-3.507-3.076-3.507-1.928,0-3.179,1.483-3.179,3.691,0,2.256,1.237,3.65,3.233,3.65a2.772,2.772,0,0,0,2.933-2.133ZM13.221-6.433a2.182,2.182,0,0,1,2.16,2.379H10.992A2.275,2.275,0,0,1,13.221-6.433ZM17.91-8.887v1.777h-1.06v.752h1.06V-1.75c0,1.285.479,1.791,1.668,1.791A5.647,5.647,0,0,0,20.248,0V-.772c-.055.014-.4.027-.492.027-.656,0-.943-.314-.943-1.046V-6.357h1.4v-.752h-1.4V-8.887Zm6.966.3a.6.6,0,0,0,.608-.6.6.6,0,0,0-.608-.6.6.6,0,0,0-.6.6A.6.6,0,0,0,24.876-8.586ZM24.425,0h.9V-7.109h-.9Zm2.522,0h.9V-4.211a2.024,2.024,0,0,1,2.058-2.208A1.743,1.743,0,0,1,31.78-4.464V0h.9V-4.607a2.38,2.38,0,0,0-2.516-2.618A2.4,2.4,0,0,0,27.822-5.8H27.8V-7.109h-.854Zm7.116-5.209c0,.984.636,1.579,1.989,1.894l1.066.253c.957.232,1.306.574,1.306,1.189,0,.745-.7,1.244-1.771,1.244a1.692,1.692,0,0,1-1.894-1.408h-.9c.123,1.3,1.189,2.153,2.8,2.153,1.552,0,2.68-.854,2.68-2.058,0-1-.533-1.552-1.955-1.894l-1.073-.253c-.943-.226-1.347-.588-1.347-1.169,0-.711.663-1.224,1.634-1.224a1.6,1.6,0,0,1,1.743,1.429H39.2a2.366,2.366,0,0,0-2.611-2.174C35.109-7.226,34.063-6.385,34.063-5.209Zm9.81-2.017a2.6,2.6,0,0,0-2.447,1.62H41.4v-1.5h-.854V2.352h.9V-1.463h.027A2.55,2.55,0,0,0,43.894.116C45.678.116,46.9-1.34,46.9-3.555S45.671-7.226,43.873-7.226ZM43.716-.684c-1.347,0-2.27-1.155-2.27-2.871s.923-2.871,2.27-2.871c1.374,0,2.263,1.142,2.263,2.871S45.09-.684,43.716-.684Zm4.908-7.9a.6.6,0,0,0,.608-.6.6.6,0,0,0-.608-.6.6.6,0,0,0-.6.6A.6.6,0,0,0,48.624-8.586ZM48.173,0h.9V-7.109h-.9ZM50.7,0h.9V-4.43a1.706,1.706,0,0,1,1.654-1.935,1.83,1.83,0,0,1,.677.1V-7.15a2.346,2.346,0,0,0-.561-.075,1.81,1.81,0,0,0-1.8,1.381H51.55V-7.109H50.7Zm8.716-2.017a1.925,1.925,0,0,1-2.017,1.34,2.306,2.306,0,0,1-2.324-2.6v-.055H60.4v-.383c0-2.119-1.189-3.507-3.076-3.507-1.928,0-3.179,1.483-3.179,3.691,0,2.256,1.237,3.65,3.233,3.65a2.772,2.772,0,0,0,2.933-2.133ZM57.306-6.433a2.182,2.182,0,0,1,2.16,2.379H55.077A2.275,2.275,0,0,1,57.306-6.433ZM64.292.116A2.619,2.619,0,0,0,66.753-1.5h.021V0h.861V-9.864h-.909v4.218h-.021a2.57,2.57,0,0,0-2.434-1.579c-1.784,0-3.021,1.456-3.021,3.671S62.494.116,64.292.116Zm.157-6.542c1.354,0,2.283,1.155,2.283,2.871S65.8-.684,64.449-.684s-2.27-1.135-2.27-2.871S63.082-6.426,64.449-6.426Zm5.6,6.487a.63.63,0,0,0,.636-.636.632.632,0,0,0-.636-.643.638.638,0,0,0-.643.643A.636.636,0,0,0,70.048.062Zm3.479,0a.63.63,0,0,0,.636-.636.632.632,0,0,0-.636-.643.638.638,0,0,0-.643.643A.636.636,0,0,0,73.527.062Zm3.479,0a.63.63,0,0,0,.636-.636.632.632,0,0,0-.636-.643.638.638,0,0,0-.643.643A.636.636,0,0,0,77.007.062Zm7.841.1a3.278,3.278,0,0,0,3.466-3.336,3.166,3.166,0,0,0-3.261-3.268,2.854,2.854,0,0,0-2.4,1.135h-.021l.39-3.719h4.7v-.834H82.25l-.533,5.53h.841A2.6,2.6,0,0,1,84.9-5.64a2.4,2.4,0,0,1,2.475,2.481A2.409,2.409,0,0,1,84.861-.67a2.279,2.279,0,0,1-2.406-1.9h-.916A3.092,3.092,0,0,0,84.848.157ZM93,.157c2.242,0,3.568-1.982,3.568-5.1,0-3.1-1.333-5.079-3.568-5.079s-3.575,1.989-3.575,5.086C89.421-1.818,90.754.157,93,.157Zm0-.82c-1.668,0-2.632-1.661-2.632-4.279,0-2.57.984-4.252,2.632-4.252s2.632,1.668,2.632,4.259C95.628-2.324,94.664-.663,93-.663Zm8.354.82c2.242,0,3.568-1.982,3.568-5.1,0-3.1-1.333-5.079-3.568-5.079s-3.575,1.989-3.575,5.086C97.774-1.818,99.107.157,101.35.157Zm0-.82c-1.668,0-2.632-1.661-2.632-4.279,0-2.57.984-4.252,2.632-4.252s2.632,1.668,2.632,4.259C103.981-2.324,103.018-.663,101.35-.663Zm8.354.82c2.242,0,3.568-1.982,3.568-5.1,0-3.1-1.333-5.079-3.568-5.079s-3.575,1.989-3.575,5.086C106.128-1.818,107.461.157,109.7.157Zm0-.82c-1.668,0-2.632-1.661-2.632-4.279,0-2.57.984-4.252,2.632-4.252s2.632,1.668,2.632,4.259C112.335-2.324,111.371-.663,109.7-.663Zm8.764-2.823h2.8v-.848h-2.8V-7.3h-.848v2.967h-2.8v.848h2.8V-.52h.848Zm10.712-3.739a2.6,2.6,0,0,0-2.447,1.62H126.7v-1.5h-.854V2.352h.9V-1.463h.027A2.55,2.55,0,0,0,129.2.116c1.784,0,3.008-1.456,3.008-3.671S130.977-7.226,129.179-7.226Zm-.157,6.542c-1.347,0-2.27-1.155-2.27-2.871s.923-2.871,2.27-2.871c1.374,0,2.263,1.142,2.263,2.871S130.4-.684,129.021-.684Zm4.908-7.9a.6.6,0,0,0,.608-.6.6.6,0,0,0-.608-.6.6.6,0,0,0-.6.6A.6.6,0,0,0,133.93-8.586ZM133.479,0h.9V-7.109h-.9ZM136,0h.9V-4.211a2.024,2.024,0,0,1,2.058-2.208,1.743,1.743,0,0,1,1.873,1.955V0h.9V-4.607a2.38,2.38,0,0,0-2.516-2.618A2.4,2.4,0,0,0,136.876-5.8h-.021V-7.109H136Zm7.116-5.209c0,.984.636,1.579,1.989,1.894l1.066.253c.957.232,1.306.574,1.306,1.189,0,.745-.7,1.244-1.771,1.244a1.692,1.692,0,0,1-1.894-1.408h-.9c.123,1.3,1.189,2.153,2.8,2.153,1.552,0,2.68-.854,2.68-2.058,0-1-.533-1.552-1.955-1.894l-1.073-.253c-.943-.226-1.347-.588-1.347-1.169,0-.711.663-1.224,1.634-1.224a1.6,1.6,0,0,1,1.743,1.429h.868a2.366,2.366,0,0,0-2.611-2.174C144.163-7.226,143.117-6.385,143.117-5.209Zm9.734-3.678v1.777h-1.06v.752h1.06V-1.75c0,1.285.479,1.791,1.668,1.791a5.647,5.647,0,0,0,.67-.041V-.772c-.055.014-.4.027-.492.027-.656,0-.943-.314-.943-1.046V-6.357h1.4v-.752h-1.4V-8.887Zm6.228,9c1.935,0,3.24-1.415,3.24-3.671s-1.306-3.671-3.24-3.671-3.24,1.408-3.24,3.671S157.145.116,159.079.116Zm0-.8c-1.395,0-2.317-1.066-2.317-2.871s.923-2.871,2.317-2.871S161.4-5.359,161.4-3.555,160.474-.684,159.079-.684ZM171.3-2.017a1.925,1.925,0,0,1-2.017,1.34,2.306,2.306,0,0,1-2.324-2.6v-.055h5.325v-.383c0-2.119-1.189-3.507-3.076-3.507-1.928,0-3.179,1.483-3.179,3.691,0,2.256,1.237,3.65,3.233,3.65A2.772,2.772,0,0,0,172.2-2.017ZM169.2-6.433a2.182,2.182,0,0,1,2.16,2.379h-4.389A2.275,2.275,0,0,1,169.2-6.433Zm6.576,3.514L177.721,0h1.019l-2.461-3.609,2.481-3.5h-1.019L175.8-4.259h-.021l-1.948-2.851h-1.025l2.468,3.534L172.778,0h1.012l1.962-2.919Zm7.253-4.307a2.6,2.6,0,0,0-2.447,1.62h-.027v-1.5H179.7V2.352h.9V-1.463h.027a2.55,2.55,0,0,0,2.42,1.579c1.784,0,3.008-1.456,3.008-3.671S184.823-7.226,183.025-7.226Zm-.157,6.542c-1.347,0-2.27-1.155-2.27-2.871s.923-2.871,2.27-2.871c1.374,0,2.263,1.142,2.263,2.871S184.242-.684,182.868-.684ZM187.325,0h.9V-9.864h-.9Zm5.407.116c1.935,0,3.24-1.415,3.24-3.671s-1.306-3.671-3.24-3.671-3.24,1.408-3.24,3.671S190.8.116,192.732.116Zm0-.8c-1.395,0-2.317-1.066-2.317-2.871s.923-2.871,2.317-2.871,2.324,1.066,2.324,2.871S194.127-.684,192.732-.684ZM197.176,0h.9V-4.43a1.706,1.706,0,0,1,1.654-1.935,1.83,1.83,0,0,1,.677.1V-7.15a2.346,2.346,0,0,0-.561-.075,1.81,1.81,0,0,0-1.8,1.381h-.021V-7.109h-.854Zm8.716-2.017a1.925,1.925,0,0,1-2.017,1.34,2.306,2.306,0,0,1-2.324-2.6v-.055h5.325v-.383c0-2.119-1.189-3.507-3.076-3.507-1.928,0-3.179,1.483-3.179,3.691,0,2.256,1.237,3.65,3.233,3.65a2.772,2.772,0,0,0,2.933-2.133Zm-2.105-4.416a2.182,2.182,0,0,1,2.16,2.379h-4.389A2.275,2.275,0,0,1,203.786-6.433ZM208.8.062a.63.63,0,0,0,.636-.636.632.632,0,0,0-.636-.643.638.638,0,0,0-.643.643A.636.636,0,0,0,208.8.062Z" transform="translate(108.374 56.692)"/><path class="c" d="M0,0H81.933V81.839H0Z" transform="translate(0 0)"/><path class="e" d="M.393,0H.66V-2.123A1.149,1.149,0,0,1,1.818-3.37a1.021,1.021,0,0,1,1.094,1.1V0h.267V-2.3a1.22,1.22,0,0,0-1.3-1.306,1.242,1.242,0,0,0-1.23.827H.643v-.772H.393ZM5.7.055A1.616,1.616,0,0,0,7.285-1.777,1.616,1.616,0,0,0,5.7-3.609,1.613,1.613,0,0,0,4.117-1.777,1.613,1.613,0,0,0,5.7.055Zm0-.239c-.79,0-1.316-.6-1.316-1.593S4.91-3.37,5.7-3.37s1.319.6,1.319,1.593S6.489-.185,5.7-.185Zm6.854-3.37h-.28L11.364-.294h-.01l-.988-3.261h-.3L9.074-.294H9.067L8.155-3.555H7.878L8.91,0h.314l.984-3.213h.01L11.21,0h.308Z" transform="translate(382.942 25.297)"/><path class="f" d="M1122.493-3388.232h29.4v29.4h-29.4Z" transform="translate(-1096.993 3414.45)"/><path class="d" d="M1140.623-3393.277c-5.52.616-11.021,5.083-11.248,11.462-.143,3.9.963,6.818,4.67,7.638,1.609-2.838-.519-3.464-.85-5.516-1.359-8.414,9.7-14.152,15.494-8.278,4.006,4.067,1.369,16.581-5.092,15.28-6.188-1.242,3.029-11.2-1.91-13.159-4.015-1.589-6.15,4.862-4.246,8.066-1.116,5.511-3.519,10.7-2.546,17.616,3.156-2.29,4.22-6.675,5.093-11.248,1.586.963,2.432,1.965,4.456,2.121,7.463.577,11.631-7.45,10.613-14.855C1154.151-3390.714,1147.6-3394.055,1140.623-3393.277Z" transform="translate(-1101.319 3417.697)"/></g><rect class="g" width="86" height="149" transform="translate(40.657 114)"/><rect class="g" width="86" height="68" transform="translate(135.657 114)"/><rect class="g" width="86" height="96" transform="translate(230.657 114)"/><rect class="g" width="86" height="48" transform="translate(325.657 114)"/><rect class="g" width="86" height="72" transform="translate(135.657 191)"/><rect class="g" width="86" height="44" transform="translate(230.657 219)"/><rect class="g" width="86" height="92" transform="translate(325.657 171)"/></g></svg>