<svg xmlns="http://www.w3.org/2000/svg" xmlns:xlink="http://www.w3.org/1999/xlink" width="446.295" height="119.17" viewBox="0 0 446.295 119.17"><defs><style>.a{fill:#fff;}.b{fill:#333;}.c{fill:#ff7ca9;}.d{fill:#4d4d4d;}.e{fill:none;}.f{filter:url(#a);}</style><filter id="a" x="0" y="0" width="446.295" height="119.17" filterUnits="userSpaceOnUse"><feOffset dy="3" input="SourceAlpha"/><feGaussianBlur stdDeviation="5" result="b"/><feFlood flood-opacity="0.349"/><feComposite operator="in" in2="b"/><feComposite in="SourceGraphic"/></filter></defs><g transform="translate(14.657 12)"><g class="f" transform="matrix(1, 0, 0, 1, -14.66, -12)"><rect class="a" width="416.295" height="89.17" transform="translate(15 12)"/></g><path class="b" d="M8.84,0H11.5L7.338-11.978H4.391L.232,0H2.806l.913-2.905H7.927ZM5.794-9.687h.058L7.388-4.781H4.258ZM12.518,0h2.424V-5.371a1.547,1.547,0,0,1,1.544-1.693,1.359,1.359,0,0,1,1.436,1.519V0h2.333V-5.4a1.511,1.511,0,0,1,1.527-1.66c.938,0,1.453.564,1.453,1.594V0h2.424V-6.076a2.791,2.791,0,0,0-2.914-2.988A2.819,2.819,0,0,0,19.98-7.238h-.05a2.364,2.364,0,0,0-2.482-1.826,2.612,2.612,0,0,0-2.54,1.776h-.05V-8.9H12.518ZM29.833.141a3.061,3.061,0,0,0,2.714-1.5h.05V0h2.341V-6.118c0-1.793-1.486-2.972-3.769-2.972-2.357,0-3.827,1.187-3.918,2.914h2.216a1.443,1.443,0,0,1,1.594-1.1c.913,0,1.494.481,1.494,1.312v.589l-2.241.133c-2.216.133-3.461,1.071-3.461,2.689A2.751,2.751,0,0,0,29.833.141Zm.8-1.751c-.822,0-1.37-.415-1.37-1.079,0-.631.515-1.038,1.419-1.1l1.876-.116v.647A1.777,1.777,0,0,1,30.63-1.61ZM36.291,0h7.346V-1.859H39.371V-1.9l4.167-5.462V-8.9h-7.18v1.851h4.366V-7l-4.433,5.62ZM48.966.191c2.689,0,4.408-1.718,4.408-4.648,0-2.889-1.743-4.632-4.408-4.632s-4.408,1.751-4.408,4.632C44.559-1.536,46.277.191,48.966.191Zm0-1.851c-1.2,0-1.951-1-1.951-2.789,0-1.768.772-2.789,1.951-2.789s1.942,1.021,1.942,2.789C50.909-2.665,50.153-1.66,48.966-1.66ZM54.619,0h2.424V-5.1a1.763,1.763,0,0,1,1.776-1.951c1.087,0,1.635.664,1.635,1.826V0h2.424V-5.736c0-2.083-1.112-3.329-3.088-3.329A2.811,2.811,0,0,0,57.01-7.313h-.05V-8.9H54.619Z" transform="translate(108.374 32.555)"/><path d="M.989-10.569V0h1V-3.984H4.578a3.184,3.184,0,0,0,3.4-3.3,3.169,3.169,0,0,0-3.391-3.289Zm1,.894H4.351a2.3,2.3,0,0,1,2.6,2.4,2.305,2.305,0,0,1-2.6,2.4H1.985ZM9.346,0h.967V-4.746a1.827,1.827,0,0,1,1.772-2.073,1.961,1.961,0,0,1,.725.11v-.952a2.513,2.513,0,0,0-.6-.081,1.94,1.94,0,0,0-1.926,1.479h-.022V-7.617H9.346ZM14.4-9.2a.647.647,0,0,0,.652-.645.647.647,0,0,0-.652-.645.645.645,0,0,0-.645.645A.645.645,0,0,0,14.4-9.2ZM13.916,0h.967V-7.617h-.967Zm8.9-5.208A3,3,0,0,0,19.68-7.742c-2.073,0-3.442,1.531-3.442,3.933,0,2.439,1.37,3.933,3.45,3.933a2.973,2.973,0,0,0,3.135-2.483h-.959A2.065,2.065,0,0,1,19.695-.732c-1.487,0-2.468-1.165-2.468-3.076,0-1.882.974-3.076,2.461-3.076a2.11,2.11,0,0,1,2.175,1.677ZM29.3-2.161A2.063,2.063,0,0,1,27.136-.725c-1.516,0-2.49-1.069-2.49-2.791v-.059h5.706v-.41c0-2.271-1.274-3.757-3.3-3.757-2.065,0-3.406,1.589-3.406,3.955,0,2.417,1.326,3.911,3.464,3.911a2.97,2.97,0,0,0,3.142-2.285ZM27.041-6.892a2.338,2.338,0,0,1,2.314,2.549h-4.7A2.437,2.437,0,0,1,27.041-6.892ZM37.6.125a2.806,2.806,0,0,0,2.637-1.736h.022V0h.923V-10.569H40.2V-6.05h-.022a2.753,2.753,0,0,0-2.607-1.692c-1.912,0-3.237,1.56-3.237,3.933S35.669.125,37.6.125Zm.168-7.009c1.45,0,2.446,1.238,2.446,3.076s-1,3.076-2.446,3.076-2.432-1.216-2.432-3.076S36.3-6.885,37.764-6.885ZM42.913,0h.967V-4.746a1.827,1.827,0,0,1,1.772-2.073,1.961,1.961,0,0,1,.725.11v-.952a2.513,2.513,0,0,0-.6-.081A1.94,1.94,0,0,0,43.85-6.262h-.022V-7.617h-.916Zm7.163.125c2.073,0,3.472-1.516,3.472-3.933s-1.4-3.933-3.472-3.933S46.6-6.233,46.6-3.809,48,.125,50.076.125Zm0-.857c-1.494,0-2.483-1.143-2.483-3.076s.989-3.076,2.483-3.076,2.49,1.143,2.49,3.076S51.57-.732,50.076-.732ZM58.4-7.742a2.785,2.785,0,0,0-2.622,1.736h-.029V-7.617h-.916V2.52H55.8V-1.567h.029A2.733,2.733,0,0,0,58.425.125c1.912,0,3.223-1.56,3.223-3.933S60.33-7.742,58.4-7.742ZM58.235-.732C56.792-.732,55.8-1.97,55.8-3.809s.989-3.076,2.432-3.076c1.472,0,2.424,1.223,2.424,3.076S59.707-.732,58.235-.732ZM66.4,0h.974V-6.812h1.633v-.806H67.368v-.945c0-.85.388-1.223,1.121-1.223a3.154,3.154,0,0,1,.564.051v-.8a4.358,4.358,0,0,0-.7-.059A1.743,1.743,0,0,0,66.4-8.584v.967H65.339v.806H66.4Zm6.526.125C75,.125,76.4-1.392,76.4-3.809S75-7.742,72.927-7.742s-3.472,1.509-3.472,3.933S70.854.125,72.927.125Zm0-.857c-1.494,0-2.483-1.143-2.483-3.076s.989-3.076,2.483-3.076,2.49,1.143,2.49,3.076S74.421-.732,72.927-.732ZM77.688,0h.967V-4.746a1.827,1.827,0,0,1,1.772-2.073,1.961,1.961,0,0,1,.725.11v-.952a2.513,2.513,0,0,0-.6-.081,1.94,1.94,0,0,0-1.926,1.479H78.6V-7.617h-.916Zm8.525-10.569L85.3-7.046h1.025l.7-3.523Zm2.461,0-.916,3.523h1.025l.7-3.523Zm2.673,0V0h1V-3.984h2.593a3.184,3.184,0,0,0,3.4-3.3,3.169,3.169,0,0,0-3.391-3.289Zm1,.894h2.366a2.3,2.3,0,0,1,2.6,2.4,2.305,2.305,0,0,1-2.6,2.4H92.344ZM99.683,0h.974V-4.482a2.192,2.192,0,0,1,2.256-2.4,1.9,1.9,0,0,1,2.029,2.117V0h.974V-4.922a2.6,2.6,0,0,0-2.725-2.82,2.568,2.568,0,0,0-2.512,1.531h-.022v-4.358h-.974Zm10.95.125c2.073,0,3.472-1.516,3.472-3.933s-1.4-3.933-3.472-3.933-3.472,1.509-3.472,3.933S108.56.125,110.632.125Zm0-.857c-1.494,0-2.483-1.143-2.483-3.076s.989-3.076,2.483-3.076,2.49,1.143,2.49,3.076S112.126-.732,110.632-.732ZM115.393,0h.967V-4.512a2.168,2.168,0,0,1,2.2-2.366,1.868,1.868,0,0,1,2.007,2.095V0h.967V-4.937a2.55,2.55,0,0,0-2.7-2.805,2.575,2.575,0,0,0-2.512,1.531h-.022V-7.617h-.916Zm13.044-2.161a2.063,2.063,0,0,1-2.161,1.436c-1.516,0-2.49-1.069-2.49-2.791v-.059h5.706v-.41c0-2.271-1.274-3.757-3.3-3.757-2.065,0-3.406,1.589-3.406,3.955,0,2.417,1.326,3.911,3.464,3.911A2.97,2.97,0,0,0,129.4-2.161Zm-2.256-4.731A2.338,2.338,0,0,1,128.5-4.343h-4.7A2.437,2.437,0,0,1,126.182-6.892Zm13.872,1.685a3,3,0,0,0-3.135-2.534c-2.073,0-3.442,1.531-3.442,3.933,0,2.439,1.37,3.933,3.45,3.933a2.973,2.973,0,0,0,3.135-2.483H139.1a2.065,2.065,0,0,1-2.168,1.626c-1.487,0-2.468-1.165-2.468-3.076,0-1.882.974-3.076,2.461-3.076A2.11,2.11,0,0,1,139.1-5.208ZM144.36.125c2.073,0,3.472-1.516,3.472-3.933s-1.4-3.933-3.472-3.933-3.472,1.509-3.472,3.933S142.288.125,144.36.125Zm0-.857c-1.494,0-2.483-1.143-2.483-3.076s.989-3.076,2.483-3.076,2.49,1.143,2.49,3.076S145.854-.732,144.36-.732Zm10.583-6.885h-1.011l-2.322,6.6h-.022l-2.314-6.6H148.25L151.084,0h1.033Zm6.064,5.457a2.063,2.063,0,0,1-2.161,1.436c-1.516,0-2.49-1.069-2.49-2.791v-.059h5.706v-.41c0-2.271-1.274-3.757-3.3-3.757-2.065,0-3.406,1.589-3.406,3.955,0,2.417,1.326,3.911,3.464,3.911a2.97,2.97,0,0,0,3.142-2.285Zm-2.256-4.731a2.338,2.338,0,0,1,2.314,2.549h-4.7A2.437,2.437,0,0,1,158.752-6.892ZM163.359,0h.967V-4.746A1.827,1.827,0,0,1,166.1-6.819a1.961,1.961,0,0,1,.725.11v-.952a2.513,2.513,0,0,0-.6-.081A1.94,1.94,0,0,0,164.3-6.262h-.022V-7.617h-.916Zm5.559-7.046.923-3.523h-1.033l-.7,3.523Zm2.461,0,.923-3.523H171.27l-.7,3.523Zm6.108-2.476v1.9h-1.135v.806h1.135v4.937c0,1.377.513,1.919,1.787,1.919A6.051,6.051,0,0,0,179.993,0V-.828c-.059.015-.425.029-.527.029-.7,0-1.011-.337-1.011-1.121V-6.812h1.5v-.806h-1.5v-1.9ZM181.4,0h.974V-4.482a2.192,2.192,0,0,1,2.256-2.4,1.9,1.9,0,0,1,2.029,2.117V0h.974V-4.922a2.6,2.6,0,0,0-2.725-2.82A2.568,2.568,0,0,0,182.4-6.211h-.022v-4.358H181.4Zm10.115.125a2.837,2.837,0,0,0,2.6-1.575h.022V0h.923V-5.215c0-1.553-1.091-2.527-2.827-2.527s-2.856.967-2.966,2.329h.938a1.819,1.819,0,0,1,2.007-1.472,1.672,1.672,0,0,1,1.882,1.758v.659l-2.373.146c-1.758.117-2.732.908-2.732,2.212A2.272,2.272,0,0,0,191.514.125Zm.2-.835c-1.033,0-1.743-.571-1.743-1.4s.667-1.362,1.868-1.443l2.256-.154v.842A2.252,2.252,0,0,1,191.711-.71ZM197.1-9.521v1.9h-1.135v.806H197.1v4.937c0,1.377.513,1.919,1.787,1.919A6.051,6.051,0,0,0,199.607,0V-.828c-.059.015-.425.029-.527.029-.7,0-1.011-.337-1.011-1.121V-6.812h1.5v-.806h-1.5v-1.9Zm7.463.322a.647.647,0,0,0,.652-.645.647.647,0,0,0-.652-.645.645.645,0,0,0-.645.645A.645.645,0,0,0,204.565-9.2ZM204.082,0h.967V-7.617h-.967Zm2.549-5.581c0,1.055.681,1.692,2.131,2.029l1.143.271c1.025.249,1.4.615,1.4,1.274,0,.8-.754,1.333-1.9,1.333a1.813,1.813,0,0,1-2.029-1.509h-.967c.132,1.392,1.274,2.307,3,2.307,1.663,0,2.871-.916,2.871-2.2,0-1.077-.571-1.663-2.095-2.029l-1.15-.271c-1.011-.242-1.443-.63-1.443-1.252,0-.762.71-1.311,1.75-1.311a1.713,1.713,0,0,1,1.868,1.531h.93a2.535,2.535,0,0,0-2.8-2.329C207.751-7.742,206.631-6.841,206.631-5.581ZM217.192-9.2a.647.647,0,0,0,.652-.645.647.647,0,0,0-.652-.645.645.645,0,0,0-.645.645A.645.645,0,0,0,217.192-9.2ZM216.709,0h.967V-7.617h-.967Zm2.7,0h.967V-4.512a2.168,2.168,0,0,1,2.2-2.366,1.868,1.868,0,0,1,2.007,2.095V0h.967V-4.937a2.55,2.55,0,0,0-2.7-2.805,2.575,2.575,0,0,0-2.512,1.531h-.022V-7.617h-.916ZM1.384,18.754c1.245,0,1.794-.5,2.461-2.292l3-8.079H5.815L3.5,15.033H3.479L1.165,8.383H.125l2.849,7.668-.2.571c-.337.952-.718,1.3-1.421,1.3A2.122,2.122,0,0,1,.9,17.882v.828A3.029,3.029,0,0,0,1.384,18.754Zm9.353-2.629c2.073,0,3.472-1.516,3.472-3.933s-1.4-3.933-3.472-3.933S7.266,9.767,7.266,12.191,8.665,16.125,10.737,16.125Zm0-.857c-1.494,0-2.483-1.143-2.483-3.076s.989-3.076,2.483-3.076,2.49,1.143,2.49,3.076S12.231,15.268,10.737,15.268ZM21.606,8.383H20.64V12.9A2.161,2.161,0,0,1,18.42,15.26a1.851,1.851,0,0,1-1.992-2.095V8.383h-.974v4.951a2.548,2.548,0,0,0,2.688,2.791,2.615,2.615,0,0,0,2.527-1.538h.022V16h.916ZM23.276,16h.967V11.254a1.827,1.827,0,0,1,1.772-2.073,1.961,1.961,0,0,1,.725.11V8.339a2.513,2.513,0,0,0-.6-.081,1.94,1.94,0,0,0-1.926,1.479h-.022V8.383h-.916Zm13.77-5.208a3,3,0,0,0-3.135-2.534c-2.073,0-3.442,1.531-3.442,3.933,0,2.439,1.37,3.933,3.45,3.933a2.973,2.973,0,0,0,3.135-2.483h-.959a2.065,2.065,0,0,1-2.168,1.626c-1.487,0-2.468-1.165-2.468-3.076,0-1.882.974-3.076,2.461-3.076a2.11,2.11,0,0,1,2.175,1.677Zm3.472,5.332a2.837,2.837,0,0,0,2.6-1.575h.022V16h.923V10.785c0-1.553-1.091-2.527-2.827-2.527s-2.856.967-2.966,2.329h.938a1.819,1.819,0,0,1,2.007-1.472A1.672,1.672,0,0,1,43.1,10.873v.659l-2.373.146c-1.758.117-2.732.908-2.732,2.212A2.272,2.272,0,0,0,40.518,16.125Zm.2-.835c-1.033,0-1.743-.571-1.743-1.4s.667-1.362,1.868-1.443l2.256-.154v.842A2.252,2.252,0,0,1,40.715,15.29Zm4.973.71h.967V11.254a1.827,1.827,0,0,1,1.772-2.073,1.961,1.961,0,0,1,.725.11V8.339a2.513,2.513,0,0,0-.6-.081,1.94,1.94,0,0,0-1.926,1.479H46.6V8.383h-.916Zm4.988-9.521v1.9H49.541v.806h1.135v4.937c0,1.377.513,1.919,1.787,1.919A6.051,6.051,0,0,0,53.181,16v-.828c-.059.015-.425.029-.527.029-.7,0-1.011-.337-1.011-1.121V9.188h1.5V8.383h-1.5v-1.9Zm4.878,9.587a.685.685,0,0,0,0-1.37.685.685,0,1,0,0,1.37Zm9.243.1a4,4,0,0,0,4.285-3.3h-1A3.1,3.1,0,0,1,64.8,15.238c-2.249,0-3.691-1.765-3.691-4.548,0-2.747,1.443-4.5,3.684-4.5a3.25,3.25,0,0,1,3.281,2.593h1A4.15,4.15,0,0,0,64.8,5.263c-2.871,0-4.709,2.117-4.709,5.427C60.088,14.037,61.919,16.168,64.8,16.168ZM70.466,16h.974V11.518a2.192,2.192,0,0,1,2.256-2.4,1.9,1.9,0,0,1,2.029,2.117V16H76.7V11.078a2.6,2.6,0,0,0-2.725-2.82,2.568,2.568,0,0,0-2.512,1.531H71.44V5.431h-.974Zm13.125-2.161a2.063,2.063,0,0,1-2.161,1.436c-1.516,0-2.49-1.069-2.49-2.791v-.059h5.706v-.41c0-2.271-1.274-3.757-3.3-3.757-2.065,0-3.406,1.589-3.406,3.955,0,2.417,1.326,3.911,3.464,3.911a2.97,2.97,0,0,0,3.142-2.285ZM81.335,9.108a2.338,2.338,0,0,1,2.314,2.549h-4.7A2.437,2.437,0,0,1,81.335,9.108Zm10.8,1.685A3,3,0,0,0,89,8.258c-2.073,0-3.442,1.531-3.442,3.933,0,2.439,1.37,3.933,3.45,3.933a2.973,2.973,0,0,0,3.135-2.483h-.959a2.065,2.065,0,0,1-2.168,1.626c-1.487,0-2.468-1.165-2.468-3.076,0-1.882.974-3.076,2.461-3.076a2.11,2.11,0,0,1,2.175,1.677Zm2.256,1.194V5.431H93.42V16h.974V13.048l.85-.784L98.291,16h1.135L95.94,11.671l3.42-3.289h-1.2Zm12.129,4.138c2.073,0,3.472-1.516,3.472-3.933s-1.4-3.933-3.472-3.933-3.472,1.509-3.472,3.933S104.451,16.125,106.523,16.125Zm0-.857c-1.494,0-2.483-1.143-2.483-3.076s.989-3.076,2.483-3.076,2.49,1.143,2.49,3.076S108.018,15.268,106.523,15.268Zm10.869-6.885h-.967V12.9a2.161,2.161,0,0,1-2.219,2.358,1.851,1.851,0,0,1-1.992-2.095V8.383h-.974v4.951a2.548,2.548,0,0,0,2.688,2.791,2.615,2.615,0,0,0,2.527-1.538h.022V16h.916Zm2.087-1.9v1.9h-1.135v.806h1.135v4.937c0,1.377.513,1.919,1.787,1.919a6.051,6.051,0,0,0,.718-.044v-.828c-.059.015-.425.029-.527.029-.7,0-1.011-.337-1.011-1.121V9.188h1.5V8.383h-1.5v-1.9ZM126.394,16h.967V11.488a2.168,2.168,0,0,1,2.2-2.366,1.868,1.868,0,0,1,2.007,2.095V16h.967V11.063a2.746,2.746,0,0,0-5.208-1.274h-.022V8.383h-.916Zm10.869.125c2.073,0,3.472-1.516,3.472-3.933s-1.4-3.933-3.472-3.933-3.472,1.509-3.472,3.933S135.19,16.125,137.263,16.125Zm0-.857c-1.494,0-2.483-1.143-2.483-3.076s.989-3.076,2.483-3.076,2.49,1.143,2.49,3.076S138.757,15.268,137.263,15.268Zm14.253-6.885h-.974l-1.707,6.533h-.022l-1.9-6.533h-.981l-1.9,6.533h-.022L142.31,8.383h-.981L143.5,16h1.025l1.89-6.321h.022L148.33,16h1.025Zm1.047,7.683a.685.685,0,0,0,0-1.37.685.685,0,1,0,0,1.37Z" transform="translate(108.374 57.692)"/><rect class="c" width="81.933" height="89.17" transform="translate(0 0)"/><path class="d" d="M.393,0H.66V-2.123A1.149,1.149,0,0,1,1.818-3.37a1.021,1.021,0,0,1,1.094,1.1V0h.267V-2.3a1.22,1.22,0,0,0-1.3-1.306,1.242,1.242,0,0,0-1.23.827H.643v-.772H.393ZM5.7.055A1.616,1.616,0,0,0,7.285-1.777,1.616,1.616,0,0,0,5.7-3.609,1.613,1.613,0,0,0,4.117-1.777,1.613,1.613,0,0,0,5.7.055Zm0-.239c-.79,0-1.316-.6-1.316-1.593S4.91-3.37,5.7-3.37s1.319.6,1.319,1.593S6.489-.185,5.7-.185Zm6.854-3.37h-.28L11.364-.294h-.01l-.988-3.261h-.3L9.074-.294H9.067L8.155-3.555H7.878L8.91,0h.314l.984-3.213h.01L11.21,0h.308Z" transform="translate(382.942 25.297)"/><path class="e" d="M1122.493-3130.1h29.4v29.4h-29.4Z" transform="translate(-1096.993 3156.322)"/><path class="b" d="M1120.869-3097.3q.146-.234.468-.029a31.169,31.169,0,0,0,15.913,4.241,31.483,31.483,0,0,0,11.321-2.135q.146-.059.424-.176t.395-.176a.521.521,0,0,1,.688.176q.249.351-.161.644-.527.38-1.346.878a21.919,21.919,0,0,1-5.616,2.311,23.655,23.655,0,0,1-6.056.819,23.433,23.433,0,0,1-8.63-1.594,23.774,23.774,0,0,1-7.284-4.49.4.4,0,0,1-.176-.293A.315.315,0,0,1,1120.869-3097.3Zm8.805-8.337a5.9,5.9,0,0,1,.994-3.452,6.137,6.137,0,0,1,2.721-2.165,14.7,14.7,0,0,1,3.89-.965q.79-.088,2.574-.234v-.5a5.213,5.213,0,0,0-.41-2.516,2.193,2.193,0,0,0-1.93-.877h-.234a3.2,3.2,0,0,0-1.667.614,2.4,2.4,0,0,0-.907,1.462.743.743,0,0,1-.585.673l-3.364-.41q-.5-.116-.5-.527a.852.852,0,0,1,.029-.2,5.606,5.606,0,0,1,2.443-3.861,9.167,9.167,0,0,1,4.549-1.4h.732a7.4,7.4,0,0,1,5.207,1.726,5.554,5.554,0,0,1,.541.629,5.655,5.655,0,0,1,.4.6,3.09,3.09,0,0,1,.263.76q.117.5.176.687a4.2,4.2,0,0,1,.088.819q.03.628.029.746v7.079a4.2,4.2,0,0,0,.219,1.39,3.618,3.618,0,0,0,.424.907q.2.278.673.892a.873.873,0,0,1,.176.468.506.506,0,0,1-.234.41q-2.428,2.106-2.633,2.281a.814.814,0,0,1-.848.059,9.829,9.829,0,0,1-.717-.673q-.307-.321-.439-.468a6.493,6.493,0,0,1-.424-.571q-.292-.423-.409-.57a7.176,7.176,0,0,1-3.218,2.223,8.817,8.817,0,0,1-2.457.293,5.127,5.127,0,0,1-3.7-1.389A5.2,5.2,0,0,1,1129.675-3105.638Zm5.031-.585a2.77,2.77,0,0,0,.571,1.828,1.891,1.891,0,0,0,1.535.688,1.52,1.52,0,0,0,.249-.029,1.5,1.5,0,0,1,.219-.029,2.975,2.975,0,0,0,1.9-1.58,4.583,4.583,0,0,0,.483-1.214,5.574,5.574,0,0,0,.175-1.067q.015-.41.015-1.346v-.731a10.676,10.676,0,0,0-2.574.234A3.136,3.136,0,0,0,1134.706-3106.224Zm12.286,9.419a.908.908,0,0,1,.175-.234,4.6,4.6,0,0,1,1.4-.673,9.552,9.552,0,0,1,2.165-.322,1.751,1.751,0,0,1,.556.029q1.317.118,1.58.439a.956.956,0,0,1,.117.527v.2a6.669,6.669,0,0,1-.556,2.413,5.621,5.621,0,0,1-1.55,2.238.443.443,0,0,1-.263.117.254.254,0,0,1-.117-.029q-.176-.088-.088-.322a11.16,11.16,0,0,0,1.083-3.539.752.752,0,0,0-.117-.468q-.293-.351-1.638-.351-.5,0-1.17.058-.731.088-1.345.176a.337.337,0,0,1-.234-.059.1.1,0,0,1-.029-.117A.223.223,0,0,1,1146.993-3096.8Z" transform="translate(-1095.934 3149.96)"/></g></svg>