<svg xmlns="http://www.w3.org/2000/svg" xmlns:xlink="http://www.w3.org/1999/xlink" width="446.295" height="111.839" viewBox="0 0 446.295 111.839"><defs><style>.a{fill:#fff;}.b{fill:#333;}.c{fill:#ff7ca9;}.d{fill:#4d4d4d;}.e{filter:url(#a);}</style><filter id="a" x="0" y="0" width="446.295" height="111.839" filterUnits="userSpaceOnUse"><feOffset dy="3" input="SourceAlpha"/><feGaussianBlur stdDeviation="5" result="b"/><feFlood flood-opacity="0.349"/><feComposite operator="in" in2="b"/><feComposite in="SourceGraphic"/></filter></defs><g transform="translate(14.657 12)"><g class="e" transform="matrix(1, 0, 0, 1, -14.66, -12)"><rect class="a" width="416.295" height="81.839" transform="translate(15 12)"/></g><path class="b" d="M6.906,0V-4.474l4.175-7.5H8.392L5.7-6.865H5.645L2.963-11.978H.232L4.4-4.474V0Zm7.616.191c2.689,0,4.408-1.718,4.408-4.648,0-2.889-1.743-4.632-4.408-4.632s-4.408,1.751-4.408,4.632C10.114-1.536,11.833.191,14.522.191Zm0-1.851c-1.2,0-1.951-1-1.951-2.789,0-1.768.772-2.789,1.951-2.789s1.942,1.021,1.942,2.789C16.464-2.665,15.709-1.66,14.522-1.66ZM28.563-8.9H26.139v5.1a1.737,1.737,0,0,1-1.751,1.951c-1.071,0-1.66-.631-1.66-1.818V-8.9H20.3v5.736a3.046,3.046,0,0,0,3.2,3.329A2.644,2.644,0,0,0,26.172-1.6h.05V0h2.341ZM39.42,0V-9.911h3.47v-2.067H33.451v2.067h3.461V0ZM51.36-8.9H48.936v5.1a1.737,1.737,0,0,1-1.751,1.951c-1.071,0-1.66-.631-1.66-1.818V-8.9H43.1v5.736a3.046,3.046,0,0,0,3.2,3.329A2.644,2.644,0,0,0,48.97-1.6h.05V0H51.36ZM58.4.141c2.241,0,3.611-1.727,3.611-4.59s-1.378-4.59-3.619-4.59a2.894,2.894,0,0,0-2.748,1.685h-.05v-4.624H53.166V0h2.391V-1.527h.05A2.934,2.934,0,0,0,58.4.141ZM57.557-7.1c1.2,0,1.967,1.029,1.967,2.648s-.755,2.64-1.967,2.64c-1.179,0-1.976-1.029-1.976-2.64C55.581-6.043,56.386-7.1,57.557-7.1ZM69.323-2.723A1.771,1.771,0,0,1,67.53-1.6a1.979,1.979,0,0,1-2.042-2.142v-.149h6.134v-.739c0-2.706-1.635-4.458-4.225-4.458-2.631,0-4.292,1.843-4.292,4.682s1.644,4.6,4.383,4.6c2.2,0,3.793-1.17,4.059-2.914ZM67.422-7.3A1.846,1.846,0,0,1,69.29-5.379H65.513A1.927,1.927,0,0,1,67.422-7.3Z" transform="translate(108.545 32.554)"/><path d="M1.846,0V-8.244h.048L7.7,0h.9V-9.864H7.677v8.237H7.629L1.846-9.864H.923V0ZM15.357-2.017A1.925,1.925,0,0,1,13.34-.677a2.306,2.306,0,0,1-2.324-2.6v-.055h5.325v-.383c0-2.119-1.189-3.507-3.076-3.507-1.928,0-3.179,1.483-3.179,3.691,0,2.256,1.237,3.65,3.233,3.65a2.772,2.772,0,0,0,2.933-2.133ZM13.251-6.433a2.182,2.182,0,0,1,2.16,2.379H11.023A2.275,2.275,0,0,1,13.251-6.433Zm13.3-.677h-.909l-1.593,6.1h-.021l-1.771-6.1h-.916l-1.771,6.1h-.021l-1.593-6.1h-.916L19.065,0h.957l1.764-5.9h.021L23.577,0h.957Zm9.638,0h-.943L33.079-.95h-.021L30.9-7.109h-.957L32.586,0h.964ZM37.73-8.586a.6.6,0,0,0,.608-.6.6.6,0,0,0-.608-.6.6.6,0,0,0-.6.6A.6.6,0,0,0,37.73-8.586ZM37.279,0h.9V-7.109h-.9Zm5.349.116A2.619,2.619,0,0,0,45.089-1.5h.021V0h.861V-9.864h-.909v4.218h-.021a2.57,2.57,0,0,0-2.434-1.579c-1.784,0-3.021,1.456-3.021,3.671S40.83.116,42.628.116Zm.157-6.542c1.354,0,2.283,1.155,2.283,2.871s-.93,2.871-2.283,2.871-2.27-1.135-2.27-2.871S41.418-6.426,42.785-6.426Zm9.861,4.409a1.925,1.925,0,0,1-2.017,1.34,2.306,2.306,0,0,1-2.324-2.6v-.055H53.63v-.383c0-2.119-1.189-3.507-3.076-3.507-1.928,0-3.179,1.483-3.179,3.691,0,2.256,1.237,3.65,3.233,3.65a2.772,2.772,0,0,0,2.933-2.133ZM50.541-6.433A2.182,2.182,0,0,1,52.7-4.054H48.312A2.275,2.275,0,0,1,50.541-6.433ZM57.865.116c1.935,0,3.24-1.415,3.24-3.671S59.8-7.226,57.865-7.226s-3.24,1.408-3.24,3.671S55.931.116,57.865.116Zm0-.8c-1.395,0-2.317-1.066-2.317-2.871s.923-2.871,2.317-2.871,2.324,1.066,2.324,2.871S59.26-.684,57.865-.684ZM65.453,0h.9V-4.43a1.706,1.706,0,0,1,1.654-1.935,1.83,1.83,0,0,1,.677.1V-7.15a2.346,2.346,0,0,0-.561-.075,1.81,1.81,0,0,0-1.8,1.381h-.021V-7.109h-.854Zm8.856-2.017a1.925,1.925,0,0,1-2.017,1.34,2.306,2.306,0,0,1-2.324-2.6v-.055h5.325v-.383c0-2.119-1.189-3.507-3.076-3.507-1.928,0-3.179,1.483-3.179,3.691,0,2.256,1.237,3.65,3.233,3.65A2.772,2.772,0,0,0,75.2-2.017ZM72.2-6.433a2.182,2.182,0,0,1,2.16,2.379H69.975A2.275,2.275,0,0,1,72.2-6.433ZM76.7,0h.9V-9.864h-.9Zm7.577-2.017a1.925,1.925,0,0,1-2.017,1.34,2.306,2.306,0,0,1-2.324-2.6v-.055h5.325v-.383c0-2.119-1.189-3.507-3.076-3.507-1.928,0-3.179,1.483-3.179,3.691,0,2.256,1.237,3.65,3.233,3.65a2.772,2.772,0,0,0,2.933-2.133ZM82.176-6.433a2.182,2.182,0,0,1,2.16,2.379H79.948A2.275,2.275,0,0,1,82.176-6.433ZM88.722.116a2.648,2.648,0,0,0,2.427-1.47h.021V0h.861V-4.867a2.334,2.334,0,0,0-2.639-2.358,2.484,2.484,0,0,0-2.769,2.174H87.5a1.7,1.7,0,0,1,1.873-1.374,1.561,1.561,0,0,1,1.757,1.641v.615l-2.215.137c-1.641.109-2.55.848-2.55,2.064A2.121,2.121,0,0,0,88.722.116Zm.185-.779c-.964,0-1.627-.533-1.627-1.306S87.9-3.24,89.022-3.315l2.105-.144v.786A2.1,2.1,0,0,1,88.906-.663Zm4.638-4.546c0,.984.636,1.579,1.989,1.894l1.066.253c.957.232,1.306.574,1.306,1.189,0,.745-.7,1.244-1.771,1.244a1.692,1.692,0,0,1-1.894-1.408h-.9c.123,1.3,1.189,2.153,2.8,2.153,1.552,0,2.68-.854,2.68-2.058,0-1-.533-1.552-1.955-1.894l-1.073-.253c-.943-.226-1.347-.588-1.347-1.169,0-.711.663-1.224,1.634-1.224a1.6,1.6,0,0,1,1.743,1.429h.868a2.366,2.366,0,0,0-2.611-2.174C94.59-7.226,93.544-6.385,93.544-5.209ZM105.08-2.017a1.925,1.925,0,0,1-2.017,1.34,2.306,2.306,0,0,1-2.324-2.6v-.055h5.325v-.383c0-2.119-1.189-3.507-3.076-3.507-1.928,0-3.179,1.483-3.179,3.691,0,2.256,1.237,3.65,3.233,3.65a2.772,2.772,0,0,0,2.933-2.133Zm-2.105-4.416a2.182,2.182,0,0,1,2.16,2.379h-4.389A2.275,2.275,0,0,1,102.974-6.433Zm5.4.711a.63.63,0,0,0,.636-.636A.632.632,0,0,0,108.378-7a.638.638,0,0,0-.643.643A.636.636,0,0,0,108.378-5.722Zm0,5.783a.63.63,0,0,0,.636-.636.632.632,0,0,0-.636-.643.638.638,0,0,0-.643.643A.636.636,0,0,0,108.378.062ZM117.75,0c2.085,0,3.336-1.025,3.336-2.707a2.427,2.427,0,0,0-2.317-2.454v-.048a2.23,2.23,0,0,0,1.8-2.222c0-1.456-1.148-2.434-2.844-2.434h-3.548V0Zm-2.639-9.037h2.42c1.313,0,2.1.636,2.1,1.709,0,1.162-.875,1.846-2.372,1.846h-2.146Zm0,8.21V-4.676H117.5c1.7,0,2.632.69,2.632,1.921s-.9,1.928-2.509,1.928ZM127.33-2.017a1.925,1.925,0,0,1-2.017,1.34,2.306,2.306,0,0,1-2.324-2.6v-.055h5.325v-.383c0-2.119-1.189-3.507-3.076-3.507-1.928,0-3.179,1.483-3.179,3.691,0,2.256,1.237,3.65,3.233,3.65a2.772,2.772,0,0,0,2.933-2.133Zm-2.105-4.416a2.182,2.182,0,0,1,2.16,2.379H123A2.275,2.275,0,0,1,125.225-6.433Zm4.952,9c1.162,0,1.675-.465,2.3-2.14l2.8-7.54h-.957L132.153-.9h-.021l-2.16-6.207H129L131.661.048l-.185.533c-.314.889-.67,1.217-1.326,1.217a1.981,1.981,0,0,1-.424-.041v.772A2.827,2.827,0,0,0,130.177,2.57ZM139.047.116c1.935,0,3.24-1.415,3.24-3.671s-1.306-3.671-3.24-3.671-3.24,1.408-3.24,3.671S137.112.116,139.047.116Zm0-.8c-1.395,0-2.317-1.066-2.317-2.871s.923-2.871,2.317-2.871,2.324,1.066,2.324,2.871S140.441-.684,139.047-.684ZM143.63,0h.9V-4.211a2.024,2.024,0,0,1,2.058-2.208,1.743,1.743,0,0,1,1.873,1.955V0h.9V-4.607a2.38,2.38,0,0,0-2.516-2.618A2.4,2.4,0,0,0,144.505-5.8h-.021V-7.109h-.854Zm13.183-4.86a2.8,2.8,0,0,0-2.926-2.365c-1.935,0-3.213,1.429-3.213,3.671,0,2.276,1.278,3.671,3.22,3.671A2.775,2.775,0,0,0,156.82-2.2h-.9A1.927,1.927,0,0,1,153.9-.684c-1.388,0-2.3-1.087-2.3-2.871,0-1.757.909-2.871,2.3-2.871a1.97,1.97,0,0,1,2.03,1.565ZM163-2.017a1.925,1.925,0,0,1-2.017,1.34,2.306,2.306,0,0,1-2.324-2.6v-.055h5.325v-.383c0-2.119-1.189-3.507-3.076-3.507-1.928,0-3.179,1.483-3.179,3.691,0,2.256,1.237,3.65,3.233,3.65A2.772,2.772,0,0,0,163.9-2.017ZM160.9-6.433a2.182,2.182,0,0,1,2.16,2.379h-4.389A2.275,2.275,0,0,1,160.9-6.433Zm11.894,2.871v-.848h-4.484v.848ZM187.106,0V-9.864h-1.08l-3.65,8.675h-.041l-3.657-8.675H177.6V0h.875V-8.094h.041L181.945,0h.813l3.432-8.094h.041V0Zm2.355,2.57c1.162,0,1.675-.465,2.3-2.14l2.8-7.54H193.6L191.436-.9h-.021l-2.16-6.207h-.971L190.944.048l-.185.533c-.314.889-.67,1.217-1.326,1.217a1.981,1.981,0,0,1-.424-.041v.772A2.827,2.827,0,0,0,189.461,2.57Zm9.276-12.435V0h.93V-3.719h2.42a2.972,2.972,0,0,0,3.172-3.076,2.958,2.958,0,0,0-3.165-3.069Zm.93.834h2.208A2.144,2.144,0,0,1,204.3-6.795a2.152,2.152,0,0,1-2.427,2.242h-2.208Zm8.48,9.146a2.648,2.648,0,0,0,2.427-1.47h.021V0h.861V-4.867a2.334,2.334,0,0,0-2.639-2.358,2.484,2.484,0,0,0-2.769,2.174h.875A1.7,1.7,0,0,1,208.8-6.426a1.561,1.561,0,0,1,1.757,1.641v.615l-2.215.137c-1.641.109-2.55.848-2.55,2.064A2.121,2.121,0,0,0,208.146.116Zm.185-.779c-.964,0-1.627-.533-1.627-1.306s.622-1.271,1.743-1.347l2.105-.144v.786A2.1,2.1,0,0,1,208.331-.663ZM213.113,0h.9V-4.43a1.706,1.706,0,0,1,1.654-1.935,1.83,1.83,0,0,1,.677.1V-7.15a2.346,2.346,0,0,0-.561-.075,1.81,1.81,0,0,0-1.8,1.381h-.021V-7.109h-.854Zm4.8-8.887v1.777h-1.06v.752h1.06V-1.75c0,1.285.479,1.791,1.668,1.791a5.647,5.647,0,0,0,.67-.041V-.772c-.055.014-.4.027-.492.027-.656,0-.943-.314-.943-1.046V-6.357h1.4v-.752h-1.4V-8.887ZM222.149,2.57c1.162,0,1.675-.465,2.3-2.14l2.8-7.54h-.957L224.125-.9H224.1l-2.16-6.207h-.971L223.633.048l-.185.533c-.314.889-.67,1.217-1.326,1.217a1.981,1.981,0,0,1-.424-.041v.772A2.827,2.827,0,0,0,222.149,2.57Zm5.9-2.509a.63.63,0,0,0,.636-.636.632.632,0,0,0-.636-.643.638.638,0,0,0-.643.643A.636.636,0,0,0,228.045.062Z" transform="translate(108.545 56.692)"/><rect class="c" width="81.933" height="81.839" transform="translate(0 0)"/><path class="d" d="M.393,0H.66V-2.123A1.149,1.149,0,0,1,1.818-3.37a1.021,1.021,0,0,1,1.094,1.1V0h.267V-2.3a1.22,1.22,0,0,0-1.3-1.306,1.242,1.242,0,0,0-1.23.827H.643v-.772H.393ZM5.7.055A1.616,1.616,0,0,0,7.285-1.777,1.616,1.616,0,0,0,5.7-3.609,1.613,1.613,0,0,0,4.117-1.777,1.613,1.613,0,0,0,5.7.055Zm0-.239c-.79,0-1.316-.6-1.316-1.593S4.91-3.37,5.7-3.37s1.319.6,1.319,1.593S6.489-.185,5.7-.185Zm6.854-3.37h-.28L11.364-.294h-.01l-.988-3.261h-.3L9.074-.294H9.067L8.155-3.555H7.878L8.91,0h.314l.984-3.213h.01L11.21,0h.308Z" transform="translate(382.942 25.297)"/><g transform="translate(27.018 31.271)"><path class="b" d="M1140.7-2075.468l-5.724-.1a29.859,29.859,0,0,1-5.528-.342c-2.764-.565-2.96-3.333-3.164-5.655a39.667,39.667,0,0,1,.36-9.826,3.36,3.36,0,0,1,3.315-3.018,183.25,183.25,0,0,1,18.563-.178,13.382,13.382,0,0,1,1.949.232c3.169.556,3.247,3.692,3.452,6.334a35.908,35.908,0,0,1-.273,8c-.314,2.194-.915,4.034-3.452,4.212-3.178.233-6.284.419-9.471.36C1140.724-2075.468,1140.7-2075.468,1140.7-2075.468Zm-3.365-5.554c2.4-1.375,4.745-2.728,7.126-4.094-2.4-1.375-4.745-2.727-7.126-4.094Z" transform="translate(-1126.129 2094.739)"/></g></g></svg>