<svg xmlns="http://www.w3.org/2000/svg" xmlns:xlink="http://www.w3.org/1999/xlink" width="446.295" height="111.839" viewBox="0 0 446.295 111.839"><defs><style>.a{fill:#fff;}.b{fill:#333;}.c{fill:#ff7ca9;}.d{fill:#4d4d4d;}.e{fill:none;}.f{filter:url(#a);}</style><filter id="a" x="0" y="0" width="446.295" height="111.839" filterUnits="userSpaceOnUse"><feOffset dy="3" input="SourceAlpha"/><feGaussianBlur stdDeviation="5" result="b"/><feFlood flood-opacity="0.349"/><feComposite operator="in" in2="b"/><feComposite in="SourceGraphic"/></filter></defs><g transform="translate(14.657 12)"><g class="f" transform="matrix(1, 0, 0, 1, -14.66, -12)"><rect class="a" width="416.295" height="81.839" transform="translate(15 12)"/></g><path class="b" d="M3.4,0V-7.844H3.47L9.073,0h2.075V-11.978h-2.4v7.8H8.683l-5.595-7.8H1V0ZM18.826-2.723A1.771,1.771,0,0,1,17.033-1.6a1.979,1.979,0,0,1-2.042-2.142v-.149h6.134v-.739c0-2.706-1.635-4.458-4.225-4.458-2.631,0-4.292,1.843-4.292,4.682s1.644,4.6,4.383,4.6c2.2,0,3.793-1.17,4.059-2.914ZM16.925-7.3a1.846,1.846,0,0,1,1.868,1.917H15.016A1.927,1.927,0,0,1,16.925-7.3Zm6.093-3.652V-8.9H21.765v1.826h1.253V-2.4c0,1.735.813,2.432,2.905,2.432a5.572,5.572,0,0,0,1.154-.1V-1.851a3.923,3.923,0,0,1-.589.042c-.714,0-1.046-.324-1.046-1V-7.072h1.644V-8.9H25.442v-2.05ZM29.061,0h2.424V-7.072h1.71V-8.857H31.427v-.589c0-.631.349-.979,1.146-.979a3.768,3.768,0,0,1,.656.05v-1.6a7.052,7.052,0,0,0-1.237-.108c-2.108,0-2.93.813-2.93,2.557v.672H27.849v1.785h1.212Zm5.462,0h2.424V-11.978H34.523Zm5.3-10.1a1.252,1.252,0,0,0,1.262-1.245,1.247,1.247,0,0,0-1.262-1.245,1.247,1.247,0,0,0-1.262,1.245A1.252,1.252,0,0,0,39.827-10.1ZM38.624,0h2.424V-8.9H38.624Zm7.695-3.088L48.012,0h2.631L47.887-4.5l2.781-4.4h-2.64l-1.577,3H46.4l-1.6-3H42.068l2.772,4.466L42.052,0H44.6l1.668-3.088Z" transform="translate(108.374 32.555)"/><path d="M1.978,0V-8.833h.051L8.247,0h.967V-10.569H8.225v8.826H8.174l-6.2-8.826H.989V0ZM16.3-2.161A2.063,2.063,0,0,1,14.143-.725c-1.516,0-2.49-1.069-2.49-2.791v-.059h5.706v-.41c0-2.271-1.274-3.757-3.3-3.757-2.065,0-3.406,1.589-3.406,3.955,0,2.417,1.326,3.911,3.464,3.911a2.97,2.97,0,0,0,3.142-2.285ZM14.048-6.892a2.338,2.338,0,0,1,2.314,2.549h-4.7A2.437,2.437,0,0,1,14.048-6.892Zm14.1-.725h-.974L25.466-1.084h-.022l-1.9-6.533h-.981l-1.9,6.533h-.022L18.94-7.617h-.981L20.127,0h1.025l1.89-6.321h.022L24.961,0h1.025Zm9.316,5.457A2.063,2.063,0,0,1,35.3-.725c-1.516,0-2.49-1.069-2.49-2.791v-.059h5.706v-.41c0-2.271-1.274-3.757-3.3-3.757-2.065,0-3.406,1.589-3.406,3.955,0,2.417,1.326,3.911,3.464,3.911a2.97,2.97,0,0,0,3.142-2.285ZM35.208-6.892a2.338,2.338,0,0,1,2.314,2.549h-4.7A2.437,2.437,0,0,1,35.208-6.892Zm8.174-.85a2.785,2.785,0,0,0-2.622,1.736H40.73V-7.617h-.916V2.52h.967V-1.567h.029A2.733,2.733,0,0,0,43.4.125c1.912,0,3.223-1.56,3.223-3.933S45.308-7.742,43.381-7.742ZM43.213-.732c-1.443,0-2.432-1.238-2.432-3.076s.989-3.076,2.432-3.076c1.472,0,2.424,1.223,2.424,3.076S44.685-.732,43.213-.732ZM48.472-9.2a.647.647,0,0,0,.652-.645.647.647,0,0,0-.652-.645.645.645,0,0,0-.645.645A.645.645,0,0,0,48.472-9.2ZM47.988,0h.967V-7.617h-.967Zm2.549-5.581c0,1.055.681,1.692,2.131,2.029l1.143.271c1.025.249,1.4.615,1.4,1.274,0,.8-.754,1.333-1.9,1.333a1.813,1.813,0,0,1-2.029-1.509h-.967c.132,1.392,1.274,2.307,3,2.307,1.663,0,2.871-.916,2.871-2.2,0-1.077-.571-1.663-2.095-2.029l-1.15-.271C51.929-4.622,51.5-5.01,51.5-5.632c0-.762.71-1.311,1.75-1.311a1.713,1.713,0,0,1,1.868,1.531h.93a2.535,2.535,0,0,0-2.8-2.329C51.658-7.742,50.537-6.841,50.537-5.581ZM60.571.125c2.073,0,3.472-1.516,3.472-3.933s-1.4-3.933-3.472-3.933S57.1-6.233,57.1-3.809,58.5.125,60.571.125Zm0-.857c-1.494,0-2.483-1.143-2.483-3.076s.989-3.076,2.483-3.076,2.49,1.143,2.49,3.076S62.065-.732,60.571-.732ZM68.21.125a2.806,2.806,0,0,0,2.637-1.736h.022V0h.923V-10.569h-.974V-6.05H70.8a2.753,2.753,0,0,0-2.607-1.692c-1.912,0-3.237,1.56-3.237,3.933S66.284.125,68.21.125Zm.168-7.009c1.45,0,2.446,1.238,2.446,3.076s-1,3.076-2.446,3.076-2.432-1.216-2.432-3.076S66.914-6.885,68.379-6.885ZM78.794-2.161A2.063,2.063,0,0,1,76.633-.725c-1.516,0-2.49-1.069-2.49-2.791v-.059h5.706v-.41c0-2.271-1.274-3.757-3.3-3.757-2.065,0-3.406,1.589-3.406,3.955,0,2.417,1.326,3.911,3.464,3.911a2.97,2.97,0,0,0,3.142-2.285ZM76.538-6.892a2.338,2.338,0,0,1,2.314,2.549h-4.7A2.437,2.437,0,0,1,76.538-6.892Zm4.453,1.311c0,1.055.681,1.692,2.131,2.029l1.143.271c1.025.249,1.4.615,1.4,1.274,0,.8-.754,1.333-1.9,1.333a1.813,1.813,0,0,1-2.029-1.509h-.967c.132,1.392,1.274,2.307,3,2.307,1.663,0,2.871-.916,2.871-2.2,0-1.077-.571-1.663-2.095-2.029l-1.15-.271c-1.011-.242-1.443-.63-1.443-1.252,0-.762.71-1.311,1.75-1.311a1.713,1.713,0,0,1,1.868,1.531h.93a2.535,2.535,0,0,0-2.8-2.329C82.112-7.742,80.991-6.841,80.991-5.581ZM94.094.125c2.073,0,3.472-1.516,3.472-3.933s-1.4-3.933-3.472-3.933-3.472,1.509-3.472,3.933S92.021.125,94.094.125Zm0-.857c-1.494,0-2.483-1.143-2.483-3.076s.989-3.076,2.483-3.076,2.49,1.143,2.49,3.076S95.588-.732,94.094-.732ZM98.855,0h.967V-4.512a2.168,2.168,0,0,1,2.2-2.366,1.868,1.868,0,0,1,2.007,2.095V0H105V-4.937a2.55,2.55,0,0,0-2.7-2.805,2.575,2.575,0,0,0-2.512,1.531h-.022V-7.617h-.916Zm11.8-10.569-.916,3.523h1.025l.7-3.523Zm2.461,0L112.2-7.046h1.025l.7-3.523Zm6.833-.168c-2.944,0-4.8,2.109-4.8,5.457S117,.168,119.949.168s4.8-2.1,4.8-5.449S122.893-10.737,119.949-10.737Zm0,.93c2.314,0,3.779,1.75,3.779,4.526s-1.465,4.519-3.779,4.519-3.772-1.75-3.772-4.519S117.634-9.807,119.949-9.807ZM126.218,0h.967V-4.512a2.168,2.168,0,0,1,2.2-2.366A1.868,1.868,0,0,1,131.4-4.783V0h.967V-4.937a2.55,2.55,0,0,0-2.7-2.805,2.575,2.575,0,0,0-2.512,1.531h-.022V-7.617h-.916Zm7.844,0h.967V-10.569h-.967Zm3.252-9.2a.647.647,0,0,0,.652-.645.647.647,0,0,0-.652-.645.645.645,0,0,0-.645.645A.645.645,0,0,0,137.314-9.2ZM136.831,0h.967V-7.617h-.967Zm2.7,0h.967V-4.512a2.168,2.168,0,0,1,2.2-2.366,1.868,1.868,0,0,1,2.007,2.095V0h.967V-4.937a2.55,2.55,0,0,0-2.7-2.805,2.575,2.575,0,0,0-2.512,1.531h-.022V-7.617h-.916Zm13.044-2.161a2.063,2.063,0,0,1-2.161,1.436c-1.516,0-2.49-1.069-2.49-2.791v-.059h5.706v-.41c0-2.271-1.274-3.757-3.3-3.757-2.065,0-3.406,1.589-3.406,3.955,0,2.417,1.326,3.911,3.464,3.911a2.97,2.97,0,0,0,3.142-2.285Zm-2.256-4.731a2.338,2.338,0,0,1,2.314,2.549h-4.7A2.437,2.437,0,0,1,150.322-6.892ZM158.064,0h.967V-10.569h-.967Zm5.793.125c2.073,0,3.472-1.516,3.472-3.933s-1.4-3.933-3.472-3.933-3.472,1.509-3.472,3.933S161.785.125,163.857.125Zm0-.857c-1.494,0-2.483-1.143-2.483-3.076s.989-3.076,2.483-3.076,2.49,1.143,2.49,3.076S165.352-.732,163.857-.732Zm10.583-6.885H173.43l-2.322,6.6h-.022l-2.314-6.6h-1.025L170.581,0h1.033Zm6.064,5.457a2.063,2.063,0,0,1-2.161,1.436c-1.516,0-2.49-1.069-2.49-2.791v-.059h5.706v-.41c0-2.271-1.274-3.757-3.3-3.757-2.065,0-3.406,1.589-3.406,3.955,0,2.417,1.326,3.911,3.464,3.911a2.97,2.97,0,0,0,3.142-2.285ZM178.25-6.892a2.338,2.338,0,0,1,2.314,2.549h-4.7A2.437,2.437,0,0,1,178.25-6.892Zm7.522,1.311c0,1.055.681,1.692,2.131,2.029l1.143.271c1.025.249,1.4.615,1.4,1.274,0,.8-.754,1.333-1.9,1.333a1.813,1.813,0,0,1-2.029-1.509h-.967c.132,1.392,1.274,2.307,3,2.307,1.663,0,2.871-.916,2.871-2.2,0-1.077-.571-1.663-2.095-2.029l-1.15-.271c-1.011-.242-1.443-.63-1.443-1.252,0-.762.71-1.311,1.75-1.311a1.713,1.713,0,0,1,1.868,1.531h.93a2.535,2.535,0,0,0-2.8-2.329C186.892-7.742,185.771-6.841,185.771-5.581Zm7.361-3.94v1.9H192v.806h1.135v4.937c0,1.377.513,1.919,1.787,1.919A6.051,6.051,0,0,0,195.637,0V-.828c-.059.015-.425.029-.527.029-.7,0-1.011-.337-1.011-1.121V-6.812h1.5v-.806h-1.5v-1.9ZM199.8.125c2.073,0,3.472-1.516,3.472-3.933s-1.4-3.933-3.472-3.933-3.472,1.509-3.472,3.933S197.732.125,199.8.125Zm0-.857c-1.494,0-2.483-1.143-2.483-3.076s.989-3.076,2.483-3.076,2.49,1.143,2.49,3.076S201.3-.732,199.8-.732ZM204.565,0h.967V-4.746A1.827,1.827,0,0,1,207.3-6.819a1.961,1.961,0,0,1,.725.11v-.952a2.513,2.513,0,0,0-.6-.081A1.94,1.94,0,0,0,205.5-6.262h-.022V-7.617h-.916Zm5.054,2.754c1.245,0,1.794-.5,2.461-2.292l3-8.079H214.05l-2.314,6.65h-.022L209.4-7.617h-1.04L211.208.051l-.2.571c-.337.952-.718,1.3-1.421,1.3a2.122,2.122,0,0,1-.454-.044V2.71A3.029,3.029,0,0,0,209.619,2.754Zm7.4-9.8.923-3.523h-1.033l-.7,3.523Zm2.461,0,.923-3.523h-1.033l-.7,3.523Zm1.3,7.112a.675.675,0,0,0,.681-.681.677.677,0,0,0-.681-.688.683.683,0,0,0-.688.688A.681.681,0,0,0,220.781.066Z" transform="translate(108.374 57.692)"/><rect class="c" width="81.933" height="81.839" transform="translate(0)"/><path class="d" d="M.393,0H.66V-2.123A1.149,1.149,0,0,1,1.818-3.37a1.021,1.021,0,0,1,1.094,1.1V0h.267V-2.3a1.22,1.22,0,0,0-1.3-1.306,1.242,1.242,0,0,0-1.23.827H.643v-.772H.393ZM5.7.055A1.616,1.616,0,0,0,7.285-1.777,1.616,1.616,0,0,0,5.7-3.609,1.613,1.613,0,0,0,4.117-1.777,1.613,1.613,0,0,0,5.7.055Zm0-.239c-.79,0-1.316-.6-1.316-1.593S4.91-3.37,5.7-3.37s1.319.6,1.319,1.593S6.489-.185,5.7-.185Zm6.854-3.37h-.28L11.364-.294h-.01l-.988-3.261h-.3L9.074-.294H9.067L8.155-3.555H7.878L8.91,0h.314l.984-3.213h.01L11.21,0h.308Z" transform="translate(382.942 25.297)"/><path class="e" d="M1122.493-2871.975h29.4v29.4h-29.4Z" transform="translate(-1096.993 2898.193)"/><g transform="translate(32.86 26.205)"><path class="b" d="M1168.419-2871.947l-.012,6.5-.011,6.5-.534-1.51v0l-.693,14.477c.681,1.92,1.045,2.945,1.049,2.949s.391.027.859.051c1.417.07,3.174.22,4.509.387a3.069,3.069,0,0,0,.593.043c.019-.016.023-6.635.019-14.713l-.012-14.686Z" transform="translate(-1157.987 2871.97)"/><path class="b" d="M1142.371-2872.006v14.7c0,8.086.008,14.709.019,14.721s.511-.039,1.115-.1,1.436-.15,1.85-.186c.635-.054,2.539-.174,2.756-.178.066,0,.07-.329.077-6.228l.011-6.229.461,1.3c.07.2.093.263.163.46l.693-14.473c-.147-.415-.069-.2-.236-.67-.565-1.6-1.045-2.95-1.064-3.012l-.039-.108h-5.806Z" transform="translate(-1142.371 2872.01)"/><path class="b" d="M1168.419-2871.947l-.012,6.5-.011,6.5-.534-1.51v0l-.693,14.477c.681,1.92,1.045,2.945,1.049,2.949s.391.027.859.051c1.417.07,3.174.22,4.509.387a3.069,3.069,0,0,0,.593.043c.019-.016.023-6.635.019-14.713l-.012-14.686Z" transform="translate(-1157.987 2871.97)"/><path class="b" d="M1142.371-2872.006v14.7c0,8.086.008,14.709.019,14.721s.511-.039,1.115-.1,1.436-.15,1.85-.186c.635-.054,2.539-.174,2.756-.178.066,0,.07-.329.077-6.228l.011-6.229.461,1.3c.07.2.093.263.163.46l.693-14.473c-.147-.415-.069-.2-.236-.67-.565-1.6-1.045-2.95-1.064-3.012l-.039-.108h-5.806Z" transform="translate(-1142.371 2872.01)"/><path class="b" d="M1142.371-2872.006v8.252l5.814,15.422c0-.352,0-.546,0-.948l.011-6.229.461,1.3c2.555,7.246,3.929,11.132,3.937,11.14s.391.027.859.05c1.417.07,3.174.221,4.51.387a3.052,3.052,0,0,0,.592.042c.012-.011.02-3.256.02-7.835l-5.783-16.637,0,1.575-.011,6.5-.534-1.51c-.522-1.475-.871-2.462-2.973-8.4-.565-1.6-1.045-2.95-1.064-3.012l-.039-.108h-5.8v0Z" transform="translate(-1142.371 2872.01)"/><path class="b" d="M1142.371-2872.006l5.826,16.509v-.008l.461,1.3c2.558,7.243,3.933,11.129,3.94,11.137s.391.027.859.05c1.417.07,3.174.221,4.51.387a3.019,3.019,0,0,0,.588.042l-5.775-16.4v0l-.534-1.51c-.522-1.475-.871-2.462-2.973-8.4-.565-1.6-1.045-2.95-1.064-3.012l-.039-.108h-2.9l-2.9,0Z" transform="translate(-1142.371 2872.01)"/></g></g></svg>