<svg xmlns="http://www.w3.org/2000/svg" xmlns:xlink="http://www.w3.org/1999/xlink" width="446.295" height="111.839" viewBox="0 0 446.295 111.839"><defs><style>.a{fill:#fff;}.b,.e,.g{fill:#333;}.c,.i{fill:#ff7ca9;}.d{fill:#4d4d4d;}.e{fill-rule:evenodd;}.f{fill:none;}.h,.i{stroke:none;}.j{filter:url(#a);}</style><filter id="a" x="0" y="0" width="446.295" height="111.839" filterUnits="userSpaceOnUse"><feOffset dy="3" input="SourceAlpha"/><feGaussianBlur stdDeviation="5" result="b"/><feFlood flood-opacity="0.349"/><feComposite operator="in" in2="b"/><feComposite in="SourceGraphic"/></filter></defs><g transform="translate(14.657 12)"><g class="j" transform="matrix(1, 0, 0, 1, -14.66, -12)"><rect class="a" width="416.295" height="81.839" transform="translate(15 12)"/></g><path class="b" d="M6.292.2c2.938,0,4.989-1.685,5.271-4.358H9.123A2.7,2.7,0,0,1,6.3-1.868C4.383-1.868,3.179-3.445,3.179-6c0-2.523,1.22-4.109,3.113-4.109A2.775,2.775,0,0,1,9.114-7.678h2.44c-.191-2.681-2.382-4.507-5.263-4.507-3.47,0-5.669,2.333-5.669,6.192S2.806.2,6.292.2ZM15.5.141a3.061,3.061,0,0,0,2.714-1.5h.05V0H20.6V-6.118c0-1.793-1.486-2.972-3.769-2.972-2.357,0-3.827,1.187-3.918,2.914h2.216a1.443,1.443,0,0,1,1.594-1.1c.913,0,1.494.481,1.494,1.312v.589l-2.241.133c-2.216.133-3.461,1.071-3.461,2.689A2.751,2.751,0,0,0,15.5.141Zm.8-1.751c-.822,0-1.37-.415-1.37-1.079,0-.631.515-1.038,1.419-1.1L18.22-3.91v.647A1.777,1.777,0,0,1,16.294-1.61ZM22.163,0h2.424V-5.1a1.763,1.763,0,0,1,1.776-1.951c1.087,0,1.635.664,1.635,1.826V0h2.424V-5.736c0-2.083-1.112-3.329-3.088-3.329a2.811,2.811,0,0,0-2.781,1.751H24.5V-8.9H22.163Zm13.1.141a2.934,2.934,0,0,0,2.772-1.668h.042V0h2.391V-11.978H38.042v4.607h-.05A2.861,2.861,0,0,0,35.278-9.04c-2.233,0-3.644,1.751-3.644,4.574C31.634-1.619,33.037.141,35.262.141ZM36.083-7.1c1.2,0,1.976,1.029,1.976,2.648s-.772,2.64-1.976,2.64c-1.22,0-1.967-1-1.967-2.64S34.863-7.1,36.083-7.1ZM43.23,3.3c2.266,0,3.387-.822,4.142-3.1L50.436-8.9H47.879L45.995-1.942h-.05L44.052-8.9H41.4l3.1,8.9c.008.042-.083.39-.083.432-.166.706-.606.988-1.486.988-.091,0-.531-.008-.614-.025V3.271C42.392,3.287,43.139,3.3,43.23,3.3ZM60.189.2c2.938,0,4.989-1.685,5.271-4.358H63.02A2.7,2.7,0,0,1,60.2-1.868c-1.917,0-3.121-1.577-3.121-4.134,0-2.523,1.22-4.109,3.113-4.109a2.775,2.775,0,0,1,2.822,2.432h2.44c-.191-2.681-2.382-4.507-5.263-4.507-3.47,0-5.669,2.333-5.669,6.192S56.7.2,60.189.2ZM66.8,0H69.22V-4.972a1.772,1.772,0,0,1,1.893-1.984,2.494,2.494,0,0,1,.88.141V-8.948A2.469,2.469,0,0,0,71.3-9.04,2.124,2.124,0,0,0,69.187-7.3h-.05V-8.9H66.8ZM81.2-8.9H78.774v5.1a1.737,1.737,0,0,1-1.751,1.951c-1.071,0-1.66-.631-1.66-1.818V-8.9H72.939v5.736a3.046,3.046,0,0,0,3.2,3.329A2.644,2.644,0,0,0,78.808-1.6h.05V0H81.2Zm1.428,2.615c0,1.336.872,2.2,2.59,2.565l1.519.315c.872.2,1.179.465,1.179.938,0,.581-.564.955-1.478.955a1.47,1.47,0,0,1-1.668-1.2H82.4c.158,1.751,1.577,2.9,4.034,2.9,2.291,0,3.893-1.154,3.893-2.905,0-1.3-.764-2.034-2.623-2.424l-1.519-.324c-.9-.191-1.229-.5-1.229-.955,0-.589.556-.971,1.395-.971a1.358,1.358,0,0,1,1.511,1.212H90.1c-.05-1.743-1.461-2.914-3.744-2.914C84.087-9.089,82.626-7.977,82.626-6.284ZM91.583,0h2.424V-5.08a1.775,1.775,0,0,1,1.818-1.976c1.1,0,1.668.7,1.668,1.843V0h2.424V-5.728c0-2.059-1.129-3.337-3.1-3.337a2.826,2.826,0,0,0-2.8,1.751h-.05v-4.665H91.583Z" transform="translate(108.374 32.555)"/><path d="M1.846,0V-8.244h.048L7.7,0h.9V-9.864H7.677v8.237H7.629L1.846-9.864H.923V0ZM13.187.116c1.935,0,3.24-1.415,3.24-3.671s-1.306-3.671-3.24-3.671-3.24,1.408-3.24,3.671S11.252.116,13.187.116Zm0-.8c-1.395,0-2.317-1.066-2.317-2.871s.923-2.871,2.317-2.871,2.324,1.066,2.324,2.871S14.581-.684,13.187-.684ZM20.494,0h.9V-4.368a1.858,1.858,0,0,1,1.8-2.051,1.561,1.561,0,0,1,1.627,1.682V0h.909V-4.478a1.785,1.785,0,0,1,1.777-1.941,1.571,1.571,0,0,1,1.647,1.764V0h.9V-4.86a2.19,2.19,0,0,0-2.3-2.365,2.341,2.341,0,0,0-2.242,1.5H25.5a2.051,2.051,0,0,0-2.058-1.5A2.126,2.126,0,0,0,21.369-5.8h-.021V-7.109h-.854ZM34.46.116c1.935,0,3.24-1.415,3.24-3.671s-1.306-3.671-3.24-3.671-3.24,1.408-3.24,3.671S32.525.116,34.46.116Zm0-.8c-1.395,0-2.317-1.066-2.317-2.871s.923-2.871,2.317-2.871,2.324,1.066,2.324,2.871S35.854-.684,34.46-.684ZM38.9,0h.9V-4.43A1.706,1.706,0,0,1,41.46-6.364a1.83,1.83,0,0,1,.677.1V-7.15a2.346,2.346,0,0,0-.561-.075,1.81,1.81,0,0,0-1.8,1.381h-.021V-7.109H38.9Zm8.716-2.017A1.925,1.925,0,0,1,45.6-.677a2.306,2.306,0,0,1-2.324-2.6v-.055H48.6v-.383c0-2.119-1.189-3.507-3.076-3.507-1.928,0-3.179,1.483-3.179,3.691,0,2.256,1.237,3.65,3.233,3.65a2.772,2.772,0,0,0,2.933-2.133ZM45.514-6.433a2.182,2.182,0,0,1,2.16,2.379H43.285A2.275,2.275,0,0,1,45.514-6.433ZM52.739,0h.9V-9.864h-.9Zm3.035-8.586a.6.6,0,0,0,.608-.6.6.6,0,0,0-.608-.6.6.6,0,0,0-.6.6A.6.6,0,0,0,55.774-8.586ZM55.323,0h.9V-7.109h-.9Zm8.1-7.109H62.48L60.313-.95h-.021l-2.16-6.159h-.957L59.821,0h.964Zm5.66,5.093a1.925,1.925,0,0,1-2.017,1.34,2.306,2.306,0,0,1-2.324-2.6v-.055h5.325v-.383c0-2.119-1.189-3.507-3.076-3.507-1.928,0-3.179,1.483-3.179,3.691,0,2.256,1.237,3.65,3.233,3.65a2.772,2.772,0,0,0,2.933-2.133ZM66.979-6.433a2.182,2.182,0,0,1,2.16,2.379H64.75A2.275,2.275,0,0,1,66.979-6.433Zm4.156,1.224c0,.984.636,1.579,1.989,1.894l1.066.253c.957.232,1.306.574,1.306,1.189,0,.745-.7,1.244-1.771,1.244a1.692,1.692,0,0,1-1.894-1.408h-.9c.123,1.3,1.189,2.153,2.8,2.153,1.552,0,2.68-.854,2.68-2.058,0-1-.533-1.552-1.955-1.894l-1.073-.253c-.943-.226-1.347-.588-1.347-1.169,0-.711.663-1.224,1.634-1.224a1.6,1.6,0,0,1,1.743,1.429h.868a2.366,2.366,0,0,0-2.611-2.174C72.181-7.226,71.135-6.385,71.135-5.209Zm7.041-4.655.062,6.747h.827l.055-6.747ZM78.647.062a.632.632,0,0,0,.643-.636.633.633,0,0,0-.643-.643.632.632,0,0,0-.636.643A.63.63,0,0,0,78.647.062ZM87.821,0c2.085,0,3.336-1.025,3.336-2.707A2.427,2.427,0,0,0,88.84-5.161v-.048a2.23,2.23,0,0,0,1.8-2.222c0-1.456-1.148-2.434-2.844-2.434H84.253V0ZM85.183-9.037H87.6c1.313,0,2.1.636,2.1,1.709,0,1.162-.875,1.846-2.372,1.846H85.183Zm0,8.21V-4.676h2.386c1.7,0,2.632.69,2.632,1.921S89.3-.827,87.691-.827ZM98.048-7.109h-.9v4.218a2.017,2.017,0,0,1-2.071,2.2,1.727,1.727,0,0,1-1.859-1.955V-7.109h-.909v4.621a2.378,2.378,0,0,0,2.509,2.6,2.441,2.441,0,0,0,2.358-1.436h.021V0h.854Zm2.071,9.68c1.162,0,1.675-.465,2.3-2.14l2.8-7.54h-.957L102.095-.9h-.021l-2.16-6.207h-.971L101.6.048l-.185.533c-.314.889-.67,1.217-1.326,1.217a1.981,1.981,0,0,1-.424-.041v.772A2.827,2.827,0,0,0,100.119,2.57ZM108.972,0h.9V-4.211a2.024,2.024,0,0,1,2.058-2.208A1.743,1.743,0,0,1,113.8-4.464V0h.9V-4.607a2.38,2.38,0,0,0-2.516-2.618A2.4,2.4,0,0,0,109.847-5.8h-.021V-7.109h-.854Zm10.145.116c1.935,0,3.24-1.415,3.24-3.671s-1.306-3.671-3.24-3.671-3.24,1.408-3.24,3.671S117.182.116,119.116.116Zm0-.8c-1.395,0-2.317-1.066-2.317-2.871s.923-2.871,2.317-2.871,2.324,1.066,2.324,2.871S120.511-.684,119.116-.684Zm13.3-6.426h-.909l-1.593,6.1H129.9l-1.771-6.1h-.916l-1.771,6.1h-.021l-1.593-6.1h-.916L124.934,0h.957l1.764-5.9h.021L129.445,0h.957ZM136.562,0h.909V-6.357H139v-.752h-1.531v-.882c0-.793.362-1.142,1.046-1.142a2.944,2.944,0,0,1,.526.048V-9.83a4.068,4.068,0,0,0-.656-.055,1.626,1.626,0,0,0-1.818,1.873v.9h-.991v.752h.991Zm6.091.116c1.935,0,3.24-1.415,3.24-3.671s-1.306-3.671-3.24-3.671-3.24,1.408-3.24,3.671S140.718.116,142.652.116Zm0-.8c-1.395,0-2.317-1.066-2.317-2.871s.923-2.871,2.317-2.871,2.324,1.066,2.324,2.871S144.047-.684,142.652-.684ZM147.1,0h.9V-4.43a1.706,1.706,0,0,1,1.654-1.935,1.83,1.83,0,0,1,.677.1V-7.15a2.346,2.346,0,0,0-.561-.075,1.81,1.81,0,0,0-1.8,1.381h-.021V-7.109H147.1Zm7.075-7.1h.9a2.163,2.163,0,0,1,2.3-2.105,1.969,1.969,0,0,1,2.1,1.948c0,.868-.349,1.456-1.764,2.933L154.219-.656V0h6.433V-.834h-5.134V-.861l2.639-2.755C159.913-5.428,160.4-6.234,160.4-7.3a2.826,2.826,0,0,0-3.028-2.721A3,3,0,0,0,154.171-7.1ZM163,.062a.63.63,0,0,0,.636-.636A.632.632,0,0,0,163-1.217a.638.638,0,0,0-.643.643A.636.636,0,0,0,163,.062Zm5.626.1c2.352,0,3.739-2,3.739-5.3,0-3.794-2.023-4.881-3.678-4.881a3.3,3.3,0,0,0-3.425,3.377A3.175,3.175,0,0,0,168.54-3.4a3.007,3.007,0,0,0,2.905-1.887h.021c.014,3.213-1.2,4.628-2.83,4.628a2.167,2.167,0,0,1-2.27-1.613h-.943A3.048,3.048,0,0,0,168.629.157Zm.062-4.389a2.4,2.4,0,0,1-2.481-2.44A2.467,2.467,0,0,1,168.7-9.181a2.5,2.5,0,0,1,2.509,2.557A2.437,2.437,0,0,1,168.69-4.231ZM176.873.157c2.352,0,3.739-2,3.739-5.3,0-3.794-2.023-4.881-3.678-4.881a3.3,3.3,0,0,0-3.425,3.377,3.175,3.175,0,0,0,3.274,3.24,3.007,3.007,0,0,0,2.905-1.887h.021c.014,3.213-1.2,4.628-2.83,4.628a2.167,2.167,0,0,1-2.27-1.613h-.943A3.048,3.048,0,0,0,176.873.157Zm.062-4.389a2.4,2.4,0,0,1-2.481-2.44,2.467,2.467,0,0,1,2.488-2.509,2.5,2.5,0,0,1,2.509,2.557A2.437,2.437,0,0,1,176.935-4.231Zm8.128,5.3h.649V-.13c1.709-.1,3.056-1.046,3.056-2.639,0-1.395-.957-2.126-2.741-2.55l-.314-.075V-8.914a2,2,0,0,1,2.023,1.757h.9a2.856,2.856,0,0,0-2.926-2.577v-1.135h-.649v1.142c-1.634.116-2.857,1.1-2.857,2.543,0,1.3.909,2.058,2.646,2.475l.212.048V-.95a2.133,2.133,0,0,1-2.2-1.887h-.909c.055,1.579,1.408,2.584,3.11,2.7Zm-.075-6.631c-1.326-.321-1.873-.882-1.873-1.675,0-.841.745-1.559,1.948-1.668v3.356Zm.9,1.1c1.483.349,1.976.889,1.976,1.757,0,.95-.7,1.675-2.146,1.757V-4.5Z" transform="translate(108.374 56.692)"/><rect class="c" width="81.933" height="81.839" transform="translate(0 0)"/><path class="d" d="M.393,0H.66V-2.123A1.149,1.149,0,0,1,1.818-3.37a1.021,1.021,0,0,1,1.094,1.1V0h.267V-2.3a1.22,1.22,0,0,0-1.3-1.306,1.242,1.242,0,0,0-1.23.827H.643v-.772H.393ZM5.7.055A1.616,1.616,0,0,0,7.285-1.777,1.616,1.616,0,0,0,5.7-3.609,1.613,1.613,0,0,0,4.117-1.777,1.613,1.613,0,0,0,5.7.055Zm0-.239c-.79,0-1.316-.6-1.316-1.593S4.91-3.37,5.7-3.37s1.319.6,1.319,1.593S6.489-.185,5.7-.185Zm6.854-3.37h-.28L11.364-.294h-.01l-.988-3.261h-.3L9.074-.294H9.067L8.155-3.555H7.878L8.91,0h.314l.984-3.213h.01L11.21,0h.308Z" transform="translate(382.942 25.297)"/><path class="e" d="M978.82,620.871l1.711,0,.007.772a6.328,6.328,0,0,1,1.106-.174l0,1.691a3.145,3.145,0,0,0-1.115.335c0,1.528-.022,3.077,0,4.6-.563,0-1.146,0-1.709,0l0-7.229Zm5.483-5.723a2.094,2.094,0,0,1,1.672-1.012c1.753.3-.658,3.151-1.747,3.753-1.044-.662-2.829-2.626-1.916-3.561.578-.592,1.666.235,1.991.82Zm5.919,5.752v1.983a1.712,1.712,0,0,0-.694-.395c-.337-.088-.556-.018-.651.164-.235.455.293.953.59,1.28a4.337,4.337,0,0,1,.926,1.415,2.091,2.091,0,0,1-2.1,2.857c-.982.014-2.583.188-3.33-.57a1.051,1.051,0,0,1-.158-.219,1.736,1.736,0,0,1-1.5.9c-.755-.024-1.226-.68-1.24-1.54l.006-5.9h1.579v5.768a2,2,0,0,0,.824-1.15v-4.618h1.581v5.464a.556.556,0,0,0,.473.547,5.49,5.49,0,0,0,1.43-.052c.362-.074.655-.132.794-.441.246-.545-.393-1.109-.709-1.479a2.7,2.7,0,0,1-.827-2.686,2.152,2.152,0,0,1,1.57-1.442,2.838,2.838,0,0,1,1.438.117Zm2.391.52a1.347,1.347,0,0,1,.987-.654,1.385,1.385,0,0,1,1.3,1.325c.018,1.7,0,3.138.005,5.083a.471.471,0,0,0,.564.417c.551-.13.453-.879,1.992-1.062-.272,1.164-.64,1.768-2.208,1.822a6.108,6.108,0,0,1-1.857-.242c-.009-1.455-.01-4.389,0-5.759a2.015,2.015,0,0,0-.826,1.067l-.005,4.68-1.657,0v-9.464c.682-.387,1.17-.691,1.71-1.043l0,3.826Zm-7.371-2.93v-.013a8.39,8.39,0,0,0,4.76-1.242,5.917,5.917,0,0,0,2.288-2.229,6.922,6.922,0,0,0,.462-2.85,1.208,1.208,0,0,1-.929.45,1.45,1.45,0,0,1-1.344-1.52l0-5.74,1.705-.019.007,5.456a1.336,1.336,0,0,0,.576-1.078l-.007-4.372,1.728.007-.01,6.881a7.189,7.189,0,0,1-2.383,5.315,8.667,8.667,0,0,1-7.7,1.744c-3.392,1-4.308-.384-7.067-1.532a3.734,3.734,0,0,0-3.494.3,4.718,4.718,0,0,0-1.946,4.253,4.359,4.359,0,0,0,2.022,3.39,4.481,4.481,0,0,0,4.3.193v2.033a6.229,6.229,0,0,1-5.244-.575,6.141,6.141,0,0,1-2.98-4.943,6.433,6.433,0,0,1,2.921-5.977,5.317,5.317,0,0,1,3.894-.523,12.1,12.1,0,0,1,3.514,1.643,3.886,3.886,0,0,0,2.983.855,5.609,5.609,0,0,1-2.353-3.113,1.823,1.823,0,0,1,3.379-1.3c1.581-2.032,4.011-.956,3.285,1.675a5.7,5.7,0,0,1-2.363,2.833Zm-12.733-17.905.005,2.027a4.614,4.614,0,0,0-3.151-.334,4.337,4.337,0,0,0,.959,8.522,4.772,4.772,0,0,0,2.173-.422l.6,1.6a5.143,5.143,0,0,1-3.427.632,6.077,6.077,0,0,1-3.871-2.124,5.994,5.994,0,0,1-1.486-3.992,6.2,6.2,0,0,1,8.2-5.909Zm5.422,6.749-.006,3.416c.193.548.65.462.969.3l0-5.718c.559,0,1.154-.005,1.713,0l0,.51a1.494,1.494,0,0,1,1.255-.665c.692.045,1.033.8,1.033,1.593l0,5.591-1.587.419,0-5.4c-.014-.2.007-.4-.005-.591a1.872,1.872,0,0,0-.831,1.252l.005,4.52c-.816,0-1.51.02-2.11-.011a4.074,4.074,0,0,1-.928-.139,1.342,1.342,0,0,1-.487-.218,2.549,2.549,0,0,1-1.665.478,2.454,2.454,0,0,1-2.266-2.27,2.4,2.4,0,0,1,.759-1.91,2.365,2.365,0,0,1,1.562-.662,1.32,1.32,0,0,1,.872.264l0-.759a.477.477,0,0,0-.495-.456.482.482,0,0,0-.444.486l-1.653-.458a2.168,2.168,0,0,1,4.295.427Zm-3.086,3.432a.818.818,0,0,0,1.284-.054.8.8,0,0,0-.4-1.237.813.813,0,0,0-.978.368.8.8,0,0,0,.094.922Zm14.888-9.614-.009,9.583c.034.151.208.228.5.235l.2,1.688a2.807,2.807,0,0,1-1.688-.46,3.479,3.479,0,0,1-3.672-.106,3.516,3.516,0,0,1-1.707-3.126,3.836,3.836,0,0,1,2.03-3.422,3.71,3.71,0,0,1,2.627-.33c0-.918,0-1.8,0-2.721l1.714-1.341Zm-1.7,9.677v-3.843a2.145,2.145,0,0,0-2.96,1.853,2.073,2.073,0,0,0,2.96,1.99Z" transform="translate(-942.466 -577.658)"/><path class="f" d="M1122.956-777.626h29.4v29.4h-29.4Z" transform="translate(-1097.456 803.845)"/><g transform="translate(48.929 34.602)"><g class="g" transform="translate(1627.199 797.713)"><path class="h" d="M -1610.2548828125 -780.3384399414062 L -1625.878173828125 -780.3384399414062 C -1626.734497070312 -780.3384399414062 -1627.490600585938 -780.7596435546875 -1627.900756835938 -781.4652099609375 C -1628.309692382812 -782.1688232421875 -1628.300170898438 -783.03515625 -1627.875122070312 -783.7825927734375 L -1620.056518554688 -797.5119018554688 C -1619.62841796875 -798.263916015625 -1618.884399414062 -798.7129516601562 -1618.06640625 -798.7129516601562 C -1617.249755859375 -798.7129516601562 -1616.505859375 -798.2637939453125 -1616.076538085938 -797.5114135742188 L -1608.258178710938 -783.7806396484375 C -1607.83349609375 -783.0337524414062 -1607.82373046875 -782.16845703125 -1608.23193359375 -781.465576171875 C -1608.642700195312 -780.759521484375 -1609.398803710938 -780.3384399414062 -1610.2548828125 -780.3384399414062 Z M -1618.1181640625 -792.3191528320312 C -1618.164184570312 -792.3191528320312 -1618.20166015625 -792.28173828125 -1618.20166015625 -792.2357788085938 L -1618.20166015625 -788.3350219726562 C -1618.20166015625 -788.2888793945312 -1618.164184570312 -788.2512817382812 -1618.1181640625 -788.2512817382812 C -1618.072021484375 -788.2512817382812 -1618.034423828125 -788.2888793945312 -1618.034423828125 -788.3350219726562 L -1618.034423828125 -792.2357788085938 C -1618.034423828125 -792.28173828125 -1618.072021484375 -792.3191528320312 -1618.1181640625 -792.3191528320312 Z"/><path class="i" d="M -1610.2548828125 -781.3384399414062 C -1609.7568359375 -781.3384399414062 -1609.323974609375 -781.5770874023438 -1609.0966796875 -781.9677124023438 C -1608.86962890625 -782.3587036132812 -1608.881103515625 -782.8530883789062 -1609.127197265625 -783.2858276367188 L -1616.945068359375 -797.0158081054688 C -1617.193603515625 -797.4513549804688 -1617.612548828125 -797.7129516601562 -1618.06640625 -797.7129516601562 C -1618.5205078125 -797.7129516601562 -1618.939453125 -797.4528198242188 -1619.1875 -797.0170288085938 L -1627.005859375 -783.2882690429688 C -1627.251953125 -782.8555297851562 -1627.263427734375 -782.3587036132812 -1627.0361328125 -781.9677124023438 C -1626.80908203125 -781.5770874023438 -1626.3759765625 -781.3384399414062 -1625.878173828125 -781.3384399414062 L -1610.2548828125 -781.3384399414062 M -1618.06640625 -786.0270385742188 C -1617.468017578125 -786.0270385742188 -1616.98291015625 -785.5418090820312 -1616.98291015625 -784.9432983398438 C -1616.98291015625 -784.3450317382812 -1617.468017578125 -783.8599243164062 -1618.06640625 -783.8599243164062 C -1618.6650390625 -783.8599243164062 -1619.14990234375 -784.3450317382812 -1619.14990234375 -784.9432983398438 C -1619.14990234375 -785.5418090820312 -1618.6650390625 -786.0270385742188 -1618.06640625 -786.0270385742188 M -1618.1181640625 -793.3191528320312 C -1617.51953125 -793.3191528320312 -1617.034423828125 -792.8340454101562 -1617.034423828125 -792.2357788085938 L -1617.034423828125 -788.3350219726562 C -1617.034423828125 -787.7366333007812 -1617.51953125 -787.2512817382812 -1618.1181640625 -787.2512817382812 C -1618.71630859375 -787.2512817382812 -1619.20166015625 -787.7366333007812 -1619.20166015625 -788.3350219726562 L -1619.20166015625 -792.2357788085938 C -1619.20166015625 -792.8340454101562 -1618.71630859375 -793.3191528320312 -1618.1181640625 -793.3191528320312 M -1610.2548828125 -779.3384399414062 L -1625.878173828125 -779.3384399414062 C -1627.094848632812 -779.3384399414062 -1628.174072265625 -779.9456176757812 -1628.765258789062 -780.962646484375 C -1629.346435546875 -781.9623413085938 -1629.33837890625 -783.2323608398438 -1628.744384765625 -784.2769165039062 L -1620.925415039062 -798.0067749023438 C -1620.3173828125 -799.0750122070312 -1619.24853515625 -799.7129516601562 -1618.06640625 -799.7129516601562 C -1616.886108398438 -799.7129516601562 -1615.817504882812 -799.0752563476562 -1615.2080078125 -798.0070190429688 L -1607.38916015625 -784.2754516601562 C -1606.786254882812 -783.21533203125 -1606.778198242188 -781.9774780273438 -1607.3671875 -780.96337890625 C -1607.95947265625 -779.9453125 -1609.038696289062 -779.3384399414062 -1610.2548828125 -779.3384399414062 Z"/></g></g></g></svg>