<svg xmlns="http://www.w3.org/2000/svg" xmlns:xlink="http://www.w3.org/1999/xlink" width="446.295" height="125.458" viewBox="0 0 446.295 125.458"><defs><style>.a{fill:#fff;}.b,.e{fill:#333;}.c,.g{fill:#ff7ca9;}.d{fill:#4d4d4d;}.f,.g{stroke:none;}.h{filter:url(#a);}</style><filter id="a" x="0" y="0" width="446.295" height="125.458" filterUnits="userSpaceOnUse"><feOffset dy="3" input="SourceAlpha"/><feGaussianBlur stdDeviation="5" result="b"/><feFlood flood-opacity="0.349"/><feComposite operator="in" in2="b"/><feComposite in="SourceGraphic"/></filter></defs><g transform="translate(14.657 12)"><g class="h" transform="matrix(1, 0, 0, 1, -14.66, -12)"><rect class="a" width="416.295" height="95.458" transform="translate(15 12)"/></g><path class="b" d="M3.5,0V-11.978H1V0ZM5.458,0H7.881V-5.1A1.763,1.763,0,0,1,9.658-7.056c1.087,0,1.635.664,1.635,1.826V0h2.424V-5.736c0-2.083-1.112-3.329-3.088-3.329A2.811,2.811,0,0,0,7.848-7.313H7.8V-8.9H5.458Zm9.816-6.284c0,1.336.872,2.2,2.59,2.565l1.519.315c.872.2,1.179.465,1.179.938,0,.581-.564.955-1.478.955a1.47,1.47,0,0,1-1.668-1.2H15.049c.158,1.751,1.577,2.9,4.034,2.9,2.291,0,3.893-1.154,3.893-2.905,0-1.3-.764-2.034-2.623-2.424l-1.519-.324c-.9-.191-1.229-.5-1.229-.955,0-.589.556-.971,1.395-.971a1.358,1.358,0,0,1,1.511,1.212h2.233C22.694-7.919,21.283-9.089,19-9.089,16.734-9.089,15.273-7.977,15.273-6.284Zm9.716-4.665V-8.9H23.736v1.826h1.253V-2.4c0,1.735.813,2.432,2.905,2.432a5.572,5.572,0,0,0,1.154-.1V-1.851a3.923,3.923,0,0,1-.589.042c-.714,0-1.046-.324-1.046-1V-7.072h1.644V-8.9H27.413v-2.05ZM33.111.141a3.061,3.061,0,0,0,2.714-1.5h.05V0h2.341V-6.118c0-1.793-1.486-2.972-3.769-2.972-2.357,0-3.827,1.187-3.918,2.914h2.216a1.443,1.443,0,0,1,1.594-1.1c.913,0,1.494.481,1.494,1.312v.589l-2.241.133c-2.216.133-3.461,1.071-3.461,2.689A2.751,2.751,0,0,0,33.111.141Zm.8-1.751c-.822,0-1.37-.415-1.37-1.079,0-.631.515-1.038,1.419-1.1l1.876-.116v.647A1.777,1.777,0,0,1,33.908-1.61ZM44.014,3.354c2.665,0,4.441-1.361,4.441-3.478V-8.9H46.064v1.552h-.042A2.919,2.919,0,0,0,43.275-9.04c-2.258,0-3.652,1.735-3.652,4.557,0,2.781,1.436,4.458,3.611,4.458a2.9,2.9,0,0,0,2.748-1.594h.05V-.058c0,1.029-.7,1.718-1.951,1.718A1.763,1.763,0,0,1,42.271.631H39.9C40.088,2.216,41.673,3.354,44.014,3.354Zm.042-5.246c-1.2,0-1.951-.946-1.951-2.573S42.86-7.1,44.056-7.1c1.212,0,1.984,1.029,1.984,2.631S45.267-1.893,44.056-1.893ZM50.2,0h2.424V-4.972a1.772,1.772,0,0,1,1.893-1.984,2.494,2.494,0,0,1,.88.141V-8.948a2.469,2.469,0,0,0-.689-.091A2.124,2.124,0,0,0,52.593-7.3h-.05V-8.9H50.2Zm8.786.141a3.061,3.061,0,0,0,2.714-1.5h.05V0h2.341V-6.118c0-1.793-1.486-2.972-3.769-2.972-2.357,0-3.827,1.187-3.918,2.914h2.216a1.443,1.443,0,0,1,1.594-1.1c.913,0,1.494.481,1.494,1.312v.589l-2.241.133c-2.216.133-3.461,1.071-3.461,2.689A2.751,2.751,0,0,0,58.988.141Zm.8-1.751c-.822,0-1.37-.415-1.37-1.079,0-.631.515-1.038,1.419-1.1l1.876-.116v.647A1.777,1.777,0,0,1,59.785-1.61ZM65.824,0h2.424V-5.371a1.547,1.547,0,0,1,1.544-1.693,1.359,1.359,0,0,1,1.436,1.519V0H73.56V-5.4a1.511,1.511,0,0,1,1.527-1.66c.938,0,1.453.564,1.453,1.594V0h2.424V-6.076A2.791,2.791,0,0,0,76.05-9.064a2.819,2.819,0,0,0-2.764,1.826h-.05a2.364,2.364,0,0,0-2.482-1.826,2.612,2.612,0,0,0-2.54,1.776h-.05V-8.9H65.824Zm15.5-11.978.2,8.035h2.092l.2-8.035ZM82.571.208a1.317,1.317,0,0,0,1.353-1.3,1.317,1.317,0,0,0-1.353-1.3,1.317,1.317,0,0,0-1.353,1.3A1.317,1.317,0,0,0,82.571.208Z" transform="translate(108.545 32.554)"/><path d="M4.966,0V-4.57l3.787-6H7.61L4.482-5.552H4.446L1.318-10.569H.176l3.787,6V0Zm6.378.125c2.073,0,3.472-1.516,3.472-3.933s-1.4-3.933-3.472-3.933S7.872-6.233,7.872-3.809,9.271.125,11.343.125Zm0-.857c-1.494,0-2.483-1.143-2.483-3.076s.989-3.076,2.483-3.076,2.49,1.143,2.49,3.076S12.838-.732,11.343-.732ZM22.138-7.617h-.967V-3.1A2.161,2.161,0,0,1,18.952-.74a1.851,1.851,0,0,1-1.992-2.095V-7.617h-.974v4.951A2.548,2.548,0,0,0,18.673.125,2.615,2.615,0,0,0,21.2-1.414h.022V0h.916ZM23.733,0H24.7V-4.746a1.827,1.827,0,0,1,1.772-2.073,1.961,1.961,0,0,1,.725.11v-.952a2.513,2.513,0,0,0-.6-.081A1.94,1.94,0,0,0,24.67-6.262h-.022V-7.617h-.916Zm10.99-7.742A2.785,2.785,0,0,0,32.1-6.006h-.029V-7.617h-.916V2.52h.967V-1.567h.029A2.733,2.733,0,0,0,34.745.125c1.912,0,3.223-1.56,3.223-3.933S36.649-7.742,34.723-7.742ZM34.554-.732c-1.443,0-2.432-1.238-2.432-3.076s.989-3.076,2.432-3.076c1.472,0,2.424,1.223,2.424,3.076S36.026-.732,34.554-.732Zm4.7.732h.974V-4.482a2.192,2.192,0,0,1,2.256-2.4,1.9,1.9,0,0,1,2.029,2.117V0h.974V-4.922a2.6,2.6,0,0,0-2.725-2.82,2.568,2.568,0,0,0-2.512,1.531h-.022v-4.358h-.974ZM50.129.125C52.2.125,53.6-1.392,53.6-3.809s-1.4-3.933-3.472-3.933-3.472,1.509-3.472,3.933S48.057.125,50.129.125Zm0-.857c-1.494,0-2.483-1.143-2.483-3.076s.989-3.076,2.483-3.076,2.49,1.143,2.49,3.076S51.623-.732,50.129-.732Zm5.1-8.789v1.9H54.1v.806h1.135v4.937c0,1.377.513,1.919,1.787,1.919A6.051,6.051,0,0,0,57.737,0V-.828c-.059.015-.425.029-.527.029-.7,0-1.011-.337-1.011-1.121V-6.812h1.5v-.806H56.2v-1.9ZM61.83.125C63.9.125,65.3-1.392,65.3-3.809S63.9-7.742,61.83-7.742s-3.472,1.509-3.472,3.933S59.757.125,61.83.125Zm0-.857c-1.494,0-2.483-1.143-2.483-3.076s.989-3.076,2.483-3.076,2.49,1.143,2.49,3.076S63.324-.732,61.83-.732ZM75.706-5.208a3,3,0,0,0-3.135-2.534c-2.073,0-3.442,1.531-3.442,3.933,0,2.439,1.37,3.933,3.45,3.933a2.973,2.973,0,0,0,3.135-2.483h-.959A2.065,2.065,0,0,1,72.586-.732c-1.487,0-2.468-1.165-2.468-3.076,0-1.882.974-3.076,2.461-3.076a2.11,2.11,0,0,1,2.175,1.677ZM79.937.125c2.073,0,3.472-1.516,3.472-3.933s-1.4-3.933-3.472-3.933-3.472,1.509-3.472,3.933S77.865.125,79.937.125Zm0-.857c-1.494,0-2.483-1.143-2.483-3.076s.989-3.076,2.483-3.076,2.49,1.143,2.49,3.076S81.432-.732,79.937-.732ZM84.623,0h.967V-4.512a2.168,2.168,0,0,1,2.2-2.366A1.868,1.868,0,0,1,89.8-4.783V0h.967V-4.937a2.55,2.55,0,0,0-2.7-2.805,2.575,2.575,0,0,0-2.512,1.531h-.022V-7.617h-.916Zm8.121-9.521v1.9H91.609v.806h1.135v4.937c0,1.377.513,1.919,1.787,1.919A6.051,6.051,0,0,0,95.249,0V-.828c-.059.015-.425.029-.527.029-.7,0-1.011-.337-1.011-1.121V-6.812h1.5v-.806h-1.5v-1.9ZM98.558.125a2.837,2.837,0,0,0,2.6-1.575h.022V0h.923V-5.215c0-1.553-1.091-2.527-2.827-2.527s-2.856.967-2.966,2.329h.938a1.819,1.819,0,0,1,2.007-1.472,1.672,1.672,0,0,1,1.882,1.758v.659l-2.373.146C97-4.2,96.031-3.413,96.031-2.109A2.272,2.272,0,0,0,98.558.125Zm.2-.835c-1.033,0-1.743-.571-1.743-1.4s.667-1.362,1.868-1.443l2.256-.154v.842A2.252,2.252,0,0,1,98.755-.71ZM104.2-9.2a.647.647,0,0,0,.652-.645.647.647,0,0,0-.652-.645.645.645,0,0,0-.645.645A.645.645,0,0,0,104.2-9.2ZM103.719,0h.967V-7.617h-.967Zm2.628,0h.967V-4.512a2.168,2.168,0,0,1,2.2-2.366,1.868,1.868,0,0,1,2.007,2.095V0h.967V-4.937a2.55,2.55,0,0,0-2.7-2.805,2.575,2.575,0,0,0-2.512,1.531h-.022V-7.617h-.916Zm7.55-5.581c0,1.055.681,1.692,2.131,2.029l1.143.271c1.025.249,1.4.615,1.4,1.274,0,.8-.754,1.333-1.9,1.333a1.813,1.813,0,0,1-2.029-1.509h-.967c.132,1.392,1.274,2.307,3,2.307,1.663,0,2.871-.916,2.871-2.2,0-1.077-.571-1.663-2.095-2.029L116.3-4.38c-1.011-.242-1.443-.63-1.443-1.252,0-.762.71-1.311,1.75-1.311a1.713,1.713,0,0,1,1.868,1.531h.93a2.535,2.535,0,0,0-2.8-2.329C115.017-7.742,113.9-6.841,113.9-5.581Zm9.708,0c0,1.055.681,1.692,2.131,2.029l1.143.271c1.025.249,1.4.615,1.4,1.274,0,.8-.754,1.333-1.9,1.333a1.813,1.813,0,0,1-2.029-1.509h-.967c.132,1.392,1.274,2.307,3,2.307,1.663,0,2.871-.916,2.871-2.2,0-1.077-.571-1.663-2.095-2.029l-1.15-.271c-1.011-.242-1.443-.63-1.443-1.252,0-.762.71-1.311,1.75-1.311a1.713,1.713,0,0,1,1.868,1.531h.93a2.535,2.535,0,0,0-2.8-2.329C124.726-7.742,123.6-6.841,123.6-5.581Zm12.134,3.42a2.063,2.063,0,0,1-2.161,1.436c-1.516,0-2.49-1.069-2.49-2.791v-.059h5.706v-.41c0-2.271-1.274-3.757-3.3-3.757-2.065,0-3.406,1.589-3.406,3.955,0,2.417,1.326,3.911,3.464,3.911A2.97,2.97,0,0,0,136.7-2.161Zm-2.256-4.731A2.338,2.338,0,0,1,135.8-4.343h-4.7A2.437,2.437,0,0,1,133.484-6.892ZM138.016,0h.967V-4.512a2.168,2.168,0,0,1,2.2-2.366,1.868,1.868,0,0,1,2.007,2.095V0h.967V-4.937a2.55,2.55,0,0,0-2.7-2.805,2.575,2.575,0,0,0-2.512,1.531h-.022V-7.617h-.916Zm7.549-5.581c0,1.055.681,1.692,2.131,2.029l1.143.271c1.025.249,1.4.615,1.4,1.274,0,.8-.754,1.333-1.9,1.333a1.813,1.813,0,0,1-2.029-1.509h-.967c.132,1.392,1.274,2.307,3,2.307,1.663,0,2.871-.916,2.871-2.2,0-1.077-.571-1.663-2.095-2.029l-1.15-.271c-1.011-.242-1.443-.63-1.443-1.252,0-.762.71-1.311,1.75-1.311a1.713,1.713,0,0,1,1.868,1.531h.93a2.535,2.535,0,0,0-2.8-2.329C146.686-7.742,145.565-6.841,145.565-5.581ZM152.983-9.2a.647.647,0,0,0,.652-.645.647.647,0,0,0-.652-.645.645.645,0,0,0-.645.645A.645.645,0,0,0,152.983-9.2ZM152.5,0h.967V-7.617H152.5Zm3.045-9.521v1.9h-1.135v.806h1.135v4.937c0,1.377.513,1.919,1.787,1.919A6.051,6.051,0,0,0,158.049,0V-.828c-.059.015-.425.029-.527.029-.7,0-1.011-.337-1.011-1.121V-6.812h1.5v-.806h-1.5v-1.9Zm4.32.322a.647.647,0,0,0,.652-.645.647.647,0,0,0-.652-.645.645.645,0,0,0-.645.645A.645.645,0,0,0,159.864-9.2ZM159.381,0h.967V-7.617h-.967Zm8.6-7.617h-1.011l-2.322,6.6h-.022l-2.314-6.6H161.29L164.125,0h1.033Zm5.989,5.457a2.063,2.063,0,0,1-2.161,1.436c-1.516,0-2.49-1.069-2.49-2.791v-.059h5.706v-.41c0-2.271-1.274-3.757-3.3-3.757-2.065,0-3.406,1.589-3.406,3.955,0,2.417,1.326,3.911,3.464,3.911a2.97,2.97,0,0,0,3.142-2.285Zm-2.256-4.731a2.338,2.338,0,0,1,2.314,2.549h-4.7A2.437,2.437,0,0,1,171.718-6.892ZM185.44-5.208a3,3,0,0,0-3.135-2.534c-2.073,0-3.442,1.531-3.442,3.933,0,2.439,1.37,3.933,3.45,3.933a2.973,2.973,0,0,0,3.135-2.483h-.959A2.065,2.065,0,0,1,182.32-.732c-1.487,0-2.468-1.165-2.468-3.076,0-1.882.974-3.076,2.461-3.076a2.11,2.11,0,0,1,2.175,1.677ZM189.672.125c2.073,0,3.472-1.516,3.472-3.933s-1.4-3.933-3.472-3.933S186.2-6.233,186.2-3.809,187.6.125,189.672.125Zm0-.857c-1.494,0-2.483-1.143-2.483-3.076s.989-3.076,2.483-3.076,2.49,1.143,2.49,3.076S191.166-.732,189.672-.732ZM194.358,0h.967V-4.512a2.168,2.168,0,0,1,2.2-2.366,1.868,1.868,0,0,1,2.007,2.095V0h.967V-4.937a2.55,2.55,0,0,0-2.7-2.805A2.575,2.575,0,0,0,195.3-6.211h-.022V-7.617h-.916Zm8.121-9.521v1.9h-1.135v.806h1.135v4.937c0,1.377.513,1.919,1.787,1.919A6.051,6.051,0,0,0,204.983,0V-.828c-.059.015-.425.029-.527.029-.7,0-1.011-.337-1.011-1.121V-6.812h1.5v-.806h-1.5v-1.9Zm8.773,7.361a2.063,2.063,0,0,1-2.161,1.436c-1.516,0-2.49-1.069-2.49-2.791v-.059h5.706v-.41c0-2.271-1.274-3.757-3.3-3.757-2.065,0-3.406,1.589-3.406,3.955,0,2.417,1.326,3.911,3.464,3.911a2.97,2.97,0,0,0,3.142-2.285ZM209-6.892a2.338,2.338,0,0,1,2.314,2.549h-4.7A2.437,2.437,0,0,1,209-6.892ZM213.527,0h.967V-4.512a2.168,2.168,0,0,1,2.2-2.366,1.868,1.868,0,0,1,2.007,2.095V0h.967V-4.937a2.55,2.55,0,0,0-2.7-2.805,2.575,2.575,0,0,0-2.512,1.531h-.022V-7.617h-.916Zm8.121-9.521v1.9h-1.135v.806h1.135v4.937c0,1.377.513,1.919,1.787,1.919A6.051,6.051,0,0,0,224.153,0V-.828c-.059.015-.425.029-.527.029-.7,0-1.011-.337-1.011-1.121V-6.812h1.5v-.806h-1.5v-1.9Zm16.256,1.9h-.974l-1.707,6.533H235.2l-1.9-6.533h-.981l-1.9,6.533H230.4L228.7-7.617h-.981L229.884,0h1.025l1.89-6.321h.022L234.718,0h1.025ZM238.877,0h.974V-4.482a2.192,2.192,0,0,1,2.256-2.4,1.9,1.9,0,0,1,2.029,2.117V0h.974V-4.922a2.6,2.6,0,0,0-2.725-2.82,2.568,2.568,0,0,0-2.512,1.531h-.022v-4.358h-.974Zm8.333-9.2a.647.647,0,0,0,.652-.645.647.647,0,0,0-.652-.645.645.645,0,0,0-.645.645A.645.645,0,0,0,247.21-9.2ZM246.727,0h.967V-7.617h-.967Zm8.824-5.208a3,3,0,0,0-3.135-2.534c-2.073,0-3.442,1.531-3.442,3.933,0,2.439,1.37,3.933,3.45,3.933a2.973,2.973,0,0,0,3.135-2.483H254.6A2.065,2.065,0,0,1,252.43-.732c-1.487,0-2.468-1.165-2.468-3.076,0-1.882.974-3.076,2.461-3.076A2.11,2.11,0,0,1,254.6-5.208ZM256.757,0h.974V-4.482a2.192,2.192,0,0,1,2.256-2.4,1.9,1.9,0,0,1,2.029,2.117V0h.974V-4.922a2.6,2.6,0,0,0-2.725-2.82,2.568,2.568,0,0,0-2.512,1.531h-.022v-4.358h-.974ZM4.4,8.258A2.785,2.785,0,0,0,1.78,9.994H1.75V8.383H.835V18.52H1.8V14.433h.029a2.733,2.733,0,0,0,2.593,1.692c1.912,0,3.223-1.56,3.223-3.933S6.328,8.258,4.4,8.258Zm-.168,7.009c-1.443,0-2.432-1.238-2.432-3.076s.989-3.076,2.432-3.076c1.472,0,2.424,1.223,2.424,3.076S5.706,15.268,4.233,15.268Zm9.9-1.428a2.063,2.063,0,0,1-2.161,1.436c-1.516,0-2.49-1.069-2.49-2.791v-.059h5.706v-.41c0-2.271-1.274-3.757-3.3-3.757-2.065,0-3.406,1.589-3.406,3.955,0,2.417,1.326,3.911,3.464,3.911a2.97,2.97,0,0,0,3.142-2.285ZM11.878,9.108a2.338,2.338,0,0,1,2.314,2.549H9.49A2.437,2.437,0,0,1,11.878,9.108ZM19.5,16.125c2.073,0,3.472-1.516,3.472-3.933s-1.4-3.933-3.472-3.933-3.472,1.509-3.472,3.933S17.428,16.125,19.5,16.125Zm0-.857c-1.494,0-2.483-1.143-2.483-3.076s.989-3.076,2.483-3.076,2.49,1.143,2.49,3.076S21,15.268,19.5,15.268Zm8.253-7.009a2.785,2.785,0,0,0-2.622,1.736H25.1V8.383h-.916V18.52h.967V14.433h.029a2.733,2.733,0,0,0,2.593,1.692c1.912,0,3.223-1.56,3.223-3.933S29.68,8.258,27.754,8.258Zm-.168,7.009c-1.443,0-2.432-1.238-2.432-3.076s.989-3.076,2.432-3.076c1.472,0,2.424,1.223,2.424,3.076S29.057,15.268,27.585,15.268Zm4.7.732h.967V5.431h-.967Zm7.894-2.161a2.063,2.063,0,0,1-2.161,1.436c-1.516,0-2.49-1.069-2.49-2.791v-.059h5.706v-.41c0-2.271-1.274-3.757-3.3-3.757-2.065,0-3.406,1.589-3.406,3.955,0,2.417,1.326,3.911,3.464,3.911a2.97,2.97,0,0,0,3.142-2.285ZM37.923,9.108a2.338,2.338,0,0,1,2.314,2.549h-4.7A2.437,2.437,0,0,1,37.923,9.108ZM45.449,16h.967V11.32a1.991,1.991,0,0,1,1.926-2.2,1.673,1.673,0,0,1,1.743,1.8V16h.974V11.2a1.912,1.912,0,0,1,1.9-2.08,1.683,1.683,0,0,1,1.765,1.89V16H55.7V10.792a2.346,2.346,0,0,0-2.461-2.534,2.508,2.508,0,0,0-2.4,1.6H50.81a2.2,2.2,0,0,0-2.2-1.6,2.278,2.278,0,0,0-2.219,1.531h-.022V8.383h-.916Zm14.053.125a2.837,2.837,0,0,0,2.6-1.575h.022V16h.923V10.785c0-1.553-1.091-2.527-2.827-2.527s-2.856.967-2.966,2.329h.938A1.819,1.819,0,0,1,60.2,9.115a1.672,1.672,0,0,1,1.882,1.758v.659l-2.373.146c-1.758.117-2.732.908-2.732,2.212A2.272,2.272,0,0,0,59.5,16.125Zm.2-.835c-1.033,0-1.743-.571-1.743-1.4s.667-1.362,1.868-1.443l2.256-.154v.842A2.252,2.252,0,0,1,59.7,15.29Zm5.447,3.464c1.245,0,1.794-.5,2.461-2.292l3-8.079H69.579l-2.314,6.65h-.022l-2.314-6.65h-1.04l2.849,7.668-.2.571c-.337.952-.718,1.3-1.421,1.3a2.122,2.122,0,0,1-.454-.044v.828A3.029,3.029,0,0,0,65.148,18.754ZM74.871,16h.974V9.188h1.633V8.383H75.838V7.438c0-.85.388-1.223,1.121-1.223a3.154,3.154,0,0,1,.564.051v-.8a4.358,4.358,0,0,0-.7-.059,1.743,1.743,0,0,0-1.948,2.007v.967H73.809v.806h1.062Zm4.341-9.2a.645.645,0,1,0-.645-.645A.647.647,0,0,0,79.212,6.8ZM78.729,16H79.7V8.383h-.967Zm2.628,0h.967V11.488a2.168,2.168,0,0,1,2.2-2.366,1.868,1.868,0,0,1,2.007,2.095V16H87.5V11.063a2.746,2.746,0,0,0-5.208-1.274h-.022V8.383h-.916Zm10.582.125a2.806,2.806,0,0,0,2.637-1.736H94.6V16h.923V5.431h-.974V9.95h-.022a2.753,2.753,0,0,0-2.607-1.692c-1.912,0-3.237,1.56-3.237,3.933S90.012,16.125,91.938,16.125Zm.168-7.009c1.45,0,2.446,1.238,2.446,3.076s-1,3.076-2.446,3.076-2.432-1.216-2.432-3.076S90.642,9.115,92.107,9.115Zm11.159,7.009c2.073,0,3.472-1.516,3.472-3.933s-1.4-3.933-3.472-3.933-3.472,1.509-3.472,3.933S101.193,16.125,103.265,16.125Zm0-.857c-1.494,0-2.483-1.143-2.483-3.076s.989-3.076,2.483-3.076,2.49,1.143,2.49,3.076S104.759,15.268,103.265,15.268Zm5.074.732h.974V9.188h1.633V8.383h-1.641V7.438c0-.85.388-1.223,1.121-1.223a3.154,3.154,0,0,1,.564.051v-.8a4.358,4.358,0,0,0-.7-.059,1.743,1.743,0,0,0-1.948,2.007v.967h-1.062v.806h1.062Zm4.18,0h.974V9.188h1.633V8.383h-1.641V7.438c0-.85.388-1.223,1.121-1.223a3.154,3.154,0,0,1,.564.051v-.8a4.358,4.358,0,0,0-.7-.059,1.743,1.743,0,0,0-1.948,2.007v.967h-1.062v.806h1.062Zm8.626-2.161a2.063,2.063,0,0,1-2.161,1.436c-1.516,0-2.49-1.069-2.49-2.791v-.059H122.2v-.41c0-2.271-1.274-3.757-3.3-3.757-2.065,0-3.406,1.589-3.406,3.955,0,2.417,1.326,3.911,3.464,3.911a2.97,2.97,0,0,0,3.142-2.285ZM118.89,9.108a2.338,2.338,0,0,1,2.314,2.549h-4.7A2.437,2.437,0,0,1,118.89,9.108ZM123.422,16h.967V11.488a2.168,2.168,0,0,1,2.2-2.366,1.868,1.868,0,0,1,2.007,2.095V16h.967V11.063a2.746,2.746,0,0,0-5.208-1.274h-.022V8.383h-.916Zm7.55-5.581c0,1.055.681,1.692,2.131,2.029l1.143.271c1.025.249,1.4.615,1.4,1.274,0,.8-.754,1.333-1.9,1.333a1.813,1.813,0,0,1-2.029-1.509h-.967c.132,1.392,1.274,2.307,3,2.307,1.663,0,2.871-.916,2.871-2.2,0-1.077-.571-1.663-2.095-2.029l-1.15-.271c-1.011-.242-1.443-.63-1.443-1.252,0-.762.71-1.311,1.75-1.311a1.713,1.713,0,0,1,1.868,1.531h.93a2.535,2.535,0,0,0-2.8-2.329C132.092,8.258,130.971,9.159,130.971,10.419ZM138.389,6.8a.645.645,0,1,0-.645-.645A.647.647,0,0,0,138.389,6.8Zm-.483,9.2h.967V8.383h-.967Zm8.6-7.617H145.5l-2.322,6.6h-.022l-2.314-6.6h-1.025L142.65,16h1.033Zm5.989,5.457a2.063,2.063,0,0,1-2.161,1.436c-1.516,0-2.49-1.069-2.49-2.791v-.059h5.706v-.41c0-2.271-1.274-3.757-3.3-3.757-2.065,0-3.406,1.589-3.406,3.955,0,2.417,1.326,3.911,3.464,3.911a2.97,2.97,0,0,0,3.142-2.285Zm-2.256-4.731a2.338,2.338,0,0,1,2.314,2.549h-4.7A2.437,2.437,0,0,1,150.243,9.108Zm10.617,7.017c2.073,0,3.472-1.516,3.472-3.933s-1.4-3.933-3.472-3.933-3.472,1.509-3.472,3.933S158.787,16.125,160.86,16.125Zm0-.857c-1.494,0-2.483-1.143-2.483-3.076s.989-3.076,2.483-3.076,2.49,1.143,2.49,3.076S162.354,15.268,160.86,15.268Zm4.686.732h.967V11.254a1.827,1.827,0,0,1,1.772-2.073,1.961,1.961,0,0,1,.725.11V8.339a2.513,2.513,0,0,0-.6-.081,1.94,1.94,0,0,0-1.926,1.479h-.022V8.383h-.916Zm10.3.125a2.806,2.806,0,0,0,2.637-1.736h.022V16h.923V5.431h-.974V9.95h-.022a2.753,2.753,0,0,0-2.607-1.692c-1.912,0-3.237,1.56-3.237,3.933S173.921,16.125,175.847,16.125Zm.168-7.009c1.45,0,2.446,1.238,2.446,3.076s-1,3.076-2.446,3.076-2.432-1.216-2.432-3.076S174.551,9.115,176.016,9.115ZM181.639,6.8a.645.645,0,1,0-.645-.645A.647.647,0,0,0,181.639,6.8Zm-.483,9.2h.967V8.383h-.967Zm2.474-5.581c0,1.055.681,1.692,2.131,2.029l1.143.271c1.025.249,1.4.615,1.4,1.274,0,.8-.754,1.333-1.9,1.333a1.813,1.813,0,0,1-2.029-1.509h-.967c.132,1.392,1.274,2.307,3,2.307,1.663,0,2.871-.916,2.871-2.2,0-1.077-.571-1.663-2.095-2.029l-1.15-.271c-1.011-.242-1.443-.63-1.443-1.252,0-.762.71-1.311,1.75-1.311a1.713,1.713,0,0,1,1.868,1.531h.93a2.535,2.535,0,0,0-2.8-2.329C184.75,8.258,183.63,9.159,183.63,10.419Zm7.286-3.94v1.9H189.78v.806h1.135v4.937c0,1.377.513,1.919,1.787,1.919A6.051,6.051,0,0,0,193.42,16v-.828c-.059.015-.425.029-.527.029-.7,0-1.011-.337-1.011-1.121V9.188h1.5V8.383h-1.5v-1.9Zm9.879,1.9h-.967V12.9a2.161,2.161,0,0,1-2.219,2.358,1.851,1.851,0,0,1-1.992-2.095V8.383h-.974v4.951a2.548,2.548,0,0,0,2.688,2.791,2.615,2.615,0,0,0,2.527-1.538h.022V16h.916ZM202.389,16h.967V11.254a1.827,1.827,0,0,1,1.772-2.073,1.961,1.961,0,0,1,.725.11V8.339a2.513,2.513,0,0,0-.6-.081,1.94,1.94,0,0,0-1.926,1.479H203.3V8.383h-.916Zm8.092.125c1.919,0,3.223-1.56,3.223-3.933s-1.3-3.933-3.215-3.933a2.751,2.751,0,0,0-2.607,1.714h-.022V5.431h-.974V16h.93V14.389h.022A2.787,2.787,0,0,0,210.48,16.125ZM210.3,9.115c1.465,0,2.41,1.216,2.41,3.076s-.945,3.076-2.41,3.076c-1.436,0-2.446-1.245-2.446-3.076S208.869,9.115,210.3,9.115ZM215.474,6.8a.645.645,0,1,0-.645-.645A.647.647,0,0,0,215.474,6.8ZM214.99,16h.967V8.383h-.967Zm2.628,0h.967V11.488a2.168,2.168,0,0,1,2.2-2.366,1.868,1.868,0,0,1,2.007,2.095V16h.967V11.063a2.746,2.746,0,0,0-5.208-1.274h-.022V8.383h-.916Zm10.809,2.82c2.036,0,3.333-1.172,3.333-2.944V8.383h-.923V9.994h-.022a2.813,2.813,0,0,0-2.637-1.736c-1.948,0-3.237,1.545-3.237,3.911s1.289,3.9,3.215,3.9a2.786,2.786,0,0,0,2.607-1.692h.022v1.531a2.06,2.06,0,0,1-2.314,2.073A2.143,2.143,0,0,1,226.3,16.7h-1A2.947,2.947,0,0,0,228.427,18.82Zm-.1-3.6c-1.436,0-2.4-1.2-2.4-3.04s.959-3.062,2.4-3.062c1.465,0,2.454,1.23,2.454,3.054S229.8,15.216,228.332,15.216Zm6.055.85a.685.685,0,0,0,0-1.37.685.685,0,1,0,0,1.37Z" transform="translate(108.545 57.692)"/><rect class="c" width="81.933" height="95.458" transform="translate(0 0)"/><path class="d" d="M.393,0H.66V-2.123A1.149,1.149,0,0,1,1.818-3.37a1.021,1.021,0,0,1,1.094,1.1V0h.267V-2.3a1.22,1.22,0,0,0-1.3-1.306,1.242,1.242,0,0,0-1.23.827H.643v-.772H.393ZM5.7.055A1.616,1.616,0,0,0,7.285-1.777,1.616,1.616,0,0,0,5.7-3.609,1.613,1.613,0,0,0,4.117-1.777,1.613,1.613,0,0,0,5.7.055Zm0-.239c-.79,0-1.316-.6-1.316-1.593S4.91-3.37,5.7-3.37s1.319.6,1.319,1.593S6.489-.185,5.7-.185Zm6.854-3.37h-.28L11.364-.294h-.01l-.988-3.261h-.3L9.074-.294H9.067L8.155-3.555H7.878L8.91,0h.314l.984-3.213h.01L11.21,0h.308Z" transform="translate(382.942 25.297)"/><g transform="translate(27.23 33.993)"><path class="b" d="M1141.827-1299.239c3.668,0,4.1.014,5.551.08a7.6,7.6,0,0,1,2.55.473,4.257,4.257,0,0,1,1.58,1.028,4.257,4.257,0,0,1,1.028,1.579,7.612,7.612,0,0,1,.473,2.551c.066,1.449.08,1.883.08,5.551s-.014,4.1-.08,5.55a7.611,7.611,0,0,1-.473,2.551,4.256,4.256,0,0,1-1.028,1.58,4.256,4.256,0,0,1-1.58,1.028,7.6,7.6,0,0,1-2.55.473c-1.448.066-1.883.08-5.551.08s-4.1-.014-5.551-.08a7.606,7.606,0,0,1-2.551-.473,4.258,4.258,0,0,1-1.579-1.028,4.248,4.248,0,0,1-1.027-1.58,7.59,7.59,0,0,1-.473-2.55c-.066-1.448-.08-1.883-.08-5.55s.014-4.1.08-5.551a7.591,7.591,0,0,1,.473-2.551,4.249,4.249,0,0,1,1.027-1.579,4.26,4.26,0,0,1,1.579-1.028,7.608,7.608,0,0,1,2.551-.473c1.448-.066,1.883-.08,5.551-.08m0-2.475c-3.731,0-4.2.016-5.663.083a10.09,10.09,0,0,0-3.334.639,6.728,6.728,0,0,0-2.433,1.584,6.733,6.733,0,0,0-1.584,2.433,10.083,10.083,0,0,0-.638,3.334c-.067,1.465-.083,1.933-.083,5.664s.016,4.2.083,5.663a10.081,10.081,0,0,0,.638,3.334,6.729,6.729,0,0,0,1.584,2.433,6.725,6.725,0,0,0,2.433,1.584,10.078,10.078,0,0,0,3.334.639c1.465.067,1.933.083,5.663.083s4.2-.016,5.663-.083a10.081,10.081,0,0,0,3.335-.639,6.733,6.733,0,0,0,2.433-1.584,6.735,6.735,0,0,0,1.584-2.433,10.077,10.077,0,0,0,.638-3.334c.067-1.465.083-1.933.083-5.663s-.016-4.2-.083-5.664a10.079,10.079,0,0,0-.638-3.334,6.738,6.738,0,0,0-1.584-2.433,6.736,6.736,0,0,0-2.433-1.584,10.093,10.093,0,0,0-3.335-.639C1146.026-1301.7,1145.558-1301.714,1141.827-1301.714Zm0,6.683a7.054,7.054,0,0,0-7.054,7.054,7.054,7.054,0,0,0,7.054,7.053,7.053,7.053,0,0,0,7.054-7.053A7.053,7.053,0,0,0,1141.827-1295.031Zm0,11.632a4.578,4.578,0,0,1-4.578-4.578,4.579,4.579,0,0,1,4.578-4.579,4.579,4.579,0,0,1,4.579,4.579A4.579,4.579,0,0,1,1141.827-1283.4Zm8.981-11.911a1.648,1.648,0,0,1-1.648,1.648,1.648,1.648,0,0,1-1.648-1.648,1.648,1.648,0,0,1,1.648-1.648A1.648,1.648,0,0,1,1150.808-1295.31Z" transform="translate(-1128.091 1301.714)"/></g><g transform="translate(45.758 45.415)"><g class="e" transform="translate(1627.199 797.713)"><path class="f" d="M -1610.2548828125 -780.3384399414062 L -1625.878173828125 -780.3384399414062 C -1626.734497070312 -780.3384399414062 -1627.490600585938 -780.7596435546875 -1627.900756835938 -781.4652099609375 C -1628.309692382812 -782.1688232421875 -1628.300170898438 -783.03515625 -1627.875122070312 -783.7825927734375 L -1620.056518554688 -797.5119018554688 C -1619.62841796875 -798.263916015625 -1618.884399414062 -798.7129516601562 -1618.06640625 -798.7129516601562 C -1617.249755859375 -798.7129516601562 -1616.505859375 -798.2637939453125 -1616.076538085938 -797.5114135742188 L -1608.258178710938 -783.7806396484375 C -1607.83349609375 -783.0337524414062 -1607.82373046875 -782.16845703125 -1608.23193359375 -781.465576171875 C -1608.642700195312 -780.759521484375 -1609.398803710938 -780.3384399414062 -1610.2548828125 -780.3384399414062 Z M -1618.1181640625 -792.3191528320312 C -1618.164184570312 -792.3191528320312 -1618.20166015625 -792.28173828125 -1618.20166015625 -792.2357788085938 L -1618.20166015625 -788.3350219726562 C -1618.20166015625 -788.2888793945312 -1618.164184570312 -788.2512817382812 -1618.1181640625 -788.2512817382812 C -1618.072021484375 -788.2512817382812 -1618.034423828125 -788.2888793945312 -1618.034423828125 -788.3350219726562 L -1618.034423828125 -792.2357788085938 C -1618.034423828125 -792.28173828125 -1618.072021484375 -792.3191528320312 -1618.1181640625 -792.3191528320312 Z"/><path class="g" d="M -1610.2548828125 -781.3384399414062 C -1609.7568359375 -781.3384399414062 -1609.323974609375 -781.5770874023438 -1609.0966796875 -781.9677124023438 C -1608.86962890625 -782.3587036132812 -1608.881103515625 -782.8530883789062 -1609.127197265625 -783.2858276367188 L -1616.945068359375 -797.0158081054688 C -1617.193603515625 -797.4513549804688 -1617.612548828125 -797.7129516601562 -1618.06640625 -797.7129516601562 C -1618.5205078125 -797.7129516601562 -1618.939453125 -797.4528198242188 -1619.1875 -797.0170288085938 L -1627.005859375 -783.2882690429688 C -1627.251953125 -782.8555297851562 -1627.263427734375 -782.3587036132812 -1627.0361328125 -781.9677124023438 C -1626.80908203125 -781.5770874023438 -1626.3759765625 -781.3384399414062 -1625.878173828125 -781.3384399414062 L -1610.2548828125 -781.3384399414062 M -1618.06640625 -786.0270385742188 C -1617.468017578125 -786.0270385742188 -1616.98291015625 -785.5418090820312 -1616.98291015625 -784.9432983398438 C -1616.98291015625 -784.3450317382812 -1617.468017578125 -783.8599243164062 -1618.06640625 -783.8599243164062 C -1618.6650390625 -783.8599243164062 -1619.14990234375 -784.3450317382812 -1619.14990234375 -784.9432983398438 C -1619.14990234375 -785.5418090820312 -1618.6650390625 -786.0270385742188 -1618.06640625 -786.0270385742188 M -1618.1181640625 -793.3191528320312 C -1617.51953125 -793.3191528320312 -1617.034423828125 -792.8340454101562 -1617.034423828125 -792.2357788085938 L -1617.034423828125 -788.3350219726562 C -1617.034423828125 -787.7366333007812 -1617.51953125 -787.2512817382812 -1618.1181640625 -787.2512817382812 C -1618.71630859375 -787.2512817382812 -1619.20166015625 -787.7366333007812 -1619.20166015625 -788.3350219726562 L -1619.20166015625 -792.2357788085938 C -1619.20166015625 -792.8340454101562 -1618.71630859375 -793.3191528320312 -1618.1181640625 -793.3191528320312 M -1610.2548828125 -779.3384399414062 L -1625.878173828125 -779.3384399414062 C -1627.094848632812 -779.3384399414062 -1628.174072265625 -779.9456176757812 -1628.765258789062 -780.962646484375 C -1629.346435546875 -781.9623413085938 -1629.33837890625 -783.2323608398438 -1628.744384765625 -784.2769165039062 L -1620.925415039062 -798.0067749023438 C -1620.3173828125 -799.0750122070312 -1619.24853515625 -799.7129516601562 -1618.06640625 -799.7129516601562 C -1616.886108398438 -799.7129516601562 -1615.817504882812 -799.0752563476562 -1615.2080078125 -798.0070190429688 L -1607.38916015625 -784.2754516601562 C -1606.786254882812 -783.21533203125 -1606.778198242188 -781.9774780273438 -1607.3671875 -780.96337890625 C -1607.95947265625 -779.9453125 -1609.038696289062 -779.3384399414062 -1610.2548828125 -779.3384399414062 Z"/></g></g></g></svg>