<svg xmlns="http://www.w3.org/2000/svg" xmlns:xlink="http://www.w3.org/1999/xlink" width="446.295" height="111.839" viewBox="0 0 446.295 111.839"><defs><style>.a{fill:#fff;}.b,.f{fill:#333;}.c,.h{fill:#ff7ca9;}.d{fill:#4d4d4d;}.e{fill:none;}.g,.h{stroke:none;}.i{filter:url(#a);}</style><filter id="a" x="0" y="0" width="446.295" height="111.839" filterUnits="userSpaceOnUse"><feOffset dy="3" input="SourceAlpha"/><feGaussianBlur stdDeviation="5" result="b"/><feFlood flood-opacity="0.349"/><feComposite operator="in" in2="b"/><feComposite in="SourceGraphic"/></filter></defs><g transform="translate(14.657 12)"><g class="i" transform="matrix(1, 0, 0, 1, -14.66, -12)"><rect class="a" width="416.295" height="81.839" transform="translate(15 12)"/></g><path class="b" d="M.54-3.42C.614-1.162,2.515.2,5.371.2c3,0,4.831-1.478,4.831-3.818,0-1.818-1.1-2.839-3.636-3.345L5.3-7.222C3.885-7.5,3.3-7.96,3.3-8.7c0-.88.83-1.461,2.067-1.461,1.262,0,2.15.614,2.233,1.635H9.969c-.042-2.2-1.8-3.661-4.6-3.661C2.706-12.186.8-10.733.8-8.542c0,1.785,1.17,2.93,3.561,3.4l1.262.249c1.5.307,2.067.755,2.067,1.544,0,.88-.913,1.527-2.25,1.527-1.361,0-2.374-.6-2.532-1.6ZM16.718-9.04a2.9,2.9,0,0,0-2.756,1.693h-.05V-8.9H11.521v11.8h2.424v-4.4H14A2.916,2.916,0,0,0,16.759.141c2.225,0,3.6-1.727,3.6-4.59S18.976-9.04,16.718-9.04ZM15.9-1.81c-1.187,0-1.967-1.029-1.967-2.64,0-1.594.78-2.648,1.967-2.648,1.212,0,1.976,1.038,1.976,2.648S17.116-1.81,15.9-1.81Zm9.787,2C28.38.191,30.1-1.527,30.1-4.458c0-2.889-1.743-4.632-4.408-4.632s-4.408,1.751-4.408,4.632C21.283-1.536,23,.191,25.691.191Zm0-1.851c-1.2,0-1.951-1-1.951-2.789,0-1.768.772-2.789,1.951-2.789s1.942,1.021,1.942,2.789C27.633-2.665,26.878-1.66,25.691-1.66Zm6.3-9.289V-8.9H30.738v1.826h1.253V-2.4C31.991-.664,32.8.033,34.9.033a5.572,5.572,0,0,0,1.154-.1V-1.851a3.923,3.923,0,0,1-.589.042c-.714,0-1.046-.324-1.046-1V-7.072h1.644V-8.9H34.415v-2.05Zm6.641.847a1.252,1.252,0,0,0,1.262-1.245,1.247,1.247,0,0,0-1.262-1.245,1.247,1.247,0,0,0-1.262,1.245A1.252,1.252,0,0,0,38.632-10.1ZM37.428,0h2.424V-8.9H37.428ZM42.11,0h2.424V-7.072h1.71V-8.857H44.476v-.589c0-.631.349-.979,1.146-.979a3.768,3.768,0,0,1,.656.05v-1.6a7.052,7.052,0,0,0-1.237-.108c-2.108,0-2.93.813-2.93,2.557v.672H40.9v1.785H42.11Zm6.549,3.3c2.266,0,3.387-.822,4.142-3.1L55.864-8.9H53.308L51.423-1.942h-.05L49.481-8.9H46.825l3.1,8.9c.008.042-.083.39-.083.432-.166.706-.606.988-1.486.988-.091,0-.531-.008-.614-.025V3.271C47.821,3.287,48.568,3.3,48.659,3.3Z" transform="translate(108.374 32.555)"/><path d="M5-10.021C2.256-10.021.526-8.053.526-4.929S2.256.157,5,.157,9.488-1.8,9.488-4.929,7.752-10.021,5-10.021Zm0,.868c2.16,0,3.527,1.634,3.527,4.225S7.164-.711,5-.711,1.483-2.345,1.483-4.929,2.844-9.153,5-9.153ZM16.577-7.109h-.9v4.218A2.017,2.017,0,0,1,13.6-.69a1.727,1.727,0,0,1-1.859-1.955V-7.109h-.909v4.621a2.378,2.378,0,0,0,2.509,2.6A2.441,2.441,0,0,0,15.7-1.319h.021V0h.854Zm1.948-1.777v1.777h-1.06v.752h1.06V-1.75c0,1.285.479,1.791,1.668,1.791A5.647,5.647,0,0,0,20.863,0V-.772c-.055.014-.4.027-.492.027-.656,0-.943-.314-.943-1.046V-6.357h1.4v-.752h-1.4V-8.887Zm9.338,9C29.8.116,31.1-1.3,31.1-3.555S29.8-7.226,27.863-7.226s-3.24,1.408-3.24,3.671S25.929.116,27.863.116Zm0-.8c-1.395,0-2.317-1.066-2.317-2.871s.923-2.871,2.317-2.871,2.324,1.066,2.324,2.871S29.258-.684,27.863-.684ZM32.669,0h.909V-6.357H35.1v-.752H33.571v-.882c0-.793.362-1.142,1.046-1.142a2.944,2.944,0,0,1,.526.048V-9.83a4.068,4.068,0,0,0-.656-.055,1.626,1.626,0,0,0-1.818,1.873v.9h-.991v.752h.991ZM39-5.209c0,.984.636,1.579,1.989,1.894l1.066.253c.957.232,1.306.574,1.306,1.189,0,.745-.7,1.244-1.771,1.244A1.692,1.692,0,0,1,39.7-2.037h-.9c.123,1.3,1.189,2.153,2.8,2.153,1.552,0,2.68-.854,2.68-2.058,0-1-.533-1.552-1.955-1.894l-1.073-.253c-.943-.226-1.347-.588-1.347-1.169,0-.711.663-1.224,1.634-1.224a1.6,1.6,0,0,1,1.743,1.429h.868a2.366,2.366,0,0,0-2.611-2.174C40.045-7.226,39-6.385,39-5.209ZM46.45-3.746V-9.864h-.909V0h.909V-2.755l.793-.731L50.087,0h1.06L47.893-4.04l3.192-3.069H49.964Zm6.084-4.84a.6.6,0,0,0,.608-.6.6.6,0,0,0-.608-.6.6.6,0,0,0-.6.6A.6.6,0,0,0,52.534-8.586ZM52.083,0h.9V-7.109h-.9Zm5.852-7.226a2.6,2.6,0,0,0-2.447,1.62H55.46v-1.5h-.854V2.352h.9V-1.463h.027A2.55,2.55,0,0,0,57.955.116c1.784,0,3.008-1.456,3.008-3.671S59.732-7.226,57.935-7.226ZM57.777-.684c-1.347,0-2.27-1.155-2.27-2.871s.923-2.871,2.27-2.871c1.374,0,2.263,1.142,2.263,2.871S59.151-.684,57.777-.684Zm4.252-4.525c0,.984.636,1.579,1.989,1.894l1.066.253c.957.232,1.306.574,1.306,1.189,0,.745-.7,1.244-1.771,1.244a1.692,1.692,0,0,1-1.894-1.408h-.9c.123,1.3,1.189,2.153,2.8,2.153,1.552,0,2.68-.854,2.68-2.058,0-1-.533-1.552-1.955-1.894l-1.073-.253c-.943-.226-1.347-.588-1.347-1.169,0-.711.663-1.224,1.634-1.224A1.6,1.6,0,0,1,66.3-5.052h.868a2.366,2.366,0,0,0-2.611-2.174C63.075-7.226,62.029-6.385,62.029-5.209ZM69.323.062a.63.63,0,0,0,.636-.636.632.632,0,0,0-.636-.643.638.638,0,0,0-.643.643A.636.636,0,0,0,69.323.062ZM74.881,0V-4.478h4.525v-.834H74.881V-9.017H79.8v-.848H73.951V0Zm6.18,0h.9V-4.43a1.706,1.706,0,0,1,1.654-1.935,1.83,1.83,0,0,1,.677.1V-7.15a2.346,2.346,0,0,0-.561-.075,1.81,1.81,0,0,0-1.8,1.381h-.021V-7.109h-.854Zm8.716-2.017A1.925,1.925,0,0,1,87.76-.677a2.306,2.306,0,0,1-2.324-2.6v-.055h5.325v-.383c0-2.119-1.189-3.507-3.076-3.507-1.928,0-3.179,1.483-3.179,3.691,0,2.256,1.237,3.65,3.233,3.65a2.772,2.772,0,0,0,2.933-2.133ZM87.671-6.433a2.182,2.182,0,0,1,2.16,2.379H85.442A2.275,2.275,0,0,1,87.671-6.433Zm9.215,4.416a1.925,1.925,0,0,1-2.017,1.34,2.306,2.306,0,0,1-2.324-2.6v-.055H97.87v-.383c0-2.119-1.189-3.507-3.076-3.507-1.928,0-3.179,1.483-3.179,3.691,0,2.256,1.237,3.65,3.233,3.65a2.772,2.772,0,0,0,2.933-2.133ZM94.78-6.433a2.182,2.182,0,0,1,2.16,2.379H92.552A2.275,2.275,0,0,1,94.78-6.433Zm12.865-.677h-.9v4.218a2.017,2.017,0,0,1-2.071,2.2,1.727,1.727,0,0,1-1.859-1.955V-7.109H101.9v4.621a2.378,2.378,0,0,0,2.509,2.6,2.441,2.441,0,0,0,2.358-1.436h.021V0h.854Zm1.415,1.9c0,.984.636,1.579,1.989,1.894l1.066.253c.957.232,1.306.574,1.306,1.189,0,.745-.7,1.244-1.771,1.244a1.692,1.692,0,0,1-1.894-1.408h-.9c.123,1.3,1.189,2.153,2.8,2.153,1.552,0,2.68-.854,2.68-2.058,0-1-.533-1.552-1.955-1.894L111.3-4.088c-.943-.226-1.347-.588-1.347-1.169,0-.711.663-1.224,1.634-1.224a1.6,1.6,0,0,1,1.743,1.429h.868a2.366,2.366,0,0,0-2.611-2.174C110.106-7.226,109.061-6.385,109.061-5.209Zm11.4,3.192a1.925,1.925,0,0,1-2.017,1.34,2.306,2.306,0,0,1-2.324-2.6v-.055h5.325v-.383c0-2.119-1.189-3.507-3.076-3.507-1.928,0-3.179,1.483-3.179,3.691,0,2.256,1.237,3.65,3.233,3.65a2.772,2.772,0,0,0,2.933-2.133Zm-2.105-4.416a2.182,2.182,0,0,1,2.16,2.379h-4.389A2.275,2.275,0,0,1,118.351-6.433ZM122.65,0h.9V-4.43a1.706,1.706,0,0,1,1.654-1.935,1.83,1.83,0,0,1,.677.1V-7.15a2.346,2.346,0,0,0-.561-.075,1.81,1.81,0,0,0-1.8,1.381H123.5V-7.109h-.854Zm4.02-5.209c0,.984.636,1.579,1.989,1.894l1.066.253c.957.232,1.306.574,1.306,1.189,0,.745-.7,1.244-1.771,1.244a1.692,1.692,0,0,1-1.894-1.408h-.9c.123,1.3,1.189,2.153,2.8,2.153,1.552,0,2.68-.854,2.68-2.058,0-1-.533-1.552-1.955-1.894l-1.073-.253c-.943-.226-1.347-.588-1.347-1.169,0-.711.663-1.224,1.634-1.224a1.6,1.6,0,0,1,1.743,1.429h.868A2.366,2.366,0,0,0,129.2-7.226C127.716-7.226,126.67-6.385,126.67-5.209ZM141.8-4.86a2.8,2.8,0,0,0-2.926-2.365c-1.935,0-3.213,1.429-3.213,3.671,0,2.276,1.278,3.671,3.22,3.671A2.775,2.775,0,0,0,141.8-2.2h-.9a1.927,1.927,0,0,1-2.023,1.518c-1.388,0-2.3-1.087-2.3-2.871,0-1.757.909-2.871,2.3-2.871a1.97,1.97,0,0,1,2.03,1.565Zm3.24,4.977a2.648,2.648,0,0,0,2.427-1.47h.021V0h.861V-4.867a2.334,2.334,0,0,0-2.639-2.358,2.484,2.484,0,0,0-2.769,2.174h.875a1.7,1.7,0,0,1,1.873-1.374,1.561,1.561,0,0,1,1.757,1.641v.615l-2.215.137c-1.641.109-2.55.848-2.55,2.064A2.121,2.121,0,0,0,145.038.116Zm.185-.779c-.964,0-1.627-.533-1.627-1.306s.622-1.271,1.743-1.347l2.105-.144v.786A2.1,2.1,0,0,1,145.223-.663ZM149.864,0h.9V-4.211a2.024,2.024,0,0,1,2.058-2.208A1.743,1.743,0,0,1,154.7-4.464V0h.9V-4.607a2.38,2.38,0,0,0-2.516-2.618A2.4,2.4,0,0,0,150.739-5.8h-.021V-7.109h-.854Zm9.98-5.209c0,.984.636,1.579,1.989,1.894l1.066.253c.957.232,1.306.574,1.306,1.189,0,.745-.7,1.244-1.771,1.244a1.692,1.692,0,0,1-1.894-1.408h-.9c.123,1.3,1.189,2.153,2.8,2.153,1.552,0,2.68-.854,2.68-2.058,0-1-.533-1.552-1.955-1.894l-1.073-.253c-.943-.226-1.347-.588-1.347-1.169,0-.711.663-1.224,1.634-1.224a1.6,1.6,0,0,1,1.743,1.429h.868a2.366,2.366,0,0,0-2.611-2.174C160.891-7.226,159.845-6.385,159.845-5.209ZM167.3-3.746V-9.864h-.909V0h.909V-2.755l.793-.731L170.933,0h1.06l-3.254-4.04,3.192-3.069H170.81Zm6.084-4.84a.6.6,0,0,0,.608-.6.6.6,0,0,0-.608-.6.6.6,0,0,0-.6.6A.6.6,0,0,0,173.38-8.586ZM172.929,0h.9V-7.109h-.9Zm5.852-7.226a2.6,2.6,0,0,0-2.447,1.62h-.027v-1.5h-.854V2.352h.9V-1.463h.027A2.55,2.55,0,0,0,178.8.116c1.784,0,3.008-1.456,3.008-3.671S180.578-7.226,178.78-7.226Zm-.157,6.542c-1.347,0-2.27-1.155-2.27-2.871s.923-2.871,2.27-2.871c1.374,0,2.263,1.142,2.263,2.871S180-.684,178.623-.684ZM185.89-7.1h.9a2.163,2.163,0,0,1,2.3-2.105,1.969,1.969,0,0,1,2.1,1.948c0,.868-.349,1.456-1.764,2.933L185.938-.656V0h6.433V-.834h-5.134V-.861l2.639-2.755c1.757-1.812,2.242-2.618,2.242-3.685a2.826,2.826,0,0,0-3.028-2.721A3,3,0,0,0,185.89-7.1Zm11.122-1.791v1.777h-1.06v.752h1.06V-1.75c0,1.285.479,1.791,1.668,1.791A5.647,5.647,0,0,0,199.35,0V-.772c-.055.014-.4.027-.492.027-.656,0-.943-.314-.943-1.046V-6.357h1.4v-.752h-1.4V-8.887ZM200.6,0h.9V-4.43a1.706,1.706,0,0,1,1.654-1.935,1.83,1.83,0,0,1,.677.1V-7.15a2.346,2.346,0,0,0-.561-.075,1.81,1.81,0,0,0-1.8,1.381h-.021V-7.109H200.6Zm6.091.116a2.648,2.648,0,0,0,2.427-1.47h.021V0H210V-4.867a2.334,2.334,0,0,0-2.639-2.358,2.484,2.484,0,0,0-2.769,2.174h.875a1.7,1.7,0,0,1,1.873-1.374A1.561,1.561,0,0,1,209.1-4.785v.615l-2.215.137c-1.641.109-2.55.848-2.55,2.064A2.121,2.121,0,0,0,206.691.116Zm.185-.779c-.964,0-1.627-.533-1.627-1.306s.622-1.271,1.743-1.347l2.105-.144v.786A2.1,2.1,0,0,1,206.876-.663ZM217.3-4.86a2.8,2.8,0,0,0-2.926-2.365c-1.935,0-3.213,1.429-3.213,3.671,0,2.276,1.278,3.671,3.22,3.671A2.775,2.775,0,0,0,217.308-2.2h-.9a1.927,1.927,0,0,1-2.023,1.518c-1.388,0-2.3-1.087-2.3-2.871,0-1.757.909-2.871,2.3-2.871a1.97,1.97,0,0,1,2.03,1.565Zm2.105,1.114V-9.864H218.5V0h.909V-2.755l.793-.731L223.043,0h1.06l-3.254-4.04,3.192-3.069H222.92Zm5.2-1.463c0,.984.636,1.579,1.989,1.894l1.066.253c.957.232,1.306.574,1.306,1.189,0,.745-.7,1.244-1.771,1.244A1.692,1.692,0,0,1,225.3-2.037h-.9c.123,1.3,1.189,2.153,2.8,2.153,1.552,0,2.68-.854,2.68-2.058,0-1-.533-1.552-1.955-1.894l-1.073-.253c-.943-.226-1.347-.588-1.347-1.169,0-.711.663-1.224,1.634-1.224a1.6,1.6,0,0,1,1.743,1.429h.868a2.366,2.366,0,0,0-2.611-2.174C225.647-7.226,224.6-6.385,224.6-5.209Zm14.26,3.192a1.925,1.925,0,0,1-2.017,1.34,2.306,2.306,0,0,1-2.324-2.6v-.055h5.325v-.383c0-2.119-1.189-3.507-3.076-3.507-1.928,0-3.179,1.483-3.179,3.691,0,2.256,1.237,3.65,3.233,3.65a2.772,2.772,0,0,0,2.933-2.133Zm-2.105-4.416a2.182,2.182,0,0,1,2.16,2.379h-4.389A2.275,2.275,0,0,1,236.756-6.433Zm9.878-.677h-.943L243.523-.95H243.5l-2.16-6.159h-.957L243.031,0H244Zm5.66,5.093a1.925,1.925,0,0,1-2.017,1.34,2.306,2.306,0,0,1-2.324-2.6v-.055h5.325v-.383c0-2.119-1.189-3.507-3.076-3.507-1.928,0-3.179,1.483-3.179,3.691,0,2.256,1.237,3.65,3.233,3.65a2.772,2.772,0,0,0,2.933-2.133Zm-2.105-4.416a2.182,2.182,0,0,1,2.16,2.379H247.96A2.275,2.275,0,0,1,250.188-6.433ZM254.488,0h.9V-4.43a1.706,1.706,0,0,1,1.654-1.935,1.83,1.83,0,0,1,.677.1V-7.15a2.346,2.346,0,0,0-.561-.075,1.81,1.81,0,0,0-1.8,1.381h-.021V-7.109h-.854Zm4.717,2.57c1.162,0,1.675-.465,2.3-2.14l2.8-7.54h-.957L261.181-.9h-.021L259-7.109h-.971L260.688.048,260.5.581c-.314.889-.67,1.217-1.326,1.217a1.981,1.981,0,0,1-.424-.041v.772A2.827,2.827,0,0,0,259.205,2.57ZM268.119,0h.909V-4.184a2.046,2.046,0,0,1,2.105-2.235,1.774,1.774,0,0,1,1.894,1.976V0h.909V-4.594a2.422,2.422,0,0,0-2.543-2.632A2.4,2.4,0,0,0,269.049-5.8h-.021V-9.864h-.909Zm10.22.116c1.935,0,3.24-1.415,3.24-3.671s-1.306-3.671-3.24-3.671-3.24,1.408-3.24,3.671S276.4.116,278.339.116Zm0-.8c-1.395,0-2.317-1.066-2.317-2.871s.923-2.871,2.317-2.871,2.324,1.066,2.324,2.871S279.733-.684,278.339-.684Zm10.145-6.426h-.9v4.218a2.017,2.017,0,0,1-2.071,2.2,1.727,1.727,0,0,1-1.859-1.955V-7.109h-.909v4.621a2.378,2.378,0,0,0,2.509,2.6,2.441,2.441,0,0,0,2.358-1.436h.021V0h.854ZM290.042,0h.9V-4.43A1.706,1.706,0,0,1,292.6-6.364a1.83,1.83,0,0,1,.677.1V-7.15a2.346,2.346,0,0,0-.561-.075,1.81,1.81,0,0,0-1.8,1.381H290.9V-7.109h-.854Zm4.313.062a.63.63,0,0,0,.636-.636.632.632,0,0,0-.636-.643.638.638,0,0,0-.643.643A.636.636,0,0,0,294.355.062Z" transform="translate(108.374 56.692)"/><rect class="c" width="81.933" height="81.839" transform="translate(0 0)"/><path class="d" d="M.393,0H.66V-2.123A1.149,1.149,0,0,1,1.818-3.37a1.021,1.021,0,0,1,1.094,1.1V0h.267V-2.3a1.22,1.22,0,0,0-1.3-1.306,1.242,1.242,0,0,0-1.23.827H.643v-.772H.393ZM5.7.055A1.616,1.616,0,0,0,7.285-1.777,1.616,1.616,0,0,0,5.7-3.609,1.613,1.613,0,0,0,4.117-1.777,1.613,1.613,0,0,0,5.7.055Zm0-.239c-.79,0-1.316-.6-1.316-1.593S4.91-3.37,5.7-3.37s1.319.6,1.319,1.593S6.489-.185,5.7-.185Zm6.854-3.37h-.28L11.364-.294h-.01l-.988-3.261h-.3L9.074-.294H9.067L8.155-3.555H7.878L8.91,0h.314l.984-3.213h.01L11.21,0h.308Z" transform="translate(382.942 25.297)"/><path class="b" d="M3497.663-1786h1.1c.053.007.106.019.159.022a11.12,11.12,0,0,1,1.922.262,12.081,12.081,0,0,1,7.313,4.842,11.877,11.877,0,0,1,2.2,5.783c.027.251.048.5.072.754v1.1a1.358,1.358,0,0,0-.021.146,11.119,11.119,0,0,1-.288,2.043,12.093,12.093,0,0,1-5.218,7.478,11.808,11.808,0,0,1-5.381,1.924c-.251.027-.5.048-.754.072h-1.1c-.049-.007-.1-.019-.146-.021a11.717,11.717,0,0,1-3.531-.732,12.117,12.117,0,0,1-6.332-5.323,11.824,11.824,0,0,1-1.581-4.821c-.027-.255-.049-.51-.073-.765v-1.1c.016-.169.033-.337.047-.506a11.719,11.719,0,0,1,.817-3.461,12.122,12.122,0,0,1,5.493-6.2,11.818,11.818,0,0,1,4.539-1.423C3497.151-1785.955,3497.407-1785.976,3497.663-1786Zm-1.35,6.428c-.543.024-1.087.04-1.629.073a22.372,22.372,0,0,0-3.906.607,1.078,1.078,0,0,0-.629.419,1.243,1.243,0,0,0-.076,1.413,1.154,1.154,0,0,0,1.3.448,19.526,19.526,0,0,1,3.414-.537,21.029,21.029,0,0,1,3.768.066,20.56,20.56,0,0,1,3.786.769,20.659,20.659,0,0,1,3.175,1.262,1.056,1.056,0,0,0,.66.126,1.337,1.337,0,0,0,.984-1.043,1.119,1.119,0,0,0-.649-1.2A22.961,22.961,0,0,0,3496.313-1779.572Zm-5.728,6.869a2.43,2.43,0,0,0,.041.254.989.989,0,0,0,1.269.67,15.29,15.29,0,0,1,2.6-.487,17.24,17.24,0,0,1,3.952.042,16.4,16.4,0,0,1,4.543,1.245c.376.164.742.351,1.113.527a.639.639,0,0,0,.889-.173,3.345,3.345,0,0,0,.371-.543.97.97,0,0,0-.432-1.409,18.753,18.753,0,0,0-7.865-2.078,18.818,18.818,0,0,0-5.647.617.925.925,0,0,0-.582.431A1.822,1.822,0,0,0,3490.585-1772.7Zm5.853,4.743c.439.033.878.055,1.315.1a12.611,12.611,0,0,1,3.671.945c.453.193.89.425,1.335.637a.826.826,0,0,0,1.183-.65,1.9,1.9,0,0,0-.075-.8.941.941,0,0,0-.479-.586,15.038,15.038,0,0,0-6.114-1.742,15.029,15.029,0,0,0-5.291.591.767.767,0,0,0-.525.451,2.142,2.142,0,0,0-.166.531,1.612,1.612,0,0,0,.01.566.835.835,0,0,0,1.1.553A13.534,13.534,0,0,1,3496.438-1767.96Z" transform="translate(-3462.205 1812.555)"/><path class="e" d="M1122.956-777.626h29.4v29.4h-29.4Z" transform="translate(-1097.456 803.845)"/><g transform="translate(42.929 34.602)"><g class="f" transform="translate(1627.199 797.713)"><path class="g" d="M -1610.2548828125 -780.3384399414062 L -1625.878173828125 -780.3384399414062 C -1626.734497070312 -780.3384399414062 -1627.490600585938 -780.7596435546875 -1627.900756835938 -781.4652099609375 C -1628.309692382812 -782.1688232421875 -1628.300170898438 -783.03515625 -1627.875122070312 -783.7825927734375 L -1620.056518554688 -797.5119018554688 C -1619.62841796875 -798.263916015625 -1618.884399414062 -798.7129516601562 -1618.06640625 -798.7129516601562 C -1617.249755859375 -798.7129516601562 -1616.505859375 -798.2637939453125 -1616.076538085938 -797.5114135742188 L -1608.258178710938 -783.7806396484375 C -1607.83349609375 -783.0337524414062 -1607.82373046875 -782.16845703125 -1608.23193359375 -781.465576171875 C -1608.642700195312 -780.759521484375 -1609.398803710938 -780.3384399414062 -1610.2548828125 -780.3384399414062 Z M -1618.1181640625 -792.3191528320312 C -1618.164184570312 -792.3191528320312 -1618.20166015625 -792.28173828125 -1618.20166015625 -792.2357788085938 L -1618.20166015625 -788.3350219726562 C -1618.20166015625 -788.2888793945312 -1618.164184570312 -788.2512817382812 -1618.1181640625 -788.2512817382812 C -1618.072021484375 -788.2512817382812 -1618.034423828125 -788.2888793945312 -1618.034423828125 -788.3350219726562 L -1618.034423828125 -792.2357788085938 C -1618.034423828125 -792.28173828125 -1618.072021484375 -792.3191528320312 -1618.1181640625 -792.3191528320312 Z"/><path class="h" d="M -1610.2548828125 -781.3384399414062 C -1609.7568359375 -781.3384399414062 -1609.323974609375 -781.5770874023438 -1609.0966796875 -781.9677124023438 C -1608.86962890625 -782.3587036132812 -1608.881103515625 -782.8530883789062 -1609.127197265625 -783.2858276367188 L -1616.945068359375 -797.0158081054688 C -1617.193603515625 -797.4513549804688 -1617.612548828125 -797.7129516601562 -1618.06640625 -797.7129516601562 C -1618.5205078125 -797.7129516601562 -1618.939453125 -797.4528198242188 -1619.1875 -797.0170288085938 L -1627.005859375 -783.2882690429688 C -1627.251953125 -782.8555297851562 -1627.263427734375 -782.3587036132812 -1627.0361328125 -781.9677124023438 C -1626.80908203125 -781.5770874023438 -1626.3759765625 -781.3384399414062 -1625.878173828125 -781.3384399414062 L -1610.2548828125 -781.3384399414062 M -1618.06640625 -786.0270385742188 C -1617.468017578125 -786.0270385742188 -1616.98291015625 -785.5418090820312 -1616.98291015625 -784.9432983398438 C -1616.98291015625 -784.3450317382812 -1617.468017578125 -783.8599243164062 -1618.06640625 -783.8599243164062 C -1618.6650390625 -783.8599243164062 -1619.14990234375 -784.3450317382812 -1619.14990234375 -784.9432983398438 C -1619.14990234375 -785.5418090820312 -1618.6650390625 -786.0270385742188 -1618.06640625 -786.0270385742188 M -1618.1181640625 -793.3191528320312 C -1617.51953125 -793.3191528320312 -1617.034423828125 -792.8340454101562 -1617.034423828125 -792.2357788085938 L -1617.034423828125 -788.3350219726562 C -1617.034423828125 -787.7366333007812 -1617.51953125 -787.2512817382812 -1618.1181640625 -787.2512817382812 C -1618.71630859375 -787.2512817382812 -1619.20166015625 -787.7366333007812 -1619.20166015625 -788.3350219726562 L -1619.20166015625 -792.2357788085938 C -1619.20166015625 -792.8340454101562 -1618.71630859375 -793.3191528320312 -1618.1181640625 -793.3191528320312 M -1610.2548828125 -779.3384399414062 L -1625.878173828125 -779.3384399414062 C -1627.094848632812 -779.3384399414062 -1628.174072265625 -779.9456176757812 -1628.765258789062 -780.962646484375 C -1629.346435546875 -781.9623413085938 -1629.33837890625 -783.2323608398438 -1628.744384765625 -784.2769165039062 L -1620.925415039062 -798.0067749023438 C -1620.3173828125 -799.0750122070312 -1619.24853515625 -799.7129516601562 -1618.06640625 -799.7129516601562 C -1616.886108398438 -799.7129516601562 -1615.817504882812 -799.0752563476562 -1615.2080078125 -798.0070190429688 L -1607.38916015625 -784.2754516601562 C -1606.786254882812 -783.21533203125 -1606.778198242188 -781.9774780273438 -1607.3671875 -780.96337890625 C -1607.95947265625 -779.9453125 -1609.038696289062 -779.3384399414062 -1610.2548828125 -779.3384399414062 Z"/></g></g></g></svg>