<svg xmlns="http://www.w3.org/2000/svg" xmlns:xlink="http://www.w3.org/1999/xlink" width="446.295" height="111.839" viewBox="0 0 446.295 111.839"><defs><style>.a{fill:#fff;}.b,.f{fill:#333;}.c{fill:#ff7ca9;}.d{fill:#4d4d4d;}.e{fill:none;}.f{fill-rule:evenodd;}.g{filter:url(#a);}</style><filter id="a" x="0" y="0" width="446.295" height="111.839" filterUnits="userSpaceOnUse"><feOffset dy="3" input="SourceAlpha"/><feGaussianBlur stdDeviation="5" result="b"/><feFlood flood-opacity="0.349"/><feComposite operator="in" in2="b"/><feComposite in="SourceGraphic"/></filter></defs><g transform="translate(14.657 12)"><g class="g" transform="matrix(1, 0, 0, 1, -14.66, -12)"><rect class="a" width="416.295" height="81.839" transform="translate(15 12)"/></g><path class="b" d="M8.168-8.185h.075L10.517,0h2.366l3.179-11.978h-2.6L11.571-3.3H11.5L9.264-11.978H7.147L4.906-3.3H4.839L2.955-11.978H.357L3.528,0H5.894ZM18.614-10.1a1.252,1.252,0,0,0,1.262-1.245,1.247,1.247,0,0,0-1.262-1.245,1.247,1.247,0,0,0-1.262,1.245A1.252,1.252,0,0,0,18.614-10.1ZM17.411,0h2.424V-8.9H17.411ZM24.13-5.329H24.1v-6.649H21.673V0H24.1V-2.938l.631-.681L27.276,0h2.789L26.5-5.08,29.9-8.9H27.152ZM32.177-10.1a1.252,1.252,0,0,0,1.262-1.245,1.247,1.247,0,0,0-1.262-1.245,1.247,1.247,0,0,0-1.262,1.245A1.252,1.252,0,0,0,32.177-10.1ZM30.974,0H33.4V-8.9H30.974Zm9.4-9.04a2.9,2.9,0,0,0-2.756,1.693h-.05V-8.9H35.178v11.8H37.6v-4.4h.05A2.916,2.916,0,0,0,40.416.141c2.225,0,3.6-1.727,3.6-4.59S42.632-9.04,40.374-9.04Zm-.813,7.23c-1.187,0-1.967-1.029-1.967-2.64,0-1.594.78-2.648,1.967-2.648,1.212,0,1.976,1.038,1.976,2.648S40.773-1.81,39.561-1.81Zm11.766-.913A1.771,1.771,0,0,1,49.534-1.6a1.979,1.979,0,0,1-2.042-2.142v-.149h6.134v-.739c0-2.706-1.635-4.458-4.225-4.458-2.631,0-4.292,1.843-4.292,4.682s1.644,4.6,4.383,4.6c2.2,0,3.793-1.17,4.059-2.914ZM49.426-7.3a1.846,1.846,0,0,1,1.868,1.917H47.517A1.927,1.927,0,0,1,49.426-7.3ZM58.345.141a2.934,2.934,0,0,0,2.772-1.668h.042V0H63.55V-11.978H61.126v4.607h-.05A2.861,2.861,0,0,0,58.362-9.04c-2.233,0-3.644,1.751-3.644,4.574C54.718-1.619,56.121.141,58.345.141ZM59.167-7.1c1.2,0,1.976,1.029,1.976,2.648s-.772,2.64-1.976,2.64c-1.22,0-1.967-1-1.967-2.64S57.947-7.1,59.167-7.1Zm7.417-3a1.252,1.252,0,0,0,1.262-1.245,1.247,1.247,0,0,0-1.262-1.245,1.247,1.247,0,0,0-1.262,1.245A1.252,1.252,0,0,0,66.584-10.1ZM65.38,0H67.8V-8.9H65.38Zm6.844.141a3.061,3.061,0,0,0,2.714-1.5h.05V0h2.341V-6.118c0-1.793-1.486-2.972-3.769-2.972-2.357,0-3.827,1.187-3.918,2.914h2.216a1.443,1.443,0,0,1,1.594-1.1c.913,0,1.494.481,1.494,1.312v.589l-2.241.133c-2.216.133-3.461,1.071-3.461,2.689A2.751,2.751,0,0,0,72.224.141Zm.8-1.751c-.822,0-1.37-.415-1.37-1.079,0-.631.515-1.038,1.419-1.1l1.876-.116v.647A1.777,1.777,0,0,1,73.021-1.61Z" transform="translate(108.716 32.554)"/><path d="M1.978,0V-8.833h.051L8.247,0h.967V-10.569H8.225v8.826H8.174l-6.2-8.826H.989V0ZM16.454-2.161A2.063,2.063,0,0,1,14.293-.725c-1.516,0-2.49-1.069-2.49-2.791v-.059h5.706v-.41c0-2.271-1.274-3.757-3.3-3.757-2.065,0-3.406,1.589-3.406,3.955,0,2.417,1.326,3.911,3.464,3.911a2.97,2.97,0,0,0,3.142-2.285ZM14.2-6.892a2.338,2.338,0,0,1,2.314,2.549h-4.7A2.437,2.437,0,0,1,14.2-6.892Zm14.249-.725h-.974L25.766-1.084h-.022l-1.9-6.533h-.981l-1.9,6.533h-.022L19.24-7.617h-.981L20.427,0h1.025l1.89-6.321h.022L25.261,0h1.025ZM35.053.125a2.837,2.837,0,0,0,2.6-1.575h.022V0H38.6V-5.215c0-1.553-1.091-2.527-2.827-2.527s-2.856.967-2.966,2.329h.938a1.819,1.819,0,0,1,2.007-1.472,1.672,1.672,0,0,1,1.882,1.758v.659l-2.373.146c-1.758.117-2.732.908-2.732,2.212A2.272,2.272,0,0,0,35.053.125Zm.2-.835c-1.033,0-1.743-.571-1.743-1.4s.667-1.362,1.868-1.443l2.256-.154v.842A2.252,2.252,0,0,1,35.251-.71ZM40.374,0h.967V-4.746a1.827,1.827,0,0,1,1.772-2.073,1.961,1.961,0,0,1,.725.11v-.952a2.513,2.513,0,0,0-.6-.081,1.94,1.94,0,0,0-1.926,1.479H41.29V-7.617h-.916Zm5.138-9.521v1.9H44.377v.806h1.135v4.937C45.512-.5,46.025.044,47.3.044A6.051,6.051,0,0,0,48.017,0V-.828c-.059.015-.425.029-.527.029-.7,0-1.011-.337-1.011-1.121V-6.812h1.5v-.806h-1.5v-1.9Zm4.545.322a.647.647,0,0,0,.652-.645.647.647,0,0,0-.652-.645.645.645,0,0,0-.645.645A.645.645,0,0,0,50.056-9.2ZM49.573,0h.967V-7.617h-.967Zm9.049-5.208a3,3,0,0,0-3.135-2.534c-2.073,0-3.442,1.531-3.442,3.933,0,2.439,1.37,3.933,3.45,3.933a2.973,2.973,0,0,0,3.135-2.483H57.67A2.065,2.065,0,0,1,55.5-.732c-1.487,0-2.468-1.165-2.468-3.076,0-1.882.974-3.076,2.461-3.076A2.11,2.11,0,0,1,57.67-5.208ZM60.054,0h.967V-10.569h-.967Zm8.119-2.161A2.063,2.063,0,0,1,66.012-.725c-1.516,0-2.49-1.069-2.49-2.791v-.059h5.706v-.41c0-2.271-1.274-3.757-3.3-3.757-2.065,0-3.406,1.589-3.406,3.955,0,2.417,1.326,3.911,3.464,3.911a2.97,2.97,0,0,0,3.142-2.285ZM65.917-6.892a2.338,2.338,0,0,1,2.314,2.549h-4.7A2.437,2.437,0,0,1,65.917-6.892ZM74.442-9.2a.647.647,0,0,0,.652-.645.647.647,0,0,0-.652-.645.645.645,0,0,0-.645.645A.645.645,0,0,0,74.442-9.2ZM73.958,0h.967V-7.617h-.967Zm2.853,0h.967V-4.512a2.168,2.168,0,0,1,2.2-2.366,1.868,1.868,0,0,1,2.007,2.095V0h.967V-4.937a2.55,2.55,0,0,0-2.7-2.805,2.575,2.575,0,0,0-2.512,1.531h-.022V-7.617h-.916ZM93.883-8.855h.059L96.542,0h.923l2.915-10.569H99.333L97.011-1.538h-.051l-2.549-9.031h-1L90.858-1.538h-.044l-2.329-9.031h-1.04L90.353,0h.93Zm8.353-.344a.647.647,0,0,0,.652-.645.647.647,0,0,0-.652-.645.645.645,0,0,0-.645.645A.645.645,0,0,0,102.236-9.2ZM101.753,0h.967V-7.617h-.967Zm3.893-4.014v-6.555h-.974V0h.974V-2.952l.85-.784L109.542,0h1.135l-3.486-4.329,3.42-3.289h-1.2ZM112.314-9.2a.647.647,0,0,0,.652-.645.647.647,0,0,0-.652-.645.645.645,0,0,0-.645.645A.645.645,0,0,0,112.314-9.2ZM111.831,0h.967V-7.617h-.967Zm6.42-7.742a2.785,2.785,0,0,0-2.622,1.736H115.6V-7.617h-.916V2.52h.967V-1.567h.029A2.733,2.733,0,0,0,118.272.125c1.912,0,3.223-1.56,3.223-3.933S120.177-7.742,118.25-7.742Zm-.168,7.009c-1.443,0-2.432-1.238-2.432-3.076s.989-3.076,2.432-3.076c1.472,0,2.424,1.223,2.424,3.076S119.554-.732,118.082-.732Zm10.126-1.428a2.063,2.063,0,0,1-2.161,1.436c-1.516,0-2.49-1.069-2.49-2.791v-.059h5.706v-.41c0-2.271-1.274-3.757-3.3-3.757-2.065,0-3.406,1.589-3.406,3.955,0,2.417,1.326,3.911,3.464,3.911a2.97,2.97,0,0,0,3.142-2.285Zm-2.256-4.731a2.338,2.338,0,0,1,2.314,2.549h-4.7A2.437,2.437,0,0,1,125.952-6.892ZM133.587.125a2.806,2.806,0,0,0,2.637-1.736h.022V0h.923V-10.569h-.974V-6.05h-.022a2.753,2.753,0,0,0-2.607-1.692c-1.912,0-3.237,1.56-3.237,3.933S131.661.125,133.587.125Zm.168-7.009c1.45,0,2.446,1.238,2.446,3.076s-1,3.076-2.446,3.076-2.432-1.216-2.432-3.076S132.291-6.885,133.755-6.885ZM139.6-9.2a.647.647,0,0,0,.652-.645.647.647,0,0,0-.652-.645.645.645,0,0,0-.645.645A.645.645,0,0,0,139.6-9.2ZM139.12,0h.967V-7.617h-.967Zm5.108.125a2.837,2.837,0,0,0,2.6-1.575h.022V0h.923V-5.215c0-1.553-1.091-2.527-2.827-2.527s-2.856.967-2.966,2.329h.938a1.819,1.819,0,0,1,2.007-1.472,1.672,1.672,0,0,1,1.882,1.758v.659l-2.373.146c-1.758.117-2.732.908-2.732,2.212A2.272,2.272,0,0,0,144.229.125Zm.2-.835c-1.033,0-1.743-.571-1.743-1.4s.667-1.362,1.868-1.443l2.256-.154v.842A2.252,2.252,0,0,1,144.427-.71Zm6.017.776a.675.675,0,0,0,.681-.681.677.677,0,0,0-.681-.688.683.683,0,0,0-.688.688A.681.681,0,0,0,150.443.066Zm10.371-2.227a2.063,2.063,0,0,1-2.161,1.436c-1.516,0-2.49-1.069-2.49-2.791v-.059h5.706v-.41c0-2.271-1.274-3.757-3.3-3.757-2.065,0-3.406,1.589-3.406,3.955,0,2.417,1.326,3.911,3.464,3.911a2.97,2.97,0,0,0,3.142-2.285Zm-2.256-4.731a2.338,2.338,0,0,1,2.314,2.549h-4.7A2.437,2.437,0,0,1,158.558-6.892Zm7.2,3.765L167.842,0h1.091L166.3-3.867l2.659-3.75h-1.091l-2.08,3.054h-.022l-2.087-3.054h-1.1l2.644,3.787L162.546,0h1.084l2.1-3.127Zm7.921-4.614a2.785,2.785,0,0,0-2.622,1.736h-.029V-7.617h-.916V2.52h.967V-1.567h.029A2.733,2.733,0,0,0,173.7.125c1.912,0,3.223-1.56,3.223-3.933S175.6-7.742,173.675-7.742Zm-.168,7.009c-1.443,0-2.432-1.238-2.432-3.076s.989-3.076,2.432-3.076c1.472,0,2.424,1.223,2.424,3.076S174.979-.732,173.507-.732ZM178.432,0h.967V-10.569h-.967Zm5.943.125c2.073,0,3.472-1.516,3.472-3.933s-1.4-3.933-3.472-3.933S180.9-6.233,180.9-3.809,182.3.125,184.375.125Zm0-.857c-1.494,0-2.483-1.143-2.483-3.076s.989-3.076,2.483-3.076,2.49,1.143,2.49,3.076S185.87-.732,184.375-.732ZM189.286,0h.967V-4.746a1.827,1.827,0,0,1,1.772-2.073,1.961,1.961,0,0,1,.725.11v-.952a2.513,2.513,0,0,0-.6-.081,1.94,1.94,0,0,0-1.926,1.479H190.2V-7.617h-.916Zm9.488-2.161a2.063,2.063,0,0,1-2.161,1.436c-1.516,0-2.49-1.069-2.49-2.791v-.059h5.706v-.41c0-2.271-1.274-3.757-3.3-3.757-2.065,0-3.406,1.589-3.406,3.955,0,2.417,1.326,3.911,3.464,3.911a2.97,2.97,0,0,0,3.142-2.285Zm-2.256-4.731a2.338,2.338,0,0,1,2.314,2.549h-4.7A2.437,2.437,0,0,1,196.519-6.892ZM202.037.066a.675.675,0,0,0,.681-.681.677.677,0,0,0-.681-.688.683.683,0,0,0-.688.688A.681.681,0,0,0,202.037.066Z" transform="translate(108.716 57.692)"/><rect class="c" width="81.933" height="81.839" transform="translate(0 0)"/><path class="d" d="M.393,0H.66V-2.123A1.149,1.149,0,0,1,1.818-3.37a1.021,1.021,0,0,1,1.094,1.1V0h.267V-2.3a1.22,1.22,0,0,0-1.3-1.306,1.242,1.242,0,0,0-1.23.827H.643v-.772H.393ZM5.7.055A1.616,1.616,0,0,0,7.285-1.777,1.616,1.616,0,0,0,5.7-3.609,1.613,1.613,0,0,0,4.117-1.777,1.613,1.613,0,0,0,5.7.055Zm0-.239c-.79,0-1.316-.6-1.316-1.593S4.91-3.37,5.7-3.37s1.319.6,1.319,1.593S6.489-.185,5.7-.185Zm6.854-3.37h-.28L11.364-.294h-.01l-.988-3.261h-.3L9.074-.294H9.067L8.155-3.555H7.878L8.91,0h.314l.984-3.213h.01L11.21,0h.308Z" transform="translate(382.943 25.297)"/><path class="e" d="M1121.681-2371.226h32.673v32.673h-32.673Z" transform="translate(-1096.139 2394.367)"/><path class="f" d="M1153.771-2346.27a.445.445,0,0,1-.092.269.259.259,0,0,1-.2.12,2.559,2.559,0,0,0-1.47.579,5.4,5.4,0,0,0-1.179,1.876l-6.2,13.962c-.041.13-.154.2-.341.2a.382.382,0,0,1-.341-.2l-3.475-7.267-4,7.267a.383.383,0,0,1-.341.2.347.347,0,0,1-.353-.2l-6.088-13.962a4.825,4.825,0,0,0-1.2-1.816,3.3,3.3,0,0,0-1.76-.639.235.235,0,0,1-.182-.1.351.351,0,0,1-.087-.235c0-.229.065-.341.195-.341.543,0,1.109.023,1.7.072q.825.075,1.554.074t1.751-.074q1.056-.073,1.871-.072c.13,0,.194.113.194.341s-.041.338-.12.338a2.408,2.408,0,0,0-1.282.414,1.1,1.1,0,0,0-.468.924,1.875,1.875,0,0,0,.194.728l5.031,11.362,2.855-5.394-2.661-5.579a7.259,7.259,0,0,0-1.179-1.926,2.364,2.364,0,0,0-1.4-.529.212.212,0,0,1-.163-.1.373.373,0,0,1-.079-.235c0-.229.055-.341.171-.341a14.1,14.1,0,0,1,1.494.072,12.312,12.312,0,0,0,1.4.074q.727,0,1.542-.074.839-.073,1.652-.072c.13,0,.195.113.195.341s-.039.338-.12.338q-1.629.111-1.628.925a2.948,2.948,0,0,0,.377,1.129l1.761,3.573,1.751-3.268a2.639,2.639,0,0,0,.365-1.167q0-1.117-1.628-1.191c-.1,0-.146-.113-.146-.338a.41.41,0,0,1,.072-.231c.05-.074.1-.11.146-.11q.584,0,1.434.072.814.075,1.338.074c.25,0,.62-.022,1.1-.062.615-.055,1.131-.084,1.544-.084.1,0,.144.1.144.291q0,.389-.267.389a3.056,3.056,0,0,0-1.525.523,6.688,6.688,0,0,0-1.439,1.931l-2.334,4.315,3.161,6.439,4.666-10.85a2.932,2.932,0,0,0,.242-1.093c0-.8-.543-1.215-1.628-1.266-.1,0-.147-.113-.147-.338s.072-.341.219-.341c.4,0,.867.023,1.41.072.5.05.924.074,1.263.074a11.807,11.807,0,0,0,1.239-.074c.488-.049.925-.072,1.314-.072C1153.713-2346.56,1153.771-2346.464,1153.771-2346.27Z" transform="translate(-1099.151 2378.834)"/></g></svg>