<svg xmlns="http://www.w3.org/2000/svg" xmlns:xlink="http://www.w3.org/1999/xlink" width="446.295" height="111.839" viewBox="0 0 446.295 111.839"><defs><style>.a{fill:#fff;}.b{fill:#333;}.c{fill:#ff7ca9;}.d{fill:#4d4d4d;}.e{fill:none;}.f{filter:url(#a);}</style><filter id="a" x="0" y="0" width="446.295" height="111.839" filterUnits="userSpaceOnUse"><feOffset dy="3" input="SourceAlpha"/><feGaussianBlur stdDeviation="5" result="b"/><feFlood flood-opacity="0.349"/><feComposite operator="in" in2="b"/><feComposite in="SourceGraphic"/></filter></defs><g transform="translate(14.657 12)"><g class="f" transform="matrix(1, 0, 0, 1, -14.66, -12)"><rect class="a" width="416.295" height="81.839" transform="translate(15 12)"/></g><path class="b" d="M6.292.2c2.938,0,4.989-1.685,5.271-4.358H9.123A2.7,2.7,0,0,1,6.3-1.868C4.383-1.868,3.179-3.445,3.179-6c0-2.523,1.22-4.109,3.113-4.109A2.775,2.775,0,0,1,9.114-7.678h2.44c-.191-2.681-2.382-4.507-5.263-4.507-3.47,0-5.669,2.333-5.669,6.192S2.806.2,6.292.2ZM13.128,0h2.424V-5.08a1.775,1.775,0,0,1,1.818-1.976c1.1,0,1.668.7,1.668,1.843V0h2.424V-5.728c0-2.059-1.129-3.337-3.1-3.337a2.826,2.826,0,0,0-2.8,1.751h-.05v-4.665H13.128ZM29.069-2.723A1.771,1.771,0,0,1,27.276-1.6a1.979,1.979,0,0,1-2.042-2.142v-.149h6.134v-.739c0-2.706-1.635-4.458-4.225-4.458-2.631,0-4.292,1.843-4.292,4.682S24.5.191,27.235.191c2.2,0,3.793-1.17,4.059-2.914ZM27.168-7.3a1.846,1.846,0,0,1,1.868,1.917H25.259A1.927,1.927,0,0,1,27.168-7.3ZM35.423.141a3.061,3.061,0,0,0,2.714-1.5h.05V0h2.341V-6.118c0-1.793-1.486-2.972-3.769-2.972-2.357,0-3.827,1.187-3.918,2.914h2.216a1.443,1.443,0,0,1,1.594-1.1c.913,0,1.494.481,1.494,1.312v.589L35.9-5.246c-2.216.133-3.461,1.071-3.461,2.689A2.751,2.751,0,0,0,35.423.141Zm.8-1.751c-.822,0-1.37-.415-1.37-1.079,0-.631.515-1.038,1.419-1.1l1.876-.116v.647A1.777,1.777,0,0,1,36.22-1.61ZM47.455-9.04A2.9,2.9,0,0,0,44.7-7.346h-.05V-8.9H42.259v11.8h2.424v-4.4h.05A2.916,2.916,0,0,0,47.5.141c2.225,0,3.6-1.727,3.6-4.59S49.713-9.04,47.455-9.04Zm-.813,7.23c-1.187,0-1.967-1.029-1.967-2.64,0-1.594.78-2.648,1.967-2.648,1.212,0,1.976,1.038,1.976,2.648S47.853-1.81,46.641-1.81ZM55.228,0V-4.715H60.1V-6.7H55.228V-9.911h5.337v-2.067H52.722V0Zm6.836,0h2.424V-11.978H62.064Zm5.474-10.1A1.252,1.252,0,0,0,68.8-11.347a1.247,1.247,0,0,0-1.262-1.245,1.247,1.247,0,0,0-1.262,1.245A1.252,1.252,0,0,0,67.538-10.1ZM66.335,0h2.424V-8.9H66.335Zm8.272,3.354c2.665,0,4.441-1.361,4.441-3.478V-8.9H76.656v1.552h-.042A2.919,2.919,0,0,0,73.867-9.04c-2.258,0-3.652,1.735-3.652,4.557,0,2.781,1.436,4.458,3.611,4.458a2.9,2.9,0,0,0,2.748-1.594h.05V-.058c0,1.029-.7,1.718-1.951,1.718A1.763,1.763,0,0,1,72.863.631H70.489C70.68,2.216,72.265,3.354,74.606,3.354Zm.042-5.246c-1.2,0-1.951-.946-1.951-2.573S73.452-7.1,74.648-7.1c1.212,0,1.984,1.029,1.984,2.631S75.86-1.893,74.648-1.893ZM80.852,0h2.424V-5.08a1.775,1.775,0,0,1,1.818-1.976c1.1,0,1.668.7,1.668,1.843V0h2.424V-5.728c0-2.059-1.129-3.337-3.1-3.337a2.826,2.826,0,0,0-2.8,1.751h-.05v-4.665H80.852Zm10.7-10.949V-8.9H90.294v1.826h1.253V-2.4c0,1.735.813,2.432,2.905,2.432a5.572,5.572,0,0,0,1.154-.1V-1.851a3.923,3.923,0,0,1-.589.042c-.714,0-1.046-.324-1.046-1V-7.072h1.644V-8.9H93.971v-2.05Zm5.416,4.665c0,1.336.872,2.2,2.59,2.565l1.519.315c.872.2,1.179.465,1.179.938,0,.581-.564.955-1.478.955a1.47,1.47,0,0,1-1.668-1.2H96.74c.158,1.751,1.577,2.9,4.034,2.9,2.291,0,3.893-1.154,3.893-2.905,0-1.3-.764-2.034-2.623-2.424l-1.519-.324c-.9-.191-1.229-.5-1.229-.955,0-.589.556-.971,1.395-.971A1.358,1.358,0,0,1,102.2-6.176h2.233c-.05-1.743-1.461-2.914-3.744-2.914C98.425-9.089,96.964-7.977,96.964-6.284Z" transform="translate(108.374 32.555)"/><path d="M8.013,0H9.067L5.12-10.569h-1L.168,0H1.23L2.4-3.237H6.841ZM4.6-9.331h.044L6.541-4.1H2.7ZM10.228,0h.967V-4.68a1.991,1.991,0,0,1,1.926-2.2,1.673,1.673,0,0,1,1.743,1.8V0h.974V-4.8a1.912,1.912,0,0,1,1.9-2.08,1.683,1.683,0,0,1,1.765,1.89V0h.967V-5.208a2.346,2.346,0,0,0-2.461-2.534,2.508,2.508,0,0,0-2.4,1.6h-.022a2.2,2.2,0,0,0-2.2-1.6,2.278,2.278,0,0,0-2.219,1.531h-.022V-7.617h-.916ZM22.1-5.581c0,1.055.681,1.692,2.131,2.029l1.143.271c1.025.249,1.4.615,1.4,1.274,0,.8-.754,1.333-1.9,1.333a1.813,1.813,0,0,1-2.029-1.509h-.967c.132,1.392,1.274,2.307,3,2.307,1.663,0,2.871-.916,2.871-2.2,0-1.077-.571-1.663-2.095-2.029L24.5-4.38c-1.011-.242-1.443-.63-1.443-1.252,0-.762.71-1.311,1.75-1.311a1.713,1.713,0,0,1,1.868,1.531h.93a2.535,2.535,0,0,0-2.8-2.329C23.217-7.742,22.1-6.841,22.1-5.581Zm7.511-3.94v1.9H28.472v.806h1.135v4.937c0,1.377.513,1.919,1.787,1.919A6.051,6.051,0,0,0,32.113,0V-.828c-.059.015-.425.029-.527.029-.7,0-1.011-.337-1.011-1.121V-6.812h1.5v-.806h-1.5v-1.9Zm9,7.361A2.063,2.063,0,0,1,36.445-.725c-1.516,0-2.49-1.069-2.49-2.791v-.059H39.66v-.41c0-2.271-1.274-3.757-3.3-3.757-2.065,0-3.406,1.589-3.406,3.955,0,2.417,1.326,3.911,3.464,3.911a2.97,2.97,0,0,0,3.142-2.285ZM36.35-6.892a2.338,2.338,0,0,1,2.314,2.549h-4.7A2.437,2.437,0,0,1,36.35-6.892ZM41.106,0h.967V-4.746a1.827,1.827,0,0,1,1.772-2.073,1.961,1.961,0,0,1,.725.11v-.952a2.513,2.513,0,0,0-.6-.081,1.94,1.94,0,0,0-1.926,1.479h-.022V-7.617h-.916Zm7.1.125a2.806,2.806,0,0,0,2.637-1.736h.022V0h.923V-10.569h-.974V-6.05h-.022a2.753,2.753,0,0,0-2.607-1.692c-1.912,0-3.237,1.56-3.237,3.933S46.281.125,48.207.125Zm.168-7.009c1.45,0,2.446,1.238,2.446,3.076s-1,3.076-2.446,3.076-2.432-1.216-2.432-3.076S46.911-6.885,48.376-6.885ZM55.93.125a2.837,2.837,0,0,0,2.6-1.575h.022V0h.923V-5.215c0-1.553-1.091-2.527-2.827-2.527s-2.856.967-2.966,2.329h.938a1.819,1.819,0,0,1,2.007-1.472,1.672,1.672,0,0,1,1.882,1.758v.659l-2.373.146C54.378-4.2,53.4-3.413,53.4-2.109A2.272,2.272,0,0,0,55.93.125Zm.2-.835c-1.033,0-1.743-.571-1.743-1.4s.667-1.362,1.868-1.443l2.256-.154v.842A2.252,2.252,0,0,1,56.128-.71ZM61.251,0h.967V-4.68a1.991,1.991,0,0,1,1.926-2.2,1.673,1.673,0,0,1,1.743,1.8V0h.974V-4.8a1.912,1.912,0,0,1,1.9-2.08,1.683,1.683,0,0,1,1.765,1.89V0H71.5V-5.208a2.346,2.346,0,0,0-2.461-2.534,2.508,2.508,0,0,0-2.4,1.6h-.022a2.2,2.2,0,0,0-2.2-1.6,2.278,2.278,0,0,0-2.219,1.531h-.022V-7.617h-.916ZM77.042-9.2a.647.647,0,0,0,.652-.645.647.647,0,0,0-.652-.645.645.645,0,0,0-.645.645A.645.645,0,0,0,77.042-9.2ZM76.559,0h.967V-7.617h-.967Zm2.853,0h.967V-4.512a2.168,2.168,0,0,1,2.2-2.366,1.868,1.868,0,0,1,2.007,2.095V0h.967V-4.937a2.55,2.55,0,0,0-2.7-2.805,2.575,2.575,0,0,0-2.512,1.531h-.022V-7.617h-.916ZM93.884.168c2.52,0,4.006-2.139,4.006-5.676,0-4.065-2.168-5.229-3.94-5.229A3.531,3.531,0,0,0,90.28-7.119a3.4,3.4,0,0,0,3.508,3.472A3.221,3.221,0,0,0,96.9-5.669h.022C96.938-2.227,95.641-.71,93.891-.71a2.321,2.321,0,0,1-2.432-1.729H90.449A3.266,3.266,0,0,0,93.884.168Zm.066-4.7a2.568,2.568,0,0,1-2.659-2.615,2.644,2.644,0,0,1,2.666-2.688A2.678,2.678,0,0,1,96.645-7.1,2.611,2.611,0,0,1,93.95-4.534Zm8.917,4.7c2.52,0,4.006-2.139,4.006-5.676,0-4.065-2.168-5.229-3.94-5.229a3.531,3.531,0,0,0-3.669,3.618,3.4,3.4,0,0,0,3.508,3.472,3.221,3.221,0,0,0,3.113-2.021h.022c.015,3.442-1.282,4.958-3.032,4.958a2.321,2.321,0,0,1-2.432-1.729H99.432A3.266,3.266,0,0,0,102.867.168Zm.066-4.7a2.568,2.568,0,0,1-2.659-2.615,2.644,2.644,0,0,1,2.666-2.688A2.678,2.678,0,0,1,105.628-7.1,2.611,2.611,0,0,1,102.933-4.534Zm8.858,5.676h.7V-.139c1.831-.11,3.274-1.121,3.274-2.827,0-1.494-1.025-2.278-2.937-2.732l-.337-.081V-9.551a2.146,2.146,0,0,1,2.168,1.882h.967a3.06,3.06,0,0,0-3.135-2.761v-1.216h-.7v1.223c-1.75.125-3.062,1.179-3.062,2.725,0,1.392.974,2.2,2.834,2.651l.227.051v3.977a2.285,2.285,0,0,1-2.358-2.021h-.974c.059,1.692,1.509,2.769,3.333,2.893Zm-.081-7.1c-1.421-.344-2.007-.945-2.007-1.794,0-.9.8-1.67,2.087-1.787v3.6Zm.959,1.179c1.589.374,2.117.952,2.117,1.882,0,1.018-.754,1.794-2.3,1.882V-4.827Zm5.526-5.786.066,7.229h.886l.059-7.229ZM118.7.066a.677.677,0,0,0,.688-.681A.679.679,0,0,0,118.7-1.3a.677.677,0,0,0-.681.688A.675.675,0,0,0,118.7.066Zm15.014-4.358V-5.31h-4.277v.879h3.281v.374a3.148,3.148,0,0,1-3.391,3.3c-2.263,0-3.721-1.794-3.721-4.585,0-2.754,1.428-4.46,3.721-4.46A3.251,3.251,0,0,1,132.61-7.39h1.04a4.175,4.175,0,0,0-4.321-3.347c-2.886,0-4.746,2.117-4.746,5.391,0,3.333,1.882,5.515,4.746,5.515C132.075.168,133.716-1.5,133.716-4.292Zm6.874,2.131a2.063,2.063,0,0,1-2.161,1.436c-1.516,0-2.49-1.069-2.49-2.791v-.059h5.706v-.41c0-2.271-1.274-3.757-3.3-3.757-2.065,0-3.406,1.589-3.406,3.955,0,2.417,1.326,3.911,3.464,3.911a2.97,2.97,0,0,0,3.142-2.285Zm-2.256-4.731a2.338,2.338,0,0,1,2.314,2.549h-4.7A2.437,2.437,0,0,1,138.333-6.892Zm5.174-2.629v1.9h-1.135v.806h1.135v4.937c0,1.377.513,1.919,1.787,1.919A6.051,6.051,0,0,0,146.013,0V-.828c-.059.015-.425.029-.527.029-.7,0-1.011-.337-1.011-1.121V-6.812h1.5v-.806h-1.5v-1.9Zm7.632,0v1.9H150v.806h1.135v4.937c0,1.377.513,1.919,1.787,1.919A6.051,6.051,0,0,0,153.644,0V-.828c-.059.015-.425.029-.527.029-.7,0-1.011-.337-1.011-1.121V-6.812h1.5v-.806h-1.5v-1.9Zm4.545.322a.647.647,0,0,0,.652-.645.647.647,0,0,0-.652-.645.645.645,0,0,0-.645.645A.645.645,0,0,0,155.684-9.2ZM155.2,0h.967V-7.617H155.2Zm9.049-5.208a3,3,0,0,0-3.135-2.534c-2.073,0-3.442,1.531-3.442,3.933,0,2.439,1.37,3.933,3.45,3.933a2.973,2.973,0,0,0,3.135-2.483H163.3a2.065,2.065,0,0,1-2.168,1.626c-1.487,0-2.468-1.165-2.468-3.076,0-1.882.974-3.076,2.461-3.076A2.11,2.11,0,0,1,163.3-5.208Zm2.406,1.194v-6.555h-.974V0h.974V-2.952l.85-.784L170.552,0h1.135L168.2-4.329l3.42-3.289h-1.2Zm11,1.853a2.063,2.063,0,0,1-2.161,1.436c-1.516,0-2.49-1.069-2.49-2.791v-.059h5.706v-.41c0-2.271-1.274-3.757-3.3-3.757-2.065,0-3.406,1.589-3.406,3.955,0,2.417,1.326,3.911,3.464,3.911a2.97,2.97,0,0,0,3.142-2.285ZM175.4-6.892a2.338,2.338,0,0,1,2.314,2.549h-4.7A2.437,2.437,0,0,1,175.4-6.892Zm5.174-2.629v1.9h-1.135v.806h1.135v4.937c0,1.377.513,1.919,1.787,1.919A6.051,6.051,0,0,0,183.076,0V-.828c-.059.015-.425.029-.527.029-.7,0-1.011-.337-1.011-1.121V-6.812h1.5v-.806h-1.5v-1.9Zm3.841,3.94c0,1.055.681,1.692,2.131,2.029l1.143.271c1.025.249,1.4.615,1.4,1.274,0,.8-.754,1.333-1.9,1.333a1.813,1.813,0,0,1-2.029-1.509h-.967c.132,1.392,1.274,2.307,3,2.307,1.663,0,2.871-.916,2.871-2.2,0-1.077-.571-1.663-2.095-2.029l-1.15-.271c-1.011-.242-1.443-.63-1.443-1.252,0-.762.71-1.311,1.75-1.311a1.713,1.713,0,0,1,1.868,1.531h.93a2.535,2.535,0,0,0-2.8-2.329C185.533-7.742,184.412-6.841,184.412-5.581ZM192.377.066a.675.675,0,0,0,.681-.681.677.677,0,0,0-.681-.688.683.683,0,0,0-.688.688A.681.681,0,0,0,192.377.066Z" transform="translate(108.374 57.692)"/><rect class="c" width="81.933" height="81.839" transform="translate(0)"/><path class="d" d="M.393,0H.66V-2.123A1.149,1.149,0,0,1,1.818-3.37a1.021,1.021,0,0,1,1.094,1.1V0h.267V-2.3a1.22,1.22,0,0,0-1.3-1.306,1.242,1.242,0,0,0-1.23.827H.643v-.772H.393ZM5.7.055A1.616,1.616,0,0,0,7.285-1.777,1.616,1.616,0,0,0,5.7-3.609,1.613,1.613,0,0,0,4.117-1.777,1.613,1.613,0,0,0,5.7.055Zm0-.239c-.79,0-1.316-.6-1.316-1.593S4.91-3.37,5.7-3.37s1.319.6,1.319,1.593S6.489-.185,5.7-.185Zm6.854-3.37h-.28L11.364-.294h-.01l-.988-3.261h-.3L9.074-.294H9.067L8.155-3.555H7.878L8.91,0h.314l.984-3.213h.01L11.21,0h.308Z" transform="translate(382.942 25.297)"/><path class="e" d="M1122.493-2617.445h29.4v29.4h-29.4Z" transform="translate(-1096.993 2643.663)"/><path class="b" d="M1154.321-2606.072a1.5,1.5,0,0,0-1.274-.612l-12.3.754-4.444-6.23a2.084,2.084,0,0,0-2.911-.487,2.084,2.084,0,0,0-.487,2.911l4.443,6.23-4.718,11.38a1.478,1.478,0,0,0,.164,1.4,1.459,1.459,0,0,0,2.349.034l5.841-7.72,4.444,6.231-.949,2.983a.668.668,0,0,0,.1.615l.477.668a.7.7,0,0,0,1.113.027l2.578-3.24,3.9-1.382a.7.7,0,0,0,.337-1.061l-.477-.668a.665.665,0,0,0-.55-.292l-3.13-.075-4.443-6.23,9.2-3.008A1.46,1.46,0,0,0,1154.321-2606.072Z" transform="translate(-1103.307 2640.887)"/></g></svg>