<svg xmlns="http://www.w3.org/2000/svg" xmlns:xlink="http://www.w3.org/1999/xlink" width="446.295" height="120.016" viewBox="0 0 446.295 120.016"><defs><style>.a{fill:#fff;}.b,.f{fill:#333;}.c,.h{fill:#ff7ca9;}.d{fill:#4d4d4d;}.e{fill:none;}.g,.h{stroke:none;}.i{filter:url(#a);}</style><filter id="a" x="0" y="0" width="446.295" height="120.016" filterUnits="userSpaceOnUse"><feOffset dy="3" input="SourceAlpha"/><feGaussianBlur stdDeviation="5" result="b"/><feFlood flood-opacity="0.349"/><feComposite operator="in" in2="b"/><feComposite in="SourceGraphic"/></filter></defs><g transform="translate(14.657 12)"><g class="i" transform="matrix(1, 0, 0, 1, -14.66, -12)"><rect class="a" width="416.295" height="90.015" transform="translate(15 12)"/></g><path class="b" d="M3.5,0V-4.715H8.375V-6.7H3.5V-9.911H8.84v-2.067H1V0Zm9.044.141a3.061,3.061,0,0,0,2.714-1.5h.05V0h2.341V-6.118c0-1.793-1.486-2.972-3.769-2.972-2.357,0-3.827,1.187-3.918,2.914h2.216a1.443,1.443,0,0,1,1.594-1.1c.913,0,1.494.481,1.494,1.312v.589l-2.241.133c-2.216.133-3.461,1.071-3.461,2.689A2.751,2.751,0,0,0,12.546.141Zm.8-1.751c-.822,0-1.37-.415-1.37-1.079,0-.631.515-1.038,1.419-1.1l1.876-.116v.647A1.777,1.777,0,0,1,13.343-1.61ZM27.467-5.586a3.708,3.708,0,0,0-4.042-3.5c-2.665,0-4.366,1.776-4.366,4.632,0,2.905,1.7,4.648,4.383,4.648,2.341,0,3.91-1.353,4.034-3.453H25.217A1.674,1.674,0,0,1,23.466-1.71c-1.2,0-1.951-1-1.951-2.748,0-1.718.747-2.731,1.942-2.731a1.725,1.725,0,0,1,1.76,1.6Zm7.242,2.864A1.771,1.771,0,0,1,32.916-1.6a1.979,1.979,0,0,1-2.042-2.142v-.149h6.134v-.739c0-2.706-1.635-4.458-4.225-4.458-2.631,0-4.292,1.843-4.292,4.682s1.644,4.6,4.383,4.6c2.2,0,3.793-1.17,4.059-2.914ZM32.808-7.3a1.846,1.846,0,0,1,1.868,1.917H30.9A1.927,1.927,0,0,1,32.808-7.3ZM43.711.141c2.241,0,3.611-1.727,3.611-4.59S45.944-9.04,43.7-9.04a2.894,2.894,0,0,0-2.748,1.685h-.05v-4.624H38.482V0h2.391V-1.527h.05A2.934,2.934,0,0,0,43.711.141ZM42.873-7.1c1.2,0,1.967,1.029,1.967,2.648s-.755,2.64-1.967,2.64c-1.179,0-1.976-1.029-1.976-2.64C40.9-6.043,41.7-7.1,42.873-7.1ZM52.829.191c2.689,0,4.408-1.718,4.408-4.648,0-2.889-1.743-4.632-4.408-4.632s-4.408,1.751-4.408,4.632C48.422-1.536,50.14.191,52.829.191Zm0-1.851c-1.2,0-1.951-1-1.951-2.789,0-1.768.772-2.789,1.951-2.789s1.942,1.021,1.942,2.789C54.772-2.665,54.017-1.66,52.829-1.66ZM62.736.191c2.689,0,4.408-1.718,4.408-4.648,0-2.889-1.743-4.632-4.408-4.632s-4.408,1.751-4.408,4.632C58.329-1.536,60.047.191,62.736.191Zm0-1.851c-1.2,0-1.951-1-1.951-2.789,0-1.768.772-2.789,1.951-2.789s1.942,1.021,1.942,2.789C64.679-2.665,63.923-1.66,62.736-1.66Zm8.338-3.669h-.033v-6.649H68.617V0h2.424V-2.938l.631-.681L74.22,0h2.789L73.448-5.08l3.4-3.818H74.1Zm7.458-6.649.2,8.035h2.092l.2-8.035ZM79.777.208a1.317,1.317,0,0,0,1.353-1.3,1.317,1.317,0,0,0-1.353-1.3,1.317,1.317,0,0,0-1.353,1.3A1.317,1.317,0,0,0,79.777.208Z" transform="translate(108.374 32.554)"/><path d="M1.292,2.57c1.162,0,1.675-.465,2.3-2.14l2.8-7.54H5.428L3.268-.9H3.247L1.087-7.109H.116L2.775.048,2.591.581C2.276,1.47,1.921,1.8,1.265,1.8a1.981,1.981,0,0,1-.424-.041v.772A2.827,2.827,0,0,0,1.292,2.57ZM10.161.116C12.1.116,13.4-1.3,13.4-3.555S12.1-7.226,10.161-7.226s-3.24,1.408-3.24,3.671S8.227.116,10.161.116Zm0-.8c-1.395,0-2.317-1.066-2.317-2.871s.923-2.871,2.317-2.871,2.324,1.066,2.324,2.871S11.556-.684,10.161-.684ZM20.446-7.109h-.9v4.218a2.017,2.017,0,0,1-2.071,2.2,1.727,1.727,0,0,1-1.859-1.955V-7.109H14.7v4.621a2.378,2.378,0,0,0,2.509,2.6,2.441,2.441,0,0,0,2.358-1.436h.021V0h.854ZM22.145,0h.9V-4.43A1.706,1.706,0,0,1,24.7-6.364a1.83,1.83,0,0,1,.677.1V-7.15a2.346,2.346,0,0,0-.561-.075,1.81,1.81,0,0,0-1.8,1.381H23V-7.109h-.854ZM31.6.116a2.648,2.648,0,0,0,2.427-1.47h.021V0h.861V-4.867a2.334,2.334,0,0,0-2.639-2.358A2.484,2.484,0,0,0,29.5-5.052h.875a1.7,1.7,0,0,1,1.873-1.374A1.561,1.561,0,0,1,34-4.785v.615l-2.215.137c-1.641.109-2.55.848-2.55,2.064A2.121,2.121,0,0,0,31.6.116Zm.185-.779c-.964,0-1.627-.533-1.627-1.306S30.778-3.24,31.9-3.315L34-3.459v.786A2.1,2.1,0,0,1,31.783-.663Zm10.565-4.2a2.8,2.8,0,0,0-2.926-2.365c-1.935,0-3.213,1.429-3.213,3.671,0,2.276,1.278,3.671,3.22,3.671A2.775,2.775,0,0,0,42.355-2.2h-.9A1.927,1.927,0,0,1,39.436-.684c-1.388,0-2.3-1.087-2.3-2.871,0-1.757.909-2.871,2.3-2.871a1.97,1.97,0,0,1,2.03,1.565Zm7.058,0A2.8,2.8,0,0,0,46.48-7.226c-1.935,0-3.213,1.429-3.213,3.671,0,2.276,1.278,3.671,3.22,3.671A2.775,2.775,0,0,0,49.413-2.2h-.9A1.927,1.927,0,0,1,46.494-.684c-1.388,0-2.3-1.087-2.3-2.871,0-1.757.909-2.871,2.3-2.871a1.97,1.97,0,0,1,2.03,1.565ZM53.565.116c1.935,0,3.24-1.415,3.24-3.671S55.5-7.226,53.565-7.226s-3.24,1.408-3.24,3.671S51.631.116,53.565.116Zm0-.8c-1.395,0-2.317-1.066-2.317-2.871s.923-2.871,2.317-2.871S55.89-5.359,55.89-3.555,54.96-.684,53.565-.684ZM63.85-7.109h-.9v4.218a2.017,2.017,0,0,1-2.071,2.2,1.727,1.727,0,0,1-1.859-1.955V-7.109h-.909v4.621a2.378,2.378,0,0,0,2.509,2.6,2.441,2.441,0,0,0,2.358-1.436H63V0h.854ZM65.548,0h.9V-4.211a2.024,2.024,0,0,1,2.058-2.208,1.743,1.743,0,0,1,1.873,1.955V0h.9V-4.607a2.38,2.38,0,0,0-2.516-2.618A2.4,2.4,0,0,0,66.423-5.8H66.4V-7.109h-.854Zm7.789-8.887v1.777h-1.06v.752h1.06V-1.75c0,1.285.479,1.791,1.668,1.791A5.647,5.647,0,0,0,75.676,0V-.772c-.055.014-.4.027-.492.027-.656,0-.943-.314-.943-1.046V-6.357h1.4v-.752h-1.4V-8.887ZM80.132,0h.909V-4.184a2.046,2.046,0,0,1,2.105-2.235,1.774,1.774,0,0,1,1.894,1.976V0h.909V-4.594a2.422,2.422,0,0,0-2.543-2.632A2.4,2.4,0,0,0,81.062-5.8h-.021V-9.864h-.909Zm9.58.116a2.648,2.648,0,0,0,2.427-1.47h.021V0h.861V-4.867a2.334,2.334,0,0,0-2.639-2.358,2.484,2.484,0,0,0-2.769,2.174h.875a1.7,1.7,0,0,1,1.873-1.374,1.561,1.561,0,0,1,1.757,1.641v.615L89.9-4.033c-1.641.109-2.55.848-2.55,2.064A2.121,2.121,0,0,0,89.713.116ZM89.9-.663c-.964,0-1.627-.533-1.627-1.306s.622-1.271,1.743-1.347l2.105-.144v.786A2.1,2.1,0,0,1,89.9-.663Zm4.638-4.546c0,.984.636,1.579,1.989,1.894l1.066.253c.957.232,1.306.574,1.306,1.189,0,.745-.7,1.244-1.771,1.244a1.692,1.692,0,0,1-1.894-1.408h-.9c.123,1.3,1.189,2.153,2.8,2.153,1.552,0,2.68-.854,2.68-2.058,0-1-.533-1.552-1.955-1.894l-1.073-.253c-.943-.226-1.347-.588-1.347-1.169,0-.711.663-1.224,1.634-1.224a1.6,1.6,0,0,1,1.743,1.429h.868a2.366,2.366,0,0,0-2.611-2.174C95.581-7.226,94.536-6.385,94.536-5.209ZM107.578.116c1.791,0,3.008-1.456,3.008-3.671s-1.217-3.671-3-3.671a2.567,2.567,0,0,0-2.434,1.6h-.021V-9.864h-.909V0h.868V-1.5h.021A2.6,2.6,0,0,0,107.578.116Zm-.171-6.542c1.367,0,2.249,1.135,2.249,2.871s-.882,2.871-2.249,2.871c-1.34,0-2.283-1.162-2.283-2.871S106.074-6.426,107.407-6.426Zm9.444,4.409a1.925,1.925,0,0,1-2.017,1.34,2.306,2.306,0,0,1-2.324-2.6v-.055h5.325v-.383c0-2.119-1.189-3.507-3.076-3.507-1.928,0-3.179,1.483-3.179,3.691,0,2.256,1.237,3.65,3.233,3.65a2.772,2.772,0,0,0,2.933-2.133Zm-2.105-4.416a2.182,2.182,0,0,1,2.16,2.379h-4.389A2.275,2.275,0,0,1,114.746-6.433ZM124.1-2.017a1.925,1.925,0,0,1-2.017,1.34,2.306,2.306,0,0,1-2.324-2.6v-.055h5.325v-.383c0-2.119-1.189-3.507-3.076-3.507-1.928,0-3.179,1.483-3.179,3.691,0,2.256,1.237,3.65,3.233,3.65A2.772,2.772,0,0,0,125-2.017Zm-2.105-4.416a2.182,2.182,0,0,1,2.16,2.379h-4.389A2.275,2.275,0,0,1,121.995-6.433ZM126.435,0h.9V-4.211a2.024,2.024,0,0,1,2.058-2.208,1.743,1.743,0,0,1,1.873,1.955V0h.9V-4.607a2.38,2.38,0,0,0-2.516-2.618A2.4,2.4,0,0,0,127.31-5.8h-.021V-7.109h-.854Zm13.091.116a2.619,2.619,0,0,0,2.461-1.62h.021V0h.861V-9.864h-.909v4.218h-.021A2.57,2.57,0,0,0,139.5-7.226c-1.784,0-3.021,1.456-3.021,3.671S137.727.116,139.525.116Zm.157-6.542c1.354,0,2.283,1.155,2.283,2.871s-.93,2.871-2.283,2.871-2.27-1.135-2.27-2.871S138.315-6.426,139.683-6.426Zm5.458-2.16a.6.6,0,0,0,.608-.6.6.6,0,0,0-.608-.6.6.6,0,0,0-.6.6A.6.6,0,0,0,145.141-8.586ZM144.69,0h.9V-7.109h-.9Zm2.519-5.209c0,.984.636,1.579,1.989,1.894l1.066.253c.957.232,1.306.574,1.306,1.189,0,.745-.7,1.244-1.771,1.244a1.692,1.692,0,0,1-1.894-1.408H147c.123,1.3,1.189,2.153,2.8,2.153,1.552,0,2.68-.854,2.68-2.058,0-1-.533-1.552-1.955-1.894l-1.073-.253c-.943-.226-1.347-.588-1.347-1.169,0-.711.663-1.224,1.634-1.224a1.6,1.6,0,0,1,1.743,1.429h.868a2.366,2.366,0,0,0-2.611-2.174C148.255-7.226,147.209-6.385,147.209-5.209ZM155.935.116a2.648,2.648,0,0,0,2.427-1.47h.021V0h.861V-4.867A2.334,2.334,0,0,0,156.6-7.226a2.484,2.484,0,0,0-2.769,2.174h.875a1.7,1.7,0,0,1,1.873-1.374,1.561,1.561,0,0,1,1.757,1.641v.615l-2.215.137c-1.641.109-2.55.848-2.55,2.064A2.121,2.121,0,0,0,155.935.116Zm.185-.779c-.964,0-1.627-.533-1.627-1.306s.622-1.271,1.743-1.347l2.105-.144v.786A2.1,2.1,0,0,1,156.119-.663Zm8.2.779c1.791,0,3.008-1.456,3.008-3.671s-1.217-3.671-3-3.671a2.567,2.567,0,0,0-2.434,1.6h-.021V-9.864h-.909V0h.868V-1.5h.021A2.6,2.6,0,0,0,164.319.116Zm-.171-6.542c1.367,0,2.249,1.135,2.249,2.871s-.882,2.871-2.249,2.871c-1.34,0-2.283-1.162-2.283-2.871S162.815-6.426,164.148-6.426ZM168.738,0h.9V-9.864h-.9Zm7.577-2.017A1.925,1.925,0,0,1,174.3-.677a2.306,2.306,0,0,1-2.324-2.6v-.055H177.3v-.383c0-2.119-1.189-3.507-3.076-3.507-1.928,0-3.179,1.483-3.179,3.691,0,2.256,1.237,3.65,3.233,3.65a2.772,2.772,0,0,0,2.933-2.133ZM174.21-6.433a2.182,2.182,0,0,1,2.16,2.379h-4.389A2.275,2.275,0,0,1,174.21-6.433ZM181.336.116A2.619,2.619,0,0,0,183.8-1.5h.021V0h.861V-9.864h-.909v4.218h-.021a2.57,2.57,0,0,0-2.434-1.579c-1.784,0-3.021,1.456-3.021,3.671S179.539.116,181.336.116Zm.157-6.542c1.354,0,2.283,1.155,2.283,2.871s-.93,2.871-2.283,2.871-2.27-1.135-2.27-2.871S180.126-6.426,181.494-6.426ZM187.232.062a.63.63,0,0,0,.636-.636.632.632,0,0,0-.636-.643.638.638,0,0,0-.643.643A.636.636,0,0,0,187.232.062ZM195.852,0V-4.266l3.534-5.6H198.32L195.4-5.182h-.034l-2.919-4.683h-1.066l3.534,5.6V0Zm6.162.116c1.935,0,3.24-1.415,3.24-3.671s-1.306-3.671-3.24-3.671-3.24,1.408-3.24,3.671S200.08.116,202.015.116Zm0-.8c-1.395,0-2.317-1.066-2.317-2.871s.923-2.871,2.317-2.871,2.324,1.066,2.324,2.871S203.409-.684,202.015-.684ZM212.3-7.109h-.9v4.218a2.017,2.017,0,0,1-2.071,2.2,1.727,1.727,0,0,1-1.859-1.955V-7.109h-.909v4.621a2.378,2.378,0,0,0,2.509,2.6,2.441,2.441,0,0,0,2.358-1.436h.021V0h.854ZM222.785-4.86a2.8,2.8,0,0,0-2.926-2.365c-1.935,0-3.213,1.429-3.213,3.671,0,2.276,1.278,3.671,3.22,3.671A2.775,2.775,0,0,0,222.792-2.2h-.9a1.927,1.927,0,0,1-2.023,1.518c-1.388,0-2.3-1.087-2.3-2.871,0-1.757.909-2.871,2.3-2.871A1.97,1.97,0,0,1,221.9-4.86Zm3.38,4.977a2.648,2.648,0,0,0,2.427-1.47h.021V0h.861V-4.867a2.334,2.334,0,0,0-2.639-2.358,2.484,2.484,0,0,0-2.769,2.174h.875a1.7,1.7,0,0,1,1.873-1.374,1.561,1.561,0,0,1,1.757,1.641v.615l-2.215.137c-1.641.109-2.55.848-2.55,2.064A2.121,2.121,0,0,0,226.165.116Zm.185-.779c-.964,0-1.627-.533-1.627-1.306s.622-1.271,1.743-1.347l2.105-.144v.786A2.1,2.1,0,0,1,226.35-.663ZM231.132,0h.9V-4.211a2.024,2.024,0,0,1,2.058-2.208,1.743,1.743,0,0,1,1.873,1.955V0h.9V-4.607a2.38,2.38,0,0,0-2.516-2.618A2.4,2.4,0,0,0,232.007-5.8h-.021V-7.109h-.854ZM6.357,7.891H5.414L3.247,14.05H3.227L1.066,7.891H.109L2.755,15h.964ZM7.9,6.414a.6.6,0,1,0-.6-.6A.6.6,0,0,0,7.9,6.414ZM7.448,15h.9V7.891h-.9ZM9.967,9.791c0,.984.636,1.579,1.989,1.894l1.066.253c.957.232,1.306.574,1.306,1.189,0,.745-.7,1.244-1.771,1.244a1.692,1.692,0,0,1-1.894-1.408h-.9c.123,1.3,1.189,2.153,2.8,2.153,1.552,0,2.68-.854,2.68-2.058,0-1-.533-1.552-1.955-1.894l-1.073-.253c-.943-.226-1.347-.588-1.347-1.169,0-.711.663-1.224,1.634-1.224a1.6,1.6,0,0,1,1.743,1.429h.868A2.366,2.366,0,0,0,12.5,7.774C11.012,7.774,9.967,8.615,9.967,9.791ZM17.1,6.414a.6.6,0,1,0-.6-.6A.6.6,0,0,0,17.1,6.414ZM16.649,15h.9V7.891h-.9ZM19.7,6.113V7.891h-1.06v.752H19.7V13.25c0,1.285.479,1.791,1.668,1.791a5.647,5.647,0,0,0,.67-.041v-.772c-.055.014-.4.027-.492.027-.656,0-.943-.314-.943-1.046V8.643H22V7.891H20.6V6.113Zm9.618,9c1.935,0,3.24-1.415,3.24-3.671s-1.306-3.671-3.24-3.671-3.24,1.408-3.24,3.671S27.384,15.116,29.319,15.116Zm0-.8C27.924,14.316,27,13.25,27,11.445s.923-2.871,2.317-2.871,2.324,1.066,2.324,2.871S30.713,14.316,29.319,14.316ZM39.6,7.891h-.9v4.218a2.017,2.017,0,0,1-2.071,2.2,1.727,1.727,0,0,1-1.859-1.955V7.891h-.909v4.621a2.378,2.378,0,0,0,2.509,2.6,2.441,2.441,0,0,0,2.358-1.436h.021V15H39.6ZM41.3,15h.9V10.57a1.706,1.706,0,0,1,1.654-1.935,1.83,1.83,0,0,1,.677.1V7.85a2.346,2.346,0,0,0-.561-.075,1.81,1.81,0,0,0-1.8,1.381h-.021V7.891H41.3Zm8.422,0V10.522h4.525V9.688H49.723V5.983h4.922V5.136H48.794V15Zm12.233,0h.984L59.256,5.136h-.93L54.635,15h.991l1.094-3.021h4.143ZM58.77,6.291h.041l1.771,4.881H57Zm9.163,8.866a4.643,4.643,0,0,0,1.839-.355l.991,1.354h1.053l-1.285-1.764a5.061,5.061,0,0,0,1.887-4.32c0-3.124-1.736-5.093-4.484-5.093s-4.478,1.969-4.478,5.093S65.179,15.157,67.934,15.157Zm0-.868c-2.153,0-3.521-1.634-3.521-4.218s1.36-4.225,3.521-4.225,3.521,1.634,3.521,4.225a4.28,4.28,0,0,1-1.47,3.568l-.978-1.34H67.954l1.278,1.757A3.6,3.6,0,0,1,67.934,14.289ZM80.2,7.774a2.6,2.6,0,0,0-2.447,1.62h-.027v-1.5h-.854v9.461h.9V13.537H77.8a2.55,2.55,0,0,0,2.42,1.579c1.784,0,3.008-1.456,3.008-3.671S82,7.774,80.2,7.774Zm-.157,6.542c-1.347,0-2.27-1.155-2.27-2.871s.923-2.871,2.27-2.871c1.374,0,2.263,1.142,2.263,2.871S81.414,14.316,80.04,14.316Zm6.641.8a2.648,2.648,0,0,0,2.427-1.47h.021V15h.861V10.133a2.334,2.334,0,0,0-2.639-2.358,2.484,2.484,0,0,0-2.769,2.174h.875A1.7,1.7,0,0,1,87.33,8.574a1.561,1.561,0,0,1,1.757,1.641v.615l-2.215.137c-1.641.109-2.55.848-2.55,2.064A2.121,2.121,0,0,0,86.681,15.116Zm.185-.779c-.964,0-1.627-.533-1.627-1.306s.622-1.271,1.743-1.347l2.105-.144v.786A2.1,2.1,0,0,1,86.866,14.337Zm7.68,3.295c1.9,0,3.11-1.094,3.11-2.748V7.891h-.861v1.5h-.021a2.626,2.626,0,0,0-2.461-1.62c-1.818,0-3.021,1.442-3.021,3.65s1.2,3.644,3,3.644a2.6,2.6,0,0,0,2.434-1.579h.021v1.429a1.923,1.923,0,0,1-2.16,1.935,2,2,0,0,1-2.023-1.2h-.937A2.75,2.75,0,0,0,94.546,17.632Zm-.089-3.363c-1.34,0-2.235-1.121-2.235-2.837s.9-2.857,2.235-2.857c1.367,0,2.29,1.148,2.29,2.851S95.824,14.269,94.457,14.269Zm9.813-1.285a1.925,1.925,0,0,1-2.017,1.34,2.306,2.306,0,0,1-2.324-2.6v-.055h5.325v-.383c0-2.119-1.189-3.507-3.076-3.507C100.25,7.774,99,9.258,99,11.466c0,2.256,1.237,3.65,3.233,3.65a2.772,2.772,0,0,0,2.933-2.133Zm-2.105-4.416a2.182,2.182,0,0,1,2.16,2.379H99.936A2.275,2.275,0,0,1,102.164,8.567ZM109.67,15h.909V10.816a2.046,2.046,0,0,1,2.105-2.235,1.774,1.774,0,0,1,1.894,1.976V15h.909V10.406a2.422,2.422,0,0,0-2.543-2.632A2.4,2.4,0,0,0,110.6,9.2h-.021V5.136h-.909Zm12.39-2.017a1.925,1.925,0,0,1-2.017,1.34,2.306,2.306,0,0,1-2.324-2.6v-.055h5.325v-.383c0-2.119-1.189-3.507-3.076-3.507-1.928,0-3.179,1.483-3.179,3.691,0,2.256,1.237,3.65,3.233,3.65a2.772,2.772,0,0,0,2.933-2.133Zm-2.105-4.416a2.182,2.182,0,0,1,2.16,2.379h-4.389A2.275,2.275,0,0,1,119.954,8.567ZM124.394,15h.9V10.57a1.706,1.706,0,0,1,1.654-1.935,1.83,1.83,0,0,1,.677.1V7.85a2.346,2.346,0,0,0-.561-.075,1.81,1.81,0,0,0-1.8,1.381h-.021V7.891h-.854Zm8.856-2.017a1.925,1.925,0,0,1-2.017,1.34,2.306,2.306,0,0,1-2.324-2.6v-.055h5.325v-.383c0-2.119-1.189-3.507-3.076-3.507-1.928,0-3.179,1.483-3.179,3.691,0,2.256,1.237,3.65,3.233,3.65a2.772,2.772,0,0,0,2.933-2.133Zm-2.105-4.416a2.182,2.182,0,0,1,2.16,2.379h-4.389A2.275,2.275,0,0,1,131.144,8.567Zm5.151,6.494a.639.639,0,0,0,0-1.278.639.639,0,1,0,0,1.278Z" transform="translate(108.374 56.692)"/><path class="c" d="M0,0H81.933V90.015H0Z" transform="translate(0)"/><path class="d" d="M.393,0H.66V-2.123A1.149,1.149,0,0,1,1.818-3.37a1.021,1.021,0,0,1,1.094,1.1V0h.267V-2.3a1.22,1.22,0,0,0-1.3-1.306,1.242,1.242,0,0,0-1.23.827H.643v-.772H.393ZM5.7.055A1.616,1.616,0,0,0,7.285-1.777,1.616,1.616,0,0,0,5.7-3.609,1.613,1.613,0,0,0,4.117-1.777,1.613,1.613,0,0,0,5.7.055Zm0-.239c-.79,0-1.316-.6-1.316-1.593S4.91-3.37,5.7-3.37s1.319.6,1.319,1.593S6.489-.185,5.7-.185Zm6.854-3.37h-.28L11.364-.294h-.01l-.988-3.261h-.3L9.074-.294H9.067L8.155-3.555H7.878L8.91,0h.314l.984-3.213h.01L11.21,0h.308Z" transform="translate(382.942 25.297)"/><path class="e" d="M1122.493-1599.325h29.4v29.4h-29.4Z" transform="translate(-1096.993 1625.543)"/><path class="e" d="M1119.282-1604.6h33.311v33.311h-33.311Z" transform="translate(-1094.971 1628.867)"/><path class="b" d="M1151.545-1598H1131.1a1.269,1.269,0,0,0-1.268,1.269v20.45a1.269,1.269,0,0,0,1.268,1.269h11.01v-8.9h-3v-3.469h3v-2.558c0-2.969,1.813-4.586,4.462-4.586a24.553,24.553,0,0,1,2.677.137v3.1h-1.837c-1.44,0-1.719.684-1.719,1.689v2.215h3.436l-.447,3.469h-2.988v8.9h5.857a1.269,1.269,0,0,0,1.269-1.269v-20.45a1.269,1.269,0,0,0-1.269-1.269Z" transform="translate(-1101.611 1624.706)"/><g transform="translate(48.1 32.834)"><g class="f" transform="translate(1627.199 797.713)"><path class="g" d="M -1610.2548828125 -780.3384399414062 L -1625.878173828125 -780.3384399414062 C -1626.734497070312 -780.3384399414062 -1627.490600585938 -780.7596435546875 -1627.900756835938 -781.4652099609375 C -1628.309692382812 -782.1688232421875 -1628.300170898438 -783.03515625 -1627.875122070312 -783.7825927734375 L -1620.056518554688 -797.5119018554688 C -1619.62841796875 -798.263916015625 -1618.884399414062 -798.7129516601562 -1618.06640625 -798.7129516601562 C -1617.249755859375 -798.7129516601562 -1616.505859375 -798.2637939453125 -1616.076538085938 -797.5114135742188 L -1608.258178710938 -783.7806396484375 C -1607.83349609375 -783.0337524414062 -1607.82373046875 -782.16845703125 -1608.23193359375 -781.465576171875 C -1608.642700195312 -780.759521484375 -1609.398803710938 -780.3384399414062 -1610.2548828125 -780.3384399414062 Z M -1618.1181640625 -792.3191528320312 C -1618.164184570312 -792.3191528320312 -1618.20166015625 -792.28173828125 -1618.20166015625 -792.2357788085938 L -1618.20166015625 -788.3350219726562 C -1618.20166015625 -788.2888793945312 -1618.164184570312 -788.2512817382812 -1618.1181640625 -788.2512817382812 C -1618.072021484375 -788.2512817382812 -1618.034423828125 -788.2888793945312 -1618.034423828125 -788.3350219726562 L -1618.034423828125 -792.2357788085938 C -1618.034423828125 -792.28173828125 -1618.072021484375 -792.3191528320312 -1618.1181640625 -792.3191528320312 Z"/><path class="h" d="M -1610.2548828125 -781.3384399414062 C -1609.7568359375 -781.3384399414062 -1609.323974609375 -781.5770874023438 -1609.0966796875 -781.9677124023438 C -1608.86962890625 -782.3587036132812 -1608.881103515625 -782.8530883789062 -1609.127197265625 -783.2858276367188 L -1616.945068359375 -797.0158081054688 C -1617.193603515625 -797.4513549804688 -1617.612548828125 -797.7129516601562 -1618.06640625 -797.7129516601562 C -1618.5205078125 -797.7129516601562 -1618.939453125 -797.4528198242188 -1619.1875 -797.0170288085938 L -1627.005859375 -783.2882690429688 C -1627.251953125 -782.8555297851562 -1627.263427734375 -782.3587036132812 -1627.0361328125 -781.9677124023438 C -1626.80908203125 -781.5770874023438 -1626.3759765625 -781.3384399414062 -1625.878173828125 -781.3384399414062 L -1610.2548828125 -781.3384399414062 M -1618.06640625 -786.0270385742188 C -1617.468017578125 -786.0270385742188 -1616.98291015625 -785.5418090820312 -1616.98291015625 -784.9432983398438 C -1616.98291015625 -784.3450317382812 -1617.468017578125 -783.8599243164062 -1618.06640625 -783.8599243164062 C -1618.6650390625 -783.8599243164062 -1619.14990234375 -784.3450317382812 -1619.14990234375 -784.9432983398438 C -1619.14990234375 -785.5418090820312 -1618.6650390625 -786.0270385742188 -1618.06640625 -786.0270385742188 M -1618.1181640625 -793.3191528320312 C -1617.51953125 -793.3191528320312 -1617.034423828125 -792.8340454101562 -1617.034423828125 -792.2357788085938 L -1617.034423828125 -788.3350219726562 C -1617.034423828125 -787.7366333007812 -1617.51953125 -787.2512817382812 -1618.1181640625 -787.2512817382812 C -1618.71630859375 -787.2512817382812 -1619.20166015625 -787.7366333007812 -1619.20166015625 -788.3350219726562 L -1619.20166015625 -792.2357788085938 C -1619.20166015625 -792.8340454101562 -1618.71630859375 -793.3191528320312 -1618.1181640625 -793.3191528320312 M -1610.2548828125 -779.3384399414062 L -1625.878173828125 -779.3384399414062 C -1627.094848632812 -779.3384399414062 -1628.174072265625 -779.9456176757812 -1628.765258789062 -780.962646484375 C -1629.346435546875 -781.9623413085938 -1629.33837890625 -783.2323608398438 -1628.744384765625 -784.2769165039062 L -1620.925415039062 -798.0067749023438 C -1620.3173828125 -799.0750122070312 -1619.24853515625 -799.7129516601562 -1618.06640625 -799.7129516601562 C -1616.886108398438 -799.7129516601562 -1615.817504882812 -799.0752563476562 -1615.2080078125 -798.0070190429688 L -1607.38916015625 -784.2754516601562 C -1606.786254882812 -783.21533203125 -1606.778198242188 -781.9774780273438 -1607.3671875 -780.96337890625 C -1607.95947265625 -779.9453125 -1609.038696289062 -779.3384399414062 -1610.2548828125 -779.3384399414062 Z"/></g></g></g></svg>