<svg xmlns="http://www.w3.org/2000/svg" width="423.3" height="275.2" viewBox="0 0 423.3 275.2"><defs><style>.a,.i{fill:#fff;}.a{stroke:#ff7ca9;stroke-width:7px;}.b,.f{fill:#333;}.c,.k{fill:#ff7ca9;}.d{fill:#4d4d4d;}.e{fill:none;}.g{opacity:0.084;}.h{fill:#ff3f4e;}.j,.k{stroke:none;}</style></defs><g transform="translate(-14.157 -11.5)"><g transform="translate(-12.043 -9)"><path class="a" d="M0,0H416.3V268.2H0Z" transform="translate(29.7 24)"/><g transform="translate(29.853 24.076)"><path class="b" d="M6.906,0V-4.474l4.175-7.5H8.392L5.7-6.865H5.645L2.963-11.978H.232L4.4-4.474V0Zm7.446.191c2.689,0,4.408-1.718,4.408-4.648,0-2.889-1.743-4.632-4.408-4.632S9.944-7.338,9.944-4.458C9.944-1.536,11.663.191,14.352.191Zm0-1.851c-1.2,0-1.951-1-1.951-2.789,0-1.768.772-2.789,1.951-2.789s1.942,1.021,1.942,2.789C16.294-2.665,15.539-1.66,14.352-1.66ZM28.223-8.9H25.8v5.1a1.737,1.737,0,0,1-1.751,1.951c-1.071,0-1.66-.631-1.66-1.818V-8.9H19.963v5.736a3.046,3.046,0,0,0,3.2,3.329A2.644,2.644,0,0,0,25.832-1.6h.05V0h2.341ZM34.3,0V-9.911h3.47v-2.067H28.331v2.067h3.461V0ZM46.069-8.9H43.646v5.1a1.737,1.737,0,0,1-1.751,1.951c-1.071,0-1.66-.631-1.66-1.818V-8.9H37.81v5.736a3.046,3.046,0,0,0,3.2,3.329A2.644,2.644,0,0,0,43.679-1.6h.05V0h2.341ZM52.934.141c2.241,0,3.611-1.727,3.611-4.59s-1.378-4.59-3.619-4.59a2.894,2.894,0,0,0-2.748,1.685h-.05v-4.624H47.7V0H50.1V-1.527h.05A2.934,2.934,0,0,0,52.934.141ZM52.1-7.1c1.2,0,1.967,1.029,1.967,2.648S53.308-1.81,52.1-1.81c-1.179,0-1.976-1.029-1.976-2.64C50.12-6.043,50.925-7.1,52.1-7.1Zm11.6,4.375A1.771,1.771,0,0,1,61.9-1.6a1.979,1.979,0,0,1-2.042-2.142v-.149h6.134v-.739c0-2.706-1.635-4.458-4.225-4.458-2.631,0-4.292,1.843-4.292,4.682s1.644,4.6,4.383,4.6c2.2,0,3.793-1.17,4.059-2.914ZM61.791-7.3a1.846,1.846,0,0,1,1.868,1.917H59.882A1.927,1.927,0,0,1,61.791-7.3Zm6.1-4.682.2,8.035h2.092l.2-8.035ZM69.137.208A1.317,1.317,0,0,0,70.49-1.1a1.317,1.317,0,0,0-1.353-1.3,1.317,1.317,0,0,0-1.353,1.3A1.317,1.317,0,0,0,69.137.208Z" transform="translate(108.374 32.555)"/><path d="M4.45,0V-9.017H7.711v-.848H.26v.848H3.514V0ZM8.8,0h.909V-4.184a2.046,2.046,0,0,1,2.105-2.235,1.774,1.774,0,0,1,1.894,1.976V0h.909V-4.594a2.422,2.422,0,0,0-2.543-2.632A2.4,2.4,0,0,0,9.734-5.8H9.714V-9.864H8.8Zm7.848-8.586a.6.6,0,0,0,.608-.6.6.6,0,0,0-.608-.6.6.6,0,0,0-.6.6A.6.6,0,0,0,16.652-8.586ZM16.2,0h.9V-7.109h-.9ZM18.58-5.209c0,.984.636,1.579,1.989,1.894l1.066.253c.957.232,1.306.574,1.306,1.189,0,.745-.7,1.244-1.771,1.244a1.692,1.692,0,0,1-1.894-1.408h-.9c.123,1.3,1.189,2.153,2.8,2.153,1.552,0,2.68-.854,2.68-2.058,0-1-.533-1.552-1.955-1.894l-1.073-.253c-.943-.226-1.347-.588-1.347-1.169,0-.711.663-1.224,1.634-1.224a1.6,1.6,0,0,1,1.743,1.429h.868a2.366,2.366,0,0,0-2.611-2.174C19.626-7.226,18.58-6.385,18.58-5.209ZM33.5-7.109H32.56L30.393-.95h-.021l-2.16-6.159h-.957L29.9,0h.964Zm1.4-1.477a.6.6,0,0,0,.608-.6.6.6,0,0,0-.608-.6.6.6,0,0,0-.6.6A.6.6,0,0,0,34.9-8.586ZM34.453,0h.9V-7.109h-.9Zm5.209.116A2.619,2.619,0,0,0,42.123-1.5h.021V0H43V-9.864H42.1v4.218h-.021a2.57,2.57,0,0,0-2.434-1.579c-1.784,0-3.021,1.456-3.021,3.671S37.864.116,39.662.116Zm.157-6.542c1.354,0,2.283,1.155,2.283,2.871s-.93,2.871-2.283,2.871-2.27-1.135-2.27-2.871S38.452-6.426,39.819-6.426ZM49.54-2.017a1.925,1.925,0,0,1-2.017,1.34,2.306,2.306,0,0,1-2.324-2.6v-.055h5.325v-.383c0-2.119-1.189-3.507-3.076-3.507-1.928,0-3.179,1.483-3.179,3.691,0,2.256,1.237,3.65,3.233,3.65a2.772,2.772,0,0,0,2.933-2.133ZM47.435-6.433a2.182,2.182,0,0,1,2.16,2.379H45.206A2.275,2.275,0,0,1,47.435-6.433ZM54.619.116c1.935,0,3.24-1.415,3.24-3.671s-1.306-3.671-3.24-3.671-3.24,1.408-3.24,3.671S52.685.116,54.619.116Zm0-.8C53.225-.684,52.3-1.75,52.3-3.555s.923-2.871,2.317-2.871,2.324,1.066,2.324,2.871S56.014-.684,54.619-.684Zm7.82-7.9a.6.6,0,0,0,.608-.6.6.6,0,0,0-.608-.6.6.6,0,0,0-.6.6A.6.6,0,0,0,62.439-8.586ZM61.988,0h.9V-7.109h-.9Zm2.379-5.209c0,.984.636,1.579,1.989,1.894l1.066.253c.957.232,1.306.574,1.306,1.189,0,.745-.7,1.244-1.771,1.244a1.692,1.692,0,0,1-1.894-1.408h-.9c.123,1.3,1.189,2.153,2.8,2.153,1.552,0,2.68-.854,2.68-2.058,0-1-.533-1.552-1.955-1.894l-1.073-.253c-.943-.226-1.347-.588-1.347-1.169,0-.711.663-1.224,1.634-1.224A1.6,1.6,0,0,1,68.64-5.052h.868A2.366,2.366,0,0,0,66.9-7.226C65.413-7.226,64.367-6.385,64.367-5.209ZM73.712,0h.9V-4.211a2.024,2.024,0,0,1,2.058-2.208,1.743,1.743,0,0,1,1.873,1.955V0h.9V-4.607a2.38,2.38,0,0,0-2.516-2.618A2.4,2.4,0,0,0,74.587-5.8h-.021V-7.109h-.854ZM83.856.116c1.935,0,3.24-1.415,3.24-3.671s-1.306-3.671-3.24-3.671-3.24,1.408-3.24,3.671S81.922.116,83.856.116Zm0-.8c-1.395,0-2.317-1.066-2.317-2.871s.923-2.871,2.317-2.871,2.324,1.066,2.324,2.871S85.251-.684,83.856-.684Zm4.833-8.2v1.777H87.63v.752h1.06V-1.75c0,1.285.479,1.791,1.668,1.791A5.647,5.647,0,0,0,91.027,0V-.772c-.055.014-.4.027-.492.027-.656,0-.943-.314-.943-1.046V-6.357h1.4v-.752h-1.4V-8.887Zm8.559,9a2.648,2.648,0,0,0,2.427-1.47H99.7V0h.861V-4.867a2.334,2.334,0,0,0-2.639-2.358,2.484,2.484,0,0,0-2.769,2.174h.875A1.7,1.7,0,0,1,97.9-6.426a1.561,1.561,0,0,1,1.757,1.641v.615l-2.215.137c-1.641.109-2.55.848-2.55,2.064A2.121,2.121,0,0,0,97.248.116Zm.185-.779c-.964,0-1.627-.533-1.627-1.306s.622-1.271,1.743-1.347l2.105-.144v.786A2.1,2.1,0,0,1,97.433-.663Zm10.22-6.446h-.943L104.542-.95h-.021l-2.16-6.159H101.4L104.05,0h.964ZM110.489.116a2.648,2.648,0,0,0,2.427-1.47h.021V0h.861V-4.867a2.334,2.334,0,0,0-2.639-2.358,2.484,2.484,0,0,0-2.769,2.174h.875a1.7,1.7,0,0,1,1.873-1.374A1.561,1.561,0,0,1,112.9-4.785v.615l-2.215.137c-1.641.109-2.55.848-2.55,2.064A2.121,2.121,0,0,0,110.489.116Zm.185-.779c-.964,0-1.627-.533-1.627-1.306s.622-1.271,1.743-1.347l2.105-.144v.786A2.1,2.1,0,0,1,110.674-.663Zm5.154-7.923a.6.6,0,0,0,.608-.6.6.6,0,0,0-.608-.6.6.6,0,0,0-.6.6A.6.6,0,0,0,115.828-8.586ZM115.377,0h.9V-7.109h-.9Zm2.584,0h.9V-9.864h-.9Zm4.628.116a2.648,2.648,0,0,0,2.427-1.47h.021V0h.861V-4.867a2.334,2.334,0,0,0-2.639-2.358,2.484,2.484,0,0,0-2.769,2.174h.875a1.7,1.7,0,0,1,1.873-1.374A1.561,1.561,0,0,1,125-4.785v.615l-2.215.137c-1.641.109-2.55.848-2.55,2.064A2.121,2.121,0,0,0,122.589.116Zm.185-.779c-.964,0-1.627-.533-1.627-1.306s.622-1.271,1.743-1.347L125-3.459v.786A2.1,2.1,0,0,1,122.773-.663Zm8.06.779c1.791,0,3.008-1.456,3.008-3.671s-1.217-3.671-3-3.671a2.567,2.567,0,0,0-2.434,1.6h-.021V-9.864h-.909V0h.868V-1.5h.021A2.6,2.6,0,0,0,130.833.116Zm-.171-6.542c1.367,0,2.249,1.135,2.249,2.871s-.882,2.871-2.249,2.871c-1.34,0-2.283-1.162-2.283-2.871S129.329-6.426,130.662-6.426ZM135.112,0h.9V-9.864h-.9Zm7.438-2.017a1.925,1.925,0,0,1-2.017,1.34,2.306,2.306,0,0,1-2.324-2.6v-.055h5.325v-.383c0-2.119-1.189-3.507-3.076-3.507-1.928,0-3.179,1.483-3.179,3.691,0,2.256,1.237,3.65,3.233,3.65a2.772,2.772,0,0,0,2.933-2.133Zm-2.105-4.416a2.182,2.182,0,0,1,2.16,2.379h-4.389A2.275,2.275,0,0,1,140.444-6.433Zm7.677-2.153a.6.6,0,0,0,.608-.6.6.6,0,0,0-.608-.6.6.6,0,0,0-.6.6A.6.6,0,0,0,148.121-8.586ZM147.67,0h.9V-7.109h-.9Zm2.522,0h.9V-4.211a2.024,2.024,0,0,1,2.058-2.208,1.743,1.743,0,0,1,1.873,1.955V0h.9V-4.607a2.38,2.38,0,0,0-2.516-2.618A2.4,2.4,0,0,0,151.067-5.8h-.021V-7.109h-.854Zm10.637,2.57c1.162,0,1.675-.465,2.3-2.14l2.8-7.54h-.957L162.8-.9h-.021l-2.16-6.207h-.971L162.313.048l-.185.533c-.314.889-.67,1.217-1.326,1.217a1.981,1.981,0,0,1-.424-.041v.772A2.827,2.827,0,0,0,160.829,2.57ZM169.559.116c1.935,0,3.24-1.415,3.24-3.671s-1.306-3.671-3.24-3.671-3.24,1.408-3.24,3.671S167.624.116,169.559.116Zm0-.8c-1.395,0-2.317-1.066-2.317-2.871s.923-2.871,2.317-2.871,2.324,1.066,2.324,2.871S170.953-.684,169.559-.684ZM179.7-7.109h-.9v4.218a2.017,2.017,0,0,1-2.071,2.2,1.727,1.727,0,0,1-1.859-1.955V-7.109h-.909v4.621a2.378,2.378,0,0,0,2.509,2.6,2.441,2.441,0,0,0,2.358-1.436h.021V0h.854ZM181.262,0h.9V-4.43a1.706,1.706,0,0,1,1.654-1.935,1.83,1.83,0,0,1,.677.1V-7.15a2.346,2.346,0,0,0-.561-.075,1.81,1.81,0,0,0-1.8,1.381h-.021V-7.109h-.854Zm12.852-4.86a2.8,2.8,0,0,0-2.926-2.365c-1.935,0-3.213,1.429-3.213,3.671,0,2.276,1.278,3.671,3.22,3.671A2.775,2.775,0,0,0,194.12-2.2h-.9A1.927,1.927,0,0,1,191.2-.684c-1.388,0-2.3-1.087-2.3-2.871,0-1.757.909-2.871,2.3-2.871a1.97,1.97,0,0,1,2.03,1.565Zm4.02,4.977c1.935,0,3.24-1.415,3.24-3.671s-1.306-3.671-3.24-3.671-3.24,1.408-3.24,3.671S196.2.116,198.133.116Zm0-.8c-1.395,0-2.317-1.066-2.317-2.871s.923-2.871,2.317-2.871,2.324,1.066,2.324,2.871S199.527-.684,198.133-.684Zm10.145-6.426h-.9v4.218A2.017,2.017,0,0,1,205.3-.69a1.727,1.727,0,0,1-1.859-1.955V-7.109h-.909v4.621a2.378,2.378,0,0,0,2.509,2.6A2.441,2.441,0,0,0,207.4-1.319h.021V0h.854ZM209.836,0h.9V-4.211A2.024,2.024,0,0,1,212.8-6.419a1.743,1.743,0,0,1,1.873,1.955V0h.9V-4.607a2.38,2.38,0,0,0-2.516-2.618A2.4,2.4,0,0,0,210.711-5.8h-.021V-7.109h-.854Zm7.649-8.887v1.777h-1.06v.752h1.06V-1.75c0,1.285.479,1.791,1.668,1.791a5.647,5.647,0,0,0,.67-.041V-.772c-.055.014-.4.027-.492.027-.656,0-.943-.314-.943-1.046V-6.357h1.4v-.752h-1.4V-8.887ZM221.074,0h.9V-4.43a1.706,1.706,0,0,1,1.654-1.935,1.83,1.83,0,0,1,.677.1V-7.15a2.346,2.346,0,0,0-.561-.075,1.81,1.81,0,0,0-1.8,1.381h-.021V-7.109h-.854Zm4.717,2.57c1.162,0,1.675-.465,2.3-2.14l2.8-7.54h-.957L227.767-.9h-.021l-2.16-6.207h-.971L227.274.048l-.185.533c-.314.889-.67,1.217-1.326,1.217a1.981,1.981,0,0,1-.424-.041v.772A2.827,2.827,0,0,0,225.791,2.57ZM231.547.062a.63.63,0,0,0,.636-.636.632.632,0,0,0-.636-.643.638.638,0,0,0-.643.643A.636.636,0,0,0,231.547.062Z" transform="translate(108.374 56.692)"/><rect class="c" width="81.933" height="81.839" transform="translate(0 0)"/><path class="d" d="M.393,0H.66V-2.123A1.149,1.149,0,0,1,1.818-3.37a1.021,1.021,0,0,1,1.094,1.1V0h.267V-2.3a1.22,1.22,0,0,0-1.3-1.306,1.242,1.242,0,0,0-1.23.827H.643v-.772H.393ZM5.7.055A1.616,1.616,0,0,0,7.285-1.777,1.616,1.616,0,0,0,5.7-3.609,1.613,1.613,0,0,0,4.117-1.777,1.613,1.613,0,0,0,5.7.055Zm0-.239c-.79,0-1.316-.6-1.316-1.593S4.91-3.37,5.7-3.37s1.319.6,1.319,1.593S6.489-.185,5.7-.185Zm6.854-3.37h-.28L11.364-.294h-.01l-.988-3.261h-.3L9.074-.294H9.067L8.155-3.555H7.878L8.91,0h.314l.984-3.213h.01L11.21,0h.308Z" transform="translate(382.942 25.297)"/><path class="e" d="M1122.956-777.626h29.4v29.4h-29.4Z" transform="translate(-1097.456 803.845)"/><g transform="translate(27.018 31.271)"><path class="b" d="M1141.621-744.709l-5.723-.1a29.868,29.868,0,0,1-5.528-.341c-2.764-.565-2.959-3.333-3.165-5.655a39.677,39.677,0,0,1,.36-9.826,3.359,3.359,0,0,1,3.314-3.018,183.236,183.236,0,0,1,18.563-.178,13.4,13.4,0,0,1,1.949.233c3.169.555,3.247,3.693,3.452,6.333a35.908,35.908,0,0,1-.273,8c-.314,2.194-.915,4.034-3.452,4.211-3.178.233-6.283.42-9.471.36C1141.649-744.709,1141.631-744.709,1141.621-744.709Zm-3.364-5.555c2.395-1.375,4.744-2.727,7.125-4.093-2.4-1.375-4.745-2.727-7.125-4.093Z" transform="translate(-1127.055 763.981)"/></g><g transform="translate(48.929 34.602)"><g class="f" transform="translate(1627.199 797.713)"><path class="j" d="M -1610.2548828125 -780.3384399414062 L -1625.878173828125 -780.3384399414062 C -1626.734497070312 -780.3384399414062 -1627.490600585938 -780.7596435546875 -1627.900756835938 -781.4652099609375 C -1628.309692382812 -782.1688232421875 -1628.300170898438 -783.03515625 -1627.875122070312 -783.7825927734375 L -1620.056518554688 -797.5119018554688 C -1619.62841796875 -798.263916015625 -1618.884399414062 -798.7129516601562 -1618.06640625 -798.7129516601562 C -1617.249755859375 -798.7129516601562 -1616.505859375 -798.2637939453125 -1616.076538085938 -797.5114135742188 L -1608.258178710938 -783.7806396484375 C -1607.83349609375 -783.0337524414062 -1607.82373046875 -782.16845703125 -1608.23193359375 -781.465576171875 C -1608.642700195312 -780.759521484375 -1609.398803710938 -780.3384399414062 -1610.2548828125 -780.3384399414062 Z M -1618.1181640625 -792.3191528320312 C -1618.164184570312 -792.3191528320312 -1618.20166015625 -792.28173828125 -1618.20166015625 -792.2357788085938 L -1618.20166015625 -788.3350219726562 C -1618.20166015625 -788.2888793945312 -1618.164184570312 -788.2512817382812 -1618.1181640625 -788.2512817382812 C -1618.072021484375 -788.2512817382812 -1618.034423828125 -788.2888793945312 -1618.034423828125 -788.3350219726562 L -1618.034423828125 -792.2357788085938 C -1618.034423828125 -792.28173828125 -1618.072021484375 -792.3191528320312 -1618.1181640625 -792.3191528320312 Z"/><path class="k" d="M -1610.2548828125 -781.3384399414062 C -1609.7568359375 -781.3384399414062 -1609.323974609375 -781.5770874023438 -1609.0966796875 -781.9677124023438 C -1608.86962890625 -782.3587036132812 -1608.881103515625 -782.8530883789062 -1609.127197265625 -783.2858276367188 L -1616.945068359375 -797.0158081054688 C -1617.193603515625 -797.4513549804688 -1617.612548828125 -797.7129516601562 -1618.06640625 -797.7129516601562 C -1618.5205078125 -797.7129516601562 -1618.939453125 -797.4528198242188 -1619.1875 -797.0170288085938 L -1627.005859375 -783.2882690429688 C -1627.251953125 -782.8555297851562 -1627.263427734375 -782.3587036132812 -1627.0361328125 -781.9677124023438 C -1626.80908203125 -781.5770874023438 -1626.3759765625 -781.3384399414062 -1625.878173828125 -781.3384399414062 L -1610.2548828125 -781.3384399414062 M -1618.06640625 -786.0270385742188 C -1617.468017578125 -786.0270385742188 -1616.98291015625 -785.5418090820312 -1616.98291015625 -784.9432983398438 C -1616.98291015625 -784.3450317382812 -1617.468017578125 -783.8599243164062 -1618.06640625 -783.8599243164062 C -1618.6650390625 -783.8599243164062 -1619.14990234375 -784.3450317382812 -1619.14990234375 -784.9432983398438 C -1619.14990234375 -785.5418090820312 -1618.6650390625 -786.0270385742188 -1618.06640625 -786.0270385742188 M -1618.1181640625 -793.3191528320312 C -1617.51953125 -793.3191528320312 -1617.034423828125 -792.8340454101562 -1617.034423828125 -792.2357788085938 L -1617.034423828125 -788.3350219726562 C -1617.034423828125 -787.7366333007812 -1617.51953125 -787.2512817382812 -1618.1181640625 -787.2512817382812 C -1618.71630859375 -787.2512817382812 -1619.20166015625 -787.7366333007812 -1619.20166015625 -788.3350219726562 L -1619.20166015625 -792.2357788085938 C -1619.20166015625 -792.8340454101562 -1618.71630859375 -793.3191528320312 -1618.1181640625 -793.3191528320312 M -1610.2548828125 -779.3384399414062 L -1625.878173828125 -779.3384399414062 C -1627.094848632812 -779.3384399414062 -1628.174072265625 -779.9456176757812 -1628.765258789062 -780.962646484375 C -1629.346435546875 -781.9623413085938 -1629.33837890625 -783.2323608398438 -1628.744384765625 -784.2769165039062 L -1620.925415039062 -798.0067749023438 C -1620.3173828125 -799.0750122070312 -1619.24853515625 -799.7129516601562 -1618.06640625 -799.7129516601562 C -1616.886108398438 -799.7129516601562 -1615.817504882812 -799.0752563476562 -1615.2080078125 -798.0070190429688 L -1607.38916015625 -784.2754516601562 C -1606.786254882812 -783.21533203125 -1606.778198242188 -781.9774780273438 -1607.3671875 -780.96337890625 C -1607.95947265625 -779.9453125 -1609.038696289062 -779.3384399414062 -1610.2548828125 -779.3384399414062 Z"/></g></g></g></g><g transform="translate(17.657 17)"><path class="d" d="M383.3,21.7h.2v.8h0a1.3,1.3,0,0,1,2.5.5v2.3h-.3V23a1,1,0,0,0-1.1-1.1,1.155,1.155,0,0,0-1.2,1.2v2.1h-.3V21.7Z"/><path class="d" d="M387.1,23.5a1.611,1.611,0,1,1,3.2,0,1.611,1.611,0,1,1-3.2,0Zm2.9,0c0-1-.5-1.6-1.3-1.6s-1.3.6-1.3,1.6.5,1.6,1.3,1.6C389.4,25.1,390,24.5,390,23.5Z"/><path class="d" d="M394.5,25.3h-.3l-1-3.2h0l-1,3.2h-.3l-1-3.6h.3L392,25h0l1-3.3h.3l1,3.3h0l.9-3.3h.3Z"/><path class="e" d="M25.5,26.2H54.9V55.6H25.5Z"/></g><g class="g" transform="translate(5.758 5)"><rect class="c" width="384.95" height="30.7" transform="translate(26.9 101.9)"/><path class="c" d="M26.9,109.923,412.2,106.3V269.087H26.9Z" transform="translate(0 -4.4)"/></g><g transform="translate(-806.313 -10408.056)"><path class="h" d="M1091.416,10571.764v52.112a20.409,20.409,0,0,1-20.409,20.409H989.379a20.409,20.409,0,0,1-20.409-20.409v-52.112a20.409,20.409,0,0,1,20.409-20.4h81.628A20.409,20.409,0,0,1,1091.416,10571.764Z" transform="translate(0)"/><g transform="translate(1009.843 10580.422)"><circle class="i" cx="5.076" cy="5.076" r="5.076" transform="translate(0 0)"/><circle class="i" cx="5.076" cy="5.076" r="5.076" transform="translate(26.565 0)"/></g><rect class="i" width="48.071" height="5.127" transform="translate(1005.485 10616.327) rotate(-17.562)"/></g></g></svg>