<svg xmlns="http://www.w3.org/2000/svg" xmlns:xlink="http://www.w3.org/1999/xlink" width="446.295" height="111.839" viewBox="0 0 446.295 111.839"><defs><style>.a{fill:#fff;}.b{fill:#333;}.c{fill:#77fffb;}.d{fill:#4d4d4d;}.e{filter:url(#a);}</style><filter id="a" x="0" y="0" width="446.295" height="111.839" filterUnits="userSpaceOnUse"><feOffset dy="3" input="SourceAlpha"/><feGaussianBlur stdDeviation="5" result="b"/><feFlood flood-opacity="0.349"/><feComposite operator="in" in2="b"/><feComposite in="SourceGraphic"/></filter></defs><g transform="translate(14.657 12)"><g class="e" transform="matrix(1, 0, 0, 1, -14.66, -12)"><rect class="a" width="416.295" height="81.839" transform="translate(15 12)"/></g><path class="b" d="M5.685-22.283V-27.44h5.33v-2.17H5.685v-3.514h5.838v-2.261H2.943v13.1Zm16.4-9.733H19.435v5.575a1.9,1.9,0,0,1-1.916,2.134c-1.171,0-1.816-.69-1.816-1.988v-5.72H13.052v6.274a3.332,3.332,0,0,0,3.5,3.641,2.892,2.892,0,0,0,2.914-1.934h.054v1.752h2.56Zm1.975,9.733h2.651v-13.1H24.061Zm4.689,0H31.4v-13.1H28.75Zm14.518,0c2.8,0,4.531-1.444,4.531-3.75A3.177,3.177,0,0,0,44.712-29.2v-.073a2.89,2.89,0,0,0,2.461-2.842c0-2.007-1.544-3.269-4-3.269h-5.7v13.1Zm-3.06-11.059H42.46c1.28,0,2.016.6,2.016,1.652,0,1.108-.835,1.752-2.3,1.752h-1.97Zm0,9.016v-3.8h2.3c1.616,0,2.5.654,2.5,1.879,0,1.253-.853,1.925-2.433,1.925Zm12,2.2a3.348,3.348,0,0,0,2.969-1.643h.054v1.489h2.56v-6.692c0-1.961-1.625-3.25-4.122-3.25-2.579,0-4.186,1.3-4.285,3.187h2.424a1.578,1.578,0,0,1,1.743-1.208c1,0,1.634.527,1.634,1.435v.645l-2.451.145c-2.424.145-3.786,1.171-3.786,2.942A3.01,3.01,0,0,0,52.207-22.129Zm.872-1.916c-.9,0-1.5-.454-1.5-1.18,0-.69.563-1.135,1.553-1.208l2.052-.127v.708A1.944,1.944,0,0,1,53.078-24.045Zm7.313-10.214v2.243H59.02v2h1.371v5.112c0,1.9.89,2.66,3.178,2.66a6.1,6.1,0,0,0,1.262-.109v-1.952a4.29,4.29,0,0,1-.645.045c-.781,0-1.144-.354-1.144-1.1v-4.658h1.8v-2h-1.8v-2.243Zm6.8,0v2.243H65.816v2h1.371v5.112c0,1.9.89,2.66,3.178,2.66a6.1,6.1,0,0,0,1.262-.109v-1.952a4.29,4.29,0,0,1-.645.045c-.781,0-1.144-.354-1.144-1.1v-4.658h1.8v-2h-1.8v-2.243Zm12.4,9a1.938,1.938,0,0,1-1.961,1.226,2.165,2.165,0,0,1-2.234-2.342v-.163H82.1v-.808c0-2.96-1.789-4.876-4.621-4.876-2.878,0-4.694,2.016-4.694,5.121s1.8,5.03,4.794,5.03c2.406,0,4.149-1.28,4.44-3.187Zm-2.079-5a2.02,2.02,0,0,1,2.043,2.1H75.418A2.107,2.107,0,0,1,77.506-30.264Zm6.142,7.981H86.3v-5.439a1.939,1.939,0,0,1,2.07-2.17,2.728,2.728,0,0,1,.962.154v-2.333a2.7,2.7,0,0,0-.754-.1,2.323,2.323,0,0,0-2.315,1.907h-.054v-1.752h-2.56Zm8.2,3.6c2.479,0,3.7-.9,4.531-3.4l3.35-9.942h-2.8l-2.061,7.609H94.82l-2.07-7.609H89.844l3.387,9.733c.009.045-.091.427-.091.472-.182.772-.663,1.08-1.625,1.08-.1,0-.581-.009-.672-.027v2.052C90.934-18.688,91.751-18.679,91.851-18.679Z" transform="translate(106.692 56.61)"/><path d="M7.044-19.809c2.423,0,3.877-1.192,3.877-3.146a2.821,2.821,0,0,0-2.693-2.852v-.056a2.592,2.592,0,0,0,2.1-2.582c0-1.692-1.335-2.828-3.3-2.828H2.9v11.464Zm-3.067-10.5H6.789c1.525,0,2.439.739,2.439,1.986,0,1.351-1.017,2.145-2.757,2.145H3.977Zm0,9.541v-4.473H6.75c1.978,0,3.059.8,3.059,2.232s-1.041,2.24-2.916,2.24Zm10.935,1.1a3.078,3.078,0,0,0,2.82-1.708h.024v1.573h1v-5.656c0-1.684-1.184-2.741-3.067-2.741s-3.1,1.049-3.218,2.526H13.49a1.974,1.974,0,0,1,2.177-1.6,1.814,1.814,0,0,1,2.042,1.907v.715l-2.574.159c-1.907.127-2.963.985-2.963,2.4A2.465,2.465,0,0,0,14.913-19.673Zm.215-.906c-1.12,0-1.891-.62-1.891-1.517,0-.914.723-1.478,2.026-1.565l2.447-.167v.914A2.442,2.442,0,0,1,15.127-20.579Zm6.01-9.557v2.066H19.905v.874h1.231v5.355c0,1.494.556,2.081,1.938,2.081a6.563,6.563,0,0,0,.779-.048v-.9c-.064.016-.461.032-.572.032-.763,0-1.1-.365-1.1-1.216V-27.2h1.629v-.874H22.186v-2.066Zm4.786,0v2.066H24.692v.874h1.231v5.355c0,1.494.556,2.081,1.938,2.081a6.563,6.563,0,0,0,.779-.048v-.9c-.064.016-.461.032-.572.032-.763,0-1.1-.365-1.1-1.216V-27.2H28.6v-.874H26.972v-2.066Zm9.76,7.984A2.237,2.237,0,0,1,33.339-20.6c-1.645,0-2.7-1.16-2.7-3.027v-.064h6.189v-.445c0-2.463-1.382-4.076-3.575-4.076-2.24,0-3.694,1.724-3.694,4.29,0,2.622,1.438,4.242,3.758,4.242a3.221,3.221,0,0,0,3.408-2.479Zm-2.447-5.132a2.536,2.536,0,0,1,2.51,2.765h-5.1A2.643,2.643,0,0,1,33.236-27.284Zm5.16,7.476h1.049v-5.148A1.982,1.982,0,0,1,41.367-27.2a2.127,2.127,0,0,1,.787.119v-1.033a2.726,2.726,0,0,0-.651-.087,2.1,2.1,0,0,0-2.089,1.6h-.024v-1.47H38.4Zm5.644,2.987c1.351,0,1.946-.54,2.669-2.487l3.249-8.763H48.847l-2.51,7.214h-.024L43.8-28.071H42.674l3.09,8.318-.215.62c-.365,1.033-.779,1.414-1.541,1.414a2.3,2.3,0,0,1-.493-.048v.9A3.285,3.285,0,0,0,44.04-16.821Zm10.685-2.987h1.049V-31.272H54.725Zm8.806-2.344A2.237,2.237,0,0,1,61.188-20.6c-1.645,0-2.7-1.16-2.7-3.027v-.064h6.189v-.445c0-2.463-1.382-4.076-3.575-4.076-2.24,0-3.694,1.724-3.694,4.29,0,2.622,1.438,4.242,3.758,4.242a3.221,3.221,0,0,0,3.408-2.479Zm-2.447-5.132A2.536,2.536,0,0,1,63.6-24.52h-5.1A2.643,2.643,0,0,1,61.085-27.284Zm11.643-.787h-1.1l-2.518,7.158h-.024l-2.51-7.158H65.466l3.075,8.262h1.12Zm6.741,5.919A2.237,2.237,0,0,1,77.124-20.6c-1.645,0-2.7-1.16-2.7-3.027v-.064h6.189v-.445c0-2.463-1.382-4.076-3.575-4.076-2.24,0-3.694,1.724-3.694,4.29,0,2.622,1.438,4.242,3.758,4.242a3.221,3.221,0,0,0,3.408-2.479Zm-2.447-5.132a2.536,2.536,0,0,1,2.51,2.765h-5.1A2.643,2.643,0,0,1,77.021-27.284Zm5.231,7.476H83.3V-31.272H82.252Zm7.182-9.978a.7.7,0,0,0,.707-.7.7.7,0,0,0-.707-.7.7.7,0,0,0-.7.7A.7.7,0,0,0,89.434-29.787Zm-.524,9.978h1.049v-8.262H88.91Zm2.927-6.054c0,1.144.739,1.835,2.312,2.2l1.239.294c1.112.27,1.517.667,1.517,1.382,0,.866-.818,1.446-2.058,1.446a1.966,1.966,0,0,1-2.2-1.637H91.6c.143,1.509,1.382,2.5,3.249,2.5,1.8,0,3.114-.993,3.114-2.391,0-1.168-.62-1.8-2.272-2.2l-1.247-.294c-1.1-.262-1.565-.683-1.565-1.359,0-.826.771-1.422,1.9-1.422A1.858,1.858,0,0,1,96.8-25.68h1.009a2.75,2.75,0,0,0-3.035-2.526C93.052-28.206,91.837-27.229,91.837-25.862Zm14.133,6.054h1.049V-31.272h-1.065c-.342.207-2.773,1.923-3.09,2.121v1.1c.334-.207,2.82-1.907,3.075-2.066h.032Zm8,.183c2.606,0,4.147-2.3,4.147-5.927,0-3.6-1.549-5.9-4.147-5.9s-4.155,2.312-4.155,5.911C109.811-21.922,111.36-19.626,113.966-19.626Zm0-.953c-1.938,0-3.059-1.931-3.059-4.973,0-2.987,1.144-4.941,3.059-4.941s3.059,1.938,3.059,4.949C117.025-22.51,115.9-20.579,113.966-20.579Zm9.871.953c2.606,0,4.147-2.3,4.147-5.927,0-3.6-1.549-5.9-4.147-5.9s-4.155,2.312-4.155,5.911C119.682-21.922,121.231-19.626,123.837-19.626Zm0-.953c-1.938,0-3.059-1.931-3.059-4.973,0-2.987,1.144-4.941,3.059-4.941s3.059,1.938,3.059,4.949C126.9-22.51,125.775-20.579,123.837-20.579Zm7.631-5.442c1.366,0,2.256-1.065,2.256-2.677,0-1.629-.89-2.693-2.256-2.693S129.2-30.327,129.2-28.7C129.2-27.086,130.1-26.021,131.467-26.021Zm.056,6.213L139.3-31.272h-.985L130.53-19.809Zm-.056-6.943c-.89,0-1.462-.771-1.462-1.946s.58-1.946,1.462-1.946,1.454.763,1.454,1.946S132.349-26.752,131.467-26.752Zm6.9,7.055c1.366,0,2.256-1.065,2.256-2.685s-.89-2.685-2.256-2.685-2.264,1.065-2.264,2.685S137-19.7,138.371-19.7Zm0-.739c-.89,0-1.462-.771-1.462-1.946s.58-1.946,1.462-1.946,1.454.771,1.454,1.946S139.253-20.436,138.371-20.436Z" transform="translate(106.721 79.051)"/><rect class="c" width="81.933" height="81.839" transform="translate(0 0)"/><path class="d" d="M.393,0H.66V-2.123A1.149,1.149,0,0,1,1.818-3.37a1.021,1.021,0,0,1,1.094,1.1V0h.267V-2.3a1.22,1.22,0,0,0-1.3-1.306,1.242,1.242,0,0,0-1.23.827H.643v-.772H.393ZM5.7.055A1.616,1.616,0,0,0,7.285-1.777,1.616,1.616,0,0,0,5.7-3.609,1.613,1.613,0,0,0,4.117-1.777,1.613,1.613,0,0,0,5.7.055Zm0-.239c-.79,0-1.316-.6-1.316-1.593S4.91-3.37,5.7-3.37s1.319.6,1.319,1.593S6.489-.185,5.7-.185Zm6.854-3.37h-.28L11.364-.294h-.01l-.988-3.261h-.3L9.074-.294H9.067L8.155-3.555H7.878L8.91,0h.314l.984-3.213h.01L11.21,0h.308Z" transform="translate(382.942 25.297)"/><path class="b" d="M-1596.257-2080.141h-2.6v-1.558a1.562,1.562,0,0,0-1.557-1.558h-3.116a1.562,1.562,0,0,0-1.558,1.558v1.558h-2.6a2.081,2.081,0,0,0-2.072,2.072v23.883a2.088,2.088,0,0,0,2.088,2.087h11.4a2.084,2.084,0,0,0,2.088-2.072v-23.9A2.081,2.081,0,0,0-1596.257-2080.141Zm-1.651,14.4-4.16,7.79a.781.781,0,0,1-1.464-.374v-5.453h-1.823a.779.779,0,0,1-.686-1.153l4.16-7.79a.781.781,0,0,1,1.465.374v5.453h1.823A.784.784,0,0,1-1597.908-2065.746Z" transform="translate(1642.941 2108.597)"/></g></svg>