<svg xmlns="http://www.w3.org/2000/svg" xmlns:xlink="http://www.w3.org/1999/xlink" width="446.295" height="111.839" viewBox="0 0 446.295 111.839"><defs><style>.a{fill:#fff;}.b,.f{fill:#333;}.c,.h{fill:#77fffb;}.d{fill:#4d4d4d;}.e{fill:none;}.g,.h{stroke:none;}.i{filter:url(#a);}</style><filter id="a" x="0" y="0" width="446.295" height="111.839" filterUnits="userSpaceOnUse"><feOffset dy="3" input="SourceAlpha"/><feGaussianBlur stdDeviation="5" result="b"/><feFlood flood-opacity="0.349"/><feComposite operator="in" in2="b"/><feComposite in="SourceGraphic"/></filter></defs><g transform="translate(14.657 12)"><g transform="translate(0 0)"><g class="i" transform="matrix(1, 0, 0, 1, -14.66, -12)"><rect class="a" width="416.295" height="81.839" transform="translate(15 12)"/></g><path class="b" d="M5.567-22.283v-8.58h.082l6.129,8.58h2.27v-13.1H11.423v8.535H11.35l-6.12-8.535H2.943v13.1Zm15.085.209c2.942,0,4.821-1.879,4.821-5.085,0-3.16-1.907-5.066-4.821-5.066s-4.821,1.916-4.821,5.066C15.831-23.963,17.71-22.074,20.652-22.074Zm0-2.025c-1.307,0-2.134-1.1-2.134-3.051,0-1.934.844-3.051,2.134-3.051s2.125,1.117,2.125,3.051C22.776-25.2,21.95-24.1,20.652-24.1Zm7.077-10.16v2.243H26.358v2h1.371v5.112c0,1.9.89,2.66,3.178,2.66a6.1,6.1,0,0,0,1.262-.109v-1.952a4.291,4.291,0,0,1-.645.045c-.781,0-1.144-.354-1.144-1.1v-4.658h1.8v-2h-1.8v-2.243Zm16.4,9a1.938,1.938,0,0,1-1.961,1.226,2.165,2.165,0,0,1-2.234-2.343v-.163h6.71v-.808c0-2.96-1.789-4.876-4.621-4.876-2.878,0-4.694,2.016-4.694,5.121s1.8,5.03,4.794,5.03c2.406,0,4.149-1.28,4.44-3.187Zm-2.079-5a2.02,2.02,0,0,1,2.043,2.1H39.959A2.107,2.107,0,0,1,42.047-30.264Zm6.142,7.981H50.84v-5.584A1.928,1.928,0,0,1,52.783-30c1.189,0,1.789.726,1.789,2v5.72h2.651v-6.274c0-2.279-1.217-3.641-3.378-3.641A3.075,3.075,0,0,0,50.8-30.282h-.054v-1.734h-2.56Zm15.367.209c2.942,0,4.821-1.879,4.821-5.085,0-3.16-1.907-5.066-4.821-5.066s-4.821,1.916-4.821,5.066C58.735-23.963,60.614-22.074,63.556-22.074Zm0-2.025c-1.307,0-2.134-1.1-2.134-3.051,0-1.934.844-3.051,2.134-3.051s2.125,1.117,2.125,3.051C65.68-25.2,64.854-24.1,63.556-24.1Zm15.358-7.917H76.262v5.575a1.9,1.9,0,0,1-1.916,2.134c-1.171,0-1.816-.69-1.816-1.988v-5.72H69.879v6.274a3.332,3.332,0,0,0,3.5,3.641A2.892,2.892,0,0,0,76.3-24.035h.054v1.752h2.56Zm6.36,13.4c2.915,0,4.857-1.489,4.857-3.8v-9.6H87.516v1.7h-.045a3.193,3.193,0,0,0-3.005-1.852c-2.47,0-3.995,1.9-3.995,4.985,0,3.042,1.571,4.876,3.95,4.876a3.176,3.176,0,0,0,3.005-1.743h.054v1.707c0,1.126-.763,1.879-2.134,1.879a1.929,1.929,0,0,1-1.979-1.126h-2.6C80.979-19.859,82.713-18.615,85.273-18.615Zm.045-5.738c-1.317,0-2.134-1.035-2.134-2.815s.826-2.878,2.134-2.878c1.326,0,2.17,1.126,2.17,2.878S86.644-24.353,85.319-24.353Zm6.787,2.07h2.651V-27.84A1.942,1.942,0,0,1,96.745-30c1.208,0,1.825.763,1.825,2.016v5.7h2.651v-6.265c0-2.252-1.235-3.65-3.4-3.65a3.091,3.091,0,0,0-3.06,1.916h-.054v-5.1H92.106Zm14.69-6.873c0,1.462.953,2.406,2.833,2.806l1.662.345c.953.218,1.289.508,1.289,1.026,0,.636-.617,1.044-1.616,1.044a1.608,1.608,0,0,1-1.825-1.307h-2.588c.173,1.916,1.725,3.169,4.413,3.169,2.506,0,4.258-1.262,4.258-3.178,0-1.425-.835-2.224-2.869-2.651l-1.662-.354c-.981-.209-1.344-.545-1.344-1.044,0-.645.608-1.062,1.525-1.062a1.485,1.485,0,0,1,1.652,1.326h2.442c-.054-1.907-1.6-3.187-4.095-3.187C108.394-32.225,106.8-31.008,106.8-29.156Zm10.627-5.1v2.243h-1.371v2h1.371v5.112c0,1.9.89,2.66,3.178,2.66a6.1,6.1,0,0,0,1.262-.109v-1.952a4.29,4.29,0,0,1-.645.045c-.781,0-1.144-.354-1.144-1.1v-4.658h1.8v-2h-1.8v-2.243Zm10.418,12.185c2.942,0,4.821-1.879,4.821-5.085,0-3.16-1.907-5.066-4.821-5.066s-4.821,1.916-4.821,5.066C123.02-23.963,124.9-22.074,127.842-22.074Zm0-2.025c-1.307,0-2.134-1.1-2.134-3.051,0-1.934.844-3.051,2.134-3.051s2.125,1.117,2.125,3.051C129.966-25.2,129.14-24.1,127.842-24.1Zm6.369,1.816h2.651v-5.439a1.939,1.939,0,0,1,2.07-2.17,2.728,2.728,0,0,1,.962.154v-2.333a2.7,2.7,0,0,0-.754-.1,2.323,2.323,0,0,0-2.315,1.907h-.054v-1.752h-2.56Zm9.61.154a3.348,3.348,0,0,0,2.969-1.643h.054v1.489h2.56v-6.692c0-1.961-1.625-3.25-4.122-3.25-2.579,0-4.186,1.3-4.285,3.187h2.424a1.578,1.578,0,0,1,1.743-1.208c1,0,1.634.527,1.634,1.435v.645l-2.451.145c-2.424.145-3.786,1.171-3.786,2.942A3.01,3.01,0,0,0,143.821-22.129Zm.872-1.916c-.9,0-1.5-.454-1.5-1.18,0-.69.563-1.135,1.553-1.208l2.052-.127v.708A1.944,1.944,0,0,1,144.693-24.044Zm11.054,5.43c2.915,0,4.858-1.489,4.858-3.8v-9.6h-2.615v1.7h-.045a3.193,3.193,0,0,0-3.005-1.852c-2.47,0-3.995,1.9-3.995,4.985,0,3.042,1.571,4.876,3.95,4.876a3.176,3.176,0,0,0,3.005-1.743h.054v1.707c0,1.126-.763,1.879-2.134,1.879a1.929,1.929,0,0,1-1.979-1.126h-2.6C151.452-19.859,153.186-18.615,155.747-18.615Zm.045-5.738c-1.317,0-2.134-1.035-2.134-2.815s.826-2.878,2.134-2.878c1.326,0,2.17,1.126,2.17,2.878S157.118-24.353,155.792-24.353Zm13.17-.908A1.938,1.938,0,0,1,167-24.035a2.165,2.165,0,0,1-2.234-2.343v-.163h6.71v-.808c0-2.96-1.789-4.876-4.621-4.876-2.878,0-4.694,2.016-4.694,5.121s1.8,5.03,4.794,5.03c2.406,0,4.149-1.28,4.44-3.187Zm-2.079-5a2.02,2.02,0,0,1,2.043,2.1h-4.131A2.107,2.107,0,0,1,166.882-30.264Z" transform="translate(106.521 56.611)"/><path d="M5.711-19.5v-4.957l4.107-6.507H8.579L5.186-25.52h-.04L1.754-30.962H.515l4.107,6.507V-19.5Zm7.162.135c2.248,0,3.766-1.645,3.766-4.266S15.121-27.9,12.872-27.9s-3.766,1.637-3.766,4.266S10.624-19.363,12.872-19.363Zm0-.93c-1.621,0-2.693-1.239-2.693-3.337s1.073-3.337,2.693-3.337,2.7,1.239,2.7,3.337S14.493-20.292,12.872-20.292ZM24.825-27.76H23.776v4.9A2.344,2.344,0,0,1,21.369-20.3a2.007,2.007,0,0,1-2.161-2.272V-27.76H18.151v5.371a2.763,2.763,0,0,0,2.916,3.027,2.837,2.837,0,0,0,2.741-1.668h.024V-19.5h.993ZM30.29-19.5h1.049v-5.148a1.982,1.982,0,0,1,1.923-2.248,2.127,2.127,0,0,1,.787.119v-1.033A2.726,2.726,0,0,0,33.4-27.9a2.1,2.1,0,0,0-2.089,1.6h-.024v-1.47H30.29Zm10.292-2.344a2.237,2.237,0,0,1-2.344,1.557c-1.645,0-2.7-1.16-2.7-3.027v-.064h6.189v-.445c0-2.463-1.382-4.076-3.575-4.076-2.24,0-3.694,1.724-3.694,4.29,0,2.622,1.438,4.242,3.758,4.242a3.221,3.221,0,0,0,3.408-2.479Zm-2.447-5.132a2.536,2.536,0,0,1,2.51,2.765h-5.1A2.643,2.643,0,0,1,38.135-26.973Zm7.607,7.611a3.078,3.078,0,0,0,2.82-1.708h.024V-19.5h1v-5.657c0-1.684-1.184-2.741-3.067-2.741s-3.1,1.049-3.218,2.526H44.32a1.974,1.974,0,0,1,2.177-1.6,1.814,1.814,0,0,1,2.042,1.907v.715l-2.574.159c-1.907.127-2.963.985-2.963,2.4A2.465,2.465,0,0,0,45.742-19.363Zm.215-.906c-1.12,0-1.891-.62-1.891-1.517,0-.914.723-1.478,2.026-1.565l2.447-.167v.914A2.442,2.442,0,0,1,45.957-20.268Zm12.278-4.878a3.251,3.251,0,0,0-3.4-2.749c-2.248,0-3.734,1.66-3.734,4.266,0,2.646,1.486,4.266,3.742,4.266a3.225,3.225,0,0,0,3.4-2.693H57.2a2.24,2.24,0,0,1-2.352,1.764c-1.613,0-2.677-1.263-2.677-3.337,0-2.042,1.057-3.337,2.669-3.337a2.289,2.289,0,0,1,2.36,1.819ZM59.788-19.5h1.057V-24.36a2.378,2.378,0,0,1,2.447-2.6,2.061,2.061,0,0,1,2.2,2.3V-19.5h1.057v-5.339A2.814,2.814,0,0,0,63.593-27.9a2.785,2.785,0,0,0-2.725,1.66h-.024v-4.727H59.788Zm14.4-2.344a2.237,2.237,0,0,1-2.344,1.557c-1.645,0-2.7-1.16-2.7-3.027v-.064h6.189v-.445c0-2.463-1.382-4.076-3.575-4.076-2.24,0-3.694,1.724-3.694,4.29,0,2.622,1.438,4.242,3.758,4.242a3.221,3.221,0,0,0,3.408-2.479ZM71.74-26.973a2.536,2.536,0,0,1,2.51,2.765h-5.1A2.643,2.643,0,0,1,71.74-26.973Zm8.282,7.611a3.043,3.043,0,0,0,2.86-1.883h.024V-19.5h1V-30.962H82.85v4.9h-.024A2.986,2.986,0,0,0,80-27.9c-2.074,0-3.511,1.692-3.511,4.266S77.933-19.363,80.022-19.363Zm.183-7.6c1.573,0,2.653,1.343,2.653,3.337s-1.08,3.337-2.653,3.337c-1.589,0-2.638-1.319-2.638-3.337S78.616-26.966,80.2-26.966ZM90.04-16.511c1.351,0,1.946-.54,2.669-2.487l3.249-8.763H94.846l-2.51,7.214h-.024L89.8-27.76H88.673l3.09,8.318-.215.62c-.365,1.033-.779,1.414-1.541,1.414a2.3,2.3,0,0,1-.493-.048v.9A3.285,3.285,0,0,0,90.04-16.511Zm10.308-2.852c2.248,0,3.766-1.645,3.766-4.266S102.6-27.9,100.348-27.9s-3.766,1.637-3.766,4.266S98.1-19.363,100.348-19.363Zm0-.93c-1.621,0-2.693-1.239-2.693-3.337s1.073-3.337,2.693-3.337,2.7,1.239,2.7,3.337S101.968-20.292,100.348-20.292ZM112.3-27.76h-1.049v4.9a2.344,2.344,0,0,1-2.407,2.558,2.007,2.007,0,0,1-2.161-2.272V-27.76h-1.057v5.371a2.763,2.763,0,0,0,2.916,3.027,2.837,2.837,0,0,0,2.741-1.668h.024V-19.5h.993Zm1.974,8.262h1.049v-5.148a1.982,1.982,0,0,1,1.923-2.248,2.127,2.127,0,0,1,.787.119v-1.033a2.726,2.726,0,0,0-.651-.087,2.1,2.1,0,0,0-2.089,1.6h-.024v-1.47h-.993Zm8.373-6.054c0,1.144.739,1.835,2.312,2.2l1.239.294c1.112.27,1.517.667,1.517,1.382,0,.866-.818,1.446-2.058,1.446a1.966,1.966,0,0,1-2.2-1.637h-1.049c.143,1.509,1.382,2.5,3.249,2.5,1.8,0,3.114-.993,3.114-2.391,0-1.168-.62-1.8-2.272-2.2l-1.247-.294c-1.1-.262-1.565-.683-1.565-1.359,0-.826.771-1.422,1.9-1.422a1.858,1.858,0,0,1,2.026,1.66h1.009a2.75,2.75,0,0,0-3.035-2.526C123.863-27.9,122.647-26.918,122.647-25.551Zm8.147-4.274v2.066h-1.231v.874h1.231v5.355c0,1.494.556,2.081,1.938,2.081a6.562,6.562,0,0,0,.779-.048v-.9c-.064.016-.461.032-.572.032-.763,0-1.1-.365-1.1-1.216v-5.307h1.629v-.874h-1.629v-2.066Zm7.4,10.463c2.248,0,3.766-1.645,3.766-4.266s-1.517-4.266-3.766-4.266-3.766,1.637-3.766,4.266S135.946-19.363,138.194-19.363Zm0-.93c-1.621,0-2.693-1.239-2.693-3.337s1.073-3.337,2.693-3.337,2.7,1.239,2.7,3.337S139.815-20.292,138.194-20.292Zm5.327.794h1.049v-5.148a1.982,1.982,0,0,1,1.923-2.248,2.127,2.127,0,0,1,.787.119v-1.033a2.726,2.726,0,0,0-.651-.087,2.1,2.1,0,0,0-2.089,1.6h-.024v-1.47h-.993Zm7.241.135a3.078,3.078,0,0,0,2.82-1.708h.024V-19.5h1v-5.657c0-1.684-1.184-2.741-3.067-2.741s-3.1,1.049-3.218,2.526h1.017a1.974,1.974,0,0,1,2.177-1.6,1.814,1.814,0,0,1,2.042,1.907v.715l-2.574.159c-1.907.127-2.963.985-2.963,2.4A2.465,2.465,0,0,0,150.762-19.363Zm.214-.906c-1.12,0-1.891-.62-1.891-1.517,0-.914.723-1.478,2.026-1.565l2.447-.167v.914A2.442,2.442,0,0,1,150.977-20.268Zm8.926,3.829c2.209,0,3.615-1.271,3.615-3.194V-27.76h-1v1.748h-.024a3.052,3.052,0,0,0-2.86-1.883c-2.113,0-3.511,1.676-3.511,4.242s1.4,4.234,3.488,4.234a3.022,3.022,0,0,0,2.828-1.835h.024v1.66a2.235,2.235,0,0,1-2.51,2.248,2.325,2.325,0,0,1-2.352-1.39H156.51C156.74-17.432,158.1-16.439,159.9-16.439Zm-.1-3.909c-1.557,0-2.6-1.3-2.6-3.3,0-2.01,1.041-3.321,2.6-3.321,1.589,0,2.661,1.335,2.661,3.313S161.388-20.348,159.8-20.348Zm11.4-1.494a2.237,2.237,0,0,1-2.344,1.557c-1.645,0-2.7-1.16-2.7-3.027v-.064h6.189v-.445c0-2.463-1.382-4.076-3.575-4.076-2.24,0-3.694,1.724-3.694,4.29,0,2.622,1.438,4.242,3.758,4.242a3.221,3.221,0,0,0,3.408-2.479Zm-2.447-5.132a2.536,2.536,0,0,1,2.51,2.765h-5.1A2.643,2.643,0,0,1,168.756-26.973Zm8.723,7.476h1.049V-30.962h-1.049Zm3.69-9.978a.7.7,0,0,0,.707-.7.7.7,0,0,0-.707-.7.7.7,0,0,0-.7.7A.7.7,0,0,0,181.169-29.476Zm-.524,9.978h1.049V-27.76h-1.049Zm3.094,0h1.049v-5.077a2.16,2.16,0,0,1,2.089-2.383A1.815,1.815,0,0,1,188.768-25V-19.5h1.057v-5.2a2.074,2.074,0,0,1,2.066-2.256,1.826,1.826,0,0,1,1.915,2.05v5.41h1.049v-5.649a2.545,2.545,0,0,0-2.669-2.749,2.72,2.72,0,0,0-2.606,1.74h-.024a2.384,2.384,0,0,0-2.391-1.74,2.471,2.471,0,0,0-2.407,1.66h-.024V-27.76h-.993Zm13.637-9.978a.7.7,0,0,0,.707-.7.7.7,0,0,0-.707-.7.7.7,0,0,0-.7.7A.7.7,0,0,0,197.375-29.476Zm-.524,9.978H197.9V-27.76h-1.049ZM200.4-29.826v2.066h-1.231v.874H200.4v5.355c0,1.494.556,2.081,1.938,2.081a6.562,6.562,0,0,0,.779-.048v-.9c-.064.016-.461.032-.572.032-.763,0-1.1-.365-1.1-1.216v-5.307h1.629v-.874h-1.629v-2.066Zm4.985-1.136.072,7.841h.961l.064-7.841Zm.548,11.535a.734.734,0,0,0,.747-.739.736.736,0,0,0-.747-.747.734.734,0,0,0-.739.747A.732.732,0,0,0,205.931-19.426Z" transform="translate(108.049 78.741)"/><rect class="c" width="81.933" height="81.839" transform="translate(0)"/><path class="d" d="M.393,0H.66V-2.123A1.149,1.149,0,0,1,1.818-3.37a1.021,1.021,0,0,1,1.094,1.1V0h.267V-2.3a1.22,1.22,0,0,0-1.3-1.306,1.242,1.242,0,0,0-1.23.827H.643v-.772H.393ZM5.7.055A1.616,1.616,0,0,0,7.285-1.777,1.616,1.616,0,0,0,5.7-3.609,1.613,1.613,0,0,0,4.117-1.777,1.613,1.613,0,0,0,5.7.055Zm0-.239c-.79,0-1.316-.6-1.316-1.593S4.91-3.37,5.7-3.37s1.319.6,1.319,1.593S6.489-.185,5.7-.185Zm6.854-3.37h-.28L11.364-.294h-.01l-.988-3.261h-.3L9.074-.294H9.067L8.155-3.555H7.878L8.91,0h.314l.984-3.213h.01L11.21,0h.308Z" transform="translate(382.942 25.297)"/><path class="e" d="M-1630.035-1571.825h29.4v29.4h-29.4Z" transform="translate(1655.535 1598.044)"/></g><path class="b" d="M-1599.835-1563.7h-18.736a2.643,2.643,0,0,0-2.648,2.675l-.013,18.722a2.663,2.663,0,0,0,2.661,2.675h18.736a2.682,2.682,0,0,0,2.674-2.675v-18.722A2.673,2.673,0,0,0-1599.835-1563.7Zm0,16.047h-4.186a1.392,1.392,0,0,0-1.31,1.07,4.02,4.02,0,0,1-3.865,2.942,4.019,4.019,0,0,1-3.865-2.942,1.392,1.392,0,0,0-1.311-1.07h-4.186v-12.036a1.341,1.341,0,0,1,1.338-1.337h16.047a1.341,1.341,0,0,1,1.337,1.337Z" transform="translate(1649.991 1592.926)"/><g transform="translate(46.646 37.558)"><g class="f" transform="translate(1627.199 797.713)"><path class="g" d="M -1610.2548828125 -780.3384399414062 L -1625.878173828125 -780.3384399414062 C -1626.734497070312 -780.3384399414062 -1627.490600585938 -780.7596435546875 -1627.900756835938 -781.4652099609375 C -1628.309692382812 -782.1688232421875 -1628.300170898438 -783.03515625 -1627.875122070312 -783.7825927734375 L -1620.056518554688 -797.5119018554688 C -1619.62841796875 -798.263916015625 -1618.884399414062 -798.7129516601562 -1618.06640625 -798.7129516601562 C -1617.249755859375 -798.7129516601562 -1616.505859375 -798.2637939453125 -1616.076538085938 -797.5114135742188 L -1608.258178710938 -783.7806396484375 C -1607.83349609375 -783.0337524414062 -1607.82373046875 -782.16845703125 -1608.23193359375 -781.465576171875 C -1608.642700195312 -780.759521484375 -1609.398803710938 -780.3384399414062 -1610.2548828125 -780.3384399414062 Z M -1618.1181640625 -792.3191528320312 C -1618.164184570312 -792.3191528320312 -1618.20166015625 -792.28173828125 -1618.20166015625 -792.2357788085938 L -1618.20166015625 -788.3350219726562 C -1618.20166015625 -788.2888793945312 -1618.164184570312 -788.2512817382812 -1618.1181640625 -788.2512817382812 C -1618.072021484375 -788.2512817382812 -1618.034423828125 -788.2888793945312 -1618.034423828125 -788.3350219726562 L -1618.034423828125 -792.2357788085938 C -1618.034423828125 -792.28173828125 -1618.072021484375 -792.3191528320312 -1618.1181640625 -792.3191528320312 Z"/><path class="h" d="M -1610.2548828125 -781.3384399414062 C -1609.7568359375 -781.3384399414062 -1609.323974609375 -781.5770874023438 -1609.0966796875 -781.9677124023438 C -1608.86962890625 -782.3587036132812 -1608.881103515625 -782.8530883789062 -1609.127197265625 -783.2858276367188 L -1616.945068359375 -797.0158081054688 C -1617.193603515625 -797.4513549804688 -1617.612548828125 -797.7129516601562 -1618.06640625 -797.7129516601562 C -1618.5205078125 -797.7129516601562 -1618.939453125 -797.4528198242188 -1619.1875 -797.0170288085938 L -1627.005859375 -783.2882690429688 C -1627.251953125 -782.8555297851562 -1627.263427734375 -782.3587036132812 -1627.0361328125 -781.9677124023438 C -1626.80908203125 -781.5770874023438 -1626.3759765625 -781.3384399414062 -1625.878173828125 -781.3384399414062 L -1610.2548828125 -781.3384399414062 M -1618.06640625 -786.0270385742188 C -1617.468017578125 -786.0270385742188 -1616.98291015625 -785.5418090820312 -1616.98291015625 -784.9432983398438 C -1616.98291015625 -784.3450317382812 -1617.468017578125 -783.8599243164062 -1618.06640625 -783.8599243164062 C -1618.6650390625 -783.8599243164062 -1619.14990234375 -784.3450317382812 -1619.14990234375 -784.9432983398438 C -1619.14990234375 -785.5418090820312 -1618.6650390625 -786.0270385742188 -1618.06640625 -786.0270385742188 M -1618.1181640625 -793.3191528320312 C -1617.51953125 -793.3191528320312 -1617.034423828125 -792.8340454101562 -1617.034423828125 -792.2357788085938 L -1617.034423828125 -788.3350219726562 C -1617.034423828125 -787.7366333007812 -1617.51953125 -787.2512817382812 -1618.1181640625 -787.2512817382812 C -1618.71630859375 -787.2512817382812 -1619.20166015625 -787.7366333007812 -1619.20166015625 -788.3350219726562 L -1619.20166015625 -792.2357788085938 C -1619.20166015625 -792.8340454101562 -1618.71630859375 -793.3191528320312 -1618.1181640625 -793.3191528320312 M -1610.2548828125 -779.3384399414062 L -1625.878173828125 -779.3384399414062 C -1627.094848632812 -779.3384399414062 -1628.174072265625 -779.9456176757812 -1628.765258789062 -780.962646484375 C -1629.346435546875 -781.9623413085938 -1629.33837890625 -783.2323608398438 -1628.744384765625 -784.2769165039062 L -1620.925415039062 -798.0067749023438 C -1620.3173828125 -799.0750122070312 -1619.24853515625 -799.7129516601562 -1618.06640625 -799.7129516601562 C -1616.886108398438 -799.7129516601562 -1615.817504882812 -799.0752563476562 -1615.2080078125 -798.0070190429688 L -1607.38916015625 -784.2754516601562 C -1606.786254882812 -783.21533203125 -1606.778198242188 -781.9774780273438 -1607.3671875 -780.96337890625 C -1607.95947265625 -779.9453125 -1609.038696289062 -779.3384399414062 -1610.2548828125 -779.3384399414062 Z"/></g></g></g></svg>