<svg xmlns="http://www.w3.org/2000/svg" xmlns:xlink="http://www.w3.org/1999/xlink" width="446.295" height="111.839" viewBox="0 0 446.295 111.839"><defs><style>.a{fill:#fff;}.b,.f{fill:#333;}.c,.h{fill:#77fffb;}.d{fill:#4d4d4d;}.e{fill:none;stroke:#333;stroke-miterlimit:10;stroke-width:3px;}.g,.h{stroke:none;}.i{filter:url(#a);}</style><filter id="a" x="0" y="0" width="446.295" height="111.839" filterUnits="userSpaceOnUse"><feOffset dy="3" input="SourceAlpha"/><feGaussianBlur stdDeviation="5" result="b"/><feFlood flood-opacity="0.349"/><feComposite operator="in" in2="b"/><feComposite in="SourceGraphic"/></filter></defs><g transform="translate(14.657 12)"><g transform="translate(0 0)"><g class="i" transform="matrix(1, 0, 0, 1, -14.66, -12)"><rect class="a" width="416.295" height="81.839" transform="translate(15 12)"/></g><path class="b" d="M11.414-24.553H5.685V-35.385H2.943v13.1h8.471Zm5.915,2.479c2.942,0,4.821-1.879,4.821-5.084,0-3.16-1.907-5.066-4.821-5.066s-4.821,1.916-4.821,5.066C12.508-23.963,14.387-22.074,17.329-22.074Zm0-2.025c-1.307,0-2.134-1.1-2.134-3.051,0-1.934.844-3.051,2.134-3.051s2.125,1.117,2.125,3.051C19.453-25.2,18.627-24.1,17.329-24.1Zm19.934-7.917H34.648L33.168-24.8h-.054l-1.734-7.218H28.837L27.112-24.8h-.054l-1.471-7.218H22.917L25.5-22.283h2.787l1.752-6.882H30.1l1.761,6.882h2.824Zm11.113,9.733c2.8,0,4.531-1.444,4.531-3.75A3.177,3.177,0,0,0,49.819-29.2v-.073a2.89,2.89,0,0,0,2.461-2.842c0-2.007-1.544-3.269-4-3.269h-5.7v13.1Zm-3.06-11.059h2.252c1.28,0,2.016.6,2.016,1.652,0,1.108-.835,1.752-2.3,1.752h-1.97Zm0,9.016v-3.8h2.3c1.616,0,2.5.654,2.5,1.879,0,1.253-.853,1.925-2.433,1.925Zm12,2.2a3.348,3.348,0,0,0,2.969-1.643h.054v1.489H62.9v-6.692c0-1.961-1.625-3.25-4.122-3.25-2.579,0-4.186,1.3-4.285,3.187h2.424a1.578,1.578,0,0,1,1.743-1.208c1,0,1.634.527,1.634,1.435v.645l-2.451.145c-2.424.145-3.786,1.171-3.786,2.942A3.01,3.01,0,0,0,57.314-22.129Zm.872-1.916c-.9,0-1.5-.454-1.5-1.18,0-.69.563-1.135,1.553-1.208l2.052-.127v.708A1.944,1.944,0,0,1,58.186-24.045ZM65.5-34.259v2.243H64.128v2H65.5v5.112c0,1.9.89,2.66,3.178,2.66a6.1,6.1,0,0,0,1.262-.109v-1.952a4.291,4.291,0,0,1-.645.045c-.781,0-1.144-.354-1.144-1.1v-4.658h1.8v-2h-1.8v-2.243Zm6.8,0v2.243H70.924v2h1.371v5.112c0,1.9.89,2.66,3.178,2.66a6.1,6.1,0,0,0,1.262-.109v-1.952a4.291,4.291,0,0,1-.645.045c-.781,0-1.144-.354-1.144-1.1v-4.658h1.8v-2h-1.8v-2.243Zm12.4,9a1.938,1.938,0,0,1-1.961,1.226A2.165,2.165,0,0,1,80.5-26.378v-.163h6.71v-.808c0-2.96-1.789-4.876-4.621-4.876-2.878,0-4.694,2.016-4.694,5.121s1.8,5.03,4.794,5.03c2.406,0,4.149-1.28,4.44-3.187Zm-2.079-5a2.02,2.02,0,0,1,2.043,2.1H80.525A2.107,2.107,0,0,1,82.613-30.264Zm6.142,7.981h2.651v-5.439a1.939,1.939,0,0,1,2.07-2.17,2.728,2.728,0,0,1,.962.154v-2.333a2.7,2.7,0,0,0-.754-.1,2.323,2.323,0,0,0-2.315,1.907h-.054v-1.752h-2.56Zm8.2,3.6c2.479,0,3.7-.9,4.531-3.4l3.35-9.942h-2.8l-2.061,7.609h-.054l-2.07-7.609H94.952l3.387,9.733c.009.045-.091.427-.091.472-.182.772-.663,1.08-1.625,1.08-.1,0-.581-.009-.672-.027v2.052C96.041-18.688,96.859-18.679,96.958-18.679Z" transform="translate(106.349 56.61)"/><path d="M7.044-19.7c2.423,0,3.877-1.192,3.877-3.146A2.821,2.821,0,0,0,8.227-25.7v-.056a2.592,2.592,0,0,0,2.1-2.582c0-1.692-1.335-2.828-3.3-2.828H2.9V-19.7ZM3.977-30.2H6.789c1.525,0,2.439.739,2.439,1.986,0,1.351-1.017,2.145-2.757,2.145H3.977Zm0,9.541v-4.473H6.75c1.978,0,3.059.8,3.059,2.232s-1.041,2.24-2.916,2.24Zm10.935,1.1a3.078,3.078,0,0,0,2.82-1.708h.024V-19.7h1v-5.656c0-1.684-1.184-2.741-3.067-2.741s-3.1,1.049-3.218,2.526H13.49a1.974,1.974,0,0,1,2.177-1.6,1.814,1.814,0,0,1,2.042,1.907v.715l-2.574.159c-1.907.127-2.963.985-2.963,2.4A2.465,2.465,0,0,0,14.913-19.565Zm.215-.906c-1.12,0-1.891-.62-1.891-1.517,0-.914.723-1.478,2.026-1.565l2.447-.167v.914A2.442,2.442,0,0,1,15.127-20.471Zm6.01-9.557v2.066H19.905v.874h1.231v5.355c0,1.494.556,2.081,1.938,2.081a6.563,6.563,0,0,0,.779-.048v-.9c-.064.016-.461.032-.572.032-.763,0-1.1-.365-1.1-1.216v-5.307h1.629v-.874H22.186v-2.066Zm4.786,0v2.066H24.692v.874h1.231v5.355c0,1.494.556,2.081,1.938,2.081a6.563,6.563,0,0,0,.779-.048v-.9c-.064.016-.461.032-.572.032-.763,0-1.1-.365-1.1-1.216v-5.307H28.6v-.874H26.972v-2.066Zm9.76,7.984a2.237,2.237,0,0,1-2.344,1.557c-1.645,0-2.7-1.16-2.7-3.027v-.064h6.189v-.445c0-2.463-1.382-4.076-3.575-4.076-2.24,0-3.694,1.724-3.694,4.29,0,2.622,1.438,4.242,3.758,4.242a3.221,3.221,0,0,0,3.408-2.479Zm-2.447-5.132a2.536,2.536,0,0,1,2.51,2.765h-5.1A2.643,2.643,0,0,1,33.236-27.176ZM38.4-19.7h1.049v-5.148A1.982,1.982,0,0,1,41.367-27.1a2.127,2.127,0,0,1,.787.119V-28.01A2.726,2.726,0,0,0,41.5-28.1a2.1,2.1,0,0,0-2.089,1.6h-.024v-1.47H38.4Zm5.644,2.987c1.351,0,1.946-.54,2.669-2.487l3.249-8.763H48.847l-2.51,7.214h-.024L43.8-27.963H42.674l3.09,8.318-.215.62c-.365,1.033-.779,1.414-1.541,1.414a2.3,2.3,0,0,1-.493-.048v.9A3.286,3.286,0,0,0,44.04-16.713ZM54.725-19.7h1.049V-31.164H54.725Zm8.806-2.344a2.237,2.237,0,0,1-2.344,1.557c-1.645,0-2.7-1.16-2.7-3.027v-.064h6.189v-.445c0-2.463-1.382-4.076-3.575-4.076-2.24,0-3.694,1.724-3.694,4.29,0,2.622,1.438,4.242,3.758,4.242a3.221,3.221,0,0,0,3.408-2.479Zm-2.447-5.132a2.536,2.536,0,0,1,2.51,2.765h-5.1A2.643,2.643,0,0,1,61.085-27.176Zm11.643-.787h-1.1L69.112-20.8h-.024l-2.51-7.158H65.466L68.541-19.7h1.12Zm6.741,5.919a2.237,2.237,0,0,1-2.344,1.557c-1.645,0-2.7-1.16-2.7-3.027v-.064h6.189v-.445c0-2.463-1.382-4.076-3.575-4.076-2.24,0-3.694,1.724-3.694,4.29,0,2.622,1.438,4.242,3.758,4.242a3.221,3.221,0,0,0,3.408-2.479Zm-2.447-5.132a2.536,2.536,0,0,1,2.51,2.765h-5.1A2.643,2.643,0,0,1,77.021-27.176ZM82.252-19.7H83.3V-31.164H82.252Zm7.182-9.978a.7.7,0,0,0,.707-.7.7.7,0,0,0-.707-.7.7.7,0,0,0-.7.7A.7.7,0,0,0,89.434-29.679ZM88.91-19.7h1.049v-8.262H88.91Zm2.927-6.054c0,1.144.739,1.835,2.312,2.2l1.239.294c1.112.27,1.517.667,1.517,1.382,0,.866-.818,1.446-2.058,1.446a1.966,1.966,0,0,1-2.2-1.637H91.6c.143,1.509,1.382,2.5,3.249,2.5,1.8,0,3.114-.993,3.114-2.391,0-1.168-.62-1.8-2.272-2.2l-1.247-.294c-1.1-.262-1.565-.683-1.565-1.359,0-.826.771-1.422,1.9-1.422a1.858,1.858,0,0,1,2.026,1.66h1.009A2.75,2.75,0,0,0,94.776-28.1C93.052-28.1,91.837-27.121,91.837-25.754ZM105.97-19.7h1.049V-31.164h-1.065c-.342.207-2.773,1.923-3.09,2.121v1.1c.334-.207,2.82-1.907,3.075-2.066h.032Zm5.779-6.213c1.366,0,2.256-1.065,2.256-2.677,0-1.629-.89-2.693-2.256-2.693s-2.264,1.065-2.264,2.693C109.485-26.978,110.383-25.913,111.749-25.913Zm.056,6.213,7.778-11.464H118.6L110.812-19.7Zm-.056-6.944c-.89,0-1.462-.771-1.462-1.946s.58-1.946,1.462-1.946,1.454.763,1.454,1.946S112.631-26.644,111.749-26.644Zm6.9,7.055c1.366,0,2.256-1.065,2.256-2.685s-.89-2.685-2.256-2.685-2.264,1.065-2.264,2.685S117.287-19.589,118.653-19.589Zm0-.739c-.89,0-1.462-.771-1.462-1.946s.58-1.946,1.462-1.946,1.454.771,1.454,1.946S119.535-20.328,118.653-20.328Zm10.518.763c2.248,0,3.766-1.645,3.766-4.266S131.42-28.1,129.171-28.1s-3.766,1.637-3.766,4.266S126.923-19.565,129.171-19.565Zm0-.93c-1.621,0-2.693-1.239-2.693-3.337s1.072-3.337,2.693-3.337,2.7,1.239,2.7,3.337S130.792-20.495,129.171-20.495Zm5.327.794h1.049v-5.148a1.982,1.982,0,0,1,1.923-2.248,2.127,2.127,0,0,1,.787.119V-28.01a2.726,2.726,0,0,0-.651-.087,2.1,2.1,0,0,0-2.089,1.6h-.024v-1.47H134.5Zm8.612,0h1.049V-31.164H143.11Zm8.806-2.344a2.237,2.237,0,0,1-2.344,1.557c-1.645,0-2.7-1.16-2.7-3.027v-.064h6.189v-.445c0-2.463-1.382-4.076-3.575-4.076-2.24,0-3.694,1.724-3.694,4.29,0,2.622,1.438,4.242,3.758,4.242a3.221,3.221,0,0,0,3.408-2.479Zm-2.447-5.132a2.536,2.536,0,0,1,2.51,2.765h-5.1A2.643,2.643,0,0,1,149.469-27.176Zm4.993,1.422c0,1.144.739,1.835,2.312,2.2l1.239.294c1.112.27,1.517.667,1.517,1.382,0,.866-.818,1.446-2.058,1.446a1.966,1.966,0,0,1-2.2-1.637h-1.049c.143,1.509,1.382,2.5,3.249,2.5,1.8,0,3.114-.993,3.114-2.391,0-1.168-.62-1.8-2.272-2.2l-1.247-.294c-1.1-.262-1.565-.683-1.565-1.359,0-.826.771-1.422,1.9-1.422a1.858,1.858,0,0,1,2.026,1.66h1.009A2.75,2.75,0,0,0,157.4-28.1C155.677-28.1,154.462-27.121,154.462-25.754Zm7.527,0c0,1.144.739,1.835,2.312,2.2l1.239.294c1.112.27,1.517.667,1.517,1.382,0,.866-.818,1.446-2.058,1.446a1.966,1.966,0,0,1-2.2-1.637h-1.049c.143,1.509,1.382,2.5,3.249,2.5,1.8,0,3.114-.993,3.114-2.391,0-1.168-.62-1.8-2.272-2.2l-1.247-.294c-1.1-.262-1.565-.683-1.565-1.359,0-.826.771-1.422,1.9-1.422a1.858,1.858,0,0,1,2.026,1.66h1.009a2.75,2.75,0,0,0-3.035-2.526C163.2-28.1,161.989-27.121,161.989-25.754Zm8.346-5.41.072,7.841h.961l.064-7.841Zm.548,11.535a.734.734,0,0,0,.747-.739.736.736,0,0,0-.747-.747.734.734,0,0,0-.739.747A.732.732,0,0,0,170.883-19.629Z" transform="translate(106.378 78.943)"/><rect class="c" width="81.933" height="81.839"/><path class="d" d="M.393,0H.66V-2.123A1.149,1.149,0,0,1,1.818-3.37a1.021,1.021,0,0,1,1.094,1.1V0h.267V-2.3a1.22,1.22,0,0,0-1.3-1.306,1.242,1.242,0,0,0-1.23.827H.643v-.772H.393ZM5.7.055A1.616,1.616,0,0,0,7.285-1.777,1.616,1.616,0,0,0,5.7-3.609,1.613,1.613,0,0,0,4.117-1.777,1.613,1.613,0,0,0,5.7.055Zm0-.239c-.79,0-1.316-.6-1.316-1.593S4.91-3.37,5.7-3.37s1.319.6,1.319,1.593S6.489-.185,5.7-.185Zm6.854-3.37h-.28L11.364-.294h-.01l-.988-3.261h-.3L9.074-.294H9.067L8.155-3.555H7.878L8.91,0h.314l.984-3.213h.01L11.21,0h.308Z" transform="translate(382.943 25.297)"/><path class="e" d="M-1594.625-1818.583v23.793a2.076,2.076,0,0,1-2.081,2.062h-11.352a2.079,2.079,0,0,1-2.081-2.077v-23.778a2.073,2.073,0,0,1,2.066-2.062h2.588v-1.551a1.556,1.556,0,0,1,1.551-1.551h3.1a1.556,1.556,0,0,1,1.552,1.551v1.551h2.588A2.073,2.073,0,0,1-1594.625-1818.583Z" transform="translate(1641.834 1848.932)"/><g transform="translate(39.474 40.801)"><g class="f" transform="translate(1627.199 797.713)"><path class="g" d="M -1610.2548828125 -780.3384399414062 L -1625.878173828125 -780.3384399414062 C -1626.734497070312 -780.3384399414062 -1627.490600585938 -780.7596435546875 -1627.900756835938 -781.4652099609375 C -1628.309692382812 -782.1688232421875 -1628.300170898438 -783.03515625 -1627.875122070312 -783.7825927734375 L -1620.056518554688 -797.5119018554688 C -1619.62841796875 -798.263916015625 -1618.884399414062 -798.7129516601562 -1618.06640625 -798.7129516601562 C -1617.249755859375 -798.7129516601562 -1616.505859375 -798.2637939453125 -1616.076538085938 -797.5114135742188 L -1608.258178710938 -783.7806396484375 C -1607.83349609375 -783.0337524414062 -1607.82373046875 -782.16845703125 -1608.23193359375 -781.465576171875 C -1608.642700195312 -780.759521484375 -1609.398803710938 -780.3384399414062 -1610.2548828125 -780.3384399414062 Z M -1618.1181640625 -792.3191528320312 C -1618.164184570312 -792.3191528320312 -1618.20166015625 -792.28173828125 -1618.20166015625 -792.2357788085938 L -1618.20166015625 -788.3350219726562 C -1618.20166015625 -788.2888793945312 -1618.164184570312 -788.2512817382812 -1618.1181640625 -788.2512817382812 C -1618.072021484375 -788.2512817382812 -1618.034423828125 -788.2888793945312 -1618.034423828125 -788.3350219726562 L -1618.034423828125 -792.2357788085938 C -1618.034423828125 -792.28173828125 -1618.072021484375 -792.3191528320312 -1618.1181640625 -792.3191528320312 Z"/><path class="h" d="M -1610.2548828125 -781.3384399414062 C -1609.7568359375 -781.3384399414062 -1609.323974609375 -781.5770874023438 -1609.0966796875 -781.9677124023438 C -1608.86962890625 -782.3587036132812 -1608.881103515625 -782.8530883789062 -1609.127197265625 -783.2858276367188 L -1616.945068359375 -797.0158081054688 C -1617.193603515625 -797.4513549804688 -1617.612548828125 -797.7129516601562 -1618.06640625 -797.7129516601562 C -1618.5205078125 -797.7129516601562 -1618.939453125 -797.4528198242188 -1619.1875 -797.0170288085938 L -1627.005859375 -783.2882690429688 C -1627.251953125 -782.8555297851562 -1627.263427734375 -782.3587036132812 -1627.0361328125 -781.9677124023438 C -1626.80908203125 -781.5770874023438 -1626.3759765625 -781.3384399414062 -1625.878173828125 -781.3384399414062 L -1610.2548828125 -781.3384399414062 M -1618.06640625 -786.0270385742188 C -1617.468017578125 -786.0270385742188 -1616.98291015625 -785.5418090820312 -1616.98291015625 -784.9432983398438 C -1616.98291015625 -784.3450317382812 -1617.468017578125 -783.8599243164062 -1618.06640625 -783.8599243164062 C -1618.6650390625 -783.8599243164062 -1619.14990234375 -784.3450317382812 -1619.14990234375 -784.9432983398438 C -1619.14990234375 -785.5418090820312 -1618.6650390625 -786.0270385742188 -1618.06640625 -786.0270385742188 M -1618.1181640625 -793.3191528320312 C -1617.51953125 -793.3191528320312 -1617.034423828125 -792.8340454101562 -1617.034423828125 -792.2357788085938 L -1617.034423828125 -788.3350219726562 C -1617.034423828125 -787.7366333007812 -1617.51953125 -787.2512817382812 -1618.1181640625 -787.2512817382812 C -1618.71630859375 -787.2512817382812 -1619.20166015625 -787.7366333007812 -1619.20166015625 -788.3350219726562 L -1619.20166015625 -792.2357788085938 C -1619.20166015625 -792.8340454101562 -1618.71630859375 -793.3191528320312 -1618.1181640625 -793.3191528320312 M -1610.2548828125 -779.3384399414062 L -1625.878173828125 -779.3384399414062 C -1627.094848632812 -779.3384399414062 -1628.174072265625 -779.9456176757812 -1628.765258789062 -780.962646484375 C -1629.346435546875 -781.9623413085938 -1629.33837890625 -783.2323608398438 -1628.744384765625 -784.2769165039062 L -1620.925415039062 -798.0067749023438 C -1620.3173828125 -799.0750122070312 -1619.24853515625 -799.7129516601562 -1618.06640625 -799.7129516601562 C -1616.886108398438 -799.7129516601562 -1615.817504882812 -799.0752563476562 -1615.2080078125 -798.0070190429688 L -1607.38916015625 -784.2754516601562 C -1606.786254882812 -783.21533203125 -1606.778198242188 -781.9774780273438 -1607.3671875 -780.96337890625 C -1607.95947265625 -779.9453125 -1609.038696289062 -779.3384399414062 -1610.2548828125 -779.3384399414062 Z"/></g></g></g></g></svg>