<svg xmlns="http://www.w3.org/2000/svg" xmlns:xlink="http://www.w3.org/1999/xlink" width="446.295" height="111.839" viewBox="0 0 446.295 111.839"><defs><style>.a{fill:#fff;}.b{fill:#77fffb;}.c{fill:#4d4d4d;}.d{fill:#333;}.e{fill:none;}.f{filter:url(#a);}</style><filter id="a" x="0" y="0" width="446.295" height="111.839" filterUnits="userSpaceOnUse"><feOffset dy="3" input="SourceAlpha"/><feGaussianBlur stdDeviation="5" result="b"/><feFlood flood-opacity="0.349"/><feComposite operator="in" in2="b"/><feComposite in="SourceGraphic"/></filter></defs><g transform="translate(14.657 12)"><g class="f" transform="matrix(1, 0, 0, 1, -14.66, -12)"><rect class="a" width="416.295" height="81.839" transform="translate(15 12)"/></g><rect class="b" width="81.933" height="81.839" transform="translate(0 0)"/><path class="c" d="M.393,0H.66V-2.123A1.149,1.149,0,0,1,1.818-3.37a1.021,1.021,0,0,1,1.094,1.1V0h.267V-2.3a1.22,1.22,0,0,0-1.3-1.306,1.242,1.242,0,0,0-1.23.827H.643v-.772H.393ZM5.7.055A1.616,1.616,0,0,0,7.285-1.777,1.616,1.616,0,0,0,5.7-3.609,1.613,1.613,0,0,0,4.117-1.777,1.613,1.613,0,0,0,5.7.055Zm0-.239c-.79,0-1.316-.6-1.316-1.593S4.91-3.37,5.7-3.37s1.319.6,1.319,1.593S6.489-.185,5.7-.185Zm6.854-3.37h-.28L11.364-.294h-.01l-.988-3.261h-.3L9.074-.294H9.067L8.155-3.555H7.878L8.91,0h.314l.984-3.213h.01L11.21,0h.308Z" transform="translate(382.942 25.297)"/><path class="d" d="M3.4,0V-7.844H3.47L9.073,0h2.075V-11.978h-2.4v7.8H8.683l-5.595-7.8H1V0ZM19-2.723A1.771,1.771,0,0,1,17.2-1.6a1.979,1.979,0,0,1-2.042-2.142v-.149H21.3v-.739c0-2.706-1.635-4.458-4.225-4.458-2.631,0-4.292,1.843-4.292,4.682s1.644,4.6,4.383,4.6c2.2,0,3.793-1.17,4.059-2.914ZM17.1-7.3a1.846,1.846,0,0,1,1.868,1.917H15.186A1.927,1.927,0,0,1,17.1-7.3Zm6.263-3.652V-8.9H22.1v1.826h1.253V-2.4c0,1.735.813,2.432,2.905,2.432a5.572,5.572,0,0,0,1.154-.1V-1.851a3.923,3.923,0,0,1-.589.042c-.714,0-1.046-.324-1.046-1V-7.072h1.644V-8.9H25.782v-2.05ZM41.408-8.9H39.017L37.664-2.3h-.05L36.029-8.9H33.7L32.128-2.3h-.05L30.733-8.9h-2.44L30.658,0h2.548l1.6-6.292h.05L36.469,0h2.582ZM46.484.191c2.689,0,4.408-1.718,4.408-4.648,0-2.889-1.743-4.632-4.408-4.632s-4.408,1.751-4.408,4.632C42.076-1.536,43.794.191,46.484.191Zm0-1.851c-1.2,0-1.951-1-1.951-2.789,0-1.768.772-2.789,1.951-2.789s1.942,1.021,1.942,2.789C48.426-2.665,47.671-1.66,46.484-1.66ZM52.307,0H54.73V-4.972a1.772,1.772,0,0,1,1.893-1.984,2.494,2.494,0,0,1,.88.141V-8.948a2.469,2.469,0,0,0-.689-.091A2.124,2.124,0,0,0,54.7-7.3h-.05V-8.9H52.307Zm8.869-5.329h-.033v-6.649H58.719V0h2.424V-2.938l.631-.681L64.322,0h2.789L63.55-5.08l3.4-3.818H64.2Zm18.419-.257a3.708,3.708,0,0,0-4.042-3.5c-2.665,0-4.366,1.776-4.366,4.632,0,2.905,1.7,4.648,4.383,4.648,2.341,0,3.91-1.353,4.034-3.453H77.345A1.674,1.674,0,0,1,75.594-1.71c-1.2,0-1.951-1-1.951-2.748,0-1.718.747-2.731,1.942-2.731a1.725,1.725,0,0,1,1.76,1.6ZM85.028.191c2.689,0,4.408-1.718,4.408-4.648,0-2.889-1.743-4.632-4.408-4.632S80.62-7.338,80.62-4.458C80.62-1.536,82.338.191,85.028.191Zm0-1.851c-1.2,0-1.951-1-1.951-2.789,0-1.768.772-2.789,1.951-2.789S86.97-6.217,86.97-4.449C86.97-2.665,86.215-1.66,85.028-1.66ZM90.85,0h2.424V-5.1a1.763,1.763,0,0,1,1.776-1.951c1.087,0,1.635.664,1.635,1.826V0H99.11V-5.736c0-2.083-1.112-3.329-3.088-3.329a2.811,2.811,0,0,0-2.781,1.751h-.05V-8.9H90.85Zm9.965,0h2.424V-5.1a1.763,1.763,0,0,1,1.776-1.951c1.087,0,1.635.664,1.635,1.826V0h2.424V-5.736c0-2.083-1.112-3.329-3.088-3.329a2.811,2.811,0,0,0-2.781,1.751h-.05V-8.9h-2.341Zm15.858-2.723A1.771,1.771,0,0,1,114.881-1.6a1.979,1.979,0,0,1-2.042-2.142v-.149h6.134v-.739c0-2.706-1.635-4.458-4.225-4.458-2.631,0-4.292,1.843-4.292,4.682s1.644,4.6,4.383,4.6c2.2,0,3.793-1.17,4.059-2.914Zm-1.9-4.574a1.846,1.846,0,0,1,1.868,1.917h-3.777A1.927,1.927,0,0,1,114.773-7.3Zm13.7,1.71a3.708,3.708,0,0,0-4.042-3.5c-2.665,0-4.366,1.776-4.366,4.632,0,2.905,1.7,4.648,4.383,4.648,2.341,0,3.91-1.353,4.034-3.453h-2.258a1.674,1.674,0,0,1-1.751,1.552c-1.2,0-1.951-1-1.951-2.748,0-1.718.747-2.731,1.942-2.731a1.725,1.725,0,0,1,1.76,1.6Zm2-5.362V-8.9h-1.253v1.826h1.253V-2.4c0,1.735.813,2.432,2.905,2.432a5.572,5.572,0,0,0,1.154-.1V-1.851a3.923,3.923,0,0,1-.589.042c-.714,0-1.046-.324-1.046-1V-7.072h1.644V-8.9h-1.644v-2.05Zm6.811.847a1.252,1.252,0,0,0,1.262-1.245,1.247,1.247,0,0,0-1.262-1.245,1.247,1.247,0,0,0-1.262,1.245A1.252,1.252,0,0,0,137.28-10.1ZM136.076,0H138.5V-8.9h-2.424Zm8.288.191c2.689,0,4.408-1.718,4.408-4.648,0-2.889-1.743-4.632-4.408-4.632s-4.408,1.751-4.408,4.632C139.957-1.536,141.675.191,144.365.191Zm0-1.851c-1.2,0-1.951-1-1.951-2.789,0-1.768.772-2.789,1.951-2.789s1.942,1.021,1.942,2.789C146.307-2.665,145.552-1.66,144.365-1.66ZM150.187,0h2.424V-5.1a1.763,1.763,0,0,1,1.776-1.951c1.087,0,1.635.664,1.635,1.826V0h2.424V-5.736c0-2.083-1.112-3.329-3.088-3.329a2.811,2.811,0,0,0-2.781,1.751h-.05V-8.9h-2.341Z" transform="translate(109.64 34.554)"/><path d="M9.7-4.292V-5.31H5.42v.879H8.7v.374A3.148,3.148,0,0,1,5.31-.762c-2.263,0-3.721-1.794-3.721-4.585,0-2.754,1.428-4.46,3.721-4.46A3.251,3.251,0,0,1,8.591-7.39h1.04A4.175,4.175,0,0,0,5.31-10.737C2.424-10.737.564-8.621.564-5.347.564-2.014,2.446.168,5.31.168,8.057.168,9.7-1.5,9.7-4.292ZM14.4.125c2.073,0,3.472-1.516,3.472-3.933s-1.4-3.933-3.472-3.933-3.472,1.509-3.472,3.933S12.323.125,14.4.125Zm0-.857c-1.494,0-2.483-1.143-2.483-3.076S12.9-6.885,14.4-6.885s2.49,1.143,2.49,3.076S15.89-.732,14.4-.732Zm8,.857c2.073,0,3.472-1.516,3.472-3.933S24.47-7.742,22.4-7.742s-3.472,1.509-3.472,3.933S20.324.125,22.4.125Zm0-.857c-1.494,0-2.483-1.143-2.483-3.076S20.9-6.885,22.4-6.885s2.49,1.143,2.49,3.076S23.891-.732,22.4-.732Zm7.789.857a2.806,2.806,0,0,0,2.637-1.736h.022V0h.923V-10.569h-.974V-6.05h-.022a2.753,2.753,0,0,0-2.607-1.692c-1.912,0-3.237,1.56-3.237,3.933S28.26.125,30.186.125Zm.168-7.009c1.45,0,2.446,1.238,2.446,3.076s-1,3.076-2.446,3.076-2.432-1.216-2.432-3.076S28.89-6.885,30.355-6.885Zm11.382-.857c-1.934,0-3.245,1.56-3.245,3.933S39.8.125,41.722.125a2.778,2.778,0,0,0,2.615-1.714h.022V2.52h.974V-7.617H44.41v1.611H44.38A2.8,2.8,0,0,0,41.736-7.742ZM41.9-.732c-1.458,0-2.41-1.208-2.41-3.076s.952-3.076,2.41-3.076,2.461,1.238,2.461,3.076S43.34-.732,41.9-.732ZM53.261-7.617h-.967V-3.1A2.161,2.161,0,0,1,50.075-.74a1.851,1.851,0,0,1-1.992-2.095V-7.617h-.974v4.951A2.548,2.548,0,0,0,49.8.125a2.615,2.615,0,0,0,2.527-1.538h.022V0h.916ZM57.337.125a2.837,2.837,0,0,0,2.6-1.575h.022V0h.923V-5.215c0-1.553-1.091-2.527-2.827-2.527s-2.856.967-2.966,2.329h.938a1.819,1.819,0,0,1,2.007-1.472,1.672,1.672,0,0,1,1.882,1.758v.659l-2.373.146c-1.758.117-2.732.908-2.732,2.212A2.272,2.272,0,0,0,57.337.125Zm.2-.835c-1.033,0-1.743-.571-1.743-1.4s.667-1.362,1.868-1.443l2.256-.154v.842A2.252,2.252,0,0,1,57.534-.71ZM62.723,0h.967V-10.569h-.967Zm3.4-9.2a.647.647,0,0,0,.652-.645.647.647,0,0,0-.652-.645.645.645,0,0,0-.645.645A.645.645,0,0,0,66.125-9.2ZM65.642,0h.967V-7.617h-.967Zm3.27-9.521v1.9H67.777v.806h1.135v4.937C68.912-.5,69.425.044,70.7.044A6.051,6.051,0,0,0,71.417,0V-.828c-.059.015-.425.029-.527.029-.7,0-1.011-.337-1.011-1.121V-6.812h1.5v-.806h-1.5v-1.9ZM73.457,2.754c1.245,0,1.794-.5,2.461-2.292l3-8.079H77.888L75.573-.967h-.022l-2.314-6.65H72.2L75.046.051l-.2.571c-.337.952-.718,1.3-1.421,1.3a2.122,2.122,0,0,1-.454-.044V2.71A3.029,3.029,0,0,0,73.457,2.754Z" transform="translate(109.64 58.692)"/><g transform="translate(18.153 18.297)"><path class="e" d="M0,0H37.055V37.055H0Z"/><path class="d" d="M4.74,31.9H28.81A3.1,3.1,0,0,0,31.9,28.815V4.745a1.549,1.549,0,0,0-2.64-1.1L3.659,29.263A1.544,1.544,0,0,0,4.74,31.9Z" transform="translate(2.069 2.064)"/><path class="d" d="M24.179,6.565,3.659,27.084a1.544,1.544,0,0,0,1.081,2.64H24.179Z" transform="translate(2.069 4.243)"/></g></g></svg>