<svg xmlns="http://www.w3.org/2000/svg" width="423.3" height="275.2" viewBox="0 0 423.3 275.2"><defs><style>.a{fill:#fff;stroke:#77fffb;stroke-width:7px;}.b{opacity:0.084;}.c{fill:#77fffb;}.d,.f,.g,.h{fill:#333;}.e{fill:#4d4d4d;}.f{opacity:0.297;}.g{opacity:0.585;}.h{opacity:0.664;}.i,.j{fill:none;}.i{stroke:#333;stroke-width:0.1px;}</style></defs><g transform="translate(-975.5 -466.5)"><g transform="translate(961.343 455)"><g transform="translate(-12.043 -9)"><path class="a" d="M0,0H416.3V268.2H0Z" transform="translate(29.7 24)"/></g><g class="b" transform="translate(5.758 5)"><rect class="c" width="384.95" height="30.7" transform="translate(26.9 101.9)"/><path class="c" d="M26.9,109.923,412.2,106.3V269.087H26.9Z" transform="translate(0 -4.4)"/></g><g transform="translate(17.618 14.688)"><path class="d" d="M9.6-32.378H9.68l2.488,8.952h2.588l3.477-13.1H15.391l-2.07,9.488h-.073L10.8-36.527H8.481L6.03-27.039H5.957L3.9-36.527H1.054l3.468,13.1H7.11Zm11.426-2.1a1.37,1.37,0,0,0,1.38-1.362,1.364,1.364,0,0,0-1.38-1.362,1.364,1.364,0,0,0-1.38,1.362A1.37,1.37,0,0,0,21.024-34.476Zm-1.317,11.05h2.651v-9.733H19.708Zm10.827-4.167v-2.315H24.57v2.315Zm5.143,4.167v-5.157h5.33v-2.17h-5.33v-3.514h5.838v-2.261h-8.58v13.1Zm8.775-11.05a1.37,1.37,0,0,0,1.38-1.362,1.364,1.364,0,0,0-1.38-1.362,1.364,1.364,0,0,0-1.38,1.362A1.37,1.37,0,0,0,44.453-34.476Zm-1.317,11.05h2.651v-9.733H43.137Zm8.462,0H54.25V-29.01a1.928,1.928,0,0,1,1.943-2.134c1.189,0,1.789.726,1.789,2v5.72h2.651V-29.7c0-2.279-1.217-3.641-3.378-3.641a3.075,3.075,0,0,0-3.042,1.916h-.054v-1.734H51.6ZM68.945-26.4a1.938,1.938,0,0,1-1.961,1.226,2.165,2.165,0,0,1-2.234-2.342v-.163h6.71v-.808c0-2.96-1.789-4.876-4.621-4.876-2.878,0-4.694,2.016-4.694,5.121s1.8,5.03,4.794,5.03c2.406,0,4.149-1.28,4.44-3.187Zm-2.079-5a2.02,2.02,0,0,1,2.043,2.1H64.777A2.107,2.107,0,0,1,66.865-31.407Zm6.85-3.995v2.243H72.345v2h1.371v5.112c0,1.9.89,2.66,3.178,2.66a6.1,6.1,0,0,0,1.262-.109v-1.952a4.291,4.291,0,0,1-.645.045c-.781,0-1.144-.354-1.144-1.1v-4.658h1.8v-2h-1.8V-35.4Zm19.743,2.243H90.844l-1.48,7.218h-.054l-1.734-7.218H85.033l-1.725,7.218h-.054l-1.471-7.218H79.113L81.7-23.426h2.787l1.752-6.882H86.3l1.761,6.882H90.88Zm5.552,9.942c2.942,0,4.821-1.879,4.821-5.084,0-3.16-1.907-5.066-4.821-5.066S94.19-31.452,94.19-28.3C94.19-25.106,96.069-23.217,99.011-23.217Zm0-2.025c-1.307,0-2.134-1.1-2.134-3.051,0-1.934.844-3.051,2.134-3.051s2.125,1.117,2.125,3.051C101.135-26.34,100.309-25.242,99.011-25.242Zm6.369,1.816h2.651v-5.439a1.939,1.939,0,0,1,2.07-2.17,2.729,2.729,0,0,1,.962.154v-2.333a2.7,2.7,0,0,0-.754-.1,2.323,2.323,0,0,0-2.315,1.907h-.054v-1.752h-2.56Zm9.7-5.829h-.036v-7.273h-2.651v13.1h2.651V-26.64l.69-.745,2.787,3.959h3.051l-3.9-5.557,3.713-4.177h-3.005Zm7.1-1.044c0,1.462.953,2.406,2.833,2.806l1.662.345c.953.218,1.289.508,1.289,1.026,0,.636-.617,1.044-1.616,1.044a1.608,1.608,0,0,1-1.825-1.307h-2.588c.173,1.916,1.725,3.169,4.413,3.169,2.506,0,4.258-1.262,4.258-3.178,0-1.425-.835-2.224-2.869-2.651l-1.662-.354c-.981-.209-1.344-.545-1.344-1.044,0-.645.608-1.062,1.525-1.062a1.485,1.485,0,0,1,1.652,1.326h2.442c-.054-1.907-1.6-3.187-4.095-3.187C123.774-33.368,122.176-32.151,122.176-30.3Zm16.669,7.027a3.348,3.348,0,0,0,2.969-1.643h.054v1.489h2.56v-6.692c0-1.961-1.625-3.25-4.122-3.25-2.579,0-4.186,1.3-4.285,3.187h2.424a1.578,1.578,0,0,1,1.743-1.208c1,0,1.634.527,1.634,1.435v.645l-2.451.145c-2.424.145-3.786,1.171-3.786,2.942A3.01,3.01,0,0,0,138.846-23.272Zm.872-1.916c-.9,0-1.5-.454-1.5-1.18,0-.69.563-1.135,1.553-1.208l2.052-.127v.708A1.944,1.944,0,0,1,139.717-25.187Zm15.458-7.972h-2.769l-2.016,7.391h-.054l-2.025-7.391h-2.842l3.368,9.733h3Zm3.763,9.887a3.348,3.348,0,0,0,2.969-1.643h.055v1.489h2.56v-6.692c0-1.961-1.625-3.25-4.122-3.25-2.579,0-4.186,1.3-4.285,3.187h2.424a1.578,1.578,0,0,1,1.743-1.208c1,0,1.634.527,1.634,1.435v.645l-2.451.145c-2.424.145-3.786,1.171-3.786,2.942A3.01,3.01,0,0,0,158.938-23.272Zm.872-1.916c-.9,0-1.5-.454-1.5-1.18,0-.69.563-1.135,1.553-1.208l2.052-.127v.708A1.944,1.944,0,0,1,159.81-25.187Zm7.967-9.288a1.37,1.37,0,0,0,1.38-1.362,1.364,1.364,0,0,0-1.38-1.362,1.364,1.364,0,0,0-1.38,1.362A1.37,1.37,0,0,0,167.777-34.476Zm-1.317,11.05h2.651v-9.733H166.46Zm4.662,0h2.651v-13.1h-2.651Zm7.513.154a3.348,3.348,0,0,0,2.969-1.643h.054v1.489h2.56v-6.692c0-1.961-1.625-3.25-4.122-3.25-2.579,0-4.186,1.3-4.285,3.187h2.424a1.578,1.578,0,0,1,1.743-1.208c1,0,1.634.527,1.634,1.435v.645l-2.451.145c-2.424.145-3.786,1.171-3.786,2.942A3.01,3.01,0,0,0,178.636-23.272Zm.872-1.916c-.9,0-1.5-.454-1.5-1.18,0-.69.563-1.135,1.553-1.208l2.052-.127v.708A1.944,1.944,0,0,1,179.507-25.187ZM191.9-23.272c2.451,0,3.95-1.889,3.95-5.021s-1.507-5.021-3.959-5.021a3.165,3.165,0,0,0-3.005,1.843h-.054v-5.057h-2.651v13.1h2.615V-25.1h.054A3.209,3.209,0,0,0,191.9-23.272Zm-.917-7.917c1.317,0,2.152,1.126,2.152,2.9s-.826,2.887-2.152,2.887c-1.289,0-2.161-1.126-2.161-2.887C188.818-30.036,189.7-31.189,190.979-31.189Zm6.487,7.763h2.651v-13.1h-2.651ZM208.538-26.4a1.938,1.938,0,0,1-1.961,1.226,2.165,2.165,0,0,1-2.234-2.342v-.163h6.71v-.808c0-2.96-1.789-4.876-4.621-4.876-2.878,0-4.694,2.016-4.694,5.121s1.8,5.03,4.794,5.03c2.406,0,4.149-1.28,4.44-3.187Zm-2.079-5a2.02,2.02,0,0,1,2.043,2.1h-4.131A2.107,2.107,0,0,1,206.459-31.407Z" transform="translate(108.052 57.753)"/><path d="M6.856-31.455c-3.194,0-5.2,2.288-5.2,5.919s2.01,5.911,5.2,5.911,5.212-2.28,5.212-5.911S10.049-31.455,6.856-31.455Zm0,1.009c2.51,0,4.1,1.9,4.1,4.91s-1.589,4.9-4.1,4.9-4.091-1.9-4.091-4.9S4.345-30.446,6.856-30.446Zm10.832,2.24a3.021,3.021,0,0,0-2.844,1.883h-.032v-1.748h-.993v11h1.049v-4.433H14.9a2.964,2.964,0,0,0,2.812,1.835c2.074,0,3.5-1.692,3.5-4.266S19.777-28.206,17.688-28.206Zm-.183,7.6c-1.565,0-2.638-1.343-2.638-3.337s1.073-3.337,2.638-3.337c1.6,0,2.63,1.327,2.63,3.337S19.1-20.6,17.505-20.6Zm10.983-1.549A2.237,2.237,0,0,1,26.145-20.6c-1.645,0-2.7-1.16-2.7-3.027v-.064h6.189v-.445c0-2.463-1.382-4.076-3.575-4.076-2.24,0-3.694,1.724-3.694,4.29,0,2.622,1.438,4.242,3.758,4.242a3.221,3.221,0,0,0,3.408-2.479Zm-2.447-5.132a2.536,2.536,0,0,1,2.51,2.765h-5.1A2.643,2.643,0,0,1,26.041-27.284Zm5.16,7.476H32.25V-24.7a2.352,2.352,0,0,1,2.391-2.566A2.026,2.026,0,0,1,36.818-25v5.188h1.049v-5.355a2.766,2.766,0,0,0-2.924-3.043,2.793,2.793,0,0,0-2.725,1.66h-.024v-1.525H31.2Zm18.518-9.6h.064l2.82,9.6h1l3.162-11.464H55.63l-2.518,9.8h-.056l-2.765-9.8h-1.08l-2.773,9.8h-.048l-2.526-9.8H42.736L45.89-19.809H46.9Zm9.061-.373a.7.7,0,0,0,.707-.7.7.7,0,0,0-.707-.7.7.7,0,0,0-.7.7A.7.7,0,0,0,58.78-29.787Zm-.524,9.978H59.3v-8.262H58.256Zm8.266-4.139v-.985H61.31v.985ZM69.7-19.809v-5.2h5.259v-.969H69.7v-4.306h5.72v-.985h-6.8v11.464Zm7.94-9.978a.7.7,0,0,0,.707-.7.7.7,0,0,0-.707-.7.7.7,0,0,0-.7.7A.7.7,0,0,0,77.644-29.787Zm-.524,9.978h1.049v-8.262H77.12Zm6.586,0h1.049V-24.7a2.352,2.352,0,0,1,2.391-2.566A2.026,2.026,0,0,1,89.322-25v5.188h1.049v-5.355a2.766,2.766,0,0,0-2.924-3.043,2.793,2.793,0,0,0-2.725,1.66H84.7v-1.525h-.993Zm14.312-2.344A2.237,2.237,0,0,1,95.673-20.6c-1.645,0-2.7-1.16-2.7-3.027v-.064h6.189v-.445c0-2.463-1.382-4.076-3.575-4.076-2.24,0-3.694,1.724-3.694,4.29,0,2.622,1.438,4.242,3.758,4.242a3.221,3.221,0,0,0,3.408-2.479ZM95.57-27.284a2.536,2.536,0,0,1,2.51,2.765h-5.1A2.643,2.643,0,0,1,95.57-27.284Zm5.613-2.852v2.066H99.951v.874h1.231v5.355c0,1.494.556,2.081,1.938,2.081a6.563,6.563,0,0,0,.779-.048v-.9c-.064.016-.461.032-.572.032-.763,0-1.1-.365-1.1-1.216V-27.2h1.629v-.874h-1.629v-2.066Zm14.63,2.066h-1.057L112.9-20.984h-.024l-2.058-7.086h-1.065L107.7-20.984h-.024l-1.851-7.086h-1.065l2.352,8.262h1.112l2.05-6.856h.024l2.058,6.856h1.112Zm4.58,8.4c2.248,0,3.766-1.645,3.766-4.266s-1.517-4.266-3.766-4.266-3.766,1.637-3.766,4.266S118.144-19.673,120.392-19.673Zm0-.93c-1.621,0-2.693-1.239-2.693-3.337s1.073-3.337,2.693-3.337,2.7,1.239,2.7,3.337S122.013-20.6,120.392-20.6Zm5.327.794h1.049v-5.148A1.982,1.982,0,0,1,128.69-27.2a2.127,2.127,0,0,1,.787.119v-1.033a2.727,2.727,0,0,0-.651-.087,2.1,2.1,0,0,0-2.089,1.6h-.024v-1.47h-.993Zm6.177-4.354v-7.11h-1.057v11.464H131.9v-3.2l.922-.85,3.3,4.052h1.231l-3.782-4.7,3.71-3.567h-1.3Zm6.2-1.7c0,1.144.739,1.835,2.312,2.2l1.239.294c1.112.27,1.517.667,1.517,1.382,0,.866-.818,1.446-2.058,1.446a1.966,1.966,0,0,1-2.2-1.637h-1.049c.143,1.509,1.382,2.5,3.249,2.5,1.8,0,3.114-.993,3.114-2.391,0-1.168-.62-1.8-2.272-2.2l-1.247-.294c-1.1-.262-1.565-.683-1.565-1.359,0-.826.771-1.422,1.9-1.422a1.858,1.858,0,0,1,2.026,1.66h1.009a2.75,2.75,0,0,0-3.035-2.526C139.312-28.206,138.1-27.229,138.1-25.862Zm13.632,6.189a3.078,3.078,0,0,0,2.82-1.708h.024v1.573h1v-5.656c0-1.684-1.184-2.741-3.067-2.741s-3.1,1.049-3.218,2.526h1.017a1.974,1.974,0,0,1,2.177-1.6,1.814,1.814,0,0,1,2.042,1.907v.715l-2.574.159c-1.907.127-2.963.985-2.963,2.4A2.465,2.465,0,0,0,151.729-19.673Zm.215-.906c-1.12,0-1.891-.62-1.891-1.517,0-.914.723-1.478,2.026-1.565l2.447-.167v.914A2.442,2.442,0,0,1,151.943-20.579Zm12.04-7.492h-1.1l-2.518,7.158h-.024l-2.51-7.158h-1.112l3.075,8.262h1.12Zm3.46,8.4a3.078,3.078,0,0,0,2.82-1.708h.024v1.573h1v-5.656c0-1.684-1.184-2.741-3.067-2.741s-3.1,1.049-3.218,2.526h1.017a1.974,1.974,0,0,1,2.177-1.6,1.814,1.814,0,0,1,2.042,1.907v.715l-2.574.159c-1.907.127-2.963.985-2.963,2.4A2.465,2.465,0,0,0,167.443-19.673Zm.215-.906c-1.12,0-1.891-.62-1.891-1.517,0-.914.723-1.478,2.026-1.565l2.447-.167v.914A2.442,2.442,0,0,1,167.657-20.579Zm6.153-9.208a.7.7,0,0,0,.707-.7.7.7,0,0,0-.707-.7.7.7,0,0,0-.7.7A.7.7,0,0,0,173.81-29.787Zm-.524,9.978h1.049v-8.262h-1.049Zm3.166,0H177.5V-31.272h-1.049Zm5.541.135a3.078,3.078,0,0,0,2.82-1.708h.024v1.573h1v-5.656c0-1.684-1.184-2.741-3.067-2.741s-3.1,1.049-3.218,2.526h1.017a1.974,1.974,0,0,1,2.177-1.6,1.814,1.814,0,0,1,2.042,1.907v.715l-2.574.159c-1.907.127-2.963.985-2.963,2.4A2.465,2.465,0,0,0,181.992-19.673Zm.214-.906c-1.12,0-1.891-.62-1.891-1.517,0-.914.723-1.478,2.026-1.565l2.447-.167v.914A2.442,2.442,0,0,1,182.207-20.579Zm9.529.906c2.081,0,3.5-1.692,3.5-4.266s-1.414-4.266-3.488-4.266a2.984,2.984,0,0,0-2.828,1.859h-.024v-4.926h-1.057v11.464h1.009v-1.748h.024A3.024,3.024,0,0,0,191.736-19.673Zm-.2-7.6c1.589,0,2.614,1.319,2.614,3.337s-1.025,3.337-2.614,3.337c-1.557,0-2.653-1.351-2.653-3.337S189.988-27.276,191.538-27.276Zm5.335,7.468h1.049V-31.272h-1.049Zm8.806-2.344a2.237,2.237,0,0,1-2.344,1.557c-1.645,0-2.7-1.16-2.7-3.027v-.064h6.189v-.445c0-2.463-1.382-4.076-3.575-4.076-2.24,0-3.694,1.724-3.694,4.29,0,2.622,1.438,4.242,3.758,4.242a3.221,3.221,0,0,0,3.408-2.479Zm-2.447-5.132a2.536,2.536,0,0,1,2.51,2.765h-5.1A2.643,2.643,0,0,1,203.232-27.284Z" transform="translate(107.676 79.051)"/><rect class="c" width="81.933" height="81.839" transform="translate(0 0)"/><path class="e" d="M.393,0H.66V-2.123A1.149,1.149,0,0,1,1.818-3.37a1.021,1.021,0,0,1,1.094,1.1V0h.267V-2.3a1.22,1.22,0,0,0-1.3-1.306,1.242,1.242,0,0,0-1.23.827H.643v-.772H.393ZM5.7.055A1.616,1.616,0,0,0,7.285-1.777,1.616,1.616,0,0,0,5.7-3.609,1.613,1.613,0,0,0,4.117-1.777,1.613,1.613,0,0,0,5.7.055Zm0-.239c-.79,0-1.316-.6-1.316-1.593S4.91-3.37,5.7-3.37s1.319.6,1.319,1.593S6.489-.185,5.7-.185Zm6.854-3.37h-.28L11.364-.294h-.01l-.988-3.261h-.3L9.074-.294H9.067L8.155-3.555H7.878L8.91,0h.314l.984-3.213h.01L11.21,0h.308Z" transform="translate(382.943 25.297)"/><path class="d" d="M-1632.164-2318.816a2.16,2.16,0,0,0,2.915.156,19.868,19.868,0,0,1,25.144-.016,2.2,2.2,0,0,0,2.946-.14,2.213,2.213,0,0,0-.156-3.274,24.3,24.3,0,0,0-30.693,0A2.2,2.2,0,0,0-1632.164-2318.816Zm12.1,12.1,2.292,2.292a1.552,1.552,0,0,0,2.2,0l2.292-2.292a1.556,1.556,0,0,0-.359-2.479,6.674,6.674,0,0,0-6.095,0A1.578,1.578,0,0,0-1620.067-2306.72Zm-5.814-5.814a2.2,2.2,0,0,0,2.853.2,11.012,11.012,0,0,1,12.72,0,2.219,2.219,0,0,0,2.853-.2l.016-.015a2.173,2.173,0,0,0-.2-3.29,15.447,15.447,0,0,0-18.051,0A2.178,2.178,0,0,0-1625.882-2312.534Z" transform="translate(1657.631 2356.68)"/></g><path class="f" d="M-1632.518-2323.531a.994.994,0,0,0,1.341.072,9.141,9.141,0,0,1,11.569-.007,1.012,1.012,0,0,0,1.356-.064,1.018,1.018,0,0,0-.072-1.506,11.18,11.18,0,0,0-14.122,0A1.012,1.012,0,0,0-1632.518-2323.531Zm5.566,5.566,1.055,1.054a.714.714,0,0,0,1.011,0l1.054-1.054a.716.716,0,0,0-.165-1.141,3.07,3.07,0,0,0-2.8,0A.726.726,0,0,0-1626.952-2317.965Zm-2.675-2.676a1.012,1.012,0,0,0,1.313.093,5.067,5.067,0,0,1,5.853,0,1.021,1.021,0,0,0,1.313-.093l.007-.007a1,1,0,0,0-.093-1.514,7.108,7.108,0,0,0-8.306,0A1,1,0,0,0-1629.627-2320.641Z" transform="translate(2008.249 2456.55)"/><path class="f" d="M-1632.518-2323.531a.994.994,0,0,0,1.341.072,9.141,9.141,0,0,1,11.569-.007,1.012,1.012,0,0,0,1.356-.064,1.018,1.018,0,0,0-.072-1.506,11.18,11.18,0,0,0-14.122,0A1.012,1.012,0,0,0-1632.518-2323.531Zm5.566,5.566,1.055,1.054a.714.714,0,0,0,1.011,0l1.054-1.054a.716.716,0,0,0-.165-1.141,3.07,3.07,0,0,0-2.8,0A.726.726,0,0,0-1626.952-2317.965Zm-2.675-2.676a1.012,1.012,0,0,0,1.313.093,5.067,5.067,0,0,1,5.853,0,1.021,1.021,0,0,0,1.313-.093l.007-.007a1,1,0,0,0-.093-1.514,7.108,7.108,0,0,0-8.306,0A1,1,0,0,0-1629.627-2320.641Z" transform="translate(2008.249 2486.55)"/><path class="d" d="M-1632.518-2323.531a.994.994,0,0,0,1.341.072,9.141,9.141,0,0,1,11.569-.007,1.012,1.012,0,0,0,1.356-.064,1.018,1.018,0,0,0-.072-1.506,11.18,11.18,0,0,0-14.122,0A1.012,1.012,0,0,0-1632.518-2323.531Zm5.566,5.566,1.055,1.054a.714.714,0,0,0,1.011,0l1.054-1.054a.716.716,0,0,0-.165-1.141,3.07,3.07,0,0,0-2.8,0A.726.726,0,0,0-1626.952-2317.965Zm-2.675-2.676a1.012,1.012,0,0,0,1.313.093,5.067,5.067,0,0,1,5.853,0,1.021,1.021,0,0,0,1.313-.093l.007-.007a1,1,0,0,0-.093-1.514,7.108,7.108,0,0,0-8.306,0A1,1,0,0,0-1629.627-2320.641Z" transform="translate(2008.249 2513.55)"/><path class="g" d="M-1632.518-2323.531a.994.994,0,0,0,1.341.072,9.141,9.141,0,0,1,11.569-.007,1.012,1.012,0,0,0,1.356-.064,1.018,1.018,0,0,0-.072-1.506,11.18,11.18,0,0,0-14.122,0A1.012,1.012,0,0,0-1632.518-2323.531Zm5.566,5.566,1.055,1.054a.714.714,0,0,0,1.011,0l1.054-1.054a.716.716,0,0,0-.165-1.141,3.07,3.07,0,0,0-2.8,0A.726.726,0,0,0-1626.952-2317.965Zm-2.675-2.676a1.012,1.012,0,0,0,1.313.093,5.067,5.067,0,0,1,5.853,0,1.021,1.021,0,0,0,1.313-.093l.007-.007a1,1,0,0,0-.093-1.514,7.108,7.108,0,0,0-8.306,0A1,1,0,0,0-1629.627-2320.641Z" transform="translate(2008.249 2540.55)"/><path class="h" d="M-1632.518-2323.531a.994.994,0,0,0,1.341.072,9.141,9.141,0,0,1,11.569-.007,1.012,1.012,0,0,0,1.356-.064,1.018,1.018,0,0,0-.072-1.506,11.18,11.18,0,0,0-14.122,0A1.012,1.012,0,0,0-1632.518-2323.531Zm5.566,5.566,1.055,1.054a.714.714,0,0,0,1.011,0l1.054-1.054a.716.716,0,0,0-.165-1.141,3.07,3.07,0,0,0-2.8,0A.726.726,0,0,0-1626.952-2317.965Zm-2.675-2.676a1.012,1.012,0,0,0,1.313.093,5.067,5.067,0,0,1,5.853,0,1.021,1.021,0,0,0,1.313-.093l.007-.007a1,1,0,0,0-.093-1.514,7.108,7.108,0,0,0-8.306,0A1,1,0,0,0-1629.627-2320.641Z" transform="translate(2008.249 2569.55)"/><line class="i" x2="341" transform="translate(49.157 172.5)"/><line class="i" x2="341" transform="translate(49.157 143.5)"/><line class="i" x2="341" transform="translate(49.157 199.5)"/><line class="i" x2="341" transform="translate(49.157 226.5)"/><line class="i" x2="341" transform="translate(49.157 255.5)"/><g transform="translate(-1096.157 -2532.485)"><path class="j" d="M1548.945,2754.287c0-.02,0-.04,0-.06v-.01c0-.02,0-.039-.007-.058v-.01c0-.019-.006-.039-.009-.058l0-.009c0-.02-.008-.039-.012-.059v0c0-.019-.01-.039-.015-.058v-.005c-.005-.019-.011-.038-.017-.056l0-.009q-.009-.027-.019-.053l0-.01q-.01-.026-.021-.052l0-.009c-.008-.018-.016-.035-.024-.052l0-.006-.026-.052v0l-.029-.051,0-.007-.03-.047-.006-.009-.031-.045-.006-.008-.034-.044-.005-.007-.037-.045,0,0-.039-.042,0,0-.04-.041-.007-.007-.041-.038-.008-.007-.043-.036-.007-.006-.045-.035,0,0-.048-.034h0l-.05-.032-.006,0-.05-.029-.008,0-.051-.027-.008,0-.053-.025-.005,0q-.056-.025-.115-.045h0l-.057-.018-.007,0-.057-.015-.008,0-.059-.013h-.007l-.062-.011a1.514,1.514,0,0,0-.222-.017,1.482,1.482,0,0,0-1.48,1.48v.8h2.96v-.8c0-.021,0-.043,0-.064C1548.945,2754.292,1548.945,2754.289,1548.945,2754.287Z" transform="translate(-80.974 -31.752)"/><path class="d" d="M1469.171,2724.338v-.437a.494.494,0,0,0-.492-.492h-.236v-.8a1.953,1.953,0,0,0-1.729-1.937h0l-.051-.005h0l-.049,0h-.007l-.045,0h-.064a1.952,1.952,0,0,0-1.95,1.95v.8h-.236a.494.494,0,0,0-.492.492v3.73a.494.494,0,0,0,.492.492h4.373a.494.494,0,0,0,.492-.492v-.437h0v-2.855Zm-1.2-.93h-2.961v-.8a1.481,1.481,0,0,1,1.7-1.464l.062.011h.007l.058.013.008,0,.057.016.007,0,.057.018,0,0c.039.013.078.029.115.045l.005,0,.053.025.008,0,.051.027.008,0,.05.029.006,0,.05.032h0l.048.034,0,0,.046.035.007.006.042.036.008.007.041.038.007.007.04.041,0,0,.039.042,0,0,.037.045.005.007.034.044.006.009.031.045.006.009.03.047,0,.007c.01.017.02.034.029.051v0l.027.052,0,.006c.008.017.016.035.024.052l0,.009c.007.017.014.034.021.052l0,.01q.01.026.019.053l0,.009c.006.019.012.037.017.056v.005c.005.019.01.038.015.058v0c0,.02.009.039.012.059l0,.009c0,.019.007.039.009.058v.01c0,.019,0,.039.007.058v.01c0,.02,0,.04,0,.06v.007c0,.021,0,.042,0,.064Z"/></g><g transform="translate(-1096.157 -2476.485)"><path class="j" d="M1548.945,2754.287c0-.02,0-.04,0-.06v-.01c0-.02,0-.039-.007-.058v-.01c0-.019-.006-.039-.009-.058l0-.009c0-.02-.008-.039-.012-.059v0c0-.019-.01-.039-.015-.058v-.005c-.005-.019-.011-.038-.017-.056l0-.009q-.009-.027-.019-.053l0-.01q-.01-.026-.021-.052l0-.009c-.008-.018-.016-.035-.024-.052l0-.006-.026-.052v0l-.029-.051,0-.007-.03-.047-.006-.009-.031-.045-.006-.008-.034-.044-.005-.007-.037-.045,0,0-.039-.042,0,0-.04-.041-.007-.007-.041-.038-.008-.007-.043-.036-.007-.006-.045-.035,0,0-.048-.034h0l-.05-.032-.006,0-.05-.029-.008,0-.051-.027-.008,0-.053-.025-.005,0q-.056-.025-.115-.045h0l-.057-.018-.007,0-.057-.015-.008,0-.059-.013h-.007l-.062-.011a1.514,1.514,0,0,0-.222-.017,1.482,1.482,0,0,0-1.48,1.48v.8h2.96v-.8c0-.021,0-.043,0-.064C1548.945,2754.292,1548.945,2754.289,1548.945,2754.287Z" transform="translate(-80.974 -31.752)"/><path class="d" d="M1469.171,2724.338v-.437a.494.494,0,0,0-.492-.492h-.236v-.8a1.953,1.953,0,0,0-1.729-1.937h0l-.051-.005h0l-.049,0h-.007l-.045,0h-.064a1.952,1.952,0,0,0-1.95,1.95v.8h-.236a.494.494,0,0,0-.492.492v3.73a.494.494,0,0,0,.492.492h4.373a.494.494,0,0,0,.492-.492v-.437h0v-2.855Zm-1.2-.93h-2.961v-.8a1.481,1.481,0,0,1,1.7-1.464l.062.011h.007l.058.013.008,0,.057.016.007,0,.057.018,0,0c.039.013.078.029.115.045l.005,0,.053.025.008,0,.051.027.008,0,.05.029.006,0,.05.032h0l.048.034,0,0,.046.035.007.006.042.036.008.007.041.038.007.007.04.041,0,0,.039.042,0,0,.037.045.005.007.034.044.006.009.031.045.006.009.03.047,0,.007c.01.017.02.034.029.051v0l.027.052,0,.006c.008.017.016.035.024.052l0,.009c.007.017.014.034.021.052l0,.01q.01.026.019.053l0,.009c.006.019.012.037.017.056v.005c.005.019.01.038.015.058v0c0,.02.009.039.012.059l0,.009c0,.019.007.039.009.058v.01c0,.019,0,.039.007.058v.01c0,.02,0,.04,0,.06v.007c0,.021,0,.042,0,.064Z"/></g></g><path class="d" d="M1.985,0V-10.569h-1V0ZM3.809,0h.967V-4.512a2.168,2.168,0,0,1,2.2-2.366A1.868,1.868,0,0,1,8.987-4.783V0h.967V-4.937a2.55,2.55,0,0,0-2.7-2.805A2.575,2.575,0,0,0,4.746-6.211H4.724V-7.617H3.809ZM14.465.125A2.806,2.806,0,0,0,17.1-1.611h.022V0h.923V-10.569h-.974V-6.05h-.022a2.753,2.753,0,0,0-2.607-1.692c-1.912,0-3.237,1.56-3.237,3.933S12.539.125,14.465.125Zm.168-7.009c1.45,0,2.446,1.238,2.446,3.076s-1,3.076-2.446,3.076S12.2-1.948,12.2-3.809,13.169-6.885,14.634-6.885ZM22.874.125c2.073,0,3.472-1.516,3.472-3.933s-1.4-3.933-3.472-3.933S19.4-6.233,19.4-3.809,20.8.125,22.874.125Zm0-.857c-1.494,0-2.483-1.143-2.483-3.076s.989-3.076,2.483-3.076,2.49,1.143,2.49,3.076S24.368-.732,22.874-.732Zm7.852.857C32.8.125,34.2-1.392,34.2-3.809s-1.4-3.933-3.472-3.933-3.472,1.509-3.472,3.933S28.652.125,30.725.125Zm0-.857c-1.494,0-2.483-1.143-2.483-3.076s.989-3.076,2.483-3.076,2.49,1.143,2.49,3.076S32.219-.732,30.725-.732ZM35.486,0h.967V-4.746a1.827,1.827,0,0,1,1.772-2.073,1.961,1.961,0,0,1,.725.11v-.952a2.513,2.513,0,0,0-.6-.081,1.94,1.94,0,0,0-1.926,1.479H36.4V-7.617h-.916Z" transform="translate(1010 596)"/><path class="d" d="M1.985,0V-10.569h-1V0ZM4.951,0V-8.833H5L11.221,0h.967V-10.569H11.2v8.826h-.051l-6.2-8.826H3.962V0Zm9.214-10.569V0h3.428c3.171,0,5.01-1.941,5.01-5.288s-1.846-5.281-5.01-5.281Zm1,.908h2.366c2.6,0,4.05,1.567,4.05,4.38s-1.45,4.373-4.05,4.373H15.168Zm13.359-1.077c-2.944,0-4.8,2.109-4.8,5.457S25.583.168,28.528.168s4.8-2.1,4.8-5.449S31.472-10.737,28.528-10.737Zm0,.93c2.314,0,3.779,1.75,3.779,4.526S30.842-.762,28.528-.762s-3.772-1.75-3.772-4.519S26.213-9.807,28.528-9.807Zm10.73-.93c-2.944,0-4.8,2.109-4.8,5.457S36.313.168,39.258.168s4.8-2.1,4.8-5.449S42.2-10.737,39.258-10.737Zm0,.93c2.314,0,3.779,1.75,3.779,4.526S41.572-.762,39.258-.762s-3.772-1.75-3.772-4.519S36.943-9.807,39.258-9.807Zm7.354,5.479h2.813L51.855,0h1.172L50.464-4.49a2.93,2.93,0,0,0,2.263-2.988c0-1.882-1.318-3.091-3.384-3.091H45.615V0h1Zm0-5.347h2.615a2.166,2.166,0,0,1,2.468,2.227,2.135,2.135,0,0,1-2.432,2.234H46.611Zm7.6,2.073h.967a2.318,2.318,0,0,1,2.461-2.256,2.11,2.11,0,0,1,2.249,2.087c0,.93-.374,1.56-1.89,3.142L54.258-.7V0H61.15V-.894h-5.5V-.923l2.827-2.952c1.882-1.941,2.4-2.805,2.4-3.948a3.028,3.028,0,0,0-3.245-2.915A3.213,3.213,0,0,0,54.207-7.6Z" transform="translate(1010 624)"/><path class="d" d="M8.013,0H9.067L5.12-10.569h-1L.168,0H1.23L2.4-3.237H6.841ZM4.6-9.331h.044L6.541-4.1H2.7ZM10.078,0h.967V-4.512a2.168,2.168,0,0,1,2.2-2.366,1.868,1.868,0,0,1,2.007,2.095V0h.967V-4.937a2.55,2.55,0,0,0-2.7-2.805,2.575,2.575,0,0,0-2.512,1.531h-.022V-7.617h-.916Zm7.778,0h.967V-4.512a2.168,2.168,0,0,1,2.2-2.366,1.868,1.868,0,0,1,2.007,2.095V0H24V-4.937a2.55,2.55,0,0,0-2.7-2.805,2.575,2.575,0,0,0-2.512,1.531h-.022V-7.617h-.916ZM27.891.125a2.837,2.837,0,0,0,2.6-1.575h.022V0h.923V-5.215c0-1.553-1.091-2.527-2.827-2.527s-2.856.967-2.966,2.329h.938a1.819,1.819,0,0,1,2.007-1.472,1.672,1.672,0,0,1,1.882,1.758v.659L28.1-4.321c-1.758.117-2.732.908-2.732,2.212A2.272,2.272,0,0,0,27.891.125Zm.2-.835c-1.033,0-1.743-.571-1.743-1.4s.667-1.362,1.868-1.443l2.256-.154v.842A2.252,2.252,0,0,1,28.088-.71Zm5.391-6.335.923-3.523H33.369l-.7,3.523Zm1.37,1.465c0,1.055.681,1.692,2.131,2.029l1.143.271c1.025.249,1.4.615,1.4,1.274,0,.8-.754,1.333-1.9,1.333A1.813,1.813,0,0,1,35.6-2.183h-.967c.132,1.392,1.274,2.307,3,2.307,1.663,0,2.871-.916,2.871-2.2,0-1.077-.571-1.663-2.095-2.029l-1.15-.271c-1.011-.242-1.443-.63-1.443-1.252,0-.762.71-1.311,1.75-1.311a1.713,1.713,0,0,1,1.868,1.531h.93a2.535,2.535,0,0,0-2.8-2.329C35.969-7.742,34.849-6.841,34.849-5.581ZM55.2,0V-10.569H54.038L50.127-1.274h-.044l-3.918-9.294h-1.15V0h.938V-8.672H46L49.666,0h.872l3.677-8.672h.044V0Zm3.882.125a2.837,2.837,0,0,0,2.6-1.575H61.7V0h.923V-5.215c0-1.553-1.091-2.527-2.827-2.527s-2.856.967-2.966,2.329h.938a1.819,1.819,0,0,1,2.007-1.472,1.672,1.672,0,0,1,1.882,1.758v.659l-2.373.146c-1.758.117-2.732.908-2.732,2.212A2.272,2.272,0,0,0,59.077.125Zm.2-.835c-1.033,0-1.743-.571-1.743-1.4S58.2-3.472,59.4-3.552l2.256-.154v.842A2.252,2.252,0,0,1,59.275-.71Zm11.169-4.5A3,3,0,0,0,67.31-7.742c-2.073,0-3.442,1.531-3.442,3.933,0,2.439,1.37,3.933,3.45,3.933a2.973,2.973,0,0,0,3.135-2.483h-.959A2.065,2.065,0,0,1,67.324-.732c-1.487,0-2.468-1.165-2.468-3.076,0-1.882.974-3.076,2.461-3.076a2.11,2.11,0,0,1,2.175,1.677ZM75.637,0c2.234,0,3.574-1.1,3.574-2.9A2.6,2.6,0,0,0,76.729-5.53v-.051a2.389,2.389,0,0,0,1.934-2.38c0-1.56-1.23-2.607-3.047-2.607h-3.8V0ZM72.81-9.683H75.4c1.406,0,2.249.681,2.249,1.831,0,1.245-.937,1.978-2.542,1.978h-2.3Zm0,8.8V-5.01h2.556c1.824,0,2.82.74,2.82,2.058S77.227-.886,75.5-.886ZM83.577.125c2.073,0,3.472-1.516,3.472-3.933s-1.4-3.933-3.472-3.933S80.1-6.233,80.1-3.809,81.5.125,83.577.125Zm0-.857c-1.494,0-2.483-1.143-2.483-3.076s.989-3.076,2.483-3.076,2.49,1.143,2.49,3.076S85.071-.732,83.577-.732Zm7.852.857C93.5.125,94.9-1.392,94.9-3.809s-1.4-3.933-3.472-3.933-3.472,1.509-3.472,3.933S89.355.125,91.428.125Zm0-.857c-1.494,0-2.483-1.143-2.483-3.076s.989-3.076,2.483-3.076,2.49,1.143,2.49,3.076S92.922-.732,91.428-.732Zm5.8-3.281v-6.555h-.974V0h.974V-2.952l.85-.784L101.125,0h1.135L98.774-4.329l3.42-3.289h-1.2Zm9.192-6.555V0h1V-3.984h2.593a3.184,3.184,0,0,0,3.4-3.3,3.169,3.169,0,0,0-3.391-3.289Zm1,.894h2.366a2.3,2.3,0,0,1,2.6,2.4,2.305,2.305,0,0,1-2.6,2.4h-2.366ZM114.778,0h.967V-4.746a1.827,1.827,0,0,1,1.772-2.073,1.961,1.961,0,0,1,.725.11v-.952a2.513,2.513,0,0,0-.6-.081,1.94,1.94,0,0,0-1.926,1.479h-.022V-7.617h-.916Zm7.163.125c2.073,0,3.472-1.516,3.472-3.933s-1.4-3.933-3.472-3.933-3.472,1.509-3.472,3.933S119.868.125,121.941.125Zm0-.857c-1.494,0-2.483-1.143-2.483-3.076s.989-3.076,2.483-3.076,2.49,1.143,2.49,3.076S123.435-.732,121.941-.732Z" transform="translate(1010 651)"/><path class="d" d="M9.7-4.292V-5.31H5.42v.879H8.7v.374A3.148,3.148,0,0,1,5.31-.762c-2.263,0-3.721-1.794-3.721-4.585,0-2.754,1.428-4.46,3.721-4.46A3.251,3.251,0,0,1,8.591-7.39h1.04A4.175,4.175,0,0,0,5.31-10.737C2.424-10.737.564-8.621.564-5.347.564-2.014,2.446.168,5.31.168,8.057.168,9.7-1.5,9.7-4.292ZM12.3-10.569h-1v6.877A3.732,3.732,0,0,0,15.4.168a3.738,3.738,0,0,0,4.094-3.86v-6.877h-1V-3.75A2.839,2.839,0,0,1,15.4-.762,2.843,2.843,0,0,1,12.3-3.75ZM27.839-.908H22.456V-4.966h5.112v-.894H22.456v-3.8h5.383v-.908H21.46V0h6.379ZM28.865-2.82C28.975-1.033,30.52.168,32.776.168c2.292,0,3.8-1.208,3.8-3.083,0-1.465-.872-2.292-3.047-2.783l-1.15-.264c-1.567-.352-2.219-.959-2.219-1.919,0-1.2,1.135-1.948,2.563-1.948a2.372,2.372,0,0,1,2.651,2.014h1c-.059-1.7-1.575-2.922-3.633-2.922s-3.611,1.194-3.611,2.9c0,1.458.879,2.358,2.981,2.827l1.15.256c1.626.374,2.285.974,2.285,1.97,0,1.2-1.135,2.043-2.725,2.043-1.655,0-2.834-.813-2.959-2.08ZM41.748,0V-9.661h3.494v-.908H37.258v.908h3.486V0Z" transform="translate(1010 679)"/><path class="d" d="M4.812,0C7.046,0,8.386-1.1,8.386-2.9A2.6,2.6,0,0,0,5.9-5.53v-.051a2.389,2.389,0,0,0,1.934-2.38c0-1.56-1.23-2.607-3.047-2.607H.989V0ZM1.985-9.683H4.578c1.406,0,2.249.681,2.249,1.831,0,1.245-.937,1.978-2.542,1.978h-2.3Zm0,8.8V-5.01H4.541c1.824,0,2.82.74,2.82,2.058S6.4-.886,4.673-.886ZM14.927-2.161A2.063,2.063,0,0,1,12.766-.725c-1.516,0-2.49-1.069-2.49-2.791v-.059h5.706v-.41c0-2.271-1.274-3.757-3.3-3.757-2.065,0-3.406,1.589-3.406,3.955C9.28-1.37,10.605.125,12.744.125a2.97,2.97,0,0,0,3.142-2.285ZM12.671-6.892a2.338,2.338,0,0,1,2.314,2.549h-4.7A2.437,2.437,0,0,1,12.671-6.892ZM16.963,0h5.662V-.806H18.076V-.828L22.61-6.885v-.732H16.963v.806H21.5v.022L16.963-.718ZM29.055-2.161A2.063,2.063,0,0,1,26.895-.725c-1.516,0-2.49-1.069-2.49-2.791v-.059H30.11v-.41c0-2.271-1.274-3.757-3.3-3.757-2.065,0-3.406,1.589-3.406,3.955,0,2.417,1.326,3.911,3.464,3.911a2.97,2.97,0,0,0,3.142-2.285ZM26.8-6.892a2.338,2.338,0,0,1,2.314,2.549h-4.7A2.437,2.437,0,0,1,26.8-6.892Zm7.471-.85c-1.934,0-3.245,1.56-3.245,3.933s1.3,3.933,3.23,3.933A2.778,2.778,0,0,0,36.87-1.589h.022V2.52h.974V-7.617h-.923v1.611h-.029A2.8,2.8,0,0,0,34.27-7.742Zm.161,7.009c-1.458,0-2.41-1.208-2.41-3.076s.952-3.076,2.41-3.076,2.461,1.238,2.461,3.076S35.874-.732,34.431-.732ZM43.755,0V-4.8H48.6v-.894H43.755v-3.97h5.273v-.908h-6.27V0Zm6.621,0h.967V-4.746a1.827,1.827,0,0,1,1.772-2.073,1.961,1.961,0,0,1,.725.11v-.952a2.513,2.513,0,0,0-.6-.081,1.94,1.94,0,0,0-1.926,1.479h-.022V-7.617h-.916Zm9.338-2.161A2.063,2.063,0,0,1,57.554-.725c-1.516,0-2.49-1.069-2.49-2.791v-.059h5.706v-.41c0-2.271-1.274-3.757-3.3-3.757-2.065,0-3.406,1.589-3.406,3.955,0,2.417,1.326,3.911,3.464,3.911a2.97,2.97,0,0,0,3.142-2.285ZM57.458-6.892a2.338,2.338,0,0,1,2.314,2.549h-4.7A2.437,2.437,0,0,1,57.458-6.892Zm9.873,4.731A2.063,2.063,0,0,1,65.171-.725c-1.516,0-2.49-1.069-2.49-2.791v-.059h5.706v-.41c0-2.271-1.274-3.757-3.3-3.757-2.065,0-3.406,1.589-3.406,3.955,0,2.417,1.326,3.911,3.464,3.911a2.97,2.97,0,0,0,3.142-2.285ZM65.076-6.892A2.338,2.338,0,0,1,67.39-4.343h-4.7A2.437,2.437,0,0,1,65.076-6.892Zm7.683-.71h.967a2.318,2.318,0,0,1,2.461-2.256,2.11,2.11,0,0,1,2.249,2.087c0,.93-.374,1.56-1.89,3.142L72.81-.7V0H79.7V-.894H74.2V-.923l2.827-2.952c1.882-1.941,2.4-2.805,2.4-3.948a3.028,3.028,0,0,0-3.245-2.915A3.213,3.213,0,0,0,72.759-7.6ZM83.276-5.046h1.274c1.685,0,2.725.8,2.717,2.183a2.316,2.316,0,0,1-2.6,2.153c-1.516,0-2.629-.82-2.688-2.029h-.967C81.079-1.047,82.559.168,84.668.168c2.058,0,3.618-1.274,3.618-3.062A2.587,2.587,0,0,0,85.649-5.5V-5.53a2.542,2.542,0,0,0,2.256-2.5c0-1.509-1.26-2.7-3.274-2.7a3.134,3.134,0,0,0-3.4,2.842H82.2a2.215,2.215,0,0,1,2.432-1.963c1.428,0,2.263.806,2.263,1.948A2.126,2.126,0,0,1,84.507-5.9h-1.23ZM94.929,0H95.9V-2.388h1.575v-.886H95.9v-7.31H94.438C92.1-7.31,90.718-5.237,89.568-3.3v.916h5.361ZM90.579-3.3c1.055-1.714,2.388-3.706,4.336-6.4h.015v6.431H90.579ZM101.389,0h.967V-10.569h-.981c-.315.19-2.556,1.772-2.849,1.956V-7.6c.308-.19,2.6-1.758,2.834-1.9h.029Zm6.929.168c2.52,0,4.006-2.139,4.006-5.676,0-4.065-2.168-5.229-3.94-5.229a3.531,3.531,0,0,0-3.669,3.618,3.4,3.4,0,0,0,3.508,3.472,3.221,3.221,0,0,0,3.113-2.021h.022c.015,3.442-1.282,4.958-3.032,4.958a2.321,2.321,0,0,1-2.432-1.729h-1.011A3.266,3.266,0,0,0,108.318.168Zm.066-4.7a2.568,2.568,0,0,1-2.659-2.615,2.644,2.644,0,0,1,2.666-2.688A2.678,2.678,0,0,1,111.079-7.1,2.611,2.611,0,0,1,108.384-4.534Z" transform="translate(1010 706)"/></g></svg>