<svg xmlns="http://www.w3.org/2000/svg" xmlns:xlink="http://www.w3.org/1999/xlink" width="446.295" height="111.839" viewBox="0 0 446.295 111.839"><defs><style>.a{fill:#fff;}.b{fill:#333;}.c{fill:#77fffb;}.d{fill:#4d4d4d;}.e{fill:none;}.f{filter:url(#a);}</style><filter id="a" x="0" y="0" width="446.295" height="111.839" filterUnits="userSpaceOnUse"><feOffset dy="3" input="SourceAlpha"/><feGaussianBlur stdDeviation="5" result="b"/><feFlood flood-opacity="0.349"/><feComposite operator="in" in2="b"/><feComposite in="SourceGraphic"/></filter></defs><g transform="translate(14.657 12)"><g class="f" transform="matrix(1, 0, 0, 1, -14.66, -12)"><rect class="a" width="416.295" height="81.839" transform="translate(15 12)"/></g><path class="b" d="M13.96-28.171v-1.48H8.44v2h2.851l-.009.209a2.829,2.829,0,0,1-3.087,2.724c-2.179,0-3.559-1.734-3.559-4.576,0-2.787,1.3-4.431,3.459-4.431a2.957,2.957,0,0,1,3,2.188h2.751C13.452-34.191,11.146-36,8.086-36c-3.85,0-6.247,2.542-6.247,6.737,0,4.258,2.4,6.81,6.31,6.81C11.8-22.451,13.96-24.6,13.96-28.171Zm6.233,5.711c2.942,0,4.821-1.879,4.821-5.084,0-3.16-1.907-5.066-4.821-5.066s-4.821,1.916-4.821,5.066C15.372-24.349,17.251-22.46,20.193-22.46Zm0-2.025c-1.307,0-2.134-1.1-2.134-3.051,0-1.934.844-3.051,2.134-3.051s2.125,1.117,2.125,3.051C22.318-25.584,21.491-24.485,20.193-24.485ZM31.029-22.46c2.942,0,4.821-1.879,4.821-5.084,0-3.16-1.907-5.066-4.821-5.066s-4.821,1.916-4.821,5.066C26.208-24.349,28.087-22.46,31.029-22.46Zm0-2.025c-1.307,0-2.134-1.1-2.134-3.051,0-1.934.844-3.051,2.134-3.051s2.125,1.117,2.125,3.051C33.154-25.584,32.328-24.485,31.029-24.485ZM41.847-19c2.914,0,4.857-1.489,4.857-3.8v-9.6H44.09v1.7h-.045a3.193,3.193,0,0,0-3.005-1.852c-2.47,0-3.995,1.9-3.995,4.985,0,3.042,1.571,4.876,3.95,4.876A3.176,3.176,0,0,0,44-24.44h.054v1.707c0,1.126-.763,1.879-2.134,1.879a1.929,1.929,0,0,1-1.979-1.126h-2.6C37.553-20.245,39.287-19,41.847-19Zm.045-5.738c-1.317,0-2.134-1.035-2.134-2.815s.826-2.878,2.134-2.878c1.326,0,2.17,1.126,2.17,2.878S43.218-24.739,41.893-24.739Zm6.787,2.07H51.33v-13.1H48.679Zm11.072-2.978a1.938,1.938,0,0,1-1.961,1.226,2.165,2.165,0,0,1-2.234-2.342v-.163h6.71v-.808c0-2.96-1.789-4.876-4.621-4.876-2.878,0-4.694,2.016-4.694,5.121s1.8,5.03,4.794,5.03c2.406,0,4.149-1.28,4.44-3.187Zm-2.079-5a2.02,2.02,0,0,1,2.043,2.1H55.584A2.107,2.107,0,0,1,57.672-30.65ZM67.9-35.771v13.1h2.742V-26.8H73.1a4.356,4.356,0,0,0,4.676-4.485,4.28,4.28,0,0,0-4.54-4.485Zm2.742,2.17h1.861a2.186,2.186,0,0,1,2.479,2.324A2.195,2.195,0,0,1,72.5-28.943H70.646Zm8.766,10.932h2.651v-13.1H79.412Zm7.513.154a3.348,3.348,0,0,0,2.969-1.643h.054v1.489h2.56v-6.692c0-1.961-1.625-3.25-4.122-3.25-2.579,0-4.186,1.3-4.285,3.187h2.424a1.578,1.578,0,0,1,1.743-1.208c1,0,1.634.527,1.634,1.435v.645l-2.451.145c-2.424.145-3.786,1.171-3.786,2.942A3.01,3.01,0,0,0,86.925-22.515Zm.872-1.916c-.9,0-1.5-.454-1.5-1.18,0-.69.563-1.135,1.553-1.208l2.052-.127v.708A1.944,1.944,0,0,1,87.8-24.431Zm7.813,5.366c2.479,0,3.7-.9,4.531-3.4l3.35-9.942h-2.8l-2.061,7.609h-.054L96.509-32.4H93.6l3.387,9.733c.009.045-.091.427-.091.472-.182.772-.663,1.08-1.625,1.08-.1,0-.581-.009-.672-.027v2.052C94.693-19.074,95.51-19.065,95.61-19.065Z" transform="translate(107.215 56.996)"/><path d="M6.441-19.315a3.809,3.809,0,0,0,4.028-3.877,3.68,3.68,0,0,0-3.79-3.8,3.317,3.317,0,0,0-2.789,1.319H3.867l.453-4.322H9.778v-.969H3.422L2.8-24.535H3.78A3.027,3.027,0,0,1,6.5-26.052a2.8,2.8,0,0,1,2.876,2.884,2.8,2.8,0,0,1-2.924,2.892,2.649,2.649,0,0,1-2.8-2.209H2.6A3.594,3.594,0,0,0,6.441-19.315ZM23.4-19.5h1.144L20.264-30.962h-1.08L14.894-19.5h1.152l1.271-3.511h4.814ZM19.7-29.619h.048l2.058,5.672H17.643ZM29.675-27.9a3.021,3.021,0,0,0-2.844,1.883H26.8V-27.76h-.993v11h1.049V-21.2h.032A2.964,2.964,0,0,0,29.7-19.363c2.074,0,3.5-1.692,3.5-4.266S31.764-27.9,29.675-27.9Zm-.183,7.6c-1.565,0-2.638-1.343-2.638-3.337s1.073-3.337,2.638-3.337c1.6,0,2.63,1.327,2.63,3.337S31.089-20.292,29.492-20.292Zm9.14-7.6a3.021,3.021,0,0,0-2.844,1.883h-.032V-27.76h-.993v11h1.049V-21.2h.032a2.964,2.964,0,0,0,2.812,1.835c2.074,0,3.5-1.692,3.5-4.266S40.721-27.9,38.632-27.9Zm-.183,7.6c-1.565,0-2.638-1.343-2.638-3.337s1.073-3.337,2.638-3.337c1.6,0,2.63,1.327,2.63,3.337S40.046-20.292,38.449-20.292Zm5.1-5.259c0,1.144.739,1.835,2.312,2.2l1.239.294c1.112.27,1.517.667,1.517,1.382,0,.866-.818,1.446-2.058,1.446a1.966,1.966,0,0,1-2.2-1.637H43.315c.143,1.509,1.382,2.5,3.249,2.5,1.8,0,3.114-.993,3.114-2.391,0-1.168-.62-1.8-2.272-2.2l-1.247-.294c-1.1-.262-1.565-.683-1.565-1.359,0-.826.771-1.422,1.9-1.422a1.858,1.858,0,0,1,2.026,1.66h1.009A2.75,2.75,0,0,0,46.493-27.9C44.769-27.9,43.553-26.918,43.553-25.551ZM61.365-27.76H60.316v4.9A2.344,2.344,0,0,1,57.909-20.3a2.007,2.007,0,0,1-2.161-2.272V-27.76H54.691v5.37a2.763,2.763,0,0,0,2.916,3.027,2.837,2.837,0,0,0,2.741-1.668h.024V-19.5h.993Zm5.843-.135a3.021,3.021,0,0,0-2.844,1.883h-.032V-27.76h-.993v11h1.049V-21.2h.032a2.964,2.964,0,0,0,2.812,1.835c2.074,0,3.5-1.692,3.5-4.266S69.3-27.9,67.208-27.9Zm-.183,7.6c-1.565,0-2.638-1.343-2.638-3.337s1.073-3.337,2.638-3.337c1.6,0,2.63,1.327,2.63,3.337S68.622-20.292,67.025-20.292Zm8.393.93a3.043,3.043,0,0,0,2.86-1.883H78.3V-19.5h1V-30.962H78.246v4.9h-.024A2.986,2.986,0,0,0,75.394-27.9c-2.074,0-3.511,1.692-3.511,4.266S73.329-19.363,75.418-19.363Zm.183-7.6c1.573,0,2.653,1.343,2.653,3.337s-1.08,3.337-2.653,3.337c-1.589,0-2.638-1.319-2.638-3.337S74.012-26.966,75.6-26.966Zm8.195,7.6a3.078,3.078,0,0,0,2.82-1.708h.024V-19.5h1v-5.656c0-1.684-1.184-2.741-3.067-2.741s-3.1,1.049-3.218,2.526h1.017a1.974,1.974,0,0,1,2.177-1.6,1.814,1.814,0,0,1,2.042,1.907v.715l-2.574.159c-1.907.127-2.963.985-2.963,2.4A2.465,2.465,0,0,0,83.8-19.363Zm.215-.906c-1.12,0-1.891-.62-1.891-1.517,0-.914.723-1.478,2.026-1.565l2.447-.167v.914A2.442,2.442,0,0,1,84.01-20.268Zm6.01-9.557v2.066H88.788v.874H90.02v5.355c0,1.494.556,2.081,1.938,2.081a6.563,6.563,0,0,0,.779-.048v-.9c-.064.016-.461.032-.572.032-.763,0-1.1-.365-1.1-1.216v-5.307H92.7v-.874H91.068v-2.066Zm9.76,7.984a2.237,2.237,0,0,1-2.344,1.557c-1.645,0-2.7-1.16-2.7-3.027v-.064h6.189v-.445c0-2.463-1.382-4.076-3.575-4.076-2.24,0-3.694,1.724-3.694,4.29,0,2.622,1.438,4.242,3.758,4.242a3.221,3.221,0,0,0,3.408-2.479Zm-2.447-5.132a2.536,2.536,0,0,1,2.51,2.765h-5.1A2.643,2.643,0,0,1,97.333-26.974Zm8.282,7.611a3.043,3.043,0,0,0,2.86-1.883h.024V-19.5h1V-30.962h-1.057v4.9h-.024a2.986,2.986,0,0,0-2.828-1.835c-2.074,0-3.511,1.692-3.511,4.266S103.525-19.363,105.615-19.363Zm.183-7.6c1.573,0,2.653,1.343,2.653,3.337s-1.08,3.337-2.653,3.337c-1.589,0-2.638-1.319-2.638-3.337S104.208-26.966,105.8-26.966Zm6.669,7.539a.732.732,0,0,0,.739-.739.734.734,0,0,0-.739-.747.741.741,0,0,0-.747.747A.739.739,0,0,0,112.467-19.426Z" transform="translate(106.739 78.741)"/><rect class="c" width="81.933" height="81.839" transform="translate(0 0)"/><path class="d" d="M.393,0H.66V-2.123A1.149,1.149,0,0,1,1.818-3.37a1.021,1.021,0,0,1,1.094,1.1V0h.267V-2.3a1.22,1.22,0,0,0-1.3-1.306,1.242,1.242,0,0,0-1.23.827H.643v-.772H.393ZM5.7.055A1.616,1.616,0,0,0,7.285-1.777,1.616,1.616,0,0,0,5.7-3.609,1.613,1.613,0,0,0,4.117-1.777,1.613,1.613,0,0,0,5.7.055Zm0-.239c-.79,0-1.316-.6-1.316-1.593S4.91-3.37,5.7-3.37s1.319.6,1.319,1.593S6.489-.185,5.7-.185Zm6.854-3.37h-.28L11.364-.294h-.01l-.988-3.261h-.3L9.074-.294H9.067L8.155-3.555H7.878L8.91,0h.314l.984-3.213h.01L11.21,0h.308Z" transform="translate(382.942 25.297)"/><path class="e" d="M-1630.035-2844.475h29.4v29.4h-29.4Z" transform="translate(1655.535 2870.693)"/><g transform="translate(28.997 27.851)"><path class="b" d="M-1618.256-2789.356c-.186-.171-.49-.143-.659-.408.614-.606,1.235-1.216,1.851-1.83q4.626-4.611,9.243-9.234c.293-.294.431-.283.71.005,1.2,1.237,2.427,2.448,3.683,3.708l-14.065,7.759Z" transform="translate(1619.535 2815.492)"/><path class="b" d="M-1620.59-2812.235v-21.576l.136-.109a1.751,1.751,0,0,0,.218.368q5.1,5.1,10.219,10.191c.2.2.384.314.07.628q-5.275,5.276-10.517,10.586Z" transform="translate(1620.59 2836.196)"/><path class="b" d="M-1603.413-2832.122a2.881,2.881,0,0,0-.238.194c-1.209,1.2-2.42,2.4-3.618,3.615-.209.212-.323.24-.55.012q-5.517-5.524-11.057-11.026c-.281-.279-.182-.391.09-.533a1.786,1.786,0,0,1,1.81.09c1.768.989,3.543,1.965,5.314,2.947q3.939,2.184,7.875,4.37C-1603.655-2832.379-1603.472-2832.358-1603.413-2832.122Z" transform="translate(1619.616 2840.065)"/><path class="b" d="M-1574.018-2812.135a1.6,1.6,0,0,1-.812,1.4c-1.763,1-3.539,1.971-5.306,2.961a.291.291,0,0,1-.415-.065q-1.976-1.986-3.97-3.955c-.208-.2-.139-.305.028-.471q2.03-2.009,4.042-4.036a.383.383,0,0,1,.557-.055c1.625.911,3.256,1.812,4.885,2.715A1.74,1.74,0,0,1-1574.018-2812.135Z" transform="translate(1597.957 2825.196)"/></g></g></svg>