<svg xmlns="http://www.w3.org/2000/svg" xmlns:xlink="http://www.w3.org/1999/xlink" width="446.295" height="111.839" viewBox="0 0 446.295 111.839"><defs><style>.a{fill:#fff;}.b,.g{fill:#77fffb;}.c,.e{fill:#333;}.d{fill:#4d4d4d;}.f,.g{stroke:none;}.h{filter:url(#a);}</style><filter id="a" x="0" y="0" width="446.295" height="111.839" filterUnits="userSpaceOnUse"><feOffset dy="3" input="SourceAlpha"/><feGaussianBlur stdDeviation="5" result="b"/><feFlood flood-opacity="0.349"/><feComposite operator="in" in2="b"/><feComposite in="SourceGraphic"/></filter></defs><g transform="translate(14.657 12)"><g class="h" transform="matrix(1, 0, 0, 1, -14.66, -12)"><rect class="a" width="416.295" height="81.839" transform="translate(15 12)"/></g><rect class="b" width="81.933" height="81.839" transform="translate(0 0)"/><g transform="translate(-98.98 22.069)"><g transform="translate(128)"><path class="c" d="M143.29,20.684V6.116a6.116,6.116,0,1,0-12.232,0V20.684a9.174,9.174,0,1,0,12.232,0Zm-6.116,12.954A6.116,6.116,0,0,1,133.1,22.963l1.019-.912V6.116a3.058,3.058,0,1,1,6.116,0V22.051l1.019.912a6.116,6.116,0,0,1-4.077,10.675Z" transform="translate(-128)"/></g><g transform="translate(135.645 12.232)"><rect class="c" width="3.058" height="18.348"/></g><g transform="translate(132.587 22.935)"><circle class="c" cx="4.587" cy="4.587" r="4.587"/></g></g><path class="d" d="M.393,0H.66V-2.123A1.149,1.149,0,0,1,1.818-3.37a1.021,1.021,0,0,1,1.094,1.1V0h.267V-2.3a1.22,1.22,0,0,0-1.3-1.306,1.242,1.242,0,0,0-1.23.827H.643v-.772H.393ZM5.7.055A1.616,1.616,0,0,0,7.285-1.777,1.616,1.616,0,0,0,5.7-3.609,1.613,1.613,0,0,0,4.117-1.777,1.613,1.613,0,0,0,5.7.055Zm0-.239c-.79,0-1.316-.6-1.316-1.593S4.91-3.37,5.7-3.37s1.319.6,1.319,1.593S6.489-.185,5.7-.185Zm6.854-3.37h-.28L11.364-.294h-.01l-.988-3.261h-.3L9.074-.294H9.067L8.155-3.555H7.878L8.91,0h.314l.984-3.213h.01L11.21,0h.308Z" transform="translate(382.942 25.297)"/><g transform="translate(40.95 42.746)"><g class="e" transform="translate(1627.199 797.713)"><path class="f" d="M -1610.2548828125 -780.3384399414062 L -1625.878173828125 -780.3384399414062 C -1626.734497070312 -780.3384399414062 -1627.490600585938 -780.7596435546875 -1627.900756835938 -781.4652099609375 C -1628.309692382812 -782.1688232421875 -1628.300170898438 -783.03515625 -1627.875122070312 -783.7825927734375 L -1620.056518554688 -797.5119018554688 C -1619.62841796875 -798.263916015625 -1618.884399414062 -798.7129516601562 -1618.06640625 -798.7129516601562 C -1617.249755859375 -798.7129516601562 -1616.505859375 -798.2637939453125 -1616.076538085938 -797.5114135742188 L -1608.258178710938 -783.7806396484375 C -1607.83349609375 -783.0337524414062 -1607.82373046875 -782.16845703125 -1608.23193359375 -781.465576171875 C -1608.642700195312 -780.759521484375 -1609.398803710938 -780.3384399414062 -1610.2548828125 -780.3384399414062 Z M -1618.1181640625 -792.3191528320312 C -1618.164184570312 -792.3191528320312 -1618.20166015625 -792.28173828125 -1618.20166015625 -792.2357788085938 L -1618.20166015625 -788.3350219726562 C -1618.20166015625 -788.2888793945312 -1618.164184570312 -788.2512817382812 -1618.1181640625 -788.2512817382812 C -1618.072021484375 -788.2512817382812 -1618.034423828125 -788.2888793945312 -1618.034423828125 -788.3350219726562 L -1618.034423828125 -792.2357788085938 C -1618.034423828125 -792.28173828125 -1618.072021484375 -792.3191528320312 -1618.1181640625 -792.3191528320312 Z"/><path class="g" d="M -1610.2548828125 -781.3384399414062 C -1609.7568359375 -781.3384399414062 -1609.323974609375 -781.5770874023438 -1609.0966796875 -781.9677124023438 C -1608.86962890625 -782.3587036132812 -1608.881103515625 -782.8530883789062 -1609.127197265625 -783.2858276367188 L -1616.945068359375 -797.0158081054688 C -1617.193603515625 -797.4513549804688 -1617.612548828125 -797.7129516601562 -1618.06640625 -797.7129516601562 C -1618.5205078125 -797.7129516601562 -1618.939453125 -797.4528198242188 -1619.1875 -797.0170288085938 L -1627.005859375 -783.2882690429688 C -1627.251953125 -782.8555297851562 -1627.263427734375 -782.3587036132812 -1627.0361328125 -781.9677124023438 C -1626.80908203125 -781.5770874023438 -1626.3759765625 -781.3384399414062 -1625.878173828125 -781.3384399414062 L -1610.2548828125 -781.3384399414062 M -1618.06640625 -786.0270385742188 C -1617.468017578125 -786.0270385742188 -1616.98291015625 -785.5418090820312 -1616.98291015625 -784.9432983398438 C -1616.98291015625 -784.3450317382812 -1617.468017578125 -783.8599243164062 -1618.06640625 -783.8599243164062 C -1618.6650390625 -783.8599243164062 -1619.14990234375 -784.3450317382812 -1619.14990234375 -784.9432983398438 C -1619.14990234375 -785.5418090820312 -1618.6650390625 -786.0270385742188 -1618.06640625 -786.0270385742188 M -1618.1181640625 -793.3191528320312 C -1617.51953125 -793.3191528320312 -1617.034423828125 -792.8340454101562 -1617.034423828125 -792.2357788085938 L -1617.034423828125 -788.3350219726562 C -1617.034423828125 -787.7366333007812 -1617.51953125 -787.2512817382812 -1618.1181640625 -787.2512817382812 C -1618.71630859375 -787.2512817382812 -1619.20166015625 -787.7366333007812 -1619.20166015625 -788.3350219726562 L -1619.20166015625 -792.2357788085938 C -1619.20166015625 -792.8340454101562 -1618.71630859375 -793.3191528320312 -1618.1181640625 -793.3191528320312 M -1610.2548828125 -779.3384399414062 L -1625.878173828125 -779.3384399414062 C -1627.094848632812 -779.3384399414062 -1628.174072265625 -779.9456176757812 -1628.765258789062 -780.962646484375 C -1629.346435546875 -781.9623413085938 -1629.33837890625 -783.2323608398438 -1628.744384765625 -784.2769165039062 L -1620.925415039062 -798.0067749023438 C -1620.3173828125 -799.0750122070312 -1619.24853515625 -799.7129516601562 -1618.06640625 -799.7129516601562 C -1616.886108398438 -799.7129516601562 -1615.817504882812 -799.0752563476562 -1615.2080078125 -798.0070190429688 L -1607.38916015625 -784.2754516601562 C -1606.786254882812 -783.21533203125 -1606.778198242188 -781.9774780273438 -1607.3671875 -780.96337890625 C -1607.95947265625 -779.9453125 -1609.038696289062 -779.3384399414062 -1610.2548828125 -779.3384399414062 Z"/></g></g><path class="c" d="M6.367,0V-9.911h3.47v-2.067H.4v2.067H3.86V0Zm8.761-2.723A1.771,1.771,0,0,1,13.335-1.6a1.979,1.979,0,0,1-2.042-2.142v-.149h6.134v-.739c0-2.706-1.635-4.458-4.225-4.458-2.631,0-4.292,1.843-4.292,4.682s1.644,4.6,4.383,4.6c2.2,0,3.793-1.17,4.059-2.914ZM13.227-7.3a1.846,1.846,0,0,1,1.868,1.917H11.318A1.927,1.927,0,0,1,13.227-7.3ZM18.842,0h2.424V-5.371A1.547,1.547,0,0,1,22.81-7.064a1.359,1.359,0,0,1,1.436,1.519V0h2.333V-5.4a1.511,1.511,0,0,1,1.527-1.66c.938,0,1.453.564,1.453,1.594V0h2.424V-6.076a2.791,2.791,0,0,0-2.914-2.988A2.819,2.819,0,0,0,26.3-7.238h-.05a2.364,2.364,0,0,0-2.482-1.826,2.612,2.612,0,0,0-2.54,1.776h-.05V-8.9H18.842ZM38.885-9.04a2.9,2.9,0,0,0-2.756,1.693h-.05V-8.9H33.688v11.8h2.424v-4.4h.05A2.916,2.916,0,0,0,38.926.141c2.225,0,3.6-1.727,3.6-4.59S41.142-9.04,38.885-9.04Zm-.813,7.23c-1.187,0-1.967-1.029-1.967-2.64,0-1.594.78-2.648,1.967-2.648,1.212,0,1.976,1.038,1.976,2.648S39.283-1.81,38.071-1.81Zm11.766-.913A1.771,1.771,0,0,1,48.044-1.6,1.979,1.979,0,0,1,46-3.744v-.149h6.134v-.739c0-2.706-1.635-4.458-4.225-4.458-2.631,0-4.292,1.843-4.292,4.682S45.263.191,48,.191c2.2,0,3.793-1.17,4.059-2.914ZM47.936-7.3A1.846,1.846,0,0,1,49.8-5.379H46.027A1.927,1.927,0,0,1,47.936-7.3ZM53.552,0h2.424V-4.972a1.772,1.772,0,0,1,1.893-1.984,2.494,2.494,0,0,1,.88.141V-8.948a2.469,2.469,0,0,0-.689-.091A2.124,2.124,0,0,0,55.942-7.3h-.05V-8.9H53.552Zm8.786.141a3.061,3.061,0,0,0,2.714-1.5h.05V0h2.341V-6.118c0-1.793-1.486-2.972-3.769-2.972-2.357,0-3.827,1.187-3.918,2.914h2.216a1.443,1.443,0,0,1,1.594-1.1c.913,0,1.494.481,1.494,1.312v.589l-2.241.133c-2.216.133-3.461,1.071-3.461,2.689A2.751,2.751,0,0,0,62.338.141Zm.8-1.751c-.822,0-1.37-.415-1.37-1.079,0-.631.515-1.038,1.419-1.1l1.876-.116v.647A1.777,1.777,0,0,1,63.135-1.61Zm6.686-9.338V-8.9H68.567v1.826h1.253V-2.4c0,1.735.813,2.432,2.905,2.432a5.572,5.572,0,0,0,1.154-.1V-1.851a3.923,3.923,0,0,1-.589.042c-.714,0-1.046-.324-1.046-1V-7.072h1.644V-8.9H72.245v-2.05ZM83.6-8.9H81.18v5.1a1.737,1.737,0,0,1-1.751,1.951c-1.071,0-1.66-.631-1.66-1.818V-8.9H75.345v5.736a3.046,3.046,0,0,0,3.2,3.329A2.644,2.644,0,0,0,81.214-1.6h.05V0H83.6ZM85.351,0h2.424V-4.972a1.772,1.772,0,0,1,1.893-1.984,2.494,2.494,0,0,1,.88.141V-8.948a2.469,2.469,0,0,0-.689-.091A2.124,2.124,0,0,0,87.742-7.3h-.05V-8.9H85.351ZM97.308-2.723A1.771,1.771,0,0,1,95.515-1.6a1.979,1.979,0,0,1-2.042-2.142v-.149h6.134v-.739c0-2.706-1.635-4.458-4.225-4.458-2.631,0-4.292,1.843-4.292,4.682s1.644,4.6,4.383,4.6c2.2,0,3.793-1.17,4.059-2.914ZM95.408-7.3a1.846,1.846,0,0,1,1.868,1.917H93.5A1.927,1.927,0,0,1,95.408-7.3Z" transform="translate(107.774 33.744)"/><path d="M1.384,2.754c1.245,0,1.794-.5,2.461-2.292l3-8.079H5.815L3.5-.967H3.479L1.165-7.617H.125L2.974.051l-.2.571c-.337.952-.718,1.3-1.421,1.3A2.122,2.122,0,0,1,.9,1.882V2.71A3.029,3.029,0,0,0,1.384,2.754Zm9.5-2.629c2.073,0,3.472-1.516,3.472-3.933s-1.4-3.933-3.472-3.933S7.416-6.233,7.416-3.809,8.815.125,10.887.125Zm0-.857C9.393-.732,8.4-1.875,8.4-3.809s.989-3.076,2.483-3.076,2.49,1.143,2.49,3.076S12.381-.732,10.887-.732ZM21.906-7.617H20.94V-3.1A2.161,2.161,0,0,1,18.72-.74a1.851,1.851,0,0,1-1.992-2.095V-7.617h-.974v4.951A2.548,2.548,0,0,0,18.442.125a2.615,2.615,0,0,0,2.527-1.538h.022V0h.916ZM23.726,0h.967V-4.746a1.827,1.827,0,0,1,1.772-2.073,1.961,1.961,0,0,1,.725.11v-.952a2.513,2.513,0,0,0-.6-.081,1.94,1.94,0,0,0-1.926,1.479h-.022V-7.617h-.916Zm11.44-7.742a2.785,2.785,0,0,0-2.622,1.736h-.029V-7.617H31.6V2.52h.967V-1.567H32.6A2.733,2.733,0,0,0,35.188.125c1.912,0,3.223-1.56,3.223-3.933S37.093-7.742,35.167-7.742ZM35-.732c-1.443,0-2.432-1.238-2.432-3.076S33.555-6.885,35-6.885c1.472,0,2.424,1.223,2.424,3.076S36.47-.732,35-.732ZM39.923,0H40.9V-4.482a2.192,2.192,0,0,1,2.256-2.4,1.9,1.9,0,0,1,2.029,2.117V0h.974V-4.922a2.6,2.6,0,0,0-2.725-2.82A2.568,2.568,0,0,0,40.92-6.211H40.9v-4.358h-.974Zm11.1.125c2.073,0,3.472-1.516,3.472-3.933s-1.4-3.933-3.472-3.933-3.472,1.509-3.472,3.933S48.95.125,51.023.125Zm0-.857c-1.494,0-2.483-1.143-2.483-3.076s.989-3.076,2.483-3.076,2.49,1.143,2.49,3.076S52.517-.732,51.023-.732ZM55.934,0H56.9V-4.512a2.168,2.168,0,0,1,2.2-2.366,1.868,1.868,0,0,1,2.007,2.095V0h.967V-4.937a2.55,2.55,0,0,0-2.7-2.805,2.575,2.575,0,0,0-2.512,1.531h-.022V-7.617h-.916ZM69.128-2.161A2.063,2.063,0,0,1,66.968-.725c-1.516,0-2.49-1.069-2.49-2.791v-.059h5.706v-.41c0-2.271-1.274-3.757-3.3-3.757-2.065,0-3.406,1.589-3.406,3.955,0,2.417,1.326,3.911,3.464,3.911a2.97,2.97,0,0,0,3.142-2.285ZM66.872-6.892a2.338,2.338,0,0,1,2.314,2.549h-4.7A2.437,2.437,0,0,1,66.872-6.892ZM74.848,0h.967V-4.512a2.168,2.168,0,0,1,2.2-2.366,1.868,1.868,0,0,1,2.007,2.095V0h.967V-4.937a2.55,2.55,0,0,0-2.7-2.805,2.575,2.575,0,0,0-2.512,1.531h-.022V-7.617h-.916ZM88.043-2.161A2.063,2.063,0,0,1,85.882-.725c-1.516,0-2.49-1.069-2.49-2.791v-.059H89.1v-.41c0-2.271-1.274-3.757-3.3-3.757-2.065,0-3.406,1.589-3.406,3.955C82.4-1.37,83.721.125,85.86.125A2.97,2.97,0,0,0,89-2.161ZM85.787-6.892A2.338,2.338,0,0,1,88.1-4.343H83.4A2.437,2.437,0,0,1,85.787-6.892ZM95.81-2.161A2.063,2.063,0,0,1,93.649-.725c-1.516,0-2.49-1.069-2.49-2.791v-.059h5.706v-.41c0-2.271-1.274-3.757-3.3-3.757-2.065,0-3.406,1.589-3.406,3.955,0,2.417,1.326,3.911,3.464,3.911a2.97,2.97,0,0,0,3.142-2.285ZM93.554-6.892a2.338,2.338,0,0,1,2.314,2.549h-4.7A2.437,2.437,0,0,1,93.554-6.892ZM101.189.125a2.806,2.806,0,0,0,2.637-1.736h.022V0h.923V-10.569H103.8V-6.05h-.022a2.753,2.753,0,0,0-2.607-1.692c-1.912,0-3.237,1.56-3.237,3.933S99.263.125,101.189.125Zm.168-7.009c1.45,0,2.446,1.238,2.446,3.076s-1,3.076-2.446,3.076-2.432-1.216-2.432-3.076S99.893-6.885,101.358-6.885Zm5.145,1.3c0,1.055.681,1.692,2.131,2.029l1.143.271c1.025.249,1.4.615,1.4,1.274,0,.8-.754,1.333-1.9,1.333a1.813,1.813,0,0,1-2.029-1.509h-.967c.132,1.392,1.274,2.307,3,2.307,1.663,0,2.871-.916,2.871-2.2,0-1.077-.571-1.663-2.095-2.029l-1.15-.271c-1.011-.242-1.443-.63-1.443-1.252,0-.762.71-1.311,1.75-1.311a1.713,1.713,0,0,1,1.868,1.531h.93a2.535,2.535,0,0,0-2.8-2.329C107.624-7.742,106.5-6.841,106.5-5.581Zm10.73-3.94v1.9H116.1v.806h1.135v4.937c0,1.377.513,1.919,1.787,1.919A6.051,6.051,0,0,0,119.738,0V-.828c-.059.015-.425.029-.527.029-.7,0-1.011-.337-1.011-1.121V-6.812h1.5v-.806h-1.5v-1.9ZM124.055.125c2.073,0,3.472-1.516,3.472-3.933s-1.4-3.933-3.472-3.933-3.472,1.509-3.472,3.933S121.982.125,124.055.125Zm0-.857c-1.494,0-2.483-1.143-2.483-3.076s.989-3.076,2.483-3.076,2.49,1.143,2.49,3.076S125.549-.732,124.055-.732Zm14.326-4.475a3,3,0,0,0-3.135-2.534c-2.073,0-3.442,1.531-3.442,3.933,0,2.439,1.37,3.933,3.45,3.933a2.973,2.973,0,0,0,3.135-2.483h-.959a2.065,2.065,0,0,1-2.168,1.626c-1.487,0-2.468-1.165-2.468-3.076,0-1.882.974-3.076,2.461-3.076a2.11,2.11,0,0,1,2.175,1.677ZM142.837.125c2.073,0,3.472-1.516,3.472-3.933s-1.4-3.933-3.472-3.933-3.472,1.509-3.472,3.933S140.765.125,142.837.125Zm0-.857c-1.494,0-2.483-1.143-2.483-3.076s.989-3.076,2.483-3.076,2.49,1.143,2.49,3.076S144.332-.732,142.837-.732Zm8,.857c2.073,0,3.472-1.516,3.472-3.933s-1.4-3.933-3.472-3.933-3.472,1.509-3.472,3.933S148.766.125,150.839.125Zm0-.857c-1.494,0-2.483-1.143-2.483-3.076s.989-3.076,2.483-3.076,2.49,1.143,2.49,3.076S152.333-.732,150.839-.732ZM155.816,0h.967V-10.569h-.967Zm8.95.125A2.806,2.806,0,0,0,167.4-1.611h.022V0h.923V-10.569h-.974V-6.05h-.022a2.753,2.753,0,0,0-2.607-1.692c-1.912,0-3.237,1.56-3.237,3.933S162.839.125,164.766.125Zm.168-7.009c1.45,0,2.446,1.238,2.446,3.076s-1,3.076-2.446,3.076S162.5-1.948,162.5-3.809,163.469-6.885,164.934-6.885Zm8.39,7.009c2.073,0,3.472-1.516,3.472-3.933s-1.4-3.933-3.472-3.933-3.472,1.509-3.472,3.933S171.251.125,173.324.125Zm0-.857c-1.494,0-2.483-1.143-2.483-3.076s.989-3.076,2.483-3.076,2.49,1.143,2.49,3.076S174.818-.732,173.324-.732Zm14.4-6.885h-.974l-1.707,6.533h-.022l-1.9-6.533h-.981l-1.9,6.533h-.022L178.52-7.617h-.981L179.707,0h1.025l1.89-6.321h.022L184.541,0h1.025ZM188.858,0h.967V-4.512a2.168,2.168,0,0,1,2.2-2.366,1.868,1.868,0,0,1,2.007,2.095V0H195V-4.937a2.55,2.55,0,0,0-2.7-2.805A2.575,2.575,0,0,0,189.8-6.211h-.022V-7.617h-.916Zm8.822.066a.675.675,0,0,0,.681-.681.677.677,0,0,0-.681-.688.683.683,0,0,0-.688.688A.681.681,0,0,0,197.68.066Z" transform="translate(107.774 58.881)"/></g></svg>