<svg xmlns="http://www.w3.org/2000/svg" xmlns:xlink="http://www.w3.org/1999/xlink" width="446.295" height="111.839" viewBox="0 0 446.295 111.839"><defs><style>.a{fill:#fff;}.b,.e{fill:#333;}.c,.g{fill:#77fffb;}.d{fill:#4d4d4d;}.f,.g{stroke:none;}.h{filter:url(#a);}</style><filter id="a" x="0" y="0" width="446.295" height="111.839" filterUnits="userSpaceOnUse"><feOffset dy="3" input="SourceAlpha"/><feGaussianBlur stdDeviation="5" result="b"/><feFlood flood-opacity="0.349"/><feComposite operator="in" in2="b"/><feComposite in="SourceGraphic"/></filter></defs><g transform="translate(14.657 12)"><g class="h" transform="matrix(1, 0, 0, 1, -14.66, -12)"><rect class="a" width="416.295" height="81.839" transform="translate(15 12)"/></g><path class="b" d="M5.685-22.777v-13.1H2.943v13.1Zm2.138,0h2.651v-5.584a1.928,1.928,0,0,1,1.943-2.134c1.189,0,1.789.726,1.789,2v5.72h2.651v-6.274c0-2.279-1.217-3.641-3.378-3.641a3.075,3.075,0,0,0-3.042,1.916h-.054V-32.51H7.823Zm14.513.154a3.21,3.21,0,0,0,3.033-1.825h.045v1.671h2.615v-13.1H25.378v5.039h-.054a3.129,3.129,0,0,0-2.969-1.825c-2.442,0-3.986,1.916-3.986,5C18.368-24.548,19.9-22.623,22.336-22.623Zm.9-7.917c1.317,0,2.161,1.126,2.161,2.9s-.844,2.887-2.161,2.887c-1.335,0-2.152-1.1-2.152-2.887S21.9-30.54,23.235-30.54Zm11.217,7.972c2.942,0,4.821-1.879,4.821-5.084,0-3.16-1.907-5.066-4.821-5.066s-4.821,1.916-4.821,5.066C29.631-24.457,31.511-22.568,34.452-22.568Zm0-2.025c-1.307,0-2.134-1.1-2.134-3.051,0-1.934.844-3.051,2.134-3.051s2.125,1.117,2.125,3.051C36.577-25.692,35.751-24.593,34.452-24.593Zm10.836,2.025c2.942,0,4.821-1.879,4.821-5.084,0-3.16-1.907-5.066-4.821-5.066s-4.821,1.916-4.821,5.066C40.467-24.457,42.347-22.568,45.288-22.568Zm0-2.025c-1.307,0-2.134-1.1-2.134-3.051,0-1.934.844-3.051,2.134-3.051s2.125,1.117,2.125,3.051C47.413-25.692,46.587-24.593,45.288-24.593Zm6.369,1.816h2.651v-5.439a1.939,1.939,0,0,1,2.07-2.17,2.728,2.728,0,0,1,.962.154v-2.333a2.7,2.7,0,0,0-.754-.1,2.323,2.323,0,0,0-2.315,1.907h-.054V-32.51h-2.56Zm6.859-9.116h2.542a2.152,2.152,0,0,1,2.3-2.143,1.856,1.856,0,0,1,1.988,1.852c0,.908-.372,1.534-2.034,3.132l-4.64,4.394v1.879H68.2v-2.179H62.257v-.054l2.751-2.633c2.215-2.116,3.005-3.105,3.005-4.712,0-2.179-1.852-3.813-4.658-3.813C60.514-36.169,58.517-34.417,58.517-31.893Z" transform="translate(106.863 57.104)"/><path d="M5.685-19.5V-29.977h3.79v-.985H.815v.985H4.6V-19.5Zm5.223,0h1.057V-24.36a2.378,2.378,0,0,1,2.447-2.6,2.061,2.061,0,0,1,2.2,2.3V-19.5h1.057v-5.339A2.814,2.814,0,0,0,14.714-27.9a2.785,2.785,0,0,0-2.725,1.66h-.024v-4.727H10.909Zm9.283-9.978a.7.7,0,0,0,.707-.7.7.7,0,0,0-.707-.7.7.7,0,0,0-.7.7A.7.7,0,0,0,20.192-29.476ZM19.667-19.5h1.049V-27.76H19.667Zm2.927-6.054c0,1.144.739,1.835,2.312,2.2l1.239.294c1.112.27,1.517.667,1.517,1.382,0,.866-.818,1.446-2.058,1.446a1.966,1.966,0,0,1-2.2-1.637H22.356c.143,1.509,1.382,2.5,3.249,2.5,1.8,0,3.114-.993,3.114-2.391,0-1.168-.62-1.8-2.272-2.2L25.2-24.249c-1.1-.262-1.565-.683-1.565-1.359,0-.826.771-1.422,1.9-1.422a1.858,1.858,0,0,1,2.026,1.66h1.009A2.75,2.75,0,0,0,25.534-27.9C23.81-27.9,22.595-26.918,22.595-25.551ZM33.78-19.5h1.049v-4.894a2.352,2.352,0,0,1,2.391-2.566A2.026,2.026,0,0,1,39.4-24.686V-19.5h1.049v-5.355A2.766,2.766,0,0,0,37.522-27.9a2.793,2.793,0,0,0-2.725,1.66h-.024V-27.76H33.78Zm14.312-2.344a2.237,2.237,0,0,1-2.344,1.557c-1.645,0-2.7-1.16-2.7-3.027v-.064h6.189v-.445c0-2.463-1.382-4.076-3.575-4.076-2.24,0-3.694,1.724-3.694,4.29,0,2.622,1.438,4.242,3.758,4.242a3.221,3.221,0,0,0,3.408-2.479Zm-2.447-5.132a2.536,2.536,0,0,1,2.51,2.765h-5.1A2.643,2.643,0,0,1,45.645-26.974Zm5.613-2.852v2.066H50.026v.874h1.231v5.355c0,1.494.556,2.081,1.938,2.081a6.563,6.563,0,0,0,.779-.048v-.9c-.064.016-.461.032-.572.032-.763,0-1.1-.365-1.1-1.216v-5.307h1.629v-.874H52.307v-2.066Zm14.63,2.066H64.831L62.98-20.674h-.024L60.9-27.76H59.834l-2.058,7.086h-.024L55.9-27.76H54.837L57.188-19.5H58.3l2.05-6.856h.024L62.432-19.5h1.112Zm4.58,8.4c2.248,0,3.766-1.645,3.766-4.266S72.716-27.9,70.467-27.9,66.7-26.259,66.7-23.629,68.219-19.363,70.467-19.363Zm0-.93c-1.621,0-2.693-1.239-2.693-3.337s1.073-3.337,2.693-3.337,2.7,1.239,2.7,3.337S72.088-20.292,70.467-20.292Zm5.327.794h1.049v-5.148a1.982,1.982,0,0,1,1.923-2.248,2.127,2.127,0,0,1,.787.119v-1.033A2.726,2.726,0,0,0,78.9-27.9a2.1,2.1,0,0,0-2.089,1.6h-.024v-1.47h-.993Zm6.177-4.354v-7.11H80.914V-19.5h1.057v-3.2l.922-.85L86.2-19.5h1.231l-3.782-4.7,3.71-3.567h-1.3Zm10.2,4.354h1.057V-24.36a2.378,2.378,0,0,1,2.447-2.6,2.061,2.061,0,0,1,2.2,2.3V-19.5h1.057v-5.339A2.814,2.814,0,0,0,95.977-27.9a2.785,2.785,0,0,0-2.725,1.66h-.024v-4.727H92.171Zm11.134.135a3.078,3.078,0,0,0,2.82-1.708h.024V-19.5h1v-5.656c0-1.684-1.184-2.741-3.067-2.741s-3.1,1.049-3.218,2.526h1.017a1.974,1.974,0,0,1,2.177-1.6,1.814,1.814,0,0,1,2.042,1.907v.715l-2.574.159c-1.907.127-2.963.985-2.963,2.4A2.465,2.465,0,0,0,103.305-19.363Zm.215-.906c-1.12,0-1.891-.62-1.891-1.517,0-.914.723-1.478,2.026-1.565l2.447-.167v.914A2.442,2.442,0,0,1,103.52-20.268Zm5.39-5.283c0,1.144.739,1.835,2.312,2.2l1.239.294c1.112.27,1.517.667,1.517,1.382,0,.866-.818,1.446-2.058,1.446a1.966,1.966,0,0,1-2.2-1.637h-1.049c.143,1.509,1.382,2.5,3.249,2.5,1.8,0,3.114-.993,3.114-2.391,0-1.168-.62-1.8-2.272-2.2l-1.247-.294c-1.1-.262-1.565-.683-1.565-1.359,0-.826.771-1.422,1.9-1.422a1.858,1.858,0,0,1,2.026,1.66h1.009a2.75,2.75,0,0,0-3.035-2.526C110.125-27.9,108.91-26.918,108.91-25.551ZM120.1-19.5h1.049v-4.894a2.352,2.352,0,0,1,2.391-2.566,2.026,2.026,0,0,1,2.177,2.272V-19.5h1.049v-5.355a2.766,2.766,0,0,0-2.924-3.043,2.793,2.793,0,0,0-2.725,1.66h-.024V-27.76H120.1Zm11.952.135c2.248,0,3.766-1.645,3.766-4.266S134.3-27.9,132.048-27.9s-3.766,1.637-3.766,4.266S129.8-19.363,132.048-19.363Zm0-.93c-1.621,0-2.693-1.239-2.693-3.337s1.072-3.337,2.693-3.337,2.7,1.239,2.7,3.337S133.669-20.292,132.048-20.292Zm10.065.794V-30.962h-1.08V-19.5Zm2.141,0H145.3v-4.894a2.352,2.352,0,0,1,2.391-2.566,2.026,2.026,0,0,1,2.177,2.272V-19.5h1.049v-5.355A2.766,2.766,0,0,0,148-27.9a2.793,2.793,0,0,0-2.725,1.66h-.024V-27.76h-.993Zm9.053-10.328v2.066h-1.231v.874h1.231v5.355c0,1.494.556,2.081,1.938,2.081a6.564,6.564,0,0,0,.779-.048v-.9c-.064.016-.461.032-.572.032-.763,0-1.1-.365-1.1-1.216v-5.307h1.629v-.874h-1.629v-2.066Zm9.76,7.984a2.237,2.237,0,0,1-2.344,1.557c-1.645,0-2.7-1.16-2.7-3.027v-.064h6.189v-.445c0-2.463-1.382-4.076-3.575-4.076-2.24,0-3.694,1.724-3.694,4.29,0,2.622,1.438,4.242,3.758,4.242a3.221,3.221,0,0,0,3.408-2.479Zm-2.447-5.132a2.536,2.536,0,0,1,2.51,2.765h-5.1A2.643,2.643,0,0,1,160.619-26.974Zm5.16,7.476h1.049v-5.148a1.982,1.982,0,0,1,1.923-2.248,2.127,2.127,0,0,1,.787.119v-1.033a2.726,2.726,0,0,0-.651-.087,2.1,2.1,0,0,0-2.089,1.6h-.024v-1.47h-.993Zm5.049,0h1.049v-4.894a2.352,2.352,0,0,1,2.391-2.566,2.026,2.026,0,0,1,2.177,2.272V-19.5h1.049v-5.355A2.766,2.766,0,0,0,174.57-27.9a2.793,2.793,0,0,0-2.725,1.66h-.024V-27.76h-.993Zm14.312-2.344a2.237,2.237,0,0,1-2.344,1.557c-1.645,0-2.7-1.16-2.7-3.027v-.064h6.189v-.445c0-2.463-1.382-4.076-3.575-4.076-2.24,0-3.694,1.724-3.694,4.29,0,2.622,1.438,4.242,3.758,4.242a3.221,3.221,0,0,0,3.408-2.479Zm-2.447-5.132a2.536,2.536,0,0,1,2.51,2.765h-5.1A2.643,2.643,0,0,1,182.693-26.974Zm5.613-2.852v2.066h-1.231v.874h1.231v5.355c0,1.494.556,2.081,1.938,2.081a6.563,6.563,0,0,0,.779-.048v-.9c-.064.016-.461.032-.572.032-.763,0-1.1-.365-1.1-1.216v-5.307h1.629v-.874h-1.629v-2.066Zm10.272,10.463a3.078,3.078,0,0,0,2.82-1.708h.024V-19.5h1v-5.656c0-1.684-1.184-2.741-3.067-2.741s-3.1,1.049-3.218,2.526h1.017a1.974,1.974,0,0,1,2.177-1.6,1.814,1.814,0,0,1,2.042,1.907v.715l-2.574.159c-1.907.127-2.963.985-2.963,2.4A2.465,2.465,0,0,0,198.577-19.363Zm.215-.906c-1.12,0-1.891-.62-1.891-1.517,0-.914.723-1.478,2.026-1.565l2.447-.167v.914A2.442,2.442,0,0,1,198.792-20.268Zm12.278-4.878a3.251,3.251,0,0,0-3.4-2.749c-2.248,0-3.734,1.66-3.734,4.266,0,2.646,1.486,4.266,3.742,4.266a3.225,3.225,0,0,0,3.4-2.693h-1.041a2.24,2.24,0,0,1-2.352,1.764c-1.613,0-2.677-1.263-2.677-3.337,0-2.042,1.057-3.337,2.669-3.337a2.289,2.289,0,0,1,2.359,1.819Zm8.2,0a3.251,3.251,0,0,0-3.4-2.749c-2.248,0-3.734,1.66-3.734,4.266,0,2.646,1.486,4.266,3.742,4.266a3.225,3.225,0,0,0,3.4-2.693H218.24a2.24,2.24,0,0,1-2.352,1.764c-1.613,0-2.677-1.263-2.677-3.337,0-2.042,1.057-3.337,2.669-3.337a2.289,2.289,0,0,1,2.36,1.819Zm7.194,3.3a2.237,2.237,0,0,1-2.344,1.557c-1.644,0-2.7-1.16-2.7-3.027v-.064h6.189v-.445c0-2.463-1.382-4.076-3.575-4.076-2.24,0-3.694,1.724-3.694,4.29,0,2.622,1.438,4.242,3.758,4.242a3.221,3.221,0,0,0,3.408-2.479Zm-2.447-5.132a2.536,2.536,0,0,1,2.51,2.765h-5.1A2.643,2.643,0,0,1,224.019-26.974Zm4.993,1.422c0,1.144.739,1.835,2.312,2.2l1.239.294c1.112.27,1.517.667,1.517,1.382,0,.866-.818,1.446-2.058,1.446a1.966,1.966,0,0,1-2.2-1.637h-1.049c.143,1.509,1.382,2.5,3.249,2.5,1.8,0,3.114-.993,3.114-2.391,0-1.168-.62-1.8-2.272-2.2l-1.247-.294c-1.1-.262-1.565-.683-1.565-1.359,0-.826.771-1.422,1.9-1.422a1.858,1.858,0,0,1,2.026,1.66h1.009a2.75,2.75,0,0,0-3.035-2.526C230.228-27.9,229.012-26.918,229.012-25.551Zm7.527,0c0,1.144.739,1.835,2.312,2.2l1.239.294c1.112.27,1.517.667,1.517,1.382,0,.866-.818,1.446-2.058,1.446a1.966,1.966,0,0,1-2.2-1.637H236.3c.143,1.509,1.382,2.5,3.249,2.5,1.8,0,3.114-.993,3.114-2.391,0-1.168-.62-1.8-2.272-2.2l-1.247-.294c-1.1-.262-1.565-.683-1.565-1.359,0-.826.771-1.422,1.9-1.422a1.858,1.858,0,0,1,2.026,1.66h1.009a2.75,2.75,0,0,0-3.035-2.526C237.755-27.9,236.539-26.918,236.539-25.551Zm8.346-5.41.072,7.841h.961l.064-7.841Zm.548,11.535a.734.734,0,0,0,.747-.739.736.736,0,0,0-.747-.747.734.734,0,0,0-.739.747A.732.732,0,0,0,245.433-19.426Z" transform="translate(108.203 78.74)"/><rect class="c" width="81.933" height="81.839" transform="translate(0 0)"/><path class="d" d="M.393,0H.66V-2.123A1.149,1.149,0,0,1,1.818-3.37a1.021,1.021,0,0,1,1.094,1.1V0h.267V-2.3a1.22,1.22,0,0,0-1.3-1.306,1.242,1.242,0,0,0-1.23.827H.643v-.772H.393ZM5.7.055A1.616,1.616,0,0,0,7.285-1.777,1.616,1.616,0,0,0,5.7-3.609,1.613,1.613,0,0,0,4.117-1.777,1.613,1.613,0,0,0,5.7.055Zm0-.239c-.79,0-1.316-.6-1.316-1.593S4.91-3.37,5.7-3.37s1.319.6,1.319,1.593S6.489-.185,5.7-.185Zm6.854-3.37h-.28L11.364-.294h-.01l-.988-3.261h-.3L9.074-.294H9.067L8.155-3.555H7.878L8.91,0h.314l.984-3.213h.01L11.21,0h.308Z" transform="translate(382.943 25.297)"/><path class="b" d="M-1632.164-1300.7a2.16,2.16,0,0,0,2.915.156,19.868,19.868,0,0,1,25.144-.016,2.2,2.2,0,0,0,2.946-.14,2.213,2.213,0,0,0-.156-3.273,24.3,24.3,0,0,0-30.693,0A2.2,2.2,0,0,0-1632.164-1300.7Zm12.1,12.1,2.292,2.292a1.552,1.552,0,0,0,2.2,0l2.292-2.292a1.556,1.556,0,0,0-.359-2.479,6.673,6.673,0,0,0-6.095,0A1.578,1.578,0,0,0-1620.067-1288.6Zm-5.814-5.814a2.2,2.2,0,0,0,2.853.2,11.01,11.01,0,0,1,12.72,0,2.219,2.219,0,0,0,2.853-.2l.016-.016a2.172,2.172,0,0,0-.2-3.289,15.447,15.447,0,0,0-18.051,0A2.178,2.178,0,0,0-1625.882-1294.414Z" transform="translate(1657.631 1338.56)"/><g transform="translate(43.988 38.315)"><g class="e" transform="translate(1627.199 797.713)"><path class="f" d="M -1610.2548828125 -780.3384399414062 L -1625.878173828125 -780.3384399414062 C -1626.734497070312 -780.3384399414062 -1627.490600585938 -780.7596435546875 -1627.900756835938 -781.4652099609375 C -1628.309692382812 -782.1688232421875 -1628.300170898438 -783.03515625 -1627.875122070312 -783.7825927734375 L -1620.056518554688 -797.5119018554688 C -1619.62841796875 -798.263916015625 -1618.884399414062 -798.7129516601562 -1618.06640625 -798.7129516601562 C -1617.249755859375 -798.7129516601562 -1616.505859375 -798.2637939453125 -1616.076538085938 -797.5114135742188 L -1608.258178710938 -783.7806396484375 C -1607.83349609375 -783.0337524414062 -1607.82373046875 -782.16845703125 -1608.23193359375 -781.465576171875 C -1608.642700195312 -780.759521484375 -1609.398803710938 -780.3384399414062 -1610.2548828125 -780.3384399414062 Z M -1618.1181640625 -792.3191528320312 C -1618.164184570312 -792.3191528320312 -1618.20166015625 -792.28173828125 -1618.20166015625 -792.2357788085938 L -1618.20166015625 -788.3350219726562 C -1618.20166015625 -788.2888793945312 -1618.164184570312 -788.2512817382812 -1618.1181640625 -788.2512817382812 C -1618.072021484375 -788.2512817382812 -1618.034423828125 -788.2888793945312 -1618.034423828125 -788.3350219726562 L -1618.034423828125 -792.2357788085938 C -1618.034423828125 -792.28173828125 -1618.072021484375 -792.3191528320312 -1618.1181640625 -792.3191528320312 Z"/><path class="g" d="M -1610.2548828125 -781.3384399414062 C -1609.7568359375 -781.3384399414062 -1609.323974609375 -781.5770874023438 -1609.0966796875 -781.9677124023438 C -1608.86962890625 -782.3587036132812 -1608.881103515625 -782.8530883789062 -1609.127197265625 -783.2858276367188 L -1616.945068359375 -797.0158081054688 C -1617.193603515625 -797.4513549804688 -1617.612548828125 -797.7129516601562 -1618.06640625 -797.7129516601562 C -1618.5205078125 -797.7129516601562 -1618.939453125 -797.4528198242188 -1619.1875 -797.0170288085938 L -1627.005859375 -783.2882690429688 C -1627.251953125 -782.8555297851562 -1627.263427734375 -782.3587036132812 -1627.0361328125 -781.9677124023438 C -1626.80908203125 -781.5770874023438 -1626.3759765625 -781.3384399414062 -1625.878173828125 -781.3384399414062 L -1610.2548828125 -781.3384399414062 M -1618.06640625 -786.0270385742188 C -1617.468017578125 -786.0270385742188 -1616.98291015625 -785.5418090820312 -1616.98291015625 -784.9432983398438 C -1616.98291015625 -784.3450317382812 -1617.468017578125 -783.8599243164062 -1618.06640625 -783.8599243164062 C -1618.6650390625 -783.8599243164062 -1619.14990234375 -784.3450317382812 -1619.14990234375 -784.9432983398438 C -1619.14990234375 -785.5418090820312 -1618.6650390625 -786.0270385742188 -1618.06640625 -786.0270385742188 M -1618.1181640625 -793.3191528320312 C -1617.51953125 -793.3191528320312 -1617.034423828125 -792.8340454101562 -1617.034423828125 -792.2357788085938 L -1617.034423828125 -788.3350219726562 C -1617.034423828125 -787.7366333007812 -1617.51953125 -787.2512817382812 -1618.1181640625 -787.2512817382812 C -1618.71630859375 -787.2512817382812 -1619.20166015625 -787.7366333007812 -1619.20166015625 -788.3350219726562 L -1619.20166015625 -792.2357788085938 C -1619.20166015625 -792.8340454101562 -1618.71630859375 -793.3191528320312 -1618.1181640625 -793.3191528320312 M -1610.2548828125 -779.3384399414062 L -1625.878173828125 -779.3384399414062 C -1627.094848632812 -779.3384399414062 -1628.174072265625 -779.9456176757812 -1628.765258789062 -780.962646484375 C -1629.346435546875 -781.9623413085938 -1629.33837890625 -783.2323608398438 -1628.744384765625 -784.2769165039062 L -1620.925415039062 -798.0067749023438 C -1620.3173828125 -799.0750122070312 -1619.24853515625 -799.7129516601562 -1618.06640625 -799.7129516601562 C -1616.886108398438 -799.7129516601562 -1615.817504882812 -799.0752563476562 -1615.2080078125 -798.0070190429688 L -1607.38916015625 -784.2754516601562 C -1606.786254882812 -783.21533203125 -1606.778198242188 -781.9774780273438 -1607.3671875 -780.96337890625 C -1607.95947265625 -779.9453125 -1609.038696289062 -779.3384399414062 -1610.2548828125 -779.3384399414062 Z"/></g></g></g></svg>