<svg xmlns="http://www.w3.org/2000/svg" width="423.3" height="275.2" viewBox="0 0 423.3 275.2"><defs><style>.a{fill:#fff;stroke:#77fffb;stroke-width:7px;}.b{opacity:0.084;}.c{fill:#77fffb;}.d{opacity:0.996;}.e{fill:#535aff;}.f{fill:#ff7ca9;}.g{fill:#ffc917;}.h{fill:#ff414f;}.i{fill:#333;}.j{fill:none;}.k{fill:#4d4d4d;}</style></defs><g transform="translate(-14.157 -11.5)"><g transform="translate(-12.043 -9)"><path class="a" d="M0,0H416.3V268.2H0Z" transform="translate(29.7 24)"/></g><g class="b" transform="translate(5.758 5)"><rect class="c" width="384.95" height="30.7" transform="translate(26.9 101.9)"/><path class="c" d="M26.9,109.923,412.2,106.3V269.087H26.9Z" transform="translate(0 -4.4)"/></g><g class="d" transform="translate(-5787.813 -436.84)"><path class="e" d="M5977.67,625.03h-61.2A61.188,61.188,0,0,1,5963,565.62Z" transform="translate(-69)"/><path class="f" d="M6036.3,607.47l-58.63,17.56,37.76-48.14A61.217,61.217,0,0,1,6036.3,607.47Z" transform="translate(-69)"/><path class="c" d="M6015.43,576.89l-37.76,48.14L5963,565.62a61.2,61.2,0,0,1,52.43,11.27Z" transform="translate(-69)"/><path class="g" d="M6038.86,625.03a60.941,60.941,0,0,1-15.36,40.53l-45.83-40.53Z" transform="translate(-69)"/><path class="h" d="M6023.5,665.56a61.188,61.188,0,0,1-107.03-40.53h61.2Z" transform="translate(-69)"/><path class="i" d="M6038.86,625.03h-61.19l58.63-17.56A60.962,60.962,0,0,1,6038.86,625.03Z" transform="translate(-69)"/><line class="j" y1="0.01" transform="translate(5963 565.61)"/><rect class="i" width="105.77" height="11.638" transform="translate(6060.631 569.091)"/><rect class="c" width="69.038" height="11.638" transform="translate(6060.631 569.091)"/><rect class="i" width="105.77" height="11.638" transform="translate(6060.631 594.435)"/><rect class="f" width="31.262" height="11.638" transform="translate(6060.631 594.435)"/><rect class="i" width="105.77" height="11.638" transform="translate(6060.631 619.211)"/><rect class="e" width="84.147" height="11.638" transform="translate(6060.631 619.211)"/><rect class="i" width="105.77" height="11.638" transform="translate(6060.631 643.988)"/><rect class="g" width="46.551" height="11.638" transform="translate(6060.631 643.988)"/><rect class="i" width="105.77" height="11.638" transform="translate(6060.631 668.764)"/><rect class="h" width="93.102" height="11.638" transform="translate(6060.631 668.764)"/></g><g transform="translate(-50.343 -969)"><g transform="translate(67.532 984.12)"><g transform="translate(0 0)"><path class="i" d="M.54-3.42C.614-1.162,2.515.2,5.371.2c3,0,4.831-1.478,4.831-3.818,0-1.818-1.1-2.839-3.636-3.345L5.3-7.222C3.885-7.5,3.3-7.96,3.3-8.7c0-.88.83-1.461,2.067-1.461,1.262,0,2.15.614,2.233,1.635H9.969c-.042-2.2-1.8-3.661-4.6-3.661C2.706-12.186.8-10.733.8-8.542c0,1.785,1.17,2.93,3.561,3.4l1.262.249c1.5.307,2.067.755,2.067,1.544,0,.88-.913,1.527-2.25,1.527-1.361,0-2.374-.6-2.532-1.6Zm11.8-7.529V-8.9H11.086v1.826h1.253V-2.4c0,1.735.813,2.432,2.905,2.432a5.572,5.572,0,0,0,1.154-.1V-1.851a3.923,3.923,0,0,1-.589.042c-.714,0-1.046-.324-1.046-1V-7.072h1.644V-8.9H14.763v-2.05ZM21.864.191c2.689,0,4.408-1.718,4.408-4.648,0-2.889-1.743-4.632-4.408-4.632s-4.408,1.751-4.408,4.632C17.456-1.536,19.174.191,21.864.191Zm0-1.851c-1.2,0-1.951-1-1.951-2.789,0-1.768.772-2.789,1.951-2.789s1.942,1.021,1.942,2.789C23.806-2.665,23.051-1.66,21.864-1.66ZM27.687,0h2.424V-4.972A1.772,1.772,0,0,1,32-6.956a2.494,2.494,0,0,1,.88.141V-8.948a2.469,2.469,0,0,0-.689-.091A2.124,2.124,0,0,0,30.077-7.3h-.05V-8.9H27.687Zm8.786.141a3.061,3.061,0,0,0,2.714-1.5h.05V0h2.341V-6.118c0-1.793-1.486-2.972-3.769-2.972-2.357,0-3.827,1.187-3.918,2.914h2.216A1.443,1.443,0,0,1,37.7-7.28c.913,0,1.494.481,1.494,1.312v.589l-2.241.133c-2.216.133-3.461,1.071-3.461,2.689A2.751,2.751,0,0,0,36.473.141Zm.8-1.751c-.822,0-1.37-.415-1.37-1.079,0-.631.515-1.038,1.419-1.1L39.2-3.91v.647A1.777,1.777,0,0,1,37.27-1.61ZM47.376,3.354c2.665,0,4.441-1.361,4.441-3.478V-8.9H49.426v1.552h-.042A2.919,2.919,0,0,0,46.637-9.04c-2.258,0-3.652,1.735-3.652,4.557,0,2.781,1.436,4.458,3.611,4.458a2.9,2.9,0,0,0,2.748-1.594h.05V-.058c0,1.029-.7,1.718-1.951,1.718A1.763,1.763,0,0,1,45.633.631H43.259C43.45,2.216,45.035,3.354,47.376,3.354Zm.042-5.246c-1.2,0-1.951-.946-1.951-2.573S46.222-7.1,47.417-7.1c1.212,0,1.984,1.029,1.984,2.631S48.629-1.893,47.417-1.893Zm12.04-.83A1.771,1.771,0,0,1,57.665-1.6a1.979,1.979,0,0,1-2.042-2.142v-.149h6.134v-.739c0-2.706-1.635-4.458-4.225-4.458-2.631,0-4.292,1.843-4.292,4.682s1.644,4.6,4.383,4.6c2.2,0,3.793-1.17,4.059-2.914ZM57.557-7.3a1.846,1.846,0,0,1,1.868,1.917H55.647A1.927,1.927,0,0,1,57.557-7.3Zm9,1.013c0,1.336.872,2.2,2.59,2.565l1.519.315c.872.2,1.179.465,1.179.938,0,.581-.564.955-1.478.955a1.47,1.47,0,0,1-1.668-1.2H66.33c.158,1.751,1.577,2.9,4.034,2.9,2.291,0,3.893-1.154,3.893-2.905,0-1.3-.764-2.034-2.623-2.424l-1.519-.324c-.9-.191-1.229-.5-1.229-.955,0-.589.556-.971,1.395-.971a1.358,1.358,0,0,1,1.511,1.212h2.233c-.05-1.743-1.461-2.914-3.744-2.914C68.015-9.089,66.554-7.977,66.554-6.284ZM80.819-9.04a2.9,2.9,0,0,0-2.756,1.693h-.05V-8.9H75.623v11.8h2.424v-4.4h.05A2.916,2.916,0,0,0,80.861.141c2.225,0,3.6-1.727,3.6-4.59S83.077-9.04,80.819-9.04Zm-.813,7.23c-1.187,0-1.967-1.029-1.967-2.64,0-1.594.78-2.648,1.967-2.648,1.212,0,1.976,1.038,1.976,2.648S81.217-1.81,80.006-1.81ZM88.518.141a3.061,3.061,0,0,0,2.714-1.5h.05V0h2.341V-6.118c0-1.793-1.486-2.972-3.769-2.972-2.357,0-3.827,1.187-3.918,2.914h2.216a1.443,1.443,0,0,1,1.594-1.1c.913,0,1.494.481,1.494,1.312v.589L89-5.246c-2.216.133-3.461,1.071-3.461,2.689A2.751,2.751,0,0,0,88.518.141Zm.8-1.751c-.822,0-1.37-.415-1.37-1.079,0-.631.515-1.038,1.419-1.1l1.876-.116v.647A1.777,1.777,0,0,1,89.315-1.61Zm14.124-3.976a3.708,3.708,0,0,0-4.042-3.5c-2.665,0-4.366,1.776-4.366,4.632,0,2.905,1.7,4.648,4.383,4.648,2.341,0,3.91-1.353,4.034-3.453h-2.258A1.674,1.674,0,0,1,99.437-1.71c-1.2,0-1.951-1-1.951-2.748,0-1.718.747-2.731,1.942-2.731a1.725,1.725,0,0,1,1.76,1.6Zm7.242,2.864A1.771,1.771,0,0,1,108.888-1.6a1.979,1.979,0,0,1-2.042-2.142v-.149h6.134v-.739c0-2.706-1.635-4.458-4.225-4.458-2.631,0-4.292,1.843-4.292,4.682s1.644,4.6,4.383,4.6c2.2,0,3.793-1.17,4.059-2.914ZM108.78-7.3a1.846,1.846,0,0,1,1.868,1.917h-3.777A1.927,1.927,0,0,1,108.78-7.3Z" transform="translate(108.374 32.555)"/><path d="M9.7-4.292V-5.31H5.42v.879H8.7v.374A3.148,3.148,0,0,1,5.31-.762c-2.263,0-3.721-1.794-3.721-4.585,0-2.754,1.428-4.46,3.721-4.46A3.251,3.251,0,0,1,8.591-7.39h1.04A4.175,4.175,0,0,0,5.31-10.737C2.424-10.737.564-8.621.564-5.347.564-2.014,2.446.168,5.31.168,8.057.168,9.7-1.5,9.7-4.292ZM14.4.125c2.073,0,3.472-1.516,3.472-3.933s-1.4-3.933-3.472-3.933-3.472,1.509-3.472,3.933S12.323.125,14.4.125Zm0-.857c-1.494,0-2.483-1.143-2.483-3.076S12.9-6.885,14.4-6.885s2.49,1.143,2.49,3.076S15.89-.732,14.4-.732Zm8,.857c2.073,0,3.472-1.516,3.472-3.933S24.47-7.742,22.4-7.742s-3.472,1.509-3.472,3.933S20.324.125,22.4.125Zm0-.857c-1.494,0-2.483-1.143-2.483-3.076S20.9-6.885,22.4-6.885s2.49,1.143,2.49,3.076S23.891-.732,22.4-.732Zm7.789.857a2.806,2.806,0,0,0,2.637-1.736h.022V0h.923V-10.569h-.974V-6.05h-.022a2.753,2.753,0,0,0-2.607-1.692c-1.912,0-3.237,1.56-3.237,3.933S28.26.125,30.186.125Zm.168-7.009c1.45,0,2.446,1.238,2.446,3.076s-1,3.076-2.446,3.076-2.432-1.216-2.432-3.076S28.89-6.885,30.355-6.885Zm5.9-3.684L36.32-3.34h.886l.059-7.229ZM36.76.066a.677.677,0,0,0,.688-.681A.679.679,0,0,0,36.76-1.3a.677.677,0,0,0-.681.688A.675.675,0,0,0,36.76.066Zm6.7,2.688c1.245,0,1.794-.5,2.461-2.292l3-8.079H47.892L45.578-.967h-.022l-2.314-6.65H42.2L45.05.051l-.2.571c-.337.952-.718,1.3-1.421,1.3a2.122,2.122,0,0,1-.454-.044V2.71A3.029,3.029,0,0,0,43.461,2.754Zm9.5-2.629c2.073,0,3.472-1.516,3.472-3.933s-1.4-3.933-3.472-3.933-3.472,1.509-3.472,3.933S50.891.125,52.964.125Zm0-.857c-1.494,0-2.483-1.143-2.483-3.076s.989-3.076,2.483-3.076,2.49,1.143,2.49,3.076S54.458-.732,52.964-.732ZM63.983-7.617h-.967V-3.1A2.161,2.161,0,0,1,60.8-.74,1.851,1.851,0,0,1,58.8-2.834V-7.617h-.974v4.951A2.548,2.548,0,0,0,60.519.125a2.615,2.615,0,0,0,2.527-1.538h.022V0h.916Zm11.235,2.41a3,3,0,0,0-3.135-2.534c-2.073,0-3.442,1.531-3.442,3.933,0,2.439,1.37,3.933,3.45,3.933a2.973,2.973,0,0,0,3.135-2.483h-.959A2.065,2.065,0,0,1,72.1-.732c-1.487,0-2.468-1.165-2.468-3.076,0-1.882.974-3.076,2.461-3.076a2.11,2.11,0,0,1,2.175,1.677ZM76.65,0h.967V-10.569H76.65Zm8.119-2.161A2.063,2.063,0,0,1,82.608-.725c-1.516,0-2.49-1.069-2.49-2.791v-.059h5.706v-.41c0-2.271-1.274-3.757-3.3-3.757-2.065,0-3.406,1.589-3.406,3.955,0,2.417,1.326,3.911,3.464,3.911a2.97,2.97,0,0,0,3.142-2.285ZM82.513-6.892a2.338,2.338,0,0,1,2.314,2.549h-4.7A2.437,2.437,0,0,1,82.513-6.892ZM89.526.125a2.837,2.837,0,0,0,2.6-1.575h.022V0h.923V-5.215c0-1.553-1.091-2.527-2.827-2.527s-2.856.967-2.966,2.329h.938a1.819,1.819,0,0,1,2.007-1.472A1.672,1.672,0,0,1,92.1-5.127v.659l-2.373.146C87.973-4.2,87-3.413,87-2.109A2.272,2.272,0,0,0,89.526.125Zm.2-.835c-1.033,0-1.743-.571-1.743-1.4s.667-1.362,1.868-1.443L92.1-3.706v.842A2.252,2.252,0,0,1,89.723-.71ZM94.847,0h.967V-4.746a1.827,1.827,0,0,1,1.772-2.073,1.961,1.961,0,0,1,.725.11v-.952a2.513,2.513,0,0,0-.6-.081,1.94,1.94,0,0,0-1.926,1.479h-.022V-7.617h-.916Zm9.488-2.161a2.063,2.063,0,0,1-2.161,1.436c-1.516,0-2.49-1.069-2.49-2.791v-.059h5.706v-.41c0-2.271-1.274-3.757-3.3-3.757-2.065,0-3.406,1.589-3.406,3.955,0,2.417,1.326,3.911,3.464,3.911a2.97,2.97,0,0,0,3.142-2.285Zm-2.256-4.731a2.338,2.338,0,0,1,2.314,2.549h-4.7A2.437,2.437,0,0,1,102.079-6.892ZM109.714.125a2.806,2.806,0,0,0,2.637-1.736h.022V0h.923V-10.569h-.974V-6.05H112.3a2.753,2.753,0,0,0-2.607-1.692c-1.912,0-3.237,1.56-3.237,3.933S107.788.125,109.714.125Zm.168-7.009c1.45,0,2.446,1.238,2.446,3.076s-1,3.076-2.446,3.076-2.432-1.216-2.432-3.076S108.418-6.885,109.883-6.885Zm8.364,1.3c0,1.055.681,1.692,2.131,2.029l1.143.271c1.025.249,1.4.615,1.4,1.274,0,.8-.754,1.333-1.9,1.333a1.813,1.813,0,0,1-2.029-1.509h-.967c.132,1.392,1.274,2.307,3,2.307,1.663,0,2.871-.916,2.871-2.2,0-1.077-.571-1.663-2.095-2.029l-1.15-.271c-1.011-.242-1.443-.63-1.443-1.252,0-.762.71-1.311,1.75-1.311a1.713,1.713,0,0,1,1.868,1.531h.93a2.535,2.535,0,0,0-2.8-2.329C119.367-7.742,118.247-6.841,118.247-5.581Zm10.66-2.161a2.785,2.785,0,0,0-2.622,1.736h-.029V-7.617h-.916V2.52h.967V-1.567h.029A2.733,2.733,0,0,0,128.929.125c1.912,0,3.223-1.56,3.223-3.933S130.833-7.742,128.907-7.742Zm-.168,7.009c-1.443,0-2.432-1.238-2.432-3.076s.989-3.076,2.432-3.076c1.472,0,2.424,1.223,2.424,3.076S130.211-.732,128.739-.732Zm7.115.857a2.837,2.837,0,0,0,2.6-1.575h.022V0h.923V-5.215c0-1.553-1.091-2.527-2.827-2.527s-2.856.967-2.966,2.329h.938a1.819,1.819,0,0,1,2.007-1.472,1.672,1.672,0,0,1,1.882,1.758v.659l-2.373.146c-1.758.117-2.732.908-2.732,2.212A2.272,2.272,0,0,0,135.854.125Zm.2-.835c-1.033,0-1.743-.571-1.743-1.4s.667-1.362,1.868-1.443l2.256-.154v.842A2.252,2.252,0,0,1,136.052-.71Zm11.319-4.5a3,3,0,0,0-3.135-2.534c-2.073,0-3.442,1.531-3.442,3.933,0,2.439,1.37,3.933,3.45,3.933a2.973,2.973,0,0,0,3.135-2.483h-.959a2.065,2.065,0,0,1-2.168,1.626c-1.487,0-2.468-1.165-2.468-3.076,0-1.882.974-3.076,2.461-3.076a2.11,2.11,0,0,1,2.175,1.677ZM154-2.161a2.063,2.063,0,0,1-2.161,1.436c-1.516,0-2.49-1.069-2.49-2.791v-.059h5.706v-.41c0-2.271-1.274-3.757-3.3-3.757-2.065,0-3.406,1.589-3.406,3.955,0,2.417,1.326,3.911,3.464,3.911a2.97,2.97,0,0,0,3.142-2.285Zm-2.256-4.731a2.338,2.338,0,0,1,2.314,2.549h-4.7A2.437,2.437,0,0,1,151.747-6.892ZM160.272-9.2a.647.647,0,0,0,.652-.645.647.647,0,0,0-.652-.645.645.645,0,0,0-.645.645A.645.645,0,0,0,160.272-9.2ZM159.789,0h.967V-7.617h-.967Zm2.853,0h.967V-4.512a2.168,2.168,0,0,1,2.2-2.366,1.868,1.868,0,0,1,2.007,2.095V0h.967V-4.937a2.55,2.55,0,0,0-2.7-2.805,2.575,2.575,0,0,0-2.512,1.531h-.022V-7.617h-.916Zm11.7,2.754c1.245,0,1.794-.5,2.461-2.292l3-8.079h-1.025l-2.314,6.65h-.022l-2.314-6.65h-1.04L175.927.051l-.2.571c-.337.952-.718,1.3-1.421,1.3a2.122,2.122,0,0,1-.454-.044V2.71A3.029,3.029,0,0,0,174.338,2.754Zm9.5-2.629c2.073,0,3.472-1.516,3.472-3.933s-1.4-3.933-3.472-3.933-3.472,1.509-3.472,3.933S181.768.125,183.841.125Zm0-.857c-1.494,0-2.483-1.143-2.483-3.076s.989-3.076,2.483-3.076,2.49,1.143,2.49,3.076S185.335-.732,183.841-.732ZM194.86-7.617h-.967V-3.1A2.161,2.161,0,0,1,191.674-.74a1.851,1.851,0,0,1-1.992-2.095V-7.617h-.974v4.951A2.548,2.548,0,0,0,191.4.125a2.615,2.615,0,0,0,2.527-1.538h.022V0h.916ZM196.68,0h.967V-4.746a1.827,1.827,0,0,1,1.772-2.073,1.961,1.961,0,0,1,.725.11v-.952a2.513,2.513,0,0,0-.6-.081,1.94,1.94,0,0,0-1.926,1.479H197.6V-7.617h-.916Zm11.44-7.742A2.785,2.785,0,0,0,205.5-6.006h-.029V-7.617h-.916V2.52h.967V-1.567h.029A2.733,2.733,0,0,0,208.142.125c1.912,0,3.223-1.56,3.223-3.933S210.047-7.742,208.12-7.742Zm-.168,7.009c-1.443,0-2.432-1.238-2.432-3.076s.989-3.076,2.432-3.076c1.472,0,2.424,1.223,2.424,3.076S209.424-.732,207.952-.732ZM212.877,0h.974V-4.482a2.192,2.192,0,0,1,2.256-2.4,1.9,1.9,0,0,1,2.029,2.117V0h.974V-4.922a2.6,2.6,0,0,0-2.725-2.82,2.568,2.568,0,0,0-2.512,1.531h-.022v-4.358h-.974Zm11.1.125c2.073,0,3.472-1.516,3.472-3.933s-1.4-3.933-3.472-3.933-3.472,1.509-3.472,3.933S221.9.125,223.977.125Zm0-.857c-1.494,0-2.483-1.143-2.483-3.076s.989-3.076,2.483-3.076,2.49,1.143,2.49,3.076S225.471-.732,223.977-.732ZM228.888,0h.967V-4.512a2.168,2.168,0,0,1,2.2-2.366,1.868,1.868,0,0,1,2.007,2.095V0h.967V-4.937a2.55,2.55,0,0,0-2.7-2.805,2.575,2.575,0,0,0-2.512,1.531H229.8V-7.617h-.916Zm13.194-2.161a2.063,2.063,0,0,1-2.161,1.436c-1.516,0-2.49-1.069-2.49-2.791v-.059h5.706v-.41c0-2.271-1.274-3.757-3.3-3.757-2.065,0-3.406,1.589-3.406,3.955,0,2.417,1.326,3.911,3.464,3.911a2.97,2.97,0,0,0,3.142-2.285Zm-2.256-4.731a2.338,2.338,0,0,1,2.314,2.549h-4.7A2.437,2.437,0,0,1,239.826-6.892ZM245.345.066a.675.675,0,0,0,.681-.681.677.677,0,0,0-.681-.688.683.683,0,0,0-.688.688A.681.681,0,0,0,245.345.066Z" transform="translate(108.374 57.692)"/><rect class="c" width="81.933" height="81.839" transform="translate(0)"/><path class="k" d="M.393,0H.66V-2.123A1.149,1.149,0,0,1,1.818-3.37a1.021,1.021,0,0,1,1.094,1.1V0h.267V-2.3a1.22,1.22,0,0,0-1.3-1.306,1.242,1.242,0,0,0-1.23.827H.643v-.772H.393ZM5.7.055A1.616,1.616,0,0,0,7.285-1.777,1.616,1.616,0,0,0,5.7-3.609,1.613,1.613,0,0,0,4.117-1.777,1.613,1.613,0,0,0,5.7.055Zm0-.239c-.79,0-1.316-.6-1.316-1.593S4.91-3.37,5.7-3.37s1.319.6,1.319,1.593S6.489-.185,5.7-.185Zm6.854-3.37h-.28L11.364-.294h-.01l-.988-3.261h-.3L9.074-.294H9.067L8.155-3.555H7.878L8.91,0h.314l.984-3.213h.01L11.21,0h.308Z" transform="translate(382.942 25.297)"/><path class="j" d="M-1630.035-1571.825h29.4v29.4h-29.4Z" transform="translate(1655.535 1598.044)"/></g><path class="i" d="M-1599.835-1563.7h-18.736a2.643,2.643,0,0,0-2.648,2.675l-.013,18.722a2.663,2.663,0,0,0,2.661,2.675h18.736a2.682,2.682,0,0,0,2.674-2.675v-18.722A2.673,2.673,0,0,0-1599.835-1563.7Zm0,16.047h-4.186a1.392,1.392,0,0,0-1.31,1.07,4.02,4.02,0,0,1-3.865,2.942,4.019,4.019,0,0,1-3.865-2.942,1.392,1.392,0,0,0-1.311-1.07h-4.186v-12.036a1.341,1.341,0,0,1,1.338-1.337h16.047a1.341,1.341,0,0,1,1.337,1.337Z" transform="translate(1649.991 1592.926)"/></g></g></g></svg>