<svg xmlns="http://www.w3.org/2000/svg" xmlns:xlink="http://www.w3.org/1999/xlink" width="446.295" height="111.839" viewBox="0 0 446.295 111.839"><defs><style>.a{fill:#fff;}.b{fill:#333;}.c{fill:#77fffb;}.d{fill:#4d4d4d;}.e{fill:none;}.f{filter:url(#a);}</style><filter id="a" x="0" y="0" width="446.295" height="111.839" filterUnits="userSpaceOnUse"><feOffset dy="3" input="SourceAlpha"/><feGaussianBlur stdDeviation="5" result="b"/><feFlood flood-opacity="0.349"/><feComposite operator="in" in2="b"/><feComposite in="SourceGraphic"/></filter></defs><g transform="translate(14.657 12)"><g class="f" transform="matrix(1, 0, 0, 1, -14.66, -12)"><rect class="a" width="416.295" height="81.839" transform="translate(15 12)"/></g><path class="b" d="M5.578-22.777H8.293v-13.1H5.569L2.182-33.527v2.433l3.341-2.27h.054Zm10.972.291c3.123,0,5.311-1.562,5.311-3.832a3.466,3.466,0,0,0-3.051-3.35v-.054a3.089,3.089,0,0,0,2.569-2.914c0-2.052-1.988-3.532-4.83-3.532s-4.839,1.489-4.839,3.523A3.084,3.084,0,0,0,14.3-29.723v.054a3.459,3.459,0,0,0-3.06,3.341C11.239-24.057,13.418-22.487,16.55-22.487Zm0-8.063a1.9,1.9,0,0,1-2.125-1.816A1.905,1.905,0,0,1,16.55-34.19a1.91,1.91,0,0,1,2.125,1.825A1.909,1.909,0,0,1,16.55-30.549Zm0,6.065A2.183,2.183,0,0,1,14.1-26.527a2.181,2.181,0,0,1,2.451-2.025,2.167,2.167,0,0,1,2.442,2.025A2.175,2.175,0,0,1,16.55-24.484Zm8.7,1.816a1.461,1.461,0,0,0,1.462-1.462,1.455,1.455,0,0,0-1.462-1.462,1.449,1.449,0,0,0-1.462,1.462A1.455,1.455,0,0,0,25.253-22.668Zm6.687-5.874h1.5c1.589,0,2.524.708,2.515,1.979,0,1.108-.944,1.87-2.315,1.87-1.444,0-2.388-.726-2.479-1.8H28.544c.118,2.406,2.134,4,5.094,4,3.042,0,5.1-1.58,5.1-3.959,0-1.8-1.271-2.951-3.214-3.132v-.054A3.127,3.127,0,0,0,38.259-32.7c0-2.1-1.87-3.468-4.64-3.468-2.742,0-4.649,1.534-4.785,3.931H31.35a2.026,2.026,0,0,1,2.27-1.825c1.307,0,2.043.681,2.043,1.752s-.89,1.816-2.261,1.816H31.94Zm10.255,5.874a1.461,1.461,0,0,0,1.462-1.462,1.455,1.455,0,0,0-1.462-1.462,1.449,1.449,0,0,0-1.462,1.462A1.455,1.455,0,0,0,42.195-22.668Zm6.015-.109h2.715v-13.1H48.2l-3.387,2.352v2.433l3.341-2.27h.054Zm7.268.109a1.461,1.461,0,0,0,1.462-1.462,1.455,1.455,0,0,0-1.462-1.462,1.449,1.449,0,0,0-1.462,1.462A1.455,1.455,0,0,0,55.478-22.668Zm8.693.109c3.214,0,5.457-1.843,5.765-4.767H67.267A2.958,2.958,0,0,1,64.18-24.82c-2.1,0-3.414-1.725-3.414-4.522,0-2.76,1.335-4.494,3.4-4.494a3.035,3.035,0,0,1,3.087,2.66h2.669c-.209-2.933-2.606-4.93-5.756-4.93-3.8,0-6.2,2.551-6.2,6.773S60.358-22.559,64.171-22.559Zm8.866-.109A1.461,1.461,0,0,0,74.5-24.13a1.455,1.455,0,0,0-1.462-1.462,1.449,1.449,0,0,0-1.462,1.462A1.455,1.455,0,0,0,73.037-22.668Zm6.015-.109h2.715v-13.1H79.043l-3.387,2.352v2.433L79-33.364h.054Zm7.268.109a1.461,1.461,0,0,0,1.462-1.462,1.455,1.455,0,0,0-1.462-1.462,1.449,1.449,0,0,0-1.462,1.462A1.455,1.455,0,0,0,86.32-22.668Zm6.015-.109h2.715v-13.1H92.326l-3.387,2.352v2.433l3.341-2.27h.054Zm6.514,0h2.878l5.466-10.9v-2.206h-9.37V-33.7h6.664v.054Z" transform="translate(106.999 57.104)"/><path d="M3.969-19.5v-9.581h.056L10.77-19.5h1.049V-30.962H10.746v9.573H10.69L3.969-30.962H2.9V-19.5Zm15.7-2.344a2.237,2.237,0,0,1-2.344,1.557c-1.645,0-2.7-1.16-2.7-3.027v-.064h6.189v-.445c0-2.463-1.382-4.076-3.575-4.076-2.24,0-3.694,1.724-3.694,4.29,0,2.622,1.438,4.242,3.758,4.242a3.221,3.221,0,0,0,3.408-2.479Zm-2.447-5.132a2.536,2.536,0,0,1,2.51,2.765h-5.1A2.643,2.643,0,0,1,17.224-26.974ZM32.68-27.76H31.624l-1.851,7.086h-.024L27.691-27.76H26.627l-2.058,7.086h-.024L22.694-27.76H21.629L23.981-19.5h1.112l2.05-6.856h.024L29.224-19.5h1.112Zm4.552,2.209c0,1.144.739,1.835,2.312,2.2l1.239.294c1.112.27,1.517.667,1.517,1.382,0,.866-.818,1.446-2.058,1.446a1.966,1.966,0,0,1-2.2-1.637H36.994c.143,1.509,1.382,2.5,3.249,2.5,1.8,0,3.114-.993,3.114-2.391,0-1.168-.62-1.8-2.272-2.2l-1.247-.294c-1.1-.262-1.565-.683-1.565-1.359,0-.826.771-1.422,1.9-1.422a1.858,1.858,0,0,1,2.026,1.66h1.009A2.75,2.75,0,0,0,40.172-27.9C38.448-27.9,37.232-26.918,37.232-25.551Zm8.29,9.041c1.351,0,1.946-.54,2.669-2.487l3.249-8.763H50.329l-2.51,7.214h-.024l-2.51-7.214H44.156l3.09,8.318-.215.62c-.365,1.033-.779,1.414-1.541,1.414A2.3,2.3,0,0,1,45-17.456v.9A3.285,3.285,0,0,0,45.522-16.511Zm6.955-9.041c0,1.144.739,1.835,2.312,2.2l1.239.294c1.112.27,1.517.667,1.517,1.382,0,.866-.818,1.446-2.058,1.446a1.966,1.966,0,0,1-2.2-1.637H52.239c.143,1.509,1.382,2.5,3.249,2.5,1.8,0,3.114-.993,3.114-2.391,0-1.168-.62-1.8-2.272-2.2l-1.247-.294c-1.1-.262-1.565-.683-1.565-1.359,0-.826.771-1.422,1.9-1.422a1.858,1.858,0,0,1,2.026,1.66h1.009A2.75,2.75,0,0,0,55.417-27.9C53.693-27.9,52.477-26.918,52.477-25.551Zm8.147-4.274v2.066H59.393v.874h1.231v5.355c0,1.494.556,2.081,1.938,2.081a6.563,6.563,0,0,0,.779-.048v-.9c-.064.016-.461.032-.572.032-.763,0-1.1-.365-1.1-1.216v-5.307H63.3v-.874H61.673v-2.066Zm9.76,7.984a2.237,2.237,0,0,1-2.344,1.557c-1.645,0-2.7-1.16-2.7-3.027v-.064h6.189v-.445c0-2.463-1.382-4.076-3.575-4.076-2.24,0-3.694,1.724-3.694,4.29,0,2.622,1.438,4.242,3.758,4.242a3.221,3.221,0,0,0,3.408-2.479Zm-2.447-5.132a2.536,2.536,0,0,1,2.51,2.765h-5.1A2.643,2.643,0,0,1,67.937-26.974ZM73.1-19.5h1.049v-5.077a2.16,2.16,0,0,1,2.089-2.383A1.815,1.815,0,0,1,78.126-25V-19.5h1.057v-5.2a2.074,2.074,0,0,1,2.066-2.256,1.826,1.826,0,0,1,1.915,2.05v5.41h1.049v-5.649A2.545,2.545,0,0,0,81.542-27.9a2.72,2.72,0,0,0-2.606,1.74h-.024a2.384,2.384,0,0,0-2.391-1.74,2.471,2.471,0,0,0-2.407,1.66H74.09V-27.76H73.1ZM96.255-27.76H95.206v4.9A2.344,2.344,0,0,1,92.8-20.3a2.007,2.007,0,0,1-2.161-2.272V-27.76H89.581v5.37A2.763,2.763,0,0,0,92.5-19.363a2.837,2.837,0,0,0,2.741-1.668h.024V-19.5h.993ZM102.1-27.9a3.021,3.021,0,0,0-2.844,1.883h-.032V-27.76h-.993v11h1.049V-21.2h.032a2.964,2.964,0,0,0,2.812,1.835c2.074,0,3.5-1.692,3.5-4.266S104.187-27.9,102.1-27.9Zm-.183,7.6c-1.565,0-2.638-1.343-2.638-3.337s1.073-3.337,2.638-3.337c1.6,0,2.63,1.327,2.63,3.337S103.512-20.292,101.915-20.292Zm8.393.93a3.044,3.044,0,0,0,2.86-1.883h.024V-19.5h1V-30.962h-1.057v4.9h-.024a2.986,2.986,0,0,0-2.828-1.835c-2.074,0-3.511,1.692-3.511,4.266S108.219-19.363,110.308-19.363Zm.183-7.6c1.573,0,2.653,1.343,2.653,3.337s-1.08,3.337-2.653,3.337c-1.589,0-2.638-1.319-2.638-3.337S108.9-26.966,110.491-26.966Zm8.195,7.6a3.078,3.078,0,0,0,2.82-1.708h.024V-19.5h1v-5.656c0-1.684-1.184-2.741-3.067-2.741s-3.1,1.049-3.218,2.526h1.017a1.974,1.974,0,0,1,2.177-1.6,1.814,1.814,0,0,1,2.042,1.907v.715l-2.574.159c-1.907.127-2.963.985-2.963,2.4A2.465,2.465,0,0,0,118.686-19.363Zm.214-.906c-1.12,0-1.891-.62-1.891-1.517,0-.914.723-1.478,2.026-1.565l2.447-.167v.914A2.442,2.442,0,0,1,118.9-20.268Zm6.01-9.557v2.066h-1.231v.874h1.231v5.355c0,1.494.556,2.081,1.938,2.081a6.564,6.564,0,0,0,.779-.048v-.9c-.064.016-.461.032-.572.032-.763,0-1.1-.365-1.1-1.216v-5.307h1.629v-.874h-1.629v-2.066Zm9.76,7.984a2.237,2.237,0,0,1-2.344,1.557c-1.645,0-2.7-1.16-2.7-3.027v-.064h6.189v-.445c0-2.463-1.382-4.076-3.575-4.076-2.24,0-3.694,1.724-3.694,4.29,0,2.622,1.438,4.242,3.758,4.242a3.221,3.221,0,0,0,3.408-2.479Zm-2.447-5.132a2.536,2.536,0,0,1,2.51,2.765h-5.1A2.643,2.643,0,0,1,132.223-26.974Zm11.1,7.611a3.078,3.078,0,0,0,2.82-1.708h.024V-19.5h1v-5.656c0-1.684-1.184-2.741-3.067-2.741s-3.1,1.049-3.218,2.526H141.9a1.974,1.974,0,0,1,2.177-1.6,1.814,1.814,0,0,1,2.042,1.907v.715l-2.574.159c-1.907.127-2.963.985-2.963,2.4A2.465,2.465,0,0,0,143.321-19.363Zm.214-.906c-1.12,0-1.891-.62-1.891-1.517,0-.914.723-1.478,2.026-1.565l2.447-.167v.914A2.442,2.442,0,0,1,143.535-20.268Zm12.04-7.492h-1.1L151.96-20.6h-.024l-2.51-7.158h-1.112l3.075,8.262h1.12Zm3.46,8.4a3.078,3.078,0,0,0,2.82-1.708h.024V-19.5h1v-5.656c0-1.684-1.184-2.741-3.067-2.741s-3.1,1.049-3.218,2.526h1.017a1.974,1.974,0,0,1,2.177-1.6,1.814,1.814,0,0,1,2.042,1.907v.715l-2.574.159c-1.907.127-2.963.985-2.963,2.4A2.465,2.465,0,0,0,159.035-19.363Zm.214-.906c-1.12,0-1.891-.62-1.891-1.517,0-.914.723-1.478,2.026-1.565l2.447-.167v.914A2.442,2.442,0,0,1,159.249-20.268Zm6.153-9.208a.7.7,0,0,0,.707-.7.7.7,0,0,0-.707-.7.7.7,0,0,0-.7.7A.7.7,0,0,0,165.4-29.476Zm-.524,9.978h1.049V-27.76h-1.049Zm3.166,0h1.049V-30.962h-1.049Zm5.541.135a3.078,3.078,0,0,0,2.82-1.708h.024V-19.5h1v-5.656c0-1.684-1.184-2.741-3.067-2.741s-3.1,1.049-3.218,2.526h1.017a1.974,1.974,0,0,1,2.177-1.6,1.814,1.814,0,0,1,2.042,1.907v.715l-2.574.159c-1.907.127-2.963.985-2.963,2.4A2.465,2.465,0,0,0,173.585-19.363Zm.214-.906c-1.12,0-1.891-.62-1.891-1.517,0-.914.723-1.478,2.026-1.565l2.447-.167v.914A2.442,2.442,0,0,1,173.8-20.268Zm9.529.906c2.081,0,3.5-1.692,3.5-4.266S185.41-27.9,183.336-27.9a2.984,2.984,0,0,0-2.828,1.859h-.024v-4.926h-1.057V-19.5h1.009v-1.748h.024A3.024,3.024,0,0,0,183.328-19.363Zm-.2-7.6c1.589,0,2.614,1.319,2.614,3.337s-1.025,3.337-2.614,3.337c-1.557,0-2.653-1.351-2.653-3.337S181.581-26.966,183.13-26.966Zm5.335,7.468h1.049V-30.962h-1.049Zm8.806-2.344a2.237,2.237,0,0,1-2.344,1.557c-1.645,0-2.7-1.16-2.7-3.027v-.064h6.189v-.445c0-2.463-1.382-4.076-3.575-4.076-2.24,0-3.694,1.724-3.694,4.29,0,2.622,1.438,4.242,3.758,4.242a3.221,3.221,0,0,0,3.408-2.479Zm-2.447-5.132a2.536,2.536,0,0,1,2.51,2.765h-5.1A2.643,2.643,0,0,1,194.824-26.974Z" transform="translate(106.55 78.74)"/><rect class="c" width="81.933" height="81.839" transform="translate(0 0)"/><path class="d" d="M.393,0H.66V-2.123A1.149,1.149,0,0,1,1.818-3.37a1.021,1.021,0,0,1,1.094,1.1V0h.267V-2.3a1.22,1.22,0,0,0-1.3-1.306,1.242,1.242,0,0,0-1.23.827H.643v-.772H.393ZM5.7.055A1.616,1.616,0,0,0,7.285-1.777,1.616,1.616,0,0,0,5.7-3.609,1.613,1.613,0,0,0,4.117-1.777,1.613,1.613,0,0,0,5.7.055Zm0-.239c-.79,0-1.316-.6-1.316-1.593S4.91-3.37,5.7-3.37s1.319.6,1.319,1.593S6.489-.185,5.7-.185Zm6.854-3.37h-.28L11.364-.294h-.01l-.988-3.261h-.3L9.074-.294H9.067L8.155-3.555H7.878L8.91,0h.314l.984-3.213h.01L11.21,0h.308Z" transform="translate(382.942 25.297)"/><path class="e" d="M-1630.035-2589.945h29.4v29.4h-29.4Z" transform="translate(1655.535 2616.163)"/><path class="b" d="M-1596.723-2586.625l-12.251-.012a2.457,2.457,0,0,0-2.45,2.451v22.051a2.458,2.458,0,0,0,2.45,2.451h12.251a2.458,2.458,0,0,0,2.45-2.451v-22.051A2.447,2.447,0,0,0-1596.723-2586.625Zm0,22.039h-12.251v-17.151h12.251Zm-2.707-7.35h-2.193v-4.9a1.229,1.229,0,0,0-1.225-1.225,1.229,1.229,0,0,0-1.225,1.225v4.9h-2.193a.606.606,0,0,0-.429,1.041l3.418,3.418a.606.606,0,0,0,.87,0l3.418-3.418A.612.612,0,0,0-1599.431-2571.936Z" transform="translate(1643.815 2614.08)"/></g></svg>