<svg xmlns="http://www.w3.org/2000/svg" width="1796.62" height="191.975" viewBox="0 0 1796.62 191.975"><defs><style>.a{fill:none;stroke:#ff414f;stroke-miterlimit:10;stroke-width:2px;}</style></defs><g transform="translate(1 1)"><path class="a" d="M509.766,1539.822c0,30.343-23.9,54.618-78.987,54.618H209.061v-184.7H420.386c55.083,0,72.058,19,72.058,46.966,0,11.874-7.275,24.01-19.054,34.565C494.523,1502.883,509.766,1519.769,509.766,1539.822ZM299.134,1474.65h83.144c9.007,0,20.093,0,20.093-10.026s-11.086-10.027-20.093-10.027H299.134Zm120.559,59.9c0-9.763-11.086-9.763-20.093-9.763H299.134v19.525H399.6C408.607,1544.308,419.693,1544.308,419.693,1534.545Z" transform="translate(-209.061 -1407.104)"/><path class="a" d="M1122.915,1462.513v17.15H1289.2v44.855H1122.915v17.151H1289.2v52.771H1032.842v-184.7H1289.2v52.771Z" transform="translate(-721.747 -1407.104)"/><path class="a" d="M2004.863,1536.392v58.048H1755.431v-184.7H1845.5v126.65Z" transform="translate(-1171.456 -1407.104)"/><path class="a" d="M2434.274,1496.348c0-64.117,45.729-94.724,152.431-94.724,106.355,0,152.431,30.871,152.431,94.724,0,64.116-46.075,95.251-152.431,95.251C2480,1591.6,2434.274,1560.728,2434.274,1496.348Zm214.789,0c0-19.261-9.007-36.676-62.358-36.676s-62.358,17.15-62.358,36.676c0,19.789,9.354,37.2,62.358,37.2S2649.063,1515.873,2649.063,1496.348Z" transform="translate(-1593.938 -1401.624)"/><path class="a" d="M3597.781,1409.742v184.7H3479.994l-104.623-108.971V1594.44H3285.3v-184.7h117.788l104.623,108.972V1409.742Z" transform="translate(-2123.58 -1407.104)"/><path class="a" d="M4303.038,1488.432h157.28V1588.96h-51.965l-6.582-26.649c-20.44,18.206-52.312,29.288-103.238,29.288-89.38,0-142.038-30.871-142.038-95.251,0-64.117,52.658-94.724,152.43-94.724,97,0,147.581,25.858,151.392,76.253h-92.15c-3.465-9.5-21.133-18.205-59.241-18.205-53.351,0-62.357,17.15-62.357,39.314,0,22.428,9.354,42.48,62.357,42.48,34.645,0,55.776-3.694,59.241-16.1h-65.13Z" transform="translate(-2665.776 -1401.624)"/></g></svg>