<svg xmlns="http://www.w3.org/2000/svg" xmlns:xlink="http://www.w3.org/1999/xlink" width="446.295" height="111.839" viewBox="0 0 446.295 111.839"><defs><style>.a{fill:#fff;}.b,.g{fill:#333;}.b{font-size:17px;font-family:SFProDisplay-Bold, SF Pro Display;font-weight:700;}.c{font-size:15px;font-family:SFProDisplay-Light, SF Pro Display;font-weight:300;}.d{fill:#ffc917;}.e{fill:#4d4d4d;font-size:7px;font-family:SFProDisplay-Thin, SF Pro Display;font-weight:200;letter-spacing:0.05em;}.f{fill:none;}.h{filter:url(#a);}</style><filter id="a" x="0" y="0" width="446.295" height="111.839" filterUnits="userSpaceOnUse"><feOffset dy="3" input="SourceAlpha"/><feGaussianBlur stdDeviation="5" result="b"/><feFlood flood-opacity="0.349"/><feComposite operator="in" in2="b"/><feComposite in="SourceGraphic"/></filter></defs><g transform="translate(14.657 12)"><g class="h" transform="matrix(1, 0, 0, 1, -14.66, -12)"><rect class="a" width="416.295" height="81.839" transform="translate(15 12)"/></g><text class="b" transform="translate(108.374 32.555)"><tspan x="0" y="0">Twitter</tspan></text><text class="c" transform="translate(108.374 57.692)"><tspan x="0" y="0">Amanda Ashish Retweeted your tweet.</tspan></text><rect class="d" width="81.933" height="81.839"/><text class="e" transform="translate(382.943 25.297)"><tspan x="0" y="0">now</tspan></text><path class="f" d="M-4445.169-3361.011h29.4v29.4h-29.4Z" transform="translate(4470.668 3387.229)"/><path class="g" d="M-4423.956-3354.362v-.005h1.414l.516.1a5.485,5.485,0,0,1,.937.264,6.58,6.58,0,0,1,.815.38,7.939,7.939,0,0,1,.715.443,4.42,4.42,0,0,1,.569.473.793.793,0,0,0,.78.13,10.369,10.369,0,0,0,1.141-.34q.611-.217,1.209-.489t.729-.345l.136-.082,0-.008.028-.014.026-.014.028-.013.027-.014.006-.008.008-.005.008-.005.006-.009.027-.008.027-.006-.005.04-.008.041-.014.04-.014.041-.013.027-.014.027-.014.04a.873.873,0,0,0-.027.109,4.6,4.6,0,0,1-.259.543,6.708,6.708,0,0,1-.611.965,4.74,4.74,0,0,1-.657.74q-.294.252-.389.353a1.2,1.2,0,0,1-.231.19l-.136.09-.027.013-.027.014-.006.008-.008.005-.008.005-.006.008-.027.014-.027.014-.005.008-.008.005-.009.006,0,.008-.006.008-.009.006-.007.005-.005.008h.136l.761-.163a13.522,13.522,0,0,0,1.454-.394l.733-.244.082-.027.04-.014.027-.013.027-.014.027-.013.027-.014.054-.008.054-.005v.054l-.014.006-.013.007-.006.009-.007.006-.009.006-.006.008,0,.009-.008.006-.008.005-.006.008-.006.008-.007.006-.014.027-.014.027-.008.005q-.005.008-.345.462a3.826,3.826,0,0,1-.367.462c-.018.005-.043.032-.076.082a7.988,7.988,0,0,1-.576.605,13.813,13.813,0,0,1-1.038.943,1.285,1.285,0,0,0-.516,1.021q-.009.6-.063,1.364t-.2,1.644a19.531,19.531,0,0,1-.462,2,18.164,18.164,0,0,1-.761,2.174,16.931,16.931,0,0,1-.937,1.9q-.489.843-.9,1.427t-.829,1.1q-.421.517-1.065,1.163t-.706.706q-.063.06-.533.445t-1.006.778a11.6,11.6,0,0,1-.983.644q-.448.259-1.081.59a12.957,12.957,0,0,1-1.365.62q-.733.284-1.549.53a14.154,14.154,0,0,1-1.576.38q-.761.136-1.725.231l-.965.1v.013h-1.767v-.013l-.231-.014c-.154-.009-.28-.018-.379-.027s-.476-.059-1.129-.149-1.163-.181-1.534-.272-.924-.262-1.658-.516a16.157,16.157,0,0,1-1.882-.769q-.78-.386-.979-.489t-.44-.25l-.244-.15-.006-.008-.007-.006-.008-.005-.006-.008-.027-.013-.027-.014,0-.008-.008-.005-.008-.006-.006-.008-.006-.008-.008-.005h-.013v-.054l.027.005.027.008.122.014q.122.014.666.041t1.155,0a12.276,12.276,0,0,0,1.25-.122,14.044,14.044,0,0,0,1.508-.326,11.2,11.2,0,0,0,1.6-.549q.725-.321,1.033-.478a10.094,10.094,0,0,0,.929-.576l.625-.422,0-.008.008-.005.008-.005.006-.009,0-.009.008-.005.008-.006.005-.008.027-.008.027-.005.006-.027.008-.027.008-.005,0-.008-.217-.014-.421-.027a4.084,4.084,0,0,1-.638-.122,6.157,6.157,0,0,1-.938-.326,7.278,7.278,0,0,1-.979-.516,4.828,4.828,0,0,1-.687-.5q-.209-.2-.542-.555a5.537,5.537,0,0,1-.578-.741,6.827,6.827,0,0,1-.467-.878l-.226-.495-.014-.041-.013-.041-.008-.027-.006-.027.041.006.041.008.3.041a6.661,6.661,0,0,0,.938.027,7.159,7.159,0,0,0,.883-.054c.162-.027.263-.045.3-.054l.054-.014.069-.013.067-.014.006-.008.008-.005.008-.005.006-.008-.055-.014-.054-.014-.055-.013-.054-.013-.054-.014c-.037-.009-.1-.027-.19-.054s-.335-.127-.734-.3a5.617,5.617,0,0,1-.951-.5,6.577,6.577,0,0,1-.674-.535,7.754,7.754,0,0,1-.7-.756,5.462,5.462,0,0,1-.68-1.074,6.555,6.555,0,0,1-.448-1.168,6.344,6.344,0,0,1-.2-1.127l-.049-.57.027.005.027.008.027.014.027.013.027.013.027.014.421.19a5.274,5.274,0,0,0,1.046.326q.625.137.747.15l.123.014h.245l-.006-.008-.008-.006-.008-.005-.005-.008,0-.008-.008-.006-.008-.005-.006-.008-.027-.014-.027-.013,0-.008-.009-.006-.008-.005-.006-.008-.026-.014-.028-.013,0-.008-.234-.174a3.633,3.633,0,0,1-.468-.443q-.244-.271-.489-.571A4.367,4.367,0,0,1-4442-3347a7.671,7.671,0,0,1-.4-.864,6.144,6.144,0,0,1-.318-1.051,6.02,6.02,0,0,1-.122-1.046,6.616,6.616,0,0,1,.027-.883,5.721,5.721,0,0,1,.163-.828,6.373,6.373,0,0,1,.354-.979l.23-.516.013-.041.014-.04.008-.006,0-.008.006-.008.008-.006.009.006,0,.008.005.008.009.006.008.005.005.008.005.008.008.005.014.027.014.027.008.005.005.008.367.408q.367.407.869.91a5.155,5.155,0,0,0,.557.522.394.394,0,0,1,.136.125,5.438,5.438,0,0,0,.543.481q.461.381,1.209.883t1.657.992a16.242,16.242,0,0,0,1.956.883q1.046.394,1.468.516t1.439.313q1.019.191,1.536.245c.343.036.58.057.706.062l.191.006-.005-.041-.008-.041-.055-.339a6.415,6.415,0,0,1-.054-.951,6.226,6.226,0,0,1,.095-1.128,6.78,6.78,0,0,1,.285-1.047,5.616,5.616,0,0,1,.372-.85,8.663,8.663,0,0,1,.484-.725,5.955,5.955,0,0,1,.774-.843,5.74,5.74,0,0,1,1.087-.774,7.113,7.113,0,0,1,1.127-.516,5.306,5.306,0,0,1,.87-.231A2.961,2.961,0,0,0-4423.956-3354.362Z" transform="translate(4469.989 3383.045)"/></g></svg>