<svg xmlns="http://www.w3.org/2000/svg" xmlns:xlink="http://www.w3.org/1999/xlink" width="446.295" height="111.839" viewBox="0 0 446.295 111.839"><defs><style>.a{fill:#fff;}.b,.f{fill:#333;}.c,.h{fill:#ffc917;}.d{fill:#4d4d4d;}.e{fill:none;}.g,.h{stroke:none;}.i{filter:url(#a);}</style><filter id="a" x="0" y="0" width="446.295" height="111.839" filterUnits="userSpaceOnUse"><feOffset dy="3" input="SourceAlpha"/><feGaussianBlur stdDeviation="5" result="b"/><feFlood flood-opacity="0.349"/><feComposite operator="in" in2="b"/><feComposite in="SourceGraphic"/></filter></defs><g transform="translate(14.657 12)"><g class="i" transform="matrix(1, 0, 0, 1, -14.66, -12)"><rect class="a" width="416.295" height="81.839" transform="translate(15 12)"/></g><path class="b" d="M6.906,0V-4.474l4.175-7.5H8.392L5.7-6.865H5.645L2.963-11.978H.232L4.4-4.474V0Zm7.446.191c2.689,0,4.408-1.718,4.408-4.648,0-2.889-1.743-4.632-4.408-4.632S9.944-7.338,9.944-4.458C9.944-1.536,11.663.191,14.352.191Zm0-1.851c-1.2,0-1.951-1-1.951-2.789,0-1.768.772-2.789,1.951-2.789s1.942,1.021,1.942,2.789C16.294-2.665,15.539-1.66,14.352-1.66ZM28.223-8.9H25.8v5.1a1.737,1.737,0,0,1-1.751,1.951c-1.071,0-1.66-.631-1.66-1.818V-8.9H19.963v5.736a3.046,3.046,0,0,0,3.2,3.329A2.644,2.644,0,0,0,25.832-1.6h.05V0h2.341Zm2.225-2.05V-8.9H29.194v1.826h1.253V-2.4c0,1.735.813,2.432,2.905,2.432a5.572,5.572,0,0,0,1.154-.1V-1.851a3.923,3.923,0,0,1-.589.042c-.714,0-1.046-.324-1.046-1V-7.072h1.644V-8.9H32.871v-2.05ZM44.061-8.9H41.637v5.1a1.737,1.737,0,0,1-1.751,1.951c-1.071,0-1.66-.631-1.66-1.818V-8.9H35.8v5.736a3.046,3.046,0,0,0,3.2,3.329A2.644,2.644,0,0,0,41.67-1.6h.05V0h2.341ZM50.925.141c2.241,0,3.611-1.727,3.611-4.59s-1.378-4.59-3.619-4.59a2.894,2.894,0,0,0-2.748,1.685h-.05v-4.624H45.7V0h2.391V-1.527h.05A2.934,2.934,0,0,0,50.925.141ZM50.087-7.1c1.2,0,1.967,1.029,1.967,2.648S51.3-1.81,50.087-1.81c-1.179,0-1.976-1.029-1.976-2.64C48.111-6.043,48.917-7.1,50.087-7.1Zm11.6,4.375A1.771,1.771,0,0,1,59.89-1.6a1.979,1.979,0,0,1-2.042-2.142v-.149h6.134v-.739c0-2.706-1.635-4.458-4.225-4.458-2.631,0-4.292,1.843-4.292,4.682s1.644,4.6,4.383,4.6c2.2,0,3.793-1.17,4.059-2.914ZM59.782-7.3A1.846,1.846,0,0,1,61.65-5.379H57.873A1.927,1.927,0,0,1,59.782-7.3Zm6.1-4.682.2,8.035h2.092l.2-8.035ZM67.128.208a1.317,1.317,0,0,0,1.353-1.3,1.317,1.317,0,0,0-1.353-1.3,1.317,1.317,0,0,0-1.353,1.3A1.317,1.317,0,0,0,67.128.208Z" transform="translate(108.374 32.555)"/><path d="M2.922-5.046H4.2c1.685,0,2.725.8,2.717,2.183A2.316,2.316,0,0,1,4.314-.71c-1.516,0-2.629-.82-2.688-2.029H.659C.725-1.047,2.2.168,4.314.168c2.058,0,3.618-1.274,3.618-3.062A2.587,2.587,0,0,0,5.3-5.5V-5.53a2.542,2.542,0,0,0,2.256-2.5c0-1.509-1.26-2.7-3.274-2.7A3.134,3.134,0,0,0,.879-7.9h.967A2.215,2.215,0,0,1,4.277-9.858c1.428,0,2.263.806,2.263,1.948A2.126,2.126,0,0,1,4.153-5.9H2.922Zm12.763-2.7a2.785,2.785,0,0,0-2.622,1.736h-.029V-7.617h-.916V2.52h.967V-1.567h.029A2.733,2.733,0,0,0,15.707.125c1.912,0,3.223-1.56,3.223-3.933S17.612-7.742,15.685-7.742ZM15.517-.732c-1.443,0-2.432-1.238-2.432-3.076s.989-3.076,2.432-3.076c1.472,0,2.424,1.223,2.424,3.076S16.989-.732,15.517-.732Zm9.751-1.428A2.063,2.063,0,0,1,23.107-.725c-1.516,0-2.49-1.069-2.49-2.791v-.059h5.706v-.41c0-2.271-1.274-3.757-3.3-3.757-2.065,0-3.406,1.589-3.406,3.955,0,2.417,1.326,3.911,3.464,3.911a2.97,2.97,0,0,0,3.142-2.285ZM23.012-6.892a2.338,2.338,0,0,1,2.314,2.549h-4.7A2.437,2.437,0,0,1,23.012-6.892ZM30.484.125c2.073,0,3.472-1.516,3.472-3.933s-1.4-3.933-3.472-3.933-3.472,1.509-3.472,3.933S28.412.125,30.484.125Zm0-.857C28.99-.732,28-1.875,28-3.809s.989-3.076,2.483-3.076,2.49,1.143,2.49,3.076S31.978-.732,30.484-.732Zm8.1-7.009a2.785,2.785,0,0,0-2.622,1.736h-.029V-7.617H35.02V2.52h.967V-1.567h.029A2.733,2.733,0,0,0,38.609.125c1.912,0,3.223-1.56,3.223-3.933S40.513-7.742,38.587-7.742ZM38.418-.732c-1.443,0-2.432-1.238-2.432-3.076s.989-3.076,2.432-3.076c1.472,0,2.424,1.223,2.424,3.076S39.891-.732,38.418-.732ZM42.969,0h.967V-10.569h-.967Zm7.744-2.161A2.063,2.063,0,0,1,48.552-.725c-1.516,0-2.49-1.069-2.49-2.791v-.059h5.706v-.41c0-2.271-1.274-3.757-3.3-3.757-2.065,0-3.406,1.589-3.406,3.955,0,2.417,1.326,3.911,3.464,3.911a2.97,2.97,0,0,0,3.142-2.285ZM48.457-6.892a2.338,2.338,0,0,1,2.314,2.549h-4.7A2.437,2.437,0,0,1,48.457-6.892Zm8.376-3.677h-1v6.877A3.732,3.732,0,0,0,59.923.168a3.738,3.738,0,0,0,4.094-3.86v-6.877h-1V-3.75A2.839,2.839,0,0,1,59.923-.762,2.843,2.843,0,0,1,56.832-3.75ZM65.609,0h.967V-4.512a2.168,2.168,0,0,1,2.2-2.366,1.868,1.868,0,0,1,2.007,2.095V0h.967V-4.937a2.55,2.55,0,0,0-2.7-2.805,2.575,2.575,0,0,0-2.512,1.531h-.022V-7.617h-.916Zm7.619,0h.967V-10.569h-.967Zm3.027-9.2a.647.647,0,0,0,.652-.645.647.647,0,0,0-.652-.645.645.645,0,0,0-.645.645A.645.645,0,0,0,76.255-9.2ZM75.772,0h.967V-7.617h-.967Zm3.518-4.014v-6.555h-.974V0h.974V-2.952l.85-.784L83.186,0h1.135L80.835-4.329l3.42-3.289h-1.2ZM89.912-2.161A2.063,2.063,0,0,1,87.751-.725c-1.516,0-2.49-1.069-2.49-2.791v-.059h5.706v-.41c0-2.271-1.274-3.757-3.3-3.757-2.065,0-3.406,1.589-3.406,3.955,0,2.417,1.326,3.911,3.464,3.911a2.97,2.97,0,0,0,3.142-2.285ZM87.656-6.892A2.338,2.338,0,0,1,89.97-4.343h-4.7A2.437,2.437,0,0,1,87.656-6.892ZM94.916.125a2.806,2.806,0,0,0,2.637-1.736h.022V0H98.5V-10.569h-.974V-6.05H97.5a2.753,2.753,0,0,0-2.607-1.692c-1.912,0-3.237,1.56-3.237,3.933S92.99.125,94.916.125Zm.168-7.009c1.45,0,2.446,1.238,2.446,3.076s-1,3.076-2.446,3.076-2.432-1.216-2.432-3.076S93.62-6.885,95.084-6.885ZM103.4,2.754c1.245,0,1.794-.5,2.461-2.292l3-8.079h-1.025l-2.314,6.65H105.5l-2.314-6.65h-1.04L104.991.051l-.2.571c-.337.952-.718,1.3-1.421,1.3a2.122,2.122,0,0,1-.454-.044V2.71A3.029,3.029,0,0,0,103.4,2.754ZM112.53.125C114.6.125,116-1.392,116-3.809s-1.4-3.933-3.472-3.933-3.472,1.509-3.472,3.933S110.457.125,112.53.125Zm0-.857c-1.494,0-2.483-1.143-2.483-3.076s.989-3.076,2.483-3.076,2.49,1.143,2.49,3.076S114.024-.732,112.53-.732Zm10.644-6.885h-.967V-3.1A2.161,2.161,0,0,1,119.988-.74,1.851,1.851,0,0,1,118-2.834V-7.617h-.974v4.951A2.548,2.548,0,0,0,119.709.125a2.615,2.615,0,0,0,2.527-1.538h.022V0h.916ZM124.619,0h.967V-4.746a1.827,1.827,0,0,1,1.772-2.073,1.961,1.961,0,0,1,.725.11v-.952a2.513,2.513,0,0,0-.6-.081,1.94,1.94,0,0,0-1.926,1.479h-.022V-7.617h-.916Zm13.1-7.617h-1.011l-2.322,6.6h-.022l-2.314-6.6h-1.025L133.859,0h1.033ZM138.995-9.2a.647.647,0,0,0,.652-.645.647.647,0,0,0-.652-.645.645.645,0,0,0-.645.645A.645.645,0,0,0,138.995-9.2ZM138.512,0h.967V-7.617h-.967Zm5.356.125A2.806,2.806,0,0,0,146.5-1.611h.022V0h.923V-10.569h-.974V-6.05h-.022a2.753,2.753,0,0,0-2.607-1.692c-1.912,0-3.237,1.56-3.237,3.933S141.941.125,143.868.125Zm.168-7.009c1.45,0,2.446,1.238,2.446,3.076s-1,3.076-2.446,3.076S141.6-1.948,141.6-3.809,142.571-6.885,144.036-6.885Zm10.19,4.724a2.063,2.063,0,0,1-2.161,1.436c-1.516,0-2.49-1.069-2.49-2.791v-.059h5.706v-.41c0-2.271-1.274-3.757-3.3-3.757-2.065,0-3.406,1.589-3.406,3.955,0,2.417,1.326,3.911,3.464,3.911a2.97,2.97,0,0,0,3.142-2.285ZM151.97-6.892a2.338,2.338,0,0,1,2.314,2.549h-4.7A2.437,2.437,0,0,1,151.97-6.892ZM159.443.125c2.073,0,3.472-1.516,3.472-3.933s-1.4-3.933-3.472-3.933-3.472,1.509-3.472,3.933S157.37.125,159.443.125Zm0-.857c-1.494,0-2.483-1.143-2.483-3.076s.989-3.076,2.483-3.076,2.49,1.143,2.49,3.076S160.937-.732,159.443-.732Zm5.136-9.836.066,7.229h.886l.059-7.229ZM165.085.066a.677.677,0,0,0,.688-.681.679.679,0,0,0-.688-.688.677.677,0,0,0-.681.688A.675.675,0,0,0,165.085.066Z" transform="translate(108.374 57.692)"/><rect class="c" width="81.933" height="81.839" transform="translate(0)"/><path class="d" d="M.393,0H.66V-2.123A1.149,1.149,0,0,1,1.818-3.37a1.021,1.021,0,0,1,1.094,1.1V0h.267V-2.3a1.22,1.22,0,0,0-1.3-1.306,1.242,1.242,0,0,0-1.23.827H.643v-.772H.393ZM5.7.055A1.616,1.616,0,0,0,7.285-1.777,1.616,1.616,0,0,0,5.7-3.609,1.613,1.613,0,0,0,4.117-1.777,1.613,1.613,0,0,0,5.7.055Zm0-.239c-.79,0-1.316-.6-1.316-1.593S4.91-3.37,5.7-3.37s1.319.6,1.319,1.593S6.489-.185,5.7-.185Zm6.854-3.37h-.28L11.364-.294h-.01l-.988-3.261h-.3L9.074-.294H9.067L8.155-3.555H7.878L8.91,0h.314l.984-3.213h.01L11.21,0h.308Z" transform="translate(382.943 25.297)"/><path class="e" d="M-4445.631-1123.792h29.4v29.4h-29.4Z" transform="translate(4471.131 1150.01)"/><g transform="translate(23.843 32.518)"><path class="b" d="M1141.621-744.709l-5.723-.1a29.868,29.868,0,0,1-5.528-.341c-2.764-.565-2.959-3.333-3.165-5.655a39.677,39.677,0,0,1,.36-9.826,3.359,3.359,0,0,1,3.314-3.018,183.236,183.236,0,0,1,18.563-.178,13.4,13.4,0,0,1,1.949.233c3.169.555,3.247,3.693,3.452,6.333a35.908,35.908,0,0,1-.273,8c-.314,2.194-.915,4.034-3.452,4.211-3.178.233-6.283.42-9.471.36C1141.649-744.709,1141.631-744.709,1141.621-744.709Zm-3.364-5.555c2.395-1.375,4.744-2.727,7.125-4.093-2.4-1.375-4.745-2.727-7.125-4.093Z" transform="translate(-1127.055 763.981)"/></g><g transform="translate(44.754 35.849)"><g class="f" transform="translate(1627.199 797.713)"><path class="g" d="M -1610.2548828125 -780.3384399414062 L -1625.878173828125 -780.3384399414062 C -1626.734497070312 -780.3384399414062 -1627.490600585938 -780.7596435546875 -1627.900756835938 -781.4652099609375 C -1628.309692382812 -782.1688232421875 -1628.300170898438 -783.03515625 -1627.875122070312 -783.7825927734375 L -1620.056518554688 -797.5119018554688 C -1619.62841796875 -798.263916015625 -1618.884399414062 -798.7129516601562 -1618.06640625 -798.7129516601562 C -1617.249755859375 -798.7129516601562 -1616.505859375 -798.2637939453125 -1616.076538085938 -797.5114135742188 L -1608.258178710938 -783.7806396484375 C -1607.83349609375 -783.0337524414062 -1607.82373046875 -782.16845703125 -1608.23193359375 -781.465576171875 C -1608.642700195312 -780.759521484375 -1609.398803710938 -780.3384399414062 -1610.2548828125 -780.3384399414062 Z M -1618.1181640625 -792.3191528320312 C -1618.164184570312 -792.3191528320312 -1618.20166015625 -792.28173828125 -1618.20166015625 -792.2357788085938 L -1618.20166015625 -788.3350219726562 C -1618.20166015625 -788.2888793945312 -1618.164184570312 -788.2512817382812 -1618.1181640625 -788.2512817382812 C -1618.072021484375 -788.2512817382812 -1618.034423828125 -788.2888793945312 -1618.034423828125 -788.3350219726562 L -1618.034423828125 -792.2357788085938 C -1618.034423828125 -792.28173828125 -1618.072021484375 -792.3191528320312 -1618.1181640625 -792.3191528320312 Z"/><path class="h" d="M -1610.2548828125 -781.3384399414062 C -1609.7568359375 -781.3384399414062 -1609.323974609375 -781.5770874023438 -1609.0966796875 -781.9677124023438 C -1608.86962890625 -782.3587036132812 -1608.881103515625 -782.8530883789062 -1609.127197265625 -783.2858276367188 L -1616.945068359375 -797.0158081054688 C -1617.193603515625 -797.4513549804688 -1617.612548828125 -797.7129516601562 -1618.06640625 -797.7129516601562 C -1618.5205078125 -797.7129516601562 -1618.939453125 -797.4528198242188 -1619.1875 -797.0170288085938 L -1627.005859375 -783.2882690429688 C -1627.251953125 -782.8555297851562 -1627.263427734375 -782.3587036132812 -1627.0361328125 -781.9677124023438 C -1626.80908203125 -781.5770874023438 -1626.3759765625 -781.3384399414062 -1625.878173828125 -781.3384399414062 L -1610.2548828125 -781.3384399414062 M -1618.06640625 -786.0270385742188 C -1617.468017578125 -786.0270385742188 -1616.98291015625 -785.5418090820312 -1616.98291015625 -784.9432983398438 C -1616.98291015625 -784.3450317382812 -1617.468017578125 -783.8599243164062 -1618.06640625 -783.8599243164062 C -1618.6650390625 -783.8599243164062 -1619.14990234375 -784.3450317382812 -1619.14990234375 -784.9432983398438 C -1619.14990234375 -785.5418090820312 -1618.6650390625 -786.0270385742188 -1618.06640625 -786.0270385742188 M -1618.1181640625 -793.3191528320312 C -1617.51953125 -793.3191528320312 -1617.034423828125 -792.8340454101562 -1617.034423828125 -792.2357788085938 L -1617.034423828125 -788.3350219726562 C -1617.034423828125 -787.7366333007812 -1617.51953125 -787.2512817382812 -1618.1181640625 -787.2512817382812 C -1618.71630859375 -787.2512817382812 -1619.20166015625 -787.7366333007812 -1619.20166015625 -788.3350219726562 L -1619.20166015625 -792.2357788085938 C -1619.20166015625 -792.8340454101562 -1618.71630859375 -793.3191528320312 -1618.1181640625 -793.3191528320312 M -1610.2548828125 -779.3384399414062 L -1625.878173828125 -779.3384399414062 C -1627.094848632812 -779.3384399414062 -1628.174072265625 -779.9456176757812 -1628.765258789062 -780.962646484375 C -1629.346435546875 -781.9623413085938 -1629.33837890625 -783.2323608398438 -1628.744384765625 -784.2769165039062 L -1620.925415039062 -798.0067749023438 C -1620.3173828125 -799.0750122070312 -1619.24853515625 -799.7129516601562 -1618.06640625 -799.7129516601562 C -1616.886108398438 -799.7129516601562 -1615.817504882812 -799.0752563476562 -1615.2080078125 -798.0070190429688 L -1607.38916015625 -784.2754516601562 C -1606.786254882812 -783.21533203125 -1606.778198242188 -781.9774780273438 -1607.3671875 -780.96337890625 C -1607.95947265625 -779.9453125 -1609.038696289062 -779.3384399414062 -1610.2548828125 -779.3384399414062 Z"/></g></g></g></svg>