<svg xmlns="http://www.w3.org/2000/svg" xmlns:xlink="http://www.w3.org/1999/xlink" width="446.294" height="111.839" viewBox="0 0 446.294 111.839"><defs><style>.a{fill:#fff;}.b{fill:#333;}.c{fill:#ffc917;}.d{fill:#4d4d4d;}.e{fill:none;}.f{filter:url(#a);}</style><filter id="a" x="0" y="0" width="446.294" height="111.839" filterUnits="userSpaceOnUse"><feOffset dy="3" input="SourceAlpha"/><feGaussianBlur stdDeviation="5" result="b"/><feFlood flood-opacity="0.349"/><feComposite operator="in" in2="b"/><feComposite in="SourceGraphic"/></filter></defs><g transform="translate(14.657 12)"><g class="f" transform="matrix(1, 0, 0, 1, -14.66, -12)"><rect class="a" width="416.295" height="81.839" transform="translate(15 12)"/></g><path class="b" d="M3.5,0V-11.978H1V0ZM5.458,0H7.881V-5.1A1.763,1.763,0,0,1,9.658-7.056c1.087,0,1.635.664,1.635,1.826V0h2.424V-5.736c0-2.083-1.112-3.329-3.088-3.329A2.811,2.811,0,0,0,7.848-7.313H7.8V-8.9H5.458Zm9.816-6.284c0,1.336.872,2.2,2.59,2.565l1.519.315c.872.2,1.179.465,1.179.938,0,.581-.564.955-1.478.955a1.47,1.47,0,0,1-1.668-1.2H15.049c.158,1.751,1.577,2.9,4.034,2.9,2.291,0,3.893-1.154,3.893-2.905,0-1.3-.764-2.034-2.623-2.424l-1.519-.324c-.9-.191-1.229-.5-1.229-.955,0-.589.556-.971,1.395-.971a1.358,1.358,0,0,1,1.511,1.212h2.233C22.694-7.919,21.283-9.089,19-9.089,16.734-9.089,15.273-7.977,15.273-6.284Zm9.716-4.665V-8.9H23.736v1.826h1.253V-2.4c0,1.735.813,2.432,2.905,2.432a5.572,5.572,0,0,0,1.154-.1V-1.851a3.923,3.923,0,0,1-.589.042c-.714,0-1.046-.324-1.046-1V-7.072h1.644V-8.9H27.413v-2.05ZM33.111.141a3.061,3.061,0,0,0,2.714-1.5h.05V0h2.341V-6.118c0-1.793-1.486-2.972-3.769-2.972-2.357,0-3.827,1.187-3.918,2.914h2.216a1.443,1.443,0,0,1,1.594-1.1c.913,0,1.494.481,1.494,1.312v.589l-2.241.133c-2.216.133-3.461,1.071-3.461,2.689A2.751,2.751,0,0,0,33.111.141Zm.8-1.751c-.822,0-1.37-.415-1.37-1.079,0-.631.515-1.038,1.419-1.1l1.876-.116v.647A1.777,1.777,0,0,1,33.908-1.61ZM44.014,3.354c2.665,0,4.441-1.361,4.441-3.478V-8.9H46.064v1.552h-.042A2.919,2.919,0,0,0,43.275-9.04c-2.258,0-3.652,1.735-3.652,4.557,0,2.781,1.436,4.458,3.611,4.458a2.9,2.9,0,0,0,2.748-1.594h.05V-.058c0,1.029-.7,1.718-1.951,1.718A1.763,1.763,0,0,1,42.271.631H39.9C40.088,2.216,41.673,3.354,44.014,3.354Zm.042-5.246c-1.2,0-1.951-.946-1.951-2.573S42.86-7.1,44.056-7.1c1.212,0,1.984,1.029,1.984,2.631S45.267-1.893,44.056-1.893ZM50.2,0h2.424V-4.972a1.772,1.772,0,0,1,1.893-1.984,2.494,2.494,0,0,1,.88.141V-8.948a2.469,2.469,0,0,0-.689-.091A2.124,2.124,0,0,0,52.593-7.3h-.05V-8.9H50.2Zm8.786.141a3.061,3.061,0,0,0,2.714-1.5h.05V0h2.341V-6.118c0-1.793-1.486-2.972-3.769-2.972-2.357,0-3.827,1.187-3.918,2.914h2.216a1.443,1.443,0,0,1,1.594-1.1c.913,0,1.494.481,1.494,1.312v.589l-2.241.133c-2.216.133-3.461,1.071-3.461,2.689A2.751,2.751,0,0,0,58.988.141Zm.8-1.751c-.822,0-1.37-.415-1.37-1.079,0-.631.515-1.038,1.419-1.1l1.876-.116v.647A1.777,1.777,0,0,1,59.785-1.61ZM65.824,0h2.424V-5.371a1.547,1.547,0,0,1,1.544-1.693,1.359,1.359,0,0,1,1.436,1.519V0H73.56V-5.4a1.511,1.511,0,0,1,1.527-1.66c.938,0,1.453.564,1.453,1.594V0h2.424V-6.076A2.791,2.791,0,0,0,76.05-9.064a2.819,2.819,0,0,0-2.764,1.826h-.05a2.364,2.364,0,0,0-2.482-1.826,2.612,2.612,0,0,0-2.54,1.776h-.05V-8.9H65.824Z" transform="translate(108.716 32.555)"/><path d="M4.635,0V-4.266l3.534-5.6H7.1L4.184-5.182H4.149L1.23-9.864H.164L3.7-4.266V0ZM10.8.116c1.935,0,3.24-1.415,3.24-3.671S12.732-7.226,10.8-7.226s-3.24,1.408-3.24,3.671S8.863.116,10.8.116Zm0-.8C9.4-.684,8.48-1.75,8.48-3.555S9.4-6.426,10.8-6.426s2.324,1.066,2.324,2.871S12.192-.684,10.8-.684ZM21.082-7.109h-.9v4.218a2.017,2.017,0,0,1-2.071,2.2,1.727,1.727,0,0,1-1.859-1.955V-7.109H15.34v4.621a2.378,2.378,0,0,0,2.509,2.6,2.441,2.441,0,0,0,2.358-1.436h.021V0h.854ZM25.846,0h.909V-4.184a2.046,2.046,0,0,1,2.105-2.235,1.774,1.774,0,0,1,1.894,1.976V0h.909V-4.594a2.422,2.422,0,0,0-2.543-2.632A2.4,2.4,0,0,0,26.776-5.8h-.021V-9.864h-.909Zm9.58.116a2.648,2.648,0,0,0,2.427-1.47h.021V0h.861V-4.867A2.334,2.334,0,0,0,36.1-7.226a2.484,2.484,0,0,0-2.769,2.174H34.2a1.7,1.7,0,0,1,1.873-1.374,1.561,1.561,0,0,1,1.757,1.641v.615l-2.215.137c-1.641.109-2.55.848-2.55,2.064A2.121,2.121,0,0,0,35.427.116Zm.185-.779c-.964,0-1.627-.533-1.627-1.306s.622-1.271,1.743-1.347l2.105-.144v.786A2.1,2.1,0,0,1,35.611-.663Zm10.36-6.446h-.943L42.861-.95H42.84L40.68-7.109h-.957L42.368,0h.964Zm5.8,5.093a1.925,1.925,0,0,1-2.017,1.34,2.306,2.306,0,0,1-2.324-2.6v-.055h5.325v-.383c0-2.119-1.189-3.507-3.076-3.507-1.928,0-3.179,1.483-3.179,3.691,0,2.256,1.237,3.65,3.233,3.65a2.772,2.772,0,0,0,2.933-2.133ZM49.666-6.433a2.182,2.182,0,0,1,2.16,2.379H47.437A2.275,2.275,0,0,1,49.666-6.433ZM57.11,0h.9V-4.43a1.706,1.706,0,0,1,1.654-1.935,1.83,1.83,0,0,1,.677.1V-7.15a2.346,2.346,0,0,0-.561-.075,1.81,1.81,0,0,0-1.8,1.381h-.021V-7.109H57.11Zm8.856-2.017a1.925,1.925,0,0,1-2.017,1.34,2.306,2.306,0,0,1-2.324-2.6v-.055H66.95v-.383c0-2.119-1.189-3.507-3.076-3.507-1.928,0-3.179,1.483-3.179,3.691,0,2.256,1.237,3.65,3.233,3.65a2.772,2.772,0,0,0,2.933-2.133ZM63.86-6.433a2.182,2.182,0,0,1,2.16,2.379H61.631A2.275,2.275,0,0,1,63.86-6.433ZM70.405.116a2.648,2.648,0,0,0,2.427-1.47h.021V0h.861V-4.867a2.334,2.334,0,0,0-2.639-2.358,2.484,2.484,0,0,0-2.769,2.174h.875a1.7,1.7,0,0,1,1.873-1.374,1.561,1.561,0,0,1,1.757,1.641v.615L70.6-4.033c-1.641.109-2.55.848-2.55,2.064A2.121,2.121,0,0,0,70.405.116Zm.185-.779c-.964,0-1.627-.533-1.627-1.306s.622-1.271,1.743-1.347l2.105-.144v.786A2.1,2.1,0,0,1,70.59-.663Zm10.565-4.2a2.8,2.8,0,0,0-2.926-2.365c-1.935,0-3.213,1.429-3.213,3.671,0,2.276,1.278,3.671,3.22,3.671A2.775,2.775,0,0,0,81.161-2.2h-.9A1.927,1.927,0,0,1,78.243-.684c-1.388,0-2.3-1.087-2.3-2.871,0-1.757.909-2.871,2.3-2.871a1.97,1.97,0,0,1,2.03,1.565ZM82.491,0H83.4V-4.184a2.046,2.046,0,0,1,2.105-2.235A1.774,1.774,0,0,1,87.4-4.443V0h.909V-4.594a2.422,2.422,0,0,0-2.543-2.632A2.4,2.4,0,0,0,83.421-5.8H83.4V-9.864h-.909Zm12.39-2.017a1.925,1.925,0,0,1-2.017,1.34,2.306,2.306,0,0,1-2.324-2.6v-.055h5.325v-.383c0-2.119-1.189-3.507-3.076-3.507-1.928,0-3.179,1.483-3.179,3.691,0,2.256,1.237,3.65,3.233,3.65a2.772,2.772,0,0,0,2.933-2.133ZM92.775-6.433a2.182,2.182,0,0,1,2.16,2.379H90.547A2.275,2.275,0,0,1,92.775-6.433ZM99.9.116a2.619,2.619,0,0,0,2.461-1.62h.021V0h.861V-9.864h-.909v4.218h-.021a2.57,2.57,0,0,0-2.434-1.579c-1.784,0-3.021,1.456-3.021,3.671S98.1.116,99.9.116Zm.157-6.542c1.354,0,2.283,1.155,2.283,2.871s-.93,2.871-2.283,2.871-2.27-1.135-2.27-2.871S98.692-6.426,100.059-6.426Zm7.957-.67h.9a2.163,2.163,0,0,1,2.3-2.105,1.969,1.969,0,0,1,2.1,1.948c0,.868-.349,1.456-1.764,2.933L108.064-.656V0H114.5V-.834h-5.134V-.861L112-3.616c1.757-1.812,2.242-2.618,2.242-3.685a2.826,2.826,0,0,0-3.028-2.721A3,3,0,0,0,108.016-7.1ZM119.421.157c2.242,0,3.568-1.982,3.568-5.1,0-3.1-1.333-5.079-3.568-5.079s-3.575,1.989-3.575,5.086C115.846-1.818,117.179.157,119.421.157Zm0-.82c-1.668,0-2.632-1.661-2.632-4.279,0-2.57.984-4.252,2.632-4.252s2.632,1.668,2.632,4.259C122.053-2.324,121.089-.663,119.421-.663ZM125.591,0V-3.521l1.217-1.319L130.724,0h1.2l-4.457-5.5,4.054-4.361h-1.183l-4.689,5.113h-.055V-9.864h-.93V0Zm10.7,0h.909V-6.357h1.524v-.752h-1.531v-.882c0-.793.362-1.142,1.046-1.142a2.944,2.944,0,0,1,.526.048V-9.83a4.068,4.068,0,0,0-.656-.055,1.626,1.626,0,0,0-1.818,1.873v.9H135.3v.752h.991Zm6.231.116c1.935,0,3.24-1.415,3.24-3.671s-1.306-3.671-3.24-3.671-3.24,1.408-3.24,3.671S140.585.116,142.519.116Zm0-.8c-1.395,0-2.317-1.066-2.317-2.871s.923-2.871,2.317-2.871,2.324,1.066,2.324,2.871S143.914-.684,142.519-.684ZM147.164,0h.9V-9.864h-.9Zm2.724,0h.9V-9.864h-.9Zm5.547.116c1.935,0,3.24-1.415,3.24-3.671s-1.306-3.671-3.24-3.671-3.24,1.408-3.24,3.671S153.5.116,155.436.116Zm0-.8c-1.395,0-2.317-1.066-2.317-2.871s.923-2.871,2.317-2.871,2.324,1.066,2.324,2.871S156.83-.684,155.436-.684Zm13.443-6.426h-.909l-1.593,6.1h-.021l-1.771-6.1h-.916l-1.771,6.1h-.021l-1.593-6.1h-.916L161.393,0h.957l1.764-5.9h.021L165.9,0h.957Zm5.971,5.093a1.925,1.925,0,0,1-2.017,1.34,2.306,2.306,0,0,1-2.324-2.6v-.055h5.325v-.383c0-2.119-1.189-3.507-3.076-3.507-1.928,0-3.179,1.483-3.179,3.691,0,2.256,1.237,3.65,3.233,3.65a2.772,2.772,0,0,0,2.933-2.133Zm-2.105-4.416a2.182,2.182,0,0,1,2.16,2.379h-4.389A2.275,2.275,0,0,1,172.744-6.433ZM177.184,0h.9V-4.43a1.706,1.706,0,0,1,1.654-1.935,1.83,1.83,0,0,1,.677.1V-7.15a2.346,2.346,0,0,0-.561-.075,1.81,1.81,0,0,0-1.8,1.381h-.021V-7.109h-.854Zm4.16-5.209c0,.984.636,1.579,1.989,1.894l1.066.253c.957.232,1.306.574,1.306,1.189,0,.745-.7,1.244-1.771,1.244a1.692,1.692,0,0,1-1.894-1.408h-.9c.123,1.3,1.189,2.153,2.8,2.153,1.552,0,2.68-.854,2.68-2.058,0-1-.533-1.552-1.955-1.894l-1.073-.253c-.943-.226-1.347-.588-1.347-1.169,0-.711.663-1.224,1.634-1.224a1.6,1.6,0,0,1,1.743,1.429h.868a2.366,2.366,0,0,0-2.611-2.174C182.389-7.226,181.343-6.385,181.343-5.209ZM188.777.062a.63.63,0,0,0,.636-.636.632.632,0,0,0-.636-.643.638.638,0,0,0-.643.643A.636.636,0,0,0,188.777.062Z" transform="translate(108.716 56.692)"/><rect class="c" width="81.933" height="81.839" transform="translate(0 0)"/><path class="d" d="M.393,0H.66V-2.123A1.149,1.149,0,0,1,1.818-3.37a1.021,1.021,0,0,1,1.094,1.1V0h.267V-2.3a1.22,1.22,0,0,0-1.3-1.306,1.242,1.242,0,0,0-1.23.827H.643v-.772H.393ZM5.7.055A1.616,1.616,0,0,0,7.285-1.777,1.616,1.616,0,0,0,5.7-3.609,1.613,1.613,0,0,0,4.117-1.777,1.613,1.613,0,0,0,5.7.055Zm0-.239c-.79,0-1.316-.6-1.316-1.593S4.91-3.37,5.7-3.37s1.319.6,1.319,1.593S6.489-.185,5.7-.185Zm6.854-3.37h-.28L11.364-.294h-.01l-.988-3.261h-.3L9.074-.294H9.067L8.155-3.555H7.878L8.91,0h.314l.984-3.213h.01L11.21,0h.308Z" transform="translate(382.943 25.297)"/><path class="e" d="M-4446.442-2424.641h32.672v32.673h-32.672Z" transform="translate(4471.985 2447.782)"/><g transform="translate(25.723 25.676)"><path class="b" d="M-4430.711-2415.048c4.07,0,4.552.016,6.16.089a8.442,8.442,0,0,1,2.83.525,4.722,4.722,0,0,1,1.752,1.14,4.724,4.724,0,0,1,1.141,1.753,8.455,8.455,0,0,1,.525,2.831c.073,1.607.089,2.089.089,6.159s-.016,4.552-.089,6.16a8.456,8.456,0,0,1-.525,2.831,4.722,4.722,0,0,1-1.141,1.752,4.722,4.722,0,0,1-1.752,1.14,8.422,8.422,0,0,1-2.83.525c-1.608.073-2.09.089-6.16.089s-4.553-.016-6.16-.089a8.42,8.42,0,0,1-2.831-.525,4.726,4.726,0,0,1-1.752-1.14,4.722,4.722,0,0,1-1.141-1.752,8.46,8.46,0,0,1-.524-2.831c-.073-1.607-.089-2.089-.089-6.16s.016-4.552.089-6.159a8.459,8.459,0,0,1,.524-2.831,4.724,4.724,0,0,1,1.141-1.753,4.726,4.726,0,0,1,1.752-1.14,8.441,8.441,0,0,1,2.831-.525c1.607-.073,2.09-.089,6.16-.089m0-2.747c-4.14,0-4.659.017-6.286.092a11.2,11.2,0,0,0-3.7.708,7.468,7.468,0,0,0-2.7,1.759,7.462,7.462,0,0,0-1.758,2.7,11.2,11.2,0,0,0-.709,3.7c-.074,1.626-.091,2.145-.091,6.285s.017,4.659.091,6.285a11.2,11.2,0,0,0,.709,3.7,7.465,7.465,0,0,0,1.758,2.7,7.466,7.466,0,0,0,2.7,1.758,11.184,11.184,0,0,0,3.7.708c1.626.074,2.146.092,6.286.092s4.659-.017,6.285-.092a11.181,11.181,0,0,0,3.7-.708,7.472,7.472,0,0,0,2.7-1.758,7.478,7.478,0,0,0,1.758-2.7,11.179,11.179,0,0,0,.708-3.7c.074-1.626.092-2.145.092-6.285s-.018-4.659-.092-6.285a11.177,11.177,0,0,0-.708-3.7,7.474,7.474,0,0,0-1.758-2.7,7.474,7.474,0,0,0-2.7-1.759,11.2,11.2,0,0,0-3.7-.708C-4426.052-2417.778-4426.572-2417.795-4430.711-2417.795Zm0,7.416a7.828,7.828,0,0,0-7.828,7.828,7.828,7.828,0,0,0,7.828,7.828,7.827,7.827,0,0,0,7.827-7.828A7.827,7.827,0,0,0-4430.711-2410.379Zm0,12.909a5.081,5.081,0,0,1-5.082-5.081,5.082,5.082,0,0,1,5.082-5.082,5.081,5.081,0,0,1,5.081,5.082A5.081,5.081,0,0,1-4430.711-2397.47Zm9.966-13.218a1.829,1.829,0,0,1-1.829,1.829,1.829,1.829,0,0,1-1.83-1.829,1.829,1.829,0,0,1,1.83-1.829A1.829,1.829,0,0,1-4420.746-2410.688Z" transform="translate(4445.955 2417.795)"/></g></g></svg>