<svg xmlns="http://www.w3.org/2000/svg" xmlns:xlink="http://www.w3.org/1999/xlink" width="453.3" height="305.2" viewBox="0 0 453.3 305.2"><defs><style>.a,.h{fill:#fff;}.a{stroke:#ffc917;stroke-miterlimit:10;stroke-width:7px;}.b{fill:#ffc917;}.c{fill:#4d4d4d;}.d{fill:none;}.e{fill:#333;}.f{fill:#befffc;}.g{fill:#ff8789;}.i{fill:#ef5054;}.j{filter:url(#a);}</style><filter id="a" x="0" y="0" width="453.3" height="305.2" filterUnits="userSpaceOnUse"><feOffset dy="3" input="SourceAlpha"/><feGaussianBlur stdDeviation="5" result="b"/><feFlood flood-opacity="0.161"/><feComposite operator="in" in2="b"/><feComposite in="SourceGraphic"/></filter></defs><g transform="translate(0.843 0.5)"><g transform="translate(-12.043 -9)"><g class="j" transform="matrix(1, 0, 0, 1, 11.2, 8.5)"><rect class="a" width="416.3" height="268.2" transform="translate(18.5 15.5)"/></g></g><g transform="translate(17.657 17)"><rect class="b" width="81.9" height="81.8"/><path class="c" d="M383.3,21.7h.2v.8h0a1.3,1.3,0,0,1,2.5.5v2.3h-.3V23a1,1,0,0,0-1.1-1.1,1.155,1.155,0,0,0-1.2,1.2v2.1h-.3V21.7Z"/><path class="c" d="M387.1,23.5a1.611,1.611,0,1,1,3.2,0,1.611,1.611,0,1,1-3.2,0Zm2.9,0c0-1-.5-1.6-1.3-1.6s-1.3.6-1.3,1.6.5,1.6,1.3,1.6C389.4,25.1,390,24.5,390,23.5Z"/><path class="c" d="M394.5,25.3h-.3l-1-3.2h0l-1,3.2h-.3l-1-3.6h.3L392,25h0l1-3.3h.3l1,3.3h0l.9-3.3h.3Z"/><path class="d" d="M25.5,26.2H54.9V55.6H25.5Z"/><path class="e" d="M51.2,29.4H30.7a1.324,1.324,0,0,0-1.3,1.3h0V51.1a1.324,1.324,0,0,0,1.3,1.3h11V43.5h-3V40h3V37.4c0-3,1.8-4.6,4.5-4.6a24.369,24.369,0,0,1,2.7.1V36H47.1c-1.4,0-1.7.7-1.7,1.7V40h3.4l-.4,3.5h-3v8.9h5.9a1.324,1.324,0,0,0,1.3-1.3h0V30.7a1.493,1.493,0,0,0-1.4-1.3Z"/><g transform="translate(-0.437 -2.195)"><path class="e" d="M3.5,0V-11.978H1V0ZM5.458,0H7.881V-5.1A1.763,1.763,0,0,1,9.658-7.056c1.087,0,1.635.664,1.635,1.826V0h2.424V-5.736c0-2.083-1.112-3.329-3.088-3.329A2.811,2.811,0,0,0,7.848-7.313H7.8V-8.9H5.458Zm9.816-6.284c0,1.336.872,2.2,2.59,2.565l1.519.315c.872.2,1.179.465,1.179.938,0,.581-.564.955-1.478.955a1.47,1.47,0,0,1-1.668-1.2H15.049c.158,1.751,1.577,2.9,4.034,2.9,2.291,0,3.893-1.154,3.893-2.905,0-1.3-.764-2.034-2.623-2.424l-1.519-.324c-.9-.191-1.229-.5-1.229-.955,0-.589.556-.971,1.395-.971a1.358,1.358,0,0,1,1.511,1.212h2.233C22.694-7.919,21.283-9.089,19-9.089,16.734-9.089,15.273-7.977,15.273-6.284Zm9.716-4.665V-8.9H23.736v1.826h1.253V-2.4c0,1.735.813,2.432,2.905,2.432a5.572,5.572,0,0,0,1.154-.1V-1.851a3.923,3.923,0,0,1-.589.042c-.714,0-1.046-.324-1.046-1V-7.072h1.644V-8.9H27.413v-2.05ZM33.111.141a3.061,3.061,0,0,0,2.714-1.5h.05V0h2.341V-6.118c0-1.793-1.486-2.972-3.769-2.972-2.357,0-3.827,1.187-3.918,2.914h2.216a1.443,1.443,0,0,1,1.594-1.1c.913,0,1.494.481,1.494,1.312v.589l-2.241.133c-2.216.133-3.461,1.071-3.461,2.689A2.751,2.751,0,0,0,33.111.141Zm.8-1.751c-.822,0-1.37-.415-1.37-1.079,0-.631.515-1.038,1.419-1.1l1.876-.116v.647A1.777,1.777,0,0,1,33.908-1.61ZM44.014,3.354c2.665,0,4.441-1.361,4.441-3.478V-8.9H46.064v1.552h-.042A2.919,2.919,0,0,0,43.275-9.04c-2.258,0-3.652,1.735-3.652,4.557,0,2.781,1.436,4.458,3.611,4.458a2.9,2.9,0,0,0,2.748-1.594h.05V-.058c0,1.029-.7,1.718-1.951,1.718A1.763,1.763,0,0,1,42.271.631H39.9C40.088,2.216,41.673,3.354,44.014,3.354Zm.042-5.246c-1.2,0-1.951-.946-1.951-2.573S42.86-7.1,44.056-7.1c1.212,0,1.984,1.029,1.984,2.631S45.267-1.893,44.056-1.893ZM50.2,0h2.424V-4.972a1.772,1.772,0,0,1,1.893-1.984,2.494,2.494,0,0,1,.88.141V-8.948a2.469,2.469,0,0,0-.689-.091A2.124,2.124,0,0,0,52.593-7.3h-.05V-8.9H50.2Zm8.786.141a3.061,3.061,0,0,0,2.714-1.5h.05V0h2.341V-6.118c0-1.793-1.486-2.972-3.769-2.972-2.357,0-3.827,1.187-3.918,2.914h2.216a1.443,1.443,0,0,1,1.594-1.1c.913,0,1.494.481,1.494,1.312v.589l-2.241.133c-2.216.133-3.461,1.071-3.461,2.689A2.751,2.751,0,0,0,58.988.141Zm.8-1.751c-.822,0-1.37-.415-1.37-1.079,0-.631.515-1.038,1.419-1.1l1.876-.116v.647A1.777,1.777,0,0,1,59.785-1.61ZM65.824,0h2.424V-5.371a1.547,1.547,0,0,1,1.544-1.693,1.359,1.359,0,0,1,1.436,1.519V0H73.56V-5.4a1.511,1.511,0,0,1,1.527-1.66c.938,0,1.453.564,1.453,1.594V0h2.424V-6.076A2.791,2.791,0,0,0,76.05-9.064a2.819,2.819,0,0,0-2.764,1.826h-.05a2.364,2.364,0,0,0-2.482-1.826,2.612,2.612,0,0,0-2.54,1.776h-.05V-8.9H65.824Z" transform="translate(108.716 32.554)"/><path d="M4.635,0V-4.266l3.534-5.6H7.1L4.184-5.182H4.149L1.23-9.864H.164L3.7-4.266V0ZM10.8.116c1.935,0,3.24-1.415,3.24-3.671S12.732-7.226,10.8-7.226s-3.24,1.408-3.24,3.671S8.863.116,10.8.116Zm0-.8C9.4-.684,8.48-1.75,8.48-3.555S9.4-6.426,10.8-6.426s2.324,1.066,2.324,2.871S12.192-.684,10.8-.684ZM21.082-7.109h-.9v4.218a2.017,2.017,0,0,1-2.071,2.2,1.727,1.727,0,0,1-1.859-1.955V-7.109H15.34v4.621a2.378,2.378,0,0,0,2.509,2.6,2.441,2.441,0,0,0,2.358-1.436h.021V0h.854ZM22.78,0h.9V-4.43a1.706,1.706,0,0,1,1.654-1.935,1.83,1.83,0,0,1,.677.1V-7.15a2.346,2.346,0,0,0-.561-.075,1.81,1.81,0,0,0-1.8,1.381h-.021V-7.109H22.78ZM33.458-7.226a2.6,2.6,0,0,0-2.447,1.62h-.027v-1.5h-.854V2.352h.9V-1.463h.027A2.55,2.55,0,0,0,33.478.116c1.784,0,3.008-1.456,3.008-3.671S35.256-7.226,33.458-7.226ZM33.3-.684c-1.347,0-2.27-1.155-2.27-2.871s.923-2.871,2.27-2.871c1.374,0,2.263,1.142,2.263,2.871S34.675-.684,33.3-.684ZM37.9,0h.909V-4.184a2.046,2.046,0,0,1,2.105-2.235,1.774,1.774,0,0,1,1.894,1.976V0h.909V-4.594a2.422,2.422,0,0,0-2.543-2.632A2.4,2.4,0,0,0,38.827-5.8h-.021V-9.864H37.9Zm10.36.116c1.935,0,3.24-1.415,3.24-3.671s-1.306-3.671-3.24-3.671-3.24,1.408-3.24,3.671S46.323.116,48.257.116Zm0-.8c-1.395,0-2.317-1.066-2.317-2.871s.923-2.871,2.317-2.871,2.324,1.066,2.324,2.871S49.652-.684,48.257-.684Zm4.973-8.2v1.777h-1.06v.752h1.06V-1.75c0,1.285.479,1.791,1.668,1.791A5.647,5.647,0,0,0,55.568,0V-.772c-.055.014-.4.027-.492.027-.656,0-.943-.314-.943-1.046V-6.357h1.4v-.752h-1.4V-8.887Zm6.368,9c1.935,0,3.24-1.415,3.24-3.671S61.532-7.226,59.6-7.226s-3.24,1.408-3.24,3.671S57.663.116,59.6.116Zm0-.8c-1.395,0-2.317-1.066-2.317-2.871S58.2-6.426,59.6-6.426s2.324,1.066,2.324,2.871S60.992-.684,59.6-.684Zm8.093-7.9a.6.6,0,0,0,.608-.6.6.6,0,0,0-.608-.6.6.6,0,0,0-.6.6A.6.6,0,0,0,67.691-8.586Zm.458,1.477h-.9V.465c0,.854-.328,1.189-1.176,1.189h-.185V2.42c.007.007.2.007.219.007,1.408,0,2.044-.615,2.044-1.976Zm7.461,0h-.9v4.218a2.017,2.017,0,0,1-2.071,2.2,1.727,1.727,0,0,1-1.859-1.955V-7.109h-.909v4.621a2.378,2.378,0,0,0,2.509,2.6,2.441,2.441,0,0,0,2.358-1.436h.021V0h.854Zm1.555,1.9c0,.984.636,1.579,1.989,1.894l1.066.253c.957.232,1.306.574,1.306,1.189,0,.745-.7,1.244-1.771,1.244a1.692,1.692,0,0,1-1.894-1.408h-.9c.123,1.3,1.189,2.153,2.8,2.153,1.552,0,2.68-.854,2.68-2.058,0-1-.533-1.552-1.955-1.894l-1.073-.253c-.943-.226-1.347-.588-1.347-1.169,0-.711.663-1.224,1.634-1.224a1.6,1.6,0,0,1,1.743,1.429h.868a2.366,2.366,0,0,0-2.611-2.174C78.212-7.226,77.166-6.385,77.166-5.209Zm7.01-3.678v1.777h-1.06v.752h1.06V-1.75c0,1.285.479,1.791,1.668,1.791A5.647,5.647,0,0,0,86.514,0V-.772c-.055.014-.4.027-.492.027-.656,0-.943-.314-.943-1.046V-6.357h1.4v-.752h-1.4V-8.887ZM99.768-7.109h-.909l-1.593,6.1h-.021l-1.771-6.1h-.916l-1.771,6.1h-.021l-1.593-6.1H90.26L92.283,0h.957L95-5.9h.021L96.795,0h.957Zm5.971,5.093a1.925,1.925,0,0,1-2.017,1.34,2.306,2.306,0,0,1-2.324-2.6v-.055h5.325v-.383c0-2.119-1.189-3.507-3.076-3.507-1.928,0-3.179,1.483-3.179,3.691,0,2.256,1.237,3.65,3.233,3.65a2.772,2.772,0,0,0,2.933-2.133Zm-2.105-4.416a2.182,2.182,0,0,1,2.16,2.379h-4.389A2.275,2.275,0,0,1,103.634-6.433ZM108.074,0h.9V-4.211a2.024,2.024,0,0,1,2.058-2.208,1.743,1.743,0,0,1,1.873,1.955V0h.9V-4.607a2.38,2.38,0,0,0-2.516-2.618A2.4,2.4,0,0,0,108.949-5.8h-.021V-7.109h-.854Zm7.789-8.887v1.777H114.8v.752h1.06V-1.75c0,1.285.479,1.791,1.668,1.791A5.647,5.647,0,0,0,118.2,0V-.772c-.055.014-.4.027-.492.027-.656,0-.943-.314-.943-1.046V-6.357h1.4v-.752h-1.4V-8.887ZM126.6,0l3.691-9.864H129.3l-3.151,8.7h-.041l-3.145-8.7h-.991L125.666,0Zm5.137-8.586a.6.6,0,0,0,.608-.6.6.6,0,0,0-.608-.6.6.6,0,0,0-.6.6A.6.6,0,0,0,131.732-8.586ZM131.281,0h.9V-7.109h-.9Zm2.662,0h.9V-4.43A1.706,1.706,0,0,1,136.5-6.364a1.83,1.83,0,0,1,.677.1V-7.15a2.346,2.346,0,0,0-.561-.075,1.81,1.81,0,0,0-1.8,1.381H134.8V-7.109h-.854Zm6.231.116a2.648,2.648,0,0,0,2.427-1.47h.021V0h.861V-4.867a2.334,2.334,0,0,0-2.639-2.358,2.484,2.484,0,0,0-2.769,2.174h.875a1.7,1.7,0,0,1,1.873-1.374,1.561,1.561,0,0,1,1.757,1.641v.615l-2.215.137c-1.641.109-2.55.848-2.55,2.064A2.121,2.121,0,0,0,140.174.116Zm.185-.779c-.964,0-1.627-.533-1.627-1.306s.622-1.271,1.743-1.347l2.105-.144v.786A2.1,2.1,0,0,1,140.359-.663ZM145.2,0h.9V-9.864h-.9Zm3.455.062a.63.63,0,0,0,.636-.636.632.632,0,0,0-.636-.643.638.638,0,0,0-.643.643A.636.636,0,0,0,148.658.062Z" transform="translate(108.716 56.692)"/><rect class="b" width="81.933" height="81.839" transform="translate(0 0)"/><path class="c" d="M.393,0H.66V-2.123A1.149,1.149,0,0,1,1.818-3.37a1.021,1.021,0,0,1,1.094,1.1V0h.267V-2.3a1.22,1.22,0,0,0-1.3-1.306,1.242,1.242,0,0,0-1.23.827H.643v-.772H.393ZM5.7.055A1.616,1.616,0,0,0,7.285-1.777,1.616,1.616,0,0,0,5.7-3.609,1.613,1.613,0,0,0,4.117-1.777,1.613,1.613,0,0,0,5.7.055Zm0-.239c-.79,0-1.316-.6-1.316-1.593S4.91-3.37,5.7-3.37s1.319.6,1.319,1.593S6.489-.185,5.7-.185Zm6.854-3.37h-.28L11.364-.294h-.01l-.988-3.261h-.3L9.074-.294H9.067L8.155-3.555H7.878L8.91,0h.314l.984-3.213h.01L11.21,0h.308Z" transform="translate(382.943 25.297)"/><path class="d" d="M-4446.442-2172.364h32.672v32.673h-32.672Z" transform="translate(4471.985 2195.505)"/><g transform="translate(25.723 25.676)"><path class="e" d="M-4430.711-2162.771c4.07,0,4.552.015,6.16.089a8.447,8.447,0,0,1,2.83.525,4.719,4.719,0,0,1,1.752,1.141,4.72,4.72,0,0,1,1.141,1.752,8.456,8.456,0,0,1,.525,2.831c.073,1.607.089,2.089.089,6.16s-.016,4.552-.089,6.16a8.455,8.455,0,0,1-.525,2.831,4.719,4.719,0,0,1-1.141,1.753,4.719,4.719,0,0,1-1.752,1.141,8.442,8.442,0,0,1-2.83.525c-1.608.073-2.09.089-6.16.089s-4.553-.016-6.16-.089a8.441,8.441,0,0,1-2.831-.525,4.723,4.723,0,0,1-1.752-1.141,4.719,4.719,0,0,1-1.141-1.753,8.458,8.458,0,0,1-.524-2.83c-.073-1.608-.089-2.09-.089-6.16s.016-4.552.089-6.16a8.46,8.46,0,0,1,.524-2.831,4.72,4.72,0,0,1,1.141-1.752,4.723,4.723,0,0,1,1.752-1.141,8.446,8.446,0,0,1,2.831-.525c1.607-.073,2.09-.089,6.16-.089m0-2.747c-4.14,0-4.659.018-6.286.092a11.177,11.177,0,0,0-3.7.708,7.47,7.47,0,0,0-2.7,1.758,7.461,7.461,0,0,0-1.758,2.7,11.2,11.2,0,0,0-.709,3.7c-.074,1.626-.091,2.145-.091,6.285s.017,4.659.091,6.285a11.2,11.2,0,0,0,.709,3.7,7.465,7.465,0,0,0,1.758,2.7,7.468,7.468,0,0,0,2.7,1.759,11.2,11.2,0,0,0,3.7.709c1.626.074,2.146.091,6.286.091s4.659-.018,6.285-.091a11.2,11.2,0,0,0,3.7-.709,7.474,7.474,0,0,0,2.7-1.759,7.476,7.476,0,0,0,1.758-2.7,11.178,11.178,0,0,0,.708-3.7c.074-1.626.092-2.145.092-6.285s-.018-4.659-.092-6.285a11.179,11.179,0,0,0-.708-3.7,7.474,7.474,0,0,0-1.758-2.7,7.476,7.476,0,0,0-2.7-1.758,11.175,11.175,0,0,0-3.7-.708C-4426.052-2165.5-4426.572-2165.518-4430.711-2165.518Zm0,7.416a7.828,7.828,0,0,0-7.828,7.828,7.828,7.828,0,0,0,7.828,7.828,7.827,7.827,0,0,0,7.827-7.828A7.827,7.827,0,0,0-4430.711-2158.1Zm0,12.909a5.081,5.081,0,0,1-5.082-5.081,5.081,5.081,0,0,1,5.082-5.081,5.081,5.081,0,0,1,5.081,5.081A5.081,5.081,0,0,1-4430.711-2145.193Zm9.966-13.218a1.829,1.829,0,0,1-1.829,1.829,1.829,1.829,0,0,1-1.83-1.829,1.829,1.829,0,0,1,1.83-1.83A1.829,1.829,0,0,1-4420.746-2158.411Z" transform="translate(4445.955 2165.518)"/></g></g></g><g transform="translate(4.758 6)"><rect class="f" width="384.95" height="30.7" transform="translate(26.9 101.9)"/><path class="f" d="M26.9,109.923,412.2,106.3V269.087H26.9Z" transform="translate(0 -4.4)"/><g transform="translate(25.899 101.9)"><path class="g" d="M8330.777-4165.5s52.176-86.67,59.552-82.982,8.3,17.519-6.453,35.959c0,0,36.88-53.477,42.411-51.633s16.6,3.688,6.455,18.44-27.66,47.945-27.66,47.945,50.711-74.684,58.087-69.151,11.063,7.376,5.532,17.518-11.064,21.207-11.064,21.207,13.453-20.285,16.407-18.44,11.252,16.6-6.266,44.257-32.271,50.71-40.568,65.463-.923,19.362-.923,19.362,44.258-27.66,54.02-5.743l-6.263,9.431s-5.343-4.356-15.485,4.737H8330.777Z" transform="translate(-8330.777 4271.916)"/><g transform="translate(50.014 58.261)"><path class="f" d="M8469.1-4136.37a6.626,6.626,0,0,0-4.334,2.854c-1.391,2.4-4.407,7.981-3.85,10.422s2.2,2.94,5.942,4.787,7.094,2.116,9.52-1.3a20.576,20.576,0,0,0,3.149-7.059s1.491-4.229-2.286-6.208A69.871,69.871,0,0,0,8469.1-4136.37Z" transform="translate(-8457.621 4136.37)"/><path class="f" d="M8454.712-4129.4l4.246,2.052-1.564,3.258s-4.329-1.609-4.426-2.034S8453.811-4129.833,8454.712-4129.4Z" transform="translate(-8452.961 4132.274)"/><path class="f" d="M8502.686-4107.326l3.886,2.135s-1,3.1-1.73,2.838-3.574-1.71-3.574-1.71Z" transform="translate(-8481.494 4119.215)"/><ellipse class="h" cx="2.151" cy="2.013" rx="2.151" ry="2.013" transform="translate(9.936 10.418) rotate(-61.093)"/><path class="h" d="M8478.761-4127.8l-2.9-6.715,4.277,3.437Z" transform="translate(-8466.488 4135.274)"/><path class="h" d="M8485.216-4108.174l3.924,3.451-.189,3.574Z" transform="translate(-8472.013 4119.716)"/><path class="h" d="M8474.873-4127.514l-3.975-.422,2.031-6.579Z" transform="translate(-8463.556 4135.274)"/><path class="h" d="M8481.926-4108.174l-2.28,7.247,3.222.615Z" transform="translate(-8468.723 4119.716)"/><path class="h" d="M8486.764-4124.493l4.929-4.4,1.85,1.724Z" transform="translate(-8472.927 4131.953)"/><path class="h" d="M8488.946-4115.209l5.8,4.508-1.128-4.93Z" transform="translate(-8474.216 4124.121)"/><path class="h" d="M8469.166-4111.684l-4.54.744-2.422,3.7Z" transform="translate(-8458.42 4121.789)"/><path class="h" d="M8470-4109.449l-.685.423-6.051,3.74,4.3-.156" transform="translate(-8459.049 4120.469)"/><path class="h" d="M8488.231-4133.534l-2.431.785-1.562-2.433Z" transform="translate(-8471.437 4135.668)"/><path class="h" d="M8464-4122.529l.647,2.834-2.556,1.533Z" transform="translate(-8458.352 4128.195)"/><path class="h" d="M8504.369-4115.876l-1.828.53.813,3.705Z" transform="translate(-8482.246 4124.265)"/><path class="h" d="M8471.61-4096.31l2.6-1.5-.375,2.57Z" transform="translate(-8463.977 4113.592)"/></g><rect class="i" width="11.401" height="19.56" rx="5.7" transform="translate(100.938 0) rotate(33.856)"/><rect class="i" width="11.401" height="19.56" rx="5.7" transform="translate(133.337 0) rotate(33.856)"/><rect class="i" width="11.401" height="19.56" rx="5.7" transform="translate(145.784 20.746) rotate(33.856)"/><rect class="i" width="11.401" height="19.56" rx="5.7" transform="matrix(-0.136, 0.991, -0.991, -0.136, 151.361, 149.085)"/><rect class="i" width="9.824" height="14.648" rx="4.912" transform="translate(58.915 18.83) rotate(33.856)"/></g><g transform="translate(256.899 101.9)"><path class="g" d="M8480.307-4165.5s-52.176-86.67-59.552-82.982-8.3,17.519,6.453,35.959c0,0-36.88-53.477-42.411-51.633s-16.6,3.688-6.455,18.44,27.66,47.945,27.66,47.945-50.711-74.684-58.087-69.151-11.063,7.376-5.532,17.518,11.064,21.207,11.064,21.207-13.453-20.285-16.407-18.44-11.252,16.6,6.266,44.257,32.271,50.71,40.568,65.463.923,19.362.923,19.362-44.258-27.66-54.02-5.743l6.263,9.431s5.343-4.356,15.485,4.737h127.781Z" transform="translate(-8325.055 4271.916)"/><rect class="i" width="11.401" height="19.56" rx="5.7" transform="translate(65.211 16.243) rotate(146.144)"/><rect class="i" width="11.401" height="19.56" rx="5.7" transform="translate(32.812 16.243) rotate(146.144)"/><rect class="i" width="11.401" height="19.56" rx="5.7" transform="translate(20.364 36.989) rotate(146.144)"/><rect class="i" width="11.401" height="19.56" rx="5.7" transform="matrix(-0.125, 0.992, -0.992, -0.125, 22.77, 147.961)"/><rect class="i" width="9.824" height="14.648" rx="4.912" transform="translate(104.497 30.994) rotate(146.144)"/></g></g></g></svg>