<svg xmlns="http://www.w3.org/2000/svg" xmlns:xlink="http://www.w3.org/1999/xlink" width="453.3" height="305.2" viewBox="0 0 453.3 305.2"><defs><style>.a{fill:#fff;stroke:#ffc917;stroke-miterlimit:10;stroke-width:7px;}.b{fill:#333;}.c{fill:#ffc917;}.d{fill:#4d4d4d;}.e{fill:none;}.f{fill:#befffc;}.g{fill:#6ae5e1;}.h{fill:#fcc956;}.i{fill:#ffccc7;}.j{filter:url(#a);}</style><filter id="a" x="0" y="0" width="453.3" height="305.2" filterUnits="userSpaceOnUse"><feOffset dy="3" input="SourceAlpha"/><feGaussianBlur stdDeviation="5" result="b"/><feFlood flood-opacity="0.161"/><feComposite operator="in" in2="b"/><feComposite in="SourceGraphic"/></filter></defs><g transform="translate(0.843 0.5)"><g transform="translate(-12.043 -9)"><g class="j" transform="matrix(1, 0, 0, 1, 11.2, 8.5)"><rect class="a" width="416.3" height="268.2" transform="translate(18.5 15.5)"/></g></g><g transform="translate(14.657 12)"><path class="b" d="M109.4,32.6v-12h7.8v2.1h-5.3v3.2h4.9v2h-4.9v4.7Z"/><path class="b" d="M117.8,30c0-1.6,1.2-2.6,3.5-2.7l2.2-.1v-.6a1.321,1.321,0,0,0-1.5-1.3c-.9,0-1.5.4-1.6,1.1h-2.2c.1-1.7,1.6-2.9,3.9-2.9s3.8,1.2,3.8,3v6.1h-2.3V31.2h0a3.151,3.151,0,0,1-2.7,1.5A2.8,2.8,0,0,1,117.8,30Zm5.7-.7v-.6l-1.9.1c-.9.1-1.4.5-1.4,1.1,0,.7.5,1.1,1.4,1.1A1.869,1.869,0,0,0,123.5,29.3Z"/><path class="b" d="M133.3,27a1.759,1.759,0,0,0-1.8-1.6c-1.2,0-1.9,1-1.9,2.7,0,1.8.7,2.7,2,2.7a1.751,1.751,0,0,0,1.8-1.6h2.3a3.673,3.673,0,0,1-4,3.5c-2.7,0-4.4-1.7-4.4-4.6s1.7-4.6,4.4-4.6a3.677,3.677,0,0,1,4,3.5Z"/><path class="b" d="M144.8,29.8c-.3,1.7-1.9,2.9-4.1,2.9-2.7,0-4.4-1.8-4.4-4.6s1.7-4.7,4.3-4.7,4.2,1.8,4.2,4.5v.7h-6.1v.1a1.918,1.918,0,0,0,2,2.1,1.714,1.714,0,0,0,1.8-1.1h2.3Zm-6-2.6h3.8a1.9,1.9,0,0,0-3.8,0Z"/><path class="b" d="M148.6,31h0v1.5h-2.4v-12h2.4v4.6h0a2.847,2.847,0,0,1,2.7-1.7c2.2,0,3.6,1.7,3.6,4.6s-1.4,4.6-3.6,4.6A2.624,2.624,0,0,1,148.6,31Zm0-2.9c0,1.6.8,2.6,2,2.6s2-1,2-2.6-.8-2.6-2-2.6S148.6,26.5,148.6,28.1Z"/><path class="b" d="M155.9,28.1c0-2.9,1.7-4.6,4.4-4.6s4.4,1.7,4.4,4.6-1.7,4.6-4.4,4.6S155.9,31,155.9,28.1Zm6.4,0c0-1.8-.8-2.8-1.9-2.8s-2,1-2,2.8.8,2.8,2,2.8C161.5,30.9,162.3,29.9,162.3,28.1Z"/><path class="b" d="M165.7,28.1c0-2.9,1.7-4.6,4.4-4.6s4.4,1.7,4.4,4.6-1.7,4.6-4.4,4.6S165.7,31,165.7,28.1Zm6.3,0c0-1.8-.8-2.8-1.9-2.8s-2,1-2,2.8.8,2.8,2,2.8S172,29.9,172,28.1Z"/><path class="b" d="M181.3,23.7H184l-3.4,3.8,3.6,5.1h-2.8L178.9,29l-.6.7v2.9h-2.4v-12h2.4v6.6h0Z"/><path d="M109.8,54.9c.1,1.3,1.3,2.1,3,2.1,1.6,0,2.7-.8,2.7-2,0-1-.7-1.6-2.3-2l-1.1-.3c-2.1-.5-3-1.4-3-2.8,0-1.7,1.5-2.9,3.6-2.9s3.6,1.2,3.6,2.9h-1c-.1-1.2-1.1-2-2.7-2-1.4,0-2.6.7-2.6,1.9,0,1,.7,1.6,2.2,1.9l1.1.3c2.2.5,3,1.3,3,2.8,0,1.9-1.5,3.1-3.8,3.1s-3.8-1.2-3.9-3Z"/><path d="M117.9,47.1h1v4.4h0a2.61,2.61,0,0,1,2.5-1.5,2.549,2.549,0,0,1,2.7,2.8v4.9h-1V52.9a1.87,1.87,0,0,0-2-2.1,2.232,2.232,0,0,0-2.3,2.4v4.5h-1V47.1Z"/><path d="M125.5,55.6c0-1.3,1-2.1,2.7-2.2l2.4-.1v-.7a1.71,1.71,0,0,0-1.9-1.8,1.8,1.8,0,0,0-2,1.5h-.9c.1-1.4,1.2-2.3,3-2.3a2.5,2.5,0,0,1,2.8,2.5v5.2h-.9V56.2h0a2.951,2.951,0,0,1-2.6,1.6C126.5,57.8,125.5,56.9,125.5,55.6Zm5.1-.8V54l-2.3.2c-1.2.1-1.9.6-1.9,1.4a1.518,1.518,0,0,0,1.7,1.4A2.3,2.3,0,0,0,130.6,54.8Z"/><path d="M133.2,50.1h.9v1.4h0A2.013,2.013,0,0,1,136,50a3.536,3.536,0,0,1,.6.1v1c-.1-.1-.4-.1-.7-.1-1.1,0-1.8.8-1.8,2.1v4.7h-1V50.1Z"/><path d="M136.9,53.9c0-2.4,1.4-3.9,3.5-3.9s3.5,1.5,3.5,3.9-1.4,3.9-3.5,3.9S136.9,56.3,136.9,53.9Zm6,0c0-1.9-1-3.1-2.5-3.1s-2.5,1.1-2.5,3.1,1,3.1,2.5,3.1S142.9,55.8,142.9,53.9Z"/><path d="M145.1,50.1h.9v1.4h0a2.61,2.61,0,0,1,2.5-1.5,2.549,2.549,0,0,1,2.7,2.8v4.9h-1V52.9a1.87,1.87,0,0,0-2-2.1,2.211,2.211,0,0,0-2.2,2.4v4.5h-1V50.1Z"/><path d="M156,47.1h1V57.7h-1Z"/><path d="M158.7,47.8a.576.576,0,0,1,.6-.6.607.607,0,1,1,0,1.2C158.9,48.5,158.7,48.2,158.7,47.8Zm.1,2.3h1v7.6h-1Z"/><path d="M166.3,50.1h1.2l-3.4,3.3,3.5,4.3h-1.1l-3-3.7-.8.8v3h-1V47.1h1v6.6Z"/><path d="M174.4,55.5a2.987,2.987,0,0,1-3.1,2.3c-2.1,0-3.5-1.5-3.5-3.9s1.3-4,3.4-4c2,0,3.3,1.5,3.3,3.8v.4h-5.7v.1a2.5,2.5,0,0,0,2.5,2.8,2.251,2.251,0,0,0,2.2-1.4h.9Zm-5.6-2.2h4.7a2.262,2.262,0,0,0-2.3-2.5A2.337,2.337,0,0,0,168.8,53.3Z"/><path d="M175.4,53.9c0-2.4,1.3-3.9,3.2-3.9a2.761,2.761,0,0,1,2.6,1.7h0V47.2h1V57.8h-.9V56.2h0a2.761,2.761,0,0,1-2.6,1.7C176.7,57.8,175.4,56.2,175.4,53.9Zm1,0c0,1.9,1,3.1,2.4,3.1,1.5,0,2.4-1.2,2.4-3.1,0-1.8-1-3.1-2.4-3.1C177.3,50.8,176.4,52,176.4,53.9Z"/><path d="M187.1,60.4v-.8h.5c.7,0,1.1-.4,1.4-1.3l.2-.6L186.4,50h1l2.3,6.7h0L192,50h1l-3,8.1c-.7,1.8-1.2,2.3-2.5,2.3Z"/><path d="M193.5,53.9c0-2.4,1.4-3.9,3.5-3.9s3.5,1.5,3.5,3.9-1.4,3.9-3.5,3.9S193.5,56.3,193.5,53.9Zm5.9,0c0-1.9-1-3.1-2.5-3.1s-2.5,1.1-2.5,3.1,1,3.1,2.5,3.1S199.4,55.8,199.4,53.9Z"/><path d="M207.8,57.7h-.9V56.3h0a2.61,2.61,0,0,1-2.5,1.5,2.549,2.549,0,0,1-2.7-2.8V50h1v4.8a1.87,1.87,0,0,0,2,2.1,2.158,2.158,0,0,0,2.2-2.4V50h1v7.7Z"/><path d="M209.5,50.1h.9v1.4h0a2.013,2.013,0,0,1,1.9-1.5,3.536,3.536,0,0,1,.6.1v1c-.1-.1-.4-.1-.7-.1-1.1,0-1.8.8-1.8,2.1v4.7h-1V50.1Z"/><path d="M223.8,53.9c0,2.4-1.3,3.9-3.2,3.9a2.761,2.761,0,0,1-2.6-1.7h0v4.1h-1V50.1h.9v1.6h0a2.761,2.761,0,0,1,2.6-1.7C222.5,50,223.8,51.5,223.8,53.9Zm-.9,0c0-1.9-1-3.1-2.4-3.1s-2.4,1.2-2.4,3.1c0,1.8,1,3.1,2.4,3.1S222.9,55.7,222.9,53.9Z"/><path d="M225.2,47.1h1v4.4h0a2.61,2.61,0,0,1,2.5-1.5,2.549,2.549,0,0,1,2.7,2.8v4.9h-1V52.9a1.87,1.87,0,0,0-2-2.1,2.232,2.232,0,0,0-2.3,2.4v4.5h-1V47.1Z"/><path d="M232.7,53.9c0-2.4,1.4-3.9,3.5-3.9s3.5,1.5,3.5,3.9-1.4,3.9-3.5,3.9S232.7,56.3,232.7,53.9Zm5.9,0c0-1.9-1-3.1-2.5-3.1s-2.5,1.1-2.5,3.1,1,3.1,2.5,3.1S238.6,55.8,238.6,53.9Z"/><path d="M242.3,48.2v1.9h1.5v.8h-1.5v4.9c0,.8.3,1.1,1,1.1h.5v.8h-.7c-1.3,0-1.8-.5-1.8-1.9V50.9h-1.1v-.8h1.1V48.2h1Z"/><path d="M244.5,53.9c0-2.4,1.4-3.9,3.5-3.9s3.5,1.5,3.5,3.9-1.4,3.9-3.5,3.9S244.5,56.3,244.5,53.9Zm6,0c0-1.9-1-3.1-2.5-3.1s-2.5,1.1-2.5,3.1,1,3.1,2.5,3.1S250.5,55.8,250.5,53.9Z"/><rect class="c" width="81.9" height="81.8"/><path class="d" d="M383.3,21.7h.2v.8h0a1.3,1.3,0,0,1,2.5.5v2.3h-.3V23a1,1,0,0,0-1.1-1.1,1.155,1.155,0,0,0-1.2,1.2v2.1h-.3V21.7Z"/><path class="d" d="M387.1,23.5a1.611,1.611,0,1,1,3.2,0,1.611,1.611,0,1,1-3.2,0Zm2.9,0c0-1-.5-1.6-1.3-1.6s-1.3.6-1.3,1.6.5,1.6,1.3,1.6C389.4,25.1,390,24.5,390,23.5Z"/><path class="d" d="M394.5,25.3h-.3l-1-3.2h0l-1,3.2h-.3l-1-3.6h.3L392,25h0l1-3.3h.3l1,3.3h0l.9-3.3h.3Z"/><path class="e" d="M25.5,26.2H54.9V55.6H25.5Z"/><path class="b" d="M51.2,29.4H30.7a1.324,1.324,0,0,0-1.3,1.3h0V51.1a1.324,1.324,0,0,0,1.3,1.3h11V43.5h-3V40h3V37.4c0-3,1.8-4.6,4.5-4.6a24.369,24.369,0,0,1,2.7.1V36H47.1c-1.4,0-1.7.7-1.7,1.7V40h3.4l-.4,3.5h-3v8.9h5.9a1.324,1.324,0,0,0,1.3-1.3h0V30.7a1.493,1.493,0,0,0-1.4-1.3Z"/></g><g transform="translate(4.758 3)"><rect class="f" width="388.8" height="30.7" transform="translate(26.9 101.9)"/><path class="g" d="M26.9,169.2l388.8-1.5v62.9H26.9Z"/><path class="f" d="M26.9,107.7l388.8-1.4v62.9H26.9Z"/><path class="h" d="M26.9,230.5l388.8-.8v35.4H26.9Z"/><path class="i" d="M343,265.1H130.2s.5-5.6,1.7-14.6c4.6-35.5,19.4-123.5,53.7-125.7,5.9-.4,11.1,2,15.8,6.3,12.3,11.5,20.6,37.1,26.1,62.8a562.106,562.106,0,0,1,8.5,56.6c.7,7,1,11.9,1.2,13.8-.1-1.8-.3-6.8-.5-13.8-.6-34.9,2.1-120.6,41.5-125.7,9-1.2,16.9,2.7,23.8,9.9C332.8,166.9,343,265.1,343,265.1Z"/></g></g></svg>