<svg xmlns="http://www.w3.org/2000/svg" xmlns:xlink="http://www.w3.org/1999/xlink" width="446.295" height="111.839" viewBox="0 0 446.295 111.839"><defs><style>.a{fill:#fff;}.b,.f{fill:#333;}.c{fill:#ffc917;}.d{fill:#4d4d4d;}.e{fill:none;}.f{fill-rule:evenodd;}.g{filter:url(#a);}</style><filter id="a" x="0" y="0" width="446.295" height="111.839" filterUnits="userSpaceOnUse"><feOffset dy="3" input="SourceAlpha"/><feGaussianBlur stdDeviation="5" result="b"/><feFlood flood-opacity="0.349"/><feComposite operator="in" in2="b"/><feComposite in="SourceGraphic"/></filter></defs><g transform="translate(14.657 12)"><g class="g" transform="matrix(1, 0, 0, 1, -14.66, -12)"><rect class="a" width="416.295" height="81.839" transform="translate(15 12)"/></g><path class="b" d="M11.7-5.03V-6.383H6.657v1.826H9.264l-.008.191a2.586,2.586,0,0,1-2.822,2.49c-1.992,0-3.254-1.585-3.254-4.184,0-2.548,1.187-4.051,3.163-4.051a2.7,2.7,0,0,1,2.739,2H11.6c-.357-2.424-2.465-4.076-5.263-4.076-3.52,0-5.711,2.324-5.711,6.159C.623-2.133,2.814.2,6.392.2,9.729.2,11.7-1.768,11.7-5.03ZM13.148,0h2.424V-5.371a1.547,1.547,0,0,1,1.544-1.693,1.359,1.359,0,0,1,1.436,1.519V0h2.333V-5.4a1.511,1.511,0,0,1,1.527-1.66c.938,0,1.453.564,1.453,1.594V0h2.424V-6.076a2.791,2.791,0,0,0-2.914-2.988,2.819,2.819,0,0,0-2.764,1.826h-.05a2.364,2.364,0,0,0-2.482-1.826,2.612,2.612,0,0,0-2.54,1.776h-.05V-8.9H13.148ZM30.464.141a3.061,3.061,0,0,0,2.714-1.5h.05V0h2.341V-6.118c0-1.793-1.486-2.972-3.769-2.972-2.357,0-3.827,1.187-3.918,2.914H30.1a1.443,1.443,0,0,1,1.594-1.1c.913,0,1.494.481,1.494,1.312v.589l-2.241.133c-2.216.133-3.461,1.071-3.461,2.689A2.751,2.751,0,0,0,30.464.141Zm.8-1.751c-.822,0-1.37-.415-1.37-1.079,0-.631.515-1.038,1.419-1.1l1.876-.116v.647A1.777,1.777,0,0,1,31.261-1.61ZM38.375-10.1a1.252,1.252,0,0,0,1.262-1.245,1.247,1.247,0,0,0-1.262-1.245,1.247,1.247,0,0,0-1.262,1.245A1.252,1.252,0,0,0,38.375-10.1ZM37.171,0h2.424V-8.9H37.171Zm4.092,0h2.424V-11.978H41.263Z" transform="translate(108.374 32.555)"/><path d="M10.425,0V-9.864H9.345L5.694-1.189H5.653L2-9.864H.923V0H1.8V-8.094h.041L5.264,0h.813L9.509-8.094H9.55V0ZM12.64,2.57c1.162,0,1.675-.465,2.3-2.14l2.8-7.54h-.957L14.615-.9h-.021l-2.16-6.207h-.971L14.123.048l-.185.533c-.314.889-.67,1.217-1.326,1.217a1.981,1.981,0,0,1-.424-.041v.772A2.827,2.827,0,0,0,12.64,2.57ZM25.2,0c2.085,0,3.336-1.025,3.336-2.707a2.427,2.427,0,0,0-2.317-2.454v-.048a2.23,2.23,0,0,0,1.8-2.222c0-1.456-1.148-2.434-2.844-2.434H21.636V0ZM22.565-9.037h2.42c1.313,0,2.1.636,2.1,1.709,0,1.162-.875,1.846-2.372,1.846H22.565Zm0,8.21V-4.676h2.386c1.7,0,2.632.69,2.632,1.921s-.9,1.928-2.509,1.928ZM32.614.116c1.935,0,3.24-1.415,3.24-3.671s-1.306-3.671-3.24-3.671-3.24,1.408-3.24,3.671S30.68.116,32.614.116Zm0-.8C31.22-.684,30.3-1.75,30.3-3.555s.923-2.871,2.317-2.871,2.324,1.066,2.324,2.871S34.009-.684,32.614-.684Zm4.3-4.525c0,.984.636,1.579,1.989,1.894l1.066.253c.957.232,1.306.574,1.306,1.189,0,.745-.7,1.244-1.771,1.244a1.692,1.692,0,0,1-1.894-1.408h-.9C36.832-.738,37.9.116,39.5.116c1.552,0,2.68-.854,2.68-2.058,0-1-.533-1.552-1.955-1.894l-1.073-.253c-.943-.226-1.347-.588-1.347-1.169,0-.711.663-1.224,1.634-1.224a1.6,1.6,0,0,1,1.743,1.429h.868a2.366,2.366,0,0,0-2.611-2.174C37.96-7.226,36.914-6.385,36.914-5.209Zm6.337,0c0,.984.636,1.579,1.989,1.894l1.066.253c.957.232,1.306.574,1.306,1.189,0,.745-.7,1.244-1.771,1.244a1.692,1.692,0,0,1-1.894-1.408h-.9c.123,1.3,1.189,2.153,2.8,2.153,1.552,0,2.68-.854,2.68-2.058,0-1-.533-1.552-1.955-1.894l-1.073-.253c-.943-.226-1.347-.588-1.347-1.169,0-.711.663-1.224,1.634-1.224a1.6,1.6,0,0,1,1.743,1.429h.868A2.366,2.366,0,0,0,45.78-7.226C44.3-7.226,43.251-6.385,43.251-5.209ZM50.7-5.722a.63.63,0,0,0,.636-.636A.632.632,0,0,0,50.7-7a.638.638,0,0,0-.643.643A.636.636,0,0,0,50.7-5.722Zm0,5.783a.63.63,0,0,0,.636-.636.632.632,0,0,0-.636-.643.638.638,0,0,0-.643.643A.636.636,0,0,0,50.7.062ZM64.347-4.006v-.95H60.354v.82h3.063v.349A2.938,2.938,0,0,1,60.252-.711c-2.112,0-3.473-1.675-3.473-4.279,0-2.57,1.333-4.163,3.473-4.163A3.034,3.034,0,0,1,63.314-6.9h.971a3.9,3.9,0,0,0-4.033-3.124c-2.693,0-4.43,1.976-4.43,5.031,0,3.11,1.757,5.147,4.43,5.147A3.8,3.8,0,0,0,64.347-4.006ZM68.592.116c1.935,0,3.24-1.415,3.24-3.671s-1.306-3.671-3.24-3.671-3.24,1.408-3.24,3.671S66.657.116,68.592.116Zm0-.8c-1.395,0-2.317-1.066-2.317-2.871s.923-2.871,2.317-2.871,2.324,1.066,2.324,2.871S69.986-.684,68.592-.684Zm7.328.8c1.935,0,3.24-1.415,3.24-3.671s-1.306-3.671-3.24-3.671-3.24,1.408-3.24,3.671S73.985.116,75.92.116Zm0-.8C74.525-.684,73.6-1.75,73.6-3.555s.923-2.871,2.317-2.871,2.324,1.066,2.324,2.871S77.314-.684,75.92-.684Zm7.13.8A2.619,2.619,0,0,0,85.511-1.5h.021V0h.861V-9.864h-.909v4.218h-.021a2.57,2.57,0,0,0-2.434-1.579c-1.784,0-3.021,1.456-3.021,3.671S81.252.116,83.05.116Zm.157-6.542c1.354,0,2.283,1.155,2.283,2.871s-.93,2.871-2.283,2.871-2.27-1.135-2.27-2.871S81.84-6.426,83.207-6.426Zm7.178,4.163A2.507,2.507,0,0,0,93.1.205,2.635,2.635,0,0,0,95.922-2.7V-9.864h-.93v7.15A1.792,1.792,0,0,1,93.1-.663a1.672,1.672,0,0,1-1.791-1.6ZM100.509.116c1.935,0,3.24-1.415,3.24-3.671s-1.306-3.671-3.24-3.671-3.24,1.408-3.24,3.671S98.574.116,100.509.116Zm0-.8c-1.395,0-2.317-1.066-2.317-2.871s.923-2.871,2.317-2.871,2.324,1.066,2.324,2.871S101.9-.684,100.509-.684Zm7.861.8c1.791,0,3.008-1.456,3.008-3.671s-1.217-3.671-3-3.671a2.567,2.567,0,0,0-2.434,1.6h-.021V-9.864h-.909V0h.868V-1.5h.021A2.6,2.6,0,0,0,108.37.116ZM108.2-6.426c1.367,0,2.249,1.135,2.249,2.871S109.566-.684,108.2-.684c-1.34,0-2.283-1.162-2.283-2.871S106.866-6.426,108.2-6.426Zm7.643-2.461v1.777h-1.06v.752h1.06V-1.75c0,1.285.479,1.791,1.668,1.791A5.647,5.647,0,0,0,118.18,0V-.772c-.055.014-.4.027-.492.027-.656,0-.943-.314-.943-1.046V-6.357h1.4v-.752h-1.4V-8.887Zm6.228,9c1.935,0,3.24-1.415,3.24-3.671S124-7.226,122.069-7.226s-3.24,1.408-3.24,3.671S120.135.116,122.069.116Zm0-.8c-1.395,0-2.317-1.066-2.317-2.871s.923-2.871,2.317-2.871,2.324,1.066,2.324,2.871S123.464-.684,122.069-.684Zm7.13.8A2.619,2.619,0,0,0,131.66-1.5h.021V0h.861V-9.864h-.909v4.218h-.021a2.57,2.57,0,0,0-2.434-1.579c-1.784,0-3.021,1.456-3.021,3.671S127.4.116,129.2.116Zm.157-6.542c1.354,0,2.283,1.155,2.283,2.871s-.93,2.871-2.283,2.871-2.27-1.135-2.27-2.871S127.989-6.426,129.356-6.426ZM136.268.116a2.648,2.648,0,0,0,2.427-1.47h.021V0h.861V-4.867a2.334,2.334,0,0,0-2.639-2.358,2.484,2.484,0,0,0-2.769,2.174h.875a1.7,1.7,0,0,1,1.873-1.374,1.561,1.561,0,0,1,1.757,1.641v.615l-2.215.137c-1.641.109-2.55.848-2.55,2.064A2.121,2.121,0,0,0,136.268.116Zm.185-.779c-.964,0-1.627-.533-1.627-1.306s.622-1.271,1.743-1.347l2.105-.144v.786A2.1,2.1,0,0,1,136.452-.663Zm5.154,3.233c1.162,0,1.675-.465,2.3-2.14l2.8-7.54h-.957L143.582-.9h-.021L141.4-7.109h-.971L143.09.048l-.185.533c-.314.889-.67,1.217-1.326,1.217a1.981,1.981,0,0,1-.424-.041v.772A2.827,2.827,0,0,0,141.606,2.57ZM152.564.116a2.648,2.648,0,0,0,2.427-1.47h.021V0h.861V-4.867a2.334,2.334,0,0,0-2.639-2.358,2.484,2.484,0,0,0-2.769,2.174h.875a1.7,1.7,0,0,1,1.873-1.374,1.561,1.561,0,0,1,1.757,1.641v.615l-2.215.137c-1.641.109-2.55.848-2.55,2.064A2.121,2.121,0,0,0,152.564.116Zm.185-.779c-.964,0-1.627-.533-1.627-1.306s.622-1.271,1.743-1.347l2.105-.144v.786A2.1,2.1,0,0,1,152.749-.663Zm5.031-8.224v1.777h-1.06v.752h1.06V-1.75c0,1.285.479,1.791,1.668,1.791a5.647,5.647,0,0,0,.67-.041V-.772c-.055.014-.4.027-.492.027-.656,0-.943-.314-.943-1.046V-6.357h1.4v-.752h-1.4V-8.887Zm6.843,0v1.777h-1.06v.752h1.06V-1.75c0,1.285.479,1.791,1.668,1.791a5.647,5.647,0,0,0,.67-.041V-.772c-.055.014-.4.027-.492.027-.656,0-.943-.314-.943-1.046V-6.357h1.4v-.752h-1.4V-8.887ZM168.273,0h.909V-4.184a2.046,2.046,0,0,1,2.105-2.235,1.774,1.774,0,0,1,1.894,1.976V0h.909V-4.594a2.422,2.422,0,0,0-2.543-2.632A2.4,2.4,0,0,0,169.2-5.8h-.021V-9.864h-.909Zm12.25-2.017a1.925,1.925,0,0,1-2.017,1.34,2.306,2.306,0,0,1-2.324-2.6v-.055h5.325v-.383c0-2.119-1.189-3.507-3.076-3.507-1.928,0-3.179,1.483-3.179,3.691,0,2.256,1.237,3.65,3.233,3.65a2.772,2.772,0,0,0,2.933-2.133Zm-2.105-4.416a2.182,2.182,0,0,1,2.16,2.379h-4.389A2.275,2.275,0,0,1,178.418-6.433ZM185.582,0h.9V-4.368a1.858,1.858,0,0,1,1.8-2.051,1.561,1.561,0,0,1,1.627,1.682V0h.909V-4.478A1.785,1.785,0,0,1,192.6-6.419a1.571,1.571,0,0,1,1.647,1.764V0h.9V-4.86a2.19,2.19,0,0,0-2.3-2.365,2.341,2.341,0,0,0-2.242,1.5h-.021a2.051,2.051,0,0,0-2.058-1.5A2.126,2.126,0,0,0,186.457-5.8h-.021V-7.109h-.854Zm16-2.017a1.925,1.925,0,0,1-2.017,1.34,2.306,2.306,0,0,1-2.324-2.6v-.055h5.325v-.383c0-2.119-1.189-3.507-3.076-3.507-1.928,0-3.179,1.483-3.179,3.691,0,2.256,1.237,3.65,3.233,3.65a2.772,2.772,0,0,0,2.933-2.133Zm-2.105-4.416a2.182,2.182,0,0,1,2.16,2.379h-4.389A2.275,2.275,0,0,1,199.473-6.433Zm9.215,4.416a1.925,1.925,0,0,1-2.017,1.34,2.306,2.306,0,0,1-2.324-2.6v-.055h5.325v-.383c0-2.119-1.189-3.507-3.076-3.507-1.928,0-3.179,1.483-3.179,3.691,0,2.256,1.237,3.65,3.233,3.65a2.772,2.772,0,0,0,2.933-2.133Zm-2.105-4.416a2.182,2.182,0,0,1,2.16,2.379h-4.389A2.275,2.275,0,0,1,206.582-6.433Zm4.689-2.454v1.777h-1.06v.752h1.06V-1.75c0,1.285.479,1.791,1.668,1.791a5.647,5.647,0,0,0,.67-.041V-.772c-.055.014-.4.027-.492.027-.656,0-.943-.314-.943-1.046V-6.357h1.4v-.752h-1.4V-8.887Zm4.1.3a.6.6,0,0,0,.608-.6.6.6,0,0,0-.608-.6.6.6,0,0,0-.6.6A.6.6,0,0,0,215.373-8.586ZM214.922,0h.9V-7.109h-.9Zm2.522,0h.9V-4.211A2.024,2.024,0,0,1,220.4-6.419a1.743,1.743,0,0,1,1.873,1.955V0h.9V-4.607a2.38,2.38,0,0,0-2.516-2.618A2.4,2.4,0,0,0,218.319-5.8H218.3V-7.109h-.854ZM227.6,2.632c1.9,0,3.11-1.094,3.11-2.748V-7.109h-.861v1.5h-.021a2.626,2.626,0,0,0-2.461-1.62c-1.818,0-3.021,1.442-3.021,3.65s1.2,3.644,3,3.644a2.6,2.6,0,0,0,2.434-1.579h.021V-.082a1.923,1.923,0,0,1-2.16,1.935,2,2,0,0,1-2.023-1.2h-.937A2.75,2.75,0,0,0,227.6,2.632Zm-.089-3.363c-1.34,0-2.235-1.121-2.235-2.837s.9-2.857,2.235-2.857c1.367,0,2.29,1.148,2.29,2.851S228.881-.731,227.514-.731Zm5.722.793a.63.63,0,0,0,.636-.636.632.632,0,0,0-.636-.643.638.638,0,0,0-.643.643A.636.636,0,0,0,233.235.062Z" transform="translate(108.374 56.692)"/><rect class="c" width="81.933" height="81.839" transform="translate(0 0)"/><path class="d" d="M.393,0H.66V-2.123A1.149,1.149,0,0,1,1.818-3.37a1.021,1.021,0,0,1,1.094,1.1V0h.267V-2.3a1.22,1.22,0,0,0-1.3-1.306,1.242,1.242,0,0,0-1.23.827H.643v-.772H.393ZM5.7.055A1.616,1.616,0,0,0,7.285-1.777,1.616,1.616,0,0,0,5.7-3.609,1.613,1.613,0,0,0,4.117-1.777,1.613,1.613,0,0,0,5.7.055Zm0-.239c-.79,0-1.316-.6-1.316-1.593S4.91-3.37,5.7-3.37s1.319.6,1.319,1.593S6.489-.185,5.7-.185Zm6.854-3.37h-.28L11.364-.294h-.01l-.988-3.261h-.3L9.074-.294H9.067L8.155-3.555H7.878L8.91,0h.314l.984-3.213h.01L11.21,0h.308Z" transform="translate(382.943 25.297)"/><path class="e" d="M-4445.631-3598.666h29.4v29.4h-29.4Z" transform="translate(4471.131 3624.884)"/><g transform="translate(27.186 31.304)"><path class="f" d="M-4373.042-3584.929v.081l-.588-.048-.036-.032Z" transform="translate(4398.627 3584.929)"/><path class="f" d="M-4435.115-3584.929l-.036.032-.588.048v-.081Z" transform="translate(4437.716 3584.929)"/><path class="f" d="M-4415.333-3584.93h-.161v.081l-.588-.048-.037-.033h-22.358l-.036.033-.588.048v-.081h-.161a1.822,1.822,0,0,0-1.816,1.816v15.6a1.821,1.821,0,0,0,1.816,1.815h23.929a1.821,1.821,0,0,0,1.816-1.815v-15.6A1.822,1.822,0,0,0-4415.333-3584.93Zm-2,.908-9.909,7.4-.054-.04-.054.04-9.91-7.4Zm1.216,17.414h-22.358v-14.332c3.707,2.761,7.375,5.534,11.1,8.159l.022.015.055-.039.055.039.022-.015c3.727-2.625,7.4-5.4,11.1-8.159Z" transform="translate(4441.079 3584.93)"/><path class="b" d="M-4435.115-3584.929l-.036.032-.588.048v-.081Z" transform="translate(4437.716 3584.929)"/><path class="b" d="M-4373.042-3584.929v.081l-.588-.048-.036-.032Z" transform="translate(4398.627 3584.929)"/></g></g></svg>