<svg xmlns="http://www.w3.org/2000/svg" xmlns:xlink="http://www.w3.org/1999/xlink" width="446.637" height="111.839" viewBox="0 0 446.637 111.839"><defs><style>.a{fill:#fff;}.b{fill:#333;}.c{fill:#ffc917;}.d{fill:#4d4d4d;}.e{fill:none;}.f{filter:url(#a);}</style><filter id="a" x="0" y="0" width="446.637" height="111.839" filterUnits="userSpaceOnUse"><feOffset dy="3" input="SourceAlpha"/><feGaussianBlur stdDeviation="5" result="b"/><feFlood flood-opacity="0.349"/><feComposite operator="in" in2="b"/><feComposite in="SourceGraphic"/></filter></defs><g transform="translate(15 11.907)"><g class="f" transform="matrix(1, 0, 0, 1, -15, -11.91)"><rect class="a" width="416.637" height="81.839" transform="translate(15 12)"/></g><path class="b" d="M8.741-2.075H3.5v-9.9H1V0H8.741ZM11.264-10.1a1.252,1.252,0,0,0,1.262-1.245,1.247,1.247,0,0,0-1.262-1.245A1.247,1.247,0,0,0,10-11.347,1.252,1.252,0,0,0,11.264-10.1ZM10.061,0h2.424V-8.9H10.061Zm4.034,0h2.424V-5.1a1.763,1.763,0,0,1,1.776-1.951c1.087,0,1.635.664,1.635,1.826V0h2.424V-5.736c0-2.083-1.112-3.329-3.088-3.329a2.811,2.811,0,0,0-2.781,1.751h-.05V-8.9H14.095ZM26.4-5.329h-.033v-6.649H23.948V0h2.424V-2.938L27-3.619,29.551,0H32.34L28.779-5.08l3.4-3.818H29.426ZM38.516-2.723A1.771,1.771,0,0,1,36.723-1.6a1.979,1.979,0,0,1-2.042-2.142v-.149h6.134v-.739c0-2.706-1.635-4.458-4.225-4.458-2.631,0-4.292,1.843-4.292,4.682s1.644,4.6,4.383,4.6c2.2,0,3.793-1.17,4.059-2.914ZM36.615-7.3a1.846,1.846,0,0,1,1.868,1.917H34.706A1.927,1.927,0,0,1,36.615-7.3ZM45.364.141a2.934,2.934,0,0,0,2.772-1.668h.042V0h2.391V-11.978H48.145v4.607h-.05A2.861,2.861,0,0,0,45.38-9.04c-2.233,0-3.644,1.751-3.644,4.574C41.736-1.619,43.139.141,45.364.141ZM46.186-7.1c1.2,0,1.976,1.029,1.976,2.648s-.772,2.64-1.976,2.64c-1.22,0-1.967-1-1.967-2.64S44.965-7.1,46.186-7.1Zm7.247-3a1.252,1.252,0,0,0,1.262-1.245,1.247,1.247,0,0,0-1.262-1.245,1.247,1.247,0,0,0-1.262,1.245A1.252,1.252,0,0,0,53.432-10.1ZM52.229,0h2.424V-8.9H52.229Zm4.034,0h2.424V-5.1a1.763,1.763,0,0,1,1.776-1.951c1.087,0,1.635.664,1.635,1.826V0h2.424V-5.736c0-2.083-1.112-3.329-3.088-3.329a2.811,2.811,0,0,0-2.781,1.751H58.6V-8.9H56.263Z" transform="translate(108.454 32.555)"/><path d="M8.4-3.72V-4.6H4.7v.762H7.541v.324A2.728,2.728,0,0,1,4.6-.66c-1.961,0-3.225-1.555-3.225-3.974C1.377-7.021,2.615-8.5,4.6-8.5A2.817,2.817,0,0,1,7.446-6.4h.9A3.618,3.618,0,0,0,4.6-9.306C2.1-9.306.489-7.471.489-4.634.489-1.746,2.12.146,4.6.146A3.525,3.525,0,0,0,8.4-3.72ZM11.6.108a2.459,2.459,0,0,0,2.253-1.365h.019V0h.8V-4.52a2.168,2.168,0,0,0-2.45-2.19A2.306,2.306,0,0,0,9.655-4.691h.813a1.577,1.577,0,0,1,1.739-1.276,1.449,1.449,0,0,1,1.631,1.523v.571l-2.057.127c-1.523.1-2.368.787-2.368,1.917A1.969,1.969,0,0,0,11.6.108Zm.171-.724c-.9,0-1.511-.5-1.511-1.212s.578-1.181,1.619-1.25l1.955-.133v.73A1.951,1.951,0,0,1,11.775-.616ZM16.142,0h.838V-9.16h-.838ZM21.2,0h.844V-3.885A1.9,1.9,0,0,1,24-5.96a1.647,1.647,0,0,1,1.758,1.834V0H26.6V-4.266a2.249,2.249,0,0,0-2.361-2.444,2.225,2.225,0,0,0-2.177,1.327h-.019V-9.16H21.2Zm8.766.108a2.459,2.459,0,0,0,2.253-1.365h.019V0h.8V-4.52a2.168,2.168,0,0,0-2.45-2.19,2.306,2.306,0,0,0-2.571,2.019h.813A1.577,1.577,0,0,1,30.57-5.967,1.449,1.449,0,0,1,32.2-4.443v.571l-2.057.127c-1.523.1-2.368.787-2.368,1.917A1.969,1.969,0,0,0,29.967.108Zm.171-.724c-.9,0-1.511-.5-1.511-1.212s.578-1.181,1.619-1.25L32.2-3.212v.73A1.951,1.951,0,0,1,30.139-.616Zm4.177-4.221c0,.914.59,1.466,1.847,1.758l.99.235c.889.216,1.212.533,1.212,1.1,0,.692-.654,1.155-1.644,1.155a1.571,1.571,0,0,1-1.758-1.308h-.838a2.32,2.32,0,0,0,2.6,2c1.441,0,2.488-.793,2.488-1.911,0-.933-.5-1.441-1.815-1.758l-1-.235c-.876-.209-1.25-.546-1.25-1.085,0-.66.616-1.136,1.517-1.136a1.485,1.485,0,0,1,1.619,1.327h.806a2.2,2.2,0,0,0-2.425-2.019C35.287-6.709,34.315-5.929,34.315-4.837ZM48.655-.787H43.989V-4.3H48.42v-.774H43.989V-8.373h4.666V-9.16H43.126V0h5.529ZM50.991,0V-7.655h.044L56.424,0h.838V-9.16h-.857v7.649h-.044L50.991-9.16h-.857V0Zm7.985-9.16V0h2.971c2.749,0,4.342-1.682,4.342-4.583s-1.6-4.577-4.342-4.577Zm.87.787H61.9c2.253,0,3.51,1.358,3.51,3.8S64.149-.787,61.9-.787h-2.05Zm11.578-.933c-2.552,0-4.158,1.828-4.158,4.729S68.872.146,71.424.146s4.164-1.822,4.164-4.723S73.976-9.306,71.424-9.306Zm0,.806C73.43-8.5,74.7-6.982,74.7-4.577S73.43-.66,71.424-.66s-3.269-1.517-3.269-3.917S69.418-8.5,71.424-8.5ZM77.8-3.751h2.438L82.342,0h1.016L81.136-3.891A2.539,2.539,0,0,0,83.1-6.481,2.63,2.63,0,0,0,80.165-9.16H76.934V0H77.8Zm0-4.634h2.266A1.877,1.877,0,0,1,82.2-6.456,1.85,1.85,0,0,1,80.095-4.52H77.8Zm6.259,5.941c.1,1.549,1.435,2.59,3.39,2.59C89.432.146,90.74-.9,90.74-2.526c0-1.27-.755-1.987-2.641-2.412l-1-.229c-1.358-.3-1.923-.832-1.923-1.663,0-1.041.984-1.688,2.222-1.688a2.055,2.055,0,0,1,2.3,1.746h.87C90.518-8.246,89.2-9.306,87.42-9.306s-3.129,1.035-3.129,2.514c0,1.263.762,2.044,2.583,2.45l1,.222c1.409.324,1.98.844,1.98,1.708,0,1.041-.984,1.771-2.361,1.771-1.435,0-2.457-.7-2.564-1.8ZM97.532-.787H92.866V-4.3H97.3v-.774H92.866V-8.373h4.666V-9.16H92V0h5.529ZM99.011-9.16V0h2.971c2.749,0,4.342-1.682,4.342-4.583s-1.6-4.577-4.342-4.577Zm.87.787h2.05c2.253,0,3.51,1.358,3.51,3.8s-1.257,3.79-3.51,3.79H99.88ZM110.671,2.387c1.079,0,1.555-.432,2.133-1.987l2.6-7h-.889L112.506-.838h-.019L110.481-6.6h-.9L112.049.044l-.171.5c-.292.825-.622,1.13-1.231,1.13a1.839,1.839,0,0,1-.394-.038v.717A2.625,2.625,0,0,0,110.671,2.387ZM118.777.108c1.8,0,3.009-1.314,3.009-3.409s-1.212-3.409-3.009-3.409S115.769-5.4,115.769-3.3,116.981.108,118.777.108Zm0-.743c-1.295,0-2.152-.99-2.152-2.666s.857-2.666,2.152-2.666,2.158.99,2.158,2.666S120.072-.635,118.777-.635ZM128.2-6.6h-.838v3.917a1.873,1.873,0,0,1-1.923,2.044,1.6,1.6,0,0,1-1.727-1.815V-6.6h-.844v4.291a2.208,2.208,0,0,0,2.33,2.418,2.266,2.266,0,0,0,2.19-1.333h.019V0h.793ZM132.641,0h.844V-5.9H134.9v-.7h-1.422V-7.42c0-.736.336-1.06.971-1.06a2.734,2.734,0,0,1,.489.044v-.692a3.777,3.777,0,0,0-.609-.051,1.51,1.51,0,0,0-1.688,1.739V-6.6h-.92v.7h.92ZM138.3.108c1.8,0,3.009-1.314,3.009-3.409s-1.212-3.409-3.009-3.409S135.288-5.4,135.288-3.3,136.5.108,138.3.108Zm0-.743c-1.295,0-2.152-.99-2.152-2.666S137-5.967,138.3-5.967s2.158.99,2.158,2.666S139.591-.635,138.3-.635ZM142.422,0h.838V-4.113a1.584,1.584,0,0,1,1.536-1.8,1.7,1.7,0,0,1,.628.1V-6.64a2.178,2.178,0,0,0-.521-.07,1.681,1.681,0,0,0-1.669,1.282h-.019V-6.6h-.793Zm6.246-2.444c.1,1.549,1.435,2.59,3.39,2.59,1.987,0,3.294-1.047,3.294-2.672,0-1.27-.755-1.987-2.641-2.412l-1-.229c-1.358-.3-1.923-.832-1.923-1.663,0-1.041.984-1.688,2.222-1.688a2.055,2.055,0,0,1,2.3,1.746h.87c-.051-1.473-1.365-2.533-3.148-2.533S148.9-8.271,148.9-6.792c0,1.263.762,2.044,2.583,2.45l1,.222c1.409.324,1.98.844,1.98,1.708,0,1.041-.984,1.771-2.361,1.771-1.435,0-2.457-.7-2.564-1.8ZM159.161.108c1.8,0,3.009-1.314,3.009-3.409s-1.212-3.409-3.009-3.409S156.152-5.4,156.152-3.3,157.365.108,159.161.108Zm0-.743c-1.295,0-2.152-.99-2.152-2.666s.857-2.666,2.152-2.666,2.158.99,2.158,2.666S160.456-.635,159.161-.635Zm9.5-3.878a2.6,2.6,0,0,0-2.717-2.2c-1.8,0-2.983,1.327-2.983,3.409,0,2.114,1.187,3.409,2.99,3.409a2.577,2.577,0,0,0,2.717-2.152h-.832a1.79,1.79,0,0,1-1.879,1.409c-1.289,0-2.139-1.009-2.139-2.666,0-1.631.844-2.666,2.133-2.666a1.829,1.829,0,0,1,1.885,1.454Zm1.53-3.459a.561.561,0,0,0,.565-.559.561.561,0,0,0-.565-.559.559.559,0,0,0-.559.559A.559.559,0,0,0,170.187-7.973ZM169.768,0h.838V-6.6h-.838Zm4.3.108a2.459,2.459,0,0,0,2.253-1.365h.019V0h.8V-4.52a2.168,2.168,0,0,0-2.45-2.19,2.306,2.306,0,0,0-2.571,2.019h.813a1.577,1.577,0,0,1,1.739-1.276A1.449,1.449,0,0,1,176.3-4.443v.571l-2.057.127c-1.523.1-2.368.787-2.368,1.917A1.969,1.969,0,0,0,174.065.108Zm.171-.724c-.9,0-1.511-.5-1.511-1.212s.578-1.181,1.619-1.25l1.955-.133v.73A1.951,1.951,0,0,1,174.237-.616ZM178.6,0h.838V-9.16H178.6Zm5,0h.838V-4.056a1.726,1.726,0,0,1,1.669-1.9A1.45,1.45,0,0,1,187.624-4.4V0h.844V-4.158a1.657,1.657,0,0,1,1.65-1.8,1.459,1.459,0,0,1,1.53,1.638V0h.838V-4.513a2.033,2.033,0,0,0-2.133-2.2,2.174,2.174,0,0,0-2.082,1.39h-.019a1.9,1.9,0,0,0-1.911-1.39,1.974,1.974,0,0,0-1.923,1.327H184.4V-6.6h-.793Zm14.854-1.873a1.788,1.788,0,0,1-1.873,1.244,2.141,2.141,0,0,1-2.158-2.418V-3.1h4.945v-.355c0-1.968-1.1-3.256-2.856-3.256-1.79,0-2.952,1.377-2.952,3.428,0,2.095,1.149,3.39,3,3.39a2.574,2.574,0,0,0,2.723-1.98Zm-1.955-4.1a2.026,2.026,0,0,1,2.006,2.209h-4.075A2.112,2.112,0,0,1,196.5-5.973ZM202.992.108a2.432,2.432,0,0,0,2.285-1.5h.019V0h.8V-9.16h-.844v3.917h-.019a2.386,2.386,0,0,0-2.26-1.466c-1.657,0-2.806,1.352-2.806,3.409S201.322.108,202.992.108Zm.146-6.075c1.257,0,2.12,1.073,2.12,2.666s-.863,2.666-2.12,2.666S201.03-1.688,201.03-3.3,201.868-5.967,203.138-5.967Zm4.938-2.006a.561.561,0,0,0,.565-.559.561.561,0,0,0-.565-.559.559.559,0,0,0-.559.559A.559.559,0,0,0,208.076-7.973ZM207.657,0h.838V-6.6h-.838Zm4.3.108a2.459,2.459,0,0,0,2.253-1.365h.019V0h.8V-4.52a2.168,2.168,0,0,0-2.45-2.19,2.306,2.306,0,0,0-2.571,2.019h.813a1.577,1.577,0,0,1,1.739-1.276,1.449,1.449,0,0,1,1.631,1.523v.571l-2.057.127c-1.523.1-2.368.787-2.368,1.917A1.969,1.969,0,0,0,211.955.108Zm.171-.724c-.9,0-1.511-.5-1.511-1.212s.578-1.181,1.619-1.25l1.955-.133v.73A1.951,1.951,0,0,1,212.126-.616Zm5.084.673a.585.585,0,0,0,.59-.59.587.587,0,0,0-.59-.6.592.592,0,0,0-.6.6A.591.591,0,0,0,217.21.057Z" transform="translate(108.336 55.692)"/><rect class="c" width="82.034" height="81.933" transform="translate(0 0)"/><path class="d" d="M.393,0H.66V-2.123A1.149,1.149,0,0,1,1.818-3.37a1.021,1.021,0,0,1,1.094,1.1V0h.267V-2.3a1.22,1.22,0,0,0-1.3-1.306,1.242,1.242,0,0,0-1.23.827H.643v-.772H.393ZM5.7.055A1.616,1.616,0,0,0,7.285-1.777,1.616,1.616,0,0,0,5.7-3.609,1.613,1.613,0,0,0,4.117-1.777,1.613,1.613,0,0,0,5.7.055Zm0-.239c-.79,0-1.316-.6-1.316-1.593S4.91-3.37,5.7-3.37s1.319.6,1.319,1.593S6.489-.185,5.7-.185Zm6.854-3.37h-.28L11.364-.294h-.01l-.988-3.261h-.3L9.074-.294H9.067L8.155-3.555H7.878L8.91,0h.314l.984-3.213h.01L11.21,0h.308Z" transform="translate(383.244 25.297)"/><path class="e" d="M-4445.631-2844.475h29.438v29.4h-29.438Z" transform="translate(4471.163 2870.694)"/><g transform="translate(29.913 29.859)"><path class="b" d="M-4413.2-2834.644h-18.98a1.613,1.613,0,0,0-1.632,1.592v18.995a1.621,1.621,0,0,0,1.632,1.629h18.943a1.613,1.613,0,0,0,1.631-1.592v-19.032A1.558,1.558,0,0,0-4413.2-2834.644Zm-14.014,18.92h-3.3v-10.59h3.3Zm-1.667-12a1.914,1.914,0,0,1-1.929-1.925,1.963,1.963,0,0,1,1.929-1.926,1.937,1.937,0,0,1,1.927,1.926A1.937,1.937,0,0,1-4428.881-2827.72Zm14.013,12h-3.3v-5.147c0-1.222-.037-2.814-1.705-2.814-1.706,0-1.965,1.333-1.965,2.74v5.258h-3.3v-10.627h3.151v1.444h.038a3.431,3.431,0,0,1,3.114-1.7c3.336,0,3.967,2.185,3.967,5.036Z" transform="translate(4433.813 2834.644)"/></g></g></svg>