<svg xmlns="http://www.w3.org/2000/svg" xmlns:xlink="http://www.w3.org/1999/xlink" width="446.295" height="111.839" viewBox="0 0 446.295 111.839"><defs><style>.a{fill:#fff;}.b,.f{fill:#333;}.c,.h{fill:#ffc917;}.d{fill:#4d4d4d;}.e{fill:none;}.g,.h{stroke:none;}.i{filter:url(#a);}</style><filter id="a" x="0" y="0" width="446.295" height="111.839" filterUnits="userSpaceOnUse"><feOffset dy="3" input="SourceAlpha"/><feGaussianBlur stdDeviation="5" result="b"/><feFlood flood-opacity="0.349"/><feComposite operator="in" in2="b"/><feComposite in="SourceGraphic"/></filter></defs><g transform="translate(14.657 12)"><g class="i" transform="matrix(1, 0, 0, 1, -14.66, -12)"><rect class="a" width="416.295" height="81.839" transform="translate(15 12)"/></g><path class="b" d="M3.5,0V-11.978H1V0ZM5.458,0H7.881V-5.1A1.763,1.763,0,0,1,9.658-7.056c1.087,0,1.635.664,1.635,1.826V0h2.424V-5.736c0-2.083-1.112-3.329-3.088-3.329A2.811,2.811,0,0,0,7.848-7.313H7.8V-8.9H5.458Zm9.816-6.284c0,1.336.872,2.2,2.59,2.565l1.519.315c.872.2,1.179.465,1.179.938,0,.581-.564.955-1.478.955a1.47,1.47,0,0,1-1.668-1.2H15.049c.158,1.751,1.577,2.9,4.034,2.9,2.291,0,3.893-1.154,3.893-2.905,0-1.3-.764-2.034-2.623-2.424l-1.519-.324c-.9-.191-1.229-.5-1.229-.955,0-.589.556-.971,1.395-.971a1.358,1.358,0,0,1,1.511,1.212h2.233C22.694-7.919,21.283-9.089,19-9.089,16.734-9.089,15.273-7.977,15.273-6.284Zm9.716-4.665V-8.9H23.736v1.826h1.253V-2.4c0,1.735.813,2.432,2.905,2.432a5.572,5.572,0,0,0,1.154-.1V-1.851a3.923,3.923,0,0,1-.589.042c-.714,0-1.046-.324-1.046-1V-7.072h1.644V-8.9H27.413v-2.05ZM33.111.141a3.061,3.061,0,0,0,2.714-1.5h.05V0h2.341V-6.118c0-1.793-1.486-2.972-3.769-2.972-2.357,0-3.827,1.187-3.918,2.914h2.216a1.443,1.443,0,0,1,1.594-1.1c.913,0,1.494.481,1.494,1.312v.589l-2.241.133c-2.216.133-3.461,1.071-3.461,2.689A2.751,2.751,0,0,0,33.111.141Zm.8-1.751c-.822,0-1.37-.415-1.37-1.079,0-.631.515-1.038,1.419-1.1l1.876-.116v.647A1.777,1.777,0,0,1,33.908-1.61ZM44.014,3.354c2.665,0,4.441-1.361,4.441-3.478V-8.9H46.064v1.552h-.042A2.919,2.919,0,0,0,43.275-9.04c-2.258,0-3.652,1.735-3.652,4.557,0,2.781,1.436,4.458,3.611,4.458a2.9,2.9,0,0,0,2.748-1.594h.05V-.058c0,1.029-.7,1.718-1.951,1.718A1.763,1.763,0,0,1,42.271.631H39.9C40.088,2.216,41.673,3.354,44.014,3.354Zm.042-5.246c-1.2,0-1.951-.946-1.951-2.573S42.86-7.1,44.056-7.1c1.212,0,1.984,1.029,1.984,2.631S45.267-1.893,44.056-1.893ZM50.2,0h2.424V-4.972a1.772,1.772,0,0,1,1.893-1.984,2.494,2.494,0,0,1,.88.141V-8.948a2.469,2.469,0,0,0-.689-.091A2.124,2.124,0,0,0,52.593-7.3h-.05V-8.9H50.2Zm8.786.141a3.061,3.061,0,0,0,2.714-1.5h.05V0h2.341V-6.118c0-1.793-1.486-2.972-3.769-2.972-2.357,0-3.827,1.187-3.918,2.914h2.216a1.443,1.443,0,0,1,1.594-1.1c.913,0,1.494.481,1.494,1.312v.589l-2.241.133c-2.216.133-3.461,1.071-3.461,2.689A2.751,2.751,0,0,0,58.988.141Zm.8-1.751c-.822,0-1.37-.415-1.37-1.079,0-.631.515-1.038,1.419-1.1l1.876-.116v.647A1.777,1.777,0,0,1,59.785-1.61ZM65.824,0h2.424V-5.371a1.547,1.547,0,0,1,1.544-1.693,1.359,1.359,0,0,1,1.436,1.519V0H73.56V-5.4a1.511,1.511,0,0,1,1.527-1.66c.938,0,1.453.564,1.453,1.594V0h2.424V-6.076A2.791,2.791,0,0,0,76.05-9.064a2.819,2.819,0,0,0-2.764,1.826h-.05a2.364,2.364,0,0,0-2.482-1.826,2.612,2.612,0,0,0-2.54,1.776h-.05V-8.9H65.824Zm15.5-11.978.2,8.035h2.092l.2-8.035ZM82.571.208a1.317,1.317,0,0,0,1.353-1.3,1.317,1.317,0,0,0-1.353-1.3,1.317,1.317,0,0,0-1.353,1.3A1.317,1.317,0,0,0,82.571.208Z" transform="translate(108.716 32.555)"/><path d="M.438-2.632C.54-.964,1.982.157,4.088.157c2.14,0,3.548-1.128,3.548-2.878,0-1.367-.813-2.14-2.844-2.6L3.719-5.564c-1.463-.328-2.071-.9-2.071-1.791,0-1.121,1.06-1.818,2.393-1.818a2.214,2.214,0,0,1,2.475,1.88h.937C7.4-8.88,5.981-10.021,4.061-10.021S.69-8.907.69-7.314c0,1.36.82,2.2,2.782,2.639l1.073.239c1.518.349,2.133.909,2.133,1.839,0,1.121-1.06,1.907-2.543,1.907-1.545,0-2.646-.759-2.762-1.941ZM11.877.116c1.935,0,3.24-1.415,3.24-3.671s-1.306-3.671-3.24-3.671-3.24,1.408-3.24,3.671S9.943.116,11.877.116Zm0-.8C10.483-.684,9.56-1.75,9.56-3.555s.923-2.871,2.317-2.871S14.2-5.359,14.2-3.555,13.272-.684,11.877-.684ZM16.461,0h.9V-4.368a1.858,1.858,0,0,1,1.8-2.051,1.561,1.561,0,0,1,1.627,1.682V0H21.7V-4.478a1.785,1.785,0,0,1,1.777-1.941,1.571,1.571,0,0,1,1.647,1.764V0h.9V-4.86a2.19,2.19,0,0,0-2.3-2.365,2.341,2.341,0,0,0-2.242,1.5h-.021a2.051,2.051,0,0,0-2.058-1.5A2.126,2.126,0,0,0,17.336-5.8h-.021V-7.109h-.854ZM32.6-2.017A1.925,1.925,0,0,1,30.58-.677a2.306,2.306,0,0,1-2.324-2.6v-.055h5.325v-.383c0-2.119-1.189-3.507-3.076-3.507-1.928,0-3.179,1.483-3.179,3.691,0,2.256,1.237,3.65,3.233,3.65a2.772,2.772,0,0,0,2.933-2.133ZM30.491-6.433a2.182,2.182,0,0,1,2.16,2.379H28.263A2.275,2.275,0,0,1,30.491-6.433ZM37.816.116c1.935,0,3.24-1.415,3.24-3.671s-1.306-3.671-3.24-3.671-3.24,1.408-3.24,3.671S35.881.116,37.816.116Zm0-.8C36.421-.684,35.5-1.75,35.5-3.555s.923-2.871,2.317-2.871S40.14-5.359,40.14-3.555,39.21-.684,37.816-.684ZM42.4,0h.9V-4.211a2.024,2.024,0,0,1,2.058-2.208,1.743,1.743,0,0,1,1.873,1.955V0h.9V-4.607a2.38,2.38,0,0,0-2.516-2.618A2.4,2.4,0,0,0,43.274-5.8h-.021V-7.109H42.4ZM54.714-2.017A1.925,1.925,0,0,1,52.7-.677a2.306,2.306,0,0,1-2.324-2.6v-.055H55.7v-.383c0-2.119-1.189-3.507-3.076-3.507-1.928,0-3.179,1.483-3.179,3.691,0,2.256,1.237,3.65,3.233,3.65A2.772,2.772,0,0,0,55.61-2.017ZM52.609-6.433a2.182,2.182,0,0,1,2.16,2.379H50.38A2.275,2.275,0,0,1,52.609-6.433ZM60.053,0h.9V-4.43a1.706,1.706,0,0,1,1.654-1.935,1.83,1.83,0,0,1,.677.1V-7.15a2.346,2.346,0,0,0-.561-.075,1.81,1.81,0,0,0-1.8,1.381h-.021V-7.109h-.854Zm8.856-2.017a1.925,1.925,0,0,1-2.017,1.34,2.306,2.306,0,0,1-2.324-2.6v-.055h5.325v-.383c0-2.119-1.189-3.507-3.076-3.507-1.928,0-3.179,1.483-3.179,3.691,0,2.256,1.237,3.65,3.233,3.65A2.772,2.772,0,0,0,69.8-2.017ZM66.8-6.433a2.182,2.182,0,0,1,2.16,2.379H64.574A2.275,2.275,0,0,1,66.8-6.433Zm7.769-.793a2.6,2.6,0,0,0-2.447,1.62H72.1v-1.5h-.854V2.352h.9V-1.463h.027A2.55,2.55,0,0,0,74.592.116C76.377.116,77.6-1.34,77.6-3.555S76.37-7.226,74.572-7.226ZM74.415-.684c-1.347,0-2.27-1.155-2.27-2.871s.923-2.871,2.27-2.871c1.374,0,2.263,1.142,2.263,2.871S75.789-.684,74.415-.684Zm7.42.8c1.935,0,3.24-1.415,3.24-3.671s-1.306-3.671-3.24-3.671-3.24,1.408-3.24,3.671S79.9.116,81.835.116Zm0-.8c-1.395,0-2.317-1.066-2.317-2.871s.923-2.871,2.317-2.871,2.324,1.066,2.324,2.871S83.229-.684,81.835-.684ZM86.418,0h.9V-4.43a1.706,1.706,0,0,1,1.654-1.935,1.83,1.83,0,0,1,.677.1V-7.15a2.346,2.346,0,0,0-.561-.075,1.81,1.81,0,0,0-1.8,1.381h-.021V-7.109h-.854Zm4.8-8.887v1.777h-1.06v.752h1.06V-1.75c0,1.285.479,1.791,1.668,1.791A5.647,5.647,0,0,0,93.551,0V-.772c-.055.014-.4.027-.492.027-.656,0-.943-.314-.943-1.046V-6.357h1.4v-.752h-1.4V-8.887Zm8.4,6.87a1.925,1.925,0,0,1-2.017,1.34,2.306,2.306,0,0,1-2.324-2.6v-.055H100.6v-.383c0-2.119-1.189-3.507-3.076-3.507-1.928,0-3.179,1.483-3.179,3.691,0,2.256,1.237,3.65,3.233,3.65a2.772,2.772,0,0,0,2.933-2.133ZM97.506-6.433a2.182,2.182,0,0,1,2.16,2.379H95.277A2.275,2.275,0,0,1,97.506-6.433ZM104.632.116a2.619,2.619,0,0,0,2.461-1.62h.021V0h.861V-9.864h-.909v4.218h-.021a2.57,2.57,0,0,0-2.434-1.579c-1.784,0-3.021,1.456-3.021,3.671S102.834.116,104.632.116Zm.157-6.542c1.354,0,2.283,1.155,2.283,2.871s-.93,2.871-2.283,2.871-2.27-1.135-2.27-2.871S103.422-6.426,104.789-6.426Zm8.463,9c1.162,0,1.675-.465,2.3-2.14l2.8-7.54h-.957L115.228-.9h-.021l-2.16-6.207h-.971L114.735.048l-.185.533c-.314.889-.67,1.217-1.326,1.217a1.981,1.981,0,0,1-.424-.041v.772A2.827,2.827,0,0,0,113.252,2.57ZM122.122.116c1.935,0,3.24-1.415,3.24-3.671s-1.306-3.671-3.24-3.671-3.24,1.408-3.24,3.671S120.187.116,122.122.116Zm0-.8c-1.395,0-2.317-1.066-2.317-2.871s.923-2.871,2.317-2.871,2.324,1.066,2.324,2.871S123.516-.684,122.122-.684Zm10.285-6.426h-.9v4.218a2.017,2.017,0,0,1-2.071,2.2,1.727,1.727,0,0,1-1.859-1.955V-7.109h-.909v4.621a2.378,2.378,0,0,0,2.509,2.6,2.441,2.441,0,0,0,2.358-1.436h.021V0h.854ZM134.1,0h.9V-4.43a1.706,1.706,0,0,1,1.654-1.935,1.83,1.83,0,0,1,.677.1V-7.15a2.346,2.346,0,0,0-.561-.075,1.81,1.81,0,0,0-1.8,1.381h-.021V-7.109H134.1Zm10.677-7.226a2.6,2.6,0,0,0-2.447,1.62h-.027v-1.5h-.854V2.352h.9V-1.463h.027A2.55,2.55,0,0,0,144.8.116c1.784,0,3.008-1.456,3.008-3.671S146.58-7.226,144.782-7.226Zm-.157,6.542c-1.347,0-2.27-1.155-2.27-2.871s.923-2.871,2.27-2.871c1.374,0,2.263,1.142,2.263,2.871S146-.684,144.625-.684Zm7.42.8c1.935,0,3.24-1.415,3.24-3.671s-1.306-3.671-3.24-3.671-3.24,1.408-3.24,3.671S150.111.116,152.045.116Zm0-.8c-1.395,0-2.317-1.066-2.317-2.871s.923-2.871,2.317-2.871,2.324,1.066,2.324,2.871S153.44-.684,152.045-.684Zm4.44-4.525c0,.984.636,1.579,1.989,1.894l1.066.253c.957.232,1.306.574,1.306,1.189,0,.745-.7,1.244-1.771,1.244a1.692,1.692,0,0,1-1.894-1.408h-.9c.123,1.3,1.189,2.153,2.8,2.153,1.552,0,2.68-.854,2.68-2.058,0-1-.533-1.552-1.955-1.894l-1.073-.253c-.943-.226-1.347-.588-1.347-1.169,0-.711.663-1.224,1.634-1.224a1.6,1.6,0,0,1,1.743,1.429h.868a2.366,2.366,0,0,0-2.611-2.174C157.531-7.226,156.485-6.385,156.485-5.209Zm7.01-3.678v1.777h-1.06v.752h1.06V-1.75c0,1.285.479,1.791,1.668,1.791a5.647,5.647,0,0,0,.67-.041V-.772c-.055.014-.4.027-.492.027-.656,0-.943-.314-.943-1.046V-6.357h1.4v-.752h-1.4V-8.887Zm8.839,9a2.648,2.648,0,0,0,2.427-1.47h.021V0h.861V-4.867A2.334,2.334,0,0,0,173-7.226a2.484,2.484,0,0,0-2.769,2.174h.875a1.7,1.7,0,0,1,1.873-1.374,1.561,1.561,0,0,1,1.757,1.641v.615l-2.215.137c-1.641.109-2.55.848-2.55,2.064A2.121,2.121,0,0,0,172.334.116Zm.185-.779c-.964,0-1.627-.533-1.627-1.306s.622-1.271,1.743-1.347l2.105-.144v.786A2.1,2.1,0,0,1,172.518-.663Zm4.638-4.546c0,.984.636,1.579,1.989,1.894l1.066.253c.957.232,1.306.574,1.306,1.189,0,.745-.7,1.244-1.771,1.244a1.692,1.692,0,0,1-1.894-1.408h-.9c.123,1.3,1.189,2.153,2.8,2.153,1.552,0,2.68-.854,2.68-2.058,0-1-.533-1.552-1.955-1.894L179.4-4.088c-.943-.226-1.347-.588-1.347-1.169,0-.711.663-1.224,1.634-1.224a1.6,1.6,0,0,1,1.743,1.429h.868a2.366,2.366,0,0,0-2.611-2.174C178.2-7.226,177.156-6.385,177.156-5.209ZM189.666.116c1.935,0,3.24-1.415,3.24-3.671s-1.306-3.671-3.24-3.671-3.24,1.408-3.24,3.671S187.731.116,189.666.116Zm0-.8c-1.395,0-2.317-1.066-2.317-2.871s.923-2.871,2.317-2.871,2.324,1.066,2.324,2.871S191.06-.684,189.666-.684ZM194.611,0h.909V-6.357h1.524v-.752h-1.531v-.882c0-.793.362-1.142,1.046-1.142a2.944,2.944,0,0,1,.526.048V-9.83a4.068,4.068,0,0,0-.656-.055,1.626,1.626,0,0,0-1.818,1.873v.9h-.991v.752h.991Zm4.112,0h.909V-6.357h1.524v-.752h-1.531v-.882c0-.793.362-1.142,1.046-1.142a2.944,2.944,0,0,1,.526.048V-9.83a4.068,4.068,0,0,0-.656-.055,1.626,1.626,0,0,0-1.818,1.873v.9h-.991v.752h.991Zm8.261-2.017a1.925,1.925,0,0,1-2.017,1.34,2.306,2.306,0,0,1-2.324-2.6v-.055h5.325v-.383c0-2.119-1.189-3.507-3.076-3.507-1.928,0-3.179,1.483-3.179,3.691,0,2.256,1.237,3.65,3.233,3.65a2.772,2.772,0,0,0,2.933-2.133Zm-2.105-4.416a2.182,2.182,0,0,1,2.16,2.379H202.65A2.275,2.275,0,0,1,204.879-6.433ZM209.319,0h.9V-4.211a2.024,2.024,0,0,1,2.058-2.208,1.743,1.743,0,0,1,1.873,1.955V0h.9V-4.607a2.38,2.38,0,0,0-2.516-2.618A2.4,2.4,0,0,0,210.194-5.8h-.021V-7.109h-.854Zm7.256-5.209c0,.984.636,1.579,1.989,1.894l1.066.253c.957.232,1.306.574,1.306,1.189,0,.745-.7,1.244-1.771,1.244a1.692,1.692,0,0,1-1.894-1.408h-.9c.123,1.3,1.189,2.153,2.8,2.153,1.552,0,2.68-.854,2.68-2.058,0-1-.533-1.552-1.955-1.894l-1.073-.253c-.943-.226-1.347-.588-1.347-1.169,0-.711.663-1.224,1.634-1.224a1.6,1.6,0,0,1,1.743,1.429h.868A2.366,2.366,0,0,0,219.1-7.226C217.621-7.226,216.575-6.385,216.575-5.209Zm7.133-3.377a.6.6,0,0,0,.608-.6.6.6,0,0,0-.608-.6.6.6,0,0,0-.6.6A.6.6,0,0,0,223.708-8.586ZM223.257,0h.9V-7.109h-.9ZM231.5-7.109h-.943L228.387-.95h-.021l-2.16-6.159h-.957L227.895,0h.964Zm5.8,5.093a1.925,1.925,0,0,1-2.017,1.34,2.306,2.306,0,0,1-2.324-2.6v-.055h5.325v-.383c0-2.119-1.189-3.507-3.076-3.507-1.928,0-3.179,1.483-3.179,3.691,0,2.256,1.237,3.65,3.233,3.65a2.772,2.772,0,0,0,2.933-2.133Zm-2.105-4.416a2.182,2.182,0,0,1,2.16,2.379h-4.389A2.275,2.275,0,0,1,235.192-6.433Z" transform="translate(108.716 56.692)"/><rect class="c" width="81.933" height="81.839" transform="translate(0 0)"/><path class="d" d="M.393,0H.66V-2.123A1.149,1.149,0,0,1,1.818-3.37a1.021,1.021,0,0,1,1.094,1.1V0h.267V-2.3a1.22,1.22,0,0,0-1.3-1.306,1.242,1.242,0,0,0-1.23.827H.643v-.772H.393ZM5.7.055A1.616,1.616,0,0,0,7.285-1.777,1.616,1.616,0,0,0,5.7-3.609,1.613,1.613,0,0,0,4.117-1.777,1.613,1.613,0,0,0,5.7.055Zm0-.239c-.79,0-1.316-.6-1.316-1.593S4.91-3.37,5.7-3.37s1.319.6,1.319,1.593S6.489-.185,5.7-.185Zm6.854-3.37h-.28L11.364-.294h-.01l-.988-3.261h-.3L9.074-.294H9.067L8.155-3.555H7.878L8.91,0h.314l.984-3.213h.01L11.21,0h.308Z" transform="translate(382.943 25.297)"/><path class="e" d="M-4446.442-1674.665h32.672v32.673h-32.672Z" transform="translate(4471.985 1697.806)"/><g transform="translate(23.23 26.183)"><path class="b" d="M-4428.147-1661.273c3.667,0,4.1.014,5.551.08a7.607,7.607,0,0,1,2.55.473,4.253,4.253,0,0,1,1.579,1.028,4.252,4.252,0,0,1,1.027,1.579,7.578,7.578,0,0,1,.473,2.551c.066,1.448.08,1.883.08,5.551s-.013,4.1-.08,5.551a7.575,7.575,0,0,1-.473,2.55,4.249,4.249,0,0,1-1.027,1.579,4.256,4.256,0,0,1-1.579,1.028,7.6,7.6,0,0,1-2.55.473c-1.448.066-1.883.08-5.551.08s-4.1-.014-5.55-.08a7.6,7.6,0,0,1-2.551-.473,4.258,4.258,0,0,1-1.58-1.028,4.256,4.256,0,0,1-1.028-1.579,7.607,7.607,0,0,1-.472-2.55c-.067-1.449-.081-1.883-.081-5.551s.014-4.1.081-5.551a7.61,7.61,0,0,1,.472-2.551,4.259,4.259,0,0,1,1.028-1.579,4.255,4.255,0,0,1,1.58-1.028,7.6,7.6,0,0,1,2.551-.473c1.449-.066,1.883-.08,5.55-.08m0-2.475c-3.73,0-4.2.016-5.664.083a10.068,10.068,0,0,0-3.334.638,6.738,6.738,0,0,0-2.434,1.584,6.737,6.737,0,0,0-1.583,2.433,10.077,10.077,0,0,0-.639,3.334c-.066,1.465-.083,1.933-.083,5.664s.016,4.2.083,5.663a10.079,10.079,0,0,0,.639,3.334,6.742,6.742,0,0,0,1.583,2.433,6.737,6.737,0,0,0,2.434,1.584,10.075,10.075,0,0,0,3.334.638c1.465.067,1.933.082,5.664.082s4.2-.015,5.663-.082a10.078,10.078,0,0,0,3.335-.638,6.729,6.729,0,0,0,2.433-1.584,6.74,6.74,0,0,0,1.585-2.433,10.094,10.094,0,0,0,.638-3.334c.066-1.465.083-1.933.083-5.663s-.017-4.2-.083-5.664a10.092,10.092,0,0,0-.638-3.334,6.735,6.735,0,0,0-1.585-2.433,6.73,6.73,0,0,0-2.433-1.584,10.072,10.072,0,0,0-3.335-.638C-4423.95-1663.732-4424.417-1663.748-4428.147-1663.748Zm0,6.683a7.054,7.054,0,0,0-7.054,7.054,7.053,7.053,0,0,0,7.054,7.053,7.053,7.053,0,0,0,7.053-7.053A7.054,7.054,0,0,0-4428.147-1657.065Zm0,11.632a4.579,4.579,0,0,1-4.579-4.579,4.579,4.579,0,0,1,4.579-4.579,4.579,4.579,0,0,1,4.579,4.579A4.579,4.579,0,0,1-4428.147-1645.433Zm8.98-11.911a1.648,1.648,0,0,1-1.648,1.648,1.648,1.648,0,0,1-1.649-1.648,1.648,1.648,0,0,1,1.649-1.648A1.648,1.648,0,0,1-4419.167-1657.344Z" transform="translate(4441.884 1663.748)"/></g><g transform="translate(41.577 35.806)"><g class="f" transform="translate(1627.199 797.713)"><path class="g" d="M -1610.2548828125 -780.3384399414062 L -1625.878173828125 -780.3384399414062 C -1626.734497070312 -780.3384399414062 -1627.490600585938 -780.7596435546875 -1627.900756835938 -781.4652099609375 C -1628.309692382812 -782.1688232421875 -1628.300170898438 -783.03515625 -1627.875122070312 -783.7825927734375 L -1620.056518554688 -797.5119018554688 C -1619.62841796875 -798.263916015625 -1618.884399414062 -798.7129516601562 -1618.06640625 -798.7129516601562 C -1617.249755859375 -798.7129516601562 -1616.505859375 -798.2637939453125 -1616.076538085938 -797.5114135742188 L -1608.258178710938 -783.7806396484375 C -1607.83349609375 -783.0337524414062 -1607.82373046875 -782.16845703125 -1608.23193359375 -781.465576171875 C -1608.642700195312 -780.759521484375 -1609.398803710938 -780.3384399414062 -1610.2548828125 -780.3384399414062 Z M -1618.1181640625 -792.3191528320312 C -1618.164184570312 -792.3191528320312 -1618.20166015625 -792.28173828125 -1618.20166015625 -792.2357788085938 L -1618.20166015625 -788.3350219726562 C -1618.20166015625 -788.2888793945312 -1618.164184570312 -788.2512817382812 -1618.1181640625 -788.2512817382812 C -1618.072021484375 -788.2512817382812 -1618.034423828125 -788.2888793945312 -1618.034423828125 -788.3350219726562 L -1618.034423828125 -792.2357788085938 C -1618.034423828125 -792.28173828125 -1618.072021484375 -792.3191528320312 -1618.1181640625 -792.3191528320312 Z"/><path class="h" d="M -1610.2548828125 -781.3384399414062 C -1609.7568359375 -781.3384399414062 -1609.323974609375 -781.5770874023438 -1609.0966796875 -781.9677124023438 C -1608.86962890625 -782.3587036132812 -1608.881103515625 -782.8530883789062 -1609.127197265625 -783.2858276367188 L -1616.945068359375 -797.0158081054688 C -1617.193603515625 -797.4513549804688 -1617.612548828125 -797.7129516601562 -1618.06640625 -797.7129516601562 C -1618.5205078125 -797.7129516601562 -1618.939453125 -797.4528198242188 -1619.1875 -797.0170288085938 L -1627.005859375 -783.2882690429688 C -1627.251953125 -782.8555297851562 -1627.263427734375 -782.3587036132812 -1627.0361328125 -781.9677124023438 C -1626.80908203125 -781.5770874023438 -1626.3759765625 -781.3384399414062 -1625.878173828125 -781.3384399414062 L -1610.2548828125 -781.3384399414062 M -1618.06640625 -786.0270385742188 C -1617.468017578125 -786.0270385742188 -1616.98291015625 -785.5418090820312 -1616.98291015625 -784.9432983398438 C -1616.98291015625 -784.3450317382812 -1617.468017578125 -783.8599243164062 -1618.06640625 -783.8599243164062 C -1618.6650390625 -783.8599243164062 -1619.14990234375 -784.3450317382812 -1619.14990234375 -784.9432983398438 C -1619.14990234375 -785.5418090820312 -1618.6650390625 -786.0270385742188 -1618.06640625 -786.0270385742188 M -1618.1181640625 -793.3191528320312 C -1617.51953125 -793.3191528320312 -1617.034423828125 -792.8340454101562 -1617.034423828125 -792.2357788085938 L -1617.034423828125 -788.3350219726562 C -1617.034423828125 -787.7366333007812 -1617.51953125 -787.2512817382812 -1618.1181640625 -787.2512817382812 C -1618.71630859375 -787.2512817382812 -1619.20166015625 -787.7366333007812 -1619.20166015625 -788.3350219726562 L -1619.20166015625 -792.2357788085938 C -1619.20166015625 -792.8340454101562 -1618.71630859375 -793.3191528320312 -1618.1181640625 -793.3191528320312 M -1610.2548828125 -779.3384399414062 L -1625.878173828125 -779.3384399414062 C -1627.094848632812 -779.3384399414062 -1628.174072265625 -779.9456176757812 -1628.765258789062 -780.962646484375 C -1629.346435546875 -781.9623413085938 -1629.33837890625 -783.2323608398438 -1628.744384765625 -784.2769165039062 L -1620.925415039062 -798.0067749023438 C -1620.3173828125 -799.0750122070312 -1619.24853515625 -799.7129516601562 -1618.06640625 -799.7129516601562 C -1616.886108398438 -799.7129516601562 -1615.817504882812 -799.0752563476562 -1615.2080078125 -798.0070190429688 L -1607.38916015625 -784.2754516601562 C -1606.786254882812 -783.21533203125 -1606.778198242188 -781.9774780273438 -1607.3671875 -780.96337890625 C -1607.95947265625 -779.9453125 -1609.038696289062 -779.3384399414062 -1610.2548828125 -779.3384399414062 Z"/></g></g></g></svg>