<svg xmlns="http://www.w3.org/2000/svg" xmlns:xlink="http://www.w3.org/1999/xlink" width="446.295" height="111.839" viewBox="0 0 446.295 111.839"><defs><style>.a{fill:#fff;}.b,.f{fill:#333;}.c,.h{fill:#ffc917;}.d{fill:#4d4d4d;}.e{fill:none;}.g,.h{stroke:none;}.i{filter:url(#a);}</style><filter id="a" x="0" y="0" width="446.295" height="111.839" filterUnits="userSpaceOnUse"><feOffset dy="3" input="SourceAlpha"/><feGaussianBlur stdDeviation="5" result="b"/><feFlood flood-opacity="0.349"/><feComposite operator="in" in2="b"/><feComposite in="SourceGraphic"/></filter></defs><g transform="translate(14.657 12)"><g class="i" transform="matrix(1, 0, 0, 1, -14.66, -12)"><rect class="a" width="416.295" height="81.839" transform="translate(15 12)"/></g><path class="b" d="M3.5,0V-4.715H8.375V-6.7H3.5V-9.911H8.84v-2.067H1V0Zm8.874.141a3.061,3.061,0,0,0,2.714-1.5h.05V0h2.341V-6.118c0-1.793-1.486-2.972-3.769-2.972-2.357,0-3.827,1.187-3.918,2.914h2.216A1.443,1.443,0,0,1,13.6-7.28c.913,0,1.494.481,1.494,1.312v.589l-2.241.133C10.642-5.113,9.4-4.175,9.4-2.557A2.751,2.751,0,0,0,12.376.141Zm.8-1.751c-.822,0-1.37-.415-1.37-1.079,0-.631.515-1.038,1.419-1.1L15.1-3.91v.647A1.777,1.777,0,0,1,13.173-1.61ZM27.127-5.586a3.708,3.708,0,0,0-4.042-3.5c-2.665,0-4.366,1.776-4.366,4.632,0,2.905,1.7,4.648,4.383,4.648,2.341,0,3.91-1.353,4.034-3.453H24.877A1.674,1.674,0,0,1,23.126-1.71c-1.2,0-1.951-1-1.951-2.748,0-1.718.747-2.731,1.942-2.731a1.725,1.725,0,0,1,1.76,1.6ZM34.2-2.723A1.771,1.771,0,0,1,32.406-1.6a1.979,1.979,0,0,1-2.042-2.142v-.149H36.5v-.739c0-2.706-1.635-4.458-4.225-4.458-2.631,0-4.292,1.843-4.292,4.682s1.644,4.6,4.383,4.6c2.2,0,3.793-1.17,4.059-2.914ZM32.3-7.3a1.846,1.846,0,0,1,1.868,1.917H30.389A1.927,1.927,0,0,1,32.3-7.3ZM43.031.141c2.241,0,3.611-1.727,3.611-4.59s-1.378-4.59-3.619-4.59a2.894,2.894,0,0,0-2.748,1.685h-.05v-4.624H37.8V0h2.391V-1.527h.05A2.934,2.934,0,0,0,43.031.141ZM42.193-7.1c1.2,0,1.967,1.029,1.967,2.648S43.4-1.81,42.193-1.81c-1.179,0-1.976-1.029-1.976-2.64C40.217-6.043,41.022-7.1,42.193-7.1ZM51.979.191c2.689,0,4.408-1.718,4.408-4.648,0-2.889-1.743-4.632-4.408-4.632s-4.408,1.751-4.408,4.632C47.572-1.536,49.29.191,51.979.191Zm0-1.851c-1.2,0-1.951-1-1.951-2.789,0-1.768.772-2.789,1.951-2.789s1.942,1.021,1.942,2.789C53.922-2.665,53.167-1.66,51.979-1.66ZM61.716.191c2.689,0,4.408-1.718,4.408-4.648,0-2.889-1.743-4.632-4.408-4.632s-4.408,1.751-4.408,4.632C57.309-1.536,59.027.191,61.716.191Zm0-1.851c-1.2,0-1.951-1-1.951-2.789,0-1.768.772-2.789,1.951-2.789s1.942,1.021,1.942,2.789C63.659-2.665,62.9-1.66,61.716-1.66Zm8.168-3.669h-.033v-6.649H67.427V0h2.424V-2.938l.631-.681L73.03,0h2.789L72.258-5.08l3.4-3.818H72.906Zm7.288-6.649.2,8.035h2.092l.2-8.035ZM78.417.208a1.317,1.317,0,0,0,1.353-1.3,1.317,1.317,0,0,0-1.353-1.3,1.317,1.317,0,0,0-1.353,1.3A1.317,1.317,0,0,0,78.417.208Z" transform="translate(108.374 32.555)"/><path d="M4.812,0C7.046,0,8.386-1.1,8.386-2.9A2.6,2.6,0,0,0,5.9-5.53v-.051a2.389,2.389,0,0,0,1.934-2.38c0-1.56-1.23-2.607-3.047-2.607H.989V0ZM1.985-9.683H4.578c1.406,0,2.249.681,2.249,1.831,0,1.245-.937,1.978-2.542,1.978h-2.3Zm0,8.8V-5.01H4.541c1.824,0,2.82.74,2.82,2.058S6.4-.886,4.673-.886ZM12.526.125C14.6.125,16-1.392,16-3.809s-1.4-3.933-3.472-3.933S9.055-6.233,9.055-3.809,10.454.125,12.526.125Zm0-.857c-1.494,0-2.483-1.143-2.483-3.076s.989-3.076,2.483-3.076,2.49,1.143,2.49,3.076S14.021-.732,12.526-.732Zm8.2.857c1.919,0,3.223-1.56,3.223-3.933s-1.3-3.933-3.215-3.933a2.751,2.751,0,0,0-2.607,1.714H18.1v-4.541h-.974V0h.93V-1.611h.022A2.787,2.787,0,0,0,20.724.125Zm-.183-7.009c1.465,0,2.41,1.216,2.41,3.076s-.945,3.076-2.41,3.076c-1.436,0-2.446-1.245-2.446-3.076S19.113-6.885,20.541-6.885ZM27.862,0h.967V-4.746A1.827,1.827,0,0,1,30.6-6.819a1.961,1.961,0,0,1,.725.11v-.952a2.513,2.513,0,0,0-.6-.081A1.94,1.94,0,0,0,28.8-6.262h-.022V-7.617h-.916Zm9.113-2.161A2.063,2.063,0,0,1,34.815-.725c-1.516,0-2.49-1.069-2.49-2.791v-.059H38.03v-.41c0-2.271-1.274-3.757-3.3-3.757-2.065,0-3.406,1.589-3.406,3.955,0,2.417,1.326,3.911,3.464,3.911a2.97,2.97,0,0,0,3.142-2.285ZM34.72-6.892a2.338,2.338,0,0,1,2.314,2.549h-4.7A2.437,2.437,0,0,1,34.72-6.892ZM39.1,0h.967V-4.68a1.991,1.991,0,0,1,1.926-2.2,1.673,1.673,0,0,1,1.743,1.8V0h.974V-4.8a1.912,1.912,0,0,1,1.9-2.08,1.683,1.683,0,0,1,1.765,1.89V0h.967V-5.208a2.346,2.346,0,0,0-2.461-2.534,2.508,2.508,0,0,0-2.4,1.6h-.022a2.2,2.2,0,0,0-2.2-1.6,2.278,2.278,0,0,0-2.219,1.531h-.022V-7.617H39.1ZM53.84.125c2.073,0,3.472-1.516,3.472-3.933s-1.4-3.933-3.472-3.933-3.472,1.509-3.472,3.933S51.767.125,53.84.125Zm0-.857c-1.494,0-2.483-1.143-2.483-3.076s.989-3.076,2.483-3.076,2.49,1.143,2.49,3.076S55.334-.732,53.84-.732ZM64.2-7.617H63.188l-2.322,6.6h-.022l-2.314-6.6H57.5L60.339,0h1.033Zm5.839,5.457A2.063,2.063,0,0,1,67.877-.725c-1.516,0-2.49-1.069-2.49-2.791v-.059h5.706v-.41c0-2.271-1.274-3.757-3.3-3.757-2.065,0-3.406,1.589-3.406,3.955,0,2.417,1.326,3.911,3.464,3.911A2.97,2.97,0,0,0,71-2.161ZM67.782-6.892A2.338,2.338,0,0,1,70.1-4.343h-4.7A2.437,2.437,0,0,1,67.782-6.892ZM75.042.125a2.806,2.806,0,0,0,2.637-1.736H77.7V0h.923V-10.569H77.65V-6.05h-.022a2.753,2.753,0,0,0-2.607-1.692c-1.912,0-3.237,1.56-3.237,3.933S73.116.125,75.042.125Zm.168-7.009c1.45,0,2.446,1.238,2.446,3.076s-1,3.076-2.446,3.076-2.432-1.216-2.432-3.076S73.746-6.885,75.211-6.885ZM83.045,0h.974V-4.482a2.192,2.192,0,0,1,2.256-2.4A1.9,1.9,0,0,1,88.3-4.761V0h.974V-4.922a2.6,2.6,0,0,0-2.725-2.82,2.568,2.568,0,0,0-2.512,1.531h-.022v-4.358h-.974Zm8.183-9.2a.647.647,0,0,0,.652-.645.647.647,0,0,0-.652-.645.645.645,0,0,0-.645.645A.645.645,0,0,0,91.228-9.2ZM90.744,0h.967V-7.617h-.967Zm2.324-5.581c0,1.055.681,1.692,2.131,2.029l1.143.271c1.025.249,1.4.615,1.4,1.274,0,.8-.754,1.333-1.9,1.333a1.813,1.813,0,0,1-2.029-1.509h-.967c.132,1.392,1.274,2.307,3,2.307,1.663,0,2.871-.916,2.871-2.2,0-1.077-.571-1.663-2.095-2.029l-1.15-.271c-1.011-.242-1.443-.63-1.443-1.252,0-.762.71-1.311,1.75-1.311a1.713,1.713,0,0,1,1.868,1.531h.93a2.535,2.535,0,0,0-2.8-2.329C94.189-7.742,93.068-6.841,93.068-5.581ZM109.076-.908h-5.3v-9.661h-1V0h6.292ZM110.66-9.2a.647.647,0,0,0,.652-.645.647.647,0,0,0-.652-.645.645.645,0,0,0-.645.645A.645.645,0,0,0,110.66-9.2ZM110.176,0h.967V-7.617h-.967Zm3.518-4.014v-6.555h-.974V0h.974V-2.952l.85-.784L117.591,0h1.135L115.24-4.329l3.42-3.289h-1.2Zm10.622,1.853a2.063,2.063,0,0,1-2.161,1.436c-1.516,0-2.49-1.069-2.49-2.791v-.059h5.706v-.41c0-2.271-1.274-3.757-3.3-3.757-2.065,0-3.406,1.589-3.406,3.955,0,2.417,1.326,3.911,3.464,3.911a2.97,2.97,0,0,0,3.142-2.285ZM122.06-6.892a2.338,2.338,0,0,1,2.314,2.549h-4.7A2.437,2.437,0,0,1,122.06-6.892ZM129.674,0h.974V-6.812h1.633v-.806h-1.641v-.945c0-.85.388-1.223,1.121-1.223a3.154,3.154,0,0,1,.564.051v-.8a4.358,4.358,0,0,0-.7-.059,1.743,1.743,0,0,0-1.948,2.007v.967h-1.062v.806h1.062Zm3.642,0h.967V-4.746a1.827,1.827,0,0,1,1.772-2.073,1.961,1.961,0,0,1,.725.11v-.952a2.513,2.513,0,0,0-.6-.081,1.94,1.94,0,0,0-1.926,1.479h-.022V-7.617h-.916Zm6.938.125c2.073,0,3.472-1.516,3.472-3.933s-1.4-3.933-3.472-3.933-3.472,1.509-3.472,3.933S138.182.125,140.255.125Zm0-.857c-1.494,0-2.483-1.143-2.483-3.076s.989-3.076,2.483-3.076,2.49,1.143,2.49,3.076S141.749-.732,140.255-.732ZM144.79,0h.967V-4.68a1.991,1.991,0,0,1,1.926-2.2,1.673,1.673,0,0,1,1.743,1.8V0h.974V-4.8a1.912,1.912,0,0,1,1.9-2.08,1.683,1.683,0,0,1,1.765,1.89V0h.967V-5.208a2.346,2.346,0,0,0-2.461-2.534,2.508,2.508,0,0,0-2.4,1.6h-.022a2.2,2.2,0,0,0-2.2-1.6,2.278,2.278,0,0,0-2.219,1.531h-.022V-7.617h-.916Zm15.041,2.754c1.245,0,1.794-.5,2.461-2.292l3-8.079h-1.025l-2.314,6.65h-.022l-2.314-6.65h-1.04L161.421.051l-.2.571c-.337.952-.718,1.3-1.421,1.3a2.122,2.122,0,0,1-.454-.044V2.71A3.029,3.029,0,0,0,159.831,2.754ZM168.959.125c2.073,0,3.472-1.516,3.472-3.933s-1.4-3.933-3.472-3.933-3.472,1.509-3.472,3.933S166.886.125,168.959.125Zm0-.857c-1.494,0-2.483-1.143-2.483-3.076s.989-3.076,2.483-3.076,2.49,1.143,2.49,3.076S170.453-.732,168.959-.732ZM179.6-7.617h-.967V-3.1A2.161,2.161,0,0,1,176.417-.74a1.851,1.851,0,0,1-1.992-2.095V-7.617h-.974v4.951A2.548,2.548,0,0,0,176.139.125a2.615,2.615,0,0,0,2.527-1.538h.022V0h.916ZM181.048,0h.967V-4.746a1.827,1.827,0,0,1,1.772-2.073,1.961,1.961,0,0,1,.725.11v-.952a2.513,2.513,0,0,0-.6-.081,1.94,1.94,0,0,0-1.926,1.479h-.022V-7.617h-.916Zm10.69-7.742a2.785,2.785,0,0,0-2.622,1.736h-.029V-7.617h-.916V2.52h.967V-1.567h.029A2.733,2.733,0,0,0,191.76.125c1.912,0,3.223-1.56,3.223-3.933S193.665-7.742,191.738-7.742ZM191.57-.732c-1.443,0-2.432-1.238-2.432-3.076s.989-3.076,2.432-3.076c1.472,0,2.424,1.223,2.424,3.076S193.042-.732,191.57-.732Zm7.575.857c2.073,0,3.472-1.516,3.472-3.933s-1.4-3.933-3.472-3.933-3.472,1.509-3.472,3.933S197.072.125,199.145.125Zm0-.857c-1.494,0-2.483-1.143-2.483-3.076s.989-3.076,2.483-3.076,2.49,1.143,2.49,3.076S200.639-.732,199.145-.732Zm4.382-4.849c0,1.055.681,1.692,2.131,2.029l1.143.271c1.025.249,1.4.615,1.4,1.274,0,.8-.754,1.333-1.9,1.333a1.813,1.813,0,0,1-2.029-1.509h-.967c.132,1.392,1.274,2.307,3,2.307,1.663,0,2.871-.916,2.871-2.2,0-1.077-.571-1.663-2.095-2.029l-1.15-.271c-1.011-.242-1.443-.63-1.443-1.252,0-.762.71-1.311,1.75-1.311A1.713,1.713,0,0,1,208.1-5.413h.93a2.535,2.535,0,0,0-2.8-2.329C204.648-7.742,203.527-6.841,203.527-5.581Zm7.136-3.94v1.9h-1.135v.806h1.135v4.937c0,1.377.513,1.919,1.787,1.919A6.051,6.051,0,0,0,213.168,0V-.828c-.059.015-.425.029-.527.029-.7,0-1.011-.337-1.011-1.121V-6.812h1.5v-.806h-1.5v-1.9Zm4.221-1.047.066,7.229h.886l.059-7.229ZM215.389.066a.677.677,0,0,0,.688-.681.679.679,0,0,0-.688-.688.677.677,0,0,0-.681.688A.675.675,0,0,0,215.389.066Z" transform="translate(108.374 57.692)"/><rect class="c" width="81.933" height="81.839" transform="translate(0)"/><path class="d" d="M.393,0H.66V-2.123A1.149,1.149,0,0,1,1.818-3.37a1.021,1.021,0,0,1,1.094,1.1V0h.267V-2.3a1.22,1.22,0,0,0-1.3-1.306,1.242,1.242,0,0,0-1.23.827H.643v-.772H.393ZM5.7.055A1.616,1.616,0,0,0,7.285-1.777,1.616,1.616,0,0,0,5.7-3.609,1.613,1.613,0,0,0,4.117-1.777,1.613,1.613,0,0,0,5.7.055Zm0-.239c-.79,0-1.316-.6-1.316-1.593S4.91-3.37,5.7-3.37s1.319.6,1.319,1.593S6.489-.185,5.7-.185Zm6.854-3.37h-.28L11.364-.294h-.01l-.988-3.261h-.3L9.074-.294H9.067L8.155-3.555H7.878L8.91,0h.314l.984-3.213h.01L11.21,0h.308Z" transform="translate(382.943 25.297)"/><path class="e" d="M-4445.631-1123.792h29.4v29.4h-29.4Z" transform="translate(4471.131 1150.01)"/><path class="b" d="M-4413.183-1115.129h-20.45a1.269,1.269,0,0,0-1.27,1.268v20.45a1.269,1.269,0,0,0,1.27,1.269h11.009v-8.9h-3v-3.469h3v-2.559c0-2.969,1.813-4.586,4.461-4.586a24.552,24.552,0,0,1,2.677.137v3.1h-1.837c-1.441,0-1.72.685-1.72,1.689v2.215h3.436l-.447,3.469h-2.989v8.9h5.858a1.268,1.268,0,0,0,1.269-1.269v-20.45a1.268,1.268,0,0,0-1.269-1.268Z" transform="translate(4460.375 1144.555)"/><g transform="translate(44.754 35.849)"><g class="f" transform="translate(1627.199 797.713)"><path class="g" d="M -1610.2548828125 -780.3384399414062 L -1625.878173828125 -780.3384399414062 C -1626.734497070312 -780.3384399414062 -1627.490600585938 -780.7596435546875 -1627.900756835938 -781.4652099609375 C -1628.309692382812 -782.1688232421875 -1628.300170898438 -783.03515625 -1627.875122070312 -783.7825927734375 L -1620.056518554688 -797.5119018554688 C -1619.62841796875 -798.263916015625 -1618.884399414062 -798.7129516601562 -1618.06640625 -798.7129516601562 C -1617.249755859375 -798.7129516601562 -1616.505859375 -798.2637939453125 -1616.076538085938 -797.5114135742188 L -1608.258178710938 -783.7806396484375 C -1607.83349609375 -783.0337524414062 -1607.82373046875 -782.16845703125 -1608.23193359375 -781.465576171875 C -1608.642700195312 -780.759521484375 -1609.398803710938 -780.3384399414062 -1610.2548828125 -780.3384399414062 Z M -1618.1181640625 -792.3191528320312 C -1618.164184570312 -792.3191528320312 -1618.20166015625 -792.28173828125 -1618.20166015625 -792.2357788085938 L -1618.20166015625 -788.3350219726562 C -1618.20166015625 -788.2888793945312 -1618.164184570312 -788.2512817382812 -1618.1181640625 -788.2512817382812 C -1618.072021484375 -788.2512817382812 -1618.034423828125 -788.2888793945312 -1618.034423828125 -788.3350219726562 L -1618.034423828125 -792.2357788085938 C -1618.034423828125 -792.28173828125 -1618.072021484375 -792.3191528320312 -1618.1181640625 -792.3191528320312 Z"/><path class="h" d="M -1610.2548828125 -781.3384399414062 C -1609.7568359375 -781.3384399414062 -1609.323974609375 -781.5770874023438 -1609.0966796875 -781.9677124023438 C -1608.86962890625 -782.3587036132812 -1608.881103515625 -782.8530883789062 -1609.127197265625 -783.2858276367188 L -1616.945068359375 -797.0158081054688 C -1617.193603515625 -797.4513549804688 -1617.612548828125 -797.7129516601562 -1618.06640625 -797.7129516601562 C -1618.5205078125 -797.7129516601562 -1618.939453125 -797.4528198242188 -1619.1875 -797.0170288085938 L -1627.005859375 -783.2882690429688 C -1627.251953125 -782.8555297851562 -1627.263427734375 -782.3587036132812 -1627.0361328125 -781.9677124023438 C -1626.80908203125 -781.5770874023438 -1626.3759765625 -781.3384399414062 -1625.878173828125 -781.3384399414062 L -1610.2548828125 -781.3384399414062 M -1618.06640625 -786.0270385742188 C -1617.468017578125 -786.0270385742188 -1616.98291015625 -785.5418090820312 -1616.98291015625 -784.9432983398438 C -1616.98291015625 -784.3450317382812 -1617.468017578125 -783.8599243164062 -1618.06640625 -783.8599243164062 C -1618.6650390625 -783.8599243164062 -1619.14990234375 -784.3450317382812 -1619.14990234375 -784.9432983398438 C -1619.14990234375 -785.5418090820312 -1618.6650390625 -786.0270385742188 -1618.06640625 -786.0270385742188 M -1618.1181640625 -793.3191528320312 C -1617.51953125 -793.3191528320312 -1617.034423828125 -792.8340454101562 -1617.034423828125 -792.2357788085938 L -1617.034423828125 -788.3350219726562 C -1617.034423828125 -787.7366333007812 -1617.51953125 -787.2512817382812 -1618.1181640625 -787.2512817382812 C -1618.71630859375 -787.2512817382812 -1619.20166015625 -787.7366333007812 -1619.20166015625 -788.3350219726562 L -1619.20166015625 -792.2357788085938 C -1619.20166015625 -792.8340454101562 -1618.71630859375 -793.3191528320312 -1618.1181640625 -793.3191528320312 M -1610.2548828125 -779.3384399414062 L -1625.878173828125 -779.3384399414062 C -1627.094848632812 -779.3384399414062 -1628.174072265625 -779.9456176757812 -1628.765258789062 -780.962646484375 C -1629.346435546875 -781.9623413085938 -1629.33837890625 -783.2323608398438 -1628.744384765625 -784.2769165039062 L -1620.925415039062 -798.0067749023438 C -1620.3173828125 -799.0750122070312 -1619.24853515625 -799.7129516601562 -1618.06640625 -799.7129516601562 C -1616.886108398438 -799.7129516601562 -1615.817504882812 -799.0752563476562 -1615.2080078125 -798.0070190429688 L -1607.38916015625 -784.2754516601562 C -1606.786254882812 -783.21533203125 -1606.778198242188 -781.9774780273438 -1607.3671875 -780.96337890625 C -1607.95947265625 -779.9453125 -1609.038696289062 -779.3384399414062 -1610.2548828125 -779.3384399414062 Z"/></g></g></g></svg>