<svg xmlns="http://www.w3.org/2000/svg" width="1806.967" height="191.2" viewBox="0 0 1806.967 191.2"><defs><style>.a{fill:#77fffb;stroke:#77fffb;stroke-miterlimit:10;stroke-width:2px;}</style></defs><g transform="translate(1 1)"><path class="a" d="M300.4,2750.354v17.081H468.366v44.672H300.4v17.081H468.366v52.555H209.421V2697.8H468.366v52.555Z" transform="translate(-209.421 -2695.171)"/><path class="a" d="M1254.7,2697.8v183.944H1135.728l-105.678-108.527v108.527H939.07V2697.8h118.975l105.678,108.527V2697.8Z" transform="translate(-663.523 -2695.171)"/><path class="a" d="M1919.073,2750.354v17.081h167.965v44.672H1919.073v17.081h167.965v52.555H1828.093V2697.8h258.945v52.555Z" transform="translate(-1216.813 -2695.171)"/><path class="a" d="M2800.591,2828.925l43.391,52.818H2736.2l-33.943-43.1h-53.538v43.1h-90.981V2697.8H2750.2c55.639,0,93.78,29.431,93.78,70.424C2843.982,2795.027,2827.535,2817.1,2800.591,2828.925Zm-151.867-48.089h83.982c9.1,0,20.3,0,20.3-12.613s-11.2-12.614-20.3-12.614h-83.982Z" transform="translate(-1670.916 -2695.171)"/><path class="a" d="M3498.421,2776.167h158.867v100.118H3604.8l-6.648-26.541c-20.645,18.132-52.839,29.168-104.278,29.168-90.281,0-143.469-30.745-143.469-94.863,0-63.855,53.189-94.337,153.968-94.337,97.979,0,149.068,25.752,152.917,75.943h-93.081c-3.5-9.46-21.345-18.132-59.837-18.132-53.889,0-62.987,17.081-62.987,39.154,0,22.336,9.448,42.307,62.987,42.307,34.992,0,56.338-3.679,59.837-16.03h-65.786Z" transform="translate(-2164.234 -2689.713)"/><path class="a" d="M4084.539,2697.8h104.978l65.087,68.322,65.085-68.322h104.978L4300.094,2821.3v60.439h-90.981V2821.3Z" transform="translate(-2621.129 -2695.171)"/></g></svg>