<svg xmlns="http://www.w3.org/2000/svg" width="1804.092" height="187.261" viewBox="0 0 1804.092 187.261"><defs><style>.a{fill:#ffc917;stroke:#ffc917;stroke-miterlimit:10;stroke-width:2px;}</style></defs><g transform="translate(1 1)"><path class="a" d="M298.645,829.947v16.725H464.1v43.742H298.645v16.725H464.1V958.6H209.023V778.486H464.1v51.461Z" transform="translate(-209.023 -775.913)"/><path class="a" d="M1008.176,889.7c0,8.749,11.03,14.666,67.906,14.666,53.084,0,61.012-2.573,61.012-9.263,0-7.719-7.928-8.749-64.459-10.035C963.709,882.5,922,869.117,922,827.177c0-39.625,52.049-56.608,147.186-56.608,94.1,0,147.187,16.982,147.187,63.04h-89.622c0-9.52-20.682-11.579-64.459-11.579-42.053,0-50.671,1.544-50.671,8.491s8.618,6.69,61.012,8.234c95.137,2.831,154.08,7.719,154.08,54.806,0,49.66-55.152,62.269-154.08,62.269S918.554,943.222,918.554,889.7Z" transform="translate(-650.605 -770.569)"/><path class="a" d="M2033.422,835.094h-103.41V958.6h-89.622V835.094H1736.981V778.486h296.441Z" transform="translate(-1159.959 -775.913)"/><path class="a" d="M2654.794,829.947v16.725H2820.25v43.742H2654.794v16.725H2820.25V958.6H2565.172V778.486H2820.25v51.461Z" transform="translate(-1675.389 -775.913)"/><path class="a" d="M3373.452,829.947v16.725h165.455v43.742H3373.452v16.725h165.455V958.6H3283.83V778.486h255.077v51.461Z" transform="translate(-2122.652 -775.913)"/><path class="a" d="M4372.006,958.6h-89.622V872.917L4216.546,958.6h-58.6l-65.837-85.683V958.6h-89.622V778.486h110.3l74.455,102.923L4261.7,778.486h110.3Z" transform="translate(-2569.914 -775.913)"/></g></svg>