<svg xmlns="http://www.w3.org/2000/svg" width="1804.762" height="191.103" viewBox="0 0 1804.762 191.103"><defs><style>.a{fill:#ff7ca9;stroke:#ff7ca9;stroke-miterlimit:10;stroke-width:2px;}</style></defs><g transform="translate(1 1)"><path class="a" d="M326.485,216.739H463.645V316.806H418.328l-5.74-26.527c-17.825,18.123-45.619,29.153-90.03,29.153-77.946,0-123.867-30.729-123.867-94.814,0-63.822,45.921-94.289,132.931-94.289,84.592,0,128.7,25.739,132.025,75.9H383.283c-3.021-9.455-18.429-18.122-51.662-18.122-46.526,0-54.381,17.072-54.381,39.134,0,22.325,8.157,42.286,54.381,42.286,30.212,0,48.641-3.677,51.662-16.021h-56.8Z" transform="translate(-198.69 -130.329)"/><path class="a" d="M1150.109,269.469l37.462,52.791H1094.52l-29.305-43.073h-46.224v43.073H940.441V138.41H1106.6c48.036,0,80.967,29.416,80.967,70.389C1187.571,235.588,1173.372,257.65,1150.109,269.469Zm-131.118-48.064H1091.5c7.855,0,17.523,0,17.523-12.607s-9.668-12.607-17.523-12.607h-72.508Z" transform="translate(-660.324 -135.784)"/><path class="a" d="M1626.995,224.618c0-63.822,39.879-94.289,132.931-94.289,92.749,0,132.931,30.729,132.931,94.289,0,63.822-40.181,94.814-132.931,94.814C1666.874,319.432,1626.995,288.7,1626.995,224.618Zm187.311,0c0-19.173-7.855-36.508-54.381-36.508s-54.381,17.072-54.381,36.508c0,19.7,8.157,37.032,54.381,37.032S1814.306,244.054,1814.306,224.618Z" transform="translate(-1087.606 -130.329)"/><path class="a" d="M2740.194,138.41l-69.486,183.851H2554.091l-34.743-105.845L2484.6,322.261H2367.988L2298.5,138.41h84.29L2426.6,268.156,2472.52,138.41h93.656L2612.1,268.156,2655.9,138.41Z" transform="translate(-1505.523 -135.784)"/><path class="a" d="M3760.075,196.192h-90.635V322.261h-78.55V196.192h-90.635V138.41h259.819Z" transform="translate(-2253.444 -135.784)"/><path class="a" d="M4509.376,138.41V322.261h-78.551V259.226H4306.959v63.034h-78.55V138.41h78.55v63.035h123.867V138.41Z" transform="translate(-2706.615 -135.784)"/></g></svg>