<svg xmlns="http://www.w3.org/2000/svg" width="1801.045" height="190.764" viewBox="0 0 1801.045 190.764"><defs><style>.a{fill:#535aff;stroke:#535aff;stroke-miterlimit:10;stroke-width:2px;}</style></defs><g transform="translate(1 1)"><path class="a" d="M287.345,2167.564c0,8.914,10.8,14.944,66.467,14.944,51.959,0,59.72-2.622,59.72-9.438,0-7.865-7.76-8.914-63.094-10.225C243.82,2160.224,203,2146.591,203,2103.857c0-40.375,50.947-57.678,144.069-57.678,92.11,0,144.069,17.3,144.069,64.233H403.41c0-9.7-20.244-11.8-63.094-11.8-41.163,0-49.6,1.573-49.6,8.651s8.435,6.816,59.72,8.39c93.122,2.884,150.817,7.865,150.817,55.842,0,50.6-53.984,63.446-150.817,63.446s-150.817-12.847-150.817-67.379Z" transform="translate(-199.621 -2046.179)"/><path class="a" d="M1181.04,2204.732H1080.5l-16.2,33.034H967.8l97.846-183.521h130.236l97.845,183.521h-96.5Zm-22.943-47.191-27.329-56.1-27.329,56.1Z" transform="translate(-677.705 -2051.624)"/><path class="a" d="M1961.51,2111.923v19.663h141.707v57.678H1961.51v48.5h-87.724V2054.245h249.675v57.678Z" transform="translate(-1241.55 -2051.624)"/><path class="a" d="M2665.574,2106.679v17.042h161.951v44.569H2665.574v17.041h161.951v52.434H2577.85V2054.245h249.675v52.434Z" transform="translate(-1679.729 -2051.624)"/><path class="a" d="M3579.276,2111.923H3478.056v125.843h-87.724V2111.923h-101.22v-57.678h290.163Z" transform="translate(-2122.389 -2051.624)"/><path class="a" d="M4091.456,2054.245h101.219l62.756,68.165,62.757-68.165h101.219l-120.114,123.221v60.3h-87.724v-60.3Z" transform="translate(-2621.733 -2051.624)"/></g></svg>