<svg xmlns="http://www.w3.org/2000/svg" xmlns:xlink="http://www.w3.org/1999/xlink" width="446.295" height="111.839" viewBox="0 0 446.295 111.839"><defs><style>.a{fill:#fff;}.b,.f{fill:#333;}.c,.h{fill:#535aff;}.d{fill:#4d4d4d;}.e{fill:none;}.g,.h{stroke:none;}.i{filter:url(#a);}</style><filter id="a" x="0" y="0" width="446.295" height="111.839" filterUnits="userSpaceOnUse"><feOffset dy="3" input="SourceAlpha"/><feGaussianBlur stdDeviation="5" result="b"/><feFlood flood-opacity="0.349"/><feComposite operator="in" in2="b"/><feComposite in="SourceGraphic"/></filter></defs><g transform="translate(14.657 12)"><g class="i" transform="matrix(1, 0, 0, 1, -14.66, -12)"><rect class="a" width="416.295" height="81.839" transform="translate(15 12)"/></g><path class="b" d="M13.96-28.928v-1.48H8.44v2h2.851l-.009.209a2.829,2.829,0,0,1-3.087,2.724c-2.179,0-3.559-1.734-3.559-4.576,0-2.787,1.3-4.431,3.459-4.431a2.957,2.957,0,0,1,3,2.188h2.751c-.39-2.651-2.7-4.458-5.756-4.458-3.85,0-6.247,2.542-6.247,6.737,0,4.258,2.4,6.81,6.31,6.81C11.8-23.208,13.96-25.36,13.96-28.928Zm6.047,5.711c2.942,0,4.821-1.879,4.821-5.084,0-3.16-1.907-5.066-4.821-5.066s-4.821,1.916-4.821,5.066C15.186-25.106,17.065-23.217,20.007-23.217Zm0-2.025c-1.307,0-2.134-1.1-2.134-3.051,0-1.934.844-3.051,2.134-3.051s2.125,1.117,2.125,3.051C22.132-26.34,21.305-25.242,20.007-25.242Zm10.65,2.025c2.942,0,4.821-1.879,4.821-5.084,0-3.16-1.907-5.066-4.821-5.066s-4.821,1.916-4.821,5.066C25.836-25.106,27.716-23.217,30.657-23.217Zm0-2.025c-1.307,0-2.134-1.1-2.134-3.051,0-1.934.844-3.051,2.134-3.051s2.125,1.117,2.125,3.051C32.782-26.34,31.956-25.242,30.657-25.242Zm10.632,5.484c2.915,0,4.858-1.489,4.858-3.8v-9.6H43.532v1.7h-.045a3.193,3.193,0,0,0-3.005-1.852c-2.47,0-3.995,1.9-3.995,4.985,0,3.042,1.571,4.876,3.95,4.876A3.176,3.176,0,0,0,43.441-25.2H43.5v1.707c0,1.126-.763,1.879-2.134,1.879a1.929,1.929,0,0,1-1.979-1.126h-2.6C36.995-21,38.729-19.758,41.289-19.758Zm.045-5.738c-1.317,0-2.134-1.035-2.134-2.815s.826-2.878,2.134-2.878c1.326,0,2.17,1.126,2.17,2.878S42.66-25.5,41.335-25.5Zm6.6,2.07h2.651v-13.1H47.935ZM58.822-26.4a1.938,1.938,0,0,1-1.961,1.226,2.165,2.165,0,0,1-2.234-2.342v-.163h6.71v-.808c0-2.96-1.789-4.876-4.621-4.876-2.878,0-4.694,2.016-4.694,5.121s1.8,5.03,4.794,5.03c2.406,0,4.149-1.28,4.44-3.187Zm-2.079-5a2.02,2.02,0,0,1,2.043,2.1H54.654A2.107,2.107,0,0,1,56.742-31.407Zm9.86-5.121v13.1h2.742v-4.131H71.8a4.356,4.356,0,0,0,4.676-4.485,4.28,4.28,0,0,0-4.54-4.485Zm2.742,2.17h1.861a2.186,2.186,0,0,1,2.479,2.324A2.195,2.195,0,0,1,71.2-29.7H69.345Zm8.58,10.932h2.651v-13.1H77.925Zm7.327.154a3.348,3.348,0,0,0,2.969-1.643h.054v1.489h2.56v-6.692c0-1.961-1.625-3.25-4.122-3.25-2.579,0-4.186,1.3-4.286,3.187h2.424A1.578,1.578,0,0,1,86.6-31.389c1,0,1.634.527,1.634,1.435v.645l-2.451.145c-2.424.145-3.786,1.171-3.786,2.942A3.01,3.01,0,0,0,85.252-23.271Zm.872-1.916c-.9,0-1.5-.454-1.5-1.18,0-.69.563-1.135,1.553-1.208L88.23-27.7v.708A1.944,1.944,0,0,1,86.124-25.187Zm7.627,5.366c2.479,0,3.7-.9,4.531-3.4l3.35-9.942h-2.8L96.774-25.55h-.054l-2.07-7.609H91.744l3.387,9.733c.009.045-.091.427-.091.472-.182.772-.663,1.08-1.625,1.08-.1,0-.581-.009-.672-.027v2.052C92.833-19.83,93.65-19.821,93.75-19.821ZM106.116-30.3c0,1.462.953,2.406,2.833,2.806l1.662.345c.953.218,1.289.508,1.289,1.026,0,.636-.617,1.044-1.616,1.044a1.608,1.608,0,0,1-1.825-1.307h-2.588c.173,1.916,1.725,3.169,4.413,3.169,2.506,0,4.258-1.262,4.258-3.178,0-1.425-.835-2.224-2.869-2.651l-1.662-.354c-.981-.209-1.344-.545-1.344-1.044,0-.645.608-1.062,1.525-1.062a1.485,1.485,0,0,1,1.652,1.326h2.442c-.054-1.907-1.6-3.187-4.095-3.187C107.714-33.368,106.116-32.151,106.116-30.3Zm16.18,3.9a1.938,1.938,0,0,1-1.961,1.226,2.165,2.165,0,0,1-2.234-2.342v-.163h6.71v-.808c0-2.96-1.789-4.876-4.621-4.876-2.878,0-4.694,2.016-4.694,5.121s1.8,5.03,4.794,5.03c2.406,0,4.149-1.28,4.44-3.187Zm-2.079-5a2.02,2.02,0,0,1,2.043,2.1h-4.131A2.107,2.107,0,0,1,120.217-31.407Zm5.956,7.981h2.651v-5.439a1.939,1.939,0,0,1,2.07-2.17,2.728,2.728,0,0,1,.962.154v-2.333a2.7,2.7,0,0,0-.754-.1,2.323,2.323,0,0,0-2.315,1.907h-.054v-1.752h-2.56Zm15.662-9.733h-2.769l-2.016,7.391H137l-2.025-7.391h-2.842l3.368,9.733h3Zm2.279-1.317a1.37,1.37,0,0,0,1.38-1.362,1.364,1.364,0,0,0-1.38-1.362,1.364,1.364,0,0,0-1.38,1.362A1.37,1.37,0,0,0,144.114-34.476ZM142.8-23.426h2.651v-9.733H142.8Zm13.256-6.11c-.118-2.206-1.789-3.832-4.422-3.832-2.914,0-4.776,1.943-4.776,5.066,0,3.178,1.861,5.084,4.794,5.084,2.56,0,4.276-1.48,4.413-3.777h-2.47a1.831,1.831,0,0,1-1.916,1.7c-1.317,0-2.134-1.09-2.134-3.005,0-1.879.817-2.987,2.125-2.987a1.887,1.887,0,0,1,1.925,1.752Zm7.736,3.132a1.938,1.938,0,0,1-1.961,1.226,2.165,2.165,0,0,1-2.234-2.342v-.163h6.71v-.808c0-2.96-1.789-4.876-4.621-4.876-2.878,0-4.694,2.016-4.694,5.121s1.8,5.03,4.794,5.03c2.406,0,4.149-1.28,4.44-3.187Zm-2.079-5a2.02,2.02,0,0,1,2.043,2.1h-4.131A2.107,2.107,0,0,1,161.71-31.407ZM167.5-30.3c0,1.462.953,2.406,2.833,2.806l1.662.345c.953.218,1.289.508,1.289,1.026,0,.636-.617,1.044-1.616,1.044a1.608,1.608,0,0,1-1.825-1.307h-2.588c.173,1.916,1.725,3.169,4.413,3.169,2.506,0,4.258-1.262,4.258-3.178,0-1.425-.835-2.224-2.869-2.651L171.4-29.4c-.981-.209-1.344-.545-1.344-1.044,0-.645.608-1.062,1.525-1.062a1.485,1.485,0,0,1,1.652,1.326h2.442c-.054-1.907-1.6-3.187-4.095-3.187C169.1-33.368,167.5-32.151,167.5-30.3Zm10.45-6.229.218,8.789h2.288l.218-8.789ZM179.315-23.2a1.44,1.44,0,0,0,1.48-1.425,1.44,1.44,0,0,0-1.48-1.425,1.44,1.44,0,0,0-1.48,1.425A1.44,1.44,0,0,0,179.315-23.2Z" transform="translate(107.215 57.753)"/><path d="M5.711-19.5v-4.957l4.107-6.507H8.579L5.186-25.52h-.04L1.754-30.962H.515l4.107,6.507V-19.5Zm7,.135c2.248,0,3.766-1.645,3.766-4.266S14.958-27.9,12.71-27.9s-3.766,1.637-3.766,4.266S10.461-19.363,12.71-19.363Zm0-.93c-1.621,0-2.693-1.239-2.693-3.337s1.073-3.337,2.693-3.337,2.7,1.239,2.7,3.337S14.33-20.292,12.71-20.292ZM24.5-27.76H23.451v4.9A2.344,2.344,0,0,1,21.044-20.3a2.007,2.007,0,0,1-2.161-2.272V-27.76H17.826v5.37a2.763,2.763,0,0,0,2.916,3.027,2.837,2.837,0,0,0,2.741-1.668h.024V-19.5H24.5ZM26.311-19.5h1.049v-5.148a1.982,1.982,0,0,1,1.923-2.248,2.127,2.127,0,0,1,.787.119v-1.033a2.726,2.726,0,0,0-.651-.087,2.1,2.1,0,0,0-2.089,1.6H27.3v-1.47h-.993Zm11.337.135a3.043,3.043,0,0,0,2.86-1.883h.024V-19.5h1V-30.962H40.476v4.9h-.024A2.986,2.986,0,0,0,37.624-27.9c-2.074,0-3.511,1.692-3.511,4.266S35.558-19.363,37.648-19.363Zm.183-7.6c1.573,0,2.653,1.343,2.653,3.337s-1.08,3.337-2.653,3.337c-1.589,0-2.638-1.319-2.638-3.337S36.241-26.966,37.83-26.966Zm8.032,7.6a3.078,3.078,0,0,0,2.82-1.708h.024V-19.5h1v-5.656c0-1.684-1.184-2.741-3.067-2.741s-3.1,1.049-3.218,2.526H44.44a1.974,1.974,0,0,1,2.177-1.6,1.814,1.814,0,0,1,2.042,1.907v.715l-2.574.159c-1.907.127-2.963.985-2.963,2.4A2.465,2.465,0,0,0,45.862-19.363Zm.215-.906c-1.12,0-1.891-.62-1.891-1.517,0-.914.723-1.478,2.026-1.565l2.447-.167v.914A2.442,2.442,0,0,1,46.077-20.268Zm5.847-9.557v2.066H50.692v.874h1.231v5.355c0,1.494.556,2.081,1.938,2.081a6.563,6.563,0,0,0,.779-.048v-.9c-.064.016-.461.032-.572.032-.763,0-1.1-.365-1.1-1.216v-5.307H54.6v-.874H52.973v-2.066Zm6.387,10.463a3.078,3.078,0,0,0,2.82-1.708h.024V-19.5h1v-5.656c0-1.684-1.184-2.741-3.067-2.741s-3.1,1.049-3.218,2.526h1.017a1.974,1.974,0,0,1,2.177-1.6,1.814,1.814,0,0,1,2.042,1.907v.715l-2.574.159c-1.907.127-2.963.985-2.963,2.4A2.465,2.465,0,0,0,58.311-19.363Zm.215-.906c-1.12,0-1.891-.62-1.891-1.517,0-.914.723-1.478,2.026-1.565l2.447-.167v.914A2.442,2.442,0,0,1,58.526-20.268Zm9.319-9.208a.7.7,0,0,0,.707-.7.7.7,0,0,0-.707-.7.7.7,0,0,0-.7.7A.7.7,0,0,0,67.845-29.476ZM67.32-19.5h1.049V-27.76H67.32Zm2.765-6.054c0,1.144.739,1.835,2.312,2.2l1.239.294c1.112.27,1.517.667,1.517,1.382,0,.866-.818,1.446-2.058,1.446a1.966,1.966,0,0,1-2.2-1.637H69.847c.143,1.509,1.382,2.5,3.249,2.5,1.8,0,3.114-.993,3.114-2.391,0-1.168-.62-1.8-2.272-2.2l-1.247-.294c-1.1-.262-1.565-.683-1.565-1.359,0-.826.771-1.422,1.9-1.422a1.858,1.858,0,0,1,2.026,1.66h1.009A2.75,2.75,0,0,0,73.024-27.9C71.3-27.9,70.085-26.918,70.085-25.551ZM80.945-19.5h1.049v-4.894a2.352,2.352,0,0,1,2.391-2.566,2.026,2.026,0,0,1,2.177,2.272V-19.5h1.049v-5.355A2.766,2.766,0,0,0,84.687-27.9a2.793,2.793,0,0,0-2.725,1.66h-.024V-27.76h-.993Zm11.79.135c2.248,0,3.766-1.645,3.766-4.266S94.983-27.9,92.735-27.9s-3.766,1.637-3.766,4.266S90.487-19.363,92.735-19.363Zm0-.93c-1.621,0-2.693-1.239-2.693-3.337s1.073-3.337,2.693-3.337,2.7,1.239,2.7,3.337S94.355-20.292,92.735-20.292Zm5.617-9.533v2.066H97.12v.874h1.231v5.355c0,1.494.556,2.081,1.938,2.081a6.564,6.564,0,0,0,.779-.048v-.9c-.064.016-.461.032-.572.032-.763,0-1.1-.365-1.1-1.216v-5.307h1.629v-.874H99.4v-2.066Zm11.472,10.463c2.081,0,3.5-1.692,3.5-4.266S111.9-27.9,109.831-27.9A2.984,2.984,0,0,0,107-26.036h-.024v-4.926h-1.057V-19.5h1.009v-1.748h.024A3.024,3.024,0,0,0,109.823-19.363Zm-.2-7.6c1.589,0,2.614,1.319,2.614,3.337s-1.025,3.337-2.614,3.337c-1.557,0-2.653-1.351-2.653-3.337S108.076-26.966,109.625-26.966Zm7.547,7.6a3.078,3.078,0,0,0,2.82-1.708h.024V-19.5h1v-5.656c0-1.684-1.184-2.741-3.067-2.741s-3.1,1.049-3.218,2.526h1.017a1.974,1.974,0,0,1,2.177-1.6,1.814,1.814,0,0,1,2.042,1.907v.715l-2.574.159c-1.907.127-2.963.985-2.963,2.4A2.465,2.465,0,0,0,117.172-19.363Zm.215-.906c-1.12,0-1.891-.62-1.891-1.517,0-.914.723-1.478,2.026-1.565l2.447-.167v.914A2.442,2.442,0,0,1,117.387-20.268ZM129.5-25.146a3.251,3.251,0,0,0-3.4-2.749c-2.248,0-3.734,1.66-3.734,4.266,0,2.646,1.486,4.266,3.742,4.266a3.225,3.225,0,0,0,3.4-2.693h-1.041a2.24,2.24,0,0,1-2.352,1.764c-1.613,0-2.677-1.263-2.677-3.337,0-2.042,1.057-3.337,2.669-3.337a2.289,2.289,0,0,1,2.36,1.819Zm2.447,1.295v-7.11h-1.057V-19.5h1.057v-3.2l.922-.85,3.3,4.052h1.231l-3.782-4.7,3.71-3.567h-1.3Zm11.766,2.01a2.237,2.237,0,0,1-2.344,1.557c-1.645,0-2.7-1.16-2.7-3.027v-.064h6.189v-.445c0-2.463-1.382-4.076-3.575-4.076-2.24,0-3.694,1.724-3.694,4.29,0,2.622,1.438,4.242,3.758,4.242a3.221,3.221,0,0,0,3.408-2.479Zm-2.447-5.132a2.536,2.536,0,0,1,2.51,2.765h-5.1A2.643,2.643,0,0,1,141.268-26.974Zm8.119,7.611a3.044,3.044,0,0,0,2.86-1.883h.024V-19.5h1V-30.962h-1.057v4.9h-.024a2.986,2.986,0,0,0-2.828-1.835c-2.074,0-3.511,1.692-3.511,4.266S147.3-19.363,149.387-19.363Zm.183-7.6c1.573,0,2.653,1.343,2.653,3.337s-1.08,3.337-2.653,3.337c-1.589,0-2.638-1.319-2.638-3.337S147.981-26.966,149.57-26.966Zm15.539-.794h-1.049v4.9a2.344,2.344,0,0,1-2.407,2.558,2.007,2.007,0,0,1-2.161-2.272V-27.76h-1.057v5.37a2.763,2.763,0,0,0,2.916,3.027,2.837,2.837,0,0,0,2.741-1.668h.024V-19.5h.993Zm5.68-.135a3.021,3.021,0,0,0-2.844,1.883h-.032V-27.76h-.993v11h1.049V-21.2H168a2.964,2.964,0,0,0,2.812,1.835c2.074,0,3.5-1.692,3.5-4.266S172.879-27.9,170.79-27.9Zm-.183,7.6c-1.565,0-2.638-1.343-2.638-3.337s1.072-3.337,2.638-3.337c1.6,0,2.63,1.327,2.63,3.337S172.2-20.292,170.607-20.292Zm5.76-10.669.071,7.841h.961l.064-7.841Zm.548,11.535a.734.734,0,0,0,.747-.739.736.736,0,0,0-.747-.747.734.734,0,0,0-.739.747A.732.732,0,0,0,176.915-19.426Z" transform="translate(108.049 78.741)"/><rect class="c" width="81.933" height="81.839" transform="translate(0 0)"/><path class="d" d="M.393,0H.66V-2.123A1.149,1.149,0,0,1,1.818-3.37a1.021,1.021,0,0,1,1.094,1.1V0h.267V-2.3a1.22,1.22,0,0,0-1.3-1.306,1.242,1.242,0,0,0-1.23.827H.643v-.772H.393ZM5.7.055A1.616,1.616,0,0,0,7.285-1.777,1.616,1.616,0,0,0,5.7-3.609,1.613,1.613,0,0,0,4.117-1.777,1.613,1.613,0,0,0,5.7.055Zm0-.239c-.79,0-1.316-.6-1.316-1.593S4.91-3.37,5.7-3.37s1.319.6,1.319,1.593S6.489-.185,5.7-.185Zm6.854-3.37h-.28L11.364-.294h-.01l-.988-3.261h-.3L9.074-.294H9.067L8.155-3.555H7.878L8.91,0h.314l.984-3.213h.01L11.21,0h.308Z" transform="translate(382.942 25.297)"/><path class="e" d="M-228.531-750.127h29.4v29.4h-29.4Z" transform="translate(254.031 776.346)"/><g transform="translate(27.997 23.851)"><path class="b" d="M-216.752-695.008c-.186-.172-.49-.143-.659-.408.614-.606,1.235-1.215,1.851-1.829q4.626-4.613,9.242-9.235c.293-.295.431-.283.71.005,1.2,1.237,2.426,2.448,3.683,3.707l-14.065,7.76Z" transform="translate(218.031 721.144)"/><path class="b" d="M-219.086-717.886v-21.577l.136-.109a1.728,1.728,0,0,0,.218.367q5.1,5.1,10.219,10.192c.2.2.384.314.07.628q-5.275,5.276-10.517,10.585Z" transform="translate(219.086 741.847)"/><path class="b" d="M-201.909-737.773a2.77,2.77,0,0,0-.238.194c-1.209,1.2-2.42,2.4-3.617,3.615-.209.212-.324.24-.551.012q-5.516-5.525-11.056-11.026c-.281-.279-.182-.391.09-.533a1.786,1.786,0,0,1,1.81.09c1.768.989,3.542,1.965,5.314,2.947q3.939,2.184,7.875,4.37C-202.151-738.03-201.968-738.01-201.909-737.773Z" transform="translate(218.112 745.717)"/><path class="b" d="M-172.514-717.787a1.6,1.6,0,0,1-.812,1.4c-1.763,1-3.539,1.971-5.306,2.961a.29.29,0,0,1-.415-.066q-1.976-1.986-3.97-3.955c-.208-.2-.139-.305.028-.471q2.03-2.009,4.043-4.037a.384.384,0,0,1,.557-.055c1.624.912,3.255,1.812,4.885,2.715A1.742,1.742,0,0,1-172.514-717.787Z" transform="translate(196.453 730.847)"/></g><g transform="translate(41.696 34.766)"><g class="f" transform="translate(1627.199 797.713)"><path class="g" d="M -1610.2548828125 -780.3384399414062 L -1625.878173828125 -780.3384399414062 C -1626.734497070312 -780.3384399414062 -1627.490600585938 -780.7596435546875 -1627.900756835938 -781.4652099609375 C -1628.309692382812 -782.1688232421875 -1628.300170898438 -783.03515625 -1627.875122070312 -783.7825927734375 L -1620.056518554688 -797.5119018554688 C -1619.62841796875 -798.263916015625 -1618.884399414062 -798.7129516601562 -1618.06640625 -798.7129516601562 C -1617.249755859375 -798.7129516601562 -1616.505859375 -798.2637939453125 -1616.076538085938 -797.5114135742188 L -1608.258178710938 -783.7806396484375 C -1607.83349609375 -783.0337524414062 -1607.82373046875 -782.16845703125 -1608.23193359375 -781.465576171875 C -1608.642700195312 -780.759521484375 -1609.398803710938 -780.3384399414062 -1610.2548828125 -780.3384399414062 Z M -1618.1181640625 -792.3191528320312 C -1618.164184570312 -792.3191528320312 -1618.20166015625 -792.28173828125 -1618.20166015625 -792.2357788085938 L -1618.20166015625 -788.3350219726562 C -1618.20166015625 -788.2888793945312 -1618.164184570312 -788.2512817382812 -1618.1181640625 -788.2512817382812 C -1618.072021484375 -788.2512817382812 -1618.034423828125 -788.2888793945312 -1618.034423828125 -788.3350219726562 L -1618.034423828125 -792.2357788085938 C -1618.034423828125 -792.28173828125 -1618.072021484375 -792.3191528320312 -1618.1181640625 -792.3191528320312 Z"/><path class="h" d="M -1610.2548828125 -781.3384399414062 C -1609.7568359375 -781.3384399414062 -1609.323974609375 -781.5770874023438 -1609.0966796875 -781.9677124023438 C -1608.86962890625 -782.3587036132812 -1608.881103515625 -782.8530883789062 -1609.127197265625 -783.2858276367188 L -1616.945068359375 -797.0158081054688 C -1617.193603515625 -797.4513549804688 -1617.612548828125 -797.7129516601562 -1618.06640625 -797.7129516601562 C -1618.5205078125 -797.7129516601562 -1618.939453125 -797.4528198242188 -1619.1875 -797.0170288085938 L -1627.005859375 -783.2882690429688 C -1627.251953125 -782.8555297851562 -1627.263427734375 -782.3587036132812 -1627.0361328125 -781.9677124023438 C -1626.80908203125 -781.5770874023438 -1626.3759765625 -781.3384399414062 -1625.878173828125 -781.3384399414062 L -1610.2548828125 -781.3384399414062 M -1618.06640625 -786.0270385742188 C -1617.468017578125 -786.0270385742188 -1616.98291015625 -785.5418090820312 -1616.98291015625 -784.9432983398438 C -1616.98291015625 -784.3450317382812 -1617.468017578125 -783.8599243164062 -1618.06640625 -783.8599243164062 C -1618.6650390625 -783.8599243164062 -1619.14990234375 -784.3450317382812 -1619.14990234375 -784.9432983398438 C -1619.14990234375 -785.5418090820312 -1618.6650390625 -786.0270385742188 -1618.06640625 -786.0270385742188 M -1618.1181640625 -793.3191528320312 C -1617.51953125 -793.3191528320312 -1617.034423828125 -792.8340454101562 -1617.034423828125 -792.2357788085938 L -1617.034423828125 -788.3350219726562 C -1617.034423828125 -787.7366333007812 -1617.51953125 -787.2512817382812 -1618.1181640625 -787.2512817382812 C -1618.71630859375 -787.2512817382812 -1619.20166015625 -787.7366333007812 -1619.20166015625 -788.3350219726562 L -1619.20166015625 -792.2357788085938 C -1619.20166015625 -792.8340454101562 -1618.71630859375 -793.3191528320312 -1618.1181640625 -793.3191528320312 M -1610.2548828125 -779.3384399414062 L -1625.878173828125 -779.3384399414062 C -1627.094848632812 -779.3384399414062 -1628.174072265625 -779.9456176757812 -1628.765258789062 -780.962646484375 C -1629.346435546875 -781.9623413085938 -1629.33837890625 -783.2323608398438 -1628.744384765625 -784.2769165039062 L -1620.925415039062 -798.0067749023438 C -1620.3173828125 -799.0750122070312 -1619.24853515625 -799.7129516601562 -1618.06640625 -799.7129516601562 C -1616.886108398438 -799.7129516601562 -1615.817504882812 -799.0752563476562 -1615.2080078125 -798.0070190429688 L -1607.38916015625 -784.2754516601562 C -1606.786254882812 -783.21533203125 -1606.778198242188 -781.9774780273438 -1607.3671875 -780.96337890625 C -1607.95947265625 -779.9453125 -1609.038696289062 -779.3384399414062 -1610.2548828125 -779.3384399414062 Z"/></g></g></g></svg>