<svg xmlns="http://www.w3.org/2000/svg" xmlns:xlink="http://www.w3.org/1999/xlink" width="446.294" height="111.839" viewBox="0 0 446.294 111.839"><defs><style>.a{fill:#fff;}.b,.e{fill:#333;}.c{fill:#535aff;}.d{fill:#4d4d4d;}.e{fill-rule:evenodd;}.f{filter:url(#a);}</style><filter id="a" x="0" y="0" width="446.294" height="111.839" filterUnits="userSpaceOnUse"><feOffset dy="3" input="SourceAlpha"/><feGaussianBlur stdDeviation="5" result="b"/><feFlood flood-opacity="0.349"/><feComposite operator="in" in2="b"/><feComposite in="SourceGraphic"/></filter></defs><g transform="translate(14.657 12)"><g class="f" transform="matrix(1, 0, 0, 1, -14.66, -12)"><rect class="a" width="416.295" height="81.839" transform="translate(15 12)"/></g><path class="b" d="M13.96-28.928v-1.48H8.44v2h2.851l-.009.209a2.829,2.829,0,0,1-3.087,2.724c-2.179,0-3.559-1.734-3.559-4.576,0-2.787,1.3-4.431,3.459-4.431a2.957,2.957,0,0,1,3,2.188h2.751c-.39-2.651-2.7-4.458-5.756-4.458-3.85,0-6.247,2.542-6.247,6.737,0,4.258,2.4,6.81,6.31,6.81C11.8-23.208,13.96-25.36,13.96-28.928Zm6.233,5.711c2.942,0,4.821-1.879,4.821-5.084,0-3.16-1.907-5.066-4.821-5.066s-4.821,1.916-4.821,5.066C15.372-25.106,17.251-23.217,20.193-23.217Zm0-2.025c-1.307,0-2.134-1.1-2.134-3.051,0-1.934.844-3.051,2.134-3.051s2.125,1.117,2.125,3.051C22.318-26.34,21.491-25.242,20.193-25.242Zm10.836,2.025c2.942,0,4.821-1.879,4.821-5.084,0-3.16-1.907-5.066-4.821-5.066s-4.821,1.916-4.821,5.066C26.208-25.106,28.087-23.217,31.029-23.217Zm0-2.025c-1.307,0-2.134-1.1-2.134-3.051,0-1.934.844-3.051,2.134-3.051s2.125,1.117,2.125,3.051C33.154-26.34,32.328-25.242,31.029-25.242Zm10.818,5.484c2.914,0,4.857-1.489,4.857-3.8v-9.6H44.09v1.7h-.045a3.193,3.193,0,0,0-3.005-1.852c-2.47,0-3.995,1.9-3.995,4.985,0,3.042,1.571,4.876,3.95,4.876A3.176,3.176,0,0,0,44-25.2h.054v1.707c0,1.126-.763,1.879-2.134,1.879a1.929,1.929,0,0,1-1.979-1.126h-2.6C37.553-21,39.287-19.758,41.847-19.758Zm.045-5.738c-1.317,0-2.134-1.035-2.134-2.815s.826-2.878,2.134-2.878c1.326,0,2.17,1.126,2.17,2.878S43.218-25.5,41.893-25.5Zm6.787,2.07H51.33v-13.1H48.679ZM59.751-26.4a1.938,1.938,0,0,1-1.961,1.226,2.165,2.165,0,0,1-2.234-2.342v-.163h6.71v-.808c0-2.96-1.789-4.876-4.621-4.876-2.878,0-4.694,2.016-4.694,5.121s1.8,5.03,4.794,5.03c2.406,0,4.149-1.28,4.44-3.187Zm-2.079-5a2.02,2.02,0,0,1,2.043,2.1H55.584A2.107,2.107,0,0,1,57.672-31.407ZM67.9-36.527v13.1h5c3.931,0,6.247-2.442,6.247-6.6s-2.315-6.5-6.247-6.5Zm2.742,2.261H72.58c2.415,0,3.777,1.507,3.777,4.249,0,2.833-1.326,4.322-3.777,4.322H70.646ZM80.883-23.426h2.651v-5.439a1.939,1.939,0,0,1,2.07-2.17,2.728,2.728,0,0,1,.962.154v-2.333a2.7,2.7,0,0,0-.754-.1A2.323,2.323,0,0,0,83.5-31.407h-.054v-1.752h-2.56ZM89.2-34.476a1.37,1.37,0,0,0,1.38-1.362A1.364,1.364,0,0,0,89.2-37.2a1.364,1.364,0,0,0-1.38,1.362A1.37,1.37,0,0,0,89.2-34.476Zm-1.317,11.05H90.53v-9.733H87.879Zm13.5-9.733H98.606L96.59-25.768h-.054l-2.025-7.391H91.669l3.368,9.733h3Zm7.277,6.755a1.938,1.938,0,0,1-1.961,1.226,2.165,2.165,0,0,1-2.234-2.342v-.163h6.71v-.808c0-2.96-1.789-4.876-4.621-4.876-2.878,0-4.694,2.016-4.694,5.121s1.8,5.03,4.794,5.03c2.406,0,4.149-1.28,4.44-3.187Zm-2.079-5a2.02,2.02,0,0,1,2.043,2.1h-4.131A2.107,2.107,0,0,1,106.573-31.407Z" transform="translate(107.387 57.753)"/><path d="M7.044-19.5c2.423,0,3.877-1.192,3.877-3.146A2.821,2.821,0,0,0,8.227-25.5v-.056a2.592,2.592,0,0,0,2.1-2.582c0-1.692-1.335-2.828-3.3-2.828H2.9V-19.5ZM3.977-30H6.789c1.525,0,2.439.739,2.439,1.986,0,1.351-1.017,2.145-2.757,2.145H3.977Zm0,9.541v-4.473H6.75c1.978,0,3.059.8,3.059,2.232s-1.041,2.24-2.916,2.24Zm10.935,1.1a3.078,3.078,0,0,0,2.82-1.708h.024V-19.5h1v-5.656c0-1.684-1.184-2.741-3.067-2.741s-3.1,1.049-3.218,2.526H13.49a1.974,1.974,0,0,1,2.177-1.6,1.814,1.814,0,0,1,2.042,1.907v.715l-2.574.159c-1.907.127-2.963.985-2.963,2.4A2.465,2.465,0,0,0,14.913-19.363Zm.215-.906c-1.12,0-1.891-.62-1.891-1.517,0-.914.723-1.478,2.026-1.565l2.447-.167v.914A2.442,2.442,0,0,1,15.127-20.268Zm12.278-4.878A3.251,3.251,0,0,0,24-27.9c-2.248,0-3.734,1.66-3.734,4.266,0,2.646,1.486,4.266,3.742,4.266a3.225,3.225,0,0,0,3.4-2.693H26.372a2.24,2.24,0,0,1-2.352,1.764c-1.613,0-2.677-1.263-2.677-3.337,0-2.042,1.057-3.337,2.669-3.337a2.289,2.289,0,0,1,2.36,1.819Zm2.61,1.295v-7.11H28.958V-19.5h1.057v-3.2l.922-.85,3.3,4.052h1.231l-3.782-4.7L35.4-27.76H34.1ZM43.278-27.76H42.229v4.9A2.344,2.344,0,0,1,39.822-20.3a2.007,2.007,0,0,1-2.161-2.272V-27.76H36.6v5.37a2.763,2.763,0,0,0,2.916,3.027,2.837,2.837,0,0,0,2.741-1.668h.024V-19.5h.993Zm5.843-.135a3.021,3.021,0,0,0-2.844,1.883h-.032V-27.76h-.993v11H46.3V-21.2h.032a2.964,2.964,0,0,0,2.812,1.835c2.074,0,3.5-1.692,3.5-4.266S51.21-27.9,49.121-27.9Zm-.183,7.6c-1.565,0-2.638-1.343-2.638-3.337s1.073-3.337,2.638-3.337c1.6,0,2.63,1.327,2.63,3.337S50.535-20.292,48.938-20.292Zm15.484-4.854a3.251,3.251,0,0,0-3.4-2.749c-2.248,0-3.734,1.66-3.734,4.266,0,2.646,1.486,4.266,3.742,4.266a3.225,3.225,0,0,0,3.4-2.693H63.389a2.24,2.24,0,0,1-2.352,1.764c-1.613,0-2.677-1.263-2.677-3.337,0-2.042,1.057-3.337,2.669-3.337a2.289,2.289,0,0,1,2.36,1.819Zm4.834,5.784c2.248,0,3.766-1.645,3.766-4.266S71.5-27.9,69.256-27.9s-3.766,1.637-3.766,4.266S67.008-19.363,69.256-19.363Zm0-.93c-1.621,0-2.693-1.239-2.693-3.337s1.073-3.337,2.693-3.337,2.7,1.239,2.7,3.337S70.877-20.292,69.256-20.292Zm5.327.794h1.049v-5.077a2.16,2.16,0,0,1,2.089-2.383A1.815,1.815,0,0,1,79.611-25V-19.5h1.057v-5.2a2.074,2.074,0,0,1,2.066-2.256,1.826,1.826,0,0,1,1.915,2.05v5.41H85.7v-5.649A2.545,2.545,0,0,0,83.027-27.9a2.72,2.72,0,0,0-2.606,1.74H80.4a2.384,2.384,0,0,0-2.391-1.74,2.471,2.471,0,0,0-2.407,1.66h-.024V-27.76h-.993Zm16.91-8.4a3.021,3.021,0,0,0-2.844,1.883h-.032V-27.76h-.993v11h1.049V-21.2H88.7a2.964,2.964,0,0,0,2.812,1.835c2.074,0,3.5-1.692,3.5-4.266S93.582-27.9,91.492-27.9Zm-.183,7.6c-1.565,0-2.638-1.343-2.638-3.337s1.073-3.337,2.638-3.337c1.6,0,2.63,1.327,2.63,3.337S92.906-20.292,91.309-20.292Zm5.343.794H97.7V-30.962H96.652Zm8.806-2.344a2.237,2.237,0,0,1-2.344,1.557c-1.645,0-2.7-1.16-2.7-3.027v-.064H106.6v-.445c0-2.463-1.382-4.076-3.575-4.076-2.24,0-3.694,1.724-3.694,4.29,0,2.622,1.438,4.242,3.758,4.242a3.221,3.221,0,0,0,3.408-2.479Zm-2.447-5.132a2.536,2.536,0,0,1,2.51,2.765h-5.1A2.643,2.643,0,0,1,103.011-26.974Zm5.613-2.852v2.066h-1.231v.874h1.231v5.355c0,1.494.556,2.081,1.938,2.081a6.564,6.564,0,0,0,.779-.048v-.9c-.064.016-.461.032-.572.032-.763,0-1.1-.365-1.1-1.216v-5.307H111.3v-.874h-1.629v-2.066Zm9.76,7.984a2.237,2.237,0,0,1-2.344,1.557c-1.645,0-2.7-1.16-2.7-3.027v-.064h6.189v-.445c0-2.463-1.382-4.076-3.575-4.076-2.24,0-3.694,1.724-3.694,4.29,0,2.622,1.438,4.242,3.758,4.242a3.221,3.221,0,0,0,3.408-2.479Zm-2.447-5.132a2.536,2.536,0,0,1,2.51,2.765h-5.1A2.643,2.643,0,0,1,115.937-26.974Zm8.282,7.611a3.044,3.044,0,0,0,2.86-1.883h.024V-19.5h1V-30.962h-1.057v4.9h-.024a2.986,2.986,0,0,0-2.828-1.835c-2.074,0-3.511,1.692-3.511,4.266S122.129-19.363,124.219-19.363Zm.183-7.6c1.573,0,2.653,1.343,2.653,3.337s-1.08,3.337-2.653,3.337c-1.589,0-2.638-1.319-2.638-3.337S122.813-26.966,124.4-26.966Zm6.669,7.539a.732.732,0,0,0,.739-.739.734.734,0,0,0-.739-.747.741.741,0,0,0-.747.747A.739.739,0,0,0,131.071-19.426Z" transform="translate(106.721 78.74)"/><rect class="c" width="81.933" height="81.839" transform="translate(0 0)"/><path class="d" d="M.393,0H.66V-2.123A1.149,1.149,0,0,1,1.818-3.37a1.021,1.021,0,0,1,1.094,1.1V0h.267V-2.3a1.22,1.22,0,0,0-1.3-1.306,1.242,1.242,0,0,0-1.23.827H.643v-.772H.393ZM5.7.055A1.616,1.616,0,0,0,7.285-1.777,1.616,1.616,0,0,0,5.7-3.609,1.613,1.613,0,0,0,4.117-1.777,1.613,1.613,0,0,0,5.7.055Zm0-.239c-.79,0-1.316-.6-1.316-1.593S4.91-3.37,5.7-3.37s1.319.6,1.319,1.593S6.489-.185,5.7-.185Zm6.854-3.37h-.28L11.364-.294h-.01l-.988-3.261h-.3L9.074-.294H9.067L8.155-3.555H7.878L8.91,0h.314l.984-3.213h.01L11.21,0h.308Z" transform="translate(382.942 25.297)"/><g transform="translate(26.721 28.79)"><path class="e" d="M-217.361-2057.694l9.514-16.2h-8.246v-.043h-.593l-9.474,16.536,4.442,7.13,4.333-7.38v-.041Z" transform="translate(226.16 2073.94)"/><path class="e" d="M-172.636-2057.621l-9.34-16.2h-.1l-4.332,7.377,4.917,8.826Z" transform="translate(201.128 2073.866)"/><path class="e" d="M-189.806-2028.343h-18.978l-4.331,7.376h19.362Z" transform="translate(217.945 2045.225)"/></g></g></svg>