<svg xmlns="http://www.w3.org/2000/svg" xmlns:xlink="http://www.w3.org/1999/xlink" width="446.295" height="111.839" viewBox="0 0 446.295 111.839"><defs><style>.a{fill:#fff;}.b,.f{fill:#333;}.c,.h{fill:#535aff;}.d{fill:#4d4d4d;}.e{fill:none;}.g,.h{stroke:none;}.i{filter:url(#a);}</style><filter id="a" x="0" y="0" width="446.295" height="111.839" filterUnits="userSpaceOnUse"><feOffset dy="3" input="SourceAlpha"/><feGaussianBlur stdDeviation="5" result="b"/><feFlood flood-opacity="0.349"/><feComposite operator="in" in2="b"/><feComposite in="SourceGraphic"/></filter></defs><g transform="translate(14.657 11.57)"><g class="i" transform="matrix(1, 0, 0, 1, -14.66, -11.57)"><rect class="a" width="416.295" height="81.839" transform="translate(15 12)"/></g><path class="b" d="M8.04-23.208c3.214,0,5.457-1.843,5.765-4.767H11.136a2.958,2.958,0,0,1-3.087,2.506c-2.1,0-3.414-1.725-3.414-4.522,0-2.76,1.335-4.494,3.4-4.494a3.035,3.035,0,0,1,3.087,2.66H13.8c-.209-2.933-2.606-4.93-5.756-4.93-3.8,0-6.2,2.551-6.2,6.773S4.227-23.208,8.04-23.208Zm7.477-.218h2.651v-13.1H15.517Zm9.093.209c2.942,0,4.821-1.879,4.821-5.084,0-3.16-1.907-5.066-4.821-5.066s-4.821,1.916-4.821,5.066C19.789-25.106,21.668-23.217,24.61-23.217Zm0-2.025c-1.307,0-2.134-1.1-2.134-3.051,0-1.934.844-3.051,2.134-3.051s2.125,1.117,2.125,3.051C26.735-26.34,25.908-25.242,24.61-25.242Zm15.358-7.917H37.316v5.575A1.9,1.9,0,0,1,35.4-25.451c-1.171,0-1.816-.69-1.816-1.988v-5.72H30.934v6.274a3.332,3.332,0,0,0,3.5,3.641,2.892,2.892,0,0,0,2.915-1.934h.054v1.752h2.56Zm5.525,9.887A3.21,3.21,0,0,0,48.525-25.1h.045v1.671h2.615v-13.1H48.534v5.039h-.054a3.129,3.129,0,0,0-2.969-1.825c-2.442,0-3.986,1.916-3.986,5C41.525-25.2,43.059-23.272,45.492-23.272Zm.9-7.917c1.317,0,2.161,1.126,2.161,2.9s-.844,2.887-2.161,2.887c-1.335,0-2.152-1.1-2.152-2.887S45.057-31.189,46.391-31.189Zm10.341,4.022c.082,2.47,2.161,3.959,5.284,3.959,3.278,0,5.284-1.616,5.284-4.177,0-1.988-1.208-3.105-3.977-3.659l-1.389-.281c-1.544-.309-2.179-.808-2.179-1.616,0-.962.908-1.6,2.261-1.6,1.38,0,2.352.672,2.442,1.789h2.588c-.045-2.406-1.97-4-5.03-4-2.915,0-5,1.589-5,3.986,0,1.952,1.28,3.205,3.9,3.723l1.38.272c1.643.336,2.261.826,2.261,1.689,0,.962-1,1.671-2.461,1.671-1.489,0-2.6-.654-2.769-1.752Zm18.644.763a1.938,1.938,0,0,1-1.961,1.226,2.165,2.165,0,0,1-2.234-2.342v-.163h6.71v-.808c0-2.96-1.789-4.876-4.621-4.876-2.878,0-4.694,2.016-4.694,5.121s1.8,5.03,4.794,5.03c2.406,0,4.149-1.28,4.44-3.187Zm-2.079-5a2.02,2.02,0,0,1,2.043,2.1H71.209A2.107,2.107,0,0,1,73.3-31.407Zm6.142,7.981h2.651v-5.439a1.939,1.939,0,0,1,2.07-2.17,2.728,2.728,0,0,1,.962.154v-2.333a2.7,2.7,0,0,0-.754-.1,2.323,2.323,0,0,0-2.315,1.907H82v-1.752H79.44Zm15.848-9.733H92.518L90.5-25.768h-.054l-2.025-7.391H85.582l3.368,9.733h3Zm2.465-1.317a1.37,1.37,0,0,0,1.38-1.362,1.364,1.364,0,0,0-1.38-1.362,1.364,1.364,0,0,0-1.38,1.362A1.37,1.37,0,0,0,97.753-34.476Zm-1.317,11.05h2.651v-9.733H96.436Zm13.442-6.11c-.118-2.206-1.789-3.832-4.422-3.832-2.914,0-4.776,1.943-4.776,5.066,0,3.178,1.861,5.084,4.794,5.084,2.56,0,4.276-1.48,4.413-3.777h-2.47a1.831,1.831,0,0,1-1.916,1.7c-1.317,0-2.134-1.09-2.134-3.005,0-1.879.817-2.987,2.125-2.987a1.887,1.887,0,0,1,1.925,1.752ZM117.8-26.4a1.938,1.938,0,0,1-1.961,1.226,2.165,2.165,0,0,1-2.234-2.342v-.163h6.71v-.808c0-2.96-1.789-4.876-4.621-4.876-2.878,0-4.694,2.016-4.694,5.121s1.8,5.03,4.794,5.03c2.406,0,4.149-1.28,4.44-3.187Zm-2.079-5a2.02,2.02,0,0,1,2.043,2.1h-4.131A2.107,2.107,0,0,1,115.72-31.407ZM121.7-30.3c0,1.462.953,2.406,2.833,2.806l1.662.345c.953.218,1.289.508,1.289,1.026,0,.636-.617,1.044-1.616,1.044a1.608,1.608,0,0,1-1.825-1.307h-2.588c.173,1.916,1.725,3.169,4.413,3.169,2.506,0,4.258-1.262,4.258-3.178,0-1.425-.835-2.224-2.869-2.651l-1.662-.354c-.981-.209-1.344-.545-1.344-1.044,0-.645.608-1.062,1.525-1.062a1.485,1.485,0,0,1,1.652,1.326h2.442c-.054-1.907-1.6-3.187-4.095-3.187C123.3-33.368,121.7-32.151,121.7-30.3Zm10.636-6.228.218,8.789h2.288l.218-8.789ZM133.7-23.2a1.44,1.44,0,0,0,1.48-1.425,1.44,1.44,0,0,0-1.48-1.425,1.44,1.44,0,0,0-1.48,1.425A1.44,1.44,0,0,0,133.7-23.2Z" transform="translate(107.387 57.753)"/><path d="M7.044-19.538c2.423,0,3.877-1.192,3.877-3.146a2.821,2.821,0,0,0-2.693-2.852v-.056a2.592,2.592,0,0,0,2.1-2.582C10.325-29.866,8.99-31,7.02-31H2.9v11.464Zm-3.067-10.5H6.789c1.525,0,2.439.739,2.439,1.986,0,1.351-1.017,2.145-2.757,2.145H3.977Zm0,9.541v-4.473H6.75c1.978,0,3.059.8,3.059,2.232S8.768-20.5,6.893-20.5Zm10.935,1.1a3.078,3.078,0,0,0,2.82-1.708h.024v1.573h1v-5.656c0-1.684-1.184-2.741-3.067-2.741s-3.1,1.049-3.218,2.526H13.49a1.974,1.974,0,0,1,2.177-1.6A1.814,1.814,0,0,1,17.709-25.1v.715l-2.574.159c-1.907.127-2.963.985-2.963,2.4A2.465,2.465,0,0,0,14.913-19.4Zm.215-.906c-1.12,0-1.891-.62-1.891-1.517,0-.914.723-1.478,2.026-1.565l2.447-.167v.914A2.442,2.442,0,0,1,15.127-20.309Zm12.278-4.878A3.251,3.251,0,0,0,24-27.936c-2.248,0-3.734,1.66-3.734,4.266,0,2.646,1.486,4.266,3.742,4.266a3.225,3.225,0,0,0,3.4-2.693H26.372a2.24,2.24,0,0,1-2.352,1.764c-1.613,0-2.677-1.263-2.677-3.337,0-2.042,1.057-3.337,2.669-3.337a2.289,2.289,0,0,1,2.36,1.819Zm2.61,1.295V-31H28.958v11.464h1.057v-3.2l.922-.85,3.3,4.052h1.231l-3.782-4.7L35.4-27.8H34.1ZM43.278-27.8H42.229v4.9a2.344,2.344,0,0,1-2.407,2.558,2.007,2.007,0,0,1-2.161-2.272V-27.8H36.6v5.37A2.763,2.763,0,0,0,39.52-19.4a2.837,2.837,0,0,0,2.741-1.668h.024v1.533h.993Zm5.843-.135a3.021,3.021,0,0,0-2.844,1.883h-.032V-27.8h-.993v11H46.3v-4.433h.032A2.964,2.964,0,0,0,49.145-19.4c2.074,0,3.5-1.692,3.5-4.266S51.21-27.936,49.121-27.936Zm-.183,7.6c-1.565,0-2.638-1.343-2.638-3.337s1.073-3.337,2.638-3.337c1.6,0,2.63,1.327,2.63,3.337S50.535-20.333,48.938-20.333Zm9.184.794h1.057v-7.388H60.95V-27.8H59.17v-1.025c0-.922.421-1.327,1.216-1.327A3.421,3.421,0,0,1,61-30.1v-.866a4.727,4.727,0,0,0-.763-.064,1.89,1.89,0,0,0-2.113,2.177V-27.8H56.97v.874h1.152Zm6.232.135a3.078,3.078,0,0,0,2.82-1.708H67.2v1.573h1v-5.656c0-1.684-1.184-2.741-3.067-2.741s-3.1,1.049-3.218,2.526h1.017a1.974,1.974,0,0,1,2.177-1.6A1.814,1.814,0,0,1,67.151-25.1v.715l-2.574.159c-1.907.127-2.963.985-2.963,2.4A2.465,2.465,0,0,0,64.354-19.4Zm.214-.906c-1.12,0-1.891-.62-1.891-1.517,0-.914.723-1.478,2.026-1.565l2.447-.167v.914A2.442,2.442,0,0,1,64.569-20.309Zm6.153-9.208a.7.7,0,0,0,.707-.7.7.7,0,0,0-.707-.7.7.7,0,0,0-.7.7A.7.7,0,0,0,70.721-29.517ZM70.2-19.538h1.049V-27.8H70.2Zm3.166,0h1.049V-31H73.363Zm8.806-2.344a2.237,2.237,0,0,1-2.344,1.557c-1.645,0-2.7-1.16-2.7-3.027v-.064h6.189v-.445c0-2.463-1.382-4.076-3.575-4.076-2.24,0-3.694,1.724-3.694,4.29,0,2.622,1.438,4.242,3.758,4.242a3.221,3.221,0,0,0,3.408-2.479Zm-2.447-5.132a2.536,2.536,0,0,1,2.51,2.765h-5.1A2.643,2.643,0,0,1,79.722-27.014ZM88-19.4a3.043,3.043,0,0,0,2.86-1.883h.024v1.748h1V-31H90.832v4.9h-.024a2.986,2.986,0,0,0-2.828-1.835c-2.074,0-3.511,1.692-3.511,4.266S85.915-19.4,88-19.4Zm.183-7.6c1.573,0,2.653,1.343,2.653,3.337s-1.08,3.337-2.653,3.337c-1.589,0-2.638-1.319-2.638-3.337S86.6-27.006,88.187-27.006Zm6.4-4,.072,7.841h.961L95.682-31Zm.548,11.535a.734.734,0,0,0,.747-.739.736.736,0,0,0-.747-.747.734.734,0,0,0-.739.747A.732.732,0,0,0,95.134-19.467Z" transform="translate(106.721 78.781)"/><rect class="c" width="81.933" height="81.839" transform="translate(0 0.43)"/><path class="d" d="M.393,0H.66V-2.123A1.149,1.149,0,0,1,1.818-3.37a1.021,1.021,0,0,1,1.094,1.1V0h.267V-2.3a1.22,1.22,0,0,0-1.3-1.306,1.242,1.242,0,0,0-1.23.827H.643v-.772H.393ZM5.7.055A1.616,1.616,0,0,0,7.285-1.777,1.616,1.616,0,0,0,5.7-3.609,1.613,1.613,0,0,0,4.117-1.777,1.613,1.613,0,0,0,5.7.055Zm0-.239c-.79,0-1.316-.6-1.316-1.593S4.91-3.37,5.7-3.37s1.319.6,1.319,1.593S6.489-.185,5.7-.185Zm6.854-3.37h-.28L11.364-.294h-.01l-.988-3.261h-.3L9.074-.294H9.067L8.155-3.555H7.878L8.91,0h.314l.984-3.213h.01L11.21,0h.308Z" transform="translate(382.942 25.297)"/><g transform="translate(-2 4.057)"><g transform="translate(22.132 21.553)"><path class="e" d="M0,0H32.877V32.877H0Z"/><g transform="translate(-1.175 -1.399)"><path class="e" d="M0,0H34.276V34.276H0Z"/><path class="b" d="M27.642,16.619a10.709,10.709,0,0,0-20-2.856,8.569,8.569,0,0,0,.928,17.088H27.135a7.124,7.124,0,0,0,.507-14.232Zm-.507,11.375H8.569a5.713,5.713,0,0,1,0-11.425H9.583a7.854,7.854,0,0,1,15.41,2.142v.714h2.142a4.284,4.284,0,0,1,0,8.569Z" transform="translate(0 -2.287)"/></g></g><g transform="translate(46.039 32.253)"><g class="f" transform="translate(1627.199 797.713)"><path class="g" d="M -1610.2548828125 -780.3384399414062 L -1625.878173828125 -780.3384399414062 C -1626.734497070312 -780.3384399414062 -1627.490600585938 -780.7596435546875 -1627.900756835938 -781.4652099609375 C -1628.309692382812 -782.1688232421875 -1628.300170898438 -783.03515625 -1627.875122070312 -783.7825927734375 L -1620.056518554688 -797.5119018554688 C -1619.62841796875 -798.263916015625 -1618.884399414062 -798.7129516601562 -1618.06640625 -798.7129516601562 C -1617.249755859375 -798.7129516601562 -1616.505859375 -798.2637939453125 -1616.076538085938 -797.5114135742188 L -1608.258178710938 -783.7806396484375 C -1607.83349609375 -783.0337524414062 -1607.82373046875 -782.16845703125 -1608.23193359375 -781.465576171875 C -1608.642700195312 -780.759521484375 -1609.398803710938 -780.3384399414062 -1610.2548828125 -780.3384399414062 Z M -1618.1181640625 -792.3191528320312 C -1618.164184570312 -792.3191528320312 -1618.20166015625 -792.28173828125 -1618.20166015625 -792.2357788085938 L -1618.20166015625 -788.3350219726562 C -1618.20166015625 -788.2888793945312 -1618.164184570312 -788.2512817382812 -1618.1181640625 -788.2512817382812 C -1618.072021484375 -788.2512817382812 -1618.034423828125 -788.2888793945312 -1618.034423828125 -788.3350219726562 L -1618.034423828125 -792.2357788085938 C -1618.034423828125 -792.28173828125 -1618.072021484375 -792.3191528320312 -1618.1181640625 -792.3191528320312 Z"/><path class="h" d="M -1610.2548828125 -781.3384399414062 C -1609.7568359375 -781.3384399414062 -1609.323974609375 -781.5770874023438 -1609.0966796875 -781.9677124023438 C -1608.86962890625 -782.3587036132812 -1608.881103515625 -782.8530883789062 -1609.127197265625 -783.2858276367188 L -1616.945068359375 -797.0158081054688 C -1617.193603515625 -797.4513549804688 -1617.612548828125 -797.7129516601562 -1618.06640625 -797.7129516601562 C -1618.5205078125 -797.7129516601562 -1618.939453125 -797.4528198242188 -1619.1875 -797.0170288085938 L -1627.005859375 -783.2882690429688 C -1627.251953125 -782.8555297851562 -1627.263427734375 -782.3587036132812 -1627.0361328125 -781.9677124023438 C -1626.80908203125 -781.5770874023438 -1626.3759765625 -781.3384399414062 -1625.878173828125 -781.3384399414062 L -1610.2548828125 -781.3384399414062 M -1618.06640625 -786.0270385742188 C -1617.468017578125 -786.0270385742188 -1616.98291015625 -785.5418090820312 -1616.98291015625 -784.9432983398438 C -1616.98291015625 -784.3450317382812 -1617.468017578125 -783.8599243164062 -1618.06640625 -783.8599243164062 C -1618.6650390625 -783.8599243164062 -1619.14990234375 -784.3450317382812 -1619.14990234375 -784.9432983398438 C -1619.14990234375 -785.5418090820312 -1618.6650390625 -786.0270385742188 -1618.06640625 -786.0270385742188 M -1618.1181640625 -793.3191528320312 C -1617.51953125 -793.3191528320312 -1617.034423828125 -792.8340454101562 -1617.034423828125 -792.2357788085938 L -1617.034423828125 -788.3350219726562 C -1617.034423828125 -787.7366333007812 -1617.51953125 -787.2512817382812 -1618.1181640625 -787.2512817382812 C -1618.71630859375 -787.2512817382812 -1619.20166015625 -787.7366333007812 -1619.20166015625 -788.3350219726562 L -1619.20166015625 -792.2357788085938 C -1619.20166015625 -792.8340454101562 -1618.71630859375 -793.3191528320312 -1618.1181640625 -793.3191528320312 M -1610.2548828125 -779.3384399414062 L -1625.878173828125 -779.3384399414062 C -1627.094848632812 -779.3384399414062 -1628.174072265625 -779.9456176757812 -1628.765258789062 -780.962646484375 C -1629.346435546875 -781.9623413085938 -1629.33837890625 -783.2323608398438 -1628.744384765625 -784.2769165039062 L -1620.925415039062 -798.0067749023438 C -1620.3173828125 -799.0750122070312 -1619.24853515625 -799.7129516601562 -1618.06640625 -799.7129516601562 C -1616.886108398438 -799.7129516601562 -1615.817504882812 -799.0752563476562 -1615.2080078125 -798.0070190429688 L -1607.38916015625 -784.2754516601562 C -1606.786254882812 -783.21533203125 -1606.778198242188 -781.9774780273438 -1607.3671875 -780.96337890625 C -1607.95947265625 -779.9453125 -1609.038696289062 -779.3384399414062 -1610.2548828125 -779.3384399414062 Z"/></g></g></g></g></svg>