<svg xmlns="http://www.w3.org/2000/svg" xmlns:xlink="http://www.w3.org/1999/xlink" width="446.294" height="111.839" viewBox="0 0 446.294 111.839"><defs><style>.a{fill:#fff;}.b,.f{fill:#333;}.c,.h{fill:#535aff;}.d{fill:#4d4d4d;}.e{fill:none;}.g,.h{stroke:none;}.i{filter:url(#a);}</style><filter id="a" x="0" y="0" width="446.294" height="111.839" filterUnits="userSpaceOnUse"><feOffset dy="3" input="SourceAlpha"/><feGaussianBlur stdDeviation="5" result="b"/><feFlood flood-opacity="0.349"/><feComposite operator="in" in2="b"/><feComposite in="SourceGraphic"/></filter></defs><g transform="translate(14.657 12)"><g class="i" transform="matrix(1, 0, 0, 1, -14.66, -12)"><rect class="a" width="416.295" height="81.839" transform="translate(15 12)"/></g><path class="b" d="M1.594-26.41c.082,2.47,2.161,3.959,5.284,3.959,3.278,0,5.284-1.616,5.284-4.177,0-1.988-1.208-3.105-3.977-3.659L6.8-30.568c-1.544-.309-2.179-.808-2.179-1.616,0-.962.908-1.6,2.261-1.6,1.38,0,2.352.672,2.442,1.789h2.588c-.045-2.406-1.97-4-5.03-4-2.914,0-5,1.589-5,3.986,0,1.952,1.28,3.205,3.9,3.723l1.38.272c1.643.336,2.261.826,2.261,1.689,0,.962-1,1.671-2.461,1.671-1.489,0-2.6-.654-2.769-1.752Zm12.2,3.741h2.651v-5.874A1.692,1.692,0,0,1,18.132-30.4,1.486,1.486,0,0,1,19.7-28.734v6.065h2.551V-28.58A1.653,1.653,0,0,1,23.925-30.4c1.026,0,1.589.617,1.589,1.743v5.983h2.651v-6.646a3.053,3.053,0,0,0-3.187-3.269,3.083,3.083,0,0,0-3.023,2H21.9a2.586,2.586,0,0,0-2.715-2,2.857,2.857,0,0,0-2.778,1.943h-.054V-32.4h-2.56Zm16.075-6.873c0,1.462.953,2.406,2.833,2.806l1.662.345c.953.218,1.289.508,1.289,1.026,0,.636-.617,1.044-1.616,1.044a1.608,1.608,0,0,1-1.825-1.307H29.622c.173,1.916,1.725,3.169,4.413,3.169,2.506,0,4.258-1.262,4.258-3.178,0-1.425-.835-2.224-2.869-2.651l-1.662-.354c-.981-.209-1.344-.545-1.344-1.044,0-.645.608-1.062,1.525-1.062A1.485,1.485,0,0,1,35.6-29.424h2.442c-.054-1.907-1.6-3.187-4.095-3.187C31.465-32.611,29.867-31.395,29.867-29.542ZM40.5-35.771l.218,8.789h2.288l.218-8.789Zm1.362,13.329a1.44,1.44,0,0,0,1.48-1.425,1.44,1.44,0,0,0-1.48-1.425,1.44,1.44,0,0,0-1.48,1.425A1.44,1.44,0,0,0,41.865-22.442Z" transform="translate(107.37 56.996)"/><path d="M1.373-22.867c.119,1.938,1.8,3.241,4.242,3.241,2.487,0,4.123-1.311,4.123-3.345,0-1.589-.945-2.487-3.3-3.019l-1.247-.286c-1.7-.381-2.407-1.041-2.407-2.081,0-1.3,1.231-2.113,2.781-2.113,1.629,0,2.765.874,2.876,2.185H9.524c-.064-1.843-1.708-3.17-3.94-3.17-2.248,0-3.917,1.295-3.917,3.146,0,1.581.953,2.558,3.233,3.067l1.247.278c1.764.405,2.479,1.057,2.479,2.137,0,1.3-1.231,2.217-2.955,2.217-1.8,0-3.075-.882-3.21-2.256Zm13.859-5.339a3.021,3.021,0,0,0-2.844,1.883h-.032v-1.748h-.993v11h1.049v-4.433h.032a2.964,2.964,0,0,0,2.812,1.835c2.074,0,3.5-1.692,3.5-4.266S17.322-28.206,15.232-28.206Zm-.183,7.6c-1.565,0-2.638-1.343-2.638-3.337s1.073-3.337,2.638-3.337c1.6,0,2.63,1.327,2.63,3.337S16.646-20.6,15.05-20.6Zm7.718.93a3.078,3.078,0,0,0,2.82-1.708h.024v1.573h1v-5.656c0-1.684-1.184-2.741-3.067-2.741s-3.1,1.049-3.218,2.526h1.017a1.974,1.974,0,0,1,2.177-1.6,1.814,1.814,0,0,1,2.042,1.907v.715L22.99-24.5c-1.907.127-2.963.985-2.963,2.4A2.465,2.465,0,0,0,22.767-19.673Zm.215-.906c-1.12,0-1.891-.62-1.891-1.517,0-.914.723-1.478,2.026-1.565l2.447-.167v.914A2.442,2.442,0,0,1,22.982-20.579Zm5.557.771h1.049v-5.077a2.16,2.16,0,0,1,2.089-2.383,1.815,1.815,0,0,1,1.891,1.954v5.506h1.057v-5.2a2.074,2.074,0,0,1,2.066-2.256,1.826,1.826,0,0,1,1.915,2.05v5.41h1.049v-5.649a2.545,2.545,0,0,0-2.669-2.749,2.72,2.72,0,0,0-2.606,1.74h-.024a2.384,2.384,0,0,0-2.391-1.74,2.471,2.471,0,0,0-2.407,1.66h-.024v-1.525h-.993ZM42.231-31.272l.071,7.841h.961l.064-7.841Zm.548,11.535a.734.734,0,0,0,.747-.739.736.736,0,0,0-.747-.747.734.734,0,0,0-.739.747A.732.732,0,0,0,42.779-19.737Zm6.276-3.13c.119,1.938,1.8,3.241,4.242,3.241,2.487,0,4.123-1.311,4.123-3.345,0-1.589-.945-2.487-3.3-3.019l-1.247-.286c-1.7-.381-2.407-1.041-2.407-2.081,0-1.3,1.231-2.113,2.781-2.113,1.629,0,2.765.874,2.876,2.185h1.088c-.064-1.843-1.708-3.17-3.94-3.17-2.248,0-3.917,1.295-3.917,3.146,0,1.581.953,2.558,3.233,3.067l1.247.278c1.764.405,2.479,1.057,2.479,2.137,0,1.3-1.231,2.217-2.955,2.217-1.8,0-3.075-.882-3.21-2.256Zm13.859-5.339a3.021,3.021,0,0,0-2.844,1.883h-.032v-1.748h-.993v11h1.049v-4.433h.032a2.964,2.964,0,0,0,2.812,1.835c2.074,0,3.5-1.692,3.5-4.266S65-28.206,62.914-28.206Zm-.183,7.6c-1.565,0-2.638-1.343-2.638-3.337s1.073-3.337,2.638-3.337c1.6,0,2.63,1.327,2.63,3.337S64.328-20.6,62.732-20.6Zm7.718.93a3.078,3.078,0,0,0,2.82-1.708h.024v1.573h1v-5.656c0-1.684-1.184-2.741-3.067-2.741s-3.1,1.049-3.218,2.526h1.017a1.974,1.974,0,0,1,2.177-1.6,1.814,1.814,0,0,1,2.042,1.907v.715l-2.574.159c-1.907.127-2.963.985-2.963,2.4A2.465,2.465,0,0,0,70.449-19.673Zm.214-.906c-1.12,0-1.891-.62-1.891-1.517,0-.914.723-1.478,2.026-1.565l2.447-.167v.914A2.442,2.442,0,0,1,70.664-20.579Zm5.557.771H77.27v-5.077a2.16,2.16,0,0,1,2.089-2.383,1.815,1.815,0,0,1,1.891,1.954v5.506h1.057v-5.2a2.074,2.074,0,0,1,2.066-2.256,1.826,1.826,0,0,1,1.915,2.05v5.41h1.049v-5.649a2.545,2.545,0,0,0-2.669-2.749,2.72,2.72,0,0,0-2.606,1.74h-.024a2.384,2.384,0,0,0-2.391-1.74,2.471,2.471,0,0,0-2.407,1.66h-.024v-1.525h-.993ZM89.913-31.272l.072,7.841h.961l.064-7.841Zm.548,11.535a.734.734,0,0,0,.747-.739.736.736,0,0,0-.747-.747.734.734,0,0,0-.739.747A.732.732,0,0,0,90.461-19.737Zm6.276-3.13c.119,1.938,1.8,3.241,4.242,3.241,2.487,0,4.123-1.311,4.123-3.345,0-1.589-.945-2.487-3.3-3.019l-1.247-.286c-1.7-.381-2.407-1.041-2.407-2.081,0-1.3,1.231-2.113,2.781-2.113,1.629,0,2.765.874,2.876,2.185h1.088c-.064-1.843-1.708-3.17-3.94-3.17-2.248,0-3.917,1.295-3.917,3.146,0,1.581.953,2.558,3.233,3.067l1.247.278c1.764.405,2.479,1.057,2.479,2.137,0,1.3-1.231,2.217-2.955,2.217-1.8,0-3.075-.882-3.21-2.256ZM110.6-28.206a3.021,3.021,0,0,0-2.844,1.883h-.032v-1.748h-.993v11h1.049v-4.433h.032a2.964,2.964,0,0,0,2.812,1.835c2.074,0,3.5-1.692,3.5-4.266S112.686-28.206,110.6-28.206Zm-.183,7.6c-1.565,0-2.638-1.343-2.638-3.337s1.073-3.337,2.638-3.337c1.6,0,2.63,1.327,2.63,3.337S112.01-20.6,110.413-20.6Zm7.718.93a3.078,3.078,0,0,0,2.82-1.708h.024v1.573h1v-5.656c0-1.684-1.184-2.741-3.067-2.741s-3.1,1.049-3.218,2.526h1.017a1.974,1.974,0,0,1,2.177-1.6,1.814,1.814,0,0,1,2.042,1.907v.715l-2.574.159c-1.907.127-2.963.985-2.963,2.4A2.465,2.465,0,0,0,118.131-19.673Zm.215-.906c-1.12,0-1.891-.62-1.891-1.517,0-.914.723-1.478,2.026-1.565l2.447-.167v.914A2.442,2.442,0,0,1,118.346-20.579Zm5.557.771h1.049v-5.077a2.16,2.16,0,0,1,2.089-2.383,1.815,1.815,0,0,1,1.891,1.954v5.506h1.057v-5.2a2.074,2.074,0,0,1,2.066-2.256,1.826,1.826,0,0,1,1.915,2.05v5.41h1.049v-5.649a2.545,2.545,0,0,0-2.669-2.749,2.72,2.72,0,0,0-2.606,1.74h-.024a2.384,2.384,0,0,0-2.391-1.74,2.471,2.471,0,0,0-2.407,1.66H124.9v-1.525H123.9ZM137.6-31.272l.071,7.841h.961l.064-7.841Zm.548,11.535a.734.734,0,0,0,.747-.739.736.736,0,0,0-.747-.747.734.734,0,0,0-.739.747A.732.732,0,0,0,138.143-19.737Z" transform="translate(107.509 79.051)"/><path class="c" d="M0,0H81.933V81.839H0Z" transform="translate(0 0)"/><path class="d" d="M.393,0H.66V-2.123A1.149,1.149,0,0,1,1.818-3.37a1.021,1.021,0,0,1,1.094,1.1V0h.267V-2.3a1.22,1.22,0,0,0-1.3-1.306,1.242,1.242,0,0,0-1.23.827H.643v-.772H.393ZM5.7.055A1.616,1.616,0,0,0,7.285-1.777,1.616,1.616,0,0,0,5.7-3.609,1.613,1.613,0,0,0,4.117-1.777,1.613,1.613,0,0,0,5.7.055Zm0-.239c-.79,0-1.316-.6-1.316-1.593S4.91-3.37,5.7-3.37s1.319.6,1.319,1.593S6.489-.185,5.7-.185Zm6.854-3.37h-.28L11.364-.294h-.01l-.988-3.261h-.3L9.074-.294H9.067L8.155-3.555H7.878L8.91,0h.314l.984-3.213h.01L11.21,0h.308Z" transform="translate(382.943 25.297)"/><path class="e" d="M-228.994-1571.825h29.4v29.4h-29.4Z" transform="translate(254.494 1598.044)"/><path class="e" d="M-232.2-1577.1h33.31v33.311H-232.2Z" transform="translate(256.515 1601.368)"/><g transform="translate(1 2.855)"><path class="b" d="M-199.035-2585.657h-20.981a2.619,2.619,0,0,0-2.609,2.622l-.013,23.6,5.245-5.245h18.358a2.631,2.631,0,0,0,2.623-2.623v-15.736A2.631,2.631,0,0,0-199.035-2585.657Z" transform="translate(245.433 2610.401)"/><g transform="translate(40.868 35.01)"><g class="f" transform="translate(1627.199 797.713)"><path class="g" d="M -1610.2548828125 -780.3384399414062 L -1625.878173828125 -780.3384399414062 C -1626.734497070312 -780.3384399414062 -1627.490600585938 -780.7596435546875 -1627.900756835938 -781.4652099609375 C -1628.309692382812 -782.1688232421875 -1628.300170898438 -783.03515625 -1627.875122070312 -783.7825927734375 L -1620.056518554688 -797.5119018554688 C -1619.62841796875 -798.263916015625 -1618.884399414062 -798.7129516601562 -1618.06640625 -798.7129516601562 C -1617.249755859375 -798.7129516601562 -1616.505859375 -798.2637939453125 -1616.076538085938 -797.5114135742188 L -1608.258178710938 -783.7806396484375 C -1607.83349609375 -783.0337524414062 -1607.82373046875 -782.16845703125 -1608.23193359375 -781.465576171875 C -1608.642700195312 -780.759521484375 -1609.398803710938 -780.3384399414062 -1610.2548828125 -780.3384399414062 Z M -1618.1181640625 -792.3191528320312 C -1618.164184570312 -792.3191528320312 -1618.20166015625 -792.28173828125 -1618.20166015625 -792.2357788085938 L -1618.20166015625 -788.3350219726562 C -1618.20166015625 -788.2888793945312 -1618.164184570312 -788.2512817382812 -1618.1181640625 -788.2512817382812 C -1618.072021484375 -788.2512817382812 -1618.034423828125 -788.2888793945312 -1618.034423828125 -788.3350219726562 L -1618.034423828125 -792.2357788085938 C -1618.034423828125 -792.28173828125 -1618.072021484375 -792.3191528320312 -1618.1181640625 -792.3191528320312 Z"/><path class="h" d="M -1610.2548828125 -781.3384399414062 C -1609.7568359375 -781.3384399414062 -1609.323974609375 -781.5770874023438 -1609.0966796875 -781.9677124023438 C -1608.86962890625 -782.3587036132812 -1608.881103515625 -782.8530883789062 -1609.127197265625 -783.2858276367188 L -1616.945068359375 -797.0158081054688 C -1617.193603515625 -797.4513549804688 -1617.612548828125 -797.7129516601562 -1618.06640625 -797.7129516601562 C -1618.5205078125 -797.7129516601562 -1618.939453125 -797.4528198242188 -1619.1875 -797.0170288085938 L -1627.005859375 -783.2882690429688 C -1627.251953125 -782.8555297851562 -1627.263427734375 -782.3587036132812 -1627.0361328125 -781.9677124023438 C -1626.80908203125 -781.5770874023438 -1626.3759765625 -781.3384399414062 -1625.878173828125 -781.3384399414062 L -1610.2548828125 -781.3384399414062 M -1618.06640625 -786.0270385742188 C -1617.468017578125 -786.0270385742188 -1616.98291015625 -785.5418090820312 -1616.98291015625 -784.9432983398438 C -1616.98291015625 -784.3450317382812 -1617.468017578125 -783.8599243164062 -1618.06640625 -783.8599243164062 C -1618.6650390625 -783.8599243164062 -1619.14990234375 -784.3450317382812 -1619.14990234375 -784.9432983398438 C -1619.14990234375 -785.5418090820312 -1618.6650390625 -786.0270385742188 -1618.06640625 -786.0270385742188 M -1618.1181640625 -793.3191528320312 C -1617.51953125 -793.3191528320312 -1617.034423828125 -792.8340454101562 -1617.034423828125 -792.2357788085938 L -1617.034423828125 -788.3350219726562 C -1617.034423828125 -787.7366333007812 -1617.51953125 -787.2512817382812 -1618.1181640625 -787.2512817382812 C -1618.71630859375 -787.2512817382812 -1619.20166015625 -787.7366333007812 -1619.20166015625 -788.3350219726562 L -1619.20166015625 -792.2357788085938 C -1619.20166015625 -792.8340454101562 -1618.71630859375 -793.3191528320312 -1618.1181640625 -793.3191528320312 M -1610.2548828125 -779.3384399414062 L -1625.878173828125 -779.3384399414062 C -1627.094848632812 -779.3384399414062 -1628.174072265625 -779.9456176757812 -1628.765258789062 -780.962646484375 C -1629.346435546875 -781.9623413085938 -1629.33837890625 -783.2323608398438 -1628.744384765625 -784.2769165039062 L -1620.925415039062 -798.0067749023438 C -1620.3173828125 -799.0750122070312 -1619.24853515625 -799.7129516601562 -1618.06640625 -799.7129516601562 C -1616.886108398438 -799.7129516601562 -1615.817504882812 -799.0752563476562 -1615.2080078125 -798.0070190429688 L -1607.38916015625 -784.2754516601562 C -1606.786254882812 -783.21533203125 -1606.778198242188 -781.9774780273438 -1607.3671875 -780.96337890625 C -1607.95947265625 -779.9453125 -1609.038696289062 -779.3384399414062 -1610.2548828125 -779.3384399414062 Z"/></g></g><circle class="c" cx="1.5" cy="1.5" r="1.5" transform="translate(28.786 33.188)"/><circle class="c" cx="1.5" cy="1.5" r="1.5" transform="translate(34.786 33.188)"/><circle class="c" cx="1.5" cy="1.5" r="1.5" transform="translate(40.786 33.188)"/></g></g></svg>