<svg xmlns="http://www.w3.org/2000/svg" xmlns:xlink="http://www.w3.org/1999/xlink" width="446.294" height="122.254" viewBox="0 0 446.294 122.254"><defs><style>.a{fill:#fff;}.b,.g{fill:#333;}.c,.i{fill:#535aff;}.d{fill:#4d4d4d;}.e,.f{fill:none;}.f{stroke:#333;stroke-miterlimit:10;stroke-width:2px;}.h,.i{stroke:none;}.j{filter:url(#a);}</style><filter id="a" x="0" y="0" width="446.294" height="122.254" filterUnits="userSpaceOnUse"><feOffset dy="3" input="SourceAlpha"/><feGaussianBlur stdDeviation="5" result="b"/><feFlood flood-opacity="0.349"/><feComposite operator="in" in2="b"/><feComposite in="SourceGraphic"/></filter></defs><g transform="translate(14.657 12)"><g class="j" transform="matrix(1, 0, 0, 1, -14.66, -12)"><rect class="a" width="416.295" height="92.254" transform="translate(15 12)"/></g><path class="b" d="M13.96-28.171v-1.48H8.44v2h2.851l-.009.209a2.829,2.829,0,0,1-3.087,2.724c-2.179,0-3.559-1.734-3.559-4.576,0-2.787,1.3-4.431,3.459-4.431a2.957,2.957,0,0,1,3,2.188h2.751C13.452-34.191,11.146-36,8.086-36c-3.85,0-6.247,2.542-6.247,6.737,0,4.258,2.4,6.81,6.31,6.81C11.8-22.451,13.96-24.6,13.96-28.171Zm8.212,2.524a1.938,1.938,0,0,1-1.961,1.226,2.165,2.165,0,0,1-2.234-2.342v-.163h6.71v-.808c0-2.96-1.789-4.876-4.621-4.876-2.878,0-4.694,2.016-4.694,5.121s1.8,5.03,4.794,5.03c2.406,0,4.149-1.28,4.44-3.187Zm-2.079-5a2.02,2.02,0,0,1,2.043,2.1H18A2.107,2.107,0,0,1,20.093-30.65Zm6.85-3.995V-32.4H25.572v2h1.371v5.112c0,1.9.89,2.66,3.178,2.66a6.1,6.1,0,0,0,1.262-.109v-1.952a4.291,4.291,0,0,1-.645.045c-.781,0-1.144-.354-1.144-1.1V-30.4h1.8v-2h-1.8v-2.243Zm6.8,0V-32.4H32.368v2h1.371v5.112c0,1.9.89,2.66,3.178,2.66a6.1,6.1,0,0,0,1.262-.109v-1.952a4.291,4.291,0,0,1-.645.045c-.781,0-1.144-.354-1.144-1.1V-30.4h1.8v-2h-1.8v-2.243Zm6.8-1.126.218,8.789H43.05l.218-8.789Zm1.362,13.329a1.44,1.44,0,0,0,1.48-1.425,1.44,1.44,0,0,0-1.48-1.425,1.44,1.44,0,0,0-1.48,1.425A1.44,1.44,0,0,0,41.906-22.442Z" transform="translate(107.215 56.996)"/><path d="M.738-22.867c.119,1.938,1.8,3.241,4.242,3.241,2.487,0,4.123-1.311,4.123-3.345,0-1.589-.945-2.487-3.3-3.019l-1.247-.286c-1.7-.381-2.407-1.041-2.407-2.081,0-1.3,1.231-2.113,2.781-2.113,1.629,0,2.765.874,2.876,2.185H8.889c-.064-1.843-1.708-3.17-3.94-3.17-2.248,0-3.917,1.295-3.917,3.146,0,1.581.953,2.558,3.233,3.067l1.247.278c1.764.405,2.479,1.057,2.479,2.137,0,1.3-1.231,2.217-2.955,2.217-1.8,0-3.075-.882-3.21-2.256Zm13.295,3.194c2.248,0,3.766-1.645,3.766-4.266s-1.517-4.266-3.766-4.266-3.766,1.637-3.766,4.266S11.785-19.673,14.033-19.673Zm0-.93c-1.621,0-2.693-1.239-2.693-3.337s1.073-3.337,2.693-3.337,2.7,1.239,2.7,3.337S15.654-20.6,14.033-20.6Zm5.327.794h1.049v-5.148A1.982,1.982,0,0,1,22.331-27.2a2.127,2.127,0,0,1,.787.119v-1.033a2.726,2.726,0,0,0-.651-.087,2.1,2.1,0,0,0-2.089,1.6h-.024v-1.47H19.36Zm5.049,0h1.049v-5.148A1.982,1.982,0,0,1,27.38-27.2a2.127,2.127,0,0,1,.787.119v-1.033a2.726,2.726,0,0,0-.651-.087,2.1,2.1,0,0,0-2.089,1.6H25.4v-1.47h-.993Zm5.644,2.987c1.351,0,1.946-.54,2.669-2.487l3.249-8.763H34.859l-2.51,7.214h-.024l-2.51-7.214H28.686l3.09,8.318-.215.62c-.365,1.033-.779,1.414-1.541,1.414a2.3,2.3,0,0,1-.493-.048v.9A3.285,3.285,0,0,0,30.053-16.821Zm6.518-.794,1-3.829h-1.12l-.763,3.829Zm6.324-12.521v2.066H41.663v.874h1.231v5.355c0,1.494.556,2.081,1.938,2.081a6.563,6.563,0,0,0,.779-.048v-.9c-.064.016-.461.032-.572.032-.763,0-1.1-.365-1.1-1.216V-27.2h1.629v-.874H43.943v-2.066ZM47.3-19.809h1.057v-4.862a2.378,2.378,0,0,1,2.447-2.6,2.061,2.061,0,0,1,2.2,2.3v5.164H54.06v-5.339a2.814,2.814,0,0,0-2.955-3.059,2.785,2.785,0,0,0-2.725,1.66h-.024v-4.727H47.3Zm14.4-2.344A2.237,2.237,0,0,1,59.355-20.6c-1.645,0-2.7-1.16-2.7-3.027v-.064h6.189v-.445c0-2.463-1.382-4.076-3.575-4.076-2.24,0-3.694,1.724-3.694,4.29,0,2.622,1.438,4.242,3.758,4.242a3.221,3.221,0,0,0,3.408-2.479Zm-2.447-5.132a2.536,2.536,0,0,1,2.51,2.765h-5.1A2.643,2.643,0,0,1,59.252-27.284Zm5.16,7.476H65.46v-5.148A1.982,1.982,0,0,1,67.383-27.2a2.127,2.127,0,0,1,.787.119v-1.033a2.726,2.726,0,0,0-.651-.087,2.1,2.1,0,0,0-2.089,1.6H65.4v-1.47h-.993ZM74.7-22.152A2.237,2.237,0,0,1,72.36-20.6c-1.645,0-2.7-1.16-2.7-3.027v-.064h6.189v-.445c0-2.463-1.382-4.076-3.575-4.076-2.24,0-3.694,1.724-3.694,4.29,0,2.622,1.438,4.242,3.758,4.242a3.221,3.221,0,0,0,3.408-2.479Zm-2.447-5.132a2.536,2.536,0,0,1,2.51,2.765h-5.1A2.643,2.643,0,0,1,72.257-27.284Zm11.1,7.611a3.078,3.078,0,0,0,2.82-1.708H86.2v1.573h1v-5.656c0-1.684-1.184-2.741-3.067-2.741s-3.1,1.049-3.218,2.526h1.017a1.974,1.974,0,0,1,2.177-1.6,1.814,1.814,0,0,1,2.042,1.907v.715l-2.574.159c-1.907.127-2.963.985-2.963,2.4A2.465,2.465,0,0,0,83.355-19.673Zm.215-.906c-1.12,0-1.891-.62-1.891-1.517,0-.914.723-1.478,2.026-1.565l2.447-.167v.914A2.442,2.442,0,0,1,83.57-20.579Zm5.557.771h1.049v-5.148A1.982,1.982,0,0,1,92.1-27.2a2.127,2.127,0,0,1,.787.119v-1.033a2.726,2.726,0,0,0-.651-.087,2.1,2.1,0,0,0-2.089,1.6H90.12v-1.47h-.993Zm10.292-2.344A2.237,2.237,0,0,1,97.075-20.6c-1.644,0-2.7-1.16-2.7-3.027v-.064h6.189v-.445c0-2.463-1.382-4.076-3.575-4.076-2.24,0-3.694,1.724-3.694,4.29,0,2.622,1.438,4.242,3.758,4.242a3.221,3.221,0,0,0,3.408-2.479Zm-2.447-5.132a2.536,2.536,0,0,1,2.51,2.765h-5.1A2.643,2.643,0,0,1,96.972-27.284Zm8.651,7.476h1.049V-24.7a2.352,2.352,0,0,1,2.391-2.566A2.026,2.026,0,0,1,111.24-25v5.188h1.049v-5.355a2.766,2.766,0,0,0-2.924-3.043,2.793,2.793,0,0,0-2.725,1.66h-.024v-1.525h-.993Zm11.952.135c2.248,0,3.766-1.645,3.766-4.266s-1.517-4.266-3.766-4.266-3.766,1.637-3.766,4.266S115.327-19.673,117.575-19.673Zm0-.93c-1.621,0-2.693-1.239-2.693-3.337s1.073-3.337,2.693-3.337,2.7,1.239,2.7,3.337S119.2-20.6,117.575-20.6Zm11.94.93a3.043,3.043,0,0,0,2.86-1.883h.024v1.748h1V-31.272h-1.057v4.9h-.024a2.986,2.986,0,0,0-2.828-1.835c-2.074,0-3.511,1.692-3.511,4.266S127.426-19.673,129.515-19.673Zm.183-7.6c1.573,0,2.653,1.343,2.653,3.337S131.271-20.6,129.7-20.6c-1.589,0-2.638-1.319-2.638-3.337S128.109-27.276,129.7-27.276Zm5.748,7.468h1.049v-5.148a1.982,1.982,0,0,1,1.923-2.248,2.127,2.127,0,0,1,.787.119v-1.033a2.726,2.726,0,0,0-.651-.087,2.1,2.1,0,0,0-2.089,1.6h-.024v-1.47h-.993Zm5.644-9.978a.7.7,0,0,0,.707-.7.7.7,0,0,0-.707-.7.7.7,0,0,0-.7.7A.7.7,0,0,0,141.09-29.787Zm-.524,9.978h1.049v-8.262h-1.049Zm9.577-8.262h-1.1l-2.518,7.158H146.5l-2.51-7.158h-1.112l3.075,8.262h1.12Zm6.741,5.919A2.237,2.237,0,0,1,154.54-20.6c-1.645,0-2.7-1.16-2.7-3.027v-.064h6.189v-.445c0-2.463-1.382-4.076-3.575-4.076-2.24,0-3.694,1.724-3.694,4.29,0,2.622,1.438,4.242,3.758,4.242a3.221,3.221,0,0,0,3.408-2.479Zm-2.447-5.132a2.536,2.536,0,0,1,2.51,2.765h-5.1A2.643,2.643,0,0,1,154.437-27.284Zm5.16,7.476h1.049v-5.148a1.982,1.982,0,0,1,1.923-2.248,2.127,2.127,0,0,1,.787.119v-1.033a2.726,2.726,0,0,0-.651-.087,2.1,2.1,0,0,0-2.089,1.6h-.024v-1.47H159.6Zm4.834-6.054c0,1.144.739,1.835,2.312,2.2l1.239.294c1.112.27,1.517.667,1.517,1.382,0,.866-.818,1.446-2.058,1.446a1.966,1.966,0,0,1-2.2-1.637h-1.049c.143,1.509,1.382,2.5,3.249,2.5,1.8,0,3.114-.993,3.114-2.391,0-1.168-.62-1.8-2.272-2.2l-1.247-.294c-1.1-.262-1.565-.683-1.565-1.359,0-.826.771-1.422,1.9-1.422a1.858,1.858,0,0,1,2.026,1.66H170.4a2.75,2.75,0,0,0-3.035-2.526C165.646-28.206,164.431-27.229,164.431-25.862Zm13.632,6.189a3.078,3.078,0,0,0,2.82-1.708h.024v1.573h1v-5.656c0-1.684-1.184-2.741-3.067-2.741s-3.1,1.049-3.218,2.526h1.017a1.974,1.974,0,0,1,2.177-1.6,1.814,1.814,0,0,1,2.042,1.907v.715l-2.574.159c-1.907.127-2.963.985-2.963,2.4A2.465,2.465,0,0,0,178.063-19.673Zm.214-.906c-1.12,0-1.891-.62-1.891-1.517,0-.914.723-1.478,2.026-1.565l2.447-.167v.914A2.442,2.442,0,0,1,178.278-20.579Zm12.04-7.492h-1.1L186.7-20.913h-.024l-2.51-7.158h-1.112l3.075,8.262h1.12Zm3.46,8.4a3.078,3.078,0,0,0,2.82-1.708h.024v1.573h1v-5.656c0-1.684-1.184-2.741-3.067-2.741s-3.1,1.049-3.218,2.526h1.017a1.974,1.974,0,0,1,2.177-1.6,1.814,1.814,0,0,1,2.042,1.907v.715L194-24.5c-1.907.127-2.963.985-2.963,2.4A2.465,2.465,0,0,0,193.777-19.673Zm.215-.906c-1.12,0-1.891-.62-1.891-1.517,0-.914.723-1.478,2.026-1.565l2.447-.167v.914A2.442,2.442,0,0,1,193.992-20.579Zm6.153-9.208a.7.7,0,0,0,.707-.7.7.7,0,0,0-.707-.7.7.7,0,0,0-.7.7A.7.7,0,0,0,200.144-29.787Zm-.524,9.978h1.049v-8.262H199.62Zm3.166,0h1.049V-31.272h-1.049Zm5.541.135a3.078,3.078,0,0,0,2.82-1.708h.024v1.573h1v-5.656c0-1.684-1.184-2.741-3.067-2.741s-3.1,1.049-3.218,2.526H206.9a1.974,1.974,0,0,1,2.177-1.6,1.814,1.814,0,0,1,2.042,1.907v.715l-2.574.159c-1.907.127-2.963.985-2.963,2.4A2.465,2.465,0,0,0,208.327-19.673Zm.215-.906c-1.12,0-1.891-.62-1.891-1.517,0-.914.723-1.478,2.026-1.565l2.447-.167v.914A2.442,2.442,0,0,1,208.541-20.579Zm9.529.906c2.081,0,3.5-1.692,3.5-4.266s-1.414-4.266-3.488-4.266a2.984,2.984,0,0,0-2.828,1.859h-.024v-4.926H214.17v11.464h1.009v-1.748h.024A3.024,3.024,0,0,0,218.071-19.673Zm-.2-7.6c1.589,0,2.614,1.319,2.614,3.337s-1.025,3.337-2.614,3.337c-1.557,0-2.653-1.351-2.653-3.337S216.323-27.276,217.872-27.276Zm5.335,7.468h1.049V-31.272h-1.049Zm8.806-2.344a2.237,2.237,0,0,1-2.344,1.557c-1.645,0-2.7-1.16-2.7-3.027v-.064h6.189v-.445c0-2.463-1.382-4.076-3.575-4.076-2.24,0-3.694,1.724-3.694,4.29,0,2.622,1.438,4.242,3.758,4.242a3.221,3.221,0,0,0,3.408-2.479Zm-2.447-5.132a2.536,2.536,0,0,1,2.51,2.765h-5.1A2.643,2.643,0,0,1,229.566-27.284Zm9.247-2.5a.7.7,0,0,0,.707-.7.7.7,0,0,0-.707-.7.7.7,0,0,0-.7.7A.7.7,0,0,0,238.813-29.787Zm-.524,9.978h1.049v-8.262h-1.049Zm3.094,0h1.049V-24.7a2.352,2.352,0,0,1,2.391-2.566A2.026,2.026,0,0,1,247-25v5.188h1.049v-5.355a2.766,2.766,0,0,0-2.924-3.043,2.793,2.793,0,0,0-2.725,1.66h-.024v-1.525h-.993ZM1.731.311c1.351,0,1.946-.54,2.669-2.487L7.65-10.938H6.538L4.027-3.725H4l-2.51-7.214H.365L3.455-2.62,3.241-2C2.875-.968,2.462-.586,1.7-.586a2.3,2.3,0,0,1-.493-.048v.9A3.286,3.286,0,0,0,1.731.311ZM12.039-2.541c2.248,0,3.766-1.645,3.766-4.266s-1.517-4.266-3.766-4.266S8.273-9.437,8.273-6.807,9.791-2.541,12.039-2.541Zm0-.93c-1.621,0-2.693-1.239-2.693-3.337s1.073-3.337,2.693-3.337,2.7,1.239,2.7,3.337S13.66-3.47,12.039-3.47Zm11.952-7.468H22.943v4.9a2.344,2.344,0,0,1-2.407,2.558A2.007,2.007,0,0,1,18.375-5.75v-5.188H17.318v5.37a2.763,2.763,0,0,0,2.916,3.027,2.837,2.837,0,0,0,2.741-1.668H23v1.533h.993Zm1.974,8.262h1.049V-7.824a1.982,1.982,0,0,1,1.923-2.248,2.127,2.127,0,0,1,.787.119v-1.033a2.726,2.726,0,0,0-.651-.087,2.1,2.1,0,0,0-2.089,1.6h-.024v-1.47h-.993Zm10.987.135a3.078,3.078,0,0,0,2.82-1.708H39.8v1.573h1V-8.332c0-1.684-1.184-2.741-3.067-2.741s-3.1,1.049-3.218,2.526H35.53a1.974,1.974,0,0,1,2.177-1.6,1.814,1.814,0,0,1,2.042,1.907v.715l-2.574.159c-1.907.127-2.963.985-2.963,2.4A2.465,2.465,0,0,0,36.952-2.541Zm.215-.906c-1.12,0-1.891-.62-1.891-1.517,0-.914.723-1.478,2.026-1.565L39.749-6.7v.914A2.442,2.442,0,0,1,37.167-3.446Zm5.557.771h1.049V-7.824A1.982,1.982,0,0,1,45.7-10.072a2.127,2.127,0,0,1,.787.119v-1.033a2.726,2.726,0,0,0-.651-.087,2.1,2.1,0,0,0-2.089,1.6h-.024v-1.47h-.993ZM53.016-5.019a2.237,2.237,0,0,1-2.344,1.557c-1.645,0-2.7-1.16-2.7-3.027v-.064H54.16V-7c0-2.463-1.382-4.076-3.575-4.076-2.24,0-3.694,1.724-3.694,4.29,0,2.622,1.438,4.242,3.758,4.242a3.221,3.221,0,0,0,3.408-2.479Zm-2.447-5.132a2.536,2.536,0,0,1,2.51,2.765h-5.1A2.643,2.643,0,0,1,50.569-10.152Zm7.607,7.611A3.078,3.078,0,0,0,61-4.249h.024v1.573h1V-8.332c0-1.684-1.184-2.741-3.067-2.741s-3.1,1.049-3.218,2.526h1.017a1.974,1.974,0,0,1,2.177-1.6,1.814,1.814,0,0,1,2.042,1.907v.715L58.4-7.363c-1.907.127-2.963.985-2.963,2.4A2.465,2.465,0,0,0,58.176-2.541Zm.215-.906c-1.12,0-1.891-.62-1.891-1.517,0-.914.723-1.478,2.026-1.565L60.972-6.7v.914A2.442,2.442,0,0,1,58.39-3.446Zm9.048.771h1.049V-7.824a1.982,1.982,0,0,1,1.923-2.248,2.127,2.127,0,0,1,.786.119v-1.033a2.726,2.726,0,0,0-.651-.087,2.1,2.1,0,0,0-2.089,1.6h-.024v-1.47h-.993Zm5.644-9.978a.7.7,0,0,0,.707-.7.7.7,0,0,0-.707-.7.7.7,0,0,0-.7.7A.7.7,0,0,0,73.083-12.654Zm-.524,9.978h1.049v-8.262H72.559ZM79.021.383c2.209,0,3.615-1.271,3.615-3.194v-8.127h-1V-9.19h-.024a3.052,3.052,0,0,0-2.86-1.883c-2.113,0-3.511,1.676-3.511,4.242S76.638-2.6,78.727-2.6a3.022,3.022,0,0,0,2.828-1.835h.024v1.66a2.235,2.235,0,0,1-2.51,2.248,2.325,2.325,0,0,1-2.352-1.39H75.629C75.86-.61,77.218.383,79.021.383Zm-.1-3.909c-1.557,0-2.6-1.3-2.6-3.3,0-2.01,1.041-3.321,2.6-3.321,1.589,0,2.661,1.335,2.661,3.313S80.507-3.526,78.918-3.526Zm5.764.85h1.057V-7.538a2.378,2.378,0,0,1,2.447-2.6,2.061,2.061,0,0,1,2.2,2.3v5.164h1.057V-8.015a2.814,2.814,0,0,0-2.955-3.059,2.785,2.785,0,0,0-2.725,1.66h-.024V-14.14H84.682ZM93.822-13v2.066H92.59v.874h1.231V-4.71c0,1.494.556,2.081,1.938,2.081a6.563,6.563,0,0,0,.779-.048v-.9c-.064.016-.461.032-.572.032-.763,0-1.1-.365-1.1-1.216v-5.307H96.5v-.874H94.87V-13Zm7.825,10.328H102.7V-7.57a2.352,2.352,0,0,1,2.391-2.566,2.026,2.026,0,0,1,2.177,2.272v5.188h1.049V-8.03a2.766,2.766,0,0,0-2.924-3.043,2.793,2.793,0,0,0-2.725,1.66h-.024v-1.525h-.993Zm11.952.135c2.248,0,3.766-1.645,3.766-4.266s-1.517-4.266-3.766-4.266-3.766,1.637-3.766,4.266S111.351-2.541,113.6-2.541Zm0-.93c-1.621,0-2.693-1.239-2.693-3.337s1.073-3.337,2.693-3.337,2.7,1.239,2.7,3.337S115.22-3.47,113.6-3.47Zm15.623-7.468h-1.057l-1.851,7.086h-.024l-2.058-7.086h-1.065L121.11-3.852h-.024l-1.851-7.086h-1.065l2.352,8.262h1.112l2.05-6.856h.024l2.058,6.856h1.112Zm1.879-3.2.072,7.841h.961l.064-7.841ZM131.649-2.6a.734.734,0,0,0,.747-.739.736.736,0,0,0-.747-.747.734.734,0,0,0-.739.747A.732.732,0,0,0,131.649-2.6Z" transform="translate(108.144 79.051)"/><rect class="c" width="81.933" height="92.254" transform="translate(0 0)"/><path class="d" d="M.393,0H.66V-2.123A1.149,1.149,0,0,1,1.818-3.37a1.021,1.021,0,0,1,1.094,1.1V0h.267V-2.3a1.22,1.22,0,0,0-1.3-1.306,1.242,1.242,0,0,0-1.23.827H.643v-.772H.393ZM5.7.055A1.616,1.616,0,0,0,7.285-1.777,1.616,1.616,0,0,0,5.7-3.609,1.613,1.613,0,0,0,4.117-1.777,1.613,1.613,0,0,0,5.7.055Zm0-.239c-.79,0-1.316-.6-1.316-1.593S4.91-3.37,5.7-3.37s1.319.6,1.319,1.593S6.489-.185,5.7-.185Zm6.854-3.37h-.28L11.364-.294h-.01l-.988-3.261h-.3L9.074-.294H9.067L8.155-3.555H7.878L8.91,0h.314l.984-3.213h.01L11.21,0h.308Z" transform="translate(382.943 25.297)"/><path class="e" d="M-228.994-1024.2h29.4v29.4h-29.4Z" transform="translate(254.494 1050.42)"/><path class="e" d="M-232.2-1029.479h33.31v33.31H-232.2Z" transform="translate(256.515 1053.743)"/><g transform="translate(29.1 22.908)"><path class="f" d="M-194.837-974.754a2.942,2.942,0,0,1-2.934,2.934h-15.864a2.941,2.941,0,0,1-2.935-2.934v-15.867a2.94,2.94,0,0,1,2.935-2.932h15.864a2.941,2.941,0,0,1,2.934,2.932Z" transform="translate(216.569 1008.211)"/><path class="b" d="M-205.085-1012.12l.251-.06.046-.232.094,0a29.385,29.385,0,0,1,.3,3.234c.009,4.169-.9,8.133-.945,12.423h4.073a29.72,29.72,0,0,1,1.132-3.233,18,18,0,0,1,.926,3.233h4.249c-.21-2.945-.3-4.966-.823-8.644a1.712,1.712,0,0,0,.72-.133c-.776-2.518-1.068-9.626-.27-13.346a12.331,12.331,0,0,0,.9-3.6s.127-.48.271-1.035v0a23.74,23.74,0,0,0,.795-2.3,21.131,21.131,0,0,0,.478-2.193l.288-.867a3.675,3.675,0,0,0,.4-.486,3.939,3.939,0,0,0,.308-.549.932.932,0,0,1,.255-.221,1.453,1.453,0,0,1,.318-.132l.887-.161s.29-.049.244-.2-.46-.138-.46-.138a6.153,6.153,0,0,1-1.037.054,9.132,9.132,0,0,1,1.11-.891s.308-.256.2-.434-.474.091-.474.091-1.126.772-1.216.777a10.826,10.826,0,0,1,.815-1.245s.273-.384.128-.544-.413.183-.413.183-.978,1.188-1.025,1.241-.132-.012-.188-.081a.241.241,0,0,1-.019-.175l.148-1.026a.335.335,0,0,0-.194-.313c-.207-.072-.293.192-.293.192l-.4,1.508a1.148,1.148,0,0,1-.474.419.766.766,0,0,1-.5-.074,2.228,2.228,0,0,0-.413-.4.821.821,0,0,0-.332-.106s-.353-.026-.5.16c-.066.085.182.2.182.2a1.7,1.7,0,0,1,.442.33.629.629,0,0,1,.12.323s-.034.12.131.387a5.625,5.625,0,0,0,.457.56,1.4,1.4,0,0,1,.146.329l-.012.409a.792.792,0,0,1-.041.121l-.742,1.943s-.294.583-.59,1.273c-.33.764-.676,1.656-.832,1.957l-.012.064-.017.026s-.234.343-.454.751a3.583,3.583,0,0,1-.87.853,2.291,2.291,0,0,0-1.088.677,1.573,1.573,0,0,1-.852.618l-.112-.021s-.167-.624-.227-.817a.924.924,0,0,1-.053-.317s.369-.365.363-.513a6.342,6.342,0,0,0-.251-1.706,2.722,2.722,0,0,1-.316-.824,1.7,1.7,0,0,0-.319-.64c-.128-.111-.437-.348-.476-.408a1.108,1.108,0,0,0-.364-.4c-.18-.088-.141-.214-.261-.34a.446.446,0,0,0-.251-.141s.128.088.059.164l-.05.056-.016.019c-.03.028-.251-.022-.356.013a1.528,1.528,0,0,0-.227.111.379.379,0,0,0-.406-.074c-.264.089.126-.014.126.082a.091.091,0,0,1-.1.1c-.023,0-.219.194-.349.186s-.28.164-.31.187l-.262-.023-.1-.083-.009-.009.016.069c0,.051.075.075.007.177s-.136.141-.175.253-.172.32-.22.283-.089-.031-.029-.128.106-.1.106-.1-.211-.037-.2.238c0,0-.317.067-.325.209a.142.142,0,0,1,.2-.019l-.1.04a1.306,1.306,0,0,0-.04.311c.008.134-.045.052-.074.061a1.991,1.991,0,0,0-.2.638c0,.1-.037.087-.064.051.013.059.015.137-.021.164-.066.051.106.076.091.253a.566.566,0,0,1-.2.328l.15.03.024.066.044-.015a2.941,2.941,0,0,1,.107.437c.008.12.03.021.038-.007l.009-.031a2.965,2.965,0,0,0,.533.758c.387.416,1.158.89,1.218,1.159a4.61,4.61,0,0,1,.09,1.261l-.414-.006-.036.175a1.185,1.185,0,0,1-.164.217c-.073.067-.279.248-.279.248l-.257.184c-.06.05-.12.1-.183.141a10.107,10.107,0,0,0-1.955,1.338c-.787.884-.93,1.964-1.465,3.451.144.355.347.342.436.665l.011,0-.5,3.158a14.767,14.767,0,0,0-.479,2.637,36.162,36.162,0,0,0,0,3.749s.075,1.1.165,1.5a2.989,2.989,0,0,0,.651.976l1.081.335s.168.05.182-.1a.36.36,0,0,0-.077-.248.3.3,0,0,0-.039-.184,3.705,3.705,0,0,0-.553-.275l-.153-.172-.193-.383a3.03,3.03,0,0,1,.054-.735s.31.051.345.154c.016.047.257.4.487.445s.184-.065.163-.161c-.062-.208-.394-.62-.424-.791a2.082,2.082,0,0,0-.256-.682,1.028,1.028,0,0,0-.25-.214l-.1-.1s.594-2.033.877-3.045a14.683,14.683,0,0,0,.293-2.056,1.074,1.074,0,0,1,.12-.455,16.628,16.628,0,0,0,.835-2.367" transform="translate(211.394 1033.142)"/></g><g transform="translate(41.868 43.246)"><g class="g" transform="translate(1627.199 797.713)"><path class="h" d="M -1610.2548828125 -780.3384399414062 L -1625.878173828125 -780.3384399414062 C -1626.734497070312 -780.3384399414062 -1627.490600585938 -780.7596435546875 -1627.900756835938 -781.4652099609375 C -1628.309692382812 -782.1688232421875 -1628.300170898438 -783.03515625 -1627.875122070312 -783.7825927734375 L -1620.056518554688 -797.5119018554688 C -1619.62841796875 -798.263916015625 -1618.884399414062 -798.7129516601562 -1618.06640625 -798.7129516601562 C -1617.249755859375 -798.7129516601562 -1616.505859375 -798.2637939453125 -1616.076538085938 -797.5114135742188 L -1608.258178710938 -783.7806396484375 C -1607.83349609375 -783.0337524414062 -1607.82373046875 -782.16845703125 -1608.23193359375 -781.465576171875 C -1608.642700195312 -780.759521484375 -1609.398803710938 -780.3384399414062 -1610.2548828125 -780.3384399414062 Z M -1618.1181640625 -792.3191528320312 C -1618.164184570312 -792.3191528320312 -1618.20166015625 -792.28173828125 -1618.20166015625 -792.2357788085938 L -1618.20166015625 -788.3350219726562 C -1618.20166015625 -788.2888793945312 -1618.164184570312 -788.2512817382812 -1618.1181640625 -788.2512817382812 C -1618.072021484375 -788.2512817382812 -1618.034423828125 -788.2888793945312 -1618.034423828125 -788.3350219726562 L -1618.034423828125 -792.2357788085938 C -1618.034423828125 -792.28173828125 -1618.072021484375 -792.3191528320312 -1618.1181640625 -792.3191528320312 Z"/><path class="i" d="M -1610.2548828125 -781.3384399414062 C -1609.7568359375 -781.3384399414062 -1609.323974609375 -781.5770874023438 -1609.0966796875 -781.9677124023438 C -1608.86962890625 -782.3587036132812 -1608.881103515625 -782.8530883789062 -1609.127197265625 -783.2858276367188 L -1616.945068359375 -797.0158081054688 C -1617.193603515625 -797.4513549804688 -1617.612548828125 -797.7129516601562 -1618.06640625 -797.7129516601562 C -1618.5205078125 -797.7129516601562 -1618.939453125 -797.4528198242188 -1619.1875 -797.0170288085938 L -1627.005859375 -783.2882690429688 C -1627.251953125 -782.8555297851562 -1627.263427734375 -782.3587036132812 -1627.0361328125 -781.9677124023438 C -1626.80908203125 -781.5770874023438 -1626.3759765625 -781.3384399414062 -1625.878173828125 -781.3384399414062 L -1610.2548828125 -781.3384399414062 M -1618.06640625 -786.0270385742188 C -1617.468017578125 -786.0270385742188 -1616.98291015625 -785.5418090820312 -1616.98291015625 -784.9432983398438 C -1616.98291015625 -784.3450317382812 -1617.468017578125 -783.8599243164062 -1618.06640625 -783.8599243164062 C -1618.6650390625 -783.8599243164062 -1619.14990234375 -784.3450317382812 -1619.14990234375 -784.9432983398438 C -1619.14990234375 -785.5418090820312 -1618.6650390625 -786.0270385742188 -1618.06640625 -786.0270385742188 M -1618.1181640625 -793.3191528320312 C -1617.51953125 -793.3191528320312 -1617.034423828125 -792.8340454101562 -1617.034423828125 -792.2357788085938 L -1617.034423828125 -788.3350219726562 C -1617.034423828125 -787.7366333007812 -1617.51953125 -787.2512817382812 -1618.1181640625 -787.2512817382812 C -1618.71630859375 -787.2512817382812 -1619.20166015625 -787.7366333007812 -1619.20166015625 -788.3350219726562 L -1619.20166015625 -792.2357788085938 C -1619.20166015625 -792.8340454101562 -1618.71630859375 -793.3191528320312 -1618.1181640625 -793.3191528320312 M -1610.2548828125 -779.3384399414062 L -1625.878173828125 -779.3384399414062 C -1627.094848632812 -779.3384399414062 -1628.174072265625 -779.9456176757812 -1628.765258789062 -780.962646484375 C -1629.346435546875 -781.9623413085938 -1629.33837890625 -783.2323608398438 -1628.744384765625 -784.2769165039062 L -1620.925415039062 -798.0067749023438 C -1620.3173828125 -799.0750122070312 -1619.24853515625 -799.7129516601562 -1618.06640625 -799.7129516601562 C -1616.886108398438 -799.7129516601562 -1615.817504882812 -799.0752563476562 -1615.2080078125 -798.0070190429688 L -1607.38916015625 -784.2754516601562 C -1606.786254882812 -783.21533203125 -1606.778198242188 -781.9774780273438 -1607.3671875 -780.96337890625 C -1607.95947265625 -779.9453125 -1609.038696289062 -779.3384399414062 -1610.2548828125 -779.3384399414062 Z"/></g></g></g></svg>