<svg xmlns="http://www.w3.org/2000/svg" xmlns:xlink="http://www.w3.org/1999/xlink" width="453.3" height="305.2" viewBox="0 0 453.3 305.2"><defs><style>.a,.i{fill:#fff;}.a,.j{stroke:#535aff;}.a{stroke-miterlimit:10;stroke-width:7px;}.b{opacity:0.074;}.c{fill:#535aff;}.d{fill:none;}.e{fill:#333;}.f{fill:#4d4d4d;}.g{fill:#f2d54e;}.h{fill:rgba(0,0,0,0.24);opacity:0.5;}.j{fill:#cdcfff;}.k{filter:url(#a);}</style><filter id="a" x="0" y="0" width="453.3" height="305.2" filterUnits="userSpaceOnUse"><feOffset dy="3" input="SourceAlpha"/><feGaussianBlur stdDeviation="5" result="b"/><feFlood flood-opacity="0.161"/><feComposite operator="in" in2="b"/><feComposite in="SourceGraphic"/></filter></defs><g transform="translate(-993.5 -721.5)"><g transform="translate(0 295)"><g transform="translate(994.343 427)"><g transform="translate(-12.043 -9)"><g class="k" transform="matrix(1, 0, 0, 1, 11.2, 8.5)"><rect class="a" width="416.3" height="268.2" transform="translate(18.5 15.5)"/></g></g><g class="b" transform="translate(5.758 15.343)"><rect class="c" width="388.8" height="30.7" transform="translate(26.9 101.9)"/><path class="c" d="M26.9,109.516,415.7,106.3V250.8H26.9Z"/></g><path class="d" d="M-3067.115-2414.092h29.4v29.4h-29.4Z" transform="translate(3124.713 2586.291)"/><g transform="translate(17.472 14.981)"><path class="e" d="M9.6-31.235H9.68l2.488,8.952h2.588l3.477-13.1H15.391L13.321-25.9h-.073L10.8-35.385H8.481L6.03-25.9H5.957L3.9-35.385H1.054l3.468,13.1H7.11Zm15.421,5.974a1.938,1.938,0,0,1-1.961,1.226,2.165,2.165,0,0,1-2.234-2.342v-.163h6.71v-.808c0-2.96-1.789-4.876-4.621-4.876-2.878,0-4.694,2.016-4.694,5.121s1.8,5.03,4.794,5.03c2.406,0,4.149-1.28,4.44-3.187Zm-2.079-5a2.02,2.02,0,0,1,2.043,2.1H20.852A2.107,2.107,0,0,1,22.94-30.264Zm9.029,8.135a3.348,3.348,0,0,0,2.969-1.643h.054v1.489h2.56v-6.692c0-1.961-1.625-3.25-4.122-3.25-2.579,0-4.186,1.3-4.285,3.187H31.57a1.578,1.578,0,0,1,1.743-1.208c1,0,1.634.527,1.634,1.435v.645l-2.451.145c-2.424.145-3.786,1.171-3.786,2.942A3.01,3.01,0,0,0,31.97-22.129Zm.872-1.916c-.9,0-1.5-.454-1.5-1.18,0-.69.563-1.135,1.553-1.208l2.052-.127v.708A1.944,1.944,0,0,1,32.841-24.045Zm7.313-10.214v2.243H38.783v2h1.371v5.112c0,1.9.89,2.66,3.178,2.66a6.1,6.1,0,0,0,1.262-.109v-1.952a4.29,4.29,0,0,1-.645.045c-.781,0-1.144-.354-1.144-1.1v-4.658h1.8v-2h-1.8v-2.243Zm6.151,11.976h2.651V-27.84A1.942,1.942,0,0,1,50.945-30c1.208,0,1.825.763,1.825,2.016v5.7h2.651v-6.265c0-2.252-1.235-3.65-3.4-3.65a3.091,3.091,0,0,0-3.06,1.916h-.054v-5.1H46.306Zm17.437-2.978a1.938,1.938,0,0,1-1.961,1.226,2.165,2.165,0,0,1-2.234-2.342v-.163h6.71v-.808c0-2.96-1.789-4.876-4.621-4.876-2.878,0-4.694,2.016-4.694,5.121s1.8,5.03,4.794,5.03c2.406,0,4.149-1.28,4.44-3.187Zm-2.079-5a2.02,2.02,0,0,1,2.043,2.1H59.575A2.107,2.107,0,0,1,61.663-30.264Zm6.142,7.981h2.651v-5.439a1.939,1.939,0,0,1,2.07-2.17,2.728,2.728,0,0,1,.962.154v-2.333a2.7,2.7,0,0,0-.754-.1,2.323,2.323,0,0,0-2.315,1.907h-.054v-1.752h-2.56Z" transform="translate(108.052 56.61)"/><path d="M2.467-28.055H3.516A2.514,2.514,0,0,1,6.186-30.5a2.289,2.289,0,0,1,2.439,2.264c0,1.009-.405,1.692-2.05,3.408L2.523-20.571v.763H10v-.969H4.033v-.032l3.067-3.2C9.141-26.116,9.7-27.054,9.7-28.293a3.284,3.284,0,0,0-3.519-3.162A3.485,3.485,0,0,0,2.467-28.055Zm13.088,8.429A3.809,3.809,0,0,0,19.584-23.5a3.68,3.68,0,0,0-3.79-3.8,3.317,3.317,0,0,0-2.789,1.319h-.024l.453-4.322h5.458v-.969H12.537l-.62,6.427h.977a3.027,3.027,0,0,1,2.725-1.517A2.8,2.8,0,0,1,18.5-23.479a2.8,2.8,0,0,1-2.924,2.892,2.649,2.649,0,0,1-2.8-2.209H11.711A3.594,3.594,0,0,0,15.556-19.626Zm7.718-6.9a2.258,2.258,0,0,0,2.264-2.264,2.253,2.253,0,0,0-2.264-2.264A2.25,2.25,0,0,0,21-28.786,2.25,2.25,0,0,0,23.274-26.522Zm0-.89a1.366,1.366,0,0,1-1.359-1.374,1.375,1.375,0,0,1,1.359-1.39,1.359,1.359,0,0,1,1.351,1.39A1.35,1.35,0,0,1,23.274-27.411Zm8.286-2.375a.7.7,0,0,0,.707-.7.7.7,0,0,0-.707-.7.7.7,0,0,0-.7.7A.7.7,0,0,0,31.56-29.787Zm-.524,9.978h1.049v-8.262H31.035Zm3.094,0h1.049V-24.7a2.352,2.352,0,0,1,2.391-2.566A2.026,2.026,0,0,1,39.746-25v5.188h1.049v-5.355a2.766,2.766,0,0,0-2.924-3.043,2.793,2.793,0,0,0-2.725,1.66h-.024v-1.525H34.13Zm21.132,0V-31.272H54.173v5.1H47.468v-5.1h-1.08v11.464h1.08v-5.378h6.705v5.378Zm5.493.135c2.248,0,3.766-1.645,3.766-4.266S63-28.206,60.755-28.206s-3.766,1.637-3.766,4.266S58.507-19.673,60.755-19.673Zm0-.93c-1.621,0-2.693-1.239-2.693-3.337s1.073-3.337,2.693-3.337,2.7,1.239,2.7,3.337S62.376-20.6,60.755-20.6Zm5.4.794H67.2V-31.272H66.153Zm6.447.135c2.248,0,3.766-1.645,3.766-4.266s-1.517-4.266-3.766-4.266-3.766,1.637-3.766,4.266S70.352-19.673,72.6-19.673Zm0-.93c-1.621,0-2.693-1.239-2.693-3.337s1.073-3.337,2.693-3.337,2.7,1.239,2.7,3.337S74.221-20.6,72.6-20.6Zm5.327.794h1.049V-24.7a2.352,2.352,0,0,1,2.391-2.566A2.026,2.026,0,0,1,83.543-25v5.188h1.049v-5.355a2.766,2.766,0,0,0-2.924-3.043,2.793,2.793,0,0,0-2.725,1.66H78.92v-1.525h-.993Zm9.569.072a.732.732,0,0,0,.739-.739.734.734,0,0,0-.739-.747.741.741,0,0,0-.747.747A.739.739,0,0,0,87.5-19.737Z" transform="translate(107.162 79.051)"/><rect class="c" width="81.933" height="81.839" transform="translate(0 0)"/><path class="f" d="M.393,0H.66V-2.123A1.149,1.149,0,0,1,1.818-3.37a1.021,1.021,0,0,1,1.094,1.1V0h.267V-2.3a1.22,1.22,0,0,0-1.3-1.306,1.242,1.242,0,0,0-1.23.827H.643v-.772H.393ZM5.7.055A1.616,1.616,0,0,0,7.285-1.777,1.616,1.616,0,0,0,5.7-3.609,1.613,1.613,0,0,0,4.117-1.777,1.613,1.613,0,0,0,5.7.055Zm0-.239c-.79,0-1.316-.6-1.316-1.593S4.91-3.37,5.7-3.37s1.319.6,1.319,1.593S6.489-.185,5.7-.185Zm6.854-3.37h-.28L11.364-.294h-.01l-.988-3.261h-.3L9.074-.294H9.067L8.155-3.555H7.878L8.91,0h.314l.984-3.213h.01L11.21,0h.308Z" transform="translate(382.943 25.297)"/><path class="d" d="M-229.805-2343.727h32.673v32.674h-32.673Z" transform="translate(255.347 2366.868)"/><path class="e" d="M-221.7-2331.084l-.531-.531a1.352,1.352,0,0,0-1.906,0l-.013.014a1.339,1.339,0,0,0,0,1.906l.531.531a1.339,1.339,0,0,0,1.906,0l.014-.014A1.339,1.339,0,0,0-221.7-2331.084Zm-4.139,8.658h-1.388a1.342,1.342,0,0,0-1.348,1.348v.014a1.342,1.342,0,0,0,1.348,1.348h1.375a1.325,1.325,0,0,0,1.361-1.334v-.014A1.345,1.345,0,0,0-225.838-2322.426Zm12.253-13.545h-.014a1.345,1.345,0,0,0-1.361,1.347v1.307a1.342,1.342,0,0,0,1.348,1.348h.014a1.326,1.326,0,0,0,1.361-1.335v-1.32A1.342,1.342,0,0,0-213.585-2335.971Zm10.537,4.37a1.368,1.368,0,0,0-1.919-.014l-.531.531a1.339,1.339,0,0,0,0,1.905l.014.014a1.339,1.339,0,0,0,1.906,0l.531-.531A1.339,1.339,0,0,0-203.048-2331.6Zm-2.464,20.557.531.531a1.355,1.355,0,0,0,1.919,0,1.355,1.355,0,0,0,0-1.919l-.531-.531a1.352,1.352,0,0,0-1.906,0A1.344,1.344,0,0,0-205.512-2311.045Zm2.8-10.033v.014a1.342,1.342,0,0,0,1.348,1.348h1.375a1.342,1.342,0,0,0,1.348-1.348v-.014a1.342,1.342,0,0,0-1.348-1.348h-1.375A1.342,1.342,0,0,0-202.708-2321.078Zm-10.891-8.155a8.175,8.175,0,0,0-8.168,8.169,8.175,8.175,0,0,0,8.168,8.168,8.175,8.175,0,0,0,8.168-8.168A8.175,8.175,0,0,0-213.6-2329.233Zm-.014,23.076h.014a1.342,1.342,0,0,0,1.348-1.348v-1.307a1.342,1.342,0,0,0-1.348-1.348h-.014a1.342,1.342,0,0,0-1.348,1.348v1.307A1.342,1.342,0,0,0-213.612-2306.157Zm-10.537-4.371a1.355,1.355,0,0,0,1.919,0l.531-.531a1.351,1.351,0,0,0,0-1.906l-.014-.014a1.356,1.356,0,0,0-1.919,0l-.531.531A1.368,1.368,0,0,0-224.149-2310.528Z" transform="translate(254.572 2361.984)"/></g></g><g transform="translate(1251.275 443.909)"><path class="g" d="M117.744,132.781a15.872,15.872,0,1,1-15.872-15.872,15.872,15.872,0,0,1,15.872,15.872"/><path class="h" d="M146.3,173.719a22.952,22.952,0,0,0-19.995,16.7,14.991,14.991,0,0,0-3.652,1.008,15.74,15.74,0,0,0,5.726,2.15A23.008,23.008,0,0,1,146.855,178.6c.009-.226.013-.452.013-.68A15.867,15.867,0,0,0,146.3,173.719Z" transform="translate(-29.127 -45.141)"/><path class="i" d="M144.2,200.948c0-12.272-10.422-22.221-23.279-22.221-10.909,0-20.039,7.173-22.563,16.841A14.1,14.1,0,0,0,86,209.281c0,7.67,6.514,13.888,14.549,13.888H144.2a11.122,11.122,0,1,0,0-22.221" transform="translate(0 -49.12)"/></g></g><path class="e" d="M1.516-13.685h1.74a4.172,4.172,0,0,1,4.43-4.061,3.8,3.8,0,0,1,4.047,3.757c0,1.674-.672,2.808-3.4,5.656L1.608-1.266V0H14.014V-1.608h-9.9v-.053L9.2-6.974c3.388-3.494,4.324-5.049,4.324-7.106,0-2.9-2.426-5.247-5.84-5.247C4.166-19.327,1.542-16.941,1.516-13.685ZM22.966.3A6.321,6.321,0,0,0,29.65-6.13a6.107,6.107,0,0,0-6.289-6.3,5.5,5.5,0,0,0-4.627,2.188h-.04l.751-7.172H28.5v-1.608H17.956L16.928-8.358h1.622a5.023,5.023,0,0,1,4.522-2.518,4.638,4.638,0,0,1,4.772,4.786,4.646,4.646,0,0,1-4.852,4.8,4.4,4.4,0,0,1-4.641-3.665H16.585C16.822-1.885,19.485.3,22.966.3ZM35.5-11.14A3.747,3.747,0,0,0,39.261-14.9,3.739,3.739,0,0,0,35.5-18.655,3.734,3.734,0,0,0,31.733-14.9,3.734,3.734,0,0,0,35.5-11.14Zm0-1.477A2.268,2.268,0,0,1,33.249-14.9,2.282,2.282,0,0,1,35.5-17.2,2.254,2.254,0,0,1,37.745-14.9,2.24,2.24,0,0,1,35.5-12.617Z" transform="translate(1292 904)"/><path class="e" d="M.337-3.041H.724a.927.927,0,0,1,.984-.9.844.844,0,0,1,.9.835c0,.372-.149.624-.756,1.257L.357-.281V0H3.114V-.357H.914V-.369L2.045-1.55c.753-.776.961-1.122.961-1.579a1.211,1.211,0,0,0-1.3-1.166A1.285,1.285,0,0,0,.337-3.041ZM5.218.067A1.41,1.41,0,0,0,6.686-1.371a1.366,1.366,0,0,0-1.4-1.4,1.287,1.287,0,0,0-1.245.8H4.028c0-1.254.442-1.975,1.216-1.975a.94.94,0,0,1,.961.7h.4A1.307,1.307,0,0,0,5.247-4.295c-1,0-1.605.853-1.605,2.271C3.642-.413,4.488.067,5.218.067Zm0-.357a1.071,1.071,0,0,1-1.072-1.1A1.04,1.04,0,0,1,5.218-2.414,1.027,1.027,0,0,1,6.278-1.359,1.057,1.057,0,0,1,5.215-.29ZM8.057-2.476a.833.833,0,0,0,.835-.835.831.831,0,0,0-.835-.835.83.83,0,0,0-.838.835A.83.83,0,0,0,8.057-2.476Zm0-.328a.5.5,0,0,1-.5-.507.507.507,0,0,1,.5-.513.5.5,0,0,1,.5.513A.5.5,0,0,1,8.057-2.8Z" transform="translate(1206 938)"/><path class="e" d="M.337-3.041H.724a.927.927,0,0,1,.984-.9.844.844,0,0,1,.9.835c0,.372-.149.624-.756,1.257L.357-.281V0H3.114V-.357H.914V-.369L2.045-1.55c.753-.776.961-1.122.961-1.579a1.211,1.211,0,0,0-1.3-1.166A1.285,1.285,0,0,0,.337-3.041ZM5.218.067A1.41,1.41,0,0,0,6.686-1.371a1.366,1.366,0,0,0-1.4-1.4,1.287,1.287,0,0,0-1.245.8H4.028c0-1.254.442-1.975,1.216-1.975a.94.94,0,0,1,.961.7h.4A1.307,1.307,0,0,0,5.247-4.295c-1,0-1.605.853-1.605,2.271C3.642-.413,4.488.067,5.218.067Zm0-.357a1.071,1.071,0,0,1-1.072-1.1A1.04,1.04,0,0,1,5.218-2.414,1.027,1.027,0,0,1,6.278-1.359,1.057,1.057,0,0,1,5.215-.29ZM8.057-2.476a.833.833,0,0,0,.835-.835.831.831,0,0,0-.835-.835.83.83,0,0,0-.838.835A.83.83,0,0,0,8.057-2.476Zm0-.328a.5.5,0,0,1-.5-.507.507.507,0,0,1,.5-.513.5.5,0,0,1,.5.513A.5.5,0,0,1,8.057-2.8Z" transform="translate(1085 935)"/><path class="e" d="M.337-3.041H.724a.927.927,0,0,1,.984-.9.844.844,0,0,1,.9.835c0,.372-.149.624-.756,1.257L.357-.281V0H3.114V-.357H.914V-.369L2.045-1.55c.753-.776.961-1.122.961-1.579a1.211,1.211,0,0,0-1.3-1.166A1.285,1.285,0,0,0,.337-3.041ZM5.566,0h.39V-.955h.63V-1.31h-.63V-4.233H5.37c-.935,1.31-1.488,2.139-1.948,2.912v.366H5.566ZM3.826-1.321c.422-.686.955-1.482,1.734-2.561h.006V-1.31H3.826ZM7.708-2.476a.833.833,0,0,0,.835-.835.831.831,0,0,0-.835-.835.83.83,0,0,0-.838.835A.83.83,0,0,0,7.708-2.476Zm0-.328a.5.5,0,0,1-.5-.507.507.507,0,0,1,.5-.513.5.5,0,0,1,.5.513A.5.5,0,0,1,7.708-2.8Z" transform="translate(1040 940)"/><path class="e" d="M.337-3.041H.724a.927.927,0,0,1,.984-.9.844.844,0,0,1,.9.835c0,.372-.149.624-.756,1.257L.357-.281V0H3.114V-.357H.914V-.369L2.045-1.55c.753-.776.961-1.122.961-1.579a1.211,1.211,0,0,0-1.3-1.166A1.285,1.285,0,0,0,.337-3.041ZM5.165.067c.961,0,1.529-.85,1.529-2.186S6.123-4.295,5.165-4.295s-1.532.853-1.532,2.18S4.2.067,5.165.067Zm0-.352C4.45-.284,4.037-1,4.037-2.118c0-1.1.422-1.822,1.128-1.822s1.128.715,1.128,1.825S5.88-.284,5.165-.284Zm2.9-2.191A.833.833,0,0,0,8.9-3.311a.831.831,0,0,0-.835-.835.83.83,0,0,0-.838.835A.83.83,0,0,0,8.068-2.476Zm0-.328a.5.5,0,0,1-.5-.507.507.507,0,0,1,.5-.513.5.5,0,0,1,.5.513A.5.5,0,0,1,8.068-2.8Z" transform="translate(1157 949)"/><path class="e" d="M1.421,0h.387V-4.228H1.415c-.126.076-1.022.709-1.14.782v.407c.123-.076,1.04-.7,1.134-.762h.012ZM4.828,0h.39V-.955h.63V-1.31h-.63V-4.233H4.632C3.7-2.924,3.144-2.095,2.684-1.321v.366H4.828ZM3.088-1.321c.422-.686.955-1.482,1.734-2.561h.006V-1.31H3.088ZM6.97-2.476A.833.833,0,0,0,7.8-3.311a.831.831,0,0,0-.835-.835.83.83,0,0,0-.838.835A.83.83,0,0,0,6.97-2.476Zm0-.328a.5.5,0,0,1-.5-.507.507.507,0,0,1,.5-.513.5.5,0,0,1,.5.513A.5.5,0,0,1,6.97-2.8Z" transform="translate(1336 963)"/><path class="e" d="M1.421,0h.387V-4.228H1.415c-.126.076-1.022.709-1.14.782v.407c.123-.076,1.04-.7,1.134-.762h.012ZM4.274.067c.891,0,1.506-.507,1.506-1.216a1.125,1.125,0,0,0-.943-1.087v-.009a1,1,0,0,0,.788-.946,1.2,1.2,0,0,0-1.351-1.1,1.207,1.207,0,0,0-1.354,1.1.985.985,0,0,0,.791.946v.009a1.122,1.122,0,0,0-.943,1.087C2.769-.442,3.387.067,4.274.067Zm0-2.464c-.56,0-.955-.316-.955-.762a.847.847,0,0,1,.955-.788c.571,0,.955.334.955.788S4.831-2.4,4.274-2.4Zm0,2.112c-.653,0-1.1-.378-1.1-.888s.451-.867,1.1-.867,1.1.36,1.1.867S4.928-.284,4.274-.284ZM7.163-2.476A.833.833,0,0,0,8-3.311a.831.831,0,0,0-.835-.835.83.83,0,0,0-.838.835A.83.83,0,0,0,7.163-2.476Zm0-.328a.5.5,0,0,1-.5-.507.507.507,0,0,1,.5-.513.5.5,0,0,1,.5.513A.5.5,0,0,1,7.163-2.8Z" transform="translate(1284 953)"/><path class="e" d="M1.421,0h.387V-4.228H1.415c-.126.076-1.022.709-1.14.782v.407c.123-.076,1.04-.7,1.134-.762h.012ZM4.274.067c.891,0,1.506-.507,1.506-1.216a1.125,1.125,0,0,0-.943-1.087v-.009a1,1,0,0,0,.788-.946,1.2,1.2,0,0,0-1.351-1.1,1.207,1.207,0,0,0-1.354,1.1.985.985,0,0,0,.791.946v.009a1.122,1.122,0,0,0-.943,1.087C2.769-.442,3.387.067,4.274.067Zm0-2.464c-.56,0-.955-.316-.955-.762a.847.847,0,0,1,.955-.788c.571,0,.955.334.955.788S4.831-2.4,4.274-2.4Zm0,2.112c-.653,0-1.1-.378-1.1-.888s.451-.867,1.1-.867,1.1.36,1.1.867S4.928-.284,4.274-.284ZM7.163-2.476A.833.833,0,0,0,8-3.311a.831.831,0,0,0-.835-.835.83.83,0,0,0-.838.835A.83.83,0,0,0,7.163-2.476Zm0-.328a.5.5,0,0,1-.5-.507.507.507,0,0,1,.5-.513.5.5,0,0,1,.5.513A.5.5,0,0,1,7.163-2.8Z" transform="translate(1396 945)"/><path class="j" d="M5226.264-653.394l49.929-5.084,71.15,14.061,51.25-8.977,65.054,11.922,64.119,11.7,63.1-18.592v26.553h-364.6Z" transform="translate(-4186 1597)"/></g></svg>