<svg xmlns="http://www.w3.org/2000/svg" xmlns:xlink="http://www.w3.org/1999/xlink" width="446.295" height="111.839" viewBox="0 0 446.295 111.839"><defs><style>.a{fill:#fff;}.b{fill:#333;}.c{fill:#535aff;}.d{fill:#4d4d4d;}.e{fill:none;}.f{filter:url(#a);}</style><filter id="a" x="0" y="0" width="446.295" height="111.839" filterUnits="userSpaceOnUse"><feOffset dy="3" input="SourceAlpha"/><feGaussianBlur stdDeviation="5" result="b"/><feFlood flood-opacity="0.349"/><feComposite operator="in" in2="b"/><feComposite in="SourceGraphic"/></filter></defs><g transform="translate(14.657 12)"><g class="f" transform="matrix(1, 0, 0, 1, -14.66, -12)"><rect class="a" width="416.295" height="81.839" transform="translate(15 12)"/></g><path class="b" d="M9.6-31.235H9.68l2.488,8.952h2.588l3.477-13.1H15.391L13.321-25.9h-.073L10.8-35.385H8.481L6.03-25.9H5.957L3.9-35.385H1.054l3.468,13.1H7.11Zm11.54,9.107a3.348,3.348,0,0,0,2.969-1.643h.054v1.489h2.56v-6.692c0-1.961-1.625-3.25-4.122-3.25-2.579,0-4.186,1.3-4.285,3.187h2.424a1.578,1.578,0,0,1,1.743-1.208c1,0,1.634.527,1.634,1.435v.645l-2.451.145c-2.424.145-3.786,1.171-3.786,2.942A3.01,3.01,0,0,0,21.138-22.129Zm.872-1.916c-.9,0-1.5-.454-1.5-1.18,0-.69.563-1.135,1.553-1.208l2.052-.127v.708A1.944,1.944,0,0,1,22.01-24.045ZM28.2-22.283h8.035v-2.034H31.57v-.045l4.558-5.974v-1.68H28.275v2.025H33.05v.054L28.2-23.79Zm15.844-2.978a1.938,1.938,0,0,1-1.961,1.226,2.165,2.165,0,0,1-2.234-2.342v-.163h6.71v-.808c0-2.96-1.789-4.876-4.621-4.876-2.878,0-4.694,2.016-4.694,5.121s1.8,5.03,4.794,5.03c2.406,0,4.149-1.28,4.44-3.187Zm-2.079-5a2.02,2.02,0,0,1,2.043,2.1H39.878A2.107,2.107,0,0,1,41.966-30.264Z" transform="translate(107.71 56.61)"/><path d="M3.977-19.5V-30.962H2.9V-19.5Zm2.5-10.328v2.066H5.248v.874H6.48v5.355c0,1.494.556,2.081,1.938,2.081A6.564,6.564,0,0,0,9.2-19.5v-.9c-.064.016-.461.032-.572.032-.763,0-1.1-.365-1.1-1.216v-5.307H9.157v-.874H7.528v-2.066Zm5.029,2.685,1-3.821h-1.12l-.763,3.821Zm1.486,1.589c0,1.144.739,1.835,2.312,2.2l1.239.294c1.112.27,1.517.667,1.517,1.382,0,.866-.818,1.446-2.058,1.446a1.966,1.966,0,0,1-2.2-1.637H12.756c.143,1.509,1.382,2.5,3.249,2.5,1.8,0,3.114-.993,3.114-2.391,0-1.168-.62-1.8-2.272-2.2L15.6-24.249c-1.1-.262-1.565-.683-1.565-1.359,0-.826.771-1.422,1.9-1.422a1.858,1.858,0,0,1,2.026,1.66h1.009A2.75,2.75,0,0,0,15.934-27.9C14.21-27.9,12.994-26.918,12.994-25.551Zm11.313-4.274v2.066H23.076v.874h1.231v5.355c0,1.494.556,2.081,1.938,2.081a6.564,6.564,0,0,0,.779-.048v-.9c-.064.016-.461.032-.572.032-.763,0-1.1-.365-1.1-1.216v-5.307h1.629v-.874H25.356v-2.066Zm4.767.35a.7.7,0,0,0,.707-.7.7.7,0,0,0-.707-.7.7.7,0,0,0-.7.7A.7.7,0,0,0,29.074-29.476ZM28.549-19.5H29.6V-27.76H28.549Zm2.932,0H32.53v-5.077a2.16,2.16,0,0,1,2.089-2.383A1.815,1.815,0,0,1,36.51-25V-19.5h1.057v-5.2a2.074,2.074,0,0,1,2.066-2.256,1.826,1.826,0,0,1,1.915,2.05v5.41H42.6v-5.649A2.545,2.545,0,0,0,39.926-27.9a2.72,2.72,0,0,0-2.606,1.74H37.3a2.384,2.384,0,0,0-2.391-1.74,2.471,2.471,0,0,0-2.407,1.66h-.024V-27.76h-.993Zm18.59-2.344a2.237,2.237,0,0,1-2.344,1.557c-1.645,0-2.7-1.16-2.7-3.027v-.064h6.189v-.445c0-2.463-1.382-4.076-3.575-4.076-2.24,0-3.694,1.724-3.694,4.29,0,2.622,1.438,4.242,3.758,4.242a3.221,3.221,0,0,0,3.408-2.479Zm-2.447-5.132a2.536,2.536,0,0,1,2.51,2.765h-5.1A2.643,2.643,0,0,1,47.624-26.974ZM56.4-29.826v2.066H55.171v.874H56.4v5.355c0,1.494.556,2.081,1.938,2.081a6.564,6.564,0,0,0,.779-.048v-.9c-.064.016-.461.032-.572.032-.763,0-1.1-.365-1.1-1.216v-5.307H59.08v-.874H57.452v-2.066ZM63.64-19.363c2.248,0,3.766-1.645,3.766-4.266S65.889-27.9,63.64-27.9s-3.766,1.637-3.766,4.266S61.392-19.363,63.64-19.363Zm0-.93c-1.621,0-2.693-1.239-2.693-3.337s1.073-3.337,2.693-3.337,2.7,1.239,2.7,3.337S65.261-20.292,63.64-20.292ZM72.2-19.5h1.057V-24.36a2.378,2.378,0,0,1,2.447-2.6,2.061,2.061,0,0,1,2.2,2.3V-19.5h1.057v-5.339A2.814,2.814,0,0,0,76.01-27.9a2.785,2.785,0,0,0-2.725,1.66h-.024v-4.727H72.2Zm9.12-9.978a.7.7,0,0,0,.707-.7.7.7,0,0,0-.707-.7.7.7,0,0,0-.7.7A.7.7,0,0,0,81.325-29.476ZM80.8-19.5h1.049V-27.76H80.8Zm3.384-10.328v2.066H82.953v.874h1.231v5.355c0,1.494.556,2.081,1.938,2.081A6.564,6.564,0,0,0,86.9-19.5v-.9c-.064.016-.461.032-.572.032-.763,0-1.1-.365-1.1-1.216v-5.307h1.629v-.874H85.233v-2.066Zm7.952,0v2.066H90.906v.874h1.231v5.355c0,1.494.556,2.081,1.938,2.081a6.564,6.564,0,0,0,.779-.048v-.9c-.064.016-.461.032-.572.032-.763,0-1.1-.365-1.1-1.216v-5.307h1.629v-.874H93.186v-2.066ZM96.38-19.5h1.057V-24.36a2.378,2.378,0,0,1,2.447-2.6,2.061,2.061,0,0,1,2.2,2.3V-19.5h1.057v-5.339a2.814,2.814,0,0,0-2.955-3.059,2.785,2.785,0,0,0-2.725,1.66h-.024v-4.727H96.38Zm14.237-2.344a2.237,2.237,0,0,1-2.344,1.557c-1.645,0-2.7-1.16-2.7-3.027v-.064h6.189v-.445c0-2.463-1.382-4.076-3.575-4.076-2.24,0-3.694,1.724-3.694,4.29,0,2.622,1.438,4.242,3.758,4.242a3.221,3.221,0,0,0,3.408-2.479Zm-2.447-5.132a2.536,2.536,0,0,1,2.51,2.765h-5.1A2.643,2.643,0,0,1,108.169-26.974ZM116.5-19.5h1.049v-5.148a1.982,1.982,0,0,1,1.923-2.248,2.127,2.127,0,0,1,.787.119v-1.033a2.726,2.726,0,0,0-.651-.087,2.1,2.1,0,0,0-2.089,1.6h-.024v-1.47H116.5Zm7.77.135c2.248,0,3.766-1.645,3.766-4.266s-1.517-4.266-3.766-4.266-3.766,1.637-3.766,4.266S122.017-19.363,124.265-19.363Zm0-.93c-1.621,0-2.693-1.239-2.693-3.337s1.073-3.337,2.693-3.337,2.7,1.239,2.7,3.337S125.886-20.292,124.265-20.292Zm7.611.93a3.078,3.078,0,0,0,2.82-1.708h.024V-19.5h1v-5.656c0-1.684-1.184-2.741-3.067-2.741s-3.1,1.049-3.218,2.526h1.017a1.974,1.974,0,0,1,2.177-1.6,1.814,1.814,0,0,1,2.042,1.907v.715l-2.574.159c-1.907.127-2.963.985-2.963,2.4A2.465,2.465,0,0,0,131.876-19.363Zm.215-.906c-1.12,0-1.891-.62-1.891-1.517,0-.914.723-1.478,2.026-1.565l2.447-.167v.914A2.442,2.442,0,0,1,132.09-20.268Zm8.517.906a3.043,3.043,0,0,0,2.86-1.883h.024V-19.5h1V-30.962h-1.057v4.9h-.024a2.986,2.986,0,0,0-2.828-1.835c-2.074,0-3.511,1.692-3.511,4.266S138.517-19.363,140.607-19.363Zm.183-7.6c1.573,0,2.653,1.343,2.653,3.337s-1.08,3.337-2.653,3.337c-1.589,0-2.638-1.319-2.638-3.337S139.2-26.966,140.789-26.966Zm6.236-4,.072,7.841h.961l.064-7.841Zm.548,11.535a.734.734,0,0,0,.747-.739.736.736,0,0,0-.747-.747.734.734,0,0,0-.739.747A.732.732,0,0,0,147.574-19.426Z" transform="translate(106.55 78.741)"/><rect class="c" width="81.933" height="81.839" transform="translate(0 0)"/><path class="d" d="M.393,0H.66V-2.123A1.149,1.149,0,0,1,1.818-3.37a1.021,1.021,0,0,1,1.094,1.1V0h.267V-2.3a1.22,1.22,0,0,0-1.3-1.306,1.242,1.242,0,0,0-1.23.827H.643v-.772H.393ZM5.7.055A1.616,1.616,0,0,0,7.285-1.777,1.616,1.616,0,0,0,5.7-3.609,1.613,1.613,0,0,0,4.117-1.777,1.613,1.613,0,0,0,5.7.055Zm0-.239c-.79,0-1.316-.6-1.316-1.593S4.91-3.37,5.7-3.37s1.319.6,1.319,1.593S6.489-.185,5.7-.185Zm6.854-3.37h-.28L11.364-.294h-.01l-.988-3.261h-.3L9.074-.294H9.067L8.155-3.555H7.878L8.91,0h.314l.984-3.213h.01L11.21,0h.308Z" transform="translate(382.943 25.297)"/><path class="e" d="M-228.994-3102.6h29.4v29.4h-29.4Z" transform="translate(254.494 3128.822)"/><g transform="translate(25.773 27.241)"><path class="b" d="M-211.1-3098.248c7.178,0,13.569,6.41,11.1,13.927a11.178,11.178,0,0,1-6.586,6.531,16.515,16.515,0,0,1-5.62.736l-.808,0h-.558c-4.115,0-9.8-.5-13.085-4.865,4.5,0,3.616-5.035,4.2-8.021.888-4.551,5.39-7.61,9.757-8.2a12.044,12.044,0,0,1,1.606-.108m0-1.593a13.817,13.817,0,0,0-1.82.121,14.538,14.538,0,0,0-6.958,2.944,11.021,11.021,0,0,0-4.151,6.531,20.806,20.806,0,0,0-.269,2.375,10.713,10.713,0,0,1-.591,3.394c-.273.578-.678.963-1.776.963a1.593,1.593,0,0,0-1.425.882,1.593,1.593,0,0,0,.153,1.67c3.716,4.928,9.973,5.5,14.357,5.5h1.366a17.686,17.686,0,0,0,6.177-.836,13.34,13.34,0,0,0,4.522-2.867,11.56,11.56,0,0,0,3.02-4.659,11.7,11.7,0,0,0,.465-5.656,11.471,11.471,0,0,0-2.053-4.844,13.279,13.279,0,0,0-4.772-4.025,13.948,13.948,0,0,0-6.247-1.492" transform="translate(228.255 3099.841)"/><path class="b" d="M-192.662-3076.706a1.53,1.53,0,0,1-1.53,1.531,1.531,1.531,0,0,1-1.53-1.531,1.529,1.529,0,0,1,1.53-1.529,1.529,1.529,0,0,1,1.53,1.529" transform="translate(207.769 3086.235)"/><path class="b" d="M-173.358-3076.706a1.53,1.53,0,0,1-1.53,1.531,1.531,1.531,0,0,1-1.53-1.531,1.53,1.53,0,0,1,1.53-1.529,1.529,1.529,0,0,1,1.53,1.529" transform="translate(195.612 3086.235)"/><path class="b" d="M-191.219-3060.233a5.349,5.349,0,0,1-5.356-3.924.8.8,0,0,1,.631-.933.8.8,0,0,1,.933.632,3.794,3.794,0,0,0,3.905,2.631,3.931,3.931,0,0,0,3.906-2.612.8.8,0,0,1,.958-.593.8.8,0,0,1,.593.958,4.71,4.71,0,0,1-1.858,2.673,6.258,6.258,0,0,1-3.557,1.167h-.156" transform="translate(208.314 3077.966)"/><path class="b" d="M-211.39-3039.862a3.158,3.158,0,0,1,3.159-3.159,3.159,3.159,0,0,1,3.159,3.159,3.159,3.159,0,0,1-3.159,3.158,3.158,3.158,0,0,1-3.159-3.158" transform="translate(217.635 3064.059)"/><path class="b" d="M-205.676-3036.262a1.042,1.042,0,0,1,1.042-1.043,1.042,1.042,0,0,1,1.042,1.043,1.042,1.042,0,0,1-1.042,1.042,1.042,1.042,0,0,1-1.042-1.042" transform="translate(214.036 3060.46)"/><path class="b" d="M-181.779-3039.862a3.159,3.159,0,0,1,3.159-3.159,3.159,3.159,0,0,1,3.159,3.159,3.159,3.159,0,0,1-3.159,3.158,3.159,3.159,0,0,1-3.159-3.158" transform="translate(198.987 3064.059)"/><path class="b" d="M-176.062-3036.262a1.042,1.042,0,0,1,1.042-1.043,1.042,1.042,0,0,1,1.042,1.043,1.041,1.041,0,0,1-1.042,1.042,1.042,1.042,0,0,1-1.042-1.042" transform="translate(195.387 3060.46)"/></g></g></svg>