<svg xmlns="http://www.w3.org/2000/svg" xmlns:xlink="http://www.w3.org/1999/xlink" width="453.3" height="305.2" viewBox="0 0 453.3 305.2"><defs><style>.a{fill:#fff;stroke:#535aff;stroke-miterlimit:10;stroke-width:7px;}.b{opacity:0.074;}.c,.p{fill:#535aff;}.d{fill:none;}.e,.g,.h{fill:#333;}.f{fill:#4d4d4d;}.g{fill-rule:evenodd;}.i{fill:#ea4335;}.j{fill:#fbbc05;}.k{fill:#4285f4;}.l{fill:#34a853;}.m{fill:#e4e3ff;}.n{fill:#4b4b4b;}.o,.p{stroke:none;}.q{filter:url(#a);}</style><filter id="a" x="0" y="0" width="453.3" height="305.2" filterUnits="userSpaceOnUse"><feOffset dy="3" input="SourceAlpha"/><feGaussianBlur stdDeviation="5" result="b"/><feFlood flood-opacity="0.161"/><feComposite operator="in" in2="b"/><feComposite in="SourceGraphic"/></filter></defs><g transform="translate(-993.5 -426.5)"><g transform="translate(994.343 427)"><g transform="translate(-12.043 -9)"><g class="q" transform="matrix(1, 0, 0, 1, 11.2, 8.5)"><rect class="a" width="416.3" height="268.2" transform="translate(18.5 15.5)"/></g></g><g class="b" transform="translate(5.758 15.343)"><rect class="c" width="388.8" height="30.7" transform="translate(26.9 101.9)"/><path class="c" d="M26.9,109.516,415.7,106.3V250.8H26.9Z"/></g><path class="d" d="M-3067.115-2414.092h29.4v29.4h-29.4Z" transform="translate(3124.713 2586.291)"/><g transform="translate(17.872 13.72)"><path class="e" d="M13.96-28.928v-1.48H8.44v2h2.851l-.009.209a2.829,2.829,0,0,1-3.087,2.724c-2.179,0-3.559-1.734-3.559-4.576,0-2.787,1.3-4.431,3.459-4.431a2.957,2.957,0,0,1,3,2.188h2.751c-.39-2.651-2.7-4.458-5.756-4.458-3.85,0-6.247,2.542-6.247,6.737,0,4.258,2.4,6.81,6.31,6.81C11.8-23.208,13.96-25.36,13.96-28.928Zm1.766,5.5h2.651V-29.3a1.692,1.692,0,0,1,1.689-1.852,1.486,1.486,0,0,1,1.571,1.662v6.065h2.551v-5.911a1.653,1.653,0,0,1,1.671-1.816c1.026,0,1.589.617,1.589,1.743v5.983H30.1v-6.646a3.053,3.053,0,0,0-3.187-3.269,3.083,3.083,0,0,0-3.023,2h-.054a2.586,2.586,0,0,0-2.715-2A2.857,2.857,0,0,0,18.341-31.4h-.054v-1.761h-2.56Zm19.126.154a3.348,3.348,0,0,0,2.969-1.643h.054v1.489h2.56v-6.692c0-1.961-1.625-3.25-4.122-3.25-2.579,0-4.186,1.3-4.285,3.187h2.424A1.578,1.578,0,0,1,36.2-31.389c1,0,1.634.527,1.634,1.435v.645l-2.451.145c-2.424.145-3.786,1.171-3.786,2.942A3.01,3.01,0,0,0,34.852-23.271Zm.872-1.916c-.9,0-1.5-.454-1.5-1.18,0-.69.563-1.135,1.553-1.208L37.83-27.7v.708A1.944,1.944,0,0,1,35.723-25.187Zm7.967-9.288a1.37,1.37,0,0,0,1.38-1.362A1.364,1.364,0,0,0,43.69-37.2a1.364,1.364,0,0,0-1.38,1.362A1.37,1.37,0,0,0,43.69-34.476Zm-1.317,11.05h2.651v-9.733H42.374Zm4.662,0h2.651v-13.1H47.036ZM53.387-29.8a1.461,1.461,0,0,0,1.462-1.462,1.455,1.455,0,0,0-1.462-1.462,1.449,1.449,0,0,0-1.462,1.462A1.455,1.455,0,0,0,53.387-29.8Zm0,6.483a1.461,1.461,0,0,0,1.462-1.462,1.455,1.455,0,0,0-1.462-1.462,1.449,1.449,0,0,0-1.462,1.462A1.455,1.455,0,0,0,53.387-23.317Zm7.218-3.85c.082,2.47,2.161,3.959,5.284,3.959,3.278,0,5.284-1.616,5.284-4.177,0-1.988-1.208-3.105-3.977-3.659l-1.389-.281c-1.544-.309-2.179-.808-2.179-1.616,0-.962.908-1.6,2.261-1.6,1.38,0,2.352.672,2.442,1.789h2.588c-.045-2.406-1.97-4-5.03-4-2.915,0-5,1.589-5,3.986,0,1.952,1.28,3.205,3.9,3.723l1.38.272c1.643.336,2.261.826,2.261,1.689,0,.962-1,1.671-2.461,1.671-1.489,0-2.6-.654-2.769-1.752Zm18.644.763a1.938,1.938,0,0,1-1.961,1.226,2.165,2.165,0,0,1-2.234-2.343v-.163h6.71v-.808c0-2.96-1.789-4.876-4.621-4.876-2.878,0-4.694,2.016-4.694,5.121s1.8,5.03,4.794,5.03c2.406,0,4.149-1.28,4.44-3.187Zm-2.079-5a2.02,2.02,0,0,1,2.043,2.1H75.082A2.107,2.107,0,0,1,77.17-31.407Zm14.985,1.87c-.118-2.206-1.789-3.832-4.422-3.832-2.915,0-4.776,1.943-4.776,5.066,0,3.178,1.861,5.084,4.794,5.084,2.56,0,4.276-1.48,4.413-3.777h-2.47a1.831,1.831,0,0,1-1.916,1.7c-1.317,0-2.134-1.09-2.134-3.005,0-1.879.817-2.987,2.125-2.987a1.887,1.887,0,0,1,1.925,1.752Zm10.464-3.623H99.968v5.575a1.9,1.9,0,0,1-1.916,2.134c-1.171,0-1.816-.69-1.816-1.988v-5.72H93.585v6.274a3.332,3.332,0,0,0,3.5,3.641A2.892,2.892,0,0,0,100-25.178h.054v1.752h2.56Zm1.911,9.733h2.651v-5.439a1.939,1.939,0,0,1,2.07-2.17,2.729,2.729,0,0,1,.962.154v-2.333a2.7,2.7,0,0,0-.754-.1,2.323,2.323,0,0,0-2.315,1.907h-.054v-1.752h-2.56Zm8.312-11.05a1.37,1.37,0,0,0,1.38-1.362,1.364,1.364,0,0,0-1.38-1.362,1.364,1.364,0,0,0-1.38,1.362A1.37,1.37,0,0,0,112.842-34.476Zm-1.317,11.05h2.651v-9.733h-2.651ZM116.832-35.4v2.243h-1.371v2h1.371v5.112c0,1.9.89,2.66,3.178,2.66a6.1,6.1,0,0,0,1.262-.109v-1.952a4.291,4.291,0,0,1-.645.045c-.781,0-1.144-.354-1.144-1.1v-4.658h1.8v-2h-1.8V-35.4Zm7.341,15.58c2.479,0,3.7-.9,4.531-3.4l3.35-9.942h-2.8L127.2-25.55h-.054l-2.07-7.609h-2.905l3.387,9.733c.009.045-.091.427-.091.472-.182.772-.663,1.08-1.625,1.08-.1,0-.581-.009-.672-.027v2.052C123.256-19.83,124.073-19.821,124.173-19.821Zm21.709-3.6H148.8l-4.558-13.1h-3.223l-4.549,13.1h2.815l1-3.178h4.6Zm-3.332-10.6h.064l1.68,5.366H140.87Zm7.6,10.6H152.8v-13.1h-2.651ZM161.225-26.4a1.938,1.938,0,0,1-1.961,1.226,2.165,2.165,0,0,1-2.234-2.343v-.163h6.71v-.808c0-2.96-1.789-4.876-4.621-4.876-2.878,0-4.694,2.016-4.694,5.121s1.8,5.03,4.794,5.03c2.406,0,4.149-1.28,4.44-3.187Zm-2.079-5a2.02,2.02,0,0,1,2.043,2.1h-4.131A2.107,2.107,0,0,1,159.146-31.407Zm6.142,7.981h2.651v-5.439a1.939,1.939,0,0,1,2.07-2.17,2.729,2.729,0,0,1,.962.154v-2.333a2.7,2.7,0,0,0-.754-.1,2.323,2.323,0,0,0-2.315,1.907h-.054v-1.752h-2.56ZM172.947-35.4v2.243h-1.371v2h1.371v5.112c0,1.9.89,2.66,3.178,2.66a6.1,6.1,0,0,0,1.262-.109v-1.952a4.291,4.291,0,0,1-.645.045c-.781,0-1.144-.354-1.144-1.1v-4.658h1.8v-2h-1.8V-35.4Zm6.8-1.126.218,8.789h2.288l.218-8.789ZM181.113-23.2a1.44,1.44,0,0,0,1.48-1.425,1.44,1.44,0,0,0-1.48-1.425,1.44,1.44,0,0,0-1.48,1.425A1.44,1.44,0,0,0,181.113-23.2Z" transform="translate(107.215 57.753)"/><path d="M7.927-29.143h.064l2.82,9.6h1L14.974-31H13.838l-2.518,9.8h-.056L8.5-31H7.419l-2.773,9.8H4.6L2.072-31H.944L4.1-19.538H5.107Zm13.3,7.261a2.237,2.237,0,0,1-2.344,1.557c-1.645,0-2.7-1.16-2.7-3.027v-.064h6.189v-.445c0-2.463-1.382-4.076-3.575-4.076-2.24,0-3.694,1.724-3.694,4.29,0,2.622,1.438,4.242,3.758,4.242a3.221,3.221,0,0,0,3.408-2.479Zm-2.447-5.132a2.536,2.536,0,0,1,2.51,2.765h-5.1A2.643,2.643,0,0,1,18.783-27.014Zm8.723,7.476h1.057V-24.4A2.378,2.378,0,0,1,31.01-27a2.061,2.061,0,0,1,2.2,2.3v5.164h1.057v-5.339a2.814,2.814,0,0,0-2.955-3.059,2.785,2.785,0,0,0-2.725,1.66h-.024V-31H27.506ZM38.64-19.4a3.078,3.078,0,0,0,2.82-1.708h.024v1.573h1v-5.656c0-1.684-1.184-2.741-3.067-2.741s-3.1,1.049-3.218,2.526h1.017a1.974,1.974,0,0,1,2.177-1.6A1.814,1.814,0,0,1,41.437-25.1v.715l-2.574.159c-1.907.127-2.963.985-2.963,2.4A2.465,2.465,0,0,0,38.64-19.4Zm.215-.906c-1.12,0-1.891-.62-1.891-1.517,0-.914.723-1.478,2.026-1.565l2.447-.167v.914A2.442,2.442,0,0,1,38.855-20.309ZM50.894-27.8H49.8L47.28-20.643h-.024L44.745-27.8H43.633l3.075,8.262h1.12Zm6.741,5.919a2.237,2.237,0,0,1-2.344,1.557c-1.645,0-2.7-1.16-2.7-3.027v-.064h6.189v-.445c0-2.463-1.382-4.076-3.575-4.076-2.24,0-3.694,1.724-3.694,4.29,0,2.622,1.438,4.242,3.758,4.242a3.221,3.221,0,0,0,3.408-2.479Zm-2.447-5.132a2.536,2.536,0,0,1,2.51,2.765H52.6A2.643,2.643,0,0,1,55.188-27.014Zm9.247-2.5a.7.7,0,0,0,.707-.7.7.7,0,0,0-.707-.7.7.7,0,0,0-.7.7A.7.7,0,0,0,64.435-29.517Zm-.524,9.978H64.96V-27.8H63.911Zm6.216.135a3.043,3.043,0,0,0,2.86-1.883h.024v1.748h1V-31H72.956v4.9h-.024A2.986,2.986,0,0,0,70.1-27.936c-2.074,0-3.511,1.692-3.511,4.266S68.038-19.4,70.127-19.4Zm.183-7.6c1.573,0,2.653,1.343,2.653,3.337s-1.08,3.337-2.653,3.337c-1.589,0-2.638-1.319-2.638-3.337S68.721-27.006,70.31-27.006Zm11.46,5.124a2.237,2.237,0,0,1-2.344,1.557c-1.645,0-2.7-1.16-2.7-3.027v-.064h6.189v-.445c0-2.463-1.382-4.076-3.575-4.076-2.24,0-3.694,1.724-3.694,4.29,0,2.622,1.438,4.242,3.758,4.242a3.221,3.221,0,0,0,3.408-2.479Zm-2.447-5.132a2.536,2.536,0,0,1,2.51,2.765h-5.1A2.643,2.643,0,0,1,79.323-27.014Zm5.16,7.476h1.049v-4.894A2.352,2.352,0,0,1,87.923-27,2.026,2.026,0,0,1,90.1-24.726v5.188h1.049v-5.355a2.766,2.766,0,0,0-2.924-3.043,2.793,2.793,0,0,0-2.725,1.66h-.024V-27.8h-.993Zm9.053-10.328V-27.8H92.3v.874h1.231v5.355c0,1.494.556,2.081,1.938,2.081a6.563,6.563,0,0,0,.779-.048v-.9c-.064.016-.461.032-.572.032-.763,0-1.1-.365-1.1-1.216v-5.307h1.629V-27.8H94.584v-2.066Zm4.929.35a.7.7,0,0,0,.707-.7.7.7,0,0,0-.707-.7.7.7,0,0,0-.7.7A.7.7,0,0,0,98.465-29.517Zm-.524,9.978h1.049V-27.8H97.94Zm3.515,0h1.057v-7.388h1.772V-27.8H102.5v-1.025c0-.922.421-1.327,1.216-1.327a3.421,3.421,0,0,1,.612.056v-.866a4.727,4.727,0,0,0-.763-.064,1.89,1.89,0,0,0-2.113,2.177V-27.8H100.3v.874h1.152Zm4.953-9.978a.7.7,0,0,0,.707-.7.7.7,0,0,0-.707-.7.7.7,0,0,0-.7.7A.7.7,0,0,0,106.409-29.517Zm-.524,9.978h1.049V-27.8h-1.049Zm8.806-2.344a2.237,2.237,0,0,1-2.344,1.557c-1.645,0-2.7-1.16-2.7-3.027v-.064h6.189v-.445c0-2.463-1.382-4.076-3.575-4.076-2.24,0-3.694,1.724-3.694,4.29,0,2.622,1.438,4.242,3.758,4.242a3.221,3.221,0,0,0,3.408-2.479Zm-2.447-5.132a2.536,2.536,0,0,1,2.51,2.765h-5.1A2.643,2.643,0,0,1,112.244-27.014Zm8.282,7.611a3.043,3.043,0,0,0,2.86-1.883h.024v1.748h1V-31h-1.057v4.9h-.024a2.986,2.986,0,0,0-2.828-1.835c-2.074,0-3.511,1.692-3.511,4.266S118.437-19.4,120.526-19.4Zm.183-7.6c1.573,0,2.653,1.343,2.653,3.337s-1.08,3.337-2.653,3.337c-1.589,0-2.638-1.319-2.638-3.337S119.12-27.006,120.709-27.006Zm11.686,7.6a3.078,3.078,0,0,0,2.82-1.708h.024v1.573h1v-5.656c0-1.684-1.184-2.741-3.067-2.741s-3.1,1.049-3.218,2.526h1.017a1.974,1.974,0,0,1,2.177-1.6,1.814,1.814,0,0,1,2.042,1.907v.715l-2.574.159c-1.907.127-2.963.985-2.963,2.4A2.465,2.465,0,0,0,132.395-19.4Zm.214-.906c-1.12,0-1.891-.62-1.891-1.517,0-.914.723-1.478,2.026-1.565l2.447-.167v.914A2.442,2.442,0,0,1,132.609-20.309Zm9.048.771h1.049v-4.894A2.352,2.352,0,0,1,145.1-27a2.026,2.026,0,0,1,2.177,2.272v5.188h1.049v-5.355a2.766,2.766,0,0,0-2.924-3.043,2.793,2.793,0,0,0-2.725,1.66h-.024V-27.8h-.993Zm14.312-2.344a2.237,2.237,0,0,1-2.344,1.557c-1.645,0-2.7-1.16-2.7-3.027v-.064h6.189v-.445c0-2.463-1.382-4.076-3.575-4.076-2.24,0-3.694,1.724-3.694,4.29,0,2.622,1.438,4.242,3.758,4.242a3.221,3.221,0,0,0,3.408-2.479Zm-2.447-5.132a2.536,2.536,0,0,1,2.51,2.765h-5.1A2.643,2.643,0,0,1,153.523-27.014Zm15.456-.787h-1.057l-1.851,7.087h-.024L163.99-27.8h-1.065l-2.058,7.087h-.024L158.992-27.8h-1.065l2.352,8.262h1.112l2.05-6.856h.024l2.058,6.856h1.112Zm10.431,5.919a2.237,2.237,0,0,1-2.344,1.557c-1.645,0-2.7-1.16-2.7-3.027v-.064h6.189v-.445c0-2.463-1.382-4.076-3.575-4.076-2.24,0-3.694,1.724-3.694,4.29,0,2.622,1.438,4.242,3.758,4.242a3.221,3.221,0,0,0,3.408-2.479Zm-2.447-5.132a2.536,2.536,0,0,1,2.51,2.765h-5.1A2.643,2.643,0,0,1,176.963-27.014Zm5.16,7.476h1.049v-4.894A2.352,2.352,0,0,1,185.562-27a2.026,2.026,0,0,1,2.177,2.272v5.188h1.049v-5.355a2.766,2.766,0,0,0-2.924-3.043,2.793,2.793,0,0,0-2.725,1.66h-.024V-27.8h-.993Zm9.053-10.328V-27.8h-1.231v.874h1.231v5.355c0,1.494.556,2.081,1.938,2.081a6.563,6.563,0,0,0,.779-.048v-.9c-.064.016-.461.032-.572.032-.763,0-1.1-.365-1.1-1.216v-5.307h1.629V-27.8h-1.629v-2.066Zm4.334,10.328h1.049v-5.148a1.982,1.982,0,0,1,1.923-2.248,2.126,2.126,0,0,1,.786.119v-1.033a2.726,2.726,0,0,0-.651-.087,2.1,2.1,0,0,0-2.089,1.6H196.5V-27.8h-.993Zm5.644,2.987c1.351,0,1.946-.54,2.669-2.487l3.249-8.763h-1.112l-2.51,7.214h-.024l-2.51-7.214h-1.128l3.09,8.318-.215.62c-.365,1.033-.779,1.414-1.541,1.414a2.3,2.3,0,0,1-.493-.048v.9A3.285,3.285,0,0,0,201.153-16.551Zm11.035-2.987h1.057v-7.388h1.772V-27.8h-1.78v-1.025c0-.922.421-1.327,1.216-1.327a3.421,3.421,0,0,1,.612.056v-.866a4.727,4.727,0,0,0-.763-.064,1.89,1.89,0,0,0-2.113,2.177V-27.8h-1.152v.874h1.152Zm4.357,0h1.049v-5.148a1.982,1.982,0,0,1,1.923-2.248,2.126,2.126,0,0,1,.786.119v-1.033a2.726,2.726,0,0,0-.651-.087,2.1,2.1,0,0,0-2.089,1.6h-.024V-27.8h-.993Zm7.932.135c2.248,0,3.766-1.645,3.766-4.266s-1.517-4.266-3.766-4.266-3.766,1.637-3.766,4.266S222.229-19.4,224.477-19.4Zm0-.93c-1.621,0-2.693-1.239-2.693-3.337s1.072-3.337,2.693-3.337,2.7,1.239,2.7,3.337S226.1-20.333,224.477-20.333Zm5.327.794h1.049v-5.077A2.16,2.16,0,0,1,232.942-27a1.815,1.815,0,0,1,1.891,1.954v5.506h1.057v-5.2A2.074,2.074,0,0,1,237.955-27a1.826,1.826,0,0,1,1.915,2.05v5.41h1.049v-5.649a2.545,2.545,0,0,0-2.669-2.749,2.72,2.72,0,0,0-2.606,1.74h-.024a2.384,2.384,0,0,0-2.391-1.74,2.471,2.471,0,0,0-2.407,1.66H230.8V-27.8H229.8Zm17.128,2.987c1.351,0,1.946-.54,2.669-2.487l3.249-8.763h-1.112l-2.51,7.214H249.2l-2.51-7.214h-1.128l3.09,8.318-.214.62c-.365,1.033-.779,1.414-1.541,1.414a2.3,2.3,0,0,1-.493-.048v.9A3.285,3.285,0,0,0,246.932-16.551ZM257.24-19.4c2.248,0,3.766-1.645,3.766-4.266s-1.517-4.266-3.766-4.266-3.766,1.637-3.766,4.266S254.992-19.4,257.24-19.4Zm0-.93c-1.621,0-2.693-1.239-2.693-3.337s1.072-3.337,2.693-3.337,2.7,1.239,2.7,3.337S258.861-20.333,257.24-20.333ZM269.192-27.8h-1.049v4.9a2.345,2.345,0,0,1-2.407,2.558,2.007,2.007,0,0,1-2.161-2.272V-27.8h-1.057v5.37a2.763,2.763,0,0,0,2.916,3.027,2.837,2.837,0,0,0,2.741-1.668h.024v1.533h.993Zm1.974,8.262h1.049v-5.148a1.982,1.982,0,0,1,1.923-2.248,2.126,2.126,0,0,1,.786.119v-1.033a2.726,2.726,0,0,0-.651-.087,2.1,2.1,0,0,0-2.089,1.6h-.024V-27.8h-.993ZM3.947-2.27a3.078,3.078,0,0,0,2.82-1.708h.024v1.573h1V-8.062c0-1.684-1.184-2.741-3.067-2.741s-3.1,1.049-3.218,2.526H2.525A1.974,1.974,0,0,1,4.7-9.873,1.814,1.814,0,0,1,6.744-7.967v.715L4.17-7.093c-1.907.127-2.963.985-2.963,2.4A2.465,2.465,0,0,0,3.947-2.27Zm.215-.906c-1.12,0-1.891-.62-1.891-1.517,0-.914.723-1.478,2.026-1.565l2.447-.167v.914A2.442,2.442,0,0,1,4.162-3.176ZM16.44-8.054a3.251,3.251,0,0,0-3.4-2.749c-2.248,0-3.734,1.66-3.734,4.266,0,2.646,1.486,4.266,3.742,4.266a3.225,3.225,0,0,0,3.4-2.693H15.407A2.24,2.24,0,0,1,13.055-3.2c-1.613,0-2.677-1.263-2.677-3.337,0-2.042,1.057-3.337,2.669-3.337a2.289,2.289,0,0,1,2.36,1.819Zm8.2,0a3.251,3.251,0,0,0-3.4-2.749c-2.248,0-3.734,1.66-3.734,4.266,0,2.646,1.486,4.266,3.742,4.266a3.225,3.225,0,0,0,3.4-2.693H23.609A2.24,2.24,0,0,1,21.258-3.2c-1.613,0-2.677-1.263-2.677-3.337,0-2.042,1.057-3.337,2.669-3.337a2.289,2.289,0,0,1,2.36,1.819ZM29.476-2.27c2.248,0,3.766-1.645,3.766-4.266S31.725-10.8,29.476-10.8s-3.766,1.637-3.766,4.266S27.228-2.27,29.476-2.27Zm0-.93c-1.621,0-2.693-1.239-2.693-3.337s1.073-3.337,2.693-3.337,2.7,1.239,2.7,3.337S31.1-3.2,29.476-3.2Zm11.952-7.468H40.38v4.9a2.344,2.344,0,0,1-2.407,2.558A2.007,2.007,0,0,1,35.812-5.48v-5.188H34.755V-5.3A2.763,2.763,0,0,0,37.671-2.27a2.837,2.837,0,0,0,2.741-1.668h.024v1.533h.993ZM43.4-2.406h1.049V-7.3a2.352,2.352,0,0,1,2.391-2.566,2.026,2.026,0,0,1,2.177,2.272v5.188h1.049V-7.76A2.766,2.766,0,0,0,47.145-10.8a2.793,2.793,0,0,0-2.725,1.66H44.4v-1.525H43.4Zm9.053-10.328v2.066H51.224v.874h1.231v5.355c0,1.494.556,2.081,1.938,2.081a6.563,6.563,0,0,0,.779-.048v-.9c-.064.016-.461.032-.572.032-.763,0-1.1-.365-1.1-1.216V-9.794h1.629v-.874H53.5v-2.066Zm5.454,10.4a.732.732,0,0,0,.739-.739.734.734,0,0,0-.739-.747.741.741,0,0,0-.747.747A.739.739,0,0,0,57.909-2.334ZM69.873-12.01h.064l2.82,9.6h1L76.92-13.869H75.784l-2.518,9.8H73.21l-2.765-9.8h-1.08l-2.773,9.8h-.048l-2.526-9.8H62.89L66.044-2.406h1.009ZM79.72-2.27a3.078,3.078,0,0,0,2.82-1.708h.024v1.573h1V-8.062c0-1.684-1.184-2.741-3.067-2.741s-3.1,1.049-3.218,2.526H78.3a1.974,1.974,0,0,1,2.177-1.6,1.814,1.814,0,0,1,2.042,1.907v.715l-2.574.159c-1.907.127-2.963.985-2.963,2.4A2.465,2.465,0,0,0,79.72-2.27Zm.215-.906c-1.12,0-1.891-.62-1.891-1.517,0-.914.723-1.478,2.026-1.565l2.447-.167v.914A2.442,2.442,0,0,1,79.935-3.176Zm5.39-5.283c0,1.144.739,1.835,2.312,2.2l1.239.294c1.112.27,1.517.667,1.517,1.382,0,.866-.818,1.446-2.058,1.446a1.966,1.966,0,0,1-2.2-1.637H85.087c.143,1.509,1.382,2.5,3.249,2.5,1.8,0,3.114-.993,3.114-2.391,0-1.168-.62-1.8-2.272-2.2l-1.247-.294c-1.1-.262-1.565-.683-1.565-1.359,0-.826.771-1.422,1.9-1.422a1.858,1.858,0,0,1,2.026,1.66H91.3A2.75,2.75,0,0,0,88.264-10.8C86.54-10.8,85.325-9.826,85.325-8.459Zm11.781-3.925a.7.7,0,0,0,.707-.7.7.7,0,0,0-.707-.7.7.7,0,0,0-.7.7A.7.7,0,0,0,97.106-12.384Zm-.524,9.978h1.049v-8.262H96.582Zm3.547-10.328v2.066H98.9v.874h1.231v5.355c0,1.494.556,2.081,1.938,2.081a6.563,6.563,0,0,0,.779-.048v-.9c-.064.016-.461.032-.572.032-.763,0-1.1-.365-1.1-1.216V-9.794h1.629v-.874h-1.629v-2.066ZM108.55.582c1.351,0,1.946-.54,2.669-2.487l3.249-8.763h-1.112l-2.51,7.214h-.024l-2.51-7.214h-1.128l3.09,8.318-.215.62c-.365,1.033-.779,1.414-1.541,1.414a2.3,2.3,0,0,1-.493-.048v.9A3.286,3.286,0,0,0,108.55.582ZM118.858-2.27c2.248,0,3.766-1.645,3.766-4.266s-1.517-4.266-3.766-4.266-3.766,1.637-3.766,4.266S116.609-2.27,118.858-2.27Zm0-.93c-1.621,0-2.693-1.239-2.693-3.337s1.073-3.337,2.693-3.337,2.7,1.239,2.7,3.337S120.478-3.2,118.858-3.2Zm11.952-7.468h-1.049v4.9a2.344,2.344,0,0,1-2.407,2.558,2.007,2.007,0,0,1-2.161-2.272v-5.188h-1.057V-5.3a2.763,2.763,0,0,0,2.916,3.027,2.837,2.837,0,0,0,2.741-1.668h.024v1.533h.993Zm1.529-.31h1.033a2.128,2.128,0,0,1,2.256-2.05,1.993,1.993,0,0,1,2.177,1.946c0,.858-.389,1.414-1.382,2.074a2.7,2.7,0,0,0-1.565,2.439v.747h1.057v-.6c0-.882.294-1.335,1.335-2a3.093,3.093,0,0,0,1.676-2.709,2.971,2.971,0,0,0-3.257-2.844A3.091,3.091,0,0,0,132.339-10.978ZM135.4-2.334a.734.734,0,0,0,.747-.739.736.736,0,0,0-.747-.747.734.734,0,0,0-.739.747A.732.732,0,0,0,135.4-2.334Z" transform="translate(107.779 78.781)"/><rect class="c" width="81.933" height="90.788" transform="translate(0 0)"/><path class="f" d="M.393,0H.66V-2.123A1.149,1.149,0,0,1,1.818-3.37a1.021,1.021,0,0,1,1.094,1.1V0h.267V-2.3a1.22,1.22,0,0,0-1.3-1.306,1.242,1.242,0,0,0-1.23.827H.643v-.772H.393ZM5.7.055A1.616,1.616,0,0,0,7.285-1.777,1.616,1.616,0,0,0,5.7-3.609,1.613,1.613,0,0,0,4.117-1.777,1.613,1.613,0,0,0,5.7.055Zm0-.239c-.79,0-1.316-.6-1.316-1.593S4.91-3.37,5.7-3.37s1.319.6,1.319,1.593S6.489-.185,5.7-.185Zm6.854-3.37h-.28L11.364-.294h-.01l-.988-3.261h-.3L9.074-.294H9.067L8.155-3.555H7.878L8.91,0h.314l.984-3.213h.01L11.21,0h.308Z" transform="translate(382.943 25.297)"/><path class="d" d="M-228.994-1310.1h29.4v29.4h-29.4Z" transform="translate(254.494 1336.317)"/><path class="d" d="M-232.2-1315.377h33.31v33.311H-232.2Z" transform="translate(256.515 1339.641)"/><g transform="translate(0 -0.234)"><g transform="translate(21.186 35.779)"><path class="g" d="M-156.4-1284.277v.08l-.589-.048-.036-.032Z" transform="translate(181.989 1284.277)"/><path class="g" d="M-218.477-1284.277l-.036.032-.588.048v-.08Z" transform="translate(221.078 1284.277)"/><path class="g" d="M-198.7-1284.277h-.161v.08l-.589-.048-.036-.032H-221.84l-.036.032-.588.048v-.08h-.161a1.821,1.821,0,0,0-1.816,1.816v15.6a1.821,1.821,0,0,0,1.816,1.816H-198.7a1.821,1.821,0,0,0,1.816-1.816v-15.6A1.821,1.821,0,0,0-198.7-1284.277Zm-2,.908-9.909,7.4-.054-.04-.054.04-9.909-7.4Zm1.216,17.414H-221.84v-14.331c3.707,2.76,7.375,5.534,11.1,8.159l.021.015.056-.039.056.039.021-.015c3.727-2.625,7.4-5.4,11.1-8.159Z" transform="translate(224.441 1284.277)"/><path class="e" d="M-218.477-1284.277l-.036.032-.588.048v-.08Z" transform="translate(221.078 1284.277)"/><path class="e" d="M-156.4-1284.277v.08l-.589-.048-.036-.032Z" transform="translate(181.989 1284.277)"/></g><g transform="translate(42.868 39.103)"><g class="h" transform="translate(1627.199 797.713)"><path class="o" d="M -1610.2548828125 -780.3384399414062 L -1625.878173828125 -780.3384399414062 C -1626.734497070312 -780.3384399414062 -1627.490600585938 -780.7596435546875 -1627.900756835938 -781.4652099609375 C -1628.309692382812 -782.1688232421875 -1628.300170898438 -783.03515625 -1627.875122070312 -783.7825927734375 L -1620.056518554688 -797.5119018554688 C -1619.62841796875 -798.263916015625 -1618.884399414062 -798.7129516601562 -1618.06640625 -798.7129516601562 C -1617.249755859375 -798.7129516601562 -1616.505859375 -798.2637939453125 -1616.076538085938 -797.5114135742188 L -1608.258178710938 -783.7806396484375 C -1607.83349609375 -783.0337524414062 -1607.82373046875 -782.16845703125 -1608.23193359375 -781.465576171875 C -1608.642700195312 -780.759521484375 -1609.398803710938 -780.3384399414062 -1610.2548828125 -780.3384399414062 Z M -1618.1181640625 -792.3191528320312 C -1618.164184570312 -792.3191528320312 -1618.20166015625 -792.28173828125 -1618.20166015625 -792.2357788085938 L -1618.20166015625 -788.3350219726562 C -1618.20166015625 -788.2888793945312 -1618.164184570312 -788.2512817382812 -1618.1181640625 -788.2512817382812 C -1618.072021484375 -788.2512817382812 -1618.034423828125 -788.2888793945312 -1618.034423828125 -788.3350219726562 L -1618.034423828125 -792.2357788085938 C -1618.034423828125 -792.28173828125 -1618.072021484375 -792.3191528320312 -1618.1181640625 -792.3191528320312 Z"/><path class="p" d="M -1610.2548828125 -781.3384399414062 C -1609.7568359375 -781.3384399414062 -1609.323974609375 -781.5770874023438 -1609.0966796875 -781.9677124023438 C -1608.86962890625 -782.3587036132812 -1608.881103515625 -782.8530883789062 -1609.127197265625 -783.2858276367188 L -1616.945068359375 -797.0158081054688 C -1617.193603515625 -797.4513549804688 -1617.612548828125 -797.7129516601562 -1618.06640625 -797.7129516601562 C -1618.5205078125 -797.7129516601562 -1618.939453125 -797.4528198242188 -1619.1875 -797.0170288085938 L -1627.005859375 -783.2882690429688 C -1627.251953125 -782.8555297851562 -1627.263427734375 -782.3587036132812 -1627.0361328125 -781.9677124023438 C -1626.80908203125 -781.5770874023438 -1626.3759765625 -781.3384399414062 -1625.878173828125 -781.3384399414062 L -1610.2548828125 -781.3384399414062 M -1618.06640625 -786.0270385742188 C -1617.468017578125 -786.0270385742188 -1616.98291015625 -785.5418090820312 -1616.98291015625 -784.9432983398438 C -1616.98291015625 -784.3450317382812 -1617.468017578125 -783.8599243164062 -1618.06640625 -783.8599243164062 C -1618.6650390625 -783.8599243164062 -1619.14990234375 -784.3450317382812 -1619.14990234375 -784.9432983398438 C -1619.14990234375 -785.5418090820312 -1618.6650390625 -786.0270385742188 -1618.06640625 -786.0270385742188 M -1618.1181640625 -793.3191528320312 C -1617.51953125 -793.3191528320312 -1617.034423828125 -792.8340454101562 -1617.034423828125 -792.2357788085938 L -1617.034423828125 -788.3350219726562 C -1617.034423828125 -787.7366333007812 -1617.51953125 -787.2512817382812 -1618.1181640625 -787.2512817382812 C -1618.71630859375 -787.2512817382812 -1619.20166015625 -787.7366333007812 -1619.20166015625 -788.3350219726562 L -1619.20166015625 -792.2357788085938 C -1619.20166015625 -792.8340454101562 -1618.71630859375 -793.3191528320312 -1618.1181640625 -793.3191528320312 M -1610.2548828125 -779.3384399414062 L -1625.878173828125 -779.3384399414062 C -1627.094848632812 -779.3384399414062 -1628.174072265625 -779.9456176757812 -1628.765258789062 -780.962646484375 C -1629.346435546875 -781.9623413085938 -1629.33837890625 -783.2323608398438 -1628.744384765625 -784.2769165039062 L -1620.925415039062 -798.0067749023438 C -1620.3173828125 -799.0750122070312 -1619.24853515625 -799.7129516601562 -1618.06640625 -799.7129516601562 C -1616.886108398438 -799.7129516601562 -1615.817504882812 -799.0752563476562 -1615.2080078125 -798.0070190429688 L -1607.38916015625 -784.2754516601562 C -1606.786254882812 -783.21533203125 -1606.778198242188 -781.9774780273438 -1607.3671875 -780.96337890625 C -1607.95947265625 -779.9453125 -1609.038696289062 -779.3384399414062 -1610.2548828125 -779.3384399414062 Z"/></g></g></g></g><g transform="translate(162.297 141.739)"><path class="i" d="M90.578,34.633A9.664,9.664,0,1,1,80.914,25,9.515,9.515,0,0,1,90.578,34.633Zm-4.23,0a5.447,5.447,0,1,0-10.867,0,5.447,5.447,0,1,0,10.867,0Z" transform="translate(-40.1 -13.876)"/><path class="j" d="M138.578,34.633A9.664,9.664,0,1,1,128.914,25,9.515,9.515,0,0,1,138.578,34.633Zm-4.23,0a5.447,5.447,0,1,0-10.867,0,5.447,5.447,0,1,0,10.867,0Z" transform="translate(-67.253 -13.876)"/><path class="k" d="M185.7,25.582v17.3c0,7.114-4.2,10.02-9.156,10.02A9.174,9.174,0,0,1,168,47.22l3.683-1.533a5.321,5.321,0,0,0,4.851,3.418c3.175,0,5.142-1.959,5.142-5.646V42.074h-.148a6.559,6.559,0,0,1-5.073,2.189,9.64,9.64,0,0,1,0-19.263,6.676,6.676,0,0,1,5.073,2.154h.148V25.586H185.7Zm-3.718,9.086c0-3.392-2.263-5.872-5.142-5.872a5.57,5.57,0,0,0-5.364,5.872,5.529,5.529,0,0,0,5.364,5.8C179.717,40.471,181.98,38.026,181.98,34.668Z" transform="translate(-94.393 -13.876)"/><path class="l" d="M219.626,3V31.231H215.5V3Z" transform="translate(-121.698 -1.431)"/><path class="i" d="M243.392,37.8l3.284,2.189a9.589,9.589,0,0,1-8.026,4.269,9.426,9.426,0,0,1-9.56-9.633c0-5.729,4.122-9.633,9.086-9.633,5,0,7.444,3.978,8.244,6.128l.439,1.095-12.878,5.334a4.9,4.9,0,0,0,4.669,2.919,5.5,5.5,0,0,0,4.743-2.667Zm-10.107-3.466,8.608-3.575a3.73,3.73,0,0,0-3.575-2.041A5.284,5.284,0,0,0,233.286,34.332Z" transform="translate(-129.386 -13.87)"/><path class="k" d="M15.531,18.251V14.164H29.3a13.542,13.542,0,0,1,.2,2.467,13.5,13.5,0,0,1-3.54,9.56,13.678,13.678,0,0,1-10.433,4.2A15.168,15.168,0,0,1,.36,15.428,15.168,15.168,0,0,1,15.535.47a14.253,14.253,0,0,1,10.25,4.122L22.9,7.476a10.418,10.418,0,0,0-7.371-2.919A10.73,10.73,0,0,0,4.8,15.428,10.73,10.73,0,0,0,15.531,26.3a10.007,10.007,0,0,0,7.553-2.993,8.471,8.471,0,0,0,2.215-5.06Z" transform="translate(0 0)"/></g><rect class="m" width="215" height="74" transform="translate(110.657 192)"/></g><circle class="n" cx="8" cy="8" r="8" transform="translate(1158 652)"/><rect class="n" width="86" height="6" rx="3" transform="translate(1188 657)"/></g></svg>