<svg xmlns="http://www.w3.org/2000/svg" xmlns:xlink="http://www.w3.org/1999/xlink" width="446.295" height="111.839" viewBox="0 0 446.295 111.839"><defs><style>.a{fill:#fff;}.b,.f{fill:#333;}.c,.h{fill:#535aff;}.d{fill:#4d4d4d;}.e{fill:none;}.g,.h{stroke:none;}.i{filter:url(#a);}</style><filter id="a" x="0" y="0" width="446.295" height="111.839" filterUnits="userSpaceOnUse"><feOffset dy="3" input="SourceAlpha"/><feGaussianBlur stdDeviation="5" result="b"/><feFlood flood-opacity="0.349"/><feComposite operator="in" in2="b"/><feComposite in="SourceGraphic"/></filter></defs><g transform="translate(14.657 12)"><g class="i" transform="matrix(1, 0, 0, 1, -14.66, -12)"><rect class="a" width="416.295" height="81.839" transform="translate(15 12)"/></g><path class="b" d="M7.986-23.426V-28.32l4.567-8.208H9.612L6.67-30.935H6.606L3.674-36.527H.687L5.244-28.32v4.894Zm8.33.209c2.942,0,4.821-1.879,4.821-5.084,0-3.16-1.907-5.066-4.821-5.066S11.5-31.452,11.5-28.3C11.5-25.106,13.375-23.217,16.317-23.217Zm0-2.025c-1.307,0-2.134-1.1-2.134-3.051,0-1.934.844-3.051,2.134-3.051s2.125,1.117,2.125,3.051C18.441-26.34,17.615-25.242,16.317-25.242Zm15.358-7.917H29.023v5.575a1.9,1.9,0,0,1-1.916,2.134c-1.171,0-1.816-.69-1.816-1.988v-5.72H22.64v6.274a3.332,3.332,0,0,0,3.5,3.641,2.892,2.892,0,0,0,2.915-1.934h.054v1.752h2.56Zm1.911,9.733h2.651v-5.439a1.939,1.939,0,0,1,2.07-2.17,2.728,2.728,0,0,1,.962.154v-2.333a2.7,2.7,0,0,0-.754-.1A2.323,2.323,0,0,0,36.2-31.407h-.054v-1.752h-2.56Zm19.62,0H56.12l-4.558-13.1H48.339l-4.549,13.1H46.6l1-3.178h4.6Zm-3.332-10.6h.064l1.68,5.366H48.194Zm7.54,10.6h2.651V-29.01a1.928,1.928,0,0,1,1.943-2.134c1.189,0,1.789.726,1.789,2v5.72h2.651V-29.7c0-2.279-1.217-3.641-3.378-3.641a3.075,3.075,0,0,0-3.042,1.916h-.054v-1.734h-2.56Zm14.513.154A3.21,3.21,0,0,0,74.96-25.1h.045v1.671H77.62v-13.1H74.969v5.039h-.054a3.129,3.129,0,0,0-2.969-1.825c-2.442,0-3.986,1.916-3.986,5C67.959-25.2,69.494-23.272,71.927-23.272Zm.9-7.917c1.317,0,2.161,1.126,2.161,2.9s-.844,2.887-2.161,2.887c-1.335,0-2.152-1.1-2.152-2.887S71.491-31.189,72.826-31.189Zm6.75,7.763h2.651v-5.439a1.939,1.939,0,0,1,2.07-2.17,2.728,2.728,0,0,1,.962.154v-2.333a2.7,2.7,0,0,0-.754-.1,2.323,2.323,0,0,0-2.315,1.907h-.054v-1.752h-2.56Zm11.1.209c2.942,0,4.821-1.879,4.821-5.084,0-3.16-1.907-5.066-4.821-5.066s-4.821,1.916-4.821,5.066C85.855-25.106,87.734-23.217,90.676-23.217Zm0-2.025c-1.307,0-2.134-1.1-2.134-3.051,0-1.934.844-3.051,2.134-3.051S92.8-30.226,92.8-28.292C92.8-26.34,91.974-25.242,90.676-25.242Zm7.731-9.234a1.37,1.37,0,0,0,1.38-1.362,1.364,1.364,0,0,0-1.38-1.362,1.364,1.364,0,0,0-1.38,1.362A1.37,1.37,0,0,0,98.407-34.476ZM97.09-23.426h2.651v-9.733H97.09Zm8.212.154a3.21,3.21,0,0,0,3.033-1.825h.045v1.671H111v-13.1h-2.651v5.039h-.054a3.129,3.129,0,0,0-2.969-1.825c-2.442,0-3.986,1.916-3.986,5C101.335-25.2,102.869-23.272,105.3-23.272Zm.9-7.917c1.317,0,2.161,1.126,2.161,2.9s-.844,2.887-2.161,2.887c-1.335,0-2.152-1.1-2.152-2.887S104.867-31.189,106.2-31.189Zm10.677,7.763h2.651v-5.557a1.942,1.942,0,0,1,1.988-2.161c1.208,0,1.825.763,1.825,2.016v5.7h2.651v-6.265c0-2.252-1.235-3.65-3.4-3.65a3.091,3.091,0,0,0-3.06,1.916h-.054v-5.1h-2.606Zm13.878.154a3.348,3.348,0,0,0,2.969-1.643h.054v1.489h2.56v-6.692c0-1.961-1.625-3.25-4.122-3.25-2.579,0-4.186,1.3-4.286,3.187h2.424a1.578,1.578,0,0,1,1.743-1.208c1,0,1.634.527,1.634,1.435v.645l-2.451.145c-2.424.145-3.786,1.171-3.786,2.942A3.01,3.01,0,0,0,130.756-23.272Zm.872-1.916c-.9,0-1.5-.454-1.5-1.18,0-.69.563-1.135,1.553-1.208l2.052-.127v.708A1.944,1.944,0,0,1,131.628-25.187Zm6.442-5.112c0,1.462.953,2.406,2.833,2.806l1.662.345c.953.218,1.289.508,1.289,1.026,0,.636-.617,1.044-1.616,1.044a1.608,1.608,0,0,1-1.825-1.307h-2.588c.173,1.916,1.725,3.169,4.413,3.169,2.506,0,4.258-1.262,4.258-3.178,0-1.425-.835-2.224-2.869-2.651l-1.662-.354c-.981-.209-1.344-.545-1.344-1.044,0-.645.608-1.062,1.525-1.062a1.485,1.485,0,0,1,1.652,1.326h2.442c-.054-1.907-1.6-3.187-4.095-3.187C139.667-33.368,138.069-32.151,138.069-30.3Zm16.67,7.027a3.348,3.348,0,0,0,2.969-1.643h.054v1.489h2.56v-6.692c0-1.961-1.625-3.25-4.122-3.25-2.579,0-4.186,1.3-4.285,3.187h2.424a1.578,1.578,0,0,1,1.743-1.208c1,0,1.634.527,1.634,1.435v.645l-2.451.145c-2.424.145-3.786,1.171-3.786,2.942A3.01,3.01,0,0,0,154.739-23.272Zm.872-1.916c-.9,0-1.5-.454-1.5-1.18,0-.69.563-1.135,1.553-1.208l2.052-.127v.708A1.944,1.944,0,0,1,155.611-25.187Zm19.366-7.972h-2.769l-2.016,7.391h-.054l-2.025-7.391h-2.842l3.368,9.733h3Zm2.465-1.317a1.37,1.37,0,0,0,1.38-1.362,1.364,1.364,0,0,0-1.38-1.362,1.364,1.364,0,0,0-1.38,1.362A1.37,1.37,0,0,0,177.441-34.476Zm-1.317,11.05h2.651v-9.733h-2.651Zm4.6,0h2.651v-5.439a1.939,1.939,0,0,1,2.07-2.17,2.728,2.728,0,0,1,.962.154v-2.333a2.7,2.7,0,0,0-.754-.1,2.323,2.323,0,0,0-2.315,1.907h-.054v-1.752h-2.56Zm15.939-9.733h-2.651v5.575a1.9,1.9,0,0,1-1.916,2.134c-1.171,0-1.816-.69-1.816-1.988v-5.72h-2.651v6.274a3.332,3.332,0,0,0,3.5,3.641,2.892,2.892,0,0,0,2.914-1.934h.054v1.752h2.56Zm1.748,2.86c0,1.462.953,2.406,2.833,2.806l1.662.345c.953.218,1.289.508,1.289,1.026,0,.636-.617,1.044-1.616,1.044a1.608,1.608,0,0,1-1.825-1.307h-2.588c.173,1.916,1.725,3.169,4.413,3.169,2.506,0,4.258-1.262,4.258-3.178,0-1.425-.835-2.224-2.869-2.651L202.3-29.4c-.981-.209-1.344-.545-1.344-1.044,0-.645.608-1.062,1.525-1.062a1.485,1.485,0,0,1,1.652,1.326h2.442c-.054-1.907-1.6-3.187-4.095-3.187C200.008-33.368,198.41-32.151,198.41-30.3Zm10.636-6.228.218,8.789h2.288l.218-8.789ZM210.408-23.2a1.44,1.44,0,0,0,1.48-1.425,1.44,1.44,0,0,0-1.48-1.425,1.44,1.44,0,0,0-1.48,1.425A1.44,1.44,0,0,0,210.408-23.2Z" transform="translate(108.284 57.753)"/><path d="M7.927-29.1h.064l2.82,9.6h1l3.162-11.464H13.838l-2.518,9.8h-.056L8.5-30.962H7.419l-2.773,9.8H4.6l-2.526-9.8H.944L4.1-19.5H5.107Zm13.3,7.261a2.237,2.237,0,0,1-2.344,1.557c-1.645,0-2.7-1.16-2.7-3.027v-.064h6.189v-.445c0-2.463-1.382-4.076-3.575-4.076-2.24,0-3.694,1.724-3.694,4.29,0,2.622,1.438,4.242,3.758,4.242a3.221,3.221,0,0,0,3.408-2.479Zm-2.447-5.132a2.536,2.536,0,0,1,2.51,2.765h-5.1A2.643,2.643,0,0,1,18.783-26.974Zm5.565-.167,1-3.821h-1.12l-.763,3.821Zm9.513-.62h-1.1L30.247-20.6h-.024l-2.51-7.158H26.6L29.675-19.5H30.8ZM40.6-21.841a2.237,2.237,0,0,1-2.344,1.557c-1.645,0-2.7-1.16-2.7-3.027v-.064h6.189v-.445c0-2.463-1.382-4.076-3.575-4.076-2.24,0-3.694,1.724-3.694,4.29,0,2.622,1.438,4.242,3.758,4.242a3.221,3.221,0,0,0,3.408-2.479Zm-2.447-5.132a2.536,2.536,0,0,1,2.51,2.765h-5.1A2.643,2.643,0,0,1,38.156-26.974Zm11.773,7.611a3.043,3.043,0,0,0,2.86-1.883h.024V-19.5h1V-30.962H52.757v4.9h-.024A2.986,2.986,0,0,0,49.905-27.9c-2.074,0-3.511,1.692-3.511,4.266S47.84-19.363,49.929-19.363Zm.183-7.6c1.573,0,2.653,1.343,2.653,3.337s-1.08,3.337-2.653,3.337c-1.589,0-2.638-1.319-2.638-3.337S48.523-26.966,50.112-26.966Zm11.46,5.124a2.237,2.237,0,0,1-2.344,1.557c-1.645,0-2.7-1.16-2.7-3.027v-.064h6.189v-.445c0-2.463-1.382-4.076-3.575-4.076-2.24,0-3.694,1.724-3.694,4.29,0,2.622,1.438,4.242,3.758,4.242a3.221,3.221,0,0,0,3.408-2.479Zm-2.447-5.132a2.536,2.536,0,0,1,2.51,2.765h-5.1A2.643,2.643,0,0,1,59.125-26.974Zm5.613-2.852v2.066H63.506v.874h1.231v5.355c0,1.494.556,2.081,1.938,2.081a6.563,6.563,0,0,0,.779-.048v-.9c-.064.016-.461.032-.572.032-.763,0-1.1-.365-1.1-1.216v-5.307h1.629v-.874H65.786v-2.066Zm9.76,7.984a2.237,2.237,0,0,1-2.344,1.557c-1.645,0-2.7-1.16-2.7-3.027v-.064h6.189v-.445c0-2.463-1.382-4.076-3.575-4.076-2.24,0-3.694,1.724-3.694,4.29,0,2.622,1.438,4.242,3.758,4.242a3.221,3.221,0,0,0,3.408-2.479ZM72.05-26.974a2.536,2.536,0,0,1,2.51,2.765h-5.1A2.643,2.643,0,0,1,72.05-26.974Zm11.881,1.827a3.251,3.251,0,0,0-3.4-2.749c-2.248,0-3.734,1.66-3.734,4.266,0,2.646,1.486,4.266,3.742,4.266a3.225,3.225,0,0,0,3.4-2.693H82.9a2.24,2.24,0,0,1-2.352,1.764c-1.613,0-2.677-1.263-2.677-3.337,0-2.042,1.057-3.337,2.669-3.337a2.289,2.289,0,0,1,2.36,1.819Zm1.934-4.679v2.066H84.634v.874h1.231v5.355c0,1.494.556,2.081,1.938,2.081a6.563,6.563,0,0,0,.779-.048v-.9c-.064.016-.461.032-.572.032-.763,0-1.1-.365-1.1-1.216v-5.307h1.629v-.874H86.914v-2.066Zm9.76,7.984a2.237,2.237,0,0,1-2.344,1.557c-1.645,0-2.7-1.16-2.7-3.027v-.064h6.189v-.445c0-2.463-1.382-4.076-3.575-4.076-2.24,0-3.694,1.724-3.694,4.29,0,2.622,1.438,4.242,3.758,4.242a3.221,3.221,0,0,0,3.408-2.479Zm-2.447-5.132a2.536,2.536,0,0,1,2.51,2.765h-5.1A2.643,2.643,0,0,1,93.178-26.974Zm8.282,7.611a3.043,3.043,0,0,0,2.86-1.883h.024V-19.5h1V-30.962h-1.057v4.9h-.024a2.986,2.986,0,0,0-2.828-1.835c-2.074,0-3.511,1.692-3.511,4.266S99.37-19.363,101.46-19.363Zm.183-7.6c1.573,0,2.653,1.343,2.653,3.337s-1.08,3.337-2.653,3.337c-1.589,0-2.638-1.319-2.638-3.337S100.054-26.966,101.643-26.966Zm11.686,7.6a3.078,3.078,0,0,0,2.82-1.708h.024V-19.5h1v-5.656c0-1.684-1.184-2.741-3.067-2.741s-3.1,1.049-3.218,2.526h1.017a1.974,1.974,0,0,1,2.177-1.6,1.814,1.814,0,0,1,2.042,1.907v.715l-2.574.159c-1.907.127-2.963.985-2.963,2.4A2.465,2.465,0,0,0,113.329-19.363Zm.215-.906c-1.12,0-1.891-.62-1.891-1.517,0-.914.723-1.478,2.026-1.565l2.447-.167v.914A2.442,2.442,0,0,1,113.543-20.268Zm15.531-7.492h-1.1L125.46-20.6h-.024l-2.51-7.158h-1.112l3.075,8.262h1.12Zm1.791-1.716a.7.7,0,0,0,.707-.7.7.7,0,0,0-.707-.7.7.7,0,0,0-.7.7A.7.7,0,0,0,130.866-29.476Zm-.524,9.978h1.049V-27.76h-1.049Zm3.094,0h1.049v-5.148a1.982,1.982,0,0,1,1.923-2.248,2.127,2.127,0,0,1,.787.119v-1.033a2.726,2.726,0,0,0-.651-.087,2.1,2.1,0,0,0-2.089,1.6h-.024v-1.47h-.993ZM145.11-27.76h-1.049v4.9a2.344,2.344,0,0,1-2.407,2.558,2.007,2.007,0,0,1-2.161-2.272V-27.76h-1.057v5.37a2.763,2.763,0,0,0,2.916,3.027,2.837,2.837,0,0,0,2.741-1.668h.024V-19.5h.993Zm1.807,2.209c0,1.144.739,1.835,2.312,2.2l1.239.294c1.112.27,1.517.667,1.517,1.382,0,.866-.818,1.446-2.058,1.446a1.966,1.966,0,0,1-2.2-1.637h-1.049c.143,1.509,1.382,2.5,3.249,2.5,1.8,0,3.114-.993,3.114-2.391,0-1.168-.62-1.8-2.272-2.2l-1.247-.294c-1.1-.262-1.565-.683-1.565-1.359,0-.826.771-1.422,1.9-1.422a1.858,1.858,0,0,1,2.026,1.66h1.009a2.75,2.75,0,0,0-3.035-2.526C148.133-27.9,146.917-26.918,146.917-25.551Zm14.538,6.189c2.248,0,3.766-1.645,3.766-4.266S163.7-27.9,161.455-27.9s-3.766,1.637-3.766,4.266S159.207-19.363,161.455-19.363Zm0-.93c-1.621,0-2.693-1.239-2.693-3.337s1.072-3.337,2.693-3.337,2.7,1.239,2.7,3.337S163.076-20.292,161.455-20.292Zm5.327.794h1.049v-4.894a2.352,2.352,0,0,1,2.391-2.566,2.026,2.026,0,0,1,2.177,2.272V-19.5h1.049v-5.355a2.766,2.766,0,0,0-2.924-3.043,2.793,2.793,0,0,0-2.725,1.66h-.024V-27.76h-.993Zm12.687,2.987c1.351,0,1.946-.54,2.669-2.487l3.249-8.763h-1.112l-2.51,7.214h-.024l-2.51-7.214H178.1l3.09,8.318-.215.62c-.365,1.033-.779,1.414-1.541,1.414a2.3,2.3,0,0,1-.493-.048v.9A3.286,3.286,0,0,0,179.469-16.511Zm10.308-2.852c2.248,0,3.766-1.645,3.766-4.266s-1.517-4.266-3.766-4.266-3.766,1.637-3.766,4.266S187.529-19.363,189.777-19.363Zm0-.93c-1.621,0-2.693-1.239-2.693-3.337s1.073-3.337,2.693-3.337,2.7,1.239,2.7,3.337S191.4-20.292,189.777-20.292Zm11.952-7.468H200.68v4.9a2.344,2.344,0,0,1-2.407,2.558,2.007,2.007,0,0,1-2.161-2.272V-27.76h-1.057v5.37a2.763,2.763,0,0,0,2.916,3.027,2.837,2.837,0,0,0,2.741-1.668h.024V-19.5h.993ZM203.7-19.5h1.049v-5.148a1.982,1.982,0,0,1,1.923-2.248,2.126,2.126,0,0,1,.786.119v-1.033a2.725,2.725,0,0,0-.651-.087,2.1,2.1,0,0,0-2.089,1.6H204.7v-1.47H203.7Zm11.662.135a3.043,3.043,0,0,0,2.86-1.883h.024V-19.5h1V-30.962h-1.057v4.9h-.024a2.986,2.986,0,0,0-2.828-1.835c-2.073,0-3.511,1.692-3.511,4.266S213.276-19.363,215.365-19.363Zm.183-7.6c1.573,0,2.653,1.343,2.653,3.337s-1.08,3.337-2.653,3.337c-1.589,0-2.638-1.319-2.638-3.337S213.959-26.966,215.548-26.966Zm11.46,5.124a2.237,2.237,0,0,1-2.344,1.557c-1.645,0-2.7-1.16-2.7-3.027v-.064h6.189v-.445c0-2.463-1.382-4.076-3.575-4.076-2.24,0-3.694,1.724-3.694,4.29,0,2.622,1.438,4.242,3.758,4.242a3.221,3.221,0,0,0,3.408-2.479Zm-2.447-5.132a2.536,2.536,0,0,1,2.51,2.765h-5.1A2.643,2.643,0,0,1,224.561-26.974ZM236.2-27.76h-1.1L232.589-20.6h-.024l-2.51-7.158h-1.112l3.075,8.262h1.12Zm1.791-1.716a.7.7,0,0,0,.707-.7.7.7,0,0,0-.707-.7.7.7,0,0,0-.7.7A.7.7,0,0,0,237.995-29.476Zm-.524,9.978h1.049V-27.76h-1.049Zm9.815-5.649a3.251,3.251,0,0,0-3.4-2.749c-2.248,0-3.734,1.66-3.734,4.266,0,2.646,1.486,4.266,3.742,4.266a3.225,3.225,0,0,0,3.4-2.693h-1.041a2.24,2.24,0,0,1-2.352,1.764c-1.613,0-2.677-1.263-2.677-3.337,0-2.042,1.057-3.337,2.669-3.337a2.289,2.289,0,0,1,2.36,1.819Zm7.194,3.3a2.237,2.237,0,0,1-2.344,1.557c-1.645,0-2.7-1.16-2.7-3.027v-.064h6.189v-.445c0-2.463-1.382-4.076-3.575-4.076-2.24,0-3.694,1.724-3.694,4.29,0,2.622,1.438,4.242,3.758,4.242a3.221,3.221,0,0,0,3.408-2.479Zm-2.447-5.132a2.536,2.536,0,0,1,2.51,2.765h-5.1A2.643,2.643,0,0,1,252.033-26.974Zm5.811-3.988.072,7.841h.961l.064-7.841Zm.548,11.535a.734.734,0,0,0,.747-.739.736.736,0,0,0-.747-.747.734.734,0,0,0-.739.747A.732.732,0,0,0,258.392-19.426Z" transform="translate(108.122 78.74)"/><rect class="c" width="81.933" height="81.839" transform="translate(0 0)"/><path class="d" d="M.393,0H.66V-2.123A1.149,1.149,0,0,1,1.818-3.37a1.021,1.021,0,0,1,1.094,1.1V0h.267V-2.3a1.22,1.22,0,0,0-1.3-1.306,1.242,1.242,0,0,0-1.23.827H.643v-.772H.393ZM5.7.055A1.616,1.616,0,0,0,7.285-1.777,1.616,1.616,0,0,0,5.7-3.609,1.613,1.613,0,0,0,4.117-1.777,1.613,1.613,0,0,0,5.7.055Zm0-.239c-.79,0-1.316-.6-1.316-1.593S4.91-3.37,5.7-3.37s1.319.6,1.319,1.593S6.489-.185,5.7-.185Zm6.854-3.37h-.28L11.364-.294h-.01l-.988-3.261h-.3L9.074-.294H9.067L8.155-3.555H7.878L8.91,0h.314l.984-3.213h.01L11.21,0h.308Z" transform="translate(382.943 25.297)"/><g transform="translate(23.957 24.514)"><path class="e" d="M0,0H32.214V32.214H0Z" transform="translate(0 0)"/><path class="b" d="M7.369,24.16A1.346,1.346,0,0,0,8.711,25.5h1.342v4.7a2.013,2.013,0,0,0,4.027,0V25.5h2.684v4.7a2.013,2.013,0,0,0,4.027,0V25.5h1.342a1.346,1.346,0,0,0,1.342-1.342V10.738H7.369ZM4.013,10.738A2.011,2.011,0,0,0,2,12.751v9.4a2.013,2.013,0,0,0,4.027,0v-9.4A2.011,2.011,0,0,0,4.013,10.738Zm22.818,0a2.011,2.011,0,0,0-2.013,2.013v9.4a2.013,2.013,0,0,0,4.027,0v-9.4A2.011,2.011,0,0,0,26.832,10.738ZM20.161,2.9l1.745-1.745a.665.665,0,0,0,0-.953.665.665,0,0,0-.953,0L18.966,2.188a7.838,7.838,0,0,0-3.544-.846,7.951,7.951,0,0,0-3.57.846L9.852.2A.665.665,0,0,0,8.9.2a.665.665,0,0,0,0,.953l1.758,1.758A8.031,8.031,0,0,0,7.369,9.4H23.476a8.007,8.007,0,0,0-3.315-6.5ZM12.738,6.711H11.4V5.369h1.342Zm6.711,0H18.107V5.369h1.342Z" transform="translate(0.684 0)"/></g><g transform="translate(39.039 40.551)"><g class="f" transform="translate(1627.199 797.713)"><path class="g" d="M -1610.2548828125 -780.3384399414062 L -1625.878173828125 -780.3384399414062 C -1626.734497070312 -780.3384399414062 -1627.490600585938 -780.7596435546875 -1627.900756835938 -781.4652099609375 C -1628.309692382812 -782.1688232421875 -1628.300170898438 -783.03515625 -1627.875122070312 -783.7825927734375 L -1620.056518554688 -797.5119018554688 C -1619.62841796875 -798.263916015625 -1618.884399414062 -798.7129516601562 -1618.06640625 -798.7129516601562 C -1617.249755859375 -798.7129516601562 -1616.505859375 -798.2637939453125 -1616.076538085938 -797.5114135742188 L -1608.258178710938 -783.7806396484375 C -1607.83349609375 -783.0337524414062 -1607.82373046875 -782.16845703125 -1608.23193359375 -781.465576171875 C -1608.642700195312 -780.759521484375 -1609.398803710938 -780.3384399414062 -1610.2548828125 -780.3384399414062 Z M -1618.1181640625 -792.3191528320312 C -1618.164184570312 -792.3191528320312 -1618.20166015625 -792.28173828125 -1618.20166015625 -792.2357788085938 L -1618.20166015625 -788.3350219726562 C -1618.20166015625 -788.2888793945312 -1618.164184570312 -788.2512817382812 -1618.1181640625 -788.2512817382812 C -1618.072021484375 -788.2512817382812 -1618.034423828125 -788.2888793945312 -1618.034423828125 -788.3350219726562 L -1618.034423828125 -792.2357788085938 C -1618.034423828125 -792.28173828125 -1618.072021484375 -792.3191528320312 -1618.1181640625 -792.3191528320312 Z"/><path class="h" d="M -1610.2548828125 -781.3384399414062 C -1609.7568359375 -781.3384399414062 -1609.323974609375 -781.5770874023438 -1609.0966796875 -781.9677124023438 C -1608.86962890625 -782.3587036132812 -1608.881103515625 -782.8530883789062 -1609.127197265625 -783.2858276367188 L -1616.945068359375 -797.0158081054688 C -1617.193603515625 -797.4513549804688 -1617.612548828125 -797.7129516601562 -1618.06640625 -797.7129516601562 C -1618.5205078125 -797.7129516601562 -1618.939453125 -797.4528198242188 -1619.1875 -797.0170288085938 L -1627.005859375 -783.2882690429688 C -1627.251953125 -782.8555297851562 -1627.263427734375 -782.3587036132812 -1627.0361328125 -781.9677124023438 C -1626.80908203125 -781.5770874023438 -1626.3759765625 -781.3384399414062 -1625.878173828125 -781.3384399414062 L -1610.2548828125 -781.3384399414062 M -1618.06640625 -786.0270385742188 C -1617.468017578125 -786.0270385742188 -1616.98291015625 -785.5418090820312 -1616.98291015625 -784.9432983398438 C -1616.98291015625 -784.3450317382812 -1617.468017578125 -783.8599243164062 -1618.06640625 -783.8599243164062 C -1618.6650390625 -783.8599243164062 -1619.14990234375 -784.3450317382812 -1619.14990234375 -784.9432983398438 C -1619.14990234375 -785.5418090820312 -1618.6650390625 -786.0270385742188 -1618.06640625 -786.0270385742188 M -1618.1181640625 -793.3191528320312 C -1617.51953125 -793.3191528320312 -1617.034423828125 -792.8340454101562 -1617.034423828125 -792.2357788085938 L -1617.034423828125 -788.3350219726562 C -1617.034423828125 -787.7366333007812 -1617.51953125 -787.2512817382812 -1618.1181640625 -787.2512817382812 C -1618.71630859375 -787.2512817382812 -1619.20166015625 -787.7366333007812 -1619.20166015625 -788.3350219726562 L -1619.20166015625 -792.2357788085938 C -1619.20166015625 -792.8340454101562 -1618.71630859375 -793.3191528320312 -1618.1181640625 -793.3191528320312 M -1610.2548828125 -779.3384399414062 L -1625.878173828125 -779.3384399414062 C -1627.094848632812 -779.3384399414062 -1628.174072265625 -779.9456176757812 -1628.765258789062 -780.962646484375 C -1629.346435546875 -781.9623413085938 -1629.33837890625 -783.2323608398438 -1628.744384765625 -784.2769165039062 L -1620.925415039062 -798.0067749023438 C -1620.3173828125 -799.0750122070312 -1619.24853515625 -799.7129516601562 -1618.06640625 -799.7129516601562 C -1616.886108398438 -799.7129516601562 -1615.817504882812 -799.0752563476562 -1615.2080078125 -798.0070190429688 L -1607.38916015625 -784.2754516601562 C -1606.786254882812 -783.21533203125 -1606.778198242188 -781.9774780273438 -1607.3671875 -780.96337890625 C -1607.95947265625 -779.9453125 -1609.038696289062 -779.3384399414062 -1610.2548828125 -779.3384399414062 Z"/></g></g></g></svg>