<svg xmlns="http://www.w3.org/2000/svg" xmlns:xlink="http://www.w3.org/1999/xlink" width="446.295" height="111.839" viewBox="0 0 446.295 111.839"><defs><style>.a{fill:#fff;}.b{fill:#333;}.c{fill:#535aff;}.d{fill:#4d4d4d;}.e{fill:none;}.f{filter:url(#a);}</style><filter id="a" x="0" y="0" width="446.295" height="111.839" filterUnits="userSpaceOnUse"><feOffset dy="3" input="SourceAlpha"/><feGaussianBlur stdDeviation="5" result="b"/><feFlood flood-opacity="0.349"/><feComposite operator="in" in2="b"/><feComposite in="SourceGraphic"/></filter></defs><g transform="translate(14.657 12)"><g class="f" transform="matrix(1, 0, 0, 1, -14.66, -12)"><rect class="a" width="416.295" height="81.839" transform="translate(15 12)"/></g><path class="b" d="M13.96-28.171v-1.48H8.44v2h2.851l-.009.209a2.829,2.829,0,0,1-3.087,2.724c-2.179,0-3.559-1.734-3.559-4.576,0-2.787,1.3-4.431,3.459-4.431a2.957,2.957,0,0,1,3,2.188h2.751C13.452-34.191,11.146-36,8.086-36c-3.85,0-6.247,2.542-6.247,6.737,0,4.258,2.4,6.81,6.31,6.81C11.8-22.451,13.96-24.6,13.96-28.171Zm6.047,5.711c2.942,0,4.821-1.879,4.821-5.084,0-3.16-1.907-5.066-4.821-5.066s-4.821,1.916-4.821,5.066C15.186-24.349,17.065-22.46,20.007-22.46Zm0-2.025c-1.307,0-2.134-1.1-2.134-3.051,0-1.934.844-3.051,2.134-3.051s2.125,1.117,2.125,3.051C22.132-25.584,21.305-24.485,20.007-24.485Zm10.65,2.025c2.942,0,4.821-1.879,4.821-5.084,0-3.16-1.907-5.066-4.821-5.066s-4.821,1.916-4.821,5.066C25.836-24.349,27.716-22.46,30.657-22.46Zm0-2.025c-1.307,0-2.134-1.1-2.134-3.051,0-1.934.844-3.051,2.134-3.051s2.125,1.117,2.125,3.051C32.782-25.584,31.956-24.485,30.657-24.485ZM41.289-19c2.915,0,4.858-1.489,4.858-3.8v-9.6H43.532v1.7h-.045a3.193,3.193,0,0,0-3.005-1.852c-2.47,0-3.995,1.9-3.995,4.985,0,3.042,1.571,4.876,3.95,4.876a3.176,3.176,0,0,0,3.005-1.743H43.5v1.707c0,1.126-.763,1.879-2.134,1.879a1.929,1.929,0,0,1-1.979-1.126h-2.6C36.995-20.245,38.729-19,41.289-19Zm.045-5.738c-1.317,0-2.134-1.035-2.134-2.815s.826-2.878,2.134-2.878c1.326,0,2.17,1.126,2.17,2.878S42.66-24.739,41.335-24.739Zm6.6,2.07h2.651v-13.1H47.935Zm10.886-2.978a1.938,1.938,0,0,1-1.961,1.226,2.165,2.165,0,0,1-2.234-2.342v-.163h6.71v-.808c0-2.96-1.789-4.876-4.621-4.876-2.878,0-4.694,2.016-4.694,5.121s1.8,5.03,4.794,5.03c2.406,0,4.149-1.28,4.44-3.187Zm-2.079-5a2.02,2.02,0,0,1,2.043,2.1H54.654A2.107,2.107,0,0,1,56.742-30.65Zm9.86-5.121v13.1h2.742V-26.8H71.8a4.356,4.356,0,0,0,4.676-4.485,4.28,4.28,0,0,0-4.54-4.485Zm2.742,2.17h1.861a2.186,2.186,0,0,1,2.479,2.324A2.195,2.195,0,0,1,71.2-28.943H69.345Zm8.58,10.932h2.651v-13.1H77.925Zm7.327.154a3.348,3.348,0,0,0,2.969-1.643h.054v1.489h2.56v-6.692c0-1.961-1.625-3.25-4.122-3.25-2.579,0-4.186,1.3-4.286,3.187h2.424A1.578,1.578,0,0,1,86.6-30.632c1,0,1.634.527,1.634,1.435v.645l-2.451.145c-2.424.145-3.786,1.171-3.786,2.942A3.01,3.01,0,0,0,85.252-22.515Zm.872-1.916c-.9,0-1.5-.454-1.5-1.18,0-.69.563-1.135,1.553-1.208l2.052-.127v.708A1.944,1.944,0,0,1,86.124-24.431Zm7.627,5.366c2.479,0,3.7-.9,4.531-3.4l3.35-9.942h-2.8l-2.061,7.609h-.054L94.649-32.4H91.744l3.387,9.733c.009.045-.091.427-.091.472-.182.772-.663,1.08-1.625,1.08-.1,0-.581-.009-.672-.027v2.052C92.833-19.074,93.65-19.065,93.75-19.065Zm12.757-16.706v13.1h2.742V-26.8H111.7a4.356,4.356,0,0,0,4.676-4.485,4.28,4.28,0,0,0-4.54-4.485Zm2.742,2.17h1.861a2.186,2.186,0,0,1,2.479,2.324,2.195,2.195,0,0,1-2.488,2.333h-1.852Zm8.517,10.932h2.651v-5.439a1.939,1.939,0,0,1,2.07-2.17,2.728,2.728,0,0,1,.962.154v-2.333a2.7,2.7,0,0,0-.754-.1,2.323,2.323,0,0,0-2.315,1.907h-.054V-32.4h-2.56Zm10.914.209c2.942,0,4.821-1.879,4.821-5.084,0-3.16-1.907-5.066-4.821-5.066s-4.821,1.916-4.821,5.066C123.858-24.349,125.737-22.46,128.679-22.46Zm0-2.025c-1.307,0-2.134-1.1-2.134-3.051,0-1.934.844-3.051,2.134-3.051s2.125,1.117,2.125,3.051C130.8-25.584,129.977-24.485,128.679-24.485Zm6.891-10.16V-32.4H134.2v2h1.371v5.112c0,1.9.89,2.66,3.178,2.66a6.1,6.1,0,0,0,1.262-.109v-1.952a4.291,4.291,0,0,1-.645.045c-.781,0-1.144-.354-1.144-1.1V-30.4h1.8v-2h-1.8v-2.243Zm12.212,9a1.938,1.938,0,0,1-1.961,1.226,2.165,2.165,0,0,1-2.234-2.342v-.163h6.71v-.808c0-2.96-1.789-4.876-4.621-4.876-2.878,0-4.694,2.016-4.694,5.121s1.8,5.03,4.794,5.03c2.406,0,4.149-1.28,4.44-3.187Zm-2.079-5a2.02,2.02,0,0,1,2.043,2.1h-4.131A2.107,2.107,0,0,1,145.7-30.65Zm14.8,1.87c-.118-2.206-1.789-3.832-4.422-3.832-2.915,0-4.776,1.943-4.776,5.066,0,3.178,1.861,5.084,4.794,5.084,2.56,0,4.276-1.48,4.413-3.777h-2.47a1.831,1.831,0,0,1-1.916,1.7c-1.317,0-2.134-1.09-2.134-3.005,0-1.879.817-2.987,2.125-2.987a1.887,1.887,0,0,1,1.925,1.752Zm2-5.865V-32.4h-1.371v2H162.5v5.112c0,1.9.89,2.66,3.178,2.66a6.1,6.1,0,0,0,1.262-.109v-1.952a4.291,4.291,0,0,1-.645.045c-.781,0-1.144-.354-1.144-1.1V-30.4h1.8v-2h-1.8v-2.243Zm15.807,7.808v-2.315h-5.965v2.315Zm6.374-7.808V-32.4H183.31v2h1.371v5.112c0,1.9.89,2.66,3.178,2.66a6.1,6.1,0,0,0,1.262-.109v-1.952a4.291,4.291,0,0,1-.645.045c-.781,0-1.144-.354-1.144-1.1V-30.4h1.8v-2h-1.8v-2.243Zm14.89,2.243H196.92v5.575A1.9,1.9,0,0,1,195-24.694c-1.171,0-1.816-.69-1.816-1.988V-32.4h-2.651v6.274a3.332,3.332,0,0,0,3.5,3.641,2.892,2.892,0,0,0,2.914-1.934h.054v1.752h2.56Zm1.725,9.733h2.651v-5.439a1.939,1.939,0,0,1,2.07-2.17,2.728,2.728,0,0,1,.962.154v-2.333a2.7,2.7,0,0,0-.754-.1,2.323,2.323,0,0,0-2.315,1.907h-.054V-32.4H201.3Zm6.764,0h2.651v-5.584a1.928,1.928,0,0,1,1.943-2.134c1.189,0,1.789.726,1.789,2v5.72h2.651v-6.274c0-2.279-1.217-3.641-3.378-3.641a3.075,3.075,0,0,0-3.042,1.916h-.054V-32.4h-2.56Zm17.16-2.978a1.938,1.938,0,0,1-1.961,1.226,2.165,2.165,0,0,1-2.234-2.342v-.163h6.71v-.808c0-2.96-1.789-4.876-4.621-4.876-2.878,0-4.694,2.016-4.694,5.121s1.8,5.03,4.794,5.03c2.406,0,4.149-1.28,4.44-3.187Zm-2.079-5a2.02,2.02,0,0,1,2.043,2.1h-4.131A2.107,2.107,0,0,1,223.141-30.65Zm9.57,8.135a3.21,3.21,0,0,0,3.033-1.825h.045v1.671H238.4v-13.1h-2.651v5.039H235.7a3.129,3.129,0,0,0-2.969-1.825c-2.442,0-3.986,1.916-3.986,5C228.743-24.44,230.278-22.515,232.711-22.515Zm.9-7.917c1.316,0,2.161,1.126,2.161,2.9s-.844,2.887-2.161,2.887c-1.335,0-2.152-1.1-2.152-2.887S232.275-30.432,233.61-30.432Zm14.709,7.972c2.942,0,4.821-1.879,4.821-5.084,0-3.16-1.907-5.066-4.821-5.066S243.5-30.7,243.5-27.545C243.5-24.349,245.377-22.46,248.319-22.46Zm0-2.025c-1.307,0-2.134-1.1-2.134-3.051,0-1.934.844-3.051,2.134-3.051s2.125,1.117,2.125,3.051C250.443-25.584,249.617-24.485,248.319-24.485Zm6.183,1.816h2.651v-5.584a1.928,1.928,0,0,1,1.943-2.134c1.189,0,1.789.726,1.789,2v5.72h2.651v-6.274c0-2.279-1.217-3.641-3.378-3.641a3.075,3.075,0,0,0-3.042,1.916h-.054V-32.4H254.5Z" transform="translate(107.215 56.996)"/><path d="M5.685-19.538V-30.017h3.79V-31H.815v.985H4.6v10.479Zm5.061,0H11.8V-24.4A2.378,2.378,0,0,1,14.25-27a2.061,2.061,0,0,1,2.2,2.3v5.164h1.057v-5.339a2.814,2.814,0,0,0-2.955-3.059,2.785,2.785,0,0,0-2.725,1.66H11.8V-31H10.746Zm9.12-9.978a.7.7,0,0,0,.707-.7.7.7,0,0,0-.707-.7.7.7,0,0,0-.7.7A.7.7,0,0,0,19.866-29.517Zm-.524,9.978h1.049V-27.8H19.342Zm2.765-6.054c0,1.144.739,1.835,2.312,2.2l1.239.294c1.112.27,1.517.667,1.517,1.382,0,.866-.818,1.446-2.058,1.446a1.966,1.966,0,0,1-2.2-1.637H21.868c.143,1.509,1.382,2.5,3.249,2.5,1.8,0,3.114-.993,3.114-2.391,0-1.168-.62-1.8-2.272-2.2l-1.247-.294c-1.1-.262-1.565-.683-1.565-1.359,0-.826.771-1.422,1.9-1.422a1.858,1.858,0,0,1,2.026,1.66h1.009a2.75,2.75,0,0,0-3.035-2.526C23.322-27.936,22.107-26.958,22.107-25.592Zm14.729-2.344a3.021,3.021,0,0,0-2.844,1.883H33.96V-27.8h-.993v11h1.049v-4.433h.032A2.964,2.964,0,0,0,36.86-19.4c2.074,0,3.5-1.692,3.5-4.266S38.925-27.936,36.836-27.936Zm-.183,7.6c-1.565,0-2.638-1.343-2.638-3.337s1.073-3.337,2.638-3.337c1.6,0,2.63,1.327,2.63,3.337S38.25-20.333,36.653-20.333Zm5.108.794H42.81v-5.148a1.982,1.982,0,0,1,1.923-2.248,2.127,2.127,0,0,1,.787.119v-1.033a2.726,2.726,0,0,0-.651-.087,2.1,2.1,0,0,0-2.089,1.6h-.024V-27.8h-.993Zm7.77.135c2.248,0,3.766-1.645,3.766-4.266s-1.517-4.266-3.766-4.266-3.766,1.637-3.766,4.266S47.283-19.4,49.531-19.4Zm0-.93c-1.621,0-2.693-1.239-2.693-3.337s1.073-3.337,2.693-3.337,2.7,1.239,2.7,3.337S51.152-20.333,49.531-20.333Zm5.617-9.533V-27.8H53.916v.874h1.231v5.355c0,1.494.556,2.081,1.938,2.081a6.564,6.564,0,0,0,.779-.048v-.9c-.064.016-.461.032-.572.032-.763,0-1.1-.365-1.1-1.216v-5.307h1.629V-27.8H56.2v-2.066Zm9.6,7.984A2.237,2.237,0,0,1,62.4-20.325c-1.645,0-2.7-1.16-2.7-3.027v-.064h6.189v-.445c0-2.463-1.382-4.076-3.575-4.076-2.24,0-3.694,1.724-3.694,4.29,0,2.622,1.438,4.242,3.758,4.242a3.221,3.221,0,0,0,3.408-2.479ZM62.3-27.014a2.536,2.536,0,0,1,2.51,2.765h-5.1A2.643,2.643,0,0,1,62.3-27.014Zm11.718,1.827a3.251,3.251,0,0,0-3.4-2.749c-2.248,0-3.734,1.66-3.734,4.266,0,2.646,1.486,4.266,3.742,4.266a3.225,3.225,0,0,0,3.4-2.693H72.983a2.24,2.24,0,0,1-2.352,1.764c-1.613,0-2.677-1.263-2.677-3.337,0-2.042,1.057-3.337,2.669-3.337a2.289,2.289,0,0,1,2.36,1.819Zm1.772-4.679V-27.8H74.556v.874h1.231v5.355c0,1.494.556,2.081,1.938,2.081a6.563,6.563,0,0,0,.779-.048v-.9c-.064.016-.461.032-.572.032-.763,0-1.1-.365-1.1-1.216v-5.307h1.629V-27.8H76.836v-2.066Zm4,4.274c0,1.144.739,1.835,2.312,2.2l1.239.294c1.112.27,1.517.667,1.517,1.382,0,.866-.818,1.446-2.058,1.446a1.966,1.966,0,0,1-2.2-1.637H79.553c.143,1.509,1.382,2.5,3.249,2.5,1.8,0,3.114-.993,3.114-2.391,0-1.168-.62-1.8-2.272-2.2L82.4-24.289c-1.1-.262-1.565-.683-1.565-1.359,0-.826.771-1.422,1.9-1.422a1.858,1.858,0,0,1,2.026,1.66h1.009a2.75,2.75,0,0,0-3.035-2.526C81.007-27.936,79.792-26.958,79.792-25.592Zm11.456,9.041c1.351,0,1.946-.54,2.669-2.487L97.166-27.8H96.054l-2.51,7.214H93.52L91.009-27.8H89.881l3.09,8.318-.215.62c-.365,1.033-.779,1.414-1.541,1.414a2.3,2.3,0,0,1-.493-.048v.9A3.285,3.285,0,0,0,91.248-16.551ZM101.393-19.4c2.248,0,3.766-1.645,3.766-4.266s-1.517-4.266-3.766-4.266-3.766,1.637-3.766,4.266S99.145-19.4,101.393-19.4Zm0-.93c-1.621,0-2.693-1.239-2.693-3.337s1.073-3.337,2.693-3.337,2.7,1.239,2.7,3.337S103.013-20.333,101.393-20.333Zm11.79-7.468h-1.049v4.9a2.344,2.344,0,0,1-2.407,2.558,2.007,2.007,0,0,1-2.161-2.272V-27.8h-1.057v5.37a2.763,2.763,0,0,0,2.916,3.027,2.837,2.837,0,0,0,2.741-1.668h.024v1.533h.993Zm1.811,8.262h1.049v-5.148a1.982,1.982,0,0,1,1.923-2.248,2.127,2.127,0,0,1,.787.119v-1.033a2.726,2.726,0,0,0-.651-.087,2.1,2.1,0,0,0-2.089,1.6h-.024V-27.8h-.993Zm11.337.135a3.043,3.043,0,0,0,2.86-1.883h.024v1.748h1V-31h-1.057v4.9h-.024a2.986,2.986,0,0,0-2.828-1.835c-2.074,0-3.511,1.692-3.511,4.266S124.241-19.4,126.331-19.4Zm.183-7.6c1.573,0,2.653,1.343,2.653,3.337s-1.08,3.337-2.653,3.337c-1.589,0-2.638-1.319-2.638-3.337S124.924-27.006,126.513-27.006Zm11.3,5.124a2.237,2.237,0,0,1-2.344,1.557c-1.645,0-2.7-1.16-2.7-3.027v-.064h6.189v-.445c0-2.463-1.382-4.076-3.575-4.076-2.24,0-3.694,1.724-3.694,4.29,0,2.622,1.438,4.242,3.758,4.242a3.221,3.221,0,0,0,3.408-2.479Zm-2.447-5.132a2.536,2.536,0,0,1,2.51,2.765h-5.1A2.643,2.643,0,0,1,135.364-27.014Zm11.48-.787h-1.1l-2.518,7.158H143.2l-2.51-7.158h-1.112l3.075,8.262h1.12Zm1.629-1.716a.7.7,0,0,0,.707-.7.7.7,0,0,0-.707-.7.7.7,0,0,0-.7.7A.7.7,0,0,0,148.472-29.517Zm-.524,9.978H149V-27.8h-1.049Zm9.653-5.649a3.251,3.251,0,0,0-3.4-2.749c-2.248,0-3.734,1.66-3.734,4.266,0,2.646,1.486,4.266,3.742,4.266a3.225,3.225,0,0,0,3.4-2.693h-1.041a2.24,2.24,0,0,1-2.352,1.764c-1.613,0-2.677-1.263-2.677-3.337,0-2.042,1.057-3.337,2.669-3.337a2.289,2.289,0,0,1,2.36,1.819Zm7.031,3.3a2.237,2.237,0,0,1-2.344,1.557c-1.645,0-2.7-1.16-2.7-3.027v-.064h6.189v-.445c0-2.463-1.382-4.076-3.575-4.076-2.24,0-3.694,1.724-3.694,4.29,0,2.622,1.438,4.242,3.758,4.242a3.221,3.221,0,0,0,3.408-2.479Zm-2.447-5.132a2.536,2.536,0,0,1,2.51,2.765h-5.1A2.643,2.643,0,0,1,162.184-27.014Zm8.747,7.476h1.057v-7.388h1.772V-27.8h-1.78v-1.025c0-.922.421-1.327,1.215-1.327a3.421,3.421,0,0,1,.612.056v-.866a4.727,4.727,0,0,0-.763-.064,1.89,1.89,0,0,0-2.113,2.177V-27.8h-1.152v.874h1.152Zm4.195,0h1.049v-5.148a1.982,1.982,0,0,1,1.923-2.248,2.127,2.127,0,0,1,.787.119v-1.033a2.727,2.727,0,0,0-.651-.087,2.1,2.1,0,0,0-2.089,1.6h-.024V-27.8h-.993Zm7.77.135c2.248,0,3.766-1.645,3.766-4.266s-1.517-4.266-3.766-4.266-3.766,1.637-3.766,4.266S180.647-19.4,182.9-19.4Zm0-.93c-1.621,0-2.693-1.239-2.693-3.337s1.072-3.337,2.693-3.337,2.7,1.239,2.7,3.337S184.516-20.333,182.9-20.333Zm5.164.794h1.049v-5.077A2.16,2.16,0,0,1,191.2-27a1.815,1.815,0,0,1,1.891,1.954v5.506h1.057v-5.2A2.074,2.074,0,0,1,196.211-27a1.826,1.826,0,0,1,1.915,2.05v5.41h1.049v-5.649a2.545,2.545,0,0,0-2.669-2.749A2.72,2.72,0,0,0,193.9-26.2h-.024a2.384,2.384,0,0,0-2.391-1.74,2.471,2.471,0,0,0-2.407,1.66h-.024V-27.8h-.993Zm16.278,0h1.057V-24.4a2.378,2.378,0,0,1,2.447-2.6,2.061,2.061,0,0,1,2.2,2.3v5.164H211.1v-5.339a2.814,2.814,0,0,0-2.955-3.059,2.785,2.785,0,0,0-2.725,1.66h-.024V-31h-1.057Zm10.971.135a3.078,3.078,0,0,0,2.82-1.708h.024v1.573h1v-5.656c0-1.684-1.184-2.741-3.067-2.741s-3.1,1.049-3.218,2.526h1.017a1.974,1.974,0,0,1,2.177-1.6,1.814,1.814,0,0,1,2.042,1.907v.715l-2.574.159c-1.907.127-2.963.985-2.963,2.4A2.465,2.465,0,0,0,215.309-19.4Zm.214-.906c-1.12,0-1.891-.62-1.891-1.517,0-.914.723-1.478,2.026-1.565l2.447-.167v.914A2.442,2.442,0,0,1,215.524-20.309Zm5.394.771h1.049v-5.148a1.982,1.982,0,0,1,1.923-2.248,2.127,2.127,0,0,1,.786.119v-1.033a2.726,2.726,0,0,0-.651-.087,2.1,2.1,0,0,0-2.089,1.6h-.024V-27.8h-.993Zm4.886,0h1.049v-5.077A2.16,2.16,0,0,1,228.942-27a1.815,1.815,0,0,1,1.891,1.954v5.506h1.057v-5.2A2.074,2.074,0,0,1,233.955-27a1.826,1.826,0,0,1,1.915,2.05v5.41h1.049v-5.649a2.545,2.545,0,0,0-2.669-2.749,2.72,2.72,0,0,0-2.606,1.74h-.024a2.384,2.384,0,0,0-2.391-1.74,2.471,2.471,0,0,0-2.407,1.66H226.8V-27.8H225.8Zm13.3,0h1.057v-7.388h1.772V-27.8h-1.78v-1.025c0-.922.421-1.327,1.215-1.327a3.421,3.421,0,0,1,.612.056v-.866a4.727,4.727,0,0,0-.763-.064,1.89,1.89,0,0,0-2.113,2.177V-27.8h-1.152v.874H239.1Zm10.82-8.262h-1.049v4.9a2.344,2.344,0,0,1-2.407,2.558,2.007,2.007,0,0,1-2.161-2.272V-27.8H243.25v5.37a2.763,2.763,0,0,0,2.916,3.027,2.837,2.837,0,0,0,2.741-1.668h.024v1.533h.993Zm1.883,8.262h1.049V-31h-1.049Zm8.707.135a3.078,3.078,0,0,0,2.82-1.708h.024v1.573h1v-5.656c0-1.684-1.184-2.741-3.067-2.741s-3.1,1.049-3.218,2.526h1.017a1.974,1.974,0,0,1,2.177-1.6A1.814,1.814,0,0,1,263.31-25.1v.715l-2.574.159c-1.907.127-2.963.985-2.963,2.4A2.465,2.465,0,0,0,260.513-19.4Zm.215-.906c-1.12,0-1.891-.62-1.891-1.517,0-.914.723-1.478,2.026-1.565l2.447-.167v.914A2.442,2.442,0,0,1,260.728-20.309Zm9.263-7.627a3.021,3.021,0,0,0-2.844,1.883h-.032V-27.8h-.993v11h1.049v-4.433h.032a2.964,2.964,0,0,0,2.812,1.835c2.074,0,3.5-1.692,3.5-4.266S272.081-27.936,269.991-27.936Zm-.183,7.6c-1.565,0-2.638-1.343-2.638-3.337s1.073-3.337,2.638-3.337c1.6,0,2.63,1.327,2.63,3.337S271.405-20.333,269.808-20.333Zm8.977-7.6a3.021,3.021,0,0,0-2.844,1.883h-.032V-27.8h-.993v11h1.049v-4.433H276A2.964,2.964,0,0,0,278.81-19.4c2.074,0,3.5-1.692,3.5-4.266S280.875-27.936,278.786-27.936Zm-.183,7.6c-1.565,0-2.638-1.343-2.638-3.337s1.073-3.337,2.638-3.337c1.6,0,2.63,1.327,2.63,3.337S280.2-20.333,278.6-20.333Zm4.941-5.259c0,1.144.739,1.835,2.312,2.2l1.239.294c1.112.27,1.517.667,1.517,1.382,0,.866-.818,1.446-2.058,1.446a1.966,1.966,0,0,1-2.2-1.637h-1.049c.143,1.509,1.382,2.5,3.249,2.5,1.8,0,3.114-.993,3.114-2.391,0-1.168-.62-1.8-2.272-2.2l-1.247-.294c-1.1-.262-1.565-.683-1.565-1.359,0-.826.771-1.422,1.9-1.422a1.858,1.858,0,0,1,2.026,1.66h1.009a2.75,2.75,0,0,0-3.035-2.526C284.76-27.936,283.544-26.958,283.544-25.592Z" transform="translate(107.86 78.781)"/><rect class="c" width="81.933" height="81.839" transform="translate(0 0)"/><path class="d" d="M.393,0H.66V-2.123A1.149,1.149,0,0,1,1.818-3.37a1.021,1.021,0,0,1,1.094,1.1V0h.267V-2.3a1.22,1.22,0,0,0-1.3-1.306,1.242,1.242,0,0,0-1.23.827H.643v-.772H.393ZM5.7.055A1.616,1.616,0,0,0,7.285-1.777,1.616,1.616,0,0,0,5.7-3.609,1.613,1.613,0,0,0,4.117-1.777,1.613,1.613,0,0,0,5.7.055Zm0-.239c-.79,0-1.316-.6-1.316-1.593S4.91-3.37,5.7-3.37s1.319.6,1.319,1.593S6.489-.185,5.7-.185Zm6.854-3.37h-.28L11.364-.294h-.01l-.988-3.261h-.3L9.074-.294H9.067L8.155-3.555H7.878L8.91,0h.314l.984-3.213h.01L11.21,0h.308Z" transform="translate(382.943 25.297)"/><path class="e" d="M-228.994-2844.475h29.4v29.4h-29.4Z" transform="translate(254.494 2870.694)"/><g transform="translate(28.997 27.851)"><path class="b" d="M-217.215-2789.356c-.186-.171-.49-.143-.659-.408.614-.606,1.235-1.215,1.851-1.829q4.626-4.612,9.242-9.234c.293-.295.431-.283.71.005,1.2,1.237,2.427,2.447,3.683,3.707l-14.065,7.76Z" transform="translate(218.494 2815.492)"/><path class="b" d="M-219.549-2812.235v-21.576l.136-.109a1.722,1.722,0,0,0,.218.367q5.1,5.1,10.219,10.192c.2.2.384.314.07.627q-5.275,5.277-10.517,10.586Z" transform="translate(219.549 2836.196)"/><path class="b" d="M-202.372-2832.123a2.918,2.918,0,0,0-.238.195c-1.209,1.2-2.42,2.4-3.617,3.615-.209.212-.323.24-.551.012q-5.517-5.524-11.056-11.026c-.281-.279-.182-.391.09-.533a1.786,1.786,0,0,1,1.81.09c1.768.989,3.542,1.965,5.314,2.947q3.939,2.184,7.875,4.37C-202.614-2832.379-202.431-2832.358-202.372-2832.123Z" transform="translate(218.575 2840.065)"/><path class="b" d="M-172.977-2812.136a1.6,1.6,0,0,1-.812,1.4c-1.763,1-3.539,1.971-5.306,2.961a.291.291,0,0,1-.415-.065q-1.976-1.986-3.97-3.955c-.208-.2-.139-.306.028-.471q2.031-2.009,4.043-4.036a.383.383,0,0,1,.557-.055c1.625.912,3.256,1.812,4.884,2.715A1.741,1.741,0,0,1-172.977-2812.136Z" transform="translate(196.916 2825.196)"/></g></g></svg>