<svg xmlns="http://www.w3.org/2000/svg" xmlns:xlink="http://www.w3.org/1999/xlink" width="446.295" height="111.839" viewBox="0 0 446.295 111.839"><defs><style>.a{fill:#fff;}.b{fill:#333;}.c{fill:#535aff;}.d{fill:#4d4d4d;}.e{fill:none;}.f{filter:url(#a);}</style><filter id="a" x="0" y="0" width="446.295" height="111.839" filterUnits="userSpaceOnUse"><feOffset dy="3" input="SourceAlpha"/><feGaussianBlur stdDeviation="5" result="b"/><feFlood flood-opacity="0.349"/><feComposite operator="in" in2="b"/><feComposite in="SourceGraphic"/></filter></defs><g transform="translate(14.657 12)"><g class="f" transform="matrix(1, 0, 0, 1, -14.66, -12)"><rect class="a" width="416.295" height="81.839" transform="translate(15 12)"/></g><path class="b" d="M8.04-23.208c3.214,0,5.457-1.843,5.765-4.767H11.136a2.958,2.958,0,0,1-3.087,2.506c-2.1,0-3.414-1.725-3.414-4.522,0-2.76,1.335-4.494,3.4-4.494a3.035,3.035,0,0,1,3.087,2.66H13.8c-.209-2.933-2.606-4.93-5.756-4.93-3.8,0-6.2,2.551-6.2,6.773S4.227-23.208,8.04-23.208Zm10.069-.064a3.348,3.348,0,0,0,2.969-1.643h.054v1.489h2.56v-6.692c0-1.961-1.625-3.25-4.122-3.25-2.579,0-4.186,1.3-4.285,3.187H17.71a1.578,1.578,0,0,1,1.743-1.208c1,0,1.634.527,1.634,1.435v.645l-2.451.145c-2.424.145-3.786,1.171-3.786,2.942A3.01,3.01,0,0,0,18.109-23.272Zm.872-1.916c-.9,0-1.5-.454-1.5-1.18,0-.69.563-1.135,1.553-1.208l2.052-.127v.708A1.944,1.944,0,0,1,18.981-25.187Zm6.483,1.761h2.651v-13.1H25.464ZM36.35-26.4a1.938,1.938,0,0,1-1.961,1.226,2.165,2.165,0,0,1-2.234-2.342v-.163h6.71v-.808c0-2.96-1.789-4.876-4.621-4.876-2.878,0-4.694,2.016-4.694,5.121s1.8,5.03,4.794,5.03c2.406,0,4.149-1.28,4.44-3.187Zm-2.079-5a2.02,2.02,0,0,1,2.043,2.1H32.183A2.107,2.107,0,0,1,34.271-31.407Zm5.956,7.981h2.651V-29.01a1.928,1.928,0,0,1,1.943-2.134c1.189,0,1.789.726,1.789,2v5.72h2.651V-29.7c0-2.279-1.217-3.641-3.378-3.641a3.075,3.075,0,0,0-3.042,1.916h-.054v-1.734h-2.56Zm14.327.154A3.21,3.21,0,0,0,57.587-25.1h.045v1.671h2.615v-13.1H57.6v5.039h-.054a3.129,3.129,0,0,0-2.969-1.825c-2.442,0-3.986,1.916-3.986,5C50.587-25.2,52.121-23.272,54.554-23.272Zm.9-7.917c1.317,0,2.161,1.126,2.161,2.9s-.844,2.887-2.161,2.887c-1.335,0-2.152-1.1-2.152-2.887S54.119-31.189,55.453-31.189ZM64.9-23.272a3.348,3.348,0,0,0,2.969-1.643h.054v1.489h2.56v-6.692c0-1.961-1.625-3.25-4.122-3.25-2.579,0-4.186,1.3-4.286,3.187h2.424a1.578,1.578,0,0,1,1.743-1.208c1,0,1.634.527,1.634,1.435v.645l-2.451.145c-2.424.145-3.786,1.171-3.786,2.942A3.01,3.01,0,0,0,64.9-23.272Zm.872-1.916c-.9,0-1.5-.454-1.5-1.18,0-.69.563-1.135,1.553-1.208l2.052-.127v.708A1.944,1.944,0,0,1,65.777-25.187ZM72.2-23.426h2.651v-5.439a1.939,1.939,0,0,1,2.07-2.17,2.728,2.728,0,0,1,.962.154v-2.333a2.7,2.7,0,0,0-.754-.1,2.323,2.323,0,0,0-2.315,1.907h-.054v-1.752H72.2ZM80.685-29.8a1.461,1.461,0,0,0,1.462-1.462,1.455,1.455,0,0,0-1.462-1.462,1.449,1.449,0,0,0-1.462,1.462A1.455,1.455,0,0,0,80.685-29.8Zm0,6.483a1.461,1.461,0,0,0,1.462-1.462,1.455,1.455,0,0,0-1.462-1.462,1.449,1.449,0,0,0-1.462,1.462A1.455,1.455,0,0,0,80.685-23.317Zm9.969-.109v-8.58h.082l6.129,8.58h2.27v-13.1H96.51v8.535h-.073l-6.12-8.535H88.03v13.1Zm13.12.154a3.348,3.348,0,0,0,2.969-1.643h.054v1.489h2.56v-6.692c0-1.961-1.625-3.25-4.122-3.25-2.579,0-4.186,1.3-4.285,3.187h2.424a1.578,1.578,0,0,1,1.743-1.208c1,0,1.634.527,1.634,1.435v.645l-2.451.145c-2.424.145-3.786,1.171-3.786,2.942A3.01,3.01,0,0,0,103.774-23.272Zm.872-1.916c-.9,0-1.5-.454-1.5-1.18,0-.69.563-1.135,1.553-1.208l2.052-.127v.708A1.944,1.944,0,0,1,104.646-25.187Zm12.1-8.126a3.173,3.173,0,0,0-3.014,1.852h-.054v-1.7h-2.615v12.911h2.651V-25.06h.054a3.189,3.189,0,0,0,3.023,1.789c2.433,0,3.94-1.889,3.94-5.021S119.218-33.313,116.749-33.313Zm-.89,7.908c-1.3,0-2.152-1.126-2.152-2.887,0-1.743.853-2.9,2.152-2.9,1.326,0,2.161,1.135,2.161,2.9S117.184-25.405,115.859-25.405Zm10.623-10v2.243h-1.371v2h1.371v5.112c0,1.9.89,2.66,3.178,2.66a6.1,6.1,0,0,0,1.262-.109v-1.952a4.291,4.291,0,0,1-.645.045c-.781,0-1.144-.354-1.144-1.1v-4.658h1.8v-2h-1.8V-35.4Zm7.264.926a1.37,1.37,0,0,0,1.38-1.362,1.364,1.364,0,0,0-1.38-1.362,1.364,1.364,0,0,0-1.38,1.362A1.37,1.37,0,0,0,133.745-34.476Zm-1.317,11.05h2.651v-9.733h-2.651Zm4.413,0h2.651V-29.3a1.692,1.692,0,0,1,1.689-1.852,1.486,1.486,0,0,1,1.571,1.662v6.065H145.3v-5.911a1.653,1.653,0,0,1,1.671-1.816c1.026,0,1.589.617,1.589,1.743v5.983h2.651v-6.646a3.053,3.053,0,0,0-3.187-3.269,3.083,3.083,0,0,0-3.023,2h-.054a2.586,2.586,0,0,0-2.715-2,2.857,2.857,0,0,0-2.778,1.943H139.4v-1.761h-2.56Zm22.5-2.978a1.938,1.938,0,0,1-1.961,1.226,2.165,2.165,0,0,1-2.234-2.342v-.163h6.71v-.808c0-2.96-1.789-4.876-4.621-4.876-2.878,0-4.694,2.016-4.694,5.121s1.8,5.03,4.794,5.03c2.406,0,4.149-1.28,4.44-3.187Zm-2.079-5a2.02,2.02,0,0,1,2.043,2.1h-4.131A2.107,2.107,0,0,1,157.261-31.407Z" transform="translate(107.215 57.753)"/><path d="M5.685-19.809V-30.287h3.79v-.985H.815v.985H4.6v10.479Zm6.324.135c2.248,0,3.766-1.645,3.766-4.266s-1.517-4.266-3.766-4.266S8.243-26.569,8.243-23.94,9.761-19.673,12.009-19.673Zm0-.93c-1.621,0-2.693-1.239-2.693-3.337s1.073-3.337,2.693-3.337,2.7,1.239,2.7,3.337S13.63-20.6,12.009-20.6Zm8.286.93a3.043,3.043,0,0,0,2.86-1.883h.024v1.748h1V-31.272H23.124v4.9H23.1a2.986,2.986,0,0,0-2.828-1.835c-2.074,0-3.511,1.692-3.511,4.266S18.206-19.673,20.3-19.673Zm.183-7.6c1.573,0,2.653,1.343,2.653,3.337S22.051-20.6,20.478-20.6c-1.589,0-2.638-1.319-2.638-3.337S18.889-27.276,20.478-27.276Zm8.032,7.6a3.078,3.078,0,0,0,2.82-1.708h.024v1.573h1v-5.656c0-1.684-1.184-2.741-3.067-2.741s-3.1,1.049-3.218,2.526h1.017a1.974,1.974,0,0,1,2.177-1.6,1.814,1.814,0,0,1,2.042,1.907v.715l-2.574.159c-1.907.127-2.963.985-2.963,2.4A2.465,2.465,0,0,0,28.51-19.673Zm.215-.906c-1.12,0-1.891-.62-1.891-1.517,0-.914.723-1.478,2.026-1.565l2.447-.167v.914A2.442,2.442,0,0,1,28.724-20.579Zm5.99,3.758c1.351,0,1.946-.54,2.669-2.487l3.249-8.763H39.521l-2.51,7.214h-.024l-2.51-7.214H33.348l3.09,8.318-.215.62c-.365,1.033-.779,1.414-1.541,1.414a2.3,2.3,0,0,1-.493-.048v.9A3.286,3.286,0,0,0,34.715-16.821ZM47.95-19.809H49V-31.272H47.934c-.342.207-2.773,1.923-3.09,2.121v1.1c.334-.207,2.82-1.907,3.075-2.066h.032Zm9.239,0h1.057V-22.4h1.708v-.961H58.246v-7.929H56.657c-2.534,3.551-4.036,5.8-5.283,7.9v.993H57.19Zm-4.719-3.583c1.144-1.859,2.59-4.02,4.7-6.943h.016v6.975H52.471Zm9.97-4.767a.739.739,0,0,0,.739-.747.732.732,0,0,0-.739-.739.739.739,0,0,0-.747.739A.746.746,0,0,0,62.441-28.158Zm0,6.721a.739.739,0,0,0,.739-.747.732.732,0,0,0-.739-.739.739.739,0,0,0-.747.739A.746.746,0,0,0,62.441-21.437Zm6.872,1.811c2.606,0,4.147-2.3,4.147-5.927,0-3.6-1.549-5.9-4.147-5.9s-4.155,2.312-4.155,5.911C65.158-21.922,66.707-19.626,69.313-19.626Zm0-.953c-1.938,0-3.059-1.931-3.059-4.973,0-2.987,1.144-4.941,3.059-4.941s3.059,1.938,3.059,4.949C72.372-22.51,71.251-20.579,69.313-20.579Zm9.708.953c2.606,0,4.147-2.3,4.147-5.927,0-3.6-1.549-5.9-4.147-5.9s-4.155,2.312-4.155,5.911C74.866-21.922,76.415-19.626,79.021-19.626Zm0-.953c-1.938,0-3.059-1.931-3.059-4.973,0-2.987,1.144-4.941,3.059-4.941s3.059,1.938,3.059,4.949C82.08-22.51,80.96-20.579,79.021-20.579Zm10.932-3.368v-.985H84.741v.985Zm4.393,4.139h1.049V-31.272H94.33c-.342.207-2.773,1.923-3.09,2.121v1.1c.334-.207,2.82-1.907,3.075-2.066h.032Zm7.714.183a3.809,3.809,0,0,0,4.028-3.877,3.68,3.68,0,0,0-3.79-3.8,3.317,3.317,0,0,0-2.789,1.319h-.024l.453-4.322H105.4v-.969H99.041l-.62,6.427H99.4a3.027,3.027,0,0,1,2.725-1.517A2.8,2.8,0,0,1,105-23.479a2.8,2.8,0,0,1-2.924,2.892,2.649,2.649,0,0,1-2.8-2.209H98.215A3.594,3.594,0,0,0,102.06-19.626Zm6.594-8.532a.739.739,0,0,0,.739-.747.732.732,0,0,0-.739-.739.739.739,0,0,0-.747.739A.746.746,0,0,0,108.654-28.158Zm0,6.721a.739.739,0,0,0,.739-.747.732.732,0,0,0-.739-.739.739.739,0,0,0-.747.739A.746.746,0,0,0,108.654-21.437Zm6.872,1.811c2.606,0,4.147-2.3,4.147-5.927,0-3.6-1.549-5.9-4.147-5.9s-4.155,2.312-4.155,5.911C111.371-21.922,112.92-19.626,115.526-19.626Zm0-.953c-1.938,0-3.059-1.931-3.059-4.973,0-2.987,1.144-4.941,3.059-4.941s3.059,1.938,3.059,4.949C118.585-22.51,117.465-20.579,115.526-20.579Zm9.708.953c2.606,0,4.147-2.3,4.147-5.927,0-3.6-1.549-5.9-4.147-5.9s-4.155,2.312-4.155,5.911C121.079-21.922,122.628-19.626,125.234-19.626Zm0-.953c-1.938,0-3.059-1.931-3.059-4.973,0-2.987,1.144-4.941,3.059-4.941s3.059,1.938,3.059,4.949C128.293-22.51,127.173-20.579,125.234-20.579Z" transform="translate(107.86 79.051)"/><rect class="c" width="81.933" height="81.839" transform="translate(0 0)"/><path class="d" d="M.393,0H.66V-2.123A1.149,1.149,0,0,1,1.818-3.37a1.021,1.021,0,0,1,1.094,1.1V0h.267V-2.3a1.22,1.22,0,0,0-1.3-1.306,1.242,1.242,0,0,0-1.23.827H.643v-.772H.393ZM5.7.055A1.616,1.616,0,0,0,7.285-1.777,1.616,1.616,0,0,0,5.7-3.609,1.613,1.613,0,0,0,4.117-1.777,1.613,1.613,0,0,0,5.7.055Zm0-.239c-.79,0-1.316-.6-1.316-1.593S4.91-3.37,5.7-3.37s1.319.6,1.319,1.593S6.489-.185,5.7-.185Zm6.854-3.37h-.28L11.364-.294h-.01l-.988-3.261h-.3L9.074-.294H9.067L8.155-3.555H7.878L8.91,0h.314l.984-3.213h.01L11.21,0h.308Z" transform="translate(382.943 25.297)"/><path class="e" d="M-228.994-3360.732h29.4v29.4h-29.4Z" transform="translate(254.494 3386.95)"/><path class="b" d="M-198-3354.194h-1.2v-1.2a1.2,1.2,0,0,0-1.2-1.2,1.2,1.2,0,0,0-1.2,1.2v1.2h-11.969v-1.2a1.2,1.2,0,0,0-1.2-1.2,1.2,1.2,0,0,0-1.2,1.2v1.2h-1.2a2.4,2.4,0,0,0-2.394,2.393v19.152a2.4,2.4,0,0,0,2.394,2.394H-198a2.4,2.4,0,0,0,2.394-2.394V-3351.8A2.4,2.4,0,0,0-198-3354.194Zm-1.2,21.545h-16.757a1.2,1.2,0,0,1-1.2-1.2v-14.363H-198v14.363A1.2,1.2,0,0,1-199.2-3332.649Z" transform="translate(248.546 3384.341)"/></g></svg>